1 8 162 0 36 1 0 0 0 1 0 0 0 1 2865.dat
1 8 482 0 36 1 0 0 0 1 0 0 0 1 2865.dat
1 8 162 0 -1564 1 0 0 0 1 0 0 0 1 2865.dat
1 8 482 0 -1564 1 0 0 0 1 0 0 0 1 2865.dat
1 8 798.072021 0 20.628 1 0 0.19500000000000003 0 1 0 -0.19500000000000003 0 1 2867.dat
1 8 1086.457031 0 -98.823997 0.8310000000000001 0 0.556 0 1 0 -0.556 0 0.8310000000000001 2867.dat
1 8 1307.176025 0 -319.542999 0.556 0 0.8310000000000001 0 1 0 -0.8310000000000001 0 0.556 2867.dat
1 8 1426.629028 0 -607.927979 0.19500000000000003 0 1 0 1 0 -0.9810000000000001 0 0.19500000000000003 2867.dat
1 8 -782.627991 0 -607.927979 0.19500000000000003 0 -0.9810000000000001 0 1 0 1 0 0.19500000000000003 2867.dat
1 8 -663.1760250000001 0 -319.542999 0.556 0 -0.8310000000000001 0 1 0 0.8310000000000001 0 0.556 2867.dat
1 8 -442.457001 0 -98.823997 0.8310000000000001 0 -0.556 0 1 0 0.556 0 0.8310000000000001 2867.dat
1 8 -154.072006 0 20.629000000000005 1 0 -0.19500000000000003 0 1 0 0.19500000000000003 0 1 2867.dat
1 8 1426.628052 0 -920.072021 -0.19500000000000003 0 1 0 1 0 -0.9810000000000001 0 -0.19500000000000003 2867.dat
1 8 1307.176025 0 -1208.457031 -0.556 0 0.8310000000000001 0 1 0 -0.8310000000000001 0 -0.556 2867.dat
1 8 1086.457031 0 -1429.1760250000002 -0.8310000000000001 0 0.556 0 1 0 -0.556 0 -0.8310000000000001 2867.dat
1 8 798.072021 0 -1548.6290280000003 -0.9810000000000001 0 0.19500000000000003 0 1 0 -0.19500000000000003 0 -0.9810000000000001 2867.dat
1 8 -154.072006 0 -1548.6280520000003 -0.9810000000000001 0 -0.19500000000000003 0 1 0 0.19500000000000003 0 -0.9810000000000001 2867.dat
1 8 -442.457001 0 -1429.1760250000002 -0.8310000000000001 0 -0.556 0 1 0 0.556 0 -0.8310000000000001 2867.dat
1 8 -663.1760250000001 0 -1208.457031 -0.556 0 -0.8310000000000001 0 1 0 0.8310000000000001 0 -0.556 2867.dat
1 8 -782.6290280000001 0 -920.072021 -0.19500000000000003 0 -0.9810000000000001 0 1 0 1 0 -0.19500000000000003 2867.dat
1 0 0 -8 200 0 0 -1 0 1 0 1 0 0 3795.dat
1 0 160 -8 200 0 0 -1 0 1 0 1 0 0 3795.dat
1 0 320 -8 200 0 0 -1 0 1 0 1 0 0 3795.dat
1 0 480 -8 200 0 0 -1 0 1 0 1 0 0 3795.dat
1 0 640 -8 200 0 0 -1 0 1 0 1 0 0 3795.dat
1 0 0 -32 150 1 0 0 0 1 0 0 0 1 3298.dat
1 0 160 -32 250 -1 0 0 0 1 0 0 0 -1 3004.dat
1 0 160 -32 150 1 0 0 0 1 0 0 0 1 3298.dat
1 0 0 -32 170 -1 0 0 0 1 0 0 0 -1 3004.dat
1 0 0 -32 240 -1 0 0 0 1 0 0 0 -1 3003.dat
1 0 320 -32 150 1 0 0 0 1 0 0 0 1 3298.dat
1 0 320 -32 250 -1 0 0 0 1 0 0 0 -1 3004.dat
1 0 480 -32 150 1 0 0 0 1 0 0 0 1 3298.dat
1 0 480 -32 250 -1 0 0 0 1 0 0 0 -1 3004.dat
1 0 640 -32 250 -1 0 0 0 1 0 0 0 -1 3004.dat
1 0 640 -32 150 1 0 0 0 1 0 0 0 1 3298.dat
1 0 0 -40 160 -1 0 0 0 1 0 0 0 -1 3022.dat
1 0 0 -40 240 -1 0 0 0 1 0 0 0 -1 3022.dat
1 0 0 -48.00000000000001 170 -1 0 0 0 1 0 0 0 -1 4275b.dat
1 0 0 -48.00000000000001 230 -1 0 0 0 1 0 0 0 -1 4275b.dat
1 0 0 -48.00000000000001 250 -1 0 0 0 1 0 0 0 -1 3023.dat
1 0 0 -48.00000000000001 150 -1 0 0 0 1 0 0 0 -1 3023.dat
1 0 0 -56.00000000000001 200 0 0 -1 0 1 0 1 0 0 3795.dat
1 0 160 -56.00000000000001 200 0 0 -1 0 1 0 1 0 0 2456.dat
1 0 320 -56.00000000000001 200 0 0 -1 0 1 0 1 0 0 2456.dat
1 0 480 -56.00000000000001 200 0 0 -1 0 1 0 1 0 0 2456.dat
1 0 640 -56.00000000000001 200 0 0 -1 0 1 0 1 0 0 2456.dat
1 0 -98.25299800000002 -28.000000000000004 170 1 0.284 0 -0.284 1 0 0 0 1 4504.dat
1 0 -98.25299800000002 -28.000000000000004 230 1 0.284 0 -0.284 1 0 0 0 1 4504.dat
1 0 -100.526001 -35.625 230 1 0.284 0 -0.284 1 0 0 0 1 3666.dat
1 0 -100.526001 -35.625 170 1 0.284 0 -0.284 1 0 0 0 1 3666.dat
1 7 60 -64 200 -1 0 0 0 1 0 0 0 -1 3033.dat
1 7 240 -64 200 -1 0 0 0 1 0 0 0 -1 3036.dat
1 7 400 -64 200 -1 0 0 0 1 0 0 0 -1 3036.dat
1 7 580 -64 200 -1 0 0 0 1 0 0 0 -1 3033.dat
1 7 -54.856998 -57.495998 200 0 0.284 -0.959 0 1 0.284 1 0 0 3666.dat
1 7 -141.149994 -31.934999000000005 200 -0.959 0.284 0 0.284 1 0 0 0 -1 3036.dat
1 15 160 -232.00000000000003 240 -1 0 0 0 1 0 0 0 -1 2039.dat
1 15 480 -232.00000000000003 240 -1 0 0 0 1 0 0 0 -1 2039.dat
1 4 230 -72 240 0 0 1 0 1 0 -1 0 0 3023.dat
1 4 410 -72 240 0 0 1 0 1 0 -1 0 0 3023.dat
1 4 320 -72 240 0 0 1 0 1 0 -1 0 0 3022.dat
1 4 320 -80 240 1 0 0 0 1 0 0 0 1 2445.dat
1 0 580 -112.00000000000001 250 1 0 0 0 1 0 0 0 1 2486.dat
1 0 60 -112.00000000000001 250 1 0 0 0 1 0 0 0 1 2486.dat
1 0 670 -88 190 1 0 0 0 1 0 0 0 1 3040a.dat
1 0 670 -88 210 -1 0 0 0 1 0 0 0 -1 3040a.dat
1 0 670 -112.00000000000001 200 0 0 -1 0 1 0 1 0 0 3004.dat
1 46 480 -256 240 0 0 -1 0 1 0 1 0 0 6143.dat
1 4 420 -88 240 1 0 0 0 1 0 0 0 1 4079.dat
1 4 360 -88 240 1 0 0 0 1 0 0 0 1 4079.dat
1 4 220 -88 240 1 0 0 0 1 0 0 0 1 4079.dat
1 4 280 -88 240 1 0 0 0 1 0 0 0 1 4079.dat
1 0 670 -184.00000000000003 200 0 0 1 0 1 0 -1 0 0 4033.dat
1 15 480 -272 240 0 0 1 0 1 0 -1 0 0 3960.dat
1 46 160 -256 240 0 0 -1 0 1 0 1 0 0 6143.dat
1 15 160 -272 240 0 0 1 0 1 0 -1 0 0 3960.dat
1 15 666.0000000000001 -150 200 0 0 1 0 1 0 -1 0 0 3855b.dat
1 14 50 -160 200 0 0 1 0 1 0 -1 0 0 3626bp01.dat
1 1 50 -104 200 0 0 1 0 1 0 -1 0 0 3815.dat
1 1 48.780998000000004 -126.899002 215.576004 0.077 -0.353 0.933 0.165 0.9260000000000002 0.338 -0.983 0.128 0.13 3818.dat
1 1 50 -127.00000000000001 184.39999400000002 0 -0.325 0.9460000000000001 -0.174 0.9310000000000002 0.32100000000000006 -0.984 -0.164 -0.057 3819.dat
1 14 32.485001 -113.561996 221.62199400000003 0 0.414 0.909 0.10200000000000001 0.903 -0.416 -0.993 0.11300000000000002 0 3820.dat
1 14 34.484001 -113.488998 176.936005 0 0.43800000000000006 0.899 -0.127 0.893 -0.431 -0.9910000000000001 -0.104 0.076 3820.dat
1 1 50 -92.00000000000001 200 0 0 1 0 1 0 -1 0 0 3816.dat
1 1 50 -92.00000000000001 200 0 0 1 0 1 0 -1 0 0 3817.dat
1 4 50 -160 200 0 0 1 0 1 0 -1 0 0 3624.dat
1 1 50 -136 200 0 0 1 0 1 0 -1 0 0 973p19.dat
1 4 -25 -78.780998 196.73100300000002 0.057 -0.772 0.634 0 0.635 0.7730000000000001 -0.998 0 0 2495.dat
1 0 -25 -78.780998 196.73100300000002 0.057 -0.772 0.634 0 0.635 0.7730000000000001 -0.998 0 0 2496.dat
1 14 -25 -110.78099800000001 196.73100300000002 0.057 -0.772 0.634 0 0.635 0.7730000000000001 -0.998 0 0 3004.dat
1 14 -40.71405 -111.00000000000001 196 0.056863 0.6338310000000001 0.771379 0 0.7719690000000001 -0.635468 -0.9982600000000001 0 0 168225a.dat
1 14 260 -162 170 1 0 0 0 1 0 0 0 1 3626bp01.dat
1 1 260 -104 170 1 0 0 0 1 0 0 0 1 3815.dat
1 1 244.39999400000002 -127.00000000000001 170 1 -0.146 -0.09500000000000001 0.174 0.8260000000000001 0.537 0 -0.544 0.839 3818.dat
1 1 275.600006 -127.00000000000001 170 1 0.11300000000000002 0.132 -0.174 0.639 0.7490000000000001 0 -0.7600000000000001 0.65 3819.dat
1 14 237.66299400000003 -117.613998 151.403 1 -0.17 0 0.174 1 -0.20400000000000001 0 0.208 1 3820.dat
1 14 281.345001 -123.238998 149.201004 1 0.173 0 -0.174 1 0.078 0 -0.078 1 3820.dat
1 1 260 -92.00000000000001 170 1 0 0 0 1 0 0 0 1 3816.dat
1 1 260 -92.00000000000001 170 1 0 0 0 1 0 0 0 1 3817.dat
1 15 260 -136 170 1 0 0 0 1 0 0 0 1 973p1d.dat
1 0 260 -162 170 1 0 0 0 1 0 0 0 1 3901.dat
1 6 260 -136 170 1 0 0 0 1 0 0 0 1 2524.dat
1 15 668 -150 200 0 -1 0 0 0 -1 1 0 0 10001 - 164557a.dat
1 15 664 -150 200 0 1 0 0 0 -1 -1 0 0 10001 - 164557b.dat
1 4 415 -118 180 0 0 1 0 1 0 -1 0 0 4719c01.dat
1 0 555 -118 180 0 0 1 0 1 0 -1 0 0 4719c01.dat
1 0 -194.75199800000001 -78 -13.877997999999998 -0.8660000000000001 0 0.5 0 1 0 -0.5 0 -0.8660000000000001 4092a.dat
1 0 -151.451998 -70 11.122002000000002 0.5 0 0.8660000000000001 0 1 0 -0.8660000000000001 0 0.5 2878.dat
1 0 -177.431998 -62 -3.877997999999998 0.8660000000000001 0 -0.5 0 1 0 0.5 0 0.8660000000000001 3795.dat
1 0 -220.73199799999998 -70 -28.877997999999998 0.5 0 0.8660000000000001 0 1 0 -0.8660000000000001 0 0.5 2878.dat
1 0 -238.05199799999997 -62 -38.877998 0.5 0 0.8660000000000001 0 1 0 -0.8660000000000001 0 0.5 3023.dat
1 0 -212.071998 -70 -23.877997999999998 0.8660000000000001 0 -0.5 0 1 0 0.5 0 0.8660000000000001 3020.dat
1 0 -142.791998 -70 16.122002000000002 -0.5 0 -0.8660000000000001 0 1 0 0.8660000000000001 0 -0.5 4022.dat
1 0 -186.091998 -54 -8.877997999999998 0.5 0 0.8660000000000001 0 1 0 -0.8660000000000001 0 0.5 3666.dat
1 0 -186.091998 -46.00000000000001 -8.877997999999998 0.8660000000000001 0 -0.5 0 1 0 0.5 0 0.8660000000000001 3002.dat
1 0 -206.091998 -62 25.762002000000006 0.5 0 0.8660000000000001 0 1 0 -0.8660000000000001 0 0.5 3069b.dat
1 0 -166.091998 -62 -43.517998000000006 0.5 0 0.8660000000000001 0 1 0 -0.8660000000000001 0 0.5 3069b.dat
1 0 -220.73199799999998 -38 -28.877997999999998 0.5 0 0.8660000000000001 0 1 0 -0.8660000000000001 0 0.5 70720c01.dat
1 0 -151.451998 -38 11.122002000000002 0.5 0 0.8660000000000001 0 1 0 -0.8660000000000001 0 0.5 70720c01.dat
1 0 -114.57999800000002 -54 31.256002000000006 -0.5 0 -0.8660000000000001 0 1 0 0.8660000000000001 0 -0.5 2920.dat
1 0 -86.001998 -50 47.756002 -0.5 0 -0.8660000000000001 0 1 0 0.8660000000000001 0 -0.5 2959.dat
1 0 -86.001998 -50 47.756002 -0.5 0 -0.8660000000000001 0 1 0 0.8660000000000001 0 -0.5 70023.dat
1 0 -334.17799800000006 -38 -94.37799799999999 -0.8660000000000001 0 0.5 0 1 0 -0.5 0 -0.8660000000000001 3035.dat
1 0 -354.17799800000006 -70 -59.737998000000005 -0.8660000000000001 0 0.5 0 1 0 -0.5 0 -0.8660000000000001 3034.dat
1 0 -273.557998 -78 -59.377998000000005 0.5 0 0.8660000000000001 0 1 0 -0.8660000000000001 0 0.5 3710.dat
1 0 -334.17799800000006 -78 -94.37799799999999 0.5 0 0.8660000000000001 0 1 0 -0.8660000000000001 0 0.5 3020.dat
1 0 -401.13799800000004 -78 -98.39799800000002 -0.8660000000000001 0 0.5 0 1 0 -0.5 0 -0.8660000000000001 3023.dat
1 0 -401.13799800000004 -62 -98.39799800000002 -0.8660000000000001 0 0.5 0 1 0 -0.5 0 -0.8660000000000001 3660.dat
1 0 -366.49799800000005 -62 -78.397998 -0.8660000000000001 0 0.5 0 1 0 -0.5 0 -0.8660000000000001 3660.dat
1 0 -331.85799800000007 -62 -58.397998 -0.8660000000000001 0 0.5 0 1 0 -0.5 0 -0.8660000000000001 3660.dat
1 0 -297.217998 -62 -38.397998 -0.8660000000000001 0 0.5 0 1 0 -0.5 0 -0.8660000000000001 3660.dat
1 0 -336.49799800000005 -62 -130.357998 0.8660000000000001 0 -0.5 0 1 0 0.5 0 0.8660000000000001 3660.dat
1 0 -371.13799800000004 -62 -150.357998 0.8660000000000001 0 -0.5 0 1 0 0.5 0 0.8660000000000001 3660.dat
1 0 -267.217998 -62 -90.35799799999998 0.8660000000000001 0 -0.5 0 1 0 0.5 0 0.8660000000000001 3660.dat
1 0 -301.857998 -62 -110.357998 0.8660000000000001 0 -0.5 0 1 0 0.5 0 0.8660000000000001 3660.dat
1 0 -314.177998 -70 -129.01799799999998 -0.8660000000000001 0 0.5 0 1 0 -0.5 0 -0.8660000000000001 3034.dat
1 0 -371.13799800000004 -78 -150.357998 -0.8660000000000001 0 0.5 0 1 0 -0.5 0 -0.8660000000000001 3023.dat
1 0 -507.372496124 -78 -195.52950500000003 -0.5 0 -0.8660000000000001 0 1 0 0.8660000000000001 0 -0.5 70358.dat
1 0 -522.372496124 -70 -169.54950499999998 -0.5 0 -0.8660000000000001 0 1 0 0.8660000000000001 0 -0.5 2871a.dat
1 0 -492.3733422060001 -70 -221.50999350000004 0.5 0 0.8660000000000001 0 1 0 -0.8660000000000001 0 0.5 2871a.dat
1 0 -576.652470144 -70 -235.52948999999998 0.5 0 0.8660000000000001 0 1 0 -0.8660000000000001 0 0.5 4022.dat
1 0 -632.9424701439999 -50 -268.02949 0.5 0 0.8660000000000001 0 1 0 -0.8660000000000001 0 0.5 2959c01.dat
1 0 -602.632470144 -54 -250.52948999999998 0.5 0 0.8660000000000001 0 1 0 -0.8660000000000001 0 0.5 2920.dat
1 0 -438.09249612400004 -78 -155.52950500000003 0.8660000000000001 0 -0.5 0 1 0 0.5 0 0.8660000000000001 5306.dat
1 7 -351.49799800000005 -86 -104.377998 0.8660000000000001 0 -0.5 0 1 0 0.5 0 0.8660000000000001 4093c.dat
1 4 -548.357998 -110 -183.39799800000003 0.8660000000000001 0 -0.5 0 1 0 0.5 0 0.8660000000000001 3622.dat
1 4 -547.017998 -110 -205.71799800000002 0.8660000000000001 0 -0.5 0 1 0 0.5 0 0.8660000000000001 3004.dat
1 4 -540.677998 -110 -236.69799799999998 -0.5 0 -0.8660000000000001 0 1 0 0.8660000000000001 0 -0.5 3134.dat
1 14 -210.61799800000003 -110 11.602002000000006 0.8660000000000001 0 -0.5 0 1 0 0.5 0 0.8660000000000001 3004.dat
1 14 -180.617998 -110 -40.357998 0.8660000000000001 0 -0.5 0 1 0 0.5 0 0.8660000000000001 3004.dat
1 14 -256.237998 -110 -49.377998000000005 -0.5 0 -0.8660000000000001 0 1 0 0.8660000000000001 0 -0.5 3010.dat
1 7 -273.557998 -110 -59.377998000000005 -0.5 0 -0.8660000000000001 0 1 0 0.8660000000000001 0 -0.5 3010.dat
1 7 -109.017998 -94 35.622002 -0.5 0 -0.8660000000000001 0 1 0 0.8660000000000001 0 -0.5 3020.dat
1 7 -94.017998 -102.00000000000001 9.642001999999998 -0.8660000000000001 0 0.5 0 1 0 -0.5 0 -0.8660000000000001 3023.dat
1 7 -124.017998 -102.00000000000001 61.602002 -0.8660000000000001 0 0.5 0 1 0 -0.5 0 -0.8660000000000001 3023.dat
1 7 -185.977998 -110 48.922002000000006 -0.8660000000000001 0 0.5 0 1 0 -0.5 0 -0.8660000000000001 3009.dat
1 7 -289.89799800000003 -110 -11.077998000000003 -0.8660000000000001 0 0.5 0 1 0 -0.5 0 -0.8660000000000001 3009.dat
1 7 -393.81799800000005 -110 -71.07799800000001 -0.8660000000000001 0 0.5 0 1 0 -0.5 0 -0.8660000000000001 3009.dat
1 7 -567.017998 -110 -171.07799799999998 -0.8660000000000001 0 0.5 0 1 0 -0.5 0 -0.8660000000000001 3009.dat
1 7 -517.017998 -110 -257.677998 -0.8660000000000001 0 0.5 0 1 0 -0.5 0 -0.8660000000000001 3009.dat
1 7 -343.81799800000005 -110 -157.677998 -0.8660000000000001 0 0.5 0 1 0 -0.5 0 -0.8660000000000001 3009.dat
1 7 -239.897998 -110 -97.677998 -0.8660000000000001 0 0.5 0 1 0 -0.5 0 -0.8660000000000001 3009.dat
1 7 -135.977998 -110 -37.677997999999995 -0.8660000000000001 0 0.5 0 1 0 -0.5 0 -0.8660000000000001 3009.dat
1 1 -499.69799800000004 -118 -247.67799800000003 -0.8660000000000001 0 0.5 0 1 0 -0.5 0 -0.8660000000000001 3710.dat
1 1 -549.6979980000001 -118 -161.07799799999998 -0.8660000000000001 0 0.5 0 1 0 -0.5 0 -0.8660000000000001 3710.dat
1 1 -419.797998 -118 -86.07799799999998 -0.8660000000000001 0 0.5 0 1 0 -0.5 0 -0.8660000000000001 3623.dat
1 1 -369.797998 -118 -172.67799800000003 -0.8660000000000001 0 0.5 0 1 0 -0.5 0 -0.8660000000000001 3623.dat
1 1 -170.617998 -118 -57.677997999999995 -0.8660000000000001 0 0.5 0 1 0 -0.5 0 -0.8660000000000001 4477.dat
1 1 -220.61799800000003 -118 28.922002 -0.8660000000000001 0 0.5 0 1 0 -0.5 0 -0.8660000000000001 4477.dat
1 15 -585.317998 -110 -239.377998 0.5 0 0.8660000000000001 0 1 0 -0.8660000000000001 0 0.5 6035.dat
1 15 -499.69799800000004 -126.00000000000001 -247.67799800000003 -0.8660000000000001 0 0.5 0 1 0 -0.5 0 -0.8660000000000001 3710.dat
1 15 -369.797998 -126.00000000000001 -172.67799800000003 -0.8660000000000001 0 0.5 0 1 0 -0.5 0 -0.8660000000000001 3623.dat
1 15 -170.617998 -126.00000000000001 -57.677997999999995 -0.8660000000000001 0 0.5 0 1 0 -0.5 0 -0.8660000000000001 4477.dat
1 15 -549.6979980000001 -126.00000000000001 -161.07799799999998 -0.8660000000000001 0 0.5 0 1 0 -0.5 0 -0.8660000000000001 3710.dat
1 15 -419.797998 -126.00000000000001 -86.07799799999998 -0.8660000000000001 0 0.5 0 1 0 -0.5 0 -0.8660000000000001 3623.dat
1 15 -220.61799800000003 -126.00000000000001 28.922002 -0.8660000000000001 0 0.5 0 1 0 -0.5 0 -0.8660000000000001 4477.dat
1 0 -124.017998 -126.00000000000001 61.602002 0.8660000000000001 0 -0.5 0 1 0 0.5 0 0.8660000000000001 2877.dat
1 0 -94.017998 -126.00000000000001 9.642001999999998 -0.8660000000000001 0 0.5 0 1 0 -0.5 0 -0.8660000000000001 2877.dat
1 0 -402.59199800000005 -134 -133.877998 -0.5 0 -0.8660000000000001 0 1 0 0.8660000000000001 0 -0.5 4746.dat
1 4 -499.69799800000004 -134 -247.67799800000003 -0.8660000000000001 0 0.5 0 1 0 -0.5 0 -0.8660000000000001 3710.dat
1 4 -170.617998 -134 -57.677997999999995 -0.8660000000000001 0 0.5 0 1 0 -0.5 0 -0.8660000000000001 4477.dat
1 4 -549.6979980000001 -134 -161.07799799999998 -0.8660000000000001 0 0.5 0 1 0 -0.5 0 -0.8660000000000001 3710.dat
1 4 -220.61799800000003 -134 28.922002 -0.8660000000000001 0 0.5 0 1 0 -0.5 0 -0.8660000000000001 4477.dat
1 4 -428.45799800000003 -134 -91.07799799999998 -0.8660000000000001 0 0.5 0 1 0 -0.5 0 -0.8660000000000001 3023.dat
1 4 -378.45799800000003 -134 -177.67799800000003 -0.8660000000000001 0 0.5 0 1 0 -0.5 0 -0.8660000000000001 3023.dat
1 4 -560.677998 -134 -202.057998 0.5 0 0.8660000000000001 0 1 0 -0.8660000000000001 0 0.5 3660.dat
1 4 -540.677998 -134 -236.69799799999998 0.5 0 0.8660000000000001 0 1 0 -0.8660000000000001 0 0.5 3660.dat
1 14 -195.61799800000003 -134 -14.377997999999998 0.5 0 0.8660000000000001 0 1 0 -0.8660000000000001 0 0.5 3001.dat
1 14 -256.237998 -134 -49.377998000000005 -0.5 0 -0.8660000000000001 0 1 0 0.8660000000000001 0 -0.5 3010.dat
1 7 -273.557998 -134 -59.377998000000005 -0.5 0 -0.8660000000000001 0 1 0 0.8660000000000001 0 -0.5 3010.dat
1 0 -576.657998 -126.00000000000001 -234.377998 0.8660000000000001 0 -0.5 0 1 0 0.5 0 0.8660000000000001 5306.dat
1 4 -362.47799799999996 -134 -145.357998 -0.8660000000000001 0 0.5 0 1 0 -0.5 0 -0.8660000000000001 2420.dat
1 4 -392.47799799999996 -134 -93.397998 -0.5 0 -0.8660000000000001 0 1 0 0.8660000000000001 0 -0.5 2420.dat
1 4 -584.451998 -134 -238.877998 0.5 0 0.8660000000000001 0 1 0 -0.8660000000000001 0 0.5 3710.dat
1 7 -142.677998 -142 73.92200199999999 0.8660000000000001 0 -0.5 0 1 0 0.5 0 0.8660000000000001 3024.dat
1 0 -565.791998 -142 -251.19799799999998 0.5 0 0.8660000000000001 0 1 0 -0.8660000000000001 0 0.5 3068b.dat
1 0 -585.791998 -142 -216.557998 0.5 0 0.8660000000000001 0 1 0 -0.8660000000000001 0 0.5 3068b.dat
1 15 -540.677998 -142 -236.69799799999998 -0.5 0 -0.8660000000000001 0 1 0 0.8660000000000001 0 -0.5 3069bp68.dat
1 15 -560.677998 -142 -202.057998 -0.5 0 -0.8660000000000001 0 1 0 0.8660000000000001 0 -0.5 3069bp52.dat
1 46 -619.957998 -110 -259.377998 0.5 0 0.8660000000000001 0 1 0 -0.8660000000000001 0 0.5 2919.dat
1 7 -593.9779980000001 -134 -244.377998 0.5 0 0.8660000000000001 0 1 0 -0.8660000000000001 0 0.5 10001 - 2916pb03.dat
1 4 -386.13799800000004 -142 -124.377998 0.5 0 0.8660000000000001 0 1 0 -0.8660000000000001 0 0.5 3020.dat
1 0 -401.13799800000004 -150 -98.39799800000002 -0.8660000000000001 0 0.5 0 1 0 -0.5 0 -0.8660000000000001 3023.dat
1 0 -371.13799800000004 -150 -150.357998 -0.8660000000000001 0 0.5 0 1 0 -0.5 0 -0.8660000000000001 3023.dat
1 0 -386.13799800000004 -150 -124.377998 -0.5 0 -0.8660000000000001 0 1 0 0.8660000000000001 0 -0.5 3956.dat
1 4 -386.13799800000004 -158 -124.377998 0.5 0 0.8660000000000001 0 1 0 -0.8660000000000001 0 0.5 3020.dat
1 0 -124.017998 -150 61.602002 0.8660000000000001 0 -0.5 0 1 0 0.5 0 0.8660000000000001 2877.dat
1 0 -94.017998 -150 9.642001999999998 -0.8660000000000001 0 0.5 0 1 0 -0.5 0 -0.8660000000000001 2877.dat
1 7 -92.677998 -142 -12.677997999999997 0.8660000000000001 0 -0.5 0 1 0 0.5 0 0.8660000000000001 3024.dat
1 14 -534.6979980000001 -118 -187.057998 0.5 0 0.8660000000000001 0 1 0 -0.8660000000000001 0 0.5 4079.dat
1 0 -354.961998 -158 -106.37799799999999 -0.5 -0.8660000000000001 0 0 0 -1 0.8660000000000001 -0.5 0 2342.dat
1 0 -344.20399800000007 -168 -99.01199799999999 -0.5 0 0.8660000000000001 0 -1 0 0.8660000000000001 0 0.5 4588.dat
1 7 -319.869943402 -151.06300400000003 -86.1169965 -0.5 -0.8045140000000001 0.32042000000000004 0 -0.37 -0.929 0.8660000000000001 -0.4645 0.185 4592.dat
1 0 -319.925363072 -151.087006 -86.14899399999999 -0.5 -0.756018 0.422608 0 -0.48800000000000004 -0.873 0.8660000000000001 -0.4365 0.24400000000000002 4593.dat
1 7 -92.677998 -166 -12.677997999999997 0.8660000000000001 0 -0.5 0 1 0 0.5 0 0.8660000000000001 3005.dat
1 7 -142.677998 -166 73.92200199999999 0.8660000000000001 0 -0.5 0 1 0 0.5 0 0.8660000000000001 3005.dat
1 7 -237.93799800000002 -158 18.922002 0.8660000000000001 0 -0.5 0 1 0 0.5 0 0.8660000000000001 3004.dat
1 7 -187.937998 -158 -67.677998 0.8660000000000001 0 -0.5 0 1 0 0.5 0 0.8660000000000001 3004.dat
1 7 -273.557998 -158 -59.377998000000005 0.5 0 0.8660000000000001 0 1 0 -0.8660000000000001 0 0.5 3009.dat
1 7 -387.117998 -158 -182.67799800000003 0.8660000000000001 0 -0.5 0 1 0 0.5 0 0.8660000000000001 3005.dat
1 7 -437.117998 -158 -96.07799799999998 0.8660000000000001 0 -0.5 0 1 0 0.5 0 0.8660000000000001 3005.dat
1 7 -361.13799800000004 -158 -167.67799800000003 0.8660000000000001 0 -0.5 0 1 0 0.5 0 0.8660000000000001 2877.dat
1 7 -411.13799800000004 -158 -81.07799800000001 -0.8660000000000001 0 0.5 0 1 0 -0.5 0 -0.8660000000000001 2877.dat
1 7 -473.71799799999997 -158 -232.67799800000003 0.8660000000000001 0 -0.5 0 1 0 0.5 0 0.8660000000000001 3005.dat
1 7 -523.717998 -158 -146.07799799999998 0.8660000000000001 0 -0.5 0 1 0 0.5 0 0.8660000000000001 3005.dat
1 0 -124.017998 -174.00000000000003 61.602002 0.8660000000000001 0 -0.5 0 1 0 0.5 0 0.8660000000000001 2877.dat
1 0 -94.017998 -174.00000000000003 9.642001999999998 -0.8660000000000001 0 0.5 0 1 0 -0.5 0 -0.8660000000000001 2877.dat
1 0 -411.25199799999996 -158 -138.877998 0.5 0 0.8660000000000001 0 1 0 -0.8660000000000001 0 0.5 3039pc4.dat
1 1 -191.957998 -158 -0.7179980000000015 0.12139400000000002 0 0.9922200000000001 0 1 0 -0.9922200000000001 0 0.12139400000000002 3899.dat
1 1 -271.237998 -158 -23.397997999999994 0.5 0 0.8660000000000001 0 1 0 -0.8660000000000001 0 0.5 3899.dat
1 1 -241.237998 -158 -75.35799800000001 0.5 0 0.8660000000000001 0 1 0 -0.8660000000000001 0 0.5 3899.dat
1 7 -92.677998 -174.00000000000003 -12.677997999999997 0.8660000000000001 0 -0.5 0 1 0 0.5 0 0.8660000000000001 3024.dat
1 7 -142.677998 -174.00000000000003 73.92200199999999 0.8660000000000001 0 -0.5 0 1 0 0.5 0 0.8660000000000001 3024.dat
1 7 -187.937998 -182 -67.677998 0.8660000000000001 0 -0.5 0 1 0 0.5 0 0.8660000000000001 3004.dat
1 7 -182.937998 -170 -76.337998 0.8660000000000001 -0.5 0 0 0 -1 0.5 0.8660000000000001 0 10001 - 164565d.dat
1 7 -237.93799800000002 -182 18.922002 -0.8660000000000001 0 0.5 0 1 0 -0.5 0 -0.8660000000000001 3004.dat
1 7 -242.93799800000002 -170 27.582002000000006 -0.8660000000000001 0.5 0 0 0 -1 -0.5 -0.8660000000000001 0 10001 - 164565d.dat
1 7 -273.557998 -182 -59.377998000000005 0.5 0 0.8660000000000001 0 1 0 -0.8660000000000001 0 0.5 3009.dat
1 7 -361.13799800000004 -182 -167.67799800000003 0.8660000000000001 0 -0.5 0 1 0 0.5 0 0.8660000000000001 2877.dat
1 7 -387.117998 -182 -182.67799800000003 0.8660000000000001 0 -0.5 0 1 0 0.5 0 0.8660000000000001 3005.dat
1 7 -411.13799800000004 -182 -81.07799800000001 -0.8660000000000001 0 0.5 0 1 0 -0.5 0 -0.8660000000000001 2877.dat
1 7 -437.117998 -182 -96.07799799999998 0.8660000000000001 0 -0.5 0 1 0 0.5 0 0.8660000000000001 3005.dat
1 7 -523.717998 -182 -146.07799799999998 0.8660000000000001 0 -0.5 0 1 0 0.5 0 0.8660000000000001 3005.dat
1 7 -473.71799799999997 -182 -232.67799800000003 0.8660000000000001 0 -0.5 0 1 0 0.5 0 0.8660000000000001 3005.dat
1 0 -376.61199799999997 -182 -118.87799799999999 0.5 0 0.8660000000000001 0 1 0 -0.8660000000000001 0 0.5 3298.dat
1 0 -376.61199799999997 -190 -118.87799799999999 0.5 0 0.8660000000000001 0 1 0 -0.8660000000000001 0 0.5 2412b.dat
1 7 -92.677998 -198 -12.677997999999997 0.8660000000000001 0 -0.5 0 1 0 0.5 0 0.8660000000000001 3005.dat
1 7 -142.677998 -198 73.92200199999999 0.8660000000000001 0 -0.5 0 1 0 0.5 0 0.8660000000000001 3005.dat
1 7 -187.937998 -206 -67.677998 0.8660000000000001 0 -0.5 0 1 0 0.5 0 0.8660000000000001 3004.dat
1 7 -237.93799800000002 -206 18.922002 0.8660000000000001 0 -0.5 0 1 0 0.5 0 0.8660000000000001 3004.dat
1 7 -273.557998 -206 -59.377998000000005 0.5 0 0.8660000000000001 0 1 0 -0.8660000000000001 0 0.5 3009.dat
1 7 -361.13799800000004 -206 -167.67799800000003 0.8660000000000001 0 -0.5 0 1 0 0.5 0 0.8660000000000001 2877.dat
1 7 -411.13799800000004 -206 -81.07799800000001 -0.8660000000000001 0 0.5 0 1 0 -0.5 0 -0.8660000000000001 2877.dat
1 7 -523.717998 -206 -146.07799799999998 0.8660000000000001 0 -0.5 0 1 0 0.5 0 0.8660000000000001 3005.dat
1 7 -473.71799799999997 -206 -232.67799800000003 0.8660000000000001 0 -0.5 0 1 0 0.5 0 0.8660000000000001 3005.dat
1 7 -412.117998 -206 -139.377998 -0.5 0 -0.8660000000000001 0 1 0 0.8660000000000001 0 -0.5 3455.dat
1 0 -124.017998 -198 61.602002 0.8660000000000001 0 -0.5 0 1 0 0.5 0 0.8660000000000001 2877.dat
1 0 -94.017998 -198 9.642001999999998 -0.8660000000000001 0 0.5 0 1 0 -0.5 0 -0.8660000000000001 2877.dat
1 0 -542.017998 -214.00000000000003 -214.377998 0.5 0 0.8660000000000001 0 1 0 -0.8660000000000001 0 0.5 2917.dat
1 47 -542.017998 -214.00000000000003 -214.377998 0.5 0 0.8660000000000001 0 1 0 -0.8660000000000001 0 0.5 2918.dat
1 7 -265.877998 -206 -112.677998 -0.5 0 -0.8660000000000001 0 1 0 0.8660000000000001 0 -0.5 3194p03.dat
1 7 -454.437998 -206 -106.07799799999998 -0.5 0 -0.8660000000000001 0 1 0 0.8660000000000001 0 -0.5 4181p04.dat
1 7 -404.437998 -206 -192.67799800000003 -0.5 0 -0.8660000000000001 0 1 0 0.8660000000000001 0 -0.5 4182p04.dat
1 7 -315.877998 -206 -26.077998000000004 -0.5 0 -0.8660000000000001 0 1 0 0.8660000000000001 0 -0.5 3195p03.dat
1 7 -222.577998 -206 -87.677998 0.8660000000000001 0 -0.5 0 1 0 0.5 0 0.8660000000000001 4035.dat
1 7 -135.977998 -206 -37.677997999999995 0.8660000000000001 0 -0.5 0 1 0 0.5 0 0.8660000000000001 4033.dat
1 47 -135.977998 -206 -37.677997999999995 0.8660000000000001 0 -0.5 0 1 0 0.5 0 0.8660000000000001 4034.dat
1 47 -222.577998 -206 -87.677998 0.8660000000000001 0 -0.5 0 1 0 0.5 0 0.8660000000000001 4036.dat
1 7 -185.977998 -206 48.922002000000006 -0.8660000000000001 0 0.5 0 1 0 -0.5 0 -0.8660000000000001 4033.dat
1 47 -185.977998 -206 48.922002000000006 -0.8660000000000001 0 0.5 0 1 0 -0.5 0 -0.8660000000000001 4034.dat
1 7 -272.577998 -206 -1.077998000000001 -0.8660000000000001 0 0.5 0 1 0 -0.5 0 -0.8660000000000001 4035.dat
1 47 -272.577998 -206 -1.077998000000001 -0.8660000000000001 0 0.5 0 1 0 -0.5 0 -0.8660000000000001 4036.dat
1 7 -132.677998 -206 56.602002 0.8660000000000001 0 -0.5 0 1 0 0.5 0 0.8660000000000001 2420.dat
1 7 -102.677998 -206 4.642001999999998 0.5 0 0.8660000000000001 0 1 0 -0.8660000000000001 0 0.5 2420.dat
1 0 -430.417998 -214.00000000000003 -207.67799800000003 0.8660000000000001 0 -0.5 0 1 0 0.5 0 0.8660000000000001 4162.dat
1 0 -291.857998 -214.00000000000003 -127.677998 0.8660000000000001 0 -0.5 0 1 0 0.5 0 0.8660000000000001 4162.dat
1 0 -237.93799800000002 -214.00000000000003 18.922002 0.8660000000000001 0 -0.5 0 1 0 0.5 0 0.8660000000000001 2431.dat
1 0 -135.977998 -214.00000000000003 -37.677997999999995 0.8660000000000001 0 -0.5 0 1 0 0.5 0 0.8660000000000001 3069b.dat
1 0 -185.977998 -214.00000000000003 48.922002000000006 0.8660000000000001 0 -0.5 0 1 0 0.5 0 0.8660000000000001 3069b.dat
1 0 -187.937998 -214.00000000000003 -67.677998 0.8660000000000001 0 -0.5 0 1 0 0.5 0 0.8660000000000001 2431.dat
1 0 -341.85799800000007 -214.00000000000003 -41.07799800000001 0.8660000000000001 0 -0.5 0 1 0 0.5 0 0.8660000000000001 4162.dat
1 0 -480.417998 -214.00000000000003 -121.07799799999998 0.8660000000000001 0 -0.5 0 1 0 0.5 0 0.8660000000000001 4162.dat
1 0 -273.557998 -214.00000000000003 -59.377998000000005 -0.5 0 -0.8660000000000001 0 1 0 0.8660000000000001 0 -0.5 2431.dat
1 0 -412.117998 -214.00000000000003 -139.377998 -0.5 0 -0.8660000000000001 0 1 0 0.8660000000000001 0 -0.5 2431.dat
1 0 -126.337998 -214.00000000000003 25.622002000000002 -0.5 0 -0.8660000000000001 0 1 0 0.8660000000000001 0 -0.5 3795.dat
1 7 -100.357998 -214.00000000000003 40.622002 -0.5 0 -0.8660000000000001 0 1 0 0.8660000000000001 0 -0.5 3710.dat
1 47 -456.397998 -206 -222.67799800000003 0.5 0 0.8660000000000001 0 1 0 -0.8660000000000001 0 0.5 4183.dat
1 47 -454.437998 -206 -106.07799799999998 -0.5 0 -0.8660000000000001 0 1 0 0.8660000000000001 0 -0.5 4183.dat
1 14 -527.769998 -196 -183.057998 0.5 0 0.8660000000000001 0 1 0 -0.8660000000000001 0 0.5 3626bp01.dat
1 0 -527.769998 -139 -183.057998 0.5 0 0.8660000000000001 0 1 0 -0.8660000000000001 0 0.5 3815.dat
1 1 -535.861264366 -162.46499600000004 -169.84589136600005 0.49250000000000005 -0.5449700000000001 0.679074 0.174 0.8260000000000001 0.536 -0.85301 -0.14606400000000003 0.50177 3818.dat
1 1 -520.138748 -162.576996 -196.525312 0.49250000000000005 -0.60166 0.628034 -0.174 0.64 0.7490000000000001 -0.85301 -0.477858 0.210188 3819.dat
1 14 -555.2003968039999 -153 -173.23487699999998 0.49250000000000005 0.09426199999999997 0.8660000000000001 0.174 1 -0.20400000000000001 -0.85301 0.25072 0.5 3820.dat
1 14 -535.140256 -158.766998 -211.81688400000007 0.49250000000000005 0.01808599999999999 0.8660000000000001 -0.174 1 0.078 -0.85301 -0.189318 0.5 3820.dat
1 0 -527.769998 -127.00000000000001 -183.057998 0.5 -0.8660000000000001 0 0 0 1 -0.8660000000000001 -0.5 0 3816.dat
1 0 -527.769998 -127.00000000000001 -183.057998 0.5 -0.8660000000000001 0 0 0 1 -0.8660000000000001 -0.5 0 3817.dat
1 4 -527.769998 -196 -183.057998 0.5 0 0.8660000000000001 0 1 0 -0.8660000000000001 0 0.5 3624.dat
1 1 -527.769998 -171 -183.057998 0.5 0 0.8660000000000001 0 1 0 -0.8660000000000001 0 0.5 973p84.dat
1 14 -152.317998 -183 10.622002000000002 0.5 0 0.8660000000000001 0 1 0 -0.8660000000000001 0 0.5 3626bp01.dat
1 15 -152.317998 -126.00000000000001 10.622002000000002 0.5 0 0.8660000000000001 0 1 0 -0.8660000000000001 0 0.5 3815.dat
1 15 -160.218276232 -149.076004 24.033291866000003 0.49250000000000005 -0.5449700000000001 0.679074 0.174 0.8260000000000001 0.536 -0.85301 -0.14606400000000003 0.50177 3818.dat
1 15 -144.629962268 -149.13800000000003 -2.895662999999999 0.49250000000000005 -0.60166 0.628034 -0.174 0.64 0.7490000000000001 -0.85301 -0.477858 0.210188 3819.dat
1 14 -179.667394366 -139.649002 20.580800634000003 0.49250000000000005 0.09426199999999997 0.8660000000000001 0.174 1 -0.20400000000000001 -0.85301 0.25072 0.5 3820.dat
1 14 -159.741451902 -145.332993 -18.250733633999992 0.49250000000000005 0.01808599999999999 0.8660000000000001 -0.174 1 0.078 -0.85301 -0.189318 0.5 3820.dat
1 15 -152.317998 -114 10.622002000000002 0.5 0 0.8660000000000001 0 1 0 -0.8660000000000001 0 0.5 3816.dat
1 15 -152.317998 -114 10.622002000000002 0.5 0 0.8660000000000001 0 1 0 -0.8660000000000001 0 0.5 3817.dat
1 6 -152.317998 -183 10.622002000000002 0.5 0 0.8660000000000001 0 1 0 -0.8660000000000001 0 0.5 4530.dat
1 15 -152.317998 -158 10.622002000000002 0.5 0 0.8660000000000001 0 1 0 -0.8660000000000001 0 0.5 973p72.dat
1 14 -239.78399800000003 -184.00000000000003 -39.877998 -0.5 0 -0.8660000000000001 0 1 0 0.8660000000000001 0 -0.5 3626bp01.dat
1 0 -239.78399800000003 -126.00000000000001 -39.877998 -0.5 0 -0.8660000000000001 0 1 0 0.8660000000000001 0 -0.5 3815.dat
1 1 -231.982998 -148.83999600000004 -53.38933 -0.5 0.5449700000000001 -0.679074 0.174 0.8260000000000001 0.536 0.8660000000000001 0.14606400000000003 -0.50177 3818.dat
1 1 -247.50459919599996 -148.878998 -26.317936999999993 -0.5 0.60166 -0.628034 -0.174 0.64 0.7490000000000001 0.8660000000000001 0.477858 -0.210188 3819.dat
1 14 -212.48501686599997 -139.412003 -49.90747449999999 -0.5 -0.09426199999999997 -0.846948 0.174 1 -0.20400000000000001 0.8660000000000001 -0.25072 -0.489 3820.dat
1 14 -232.324559464 -145.074005 -10.925595999999999 -0.5 -0.01808599999999999 -0.863402 -0.174 1 0.078 0.8660000000000001 0.189318 -0.49850000000000005 3820.dat
1 0 -239.78399800000003 -114 -39.877998 -0.5 0 -0.8660000000000001 0 1 0 0.8660000000000001 0 -0.5 3816.dat
1 0 -239.78399800000003 -114 -39.877998 -0.5 0 -0.8660000000000001 0 1 0 0.8660000000000001 0 -0.5 3817.dat
1 6 -239.78399800000003 -184.00000000000003 -39.877998 -0.5 0 -0.8660000000000001 0 1 0 0.8660000000000001 0 -0.5 4530.dat
1 1 -239.78399800000003 -158 -39.877998 -0.5 0 -0.8660000000000001 0 1 0 0.8660000000000001 0 -0.5 973p84.dat
1 0 -507.37799800000005 -238 -194.377998 0.5 0 0.8660000000000001 0 1 0 -0.8660000000000001 0 0.5 2876.dat
1 7 -472.73799800000006 -238 -174.377998 0.8660000000000001 0 -0.5 0 1 0 0.5 0 0.8660000000000001 3032.dat
1 0 -388.45799800000003 -238 -160.357998 0.8660000000000001 0 -0.5 0 1 0 0.5 0 0.8660000000000001 2875.dat
1 7 -412.117998 -238 -139.377998 -0.5 0 -0.8660000000000001 0 1 0 0.8660000000000001 0 -0.5 3710.dat
1 7 -316.857998 -238 -84.37799799999999 -0.8660000000000001 0 0.5 0 1 0 -0.5 0 -0.8660000000000001 3030.dat
1 0 -284.537998 -238 -100.357998 0.8660000000000001 0 -0.5 0 1 0 0.5 0 0.8660000000000001 2875.dat
1 0 -180.617998 -238 -40.357998 0.8660000000000001 0 -0.5 0 1 0 0.5 0 0.8660000000000001 2875.dat
1 7 -455.417998 -230 -164.377998 0.8660000000000001 0 -0.5 0 1 0 0.5 0 0.8660000000000001 3022.dat
1 7 -351.49799800000005 -230 -104.377998 0.8660000000000001 0 -0.5 0 1 0 0.5 0 0.8660000000000001 3022.dat
1 7 -247.577998 -230 -44.377998 0.8660000000000001 0 -0.5 0 1 0 0.5 0 0.8660000000000001 3022.dat
1 0 -418.45799800000003 -238 -108.39799800000002 -0.8660000000000001 0 0.5 0 1 0 -0.5 0 -0.8660000000000001 2875.dat
1 0 -314.537998 -238 -48.397998 -0.8660000000000001 0 0.5 0 1 0 -0.5 0 -0.8660000000000001 2875.dat
1 0 -210.61799800000003 -238 11.602002000000006 -0.8660000000000001 0 0.5 0 1 0 -0.5 0 -0.8660000000000001 2875.dat
1 7 -152.317998 -238 10.622002000000002 -0.5 0 -0.8660000000000001 0 1 0 0.8660000000000001 0 -0.5 3710.dat
1 7 -210.61799800000003 -238 11.602002000000006 -0.8660000000000001 0 0.5 0 1 0 -0.5 0 -0.8660000000000001 3710.dat
1 7 -180.617998 -238 -40.357998 -0.8660000000000001 0 0.5 0 1 0 -0.5 0 -0.8660000000000001 3710.dat
1 0 -152.317998 -230 10.622002000000002 0.5 0 0.8660000000000001 0 1 0 -0.8660000000000001 0 0.5 3023.dat
1 7 -221.59799800000002 -230 -29.377998 0.5 0 0.8660000000000001 0 1 0 -0.8660000000000001 0 0.5 2412a.dat
1 7 -195.61799800000003 -238 -14.377997999999998 0.8660000000000001 0 -0.5 0 1 0 0.5 0 0.8660000000000001 4531.dat
1 0 -193.640056598 -245.48100300000002 -13.2359995 -0.5 -0.33167800000000003 -0.800184 0 0.9240000000000002 -0.383 0.8660000000000001 -0.1915 -0.4620000000000001 2923.dat
1 0 -194.38048313400003 -282.61499000000003 -13.663497499999998 0.5 0.527394 0.6867380000000001 0 0.7930000000000001 -0.609 -0.8660000000000001 0.3045 0.3965000000000001 2923.dat
1 0 -178.98387 -329.194 -4.773997999999999 -0.5 0.045031999999999996 -0.8651340000000001 0 1 0.052 0.8660000000000001 0.026 -0.4995 2922a.dat
1 0 -325.517998 -246 -89.37799799999999 0.5 0 0.8660000000000001 0 1 0 -0.8660000000000001 0 0.5 2412a.dat
1 0 -476.397998 -246 -188.03799800000002 0.5 0 0.8660000000000001 0 1 0 -0.8660000000000001 0 0.5 6141.dat
1 7 -451.757998 -246 -150.71799800000002 0.5 0 0.8660000000000001 0 1 0 -0.8660000000000001 0 0.5 4592.dat
1 0 -451.842859072 -246 -150.76699399999998 0.5 -0.22429400000000002 0.8660000000000001 0 1 0.259 -0.8660000000000001 -0.1295 0.5 4593.dat
1 0 -126.337998 -238 25.622002000000002 -0.5 0 -0.8660000000000001 0 1 0 0.8660000000000001 0 -0.5 3003.dat
1 0 -141.337998 -238 51.602002 -0.8660000000000001 0 0.5 0 1 0 -0.5 0 -0.8660000000000001 3039.dat
1 0 -111.337998 -238 -0.3579980000000021 0.8660000000000001 0 -0.5 0 1 0 0.5 0 0.8660000000000001 3039.dat
1 0 -455.417998 -222.00000000000003 -164.377998 0.5 0 0.8660000000000001 0 1 0 -0.8660000000000001 0 0.5 3020.dat
1 0 -351.49799800000005 -222.00000000000003 -104.377998 0.5 0 0.8660000000000001 0 1 0 -0.8660000000000001 0 0.5 3020.dat
1 0 -247.577998 -222.00000000000003 -44.377998 0.5 0 0.8660000000000001 0 1 0 -0.8660000000000001 0 0.5 3020.dat
1 0 -152.317998 -222.00000000000003 10.622002000000002 -0.5 0 -0.8660000000000001 0 1 0 0.8660000000000001 0 -0.5 3710.dat
1 0 -195.61799800000003 -214.00000000000003 -14.377997999999998 -0.8660000000000001 0 0.5 0 1 0 -0.5 0 -0.8660000000000001 3032.dat
1 7 -221.59799800000002 -222.00000000000003 -29.377998 0.5 0 0.8660000000000001 0 1 0 -0.8660000000000001 0 0.5 3023.dat
1 7 -204.27799800000003 -222.00000000000003 -19.377997999999998 0.5 0 0.8660000000000001 0 1 0 -0.8660000000000001 0 0.5 3794a.dat
1 7 -186.957998 -222.00000000000003 -9.377997999999998 0.5 0 0.8660000000000001 0 1 0 -0.8660000000000001 0 0.5 3794a.dat
1 7 -169.637998 -222.00000000000003 0.6220020000000019 0.5 0 0.8660000000000001 0 1 0 -0.8660000000000001 0 0.5 3794a.dat
1 7 240 -86 30 1 0 0 0 1 0 0 0 1 4093c.dat
1 7 520 -94 30 0 0 -1 0 1 0 1 0 0 3020.dat
1 7 520 -102.00000000000001 0 -1 0 0 0 1 0 0 0 -1 3023.dat
1 7 520 -102.00000000000001 60 -1 0 0 0 1 0 0 0 -1 3023.dat
1 7 380 -110 80 -1 0 0 0 1 0 0 0 -1 3009.dat
1 7 100 -110 80 -1 0 0 0 1 0 0 0 -1 3009.dat
1 7 100 -110 -20 -1 0 0 0 1 0 0 0 -1 3009.dat
1 7 380 -110 -20 -1 0 0 0 1 0 0 0 -1 3009.dat
1 1 340 -118 -20 -1 0 0 0 1 0 0 0 -1 4477.dat
1 1 340 -118 80 -1 0 0 0 1 0 0 0 -1 4477.dat
1 0 520 -126.00000000000001 60 1 0 0 0 1 0 0 0 1 2877.dat
1 0 520 -126.00000000000001 0 -1 0 0 0 1 0 0 0 -1 2877.dat
1 4 340 -134 -20 -1 0 0 0 1 0 0 0 -1 4477.dat
1 4 340 -134 80 -1 0 0 0 1 0 0 0 -1 4477.dat
1 0 520 -150 60 1 0 0 0 1 0 0 0 1 2877.dat
1 0 520 -150 0 -1 0 0 0 1 0 0 0 -1 2877.dat
1 0 520 -174.00000000000003 60 1 0 0 0 1 0 0 0 1 2877.dat
1 0 520 -174.00000000000003 0 -1 0 0 0 1 0 0 0 -1 2877.dat
1 1 190 -166 40 -0.8660000000000001 0 0.5 0 1 0 -0.5 0 -0.8660000000000001 3899.dat
1 1 355.26699800000006 -172.37199400000003 27.620000000000005 0.171 0.174 1 -0.20100000000000004 1 -0.139 -0.9650000000000001 -0.171 0.20100000000000004 3899.dat
1 14 408.00000000000006 -196 50 0 0 1 0 1 0 -1 0 0 3626bp01.dat
1 0 408.00000000000006 -139 50 0 0 1 0 1 0 -1 0 0 3815.dat
1 0 408.00000000000006 -162 65.599998 0 -0.544 0.839 0.174 0.8260000000000001 0.537 -0.984 0.146 0.09500000000000001 3818.dat
1 0 408.00000000000006 -162 34.4 0 -0.7600000000000001 0.65 -0.174 0.639 0.7490000000000001 -0.984 -0.11300000000000002 -0.132 3819.dat
1 14 389.40301500000004 -152.613998 72.337002 0 0.208 1 0.174 1 -0.20400000000000001 -0.984 0.17 0 3820.dat
1 14 387.20098900000005 -158.238998 28.655000000000005 0 -0.078 1 -0.174 1 0.078 -0.984 -0.173 0 3820.dat
1 0 408.00000000000006 -127.00000000000001 50 0 -1 0 0 0 1 -1 0 0 3816.dat
1 0 408.00000000000006 -127.00000000000001 50 0 -1 0 0 0 1 -1 0 0 3817.dat
1 0 408.00000000000006 -171 50 0 0 1 0 1 0 -1 0 0 973p22.dat
1 7 408.00000000000006 -196 50 0 0 1 0 1 0 -1 0 0 3629.dat
1 0 520 -198 60 1 0 0 0 1 0 0 0 1 2877.dat
1 0 520 -198 0 -1 0 0 0 1 0 0 0 -1 2877.dat
1 7 -30 -206 -20 0 0 1 0 1 0 -1 0 0 4181p04.dat
1 7 -30 -206 80 0 0 1 0 1 0 -1 0 0 4182p04.dat
1 7 400 -206 -20 1 0 0 0 1 0 0 0 1 4033.dat
1 47 400 -206 -20 1 0 0 0 1 0 0 0 1 4034.dat
1 7 80 -206 80 -1 0 0 0 1 0 0 0 -1 4033.dat
1 47 80 -206 80 -1 0 0 0 1 0 0 0 -1 4034.dat
1 0 320 -214.00000000000003 -20 1 0 0 0 1 0 0 0 1 4162.dat
1 0 110 -214.00000000000003 50 0 0 -1 0 1 0 1 0 0 3069b.dat
1 0 160 -214.00000000000003 80 1 0 0 0 1 0 0 0 1 4162.dat
1 0 10 -70 30 0 0 -1 0 1 0 1 0 0 2878.dat
1 0 10 -38 30 0 0 -1 0 1 0 1 0 0 70720c01.dat
1 0 40 -62 30 -1 0 0 0 1 0 0 0 -1 3795.dat
1 0 90 -70 30 0 0 -1 0 1 0 1 0 0 2878.dat
1 0 90 -38 30 0 0 -1 0 1 0 1 0 0 70720c01.dat
1 0 110 -62 30 0 0 -1 0 1 0 1 0 0 3023.dat
1 0 80 -70 30 -1 0 0 0 1 0 0 0 -1 3020.dat
1 0 0 -70 30 0 0 1 0 1 0 -1 0 0 4022.dat
1 0 60 -78 30 1 0 0 0 1 0 0 0 1 4092a.dat
1 0 50 -54 30 0 0 -1 0 1 0 1 0 0 3666.dat
1 0 50 -46.00000000000001 30 -1 0 0 0 1 0 0 0 -1 3002.dat
1 0 50 -62 -10 0 0 -1 0 1 0 1 0 0 3069b.dat
1 0 50 -62 70 0 0 -1 0 1 0 1 0 0 3069b.dat
1 0 240 -38 30 -1 0 0 0 1 0 0 0 -1 3035.dat
1 0 240 -70 70 -1 0 0 0 1 0 0 0 -1 3034.dat
1 0 310 -78 30 0 0 1 0 1 0 -1 0 0 3710.dat
1 0 240 -78 30 0 0 1 0 1 0 -1 0 0 3020.dat
1 0 180 -62 60 -1 0 0 0 1 0 0 0 -1 3660.dat
1 0 220 -62 60 -1 0 0 0 1 0 0 0 -1 3660.dat
1 0 260 -62 60 -1 0 0 0 1 0 0 0 -1 3660.dat
1 0 300 -62 60 -1 0 0 0 1 0 0 0 -1 3660.dat
1 0 220 -62 0 1 0 0 0 1 0 0 0 1 3660.dat
1 0 180 -62 0 1 0 0 0 1 0 0 0 1 3660.dat
1 0 300 -62 0 1 0 0 0 1 0 0 0 1 3660.dat
1 0 260 -62 0 1 0 0 0 1 0 0 0 1 3660.dat
1 0 240 -70 -10 -1 0 0 0 1 0 0 0 -1 3034.dat
1 0 420 -78 30 -1 0 0 0 1 0 0 0 -1 4092a.dat
1 0 470 -70 30 0 0 1 0 1 0 -1 0 0 2878.dat
1 0 440 -62 30 1 0 0 0 1 0 0 0 1 3795.dat
1 0 390 -70 30 0 0 1 0 1 0 -1 0 0 2878.dat
1 0 370 -62 30 0 0 1 0 1 0 -1 0 0 3023.dat
1 0 400 -70 30 1 0 0 0 1 0 0 0 1 3020.dat
1 0 480 -70 30 0 0 -1 0 1 0 1 0 0 4022.dat
1 0 430 -54 30 0 0 1 0 1 0 -1 0 0 3666.dat
1 0 430 -46.00000000000001 30 1 0 0 0 1 0 0 0 1 3002.dat
1 0 430 -62 70 0 0 1 0 1 0 -1 0 0 3069b.dat
1 0 430 -62 -10 0 0 1 0 1 0 -1 0 0 3069b.dat
1 0 390 -38 30 0 0 1 0 1 0 -1 0 0 70720c01.dat
1 0 470 -38 30 0 0 1 0 1 0 -1 0 0 70720c01.dat
1 0 180 -238 0 1 0 0 0 1 0 0 0 1 2875.dat
1 0 300 -238 0 1 0 0 0 1 0 0 0 1 2875.dat
1 0 420 -238 0 1 0 0 0 1 0 0 0 1 2875.dat
1 7 240 -230 30 1 0 0 0 1 0 0 0 1 3022.dat
1 7 360 -230 30 1 0 0 0 1 0 0 0 1 3022.dat
1 0 180 -238 60 -1 0 0 0 1 0 0 0 -1 2875.dat
1 0 300 -238 60 -1 0 0 0 1 0 0 0 -1 2875.dat
1 0 420 -238 60 -1 0 0 0 1 0 0 0 -1 2875.dat
1 0 240 -222.00000000000003 30 0 0 1 0 1 0 -1 0 0 3020.dat
1 0 360 -222.00000000000003 30 0 0 1 0 1 0 -1 0 0 3020.dat
1 0 470 -222.00000000000003 30 0 0 -1 0 1 0 1 0 0 3710.dat
1 0 250 -246 30 0 0 1 0 1 0 -1 0 0 2412a.dat
1 0 500 -238 30 0 0 -1 0 1 0 1 0 0 3003.dat
1 0 500 -238 60 -1 0 0 0 1 0 0 0 -1 3039.dat
1 0 500 -238 0 1 0 0 0 1 0 0 0 1 3039.dat
1 47 30 -206 80 0 0 -1 0 1 0 1 0 0 4183.dat
1 47 -30 -206 -20 0 0 1 0 1 0 -1 0 0 4183.dat
1 7 240 -110 -20 -1 0 0 0 1 0 0 0 -1 3008.dat
1 7 240 -98 -30 -1 0 0 0 0 1 0 1 0 10001 - 164565e.dat
1 7 240 -110 80 1 0 0 0 1 0 0 0 1 3008.dat
1 7 240 -98 90 1 0 0 0 0 1 0 -1 0 10001 - 164565e.dat
1 1 140 -118 -20 -1 0 0 0 1 0 0 0 -1 4477.dat
1 1 140 -118 80 -1 0 0 0 1 0 0 0 -1 4477.dat
1 15 380 -126.00000000000001 -20 -1 0 0 0 1 0 0 0 -1 3666.dat
1 15 100 -126.00000000000001 -20 -1 0 0 0 1 0 0 0 -1 3666.dat
1 15 100 -126.00000000000001 80 -1 0 0 0 1 0 0 0 -1 3666.dat
1 15 380 -126.00000000000001 80 -1 0 0 0 1 0 0 0 -1 3666.dat
1 15 240 -126.00000000000001 -20 -1 0 0 0 1 0 0 0 -1 3460.dat
1 15 240 -126.00000000000001 80 -1 0 0 0 1 0 0 0 -1 3460.dat
1 4 140 -134 -20 -1 0 0 0 1 0 0 0 -1 4477.dat
1 4 140 -134 80 -1 0 0 0 1 0 0 0 -1 4477.dat
1 14 200 -94 60 -1 0 0 0 1 0 0 0 -1 3069b.dat
1 14 280 -94 60 -1 0 0 0 1 0 0 0 -1 3069b.dat
1 14 360 -94 60 -1 0 0 0 1 0 0 0 -1 3069b.dat
1 14 240 -110 50 0 0 1 0 1 0 -1 0 0 3003.dat
1 14 320 -110 50 0 0 1 0 1 0 -1 0 0 3003.dat
1 14 160 -110 50 0 0 1 0 1 0 -1 0 0 3003.dat
1 14 390 -110 60 0 0 1 0 1 0 -1 0 0 2357.dat
1 14 360 -110 40 1 0 0 0 1 0 0 0 1 3937.dat
1 14 360 -110 40 1 0 0 0 1 0 0 0 1 3938.dat
1 14 200 -110 40 1 0 0 0 1 0 0 0 1 3937.dat
1 14 200 -110 40 1 0 0 0 1 0 0 0 1 3938.dat
1 14 280 -110 40 -1 0 0 0 1 0 0 0 -1 4865a.dat
1 14 360 -134 40 -1 0 0 0 1 0 0 0 -1 3004.dat
1 14 200 -134 40 -1 0 0 0 1 0 0 0 -1 3004.dat
1 14 400 -118 50 0 0 1 0 1 0 -1 0 0 4079.dat
1 14 240 -118 50 0 0 1 0 1 0 -1 0 0 4079.dat
1 14 320 -118 50 0 0 -1 0 1 0 1 0 0 4079.dat
1 14 160 -118 50 0 0 -1 0 1 0 1 0 0 4079.dat
1 7 80 -110 60 1 0 0 0 1 0 0 0 1 3010.dat
1 7 100 -134 60 1 0 0 0 1 0 0 0 1 3660.dat
1 7 60 -134 60 1 0 0 0 1 0 0 0 1 3660.dat
1 7 -40 -94 30 0 0 -1 0 1 0 1 0 0 3020.dat
1 0 -40 -126.00000000000001 0 -1 0 0 0 1 0 0 0 -1 2877.dat
1 7 -40 -102.00000000000001 0 -1 0 0 0 1 0 0 0 -1 3023.dat
1 7 -40 -102.00000000000001 60 -1 0 0 0 1 0 0 0 -1 3023.dat
1 0 -40 -150 0 -1 0 0 0 1 0 0 0 -1 2877.dat
1 0 -40 -174.00000000000003 0 -1 0 0 0 1 0 0 0 -1 2877.dat
1 0 -40 -126.00000000000001 60 -1 0 0 0 1 0 0 0 -1 2877.dat
1 0 -40 -150 60 -1 0 0 0 1 0 0 0 -1 2877.dat
1 0 -40 -174.00000000000003 60 -1 0 0 0 1 0 0 0 -1 2877.dat
1 14 200 -142 50 0 0 1 0 1 0 -1 0 0 3022.dat
1 14 360 -142 50 0 0 1 0 1 0 -1 0 0 3022.dat
1 15 110 -206 50 0 0 1 0 1 0 -1 0 0 2362a.dat
1 15 80 -142 50 0 0 1 0 1 0 -1 0 0 3068bp17.dat
1 15 50 -134 50 0 0 -1 0 1 0 1 0 0 3496.dat
1 7 50 -134 50 0 0 -1 0 1 0 1 0 0 3278.dat
1 0 -40 -198 0 -1 0 0 0 1 0 0 0 -1 2877.dat
1 0 -40 -198 60 -1 0 0 0 1 0 0 0 -1 2877.dat
1 7 -30 -206 0 1 0 0 0 1 0 0 0 1 3623.dat
1 7 -30 -206 60 1 0 0 0 1 0 0 0 1 3623.dat
1 7 510 -206 0 1 0 0 0 1 0 0 0 1 3623.dat
1 7 510 -206 60 1 0 0 0 1 0 0 0 1 3623.dat
1 7 520 -214.00000000000003 30 0 0 -1 0 1 0 1 0 0 3020.dat
1 7 -40 -214.00000000000003 30 0 0 -1 0 1 0 1 0 0 3020.dat
1 0 -10 -214.00000000000003 30 0 0 -1 0 1 0 1 0 0 3710.dat
1 0 490 -214.00000000000003 30 0 0 -1 0 1 0 1 0 0 3710.dat
1 0 20 -214.00000000000003 80 -1 0 0 0 1 0 0 0 -1 3666.dat
1 7 160 -206 80 -1 0 0 0 1 0 0 0 -1 4033.dat
1 47 160 -206 80 -1 0 0 0 1 0 0 0 -1 4034.dat
1 7 240 -206 80 -1 0 0 0 1 0 0 0 -1 4033.dat
1 47 240 -206 80 -1 0 0 0 1 0 0 0 -1 4034.dat
1 7 320 -206 80 -1 0 0 0 1 0 0 0 -1 4033.dat
1 47 320 -206 80 -1 0 0 0 1 0 0 0 -1 4034.dat
1 7 400 -206 80 -1 0 0 0 1 0 0 0 -1 4033.dat
1 47 400 -206 80 -1 0 0 0 1 0 0 0 -1 4034.dat
1 7 320 -206 -20 1 0 0 0 1 0 0 0 1 4033.dat
1 47 320 -206 -20 1 0 0 0 1 0 0 0 1 4034.dat
1 7 240 -206 -20 1 0 0 0 1 0 0 0 1 4033.dat
1 47 240 -206 -20 1 0 0 0 1 0 0 0 1 4034.dat
1 7 160 -206 -20 1 0 0 0 1 0 0 0 1 4033.dat
1 47 160 -206 -20 1 0 0 0 1 0 0 0 1 4034.dat
1 7 80 -206 -20 1 0 0 0 1 0 0 0 1 4033.dat
1 47 80 -206 -20 1 0 0 0 1 0 0 0 1 4034.dat
1 0 20 -214.00000000000003 -20 -1 0 0 0 1 0 0 0 -1 3666.dat
1 0 320 -214.00000000000003 80 1 0 0 0 1 0 0 0 1 4162.dat
1 0 160 -214.00000000000003 -20 1 0 0 0 1 0 0 0 1 4162.dat
1 0 460 -214.00000000000003 -20 -1 0 0 0 1 0 0 0 -1 3666.dat
1 0 460 -214.00000000000003 80 -1 0 0 0 1 0 0 0 -1 3666.dat
1 7 510 -206 -20 0 0 -1 0 1 0 1 0 0 4182p04.dat
1 47 450 -206 -20 0 0 1 0 1 0 -1 0 0 4183.dat
1 7 510 -206 80 0 0 -1 0 1 0 1 0 0 4181p04.dat
1 47 510 -206 80 0 0 -1 0 1 0 1 0 0 4183.dat
1 0 -20 -238 0 1 0 0 0 1 0 0 0 1 3039.dat
1 0 -20 -238 30 0 0 -1 0 1 0 1 0 0 3003.dat
1 0 -20 -238 60 -1 0 0 0 1 0 0 0 -1 3039.dat
1 7 400 -238 30 1 0 0 0 1 0 0 0 1 3035.dat
1 0 470 -230 30 0 0 -1 0 1 0 1 0 0 3023.dat
1 7 240 -238 30 1 0 0 0 1 0 0 0 1 3035.dat
1 7 80 -238 30 1 0 0 0 1 0 0 0 1 3035.dat
1 0 60 -238 0 1 0 0 0 1 0 0 0 1 2875.dat
1 0 60 -238 60 -1 0 0 0 1 0 0 0 -1 2875.dat
1 0 230 -246 30 0 0 1 0 1 0 -1 0 0 2412a.dat
1 0 10 -230 30 0 0 -1 0 1 0 1 0 0 3023.dat
1 0 10 -222.00000000000003 30 0 0 -1 0 1 0 1 0 0 3710.dat
1 7 120 -230 30 1 0 0 0 1 0 0 0 1 3022.dat
1 0 120 -222.00000000000003 30 0 0 1 0 1 0 -1 0 0 3020.dat
1 0 170 -78 30 0 0 1 0 1 0 -1 0 0 3710.dat
1 0 -30 -54 29.000000000000004 0 0 1 0 1 0 -1 0 0 2920.dat
1 0 -63.00000000000001 -50 29.000000000000004 0 0 1 0 1 0 -1 0 0 2959.dat
1 0 -63.00000000000001 -50 29.000000000000004 0 0 1 0 1 0 -1 0 0 70023.dat
1 0 510 -54 30 0 0 -1 0 1 0 1 0 0 2920.dat
1 0 544 -50 30 0 0 -1 0 1 0 1 0 0 2959.dat
1 0 544 -50 30 0 0 -1 0 1 0 1 0 0 70023.dat
1 14 248 -196 50 0 0 1 0 1 0 -1 0 0 3626bp01.dat
1 1 248 -139 50 0 0 1 0 1 0 -1 0 0 3815.dat
1 1 248 -162 65.599998 0 -0.544 0.839 0.174 0.8260000000000001 0.537 -0.984 0.146 0.09500000000000001 3818.dat
1 1 248 -162 34.4 0 -0.7600000000000001 0.65 -0.174 0.639 0.7490000000000001 -0.984 -0.11300000000000002 -0.132 3819.dat
1 14 229.403015 -152.613998 72.337002 0 0.208 1 0.174 1 -0.20400000000000001 -0.984 0.17 0 3820.dat
1 14 227.200989 -158.238998 28.655000000000005 0 -0.078 1 -0.174 1 0.078 -0.984 -0.173 0 3820.dat
1 1 248 -127.00000000000001 50 0 -1 0 0 0 1 -1 0 0 3816.dat
1 1 248 -127.00000000000001 50 0 -1 0 0 0 1 -1 0 0 3817.dat
1 15 248 -171 50 0 0 1 0 1 0 -1 0 0 973p01.dat
1 4 248 -196 50 0 0 1 0 1 0 -1 0 0 4485.dat
1 14 60 -183 9 -1 0 0 0 1 0 0 0 -1 3626bp01.dat
1 1 60 -126.00000000000001 9 -1 0 0 0 1 0 0 0 -1 3815.dat
1 1 75.60000600000001 -149 9 -0.984 0.146 0.09500000000000001 0.174 0.8260000000000001 0.537 0 0.544 -0.839 3818.dat
1 1 44.400002 -149 9 -0.984 -0.11300000000000002 -0.132 -0.174 0.639 0.7490000000000001 0 0.7600000000000001 -0.65 3819.dat
1 14 82.337006 -139.61399800000004 27.597000000000005 -0.984 0.17 0 0.174 1 -0.20400000000000001 0 -0.208 -0.978 3820.dat
1 14 38.654999000000004 -145.23899800000004 29.799000000000003 -0.984 -0.173 0 -0.174 1 0.078 0 0.078 -0.9970000000000001 3820.dat
1 1 60 -114 9 -1 0 0 0 1 0 0 0 -1 3816.dat
1 1 60 -114 9 -1 0 0 0 1 0 0 0 -1 3817.dat
1 15 60 -158 9 -1 0 0 0 1 0 0 0 -1 973p1d.dat
1 6 60 -183 9 -1 0 0 0 1 0 0 0 -1 3901.dat
1 14 151 -197.00000000000003 54 0 0 -1 0 1 0 1 0 0 3626bp01.dat
1 4 151 -140 54 0 0 -1 0 1 0 1 0 0 3815.dat
1 15 151 -163 38.4 0 0.544 -0.839 0.174 0.8260000000000001 0.537 1 -0.146 -0.09500000000000001 3818.dat
1 15 151 -163 69.599998 0 0.7600000000000001 -0.65 -0.174 0.639 0.7490000000000001 1 0.11300000000000002 0.132 3819.dat
1 14 169.597 -153.613998 31.663 0 -0.208 -0.978 0.174 1 -0.20400000000000001 1 -0.17 0 3820.dat
1 14 171.798996 -159.238998 75.345001 0 0.078 -0.9970000000000001 -0.174 1 0.078 1 0.173 0 3820.dat
1 4 151 -128 54 0 1 0 0 0 1 1 0 0 3816.dat
1 4 151 -128 54 0 1 0 0 0 1 1 0 0 3817.dat
1 15 151 -172 54 0 0 -1 0 1 0 1 0 0 973p71.dat
1 0 151 -197.00000000000003 54 0 0 -1 0 1 0 1 0 0 3625.dat
1 7 870 -86 -36.290000000000006 -1 0 -0.259 0 1 0 0.259 0 -1 4093c.dat
1 4 1072.23 -110 -120.68 -1 0 -0.259 0 1 0 0.259 0 -1 3622.dat
1 4 1087.4099999999999 -110 -103.27000000000001 -1 0 -0.259 0 1 0 0.259 0 -1 3004.dat
1 4 1105.1799999999998 -110 -75.86000000000001 -0.259 0 1 0 1 0 -1 0 -0.259 3134.dat
1 7 590 -94 36.23 -0.259 0 1 0 1 0 -1 0 -0.259 3020.dat
1 7 597.77 -102.00000000000001 66.23000000000002 1 0 0.259 0 1 0 -0.259 0 1 3023.dat
1 7 582.23 -102.00000000000001 6.229999999999998 1 0 0.259 0 1 0 -0.259 0 1 3023.dat
1 7 637.05 -110 -29.310000000000006 1 0 0.259 0 1 0 -0.259 0 1 3009.dat
1 7 757.05 -110 -60.39000000000001 1 0 0.259 0 1 0 -0.259 0 1 3009.dat
1 7 877.05 -110 -91.47 1 0 0.259 0 1 0 -0.259 0 1 3009.dat
1 7 1077.05 -110 -143.27 1 0 0.259 0 1 0 -0.259 0 1 3009.dat
1 7 1102.9500000000003 -110 -43.27000000000001 1 0 0.259 0 1 0 -0.259 0 1 3009.dat
1 7 902.9500000000002 -110 8.530000000000001 1 0 0.259 0 1 0 -0.259 0 1 3009.dat
1 7 782.9500000000002 -110 39.61 1 0 0.259 0 1 0 -0.259 0 1 3009.dat
1 7 662.95 -110 70.69 1 0 0.259 0 1 0 -0.259 0 1 3009.dat
1 1 1082.9500000000003 -118 -38.09 1 0 0.259 0 1 0 -0.259 0 1 3710.dat
1 1 1057.05 -118 -138.09 1 0 0.259 0 1 0 -0.259 0 1 3710.dat
1 1 907.05 -118 -99.24000000000001 1 0 0.259 0 1 0 -0.259 0 1 3623.dat
1 1 932.9500000000002 -118 0.7599999999999909 1 0 0.259 0 1 0 -0.259 0 1 3623.dat
1 15 1140 -110 -106.22 0.259 0 -1 0 1 0 1 0 0.259 6035.dat
1 15 1082.9500000000003 -126.00000000000001 -38.09 1 0 0.259 0 1 0 -0.259 0 1 3710.dat
1 15 932.9500000000002 -126.00000000000001 0.7599999999999909 1 0 0.259 0 1 0 -0.259 0 1 3623.dat
1 15 702.95 -126.00000000000001 60.330000000000005 1 0 0.259 0 1 0 -0.259 0 1 4477.dat
1 15 1057.05 -126.00000000000001 -138.09 1 0 0.259 0 1 0 -0.259 0 1 3710.dat
1 15 907.05 -126.00000000000001 -99.24000000000001 1 0 0.259 0 1 0 -0.259 0 1 3623.dat
1 15 677.05 -126.00000000000001 -39.67 1 0 0.259 0 1 0 -0.259 0 1 4477.dat
1 0 582.23 -126.00000000000001 6.229999999999998 -1 0 -0.259 0 1 0 0.259 0 -1 2877.dat
1 0 597.77 -126.00000000000001 66.23000000000002 1 0 0.259 0 1 0 -0.259 0 1 2877.dat
1 4 1082.9500000000003 -134 -38.09 1 0 0.259 0 1 0 -0.259 0 1 3710.dat
1 4 1057.05 -134 -138.09 1 0 0.259 0 1 0 -0.259 0 1 3710.dat
1 4 1094.8200000000002 -134 -115.86000000000001 0.259 0 -1 0 1 0 1 0 0.259 3660.dat
1 4 1105.1799999999998 -134 -75.86000000000001 0.259 0 -1 0 1 0 1 0 0.259 3660.dat
1 0 1149 -118 -108.55100000000002 -0.259 0 1 0 1 0 -1 0 -0.259 3022.dat
1 0 1149 -126.00000000000001 -108.55100000000002 -0.259 0 1 0 1 0 -1 0 -0.259 3022.dat
1 4 1139 -134 -105.96100000000001 0.259 0 -1 0 1 0 1 0 0.259 3710.dat
1 0 582.23 -150 6.229999999999998 -1 0 -0.259 0 1 0 0.259 0 -1 2877.dat
1 0 597.77 -150 66.23000000000002 1 0 0.259 0 1 0 -0.259 0 1 2877.dat
1 7 587.05 -142 -16.36 -1 0 -0.259 0 1 0 0.259 0 -1 3024.dat
1 7 612.95 -142 83.64000000000001 -1 0 -0.259 0 1 0 0.259 0 -1 3024.dat
1 14 1064.82 -118 -108.09 0.259 0 -1 0 1 0 1 0 0.259 4079.dat
1 7 612.95 -166 83.64000000000001 -1 0 -0.259 0 1 0 0.259 0 -1 3005.dat
1 7 587.05 -166 -16.36 -1 0 -0.259 0 1 0 0.259 0 -1 3005.dat
1 7 697.05 -158 -44.849999999999994 -1 0 -0.259 0 1 0 0.259 0 -1 3004.dat
1 7 722.95 -158 55.150000000000006 -1 0 -0.259 0 1 0 0.259 0 -1 3004.dat
1 7 952.9500000000002 -158 -4.420000000000002 -1 0 -0.259 0 1 0 0.259 0 -1 3005.dat
1 7 927.05 -158 -104.42000000000002 -1 0 -0.259 0 1 0 0.259 0 -1 3005.dat
1 7 922.9500000000002 -158 3.3499999999999948 -1 0 -0.259 0 1 0 0.259 0 -1 2877.dat
1 7 897.05 -158 -96.65 1 0 0.259 0 1 0 -0.259 0 1 2877.dat
1 7 1052.9500000000003 -158 -30.320000000000007 -1 0 -0.259 0 1 0 0.259 0 -1 3005.dat
1 7 1027.05 -158 -130.32 -1 0 -0.259 0 1 0 0.259 0 -1 3005.dat
1 0 582.23 -174.00000000000003 6.229999999999998 -1 0 -0.259 0 1 0 0.259 0 -1 2877.dat
1 0 597.77 -174.00000000000003 66.23000000000002 1 0 0.259 0 1 0 -0.259 0 1 2877.dat
1 0 1134.1799999999998 -142 -83.37100000000001 0.259 0 -1 0 1 0 1 0 0.259 3068b.dat
1 0 1123.8200000000002 -142 -123.37100000000001 0.259 0 -1 0 1 0 1 0 0.259 3068b.dat
1 15 1105.1799999999998 -142 -75.86000000000001 -0.259 0 1 0 1 0 -1 0 -0.259 3069bp68.dat
1 15 1094.8200000000002 -142 -115.86000000000001 -0.259 0 1 0 1 0 -1 0 -0.259 3069bp52.dat
1 7 612.95 -174.00000000000003 83.64000000000001 -1 0 -0.259 0 1 0 0.259 0 -1 3024.dat
1 7 587.05 -174.00000000000003 -16.36 -1 0 -0.259 0 1 0 0.259 0 -1 3024.dat
1 7 722.95 -182 55.150000000000006 -1 0 -0.259 0 1 0 0.259 0 -1 3004.dat
1 7 725.54 -170 65.15 -1 -0.259 0 0 0 -1 0.259 -1 0 10001 - 164565c.dat
1 7 697.05 -182 -44.849999999999994 1 0 0.259 0 1 0 -0.259 0 1 3004.dat
1 7 694.4600000000002 -170 -54.849999999999994 1 0.259 0 0 0 -1 -0.259 1 0 10001 - 164565c.dat
1 7 922.9500000000002 -182 3.3499999999999948 -1 0 -0.259 0 1 0 0.259 0 -1 2877.dat
1 7 952.9500000000002 -182 -4.420000000000002 -1 0 -0.259 0 1 0 0.259 0 -1 3005.dat
1 7 897.05 -182 -96.65 1 0 0.259 0 1 0 -0.259 0 1 2877.dat
1 7 927.05 -182 -104.42000000000002 -1 0 -0.259 0 1 0 0.259 0 -1 3005.dat
1 7 1027.05 -182 -130.32 -1 0 -0.259 0 1 0 0.259 0 -1 3005.dat
1 7 1052.9500000000003 -182 -30.320000000000007 -1 0 -0.259 0 1 0 0.259 0 -1 3005.dat
1 7 1150 -134 -108.81 0.259 0 -1 0 1 0 1 0 0.259 10001 - 2916pb03.dat
1 46 1180 -110 -116.58000000000001 0.259 0 -1 0 1 0 1 0 0.259 2919.dat
1 7 612.95 -198 83.64000000000001 -1 0 -0.259 0 1 0 0.259 0 -1 3005.dat
1 7 587.05 -198 -16.36 -1 0 -0.259 0 1 0 0.259 0 -1 3005.dat
1 7 722.95 -206 55.150000000000006 -1 0 -0.259 0 1 0 0.259 0 -1 3004.dat
1 7 697.05 -206 -44.849999999999994 -1 0 -0.259 0 1 0 0.259 0 -1 3004.dat
1 7 922.9500000000002 -206 3.3499999999999948 -1 0 -0.259 0 1 0 0.259 0 -1 2877.dat
1 7 897.05 -206 -96.65 1 0 0.259 0 1 0 -0.259 0 1 2877.dat
1 7 1027.05 -206 -130.32 -1 0 -0.259 0 1 0 0.259 0 -1 3005.dat
1 7 1052.9500000000003 -206 -30.320000000000007 -1 0 -0.259 0 1 0 0.259 0 -1 3005.dat
1 7 940 -206 -54.42 -0.259 0 1 0 1 0 -1 0 -0.259 3455.dat
1 0 582.23 -198 6.229999999999998 -1 0 -0.259 0 1 0 0.259 0 -1 2877.dat
1 0 597.77 -198 66.23000000000002 1 0 0.259 0 1 0 -0.259 0 1 2877.dat
1 0 1090 -214.00000000000003 -93.27000000000001 0.259 0 -1 0 1 0 1 0 0.259 2917.dat
1 47 1090 -214.00000000000003 -93.27000000000001 0.259 0 -1 0 1 0 1 0 0.259 2918.dat
1 7 812.9500000000002 -206 31.839999999999996 -0.259 0 1 0 1 0 -1 0 -0.259 3194p03.dat
1 7 947.05 -206 -109.60000000000002 -0.259 0 1 0 1 0 -1 0 -0.259 4181p04.dat
1 7 972.9500000000002 -206 -9.600000000000009 -0.259 0 1 0 1 0 -1 0 -0.259 4182p04.dat
1 7 787.05 -206 -68.16 -0.259 0 1 0 1 0 -1 0 -0.259 3195p03.dat
1 7 762.95 -206 44.79 -1 0 -0.259 0 1 0 0.259 0 -1 4035.dat
1 7 662.95 -206 70.69 -1 0 -0.259 0 1 0 0.259 0 -1 4033.dat
1 47 662.95 -206 70.69 -1 0 -0.259 0 1 0 0.259 0 -1 4034.dat
1 47 762.95 -206 44.79 -1 0 -0.259 0 1 0 0.259 0 -1 4036.dat
1 7 637.05 -206 -29.310000000000006 1 0 0.259 0 1 0 -0.259 0 1 4033.dat
1 47 637.05 -206 -29.310000000000006 1 0 0.259 0 1 0 -0.259 0 1 4034.dat
1 7 737.05 -206 -55.21000000000001 1 0 0.259 0 1 0 -0.259 0 1 4035.dat
1 47 737.05 -206 -55.21000000000001 1 0 0.259 0 1 0 -0.259 0 1 4036.dat
1 7 592.23 -206 3.640000000000001 -1 0 -0.259 0 1 0 0.259 0 -1 2420.dat
1 7 607.77 -206 63.64000000000001 0.259 0 -1 0 1 0 1 0 0.259 2420.dat
1 0 1002.9500000000002 -214.00000000000003 -17.370000000000005 -1 0 -0.259 0 1 0 0.259 0 -1 4162.dat
1 0 842.9500000000002 -214.00000000000003 24.069999999999997 -1 0 -0.259 0 1 0 0.259 0 -1 4162.dat
1 0 697.05 -214.00000000000003 -44.849999999999994 -1 0 -0.259 0 1 0 0.259 0 -1 2431.dat
1 0 662.95 -214.00000000000003 70.69 -1 0 -0.259 0 1 0 0.259 0 -1 3069b.dat
1 0 637.05 -214.00000000000003 -29.310000000000006 -1 0 -0.259 0 1 0 0.259 0 -1 3069b.dat
1 0 722.95 -214.00000000000003 55.150000000000006 -1 0 -0.259 0 1 0 0.259 0 -1 2431.dat
1 0 817.05 -214.00000000000003 -75.93 -1 0 -0.259 0 1 0 0.259 0 -1 4162.dat
1 0 977.05 -214.00000000000003 -117.37000000000002 -1 0 -0.259 0 1 0 0.259 0 -1 4162.dat
1 0 780 -214.00000000000003 -12.980000000000004 -0.259 0 1 0 1 0 -1 0 -0.259 2431.dat
1 0 940 -214.00000000000003 -54.42 -0.259 0 1 0 1 0 -1 0 -0.259 2431.dat
1 0 610 -214.00000000000003 31.05 -0.259 0 1 0 1 0 -1 0 -0.259 3795.dat
1 7 580 -214.00000000000003 38.82 -0.259 0 1 0 1 0 -1 0 -0.259 3710.dat
1 0 1100 -70 -95.86000000000001 -0.259 0 1 0 1 0 -1 0 -0.259 2878.dat
1 0 1100 -38 -95.86000000000001 -0.259 0 1 0 1 0 -1 0 -0.259 70720c01.dat
1 0 1070 -62 -88.09 1 0 0.259 0 1 0 -0.259 0 1 3795.dat
1 0 1020 -70 -75.14 -0.259 0 1 0 1 0 -1 0 -0.259 2878.dat
1 0 1020 -38 -75.14 -0.259 0 1 0 1 0 -1 0 -0.259 70720c01.dat
1 0 1000 -62 -69.96000000000001 -0.259 0 1 0 1 0 -1 0 -0.259 3023.dat
1 0 1030 -70 -77.73 1 0 0.259 0 1 0 -0.259 0 1 3020.dat
1 0 1110 -70 -98.45000000000002 0.259 0 -1 0 1 0 1 0 0.259 4022.dat
1 0 1050 -78 -82.91000000000003 -1 0 -0.259 0 1 0 0.259 0 -1 4092a.dat
1 0 1060 -54 -85.5 -0.259 0 1 0 1 0 -1 0 -0.259 3666.dat
1 0 1060 -46.00000000000001 -85.5 1 0 0.259 0 1 0 -0.259 0 1 3002.dat
1 0 1070.3600000000001 -62 -45.5 -0.259 0 1 0 1 0 -1 0 -0.259 3069b.dat
1 0 1049.6399999999999 -62 -125.5 -0.259 0 1 0 1 0 -1 0 -0.259 3069b.dat
1 0 850 -38 -31.110000000000003 1 0 0.259 0 1 0 -0.259 0 1 3035.dat
1 0 839.64 -70 -71.11000000000001 1 0 0.259 0 1 0 -0.259 0 1 3034.dat
1 0 780 -78 -12.980000000000004 0.259 0 -1 0 1 0 1 0 0.259 3710.dat
1 0 850 -78 -31.110000000000003 0.259 0 -1 0 1 0 1 0 0.259 3020.dat
1 0 902.2300000000001 -78 -76.65 1 0 0.259 0 1 0 -0.259 0 1 3023.dat
1 0 902.2300000000001 -62 -76.65 1 0 0.259 0 1 0 -0.259 0 1 3660.dat
1 0 862.2300000000001 -62 -66.29000000000002 1 0 0.259 0 1 0 -0.259 0 1 3660.dat
1 0 822.2300000000001 -62 -55.93000000000001 1 0 0.259 0 1 0 -0.259 0 1 3660.dat
1 0 782.2300000000001 -62 -45.56999999999999 1 0 0.259 0 1 0 -0.259 0 1 3660.dat
1 0 877.77 -62 -6.290000000000006 -1 0 -0.259 0 1 0 0.259 0 -1 3660.dat
1 0 917.77 -62 -16.650000000000006 -1 0 -0.259 0 1 0 0.259 0 -1 3660.dat
1 0 797.77 -62 14.43 -1 0 -0.259 0 1 0 0.259 0 -1 3660.dat
1 0 837.77 -62 4.069999999999993 -1 0 -0.259 0 1 0 0.259 0 -1 3660.dat
1 0 860.36 -70 8.89 1 0 0.259 0 1 0 -0.259 0 1 3034.dat
1 0 917.77 -78 -16.650000000000006 1 0 0.259 0 1 0 -0.259 0 1 3023.dat
1 0 689 -78 10.588999999999999 1 0 0.259 0 1 0 -0.259 0 1 4092a.dat
1 0 639 -70 23.538999999999998 0.259 0 -1 0 1 0 1 0 0.259 2878.dat
1 0 669 -62 15.769 -1 0 -0.259 0 1 0 0.259 0 -1 3795.dat
1 0 719 -70 2.8189999999999955 0.259 0 -1 0 1 0 1 0 0.259 2878.dat
1 0 739 -62 -2.361000000000004 0.259 0 -1 0 1 0 1 0 0.259 3023.dat
1 0 709 -70 5.408999999999999 -1 0 -0.259 0 1 0 0.259 0 -1 3020.dat
1 0 629 -70 26.128999999999998 -0.259 0 1 0 1 0 -1 0 -0.259 4022.dat
1 0 679 -54 13.178999999999998 0.259 0 -1 0 1 0 1 0 0.259 3666.dat
1 0 679 -46.00000000000001 13.178999999999998 -1 0 -0.259 0 1 0 0.259 0 -1 3002.dat
1 0 668.6400000000001 -62 -26.821 0.259 0 -1 0 1 0 1 0 0.259 3069b.dat
1 0 689.3600000000001 -62 53.17900000000001 0.259 0 -1 0 1 0 1 0 0.259 3069b.dat
1 0 719 -38 2.8189999999999955 0.259 0 -1 0 1 0 1 0 0.259 70720c01.dat
1 0 639 -38 23.538999999999998 0.259 0 -1 0 1 0 1 0 0.259 70720c01.dat
1 0 1050 -238 -82.91000000000003 0.259 0 -1 0 1 0 1 0 0.259 2876.dat
1 7 1010 -238 -72.55 -1 0 -0.259 0 1 0 0.259 0 -1 3032.dat
1 0 937.77 -238 -21.83 -1 0 -0.259 0 1 0 0.259 0 -1 2875.dat
1 7 940 -238 -54.42 -0.259 0 1 0 1 0 -1 0 -0.259 3710.dat
1 7 830 -238 -25.930000000000007 1 0 0.259 0 1 0 -0.259 0 1 3030.dat
1 0 817.77 -238 9.25 -1 0 -0.259 0 1 0 0.259 0 -1 2875.dat
1 0 697.77 -238 40.330000000000005 -1 0 -0.259 0 1 0 0.259 0 -1 2875.dat
1 7 990 -230 -67.37 -1 0 -0.259 0 1 0 0.259 0 -1 3022.dat
1 7 870 -230 -36.290000000000006 -1 0 -0.259 0 1 0 0.259 0 -1 3022.dat
1 7 750 -230 -5.210000000000001 -1 0 -0.259 0 1 0 0.259 0 -1 3022.dat
1 0 922.2300000000001 -238 -81.83 1 0 0.259 0 1 0 -0.259 0 1 2875.dat
1 0 802.2300000000001 -238 -50.75 1 0 0.259 0 1 0 -0.259 0 1 2875.dat
1 0 682.23 -238 -19.67 1 0 0.259 0 1 0 -0.259 0 1 2875.dat
1 7 640 -238 23.28 -0.259 0 1 0 1 0 -1 0 -0.259 3710.dat
1 7 682.23 -238 -19.67 1 0 0.259 0 1 0 -0.259 0 1 3710.dat
1 7 697.77 -238 40.330000000000005 1 0 0.259 0 1 0 -0.259 0 1 3710.dat
1 0 990 -222.00000000000003 -67.37 0.259 0 -1 0 1 0 1 0 0.259 3020.dat
1 0 870 -222.00000000000003 -36.290000000000006 0.259 0 -1 0 1 0 1 0 0.259 3020.dat
1 0 750 -222.00000000000003 -5.210000000000001 0.259 0 -1 0 1 0 1 0 0.259 3020.dat
1 0 640 -230 23.28 0.259 0 -1 0 1 0 1 0 0.259 3023.dat
1 0 640 -222.00000000000003 23.28 -0.259 0 1 0 1 0 -1 0 -0.259 3710.dat
1 0 690 -214.00000000000003 10.329999999999998 1 0 0.259 0 1 0 -0.259 0 1 3032.dat
1 7 720 -222.00000000000003 2.5600000000000023 0.259 0 -1 0 1 0 1 0 0.259 3023.dat
1 7 720 -230 2.5600000000000023 0.259 0 -1 0 1 0 1 0 0.259 2412a.dat
1 7 700 -222.00000000000003 7.740000000000002 0.259 0 -1 0 1 0 1 0 0.259 3794a.dat
1 7 680 -222.00000000000003 12.919999999999998 0.259 0 -1 0 1 0 1 0 0.259 3794a.dat
1 7 660 -222.00000000000003 18.099999999999998 0.259 0 -1 0 1 0 1 0 0.259 3794a.dat
1 7 690 -238 10.329999999999998 -1 0 -0.259 0 1 0 0.259 0 -1 4531.dat
1 0 687.718994 -245.48100300000002 10.920780554000004 -0.259 0.383 0.9240000000000002 0 0.9240000000000002 -0.383 -1 -0.09919700000000002 -0.23931600000000003 2923.dat
1 0 688.569 -282.61499000000003 10.700629 0.259 -0.609 -0.7930000000000001 0 0.7930000000000001 -0.609 1 0.157731 0.20538700000000004 2923.dat
1 0 670.788994 -329.194 15.305650554000001 -0.259 -0.052 1 0 1 0.052 -1 0.013468 -0.259 2922a.dat
1 0 840 -246 -28.52 0.259 0 -1 0 1 0 1 0 0.259 2412a.dat
1 0 1022.59 -246 -65.14 0.259 0 -1 0 1 0 1 0 0.259 6141.dat
1 7 977.4100000000001 -246 -74.78 0.259 0 -1 0 1 0 1 0 0.259 4592.dat
1 0 977.506985 -246 -74.80511911500001 0.259 0.259 -0.9660000000000001 0 1 0.259 1 -0.067081 0.250194 4593.dat
1 0 610 -238 31.05 -0.259 0 1 0 1 0 -1 0 -0.259 3003.dat
1 0 602.23 -238 1.0499999999999972 1 0 0.259 0 1 0 -0.259 0 1 3039.dat
1 0 617.77 -238 61.050000000000004 -1 0 -0.259 0 1 0 0.259 0 -1 3039.dat
1 47 1032.9500000000003 -206 -25.14 0.259 0 -1 0 1 0 1 0 0.259 4183.dat
1 47 947.05 -206 -109.60000000000002 -0.259 0 1 0 1 0 -1 0 -0.259 4183.dat
1 14 640 -94 23.28 0.259 0 -1 0 1 0 1 0 0.259 3023.dat
1 14 750 -94 -5.210000000000001 0.259 0 -1 0 1 0 1 0 0.259 3022.dat
1 15 877.77 -94 -6.290000000000006 -1 0 -0.259 0 1 0 0.259 0 -1 4162.dat
1 15 872.59 -94 -26.29000000000001 -1 0 -0.259 0 1 0 0.259 0 -1 4162.dat
1 15 867.4100000000001 -94 -46.290000000000006 -1 0 -0.259 0 1 0 0.259 0 -1 4162.dat
1 15 862.2300000000001 -94 -66.29000000000002 -1 0 -0.259 0 1 0 0.259 0 -1 4162.dat
1 7 780 -110 -12.980000000000004 -0.259 0 1 0 1 0 -1 0 -0.259 3010.dat
1 15 967.77 -134 -29.60000000000001 -1 0 -0.259 0 1 0 0.259 0 -1 3187.dat
1 15 967.77 -134 -29.60000000000001 -1 0 -0.259 0 1 0 0.259 0 -1 3186.dat
1 14 690 -102.00000000000001 10.329999999999998 -1 0 -0.259 0 1 0 0.259 0 -1 3795.dat
1 14 760 -102.00000000000001 -7.800000000000004 0.259 0 -1 0 1 0 1 0 0.259 3023.dat
1 15 732.59 -110 9.969999999999999 -1 0 -0.259 0 1 0 0.259 0 -1 2431.dat
1 15 727.41 -110 -10.030000000000001 -1 0 -0.259 0 1 0 0.259 0 -1 2431.dat
1 15 672.59 -110 25.51 -1 0 -0.259 0 1 0 0.259 0 -1 3794b.dat
1 15 667.41 -110 5.509999999999998 -1 0 -0.259 0 1 0 0.259 0 -1 3794b.dat
1 14 640 -126.00000000000001 23.28 -0.259 0 1 0 1 0 -1 0 -0.259 3004.dat
1 14 640 -134 23.28 0.259 0 -1 0 1 0 1 0 0.259 3023.dat
1 1 697.05 -118 -44.849999999999994 1 0 0.259 0 1 0 -0.259 0 1 3460.dat
1 1 597.05 -118 -18.950000000000003 1 0 0.259 0 1 0 -0.259 0 1 3023.dat
1 1 722.95 -118 55.150000000000006 1 0 0.259 0 1 0 -0.259 0 1 3460.dat
1 1 622.95 -118 81.05000000000001 1 0 0.259 0 1 0 -0.259 0 1 3023.dat
1 7 780 -134 -12.980000000000004 -0.259 0 1 0 1 0 -1 0 -0.259 3010.dat
1 4 697.05 -134 -44.849999999999994 1 0 0.259 0 1 0 -0.259 0 1 3460.dat
1 4 597.05 -134 -18.950000000000003 1 0 0.259 0 1 0 -0.259 0 1 3023.dat
1 4 722.95 -134 55.150000000000006 1 0 0.259 0 1 0 -0.259 0 1 3460.dat
1 4 622.95 -134 81.05000000000001 1 0 0.259 0 1 0 -0.259 0 1 3023.dat
1 14 640 -158 23.28 -0.259 0 1 0 1 0 -1 0 -0.259 3937.dat
1 14 640 -158 23.28 -0.259 0 1 0 1 0 -1 0 -0.259 3938.dat
1 4 907.05 -134 -99.24000000000001 1 0 0.259 0 1 0 -0.259 0 1 3623.dat
1 4 932.9500000000002 -134 0.7599999999999909 1 0 0.259 0 1 0 -0.259 0 1 3623.dat
1 7 782.5900000000001 -158 -2.9800000000000044 -0.259 0 1 0 1 0 -1 0 -0.259 4070.dat
1 7 777.41 -158 -22.980000000000004 -0.259 0 1 0 1 0 -1 0 -0.259 4070.dat
1 7 766.0000000000001 -148 -9.354 -0.259 1 0 0 0 -1 -1 -0.259 0 3069bp25.dat
1 7 769.64 -158 -52.98000000000001 -0.259 0 1 0 1 0 -1 0 -0.259 3004.dat
1 7 790.36 -158 27.02 -0.259 0 1 0 1 0 -1 0 -0.259 3004.dat
1 14 690 -166 10.329999999999998 -1 0 -0.259 0 1 0 0.259 0 -1 3795.dat
1 14 760 -166 -7.800000000000004 0.259 0 -1 0 1 0 1 0 0.259 3023.dat
1 15 727.41 -174.00000000000003 -10.030000000000001 -1 0 -0.259 0 1 0 0.259 0 -1 2431.dat
1 15 732.59 -174.00000000000003 9.969999999999999 -1 0 -0.259 0 1 0 0.259 0 -1 2431.dat
1 15 667.41 -174.00000000000003 5.509999999999998 -1 0 -0.259 0 1 0 0.259 0 -1 3794b.dat
1 15 672.59 -174.00000000000003 25.51 -1 0 -0.259 0 1 0 0.259 0 -1 3794b.dat
1 14 640 -190 23.28 0.259 0 -1 0 1 0 1 0 0.259 4865a.dat
1 7 780 -182 -12.980000000000004 0.259 0 -1 0 1 0 1 0 0.259 3009.dat
1 7 780 -206 -12.980000000000004 0.259 0 -1 0 1 0 1 0 0.259 3009.dat
1 0 595.7495470000001 -54 33.709 -0.259 0 1 0 1 0 -1 0 -0.259 2920.dat
1 14 757.009324 -183 -6.987000000000002 -0.259 -1 0 0 0 1 -1 0.259 0 3626bp01.dat
1 1 700.009324 -183 7.775999999999996 -0.259 -1 0 0 0 1 -1 0.259 0 3815.dat
1 1 727.149634 -183.22900400000003 17.322695963999998 -0.42911499999999997 -0.788186 -0.511395 0 -0.545 0.839 -0.939934 0.35993400000000003 0.233824 3818.dat
1 1 719.1996899999999 -183.164993 -13.779944776999997 -0.08111499999999999 -0.6692670000000001 -0.7831880000000001 0 -0.7600000000000001 0.649 -1.0300660000000001 0.05276000000000002 0.06199099999999999 3819.dat
1 14 719.440765741 -201.78199800000002 26.509283554 -0.42911499999999997 -0.9189700000000001 0.20400000000000001 0 0.207 1 -0.939934 0.41941700000000004 -0.052836 3820.dat
1 14 713.8857310000001 -203.91299400000003 -18.53400974099999 -0.08111499999999999 -1.0268070000000002 -0.078 0 -0.07900000000000001 1 -1.0300660000000001 0.08133800000000002 0.020202 3820.dat
1 1 688.0093240000001 -183 10.884 -0.259 -1 0 0 0 1 -1 0.259 0 3816.dat
1 1 688.0093240000001 -183 10.884 -0.259 -1 0 0 0 1 -1 0.259 0 3817.dat
1 0 757.009324 -183 -6.987000000000002 -0.259 -1 0 0 0 1 -1 0.259 0 3901.dat
1 1 732.009324 -183 -0.5120000000000005 -0.259 -1 0 0 0 1 -1 0.259 0 973p18.dat
1 14 757.009324 -119 -6.987000000000002 -0.259 -1 0 0 0 1 -1 0.259 0 3626bp01.dat
1 4 700.009324 -119 7.775999999999996 -0.259 -1 0 0 0 1 -1 0.259 0 3815.dat
1 4 727.0924860000001 -119.190002 17.349235186999998 -0.42911499999999997 -0.788186 -0.511395 0 -0.545 0.839 -0.939934 0.35993400000000003 0.233824 3818.dat
1 4 719.1318390000001 -119.16400100000001 -13.774109259000006 -0.08111499999999999 -0.6692670000000001 -0.7831880000000001 0 -0.7600000000000001 0.649 -1.0300660000000001 0.05276000000000002 0.06199099999999999 3819.dat
1 14 719.3846252590001 -137.761993 26.535563963999998 -0.42911499999999997 -0.9189700000000001 0.20400000000000001 0 0.207 1 -0.939934 0.41941700000000004 -0.052836 3820.dat
1 14 713.8178800000001 -139.931 -18.528174223 -0.08111499999999999 -1.0268070000000002 -0.078 0 -0.07900000000000001 1 -1.0300660000000001 0.08133800000000002 0.020202 3820.dat
1 4 688.0093240000001 -119 10.884 -0.259 -1 0 0 0 1 -1 0.259 0 3816.dat
1 4 688.0093240000001 -119 10.884 -0.259 -1 0 0 0 1 -1 0.259 0 3817.dat
1 15 732.009324 -119 -0.5120000000000005 -0.259 -1 0 0 0 1 -1 0.259 0 973p1e.dat
1 6 757.009324 -119 -6.987000000000002 -0.259 -1 0 0 0 1 -1 0.259 0 4530.dat
1 0 561.750324 -50 42.518 -0.259 0 1 0 1 0 -1 0 -0.259 2959.dat
1 0 561.750324 -50 42.518 -0.259 0 1 0 1 0 -1 0 -0.259 70023.dat
