1 4 -50 -72 -50 1 0 0 0 1 0 0 0 1 3005.dat
1 4 -50 -96.00000000000001 -50 1 0 0 0 1 0 0 0 1 3005.dat
1 4 -50 -72 50 1 0 0 0 1 0 0 0 1 3005.dat
1 4 -50 -96.00000000000001 50 1 0 0 0 1 0 0 0 1 3005.dat
1 4 9.86 -160 50.03 0 0 -1 0 1 0 1 0 0 3005.dat
1 4 9.86 -184.00000000000003 50.03 0 0 -1 0 1 0 1 0 0 3005.dat
1 4 69.86000000000001 -160 50.03 0 0 -1 0 1 0 1 0 0 3005.dat
1 4 69.86000000000001 -184.00000000000003 50.03 0 0 -1 0 1 0 1 0 0 3005.dat
1 4 10.010000000000002 -160 -49.97 0 0 -1 0 1 0 1 0 0 3005.dat
1 4 10.010000000000002 -184.00000000000003 -49.97 0 0 -1 0 1 0 1 0 0 3005.dat
1 4 70.01000000000002 -160 -49.97 0 0 -1 0 1 0 1 0 0 3005.dat
1 4 70.01000000000002 -184.00000000000003 -49.97 0 0 -1 0 1 0 1 0 0 3005.dat
1 0 -170.01000000000002 -158 20.050000000000004 0 -1 0 0 0 1 -1 0 0 6020.dat
1 0 -150.01 -160 20.050000000000004 0 0 1 0 1 0 -1 0 0 2540.dat
1 0 -50 -176 -29.950000000000003 -1 0 0 0 1 0 0 0 -1 3062b.dat
1 0 -80.01000000000002 -166 -9.92 0 -1 0 0 0 -1 1 0 0 30374.dat
1 0 -90.01000000000002 -160 -9.93 0 0 -1 0 1 0 1 0 0 2555.dat
1 0 -150.01 -160 -9.93 0 0 -1 0 1 0 1 0 0 2555.dat
1 0 -0.01 -166 -9.92 0 -1 0 0 0 -1 1 0 0 30374.dat
1 0 -10.010000000000002 -160 -9.93 0 0 -1 0 1 0 1 0 0 2555.dat
1 0 -70.01000000000002 -160 -9.93 0 0 -1 0 1 0 1 0 0 2555.dat
1 0 159.99 -166 -9.92 0 -1 0 0 0 -1 1 0 0 30374.dat
1 0 40.010000000000005 -216 10.010000000000002 -1 0 0 0 1 0 0 0 -1 3297.dat
1 0 40 -216 -9.990000000000002 1 0 0 0 1 0 0 0 1 3297.dat
1 4 70 -192.00000000000003 0.03 0 0 1 0 1 0 -1 0 0 3710.dat
1 4 10 -192.00000000000003 0.03 0 0 1 0 1 0 -1 0 0 3710.dat
1 0 60 -192.00000000000003 50.010000000000005 -1 0 0 0 1 0 0 0 -1 32028.dat
1 0 20 -192.00000000000003 50.010000000000005 -1 0 0 0 1 0 0 0 -1 32028.dat
1 0 60 -192.00000000000003 -49.99000000000001 1 0 0 0 1 0 0 0 1 32028.dat
1 0 20 -192.00000000000003 -49.99000000000001 1 0 0 0 1 0 0 0 1 32028.dat
1 0 -120.01000000000002 -152 0.05000000000000001 -1 0 0 0 1 0 0 0 -1 32083.dat
1 0 -40.010000000000005 -152 0.05000000000000001 -1 0 0 0 1 0 0 0 -1 32083.dat
1 41 10 -184.00000000000003 -19.97 0 0 1 0 1 0 -1 0 0 4862.dat
1 0 10 -184.00000000000003 -19.97 0 0 1 0 1 0 -1 0 0 2377.dat
1 41 10 -184.00000000000003 20.03 0 0 1 0 1 0 -1 0 0 4862.dat
1 0 10 -184.00000000000003 20.03 0 0 1 0 1 0 -1 0 0 2377.dat
1 41 70.01000000000002 -184.00000000000003 -19.97 0 0 -1 0 1 0 1 0 0 4862.dat
1 0 70.01000000000002 -184.00000000000003 -19.97 0 0 -1 0 1 0 1 0 0 2377.dat
1 41 70.01000000000002 -184.00000000000003 20.03 0 0 -1 0 1 0 1 0 0 4862.dat
1 0 70.01000000000002 -184.00000000000003 20.03 0 0 -1 0 1 0 1 0 0 2377.dat
1 41 40 -184.00000000000003 50.010000000000005 -1 0 0 0 1 0 0 0 -1 4862.dat
1 0 40 -184.00000000000003 50.010000000000005 -1 0 0 0 1 0 0 0 -1 2377.dat
1 41 40 -184.00000000000003 -49.99000000000001 1 0 0 0 1 0 0 0 1 4862.dat
1 0 40 -184.00000000000003 -49.99000000000001 1 0 0 0 1 0 0 0 1 2377.dat
1 36 165 -92.00000000000001 50.02000000000001 0 1 0 0 0 1 1 0 0 6141.dat
1 0 157 -92.00000000000001 50.02000000000001 0 1 0 0 0 1 1 0 0 2555.dat
1 36 165 -92.00000000000001 -49.980000000000004 0 1 0 0 0 1 1 0 0 6141.dat
1 0 157 -92.00000000000001 -49.980000000000004 0 1 0 0 0 1 1 0 0 2555.dat
1 41 100 -96.00000000000001 50.010000000000005 -1 0 0 0 1 0 0 0 -1 4862.dat
1 41 100 -96.00000000000001 -49.99000000000001 1 0 0 0 1 0 0 0 1 4862.dat
1 0 100 -96.00000000000001 -49.99000000000001 1 0 0 0 1 0 0 0 1 2377.dat
1 0 100 -96.00000000000001 50.010000000000005 -1 0 0 0 1 0 0 0 -1 2377.dat
1 4 130 -96.00000000000001 50 0 0 -1 0 1 0 1 0 0 2921.dat
1 4 130 -96.00000000000001 -50 0 0 -1 0 1 0 1 0 0 2921.dat
1 4 130 -72 50 0 0 -1 0 1 0 1 0 0 2921.dat
1 4 130 -72 -50 0 0 -1 0 1 0 1 0 0 2921.dat
1 4 -110 -96.00000000000001 50 -1 0 0 0 1 0 0 0 -1 2921.dat
1 4 -110 -96.00000000000001 -50 1 0 0 0 1 0 0 0 1 2921.dat
1 4 -110 -72 50 -1 0 0 0 1 0 0 0 -1 2921.dat
1 4 -110 -72 -50 1 0 0 0 1 0 0 0 1 2921.dat
1 4 130 -48.00000000000001 -0.01 0 0 1 0 1 0 -1 0 0 3710.dat
1 4 40 -48.00000000000001 -50 1 0 0 0 1 0 0 0 1 4477.dat
1 4 -90 -48.00000000000001 -50.040000000000006 -1 0 0 0 1 0 0 0 -1 3623.dat
1 4 -90 -48.00000000000001 49.96000000000001 -1 0 0 0 1 0 0 0 -1 3623.dat
1 4 40 -48.00000000000001 50 1 0 0 0 1 0 0 0 1 4477.dat
1 14 130 -40 -0.01 0 0 1 0 1 0 -1 0 0 3710.dat
1 14 -20 -40 -50 1 0 0 0 1 0 0 0 1 4477.dat
1 14 110 -40 -49.99000000000001 -1 0 0 0 1 0 0 0 -1 3623.dat
1 14 110 -40 50.010000000000005 -1 0 0 0 1 0 0 0 -1 3623.dat
1 14 -20 -40 50 1 0 0 0 1 0 0 0 1 4477.dat
1 8 -30 -48.00000000000001 -20 1 0 0 0 1 0 0 0 1 3021.dat
1 36 -30 -24.000000000000004 -10 1 0 0 0 1 0 0 0 1 6141.dat
1 8 -10 -40 -20 0 0 1 0 1 0 -1 0 0 3004.dat
1 8 -50 -40 -30 1 0 0 0 1 0 0 0 1 2357.dat
1 8 -30 -16 -20 1 0 0 0 1 0 0 0 1 3021.dat
1 0 -140 -16 50 -1 0 0 0 1 0 0 0 -1 4175.dat
1 4 -110 -32 50 -1 0 0 0 1 0 0 0 -1 2921.dat
1 4 -80 -32 50 -1 0 0 0 1 0 0 0 -1 30236.dat
1 4 -30 -32 50 1 0 0 0 1 0 0 0 1 3622.dat
1 4 40 -32 50 1 0 0 0 1 0 0 0 1 3010.dat
1 0 -140 -16 -50 1 0 0 0 1 0 0 0 1 4175.dat
1 4 -110 -32 -50 1 0 0 0 1 0 0 0 1 2921.dat
1 4 -80 -32 -50 1 0 0 0 1 0 0 0 1 30236.dat
1 4 -30 -32 -50 1 0 0 0 1 0 0 0 1 3622.dat
1 4 40 -32 -50 1 0 0 0 1 0 0 0 1 3010.dat
1 6 40 -32 -20 1 0 0 0 1 0 0 0 1 3022.dat
1 6 80 -16 -20 0 0 1 0 1 0 -1 0 0 4079.dat
1 7 30 -24.000000000000004 -30 1 0 0 0 1 0 0 0 1 3062b.dat
1 7 50 -24.000000000000004 -30 1 0 0 0 1 0 0 0 1 3062b.dat
1 7 30 -24.000000000000004 -10 1 0 0 0 1 0 0 0 1 3062b.dat
1 7 50 -24.000000000000004 -10 1 0 0 0 1 0 0 0 1 3062b.dat
1 8 -10 -8 -30 1 0 0 0 1 0 0 0 1 6141.dat
1 8 -10 -8 -10 1 0 0 0 1 0 0 0 1 6141.dat
1 8 -50 -8 -30 1 0 0 0 1 0 0 0 1 6141.dat
1 8 -50 -8 -10 1 0 0 0 1 0 0 0 1 6141.dat
1 4 -90 -8 -0.01 0 0 1 0 1 0 -1 0 0 3710.dat
1 0 100 -22 64.01 1 0 0 0 0 1 0 -1 0 3069bp0a.dat
1 8 110 -32 50 -1 0 0 0 1 0 0 0 -1 4070.dat
1 8 90 -32 50 -1 0 0 0 1 0 0 0 -1 4070.dat
1 0 100 -22 -64 -1 0 0 0 0 1 0 1 0 3069bp0a.dat
1 4 130 -32 -0.01 0 0 1 0 1 0 -1 0 0 3009.dat
1 8 90 -32 -50 1 0 0 0 1 0 0 0 1 4070.dat
1 8 110 -32 -50 1 0 0 0 1 0 0 0 1 4070.dat
1 7 70 -8 -30 1 0 0 0 1 0 0 0 1 6141.dat
1 7 90 -8 -30 1 0 0 0 1 0 0 0 1 6141.dat
1 7 70 -8 -10 1 0 0 0 1 0 0 0 1 6141.dat
1 7 90 -8 -10 1 0 0 0 1 0 0 0 1 6141.dat
1 8 0 32 0 1 0 0 0 1 0 0 0 1 3034.dat
1 0 -187 28.000000000000004 -0.04 0 0 1 0 1 0 -1 0 0 73092.dat
1 0 -150 24.000000000000004 -0.03 0 0 1 0 1 0 -1 0 0 2920.dat
1 0 -120 8 -0.03 0 0 1 0 1 0 -1 0 0 4022.dat
1 8 -100 16 -0.03 -1 0 0 0 1 0 0 0 -1 3020.dat
1 0 -90 8 -0.03 0 0 1 0 1 0 -1 0 0 2878c01.dat
1 0 187 28.000000000000004 -0.02 0 0 -1 0 1 0 1 0 0 73092.dat
1 0 150 24.000000000000004 -0.02 0 0 -1 0 1 0 1 0 0 2920.dat
1 0 120 8 -0.03 0 0 -1 0 1 0 1 0 0 4022.dat
1 8 100 16 -0.03 1 0 0 0 1 0 0 0 1 3020.dat
1 0 90 8 -0.03 0 0 -1 0 1 0 1 0 0 2878c01.dat
1 0 0 8 0 1 0 0 0 1 0 0 0 1 2456.dat
1 0 0 0 0 1 0 0 0 1 0 0 0 1 3027.dat
1 4 -80 -8 -50 1 0 0 0 1 0 0 0 1 3666.dat
1 4 80 -8 -50 1 0 0 0 1 0 0 0 1 3666.dat
1 4 -80 -8 50 1 0 0 0 1 0 0 0 1 3666.dat
1 4 80 -8 50 1 0 0 0 1 0 0 0 1 3666.dat
1 4 130 -8 -0.01 0 0 1 0 1 0 -1 0 0 3710.dat
1 0 -150 -8 -0.01 0 0 1 0 1 0 -1 0 0 6583.dat
1 0 150 -8 0 0 0 -1 0 1 0 1 0 0 6583.dat
1 4 -0.02 -8 50 -1 0 0 0 1 0 0 0 -1 2436a.dat
1 0 -20.020000000000003 2 72 -1 0 0 0 0 -1 0 -1 0 2412b.dat
1 0 -20 2 -72 1 0 0 0 0 -1 0 1 0 2412b.dat
1 4 0 -8 -50 1 0 0 0 1 0 0 0 1 2436a.dat
1 0 20 2 -72 1 0 0 0 0 -1 0 1 0 2412b.dat
1 0 19.980000000000004 2 72 -1 0 0 0 0 -1 0 -1 0 2412b.dat
1 0 130 -96.00000000000001 20.010000000000005 0 0 -1 0 1 0 1 0 0 2377.dat
1 41 130 -96.00000000000001 20.010000000000005 0 0 -1 0 1 0 1 0 0 4862.dat
1 0 -10 -72 -10 -0.8700000000000001 0 0.5 0 1 0 -0.5 0 -0.8700000000000001 4529.dat
1 0 -50 -72 -30 1 0 0 0 1 0 0 0 1 3062b.dat
1 0 -50 -96.00000000000001 -30 1 0 0 0 1 0 0 0 1 3062b.dat
1 0 -50 -120 -30 1 0 0 0 1 0 0 0 1 3062b.dat
1 4 60 -72 -50 -1 0 0 0 1 0 0 0 -1 2877.dat
1 4 60 -96.00000000000001 -50 -1 0 0 0 1 0 0 0 -1 2877.dat
1 4 60 -72 50 1 0 0 0 1 0 0 0 1 2877.dat
1 4 60 -96.00000000000001 50 1 0 0 0 1 0 0 0 1 2877.dat
1 4 130 -72 -20 0 0 1 0 1 0 -1 0 0 2877.dat
1 4 130 -96.00000000000001 -20 0 0 1 0 1 0 -1 0 0 2877.dat
1 4 20 -72 -50 -1 0 0 0 1 0 0 0 -1 2877.dat
1 4 20 -96.00000000000001 -50 -1 0 0 0 1 0 0 0 -1 2877.dat
1 4 20 -72 50 1 0 0 0 1 0 0 0 1 2877.dat
1 4 20 -96.00000000000001 50 1 0 0 0 1 0 0 0 1 2877.dat
1 41 -20 -96.00000000000001 50.010000000000005 -1 0 0 0 1 0 0 0 -1 4862.dat
1 41 -20 -96.00000000000001 -49.99000000000001 1 0 0 0 1 0 0 0 1 4862.dat
1 0 -20 -96.00000000000001 -49.99000000000001 1 0 0 0 1 0 0 0 1 2377.dat
1 0 -20 -96.00000000000001 50.010000000000005 -1 0 0 0 1 0 0 0 -1 2377.dat
1 41 -80 -96.00000000000001 50.010000000000005 -1 0 0 0 1 0 0 0 -1 4862.dat
1 41 -80 -96.00000000000001 -49.99000000000001 1 0 0 0 1 0 0 0 1 4862.dat
1 0 -80 -96.00000000000001 -49.99000000000001 1 0 0 0 1 0 0 0 1 2377.dat
1 0 -80 -96.00000000000001 50.010000000000005 -1 0 0 0 1 0 0 0 -1 2377.dat
1 4 130 -120 -0.01 0 0 1 0 1 0 -1 0 0 3009.dat
1 4 0 -120 50.03 -1 0 0 0 1 0 0 0 -1 6112.dat
1 4 0 -120 -49.97 -1 0 0 0 1 0 0 0 -1 6112.dat
1 4 130 -128 -0.01 0 0 1 0 1 0 -1 0 0 3710.dat
1 0 79.98000000000002 -128 50.040000000000006 -1 0 0 0 1 0 0 0 -1 4510.dat
1 0 -80.02000000000001 -128 50.040000000000006 -1 0 0 0 1 0 0 0 -1 4510.dat
1 0 79.98000000000002 -128 -49.96000000000001 1 0 0 0 1 0 0 0 1 4510.dat
1 0 -80.02000000000001 -128 -49.96000000000001 1 0 0 0 1 0 0 0 1 4510.dat
1 4 -90 -128 -30.010000000000005 1 0 0 0 1 0 0 0 1 3861c.dat
1 0 119.99000000000001 -152 0.05000000000000001 -1 0 0 0 1 0 0 0 -1 32083.dat
1 4 39.99000000000001 -136 0.02 0 0 -1 0 1 0 1 0 0 3032.dat
1 0 149.99 -160 -9.93 0 0 -1 0 1 0 1 0 0 2555.dat
1 0 89.99000000000001 -160 -9.93 0 0 -1 0 1 0 1 0 0 2555.dat
