1 7 10 0 10 1 0 0 0 1 0 0 0 1 3865.dat
1 15 110 -24.000000000000004 70 1 0 0 0 1 0 0 0 1 3001.dat
1 15 110 -24.000000000000004 30 1 0 0 0 1 0 0 0 1 3001.dat
1 15 60 -24.000000000000004 0 0 0 -1 0 1 0 1 0 0 3622.dat
1 15 -10 -24.000000000000004 -20 1 0 0 0 1 0 0 0 1 3009.dat
1 15 -80 -24.000000000000004 70 0 0 -1 0 1 0 1 0 0 3004.dat
1 15 -80 -24.000000000000004 -10 0 0 -1 0 1 0 1 0 0 3004.dat
1 0 110 -32 50 0 0 -1 0 1 0 1 0 0 3068b.dat
1 15 -10 -48.00000000000001 -20 1 0 0 0 1 0 0 0 1 3010.dat
1 15 90 -48.00000000000001 20 1 0 0 0 1 0 0 0 1 3010.dat
1 15 140 -48.00000000000001 50 0 0 -1 0 1 0 1 0 0 3010.dat
1 15 80 -48.00000000000001 50 0 0 -1 0 1 0 1 0 0 3004.dat
1 15 -80 -48.00000000000001 70 0 0 -1 0 1 0 1 0 0 3660.dat
1 15 -80 -48.00000000000001 -20 1 0 0 0 1 0 0 0 1 2357.dat
1 15 60 -48.00000000000001 -20 0 0 -1 0 1 0 1 0 0 2357.dat
1 7 140 -56.00000000000001 50 0 0 -1 0 1 0 1 0 0 3023.dat
1 4 70 -56.00000000000001 50 0 0 -1 0 1 0 1 0 0 3022.dat
1 15 140 -72 80 0 0 -1 0 1 0 1 0 0 3005.dat
1 15 -60 -56.00000000000001 70 0 0 -1 0 1 0 1 0 0 3496c01.dat
1 15 110 -64 50 1 0 0 0 1 0 0 0 1 3020.dat
1 4 -10 -56.00000000000001 -10 1 0 0 0 1 0 0 0 1 3795.dat
1 15 -80 -72 70 0 0 -1 0 1 0 1 0 0 3004.dat
1 15 -80 -72 -10 0 0 -1 0 1 0 1 0 0 3004.dat
1 15 60 -72 0 0 0 -1 0 1 0 1 0 0 3622.dat
1 15 110 -72 20 1 0 0 0 1 0 0 0 1 3010.dat
1 15 140 -72 80 1 0 0 0 1 0 0 0 1 3005.dat
1 7 140 -72 50 0 0 -1 0 1 0 1 0 0 3023.dat
1 7 80 -72 50 0 0 -1 0 1 0 1 0 0 3023.dat
1 0 110 -72 50 0 0 -1 0 1 0 1 0 0 3068b.dat
1 15 -80 -96.00000000000001 70 0 0 -1 0 1 0 1 0 0 3004.dat
1 15 -80 -96.00000000000001 -10 0 0 -1 0 1 0 1 0 0 3004.dat
1 15 60 -96.00000000000001 -20 0 0 -1 0 1 0 1 0 0 3005.dat
1 15 60 -96.00000000000001 20 0 0 1 0 1 0 -1 0 0 2357.dat
1 15 140 -96.00000000000001 50 0 0 1 0 1 0 -1 0 0 3010.dat
1 0 100 -96.00000000000001 20 1 0 0 0 1 0 0 0 1 4070.dat
1 0 120 -96.00000000000001 20 1 0 0 0 1 0 0 0 1 4070.dat
1 0 80 -96.00000000000001 80 0 0 1 0 1 0 -1 0 0 3190.dat
1 15 80 -96.00000000000001 50 0 0 1 0 1 0 -1 0 0 3004.dat
1 15 -80 -120 70 0 0 -1 0 1 0 1 0 0 3004.dat
1 15 -80 -120 -10 0 0 -1 0 1 0 1 0 0 3004.dat
1 15 60 -120 0 0 0 -1 0 1 0 1 0 0 3622.dat
1 15 110 -120 30 -1 0 0 0 1 0 0 0 -1 3001.dat
1 15 110 -120 70 -1 0 0 0 1 0 0 0 -1 3001.dat
1 4 -80 -128 80 -1 0 0 0 1 0 0 0 -1 4085b.dat
1 4 -80 -128 30 0 0 1 0 1 0 -1 0 0 3710.dat
1 4 -10 -128 -20 -1 0 0 0 1 0 0 0 -1 3460.dat
1 4 60 -128 20 0 0 1 0 1 0 -1 0 0 2420.dat
1 4 100 -128 80 -1 0 0 0 1 0 0 0 -1 3623.dat
1 4 140 -128 50 0 0 1 0 1 0 -1 0 0 3710.dat
1 4 80 -128 50 0 0 1 0 1 0 -1 0 0 3023.dat
1 4 110 -128 20 1 0 0 0 1 0 0 0 1 3023.dat
1 14 110 -85 5 1 0 0 0 0 -1 0 1 0 2412b.dat
1 4 -80 -136 60 1 0 0 0 1 0 0 0 1 3024.dat
1 15 -80 -152 80 0 0 -1 0 1 0 1 0 0 3665a.dat
1 15 80 -152 80 0 0 1 0 1 0 -1 0 0 3665a.dat
1 15 120 -152 80 -1 0 0 0 1 0 0 0 -1 3622.dat
1 15 110 -152 20 -1 0 0 0 1 0 0 0 -1 3010.dat
1 15 80 -152 50 0 0 1 0 1 0 -1 0 0 3004.dat
1 15 140 -152 50 0 0 1 0 1 0 -1 0 0 3004.dat
1 15 -10 -176 80 -1 0 0 0 1 0 0 0 -1 3008.dat
1 4 -10 -152 10 1 0 0 0 1 0 0 0 1 4515.dat
1 15 140 -176 50 0 0 -1 0 1 0 1 0 0 3010.dat
1 15 80 -176 50 0 0 -1 0 1 0 1 0 0 3010.dat
1 15 110 -176 80 -1 0 0 0 1 0 0 0 -1 3004.dat
1 4 110 -160 20 -1 0 0 0 1 0 0 0 -1 2412b.dat
1 15 110 -200 80 -1 0 0 0 1 0 0 0 -1 3010.dat
1 15 140 -200 40 0 0 1 0 1 0 -1 0 0 3622.dat
1 15 80 -200 40 0 0 1 0 1 0 -1 0 0 3622.dat
1 15 130 -48.00000000000001 -50 0 0 1 0 1 0 -1 0 0 3940.dat
1 6 -80 -152 100 -1 0 0 0 1 0 0 0 -1 2542.dat
1 15 -10 -200 80 -1 0 0 0 1 0 0 0 -1 3008.dat
1 4 -10 -208 80 1 0 0 0 1 0 0 0 1 3460.dat
1 15 110 -224.00000000000003 20 -1 0 0 0 1 0 0 0 -1 3659.dat
1 15 140 -224.00000000000003 60 0 0 1 0 1 0 -1 0 0 3622.dat
1 15 80 -224.00000000000003 60 0 0 1 0 1 0 -1 0 0 3622.dat
1 15 110 -224.00000000000003 80 -1 0 0 0 1 0 0 0 -1 3004.dat
1 8 -130 -48.00000000000001 70 -1 0 0 0 1 0 0 0 -1 2439.dat
1 8 -130 -56.00000000000001 70 -1 0 0 0 1 0 0 0 -1 4740.dat
1 4 100 -248 60 -1 0 0 0 1 0 0 0 -1 3675.dat
1 4 120 -248 60 0 0 -1 0 1 0 1 0 0 3675.dat
1 4 120 -248 40 1 0 0 0 1 0 0 0 1 3675.dat
1 4 100 -248 40 0 0 1 0 1 0 -1 0 0 3675.dat
1 0 100 -272 60 0 0 1 0 1 0 -1 0 0 4589.dat
1 7 130 -56.00000000000001 -50 0 0 1 0 1 0 -1 0 0 3957a.dat
1 15 130 -144 -50 0 0 1 0 1 0 -1 0 0 3960p01.dat
1 15 20 -64 -10 1 0 0 0 1 0 0 0 1 4150p02.dat
1 15 -30 -64 -10 1 0 0 0 1 0 0 0 1 4150p02.dat
1 15 177.747452 0 -185.70806000000002 -0.5 0 0.8660000000000001 0 1 0 -0.8660000000000001 0 -0.5 2412b.dat
1 15 230.07507400000003 0 -215.90530200000003 -0.5 0 0.8660000000000001 0 1 0 -0.8660000000000001 0 -0.5 2412b.dat
1 15 234.10825000000003 -8 -148.49450000000002 -0.8660000000000001 0 -0.5 0 1 0 0.5 0 -0.8660000000000001 3022.dat
1 4 208.940884 0 -192.08237800000003 -0.8660000000000001 0 -0.5 0 1 0 0.5 0 -0.8660000000000001 2441.dat
1 15 183.777276 -8 -235.689746 -0.8660000000000001 0 -0.5 0 1 0 0.5 0 -0.8660000000000001 3022.dat
1 15 219.009384 -16 -174.643736 -0.8660000000000001 0 -0.5 0 1 0 0.5 0 -0.8660000000000001 3010.dat
1 15 234.10825000000003 -24.000000000000004 -148.49450000000002 -0.8660000000000001 0 -0.5 0 1 0 0.5 0 -0.8660000000000001 3788.dat
1 14 203.906214 -16 -200.812426 -0.8660000000000001 0 -0.5 0 1 0 0.5 0 -0.8660000000000001 3003.dat
1 4 229.07925000000003 -24.000000000000004 -157.204728 -0.5 0 0.8660000000000001 0 1 0 -0.8660000000000001 0 -0.5 3021.dat
1 15 245.16778000000002 -24.000000000000004 -189.746736 0.8660000000000001 0 0.5 0 1 0 -0.5 0 0.8660000000000001 4085b.dat
1 15 192.85131800000002 -24.000000000000004 -159.550164 -0.8660000000000001 0 -0.5 0 1 0 0.5 0 -0.8660000000000001 3024.dat
1 15 183.777276 -24.000000000000004 -235.689746 -0.8660000000000001 0 -0.5 0 1 0 0.5 0 -0.8660000000000001 3788.dat
1 15 224.04388400000002 -32 -165.92398200000002 0.8660000000000001 0 0.5 0 1 0 -0.5 0 0.8660000000000001 3020.dat
1 15 178.743276 -24.000000000000004 -244.408634 0.8660000000000001 0 0.5 0 1 0 -0.5 0 0.8660000000000001 2436a.dat
1 0 219.009384 -56.00000000000001 -174.643736 -0.8660000000000001 0 -0.5 0 1 0 0.5 0 -0.8660000000000001 4865a.dat
1 0 229.07925000000003 -40 -157.204728 0.8660000000000001 0 0.5 0 1 0 -0.5 0 0.8660000000000001 3069b.dat
1 4 167.66741 -13 -263.590034 -0.8660000000000001 0.5 0 0 0 1 0.5 0.8660000000000001 0 2412b.dat
1 46 193.825306 -14.000000000000002 -278.6939 0 0.5 -0.8660000000000001 -1 0 0 0 0.8660000000000001 0.5 6141.dat
1 46 141.508648 -14.000000000000002 -248.485668 0 0.5 -0.8660000000000001 -1 0 0 0 0.8660000000000001 0.5 6141.dat
1 7 188.812642 -24.000000000000004 -226.97049200000004 0.8660000000000001 0 0.5 0 1 0 -0.5 0 0.8660000000000001 3829c01.dat
1 15 250.20314600000003 -56.00000000000001 -181.02748200000002 -0.5 0 0.8660000000000001 0 1 0 -0.8660000000000001 0 -0.5 3004.dat
1 15 197.88598800000003 -56.00000000000001 -150.82011599999998 -0.5 0 0.8660000000000001 0 1 0 -0.8660000000000001 0 -0.5 3004.dat
1 15 204.901172 -48.00000000000001 -259.51250000000005 0.5 0 -0.8660000000000001 0 1 0 0.8660000000000001 0 0.5 2357.dat
1 15 152.58488 -48.00000000000001 -229.305634 0.8660000000000001 0 0.5 0 1 0 -0.5 0 0.8660000000000001 2357.dat
1 15 224.04388400000002 -64 -165.92398200000002 0.8660000000000001 0 0.5 0 1 0 -0.5 0 0.8660000000000001 3020.dat
1 0 219.009384 -88 -174.643736 -0.8660000000000001 0 -0.5 0 1 0 0.5 0 -0.8660000000000001 4865a.dat
1 0 229.07925000000003 -72 -157.204728 0.8660000000000001 0 0.5 0 1 0 -0.5 0 0.8660000000000001 3069b.dat
1 43 188.812642 -96.00000000000001 -226.97049200000004 0.8660000000000001 0 0.5 0 1 0 -0.5 0 0.8660000000000001 3823.dat
1 15 229.07925000000003 -96.00000000000001 -157.204728 -0.8660000000000001 0 -0.5 0 1 0 0.5 0 -0.8660000000000001 3710.dat
1 15 250.20314600000003 -88 -181.02748200000002 -0.5 0 0.8660000000000001 0 1 0 -0.8660000000000001 0 -0.5 3004.dat
1 15 197.88598800000003 -88 -150.82011599999998 -0.5 0 0.8660000000000001 0 1 0 -0.8660000000000001 0 -0.5 3004.dat
1 15 239.14825000000002 -96.00000000000001 -139.76522 -0.8660000000000001 0 -0.5 0 1 0 0.5 0 -0.8660000000000001 3853.dat
1 33 196.353848 -100 -213.89112400000002 0.8660000000000001 0 0.5 0 1 0 -0.5 0 0.8660000000000001 2348b.dat
1 15 203.906214 -104 -200.812426 0.8660000000000001 0 0.5 0 1 0 -0.5 0 0.8660000000000001 2349a.dat
1 15 219.009384 -96.00000000000001 -174.643736 0.8660000000000001 0 0.5 0 1 0 -0.5 0 0.8660000000000001 4625.dat
1 0 260.266646 4 -163.59750000000003 0.5 0 -0.8660000000000001 0 1 0 0.8660000000000001 0 0.5 3641.dat
1 15 260.266646 4 -163.59750000000003 0.5 0 -0.8660000000000001 0 1 0 0.8660000000000001 0 0.5 4624.dat
1 0 209.93653800000004 4 -250.79324600000004 0.5 0 -0.8660000000000001 0 1 0 0.8660000000000001 0 0.5 3641.dat
1 15 209.93653800000004 4 -250.79324600000004 0.5 0 -0.8660000000000001 0 1 0 0.8660000000000001 0 0.5 4624.dat
1 0 155.86719399999998 4 -219.578844 -0.5 0 0.8660000000000001 0 1 0 -0.8660000000000001 0 -0.5 3641.dat
1 15 156.74372 4 -220.08261200000004 -0.5 0 0.8660000000000001 0 1 0 -0.8660000000000001 0 -0.5 4624.dat
1 0 206.206596 4 -132.385 -0.5 0 0.8660000000000001 0 1 0 -0.8660000000000001 0 -0.5 3641.dat
1 15 207.07432800000004 4 -132.886 -0.5 0 0.8660000000000001 0 1 0 -0.8660000000000001 0 -0.5 4624.dat
1 15 281.5774 -96.00000000000001 -146.824388 -0.5 0 0.8660000000000001 0 1 0 -0.8660000000000001 0 -0.5 3856.dat
1 15 211.8221 -96.00000000000001 -106.54765600000002 0.5 0 -0.8660000000000001 0 1 0 0.8660000000000001 0 0.5 3856.dat
1 15 188.812642 -128 -226.97049200000004 -0.8660000000000001 0 -0.5 0 1 0 0.5 0 -0.8660000000000001 4865a.dat
1 15 234.10825000000003 -104 -148.49450000000002 -0.8660000000000001 0 -0.5 0 1 0 0.5 0 -0.8660000000000001 3020.dat
1 15 -112.132 -96.00000000000001 -132.765 1 0 0 0 1 0 0 0 1 3898.dat
1 14 -112.132 -96.00000000000001 -132.765 1 0 0 0 1 0 0 0 1 3626bp03.dat
1 15 -112.132 -72 -132.765 1 0 0 0 1 0 0 0 1 973p2a.dat
1 7 -112.132 -40 -132.765 1 0 0 0 1 0 0 0 1 3815.dat
1 15 -96.63200000000002 -64 -132.765 1 0.14 0.09 -0.17 0.8400000000000001 0.52 0 -0.53 0.8500000000000001 3819.dat
1 15 -127.632 -64 -132.765 1 -0.17 0 0.17 1 0 0 0 1 3818.dat
1 14 -89.862 -54.190000000000005 -151.315 1 -0.09 0 0.08 1 -0.22000000000000003 0.06 0.22000000000000003 1 3820.dat
1 14 -135.792 -46.13 -142.765 1 -0.12 0.12 0.17 0.7 -0.7 0 0.71 0.71 3820.dat
1 47 -87.292 -62.12 -183.805 1 -0.09 0 0.08 1 -0.22000000000000003 0.06 0.22000000000000003 1 3899.dat
1 7 -112.132 -28.000000000000004 -132.765 1 0 0 0 1 0 0 0 1 3817.dat
1 7 -112.132 -28.000000000000004 -132.765 1 0 0 0 1 0 0 0 1 3816.dat
1 15 114.10904000000001 -96.00000000000001 -150.23716000000002 0.5 0 0.8660000000000001 0 1 0 -0.8660000000000001 0 0.5 4485.dat
1 14 114.10904000000001 -96.00000000000001 -150.23716000000002 0.5 0 0.8660000000000001 0 1 0 -0.8660000000000001 0 0.5 3626bp01.dat
1 15 114.10904000000001 -72 -150.23716000000002 0.5 0 0.8660000000000001 0 1 0 -0.8660000000000001 0 0.5 973p1b.dat
1 1 114.10904000000001 -40 -150.23716000000002 0.5 0 0.8660000000000001 0 1 0 -0.8660000000000001 0 0.5 3815.dat
1 15 121.75997800000002 -64 -163.502584 0.5 0.0855 0.8660000000000001 -0.171 1 0 -0.8660000000000001 -0.14808600000000002 0.5 3819.dat
1 15 106.421638 -64 -136.91658 0.5 -0.0855 0.8660000000000001 0.171 1 0 -0.8660000000000001 0.14808600000000002 0.5 3818.dat
1 14 117.264996 -46.00000000000001 -175.470406 0.5 0.673994 0.5495299999999999 -0.171 0.6940000000000001 -0.6990000000000001 -0.8660000000000001 0.25057999999999997 0.458152 3820.dat
1 14 93.588404 -46.00000000000001 -134.88653 0.5 0.5534939999999999 0.67103 0.171 0.6940000000000001 -0.6990000000000001 -0.8660000000000001 0.45928599999999997 0.247714 3820.dat
1 0 86.31297599999999 -39.647 -137.800806 0.67203 0.5534939999999999 -0.49250000000000005 -0.6990000000000001 0.6940000000000001 -0.172 0.245982 0.45928599999999997 0.85301 3962b.dat
1 1 114.10904000000001 -28.000000000000004 -150.23716000000002 0.5 0 0.8660000000000001 0 1 0 -0.8660000000000001 0 0.5 3817.dat
1 1 114.10904000000001 -28.000000000000004 -150.23716000000002 0.5 0 0.8660000000000001 0 1 0 -0.8660000000000001 0 0.5 3816.dat
1 0 -10 -96.00000000000001 -138 1 0 0 0 1 0 0 0 1 6093a.dat
1 14 -10 -96.00000000000001 -138 1 0 0 0 1 0 0 0 1 3626bp08.dat
1 14 -10 -72 -138 1 0 0 0 1 0 0 0 1 973p2c.dat
1 4 -10 -40 -138 1 0 0 0 1 0 0 0 1 3815.dat
1 14 5.5 -64 -138 1 0.17 0 -0.17 1 0 0 0 1 3819.dat
1 14 -25.500000000000004 -64 -138 1 -0.17 0 0.17 1 0 0 0 1 3818.dat
1 14 13.66 -46.13 -148 1 0.12 -0.12 -0.17 0.7 -0.7 0 0.71 0.71 3820.dat
1 14 -33.66 -46.13 -148 1 -0.12 0.12 0.17 0.7 -0.7 0 0.71 0.71 3820.dat
1 4 -10 -28.000000000000004 -138 1 0 0 0 1 0 0 0 1 3817.dat
1 4 -10 -28.000000000000004 -138 1 0 0 0 1 0 0 0 1 3816.dat
