1 2 100 0 120 1 0 0 0 1 0 0 0 1 3857.dat
1 8 -210 -24.000000000000004 260 0 0 1 0 1 0 -1 0 0 3004.dat
1 8 -60 -24.000000000000004 260 1 0 0 0 1 0 0 0 1 3001.dat
1 8 20 -8 270 1 0 0 0 1 0 0 0 1 2431.dat
1 8 140 -8 120 0 0 1 0 1 0 -1 0 0 2865.dat
1 8 340 -24.000000000000004 260 1 0 0 0 1 0 0 0 1 3001.dat
1 8 260 -8 270 1 0 0 0 1 0 0 0 1 2431.dat
1 4 -210 -144 260 0 0 1 0 1 0 -1 0 0 2454.dat
1 4 -60 -48.00000000000001 260 1 0 0 0 1 0 0 0 1 3001.dat
1 4 -60 -72 260 1 0 0 0 1 0 0 0 1 3001.dat
1 4 -60 -96.00000000000001 260 1 0 0 0 1 0 0 0 1 3001.dat
1 4 -60 -120 260 1 0 0 0 1 0 0 0 1 3001.dat
1 4 -60 -144 260 1 0 0 0 1 0 0 0 1 3001.dat
1 4 340 -48.00000000000001 260 1 0 0 0 1 0 0 0 1 3001.dat
1 4 340 -72 260 1 0 0 0 1 0 0 0 1 3001.dat
1 4 340 -96.00000000000001 260 1 0 0 0 1 0 0 0 1 3001.dat
1 4 340 -120 260 1 0 0 0 1 0 0 0 1 3001.dat
1 4 340 -144 260 1 0 0 0 1 0 0 0 1 3001.dat
1 4 -210 -168 250 0 0 -1 0 1 0 1 0 0 3665a.dat
1 4 -210 -168 270 -1 0 0 0 1 0 0 0 -1 3665a.dat
1 4 -80 -168 270 -1 0 0 0 1 0 0 0 -1 3660.dat
1 4 -40 -168 270 -1 0 0 0 1 0 0 0 -1 3660.dat
1 4 320 -168 270 -1 0 0 0 1 0 0 0 -1 3660.dat
1 4 360 -168 270 -1 0 0 0 1 0 0 0 -1 3660.dat
1 4 -90 -168 250 0 0 1 0 1 0 -1 0 0 3665a.dat
1 4 -30 -168 250 1 0 0 0 1 0 0 0 1 3665a.dat
1 4 310 -168 250 1 0 0 0 1 0 0 0 1 3665a.dat
1 4 370 -168 250 1 0 0 0 1 0 0 0 1 3665a.dat
1 8 -160 -24.000000000000004 150 -1 0 0 0 1 0 0 0 -1 3009.dat
1 8 -110 -24.000000000000004 130 -1 0 0 0 1 0 0 0 -1 3005.dat
1 8 -110 -24.000000000000004 70 -1 0 0 0 1 0 0 0 -1 3005.dat
1 0 -80 -24.000000000000004 100 -1 0 0 0 1 0 0 0 -1 3001.dat
1 4 -160 -144 150 -1 0 0 0 1 0 0 0 -1 3754.dat
1 4 -110 -144 120 0 0 -1 0 1 0 1 0 0 2454.dat
1 4 -110 -144 80 0 0 -1 0 1 0 1 0 0 2454.dat
1 8 -160 -24.000000000000004 -30 -1 0 0 0 1 0 0 0 -1 3009.dat
1 8 -110 -144 20 0 0 1 0 1 0 -1 0 0 30179.dat
1 7 -105 -8 50 -1 0 0 0 -1 0 0 0 1 10128 - 30178c02.dat
1 0 -160 -24.000000000000004 100 1 0 0 0 1 0 0 0 1 3003.dat
1 8 -158.817 -56.78000000000001 100 0 0.819 0.574 0 0.574 -0.819 -1 0 0 3068b.dat
1 0 -158 -44 100 0 0.819 0.574 0 0.574 -0.819 -1 0 0 6134.dat
1 8 -150 -48.00000000000001 100 0 0 1 0 1 0 -1 0 0 3937.dat
1 8 -170 -32 100 0 0 1 0 1 0 -1 0 0 3069bp80.dat
1 4 -120 -144 -30 -1 0 0 0 1 0 0 0 -1 2454.dat
1 40 -160 -144 -30 -1 0 0 0 1 0 0 0 -1 2454.dat
1 4 -200 -144 -30 -1 0 0 0 1 0 0 0 -1 2454.dat
1 0 -60 -32 90 -1 0 0 0 1 0 0 0 -1 3710.dat
1 15 -60 -152 240 -1 0 0 0 1 0 0 0 -1 3022.dat
1 15 340 -152 240 -1 0 0 0 1 0 0 0 -1 3022.dat
1 4 -160 -168 -30 -1 0 0 0 1 0 0 0 -1 3010.dat
1 4 -110 -168 60 0 0 1 0 1 0 -1 0 0 6111.dat
1 4 -210 -168 60 0 0 1 0 1 0 -1 0 0 6111.dat
1 4 -160 -168 150 -1 0 0 0 1 0 0 0 -1 3010.dat
1 0 -60 -168 160 1 0 0 0 1 0 0 0 1 30134.dat
1 0 340 -24.000000000000004 100 -1 0 0 0 1 0 0 0 -1 3003.dat
1 0 340 -32 90 -1 0 0 0 1 0 0 0 -1 3710.dat
1 0 340 -168 160 1 0 0 0 1 0 0 0 1 30134.dat
1 8 -160 -176 40 0 0 1 0 1 0 -1 0 0 3036.dat
1 8 340 -176 240 1 0 0 0 1 0 0 0 1 3031.dat
1 8 -60 -176 240 1 0 0 0 1 0 0 0 1 3031.dat
1 8 -160 -176 200 0 0 1 0 1 0 -1 0 0 3036.dat
1 8 -120 -176 290 -1 0 0 0 1 0 0 0 -1 4477.dat
1 8 340 -176 290 -1 0 0 0 1 0 0 0 -1 3710.dat
1 7 340 -48.00000000000001 -30 -1 0 0 0 1 0 0 0 -1 4083.dat
1 7 340 -224.00000000000003 290 1 0 0 0 1 0 0 0 1 4083.dat
1 7 370 -224.00000000000003 240 0 0 1 0 1 0 -1 0 0 4083.dat
1 7 -210 -224.00000000000003 240 0 0 1 0 1 0 -1 0 0 4083.dat
1 0 310 -184.00000000000003 270 1 0 0 0 1 0 0 0 1 3024.dat
1 0 310 -184.00000000000003 210 1 0 0 0 1 0 0 0 1 3024.dat
1 0 -30 -184.00000000000003 270 1 0 0 0 1 0 0 0 1 3024.dat
1 0 -30 -184.00000000000003 210 1 0 0 0 1 0 0 0 1 3024.dat
1 7 290 -48.00000000000001 40 0 0 -1 0 1 0 1 0 0 2486.dat
1 7 -10 -48.00000000000001 40 0 0 -1 0 1 0 1 0 0 2486.dat
1 7 -120 -224.00000000000003 290 -1 0 0 0 1 0 0 0 -1 2486.dat
1 8 -180 -320 150 1 0 0 0 1 0 0 0 1 30179.dat
1 7 -210.48200000000006 -184.00000000000003 155.512 0 0 -1 0 -1 0 -1 0 0 10128 - 30178c02.dat
1 4 -180 -200 -30 -1 0 0 0 1 0 0 0 -1 3010.dat
1 0 -160 -200 60 1 0 0 0 1 0 0 0 1 3003.dat
1 7 310 -192.00000000000003 270 1 0 0 0 1 0 0 0 1 3024.dat
1 7 -30 -192.00000000000003 270 1 0 0 0 1 0 0 0 1 3024.dat
1 7 -30 -192.00000000000003 210 0 0 -1 0 1 0 1 0 0 4081b.dat
1 7 310 -192.00000000000003 210 0 0 1 0 1 0 -1 0 0 4081b.dat
1 4 -130 -200 60 0 0 1 0 1 0 -1 0 0 6111.dat
1 7 -150 -224.00000000000003 60 0 0 1 0 1 0 -1 0 0 3297p15.dat
1 34 -150 -232.00000000000003 90 0 0 1 0 1 0 -1 0 0 6141.dat
1 34 -150 -232.00000000000003 70 0 0 1 0 1 0 -1 0 0 6141.dat
1 36 -150 -232.00000000000003 50 0 0 1 0 1 0 -1 0 0 6141.dat
1 36 -150 -232.00000000000003 30 0 0 1 0 1 0 -1 0 0 6141.dat
1 4 -180 -224.00000000000003 -30 -1 0 0 0 1 0 0 0 -1 3010.dat
1 7 -100 -192.00000000000003 -40 0 0 -1 0 1 0 1 0 0 4081b.dat
1 15 -70 -190 -53.00000000000001 1 0 0 0 0 -1 0 1 0 3069bp08.dat
1 15 -70 -190 -28.000000000000004 -1 0 0 0 0 -1 0 -1 0 3069bp08.dat
1 4 -130 -224.00000000000003 60 0 0 1 0 1 0 -1 0 0 3008.dat
1 4 -130 -320 150 0 0 1 0 1 0 -1 0 0 2453a.dat
1 4 -130 -320 -30 0 0 1 0 1 0 -1 0 0 2453a.dat
1 40 -130 -320 100 0 0 -1 0 1 0 1 0 0 4872.dat
1 40 -130 -320 20 0 0 -1 0 1 0 1 0 0 4872.dat
1 40 -180 -320 -30 1 0 0 0 1 0 0 0 1 4872.dat
1 4 -180 -328.00000000000006 150 1 0 0 0 1 0 0 0 1 3023.dat
1 4 -140 -328.00000000000006 60 0 0 -1 0 1 0 1 0 0 3832.dat
1 4 -210 -328.00000000000006 60 0 0 -1 0 1 0 1 0 0 4477.dat
1 4 -100 -328.00000000000006 60 0 0 -1 0 1 0 1 0 0 3034.dat
1 4 -180 -328.00000000000006 -60 1 0 0 0 1 0 0 0 1 3020.dat
1 7 -140 -336 60 1 0 0 0 1 0 0 0 1 3035.dat
1 7 -200 -336 -40 0 0 -1 0 1 0 1 0 0 3795.dat
1 7 -200 -336 160 0 0 -1 0 1 0 1 0 0 3795.dat
1 0 260 -320 240 0 0 -1 0 1 0 1 0 0 30134.dat
1 0 20 -320 240 0 0 1 0 1 0 -1 0 0 30134.dat
1 7 -120 -336 -40 1 0 0 0 1 0 0 0 1 6106.dat
1 7 -120.05400000000002 -336 160 0 0 -1 0 1 0 1 0 0 6106.dat
1 7 -70 -344 60 0 0 1 0 1 0 -1 0 0 3794b.dat
1 0 -110 -360 60 0 0 -1 0 1 0 1 0 0 3039.dat
1 0 140 -304 240 1 0 0 0 1 0 0 0 1 3795.dat
1 4 140 -312 240 0 0 -1 0 1 0 1 0 0 3020.dat
1 0 -200 -360 60 0 0 1 0 1 0 -1 0 0 3001.dat
1 0 -200 -360 0 1 0 0 0 1 0 0 0 1 44126.dat
1 0 -200 -360 120 -1 0 0 0 1 0 0 0 -1 44126.dat
1 7 140 -320 270 -1 0 0 0 1 0 0 0 -1 2436a.dat
1 7 140 -320 210 1 0 0 0 1 0 0 0 1 2436a.dat
1 0 -50 -352 60 0 0 -1 0 1 0 1 0 0 3963.dat
1 0 -200 -384.00000000000006 60 0 0 -1 0 1 0 1 0 0 44126.dat
1 40 -200 -384.00000000000006 30 0 0 -1 0 1 0 1 0 0 41749.dat
1 40 -200 -384.00000000000006 90 0 0 -1 0 1 0 1 0 0 41750.dat
1 0 140 -320 240 1 0 0 0 1 0 0 0 1 3795.dat
1 4 140 -310 188 1 0 0 0 0 -1 0 1 0 2431.dat
1 4 140 -310 292 -1 0 0 0 0 -1 0 -1 0 2431.dat
1 8 140 -328.00000000000006 240 1 0 0 0 1 0 0 0 1 3035.dat
1 0 290 -179.00000000000003 198 0 0 -1 -1 0 0 0 1 0 3023.dat
1 7 140 -376 270 -1 0 0 0 1 0 0 0 -1 2486.dat
1 7 140 -376 210 -1 0 0 0 1 0 0 0 -1 2486.dat
1 34 290 -189.00000000000003 190 0 0 -1 -1 0 0 0 1 0 6141.dat
1 36 290 -169.00000000000003 190 0 0 -1 -1 0 0 0 1 0 6141.dat
1 14 -10 -190 198 1 0 0 0 0 -1 0 1 0 3070bp01.dat
1 0 -150 -344 -50 1 0 0 0 1 0 0 0 1 2569.dat
1 6 350 -24.000000000000004 -30 0.5 0 0.8660000000000001 0 -1 0 0.8660000000000001 0 -0.5 3836.dat
1 8 330 -64 -30 -0.5 0 0.8660000000000001 0 1 0 -0.8660000000000001 0 -0.5 3837.dat
1 8 140 -8 -200 0 0 1 0 1 0 -1 0 0 2865.dat
1 8 140 -8 -520 0 0 1 0 1 0 -1 0 0 2865.dat
1 2 100 0 -360 0 0 1 0 1 0 -1 0 0 44336p01.dat
1 4 60 -8 -320 0 0 1 0 1 0 -1 0 0 3022.dat
1 4 60 -8 -240 0 0 1 0 1 0 -1 0 0 3022.dat
1 4 220 -8 -320 0 0 1 0 1 0 -1 0 0 3022.dat
1 4 220 -8 -240 0 0 1 0 1 0 -1 0 0 3022.dat
1 4 60 -8 -480 0 0 1 0 1 0 -1 0 0 3022.dat
1 4 60 -8 -400 0 0 1 0 1 0 -1 0 0 3022.dat
1 4 220 -8 -480 0 0 1 0 1 0 -1 0 0 3022.dat
1 4 220 -8 -400 0 0 1 0 1 0 -1 0 0 3022.dat
1 4 140 -16 -360 -1 0 0 0 1 0 0 0 -1 3020.dat
1 0 210 -16 -280 0 0 1 0 1 0 -1 0 0 3460.dat
1 0 210 -16 -440 0 0 1 0 1 0 -1 0 0 3460.dat
1 0 70 -16 -280 0 0 1 0 1 0 -1 0 0 3460.dat
1 0 70 -16 -440 0 0 1 0 1 0 -1 0 0 3460.dat
1 0 140 -16 -210 -1 0 0 0 1 0 0 0 -1 3710.dat
1 0 140 -16 -510 -1 0 0 0 1 0 0 0 -1 3710.dat
1 8 210 -24.000000000000004 -280 0 0 1 0 1 0 -1 0 0 4162.dat
1 8 170 -24.000000000000004 -280 0 0 1 0 1 0 -1 0 0 4162.dat
1 8 150 -24.000000000000004 -280 0 0 1 0 1 0 -1 0 0 4162.dat
1 8 110 -24.000000000000004 -280 0 0 1 0 1 0 -1 0 0 4162.dat
1 8 130 -24.000000000000004 -280 0 0 1 0 1 0 -1 0 0 4162.dat
1 8 70 -24.000000000000004 -280 0 0 1 0 1 0 -1 0 0 4162.dat
1 8 210 -24.000000000000004 -440 0 0 1 0 1 0 -1 0 0 4162.dat
1 8 170 -24.000000000000004 -440 0 0 1 0 1 0 -1 0 0 4162.dat
1 8 150 -24.000000000000004 -440 0 0 1 0 1 0 -1 0 0 4162.dat
1 8 110 -24.000000000000004 -440 0 0 1 0 1 0 -1 0 0 4162.dat
1 8 130 -24.000000000000004 -440 0 0 1 0 1 0 -1 0 0 4162.dat
1 8 70 -24.000000000000004 -440 0 0 1 0 1 0 -1 0 0 4162.dat
1 8 0 -24.000000000000004 -280 0 0 1 0 1 0 -1 0 0 4515.dat
1 8 0 -24.000000000000004 -440 0 0 1 0 1 0 -1 0 0 4515.dat
1 8 280 -24.000000000000004 -440 0 0 -1 0 1 0 1 0 0 4515.dat
1 8 280 -24.000000000000004 -280 0 0 -1 0 1 0 1 0 0 4515.dat
1 7 -80 -8 -580 0 0 1 0 1 0 -1 0 0 30256.dat
1 0 10 -24.000000000000004 -580 0 0 1 0 1 0 -1 0 0 3004.dat
1 0 270 -24.000000000000004 -140 0 0 1 0 1 0 -1 0 0 3004.dat
1 7 -80 -8 -140 0 0 1 0 1 0 -1 0 0 30256.dat
1 0 -80 -112.00000000000001 -580 0 0 1 0 1 0 -1 0 0 30258.dat
1 0 -80 -72 -580 0 0 1 0 1 0 -1 0 0 30258.dat
1 0 -80 -112.00000000000001 -140 0 0 1 0 1 0 -1 0 0 30258.dat
1 0 -80 -72 -140 0 0 1 0 1 0 -1 0 0 30258.dat
1 7 360 -8 -140 0 0 -1 0 1 0 1 0 0 30256.dat
1 0 360 -112.00000000000001 -140 0 0 -1 0 1 0 1 0 0 30258.dat
1 0 360 -72 -140 0 0 -1 0 1 0 1 0 0 30258.dat
1 7 360 -8 -580 0 0 -1 0 1 0 1 0 0 30256.dat
1 0 360 -112.00000000000001 -580 0 0 -1 0 1 0 1 0 0 30258.dat
1 0 360 -72 -580 0 0 -1 0 1 0 1 0 0 30258.dat
1 0 -20 -24.000000000000004 -540 1 0 0 0 1 0 0 0 1 44126.dat
1 0 300 -24.000000000000004 -180 -1 0 0 0 1 0 0 0 -1 44126.dat
1 0 330 -24.000000000000004 -540 1 0 0 0 1 0 0 0 1 42022.dat
1 0 -50 -24.000000000000004 -180 -1 0 0 0 1 0 0 0 -1 42022.dat
1 0 330 -48.00000000000001 -540 0 0 1 0 1 0 -1 0 0 3004.dat
1 0 -50 -48.00000000000001 -180 0 0 -1 0 1 0 1 0 0 3004.dat
1 0 270 -48.00000000000001 -130 1 0 0 0 1 0 0 0 1 3040b.dat
1 0 10 -48.00000000000001 -590 -1 0 0 0 1 0 0 0 -1 3040b.dat
1 0 300 -54 -180 1 0 0 0 0.259 0.9660000000000001 0 -0.9660000000000001 0.259 2585.dat
1 0 300 -54 -180 -1 0 0 0 0.259 -0.9660000000000001 0 -0.9660000000000001 -0.259 3705.dat
1 7 265 -54 -180 -1 0 0 0 -0.259 0.9660000000000001 0 0.9660000000000001 0.259 6553.dat
1 7 335 -54 -180 -1 0 0 0 -0.259 0.9660000000000001 0 0.9660000000000001 0.259 6536.dat
1 0 335 -68.84 -163.27 0 0 -1 0.9660000000000001 0.259 0 0.259 -0.9660000000000001 0 4459.dat
1 15 335 -88.16000000000001 -168.45 0 0 -1 0.9660000000000001 0.259 0 0.259 -0.9660000000000001 0 75535.dat
1 0 335 -107.47999999999999 -173.63 0 0 -1 0.9660000000000001 0.259 0 0.259 -0.9660000000000001 0 4459.dat
1 4 335 -358.64 -240.97000000000003 0 0 -1 0.9660000000000001 0.259 0 0.259 -0.9660000000000001 0 75535.dat
1 15 335 -320 -230.61000000000004 0 0 -1 0.9660000000000001 0.259 0 0.259 -0.9660000000000001 0 75535.dat
1 0 335 -262.03999999999996 -215.07000000000002 0 0 -1 0.9660000000000001 0.259 0 0.259 -0.9660000000000001 0 4459.dat
1 15 335 -242.72000000000003 -209.89000000000001 0 0 -1 0.9660000000000001 0.259 0 0.259 -0.9660000000000001 0 75535.dat
1 4 335 -204.08 -199.53000000000003 0 0 -1 0.9660000000000001 0.259 0 0.259 -0.9660000000000001 0 75535.dat
1 15 335 -165.44 -189.17000000000002 0 0 -1 0.9660000000000001 0.259 0 0.259 -0.9660000000000001 0 75535.dat
1 4 335 -126.80000000000001 -178.81 0 0 -1 0.9660000000000001 0.259 0 0.259 -0.9660000000000001 0 75535.dat
1 0 335 -339.32000000000005 -235.79000000000002 0 0 -1 0.9660000000000001 0.259 0 0.259 -0.9660000000000001 0 4459.dat
1 0 335 -300.68 -225.43000000000004 0 0 -1 0.9660000000000001 0.259 0 0.259 -0.9660000000000001 0 4459.dat
1 4 335 -281.36 -220.25000000000003 0 0 -1 0.9660000000000001 0.259 0 0.259 -0.9660000000000001 0 75535.dat
1 0 335 -223.40000000000003 -204.71000000000004 0 0 -1 0.9660000000000001 0.259 0 0.259 -0.9660000000000001 0 4459.dat
1 0 335 -184.76 -194.35000000000002 0 0 -1 0.9660000000000001 0.259 0 0.259 -0.9660000000000001 0 4459.dat
1 0 335 -146.12 -183.99 0 0 -1 0.9660000000000001 0.259 0 0.259 -0.9660000000000001 0 4459.dat
1 15 335 -397.28000000000003 -251.33000000000004 0 0 -1 0.9660000000000001 0.259 0 0.259 -0.9660000000000001 0 75535.dat
1 0 335 -377.96 -246.15000000000003 0 0 -1 0.9660000000000001 0.259 0 0.259 -0.9660000000000001 0 4459.dat
1 7 335 -418.53200000000004 -257.028 0 0 1 -0.9660000000000001 0.259 0 -0.259 -0.9660000000000001 0 4274.dat
1 46 335 -426.26000000000005 -259.1 0 0 1 0.259 0.9660000000000001 0 -0.9660000000000001 0.259 0 6141.dat
1 0 300 -48.00000000000001 -180 -1 0 0 0 1 0 0 0 -1 2584.dat
1 0 -20 -54 -540 -1 0 0 0 0.259 0.9660000000000001 0 1 -0.259 2585.dat
1 0 -20 -54 -540 1 0 0 0 0.259 -0.9660000000000001 0 1 0.259 3705.dat
1 7 15 -54 -540 1 0 0 0 -0.259 0.9660000000000001 0 -1 -0.259 6553.dat
1 7 -55 -54 -540 1 0 0 0 -0.259 0.9660000000000001 0 -1 -0.259 6536.dat
1 0 -55 -68.84 -557.41 0 0 1 0.9660000000000001 0.259 0 -0.259 1 0 4459.dat
1 15 -55 -88.16000000000001 -552.23 0 0 1 0.9660000000000001 0.259 0 -0.259 1 0 75535.dat
1 0 -55 -107.47999999999999 -547.05 0 0 1 0.9660000000000001 0.259 0 -0.259 1 0 4459.dat
1 4 -55 -358.64 -479.71000000000004 0 0 1 0.9660000000000001 0.259 0 -0.259 1 0 75535.dat
1 15 -55 -320 -490.07000000000005 0 0 1 0.9660000000000001 0.259 0 -0.259 1 0 75535.dat
1 0 -55 -262.03999999999996 -505.61000000000007 0 0 1 0.9660000000000001 0.259 0 -0.259 1 0 4459.dat
1 15 -55 -242.72000000000003 -510.7900000000001 0 0 1 0.9660000000000001 0.259 0 -0.259 1 0 75535.dat
1 4 -55 -204.08 -521.15 0 0 1 0.9660000000000001 0.259 0 -0.259 1 0 75535.dat
1 15 -55 -165.44 -531.51 0 0 1 0.9660000000000001 0.259 0 -0.259 1 0 75535.dat
1 4 -55 -126.80000000000001 -541.87 0 0 1 0.9660000000000001 0.259 0 -0.259 1 0 75535.dat
1 0 -55 -339.32000000000005 -484.89000000000004 0 0 1 0.9660000000000001 0.259 0 -0.259 1 0 4459.dat
1 0 -55 -300.68 -495.25000000000006 0 0 1 0.9660000000000001 0.259 0 -0.259 1 0 4459.dat
1 4 -55 -281.36 -500.43000000000006 0 0 1 0.9660000000000001 0.259 0 -0.259 1 0 75535.dat
1 0 -55 -223.40000000000003 -515.97 0 0 1 0.9660000000000001 0.259 0 -0.259 1 0 4459.dat
1 0 -55 -184.76 -526.3300000000002 0 0 1 0.9660000000000001 0.259 0 -0.259 1 0 4459.dat
1 0 -55 -146.12 -536.69 0 0 1 0.9660000000000001 0.259 0 -0.259 1 0 4459.dat
1 15 -55 -397.28000000000003 -469.35 0 0 1 0.9660000000000001 0.259 0 -0.259 1 0 75535.dat
1 0 -55 -377.96 -474.53000000000003 0 0 1 0.9660000000000001 0.259 0 -0.259 1 0 4459.dat
1 7 -55 -418.53200000000004 -463.65200000000004 0 0 -1 -0.9660000000000001 0.259 0 0.259 1 0 4274.dat
1 46 -55 -426.26000000000005 -461.58000000000004 0 0 -1 0.259 0.9660000000000001 0 1 -0.259 0 6141.dat
1 0 -20 -48.00000000000001 -540 1 0 0 0 1 0 0 0 1 2584.dat
1 0 330 -56.00000000000001 -540 1 0 0 0 1 0 0 0 1 3021.dat
1 0 -50 -56.00000000000001 -180 1 0 0 0 1 0 0 0 1 3021.dat
1 0 -70 -88 -180 0 0 -1 0 1 0 1 0 0 2432.dat
1 0 310 -88 -540 0 0 -1 0 1 0 1 0 0 2432.dat
1 0 350 -88 -540 0 0 1 0 1 0 -1 0 0 2432.dat
1 0 -30 -88 -180 0 0 1 0 1 0 -1 0 0 2432.dat
1 8 640 -48.00000000000001 89.281 0.5 0 -0.8660000000000001 0 1 0 0.8660000000000001 0 0.5 3029.dat
1 0 577.6800000000001 -40 21.341000000000008 -0.8660000000000001 0 -0.5 0 1 0 0.5 0 -0.8660000000000001 6134.dat
1 0 612.32 -40 1.3410000000000082 -0.8660000000000001 0 -0.5 0 1 0 0.5 0 -0.8660000000000001 6134.dat
1 0 702.3200000000002 -40 157.221 0.8660000000000001 0 0.5 0 1 0 -0.5 0 0.8660000000000001 6134.dat
1 0 667.6800000000001 -40 177.221 0.8660000000000001 0 0.5 0 1 0 -0.5 0 0.8660000000000001 6134.dat
1 0 640 -40 89.281 0.5 0 -0.8660000000000001 0 1 0 0.8660000000000001 0 0.5 3795.dat
1 7 615 -32 45.981000000000016 0.8660000000000001 0 0.5 0 1 0 -0.5 0 0.8660000000000001 2926.dat
1 7 665 -32 132.58100000000002 0.8660000000000001 0 0.5 0 1 0 -0.5 0 0.8660000000000001 2926.dat
1 7 640 -32 89.281 0.5 0 -0.8660000000000001 0 1 0 0.8660000000000001 0 0.5 3020.dat
1 7 588.238 -26.374 -0.37078399999999156 0.8660000000000001 -0.48300000000000004 0.1295 0 0.259 1 -0.5 -0.836556 0.22429400000000002 2926.dat
1 14 582.51 -32.59 29.706560000000014 0.8660000000000001 -0.48300000000000004 0.1295 0 0.259 1 -0.5 -0.836556 0.22429400000000002 3937.dat
1 14 617.1500000000001 -32.59 9.706560000000009 0.8660000000000001 -0.48300000000000004 0.1295 0 0.259 1 -0.5 -0.836556 0.22429400000000002 3937.dat
1 0 540.7910000000002 -25.079 21.446436000000013 -0.1295 -0.48300000000000004 0.8660000000000001 -1 0.259 0 -0.22429400000000002 -0.836556 -0.5 2927.dat
1 0 630.855 -25.079 -30.553563999999994 0.1295 -0.48300000000000004 -0.8660000000000001 1 0.259 0 0.22429400000000002 -0.836556 0.5 2927.dat
1 7 692 -26.374 179.345 -0.8660000000000001 0.5 -0.1295 0 0.259 1 0.5 0.8660000000000001 -0.22429400000000002 2926.dat
1 14 697.3200000000002 -32.59 148.561 -0.8660000000000001 0.5 -0.1295 0 0.259 1 0.5 0.8660000000000001 -0.22429400000000002 3937.dat
1 14 662.6800000000001 -32.59 168.561 -0.8660000000000001 0.5 -0.1295 0 0.259 1 0.5 0.8660000000000001 -0.22429400000000002 3937.dat
1 0 739.5320000000002 -25.079 157.675 0.1295 0.5 -0.8660000000000001 -1 0.259 0 0.22429400000000002 0.8660000000000001 0.5 2927.dat
1 0 649.468 -25.079 209.675 -0.1295 0.5 0.8660000000000001 1 0.259 0 -0.22429400000000002 0.8660000000000001 -0.5 2927.dat
1 0 640 -24.000000000000004 89.281 0.5 0 -0.8660000000000001 0 1 0 0.8660000000000001 0 0.5 3795.dat
1 7 635.98 -56.00000000000001 22.320999999999998 0.5 0 -0.8660000000000001 0 1 0 0.8660000000000001 0 0.5 3666.dat
1 7 584.02 -56.00000000000001 52.32100000000001 0.5 0 -0.8660000000000001 0 1 0 0.8660000000000001 0 0.5 3666.dat
1 14 695.98 -72 126.24100000000001 0.5 0 -0.8660000000000001 0 1 0 0.8660000000000001 0 0.5 6140.dat
1 14 644.02 -72 156.241 0.5 0 -0.8660000000000001 0 1 0 0.8660000000000001 0 0.5 6140.dat
1 14 630 -56.00000000000001 71.96100000000001 0.5 0 -0.8660000000000001 0 1 0 0.8660000000000001 0 0.5 3022.dat
1 7 585 -72 -5.979 0.8660000000000001 0 0.5 0 1 0 -0.5 0 0.8660000000000001 3004.dat
1 14 655.98 -80 56.96100000000001 0.5 0 -0.8660000000000001 0 1 0 0.8660000000000001 0 0.5 30237.dat
1 14 604.02 -80 86.96100000000001 -0.5 0 0.8660000000000001 0 1 0 -0.8660000000000001 0 -0.5 30237.dat
1 7 630 -64 71.96100000000001 -0.8660000000000001 0 -0.5 0 1 0 0.5 0 -0.8660000000000001 3176.dat
1 7 630 -72 71.96100000000001 -0.8660000000000001 0 -0.5 0 1 0 0.5 0 -0.8660000000000001 3176.dat
1 14 630 -80 71.96100000000001 0.5 0 -0.8660000000000001 0 1 0 0.8660000000000001 0 0.5 3022.dat
1 14 610.98 -80 -20.979 0.8660000000000001 0 0.5 0 1 0 -0.5 0 0.8660000000000001 4070.dat
1 14 559.02 -80 9.021 0.8660000000000001 0 0.5 0 1 0 -0.5 0 0.8660000000000001 4070.dat
1 0 645 -85 97.941 -0.8660000000000001 0.5 0 0 0 1 0.5 0.8660000000000001 0 41532.dat
1 7 595 -56.00000000000001 11.341000000000008 0.8660000000000001 0 0.5 0 1 0 -0.5 0 0.8660000000000001 3829c01.dat
1 14 620.98 -80 -3.6589999999999923 0.8660000000000001 0 0.5 0 1 0 -0.5 0 0.8660000000000001 3822.dat
1 14 569.02 -80 26.341000000000008 0.8660000000000001 0 0.5 0 1 0 -0.5 0 0.8660000000000001 3821.dat
1 7 635 -128 80.62100000000001 -0.8660000000000001 0 -0.5 0 1 0 0.5 0 -0.8660000000000001 4083.dat
1 0 585 -80 -5.979 0.8660000000000001 0 0.5 0 1 0 -0.5 0 0.8660000000000001 4175.dat
1 46 603.98 -70 -33.102999999999994 0.8660000000000001 0.5 0 0 0 -1 -0.5 0.8660000000000001 0 6141.dat
1 46 552.02 -70 -3.1029999999999944 0.8660000000000001 0.5 0 0 0 -1 -0.5 0.8660000000000001 0 6141.dat
1 14 625 -104 63.30100000000001 -0.8660000000000001 0 -0.5 0 1 0 0.5 0 -0.8660000000000001 3010.dat
1 8 673.3 -72 46.961000000000006 -0.8660000000000001 0 -0.5 0 1 0 0.5 0 -0.8660000000000001 30194.dat
1 8 586.7 -112.00000000000001 96.96100000000001 -0.5 0 0.8660000000000001 0 1 0 -0.8660000000000001 0 -0.5 30228.dat
1 0 626.34 -152 85.62100000000001 0.5 0 -0.8660000000000001 0 1 0 0.8660000000000001 0 0.5 4522.dat
1 0 643.66 -144 75.62100000000001 -0.9999560000000001 0 0 0 1 0 0 0 -0.9999560000000001 4006.dat
1 7 680 -114 158.561 0.5 0 -0.8660000000000001 0 1 0 0.8660000000000001 0 0.5 30388.dat
1 0 730.5 -98 246.027 0.8660000000000001 0 0.5 0 1 0 -0.5 0 0.8660000000000001 3021.dat
1 46 747.8200000000002 -106.00000000000001 236.027 -0.5 0 0.8660000000000001 0 1 0 -0.8660000000000001 0 -0.5 3023.dat
1 46 713.18 -106.00000000000001 256.027 -0.5 0 0.8660000000000001 0 1 0 -0.8660000000000001 0 -0.5 3023.dat
1 8 730.5 -106.00000000000001 246.027 -0.5 0 0.8660000000000001 0 1 0 -0.8660000000000001 0 -0.5 44302.dat
1 0 715.5 -157 220.047 -0.8660000000000001 0 -0.5 0 1 0 0.5 0 -0.8660000000000001 2424.dat
1 40 595 -128 11.341000000000008 0.8660000000000001 0 0.5 0 1 0 -0.5 0 0.8660000000000001 3823.dat
1 0 625 -136 63.30100000000001 -0.8660000000000001 0 -0.5 0 1 0 0.5 0 -0.8660000000000001 2412b.dat
1 14 625 -128 63.30100000000001 -0.8660000000000001 0 -0.5 0 1 0 0.5 0 -0.8660000000000001 3010.dat
1 14 625 -144 63.30100000000001 0.8660000000000001 0 0.5 0 1 0 -0.5 0 0.8660000000000001 45677.dat
1 7 709.166 -26 107.08100000000002 0.5 0 -0.8660000000000001 0 1 0 0.8660000000000001 0 0.5 6014.dat
1 0 714.362 -26 104.08100000000002 0.5 0 -0.8660000000000001 0 1 0 0.8660000000000001 0 0.5 6015.dat
1 7 659.166 -26 20.481000000000012 0.5 0 -0.8660000000000001 0 1 0 0.8660000000000001 0 0.5 6014.dat
1 0 664.362 -26 17.48100000000001 0.5 0 -0.8660000000000001 0 1 0 0.8660000000000001 0 0.5 6015.dat
1 7 570.8340000000001 -26 71.48100000000001 -0.5 0 0.8660000000000001 0 1 0 -0.8660000000000001 0 -0.5 6014.dat
1 0 565.638 -26 74.48100000000001 -0.5 0 0.8660000000000001 0 1 0 -0.8660000000000001 0 -0.5 6015.dat
1 7 620.8340000000001 -26 158.08100000000002 -0.5 0 0.8660000000000001 0 1 0 -0.8660000000000001 0 -0.5 6014.dat
1 0 615.638 -26 161.08100000000005 -0.5 0 0.8660000000000001 0 1 0 -0.8660000000000001 0 -0.5 6015.dat
1 46 625 -160 63.30100000000001 0.8660000000000001 0 0.5 0 1 0 -0.5 0 0.8660000000000001 40996.dat
1 0 625 -168 63.30100000000001 0.8660000000000001 0 0.5 0 1 0 -0.5 0 0.8660000000000001 2412b.dat
1 14 570 -96.00000000000001 -110 1 0 0 0 1 0 0 0 1 3626bp01.dat
1 25 570 -72 -110 1 0 0 0 1 0 0 0 1 973.dat
1 1 570 -40 -110 1 0 0 0 1 0 0 0 1 3815.dat
1 1 585.5 -64 -110 1 0.17 0 -0.17 1 0 0 0 1 3819.dat
1 1 554.5 -64 -110 1 -0.17 0 0.17 1 0 0 0 1 3818.dat
1 14 593.6580000000001 -46.127 -120 1 0.12 -0.12 -0.17 0.697 -0.697 0 0.707 0.707 3820.dat
1 14 546.342 -46.127 -120 1 -0.12 0.12 0.17 0.697 -0.697 0 0.707 0.707 3820.dat
1 1 570 -28.000000000000004 -110 1 0 0 0 1 0 0 0 1 3817.dat
1 1 570 -28.000000000000004 -110 1 0 0 0 1 0 0 0 1 3816.dat
1 4 570 -96.00000000000001 -110 1 0 0 0 1 0 0 0 1 3833.dat
1 14 500 -96.00000000000001 -250 0.5 0 -0.8660000000000001 0 1 0 0.8660000000000001 0 0.5 3626bp0e.dat
1 272 500 -72 -250 0.5 0 -0.8660000000000001 0 1 0 0.8660000000000001 0 0.5 973.dat
1 272 500 -40 -250 0.5 0 -0.8660000000000001 0 1 0 0.8660000000000001 0 0.5 3815.dat
1 15 507.75000000000006 -64 -236.57700000000003 0.5 0.085 -0.8660000000000001 -0.17 1 0 0.8660000000000001 0.14722000000000002 0.5 3819.dat
1 15 492.25 -64 -263.423 0.5 -0.085 -0.8660000000000001 0.17 1 0 0.8660000000000001 -0.14722000000000002 0.5 3818.dat
1 14 520.489 -46.127 -234.51217200000002 0.5 -0.552262 -0.672262 -0.17 0.697 -0.697 0.8660000000000001 0.45742000000000005 0.24957999999999997 3820.dat
1 14 496.831 -46.127 -275.487828 0.5 -0.672262 -0.552262 0.17 0.697 -0.697 0.8660000000000001 0.24957999999999997 0.45742000000000005 3820.dat
1 272 500 -28.000000000000004 -250 0.5 0 -0.8660000000000001 0 1 0 0.8660000000000001 0 0.5 3817.dat
1 272 500 -28.000000000000004 -250 0.5 0 -0.8660000000000001 0 1 0 0.8660000000000001 0 0.5 3816.dat
1 320 498.268 -96.00000000000001 -249.00000000000003 0.5 0 -0.8660000000000001 0 1 0 0.8660000000000001 0 0.5 3624.dat
1 72 503.69801 -40.553 -280.56342 0.5 -0.672262 -0.552262 0.17 0.697 -0.697 0.8660000000000001 0.24957999999999997 0.45742000000000005 3962b.dat
1 14 549.4988820000001 -36.372 -249.318194 0.5 -0.552262 -0.672262 -0.17 0.697 -0.697 0.8660000000000001 0.45742000000000005 0.24957999999999997 3899.dat
