1 2 0 0 0 1 0 0 0 1 0 0 0 1 2361p03.dat
1 2 640 0 0 -1 0 0 0 1 0 0 0 -1 2360p02.dat
1 2 640 0 640 -1 0 0 0 1 0 0 0 -1 2358p04.dat
1 2 320 -8 -300 -1 0 0 0 1 0 0 0 -1 3022.dat
1 2 540 -8 -300 -1 0 0 0 1 0 0 0 -1 3832.dat
1 2 740 -8 -300 -1 0 0 0 1 0 0 0 -1 3832.dat
1 2 640 -16 -300 -1 0 0 0 1 0 0 0 -1 3022.dat
1 2 940 -8 320 -1 0 0 0 1 0 0 0 -1 3022.dat
1 2 940 -8 960 -1 0 0 0 1 0 0 0 -1 3022.dat
1 2 640 0 1280 -1 0 0 0 1 0 0 0 -1 2358p04.dat
1 2 340 -8 960 -1 0 0 0 1 0 0 0 -1 3022.dat
1 2 320 -8 320 -1 0 0 0 1 0 0 0 -1 3022.dat
1 2 -300 -8 320 -1 0 0 0 1 0 0 0 -1 3022.dat
1 2 540 -8 1580 -1 0 0 0 1 0 0 0 -1 3832.dat
1 2 740 -8 1580 -1 0 0 0 1 0 0 0 -1 3832.dat
1 2 640 -16 1580 -1 0 0 0 1 0 0 0 -1 3022.dat
1 15 630 -24.000000000000004 -310 -1 0 0 0 1 0 0 0 -1 6141.dat
1 46 630 -32 -310 -1 0 0 0 1 0 0 0 -1 6141.dat
1 15 650 -24.000000000000004 -310 -1 0 0 0 1 0 0 0 -1 6141.dat
1 46 650 -32 -310 -1 0 0 0 1 0 0 0 -1 6141.dat
1 15 550 -16 -310 -1 0 0 0 1 0 0 0 -1 6141.dat
1 36 550 -24.000000000000004 -310 -1 0 0 0 1 0 0 0 -1 6141.dat
1 15 190 -8 -250 -1 0 0 0 1 0 0 0 -1 6141.dat
1 33 190 -16 -250 -1 0 0 0 1 0 0 0 -1 6141.dat
1 15 250 -8 -190 -1 0 0 0 1 0 0 0 -1 6141.dat
1 33 250 -16 -190 -1 0 0 0 1 0 0 0 -1 6141.dat
1 15 490 -16 -310 -1 0 0 0 1 0 0 0 -1 6141.dat
1 36 490 -24.000000000000004 -310 -1 0 0 0 1 0 0 0 -1 6141.dat
1 15 730 -16 -310 -1 0 0 0 1 0 0 0 -1 6141.dat
1 36 730 -24.000000000000004 -310 -1 0 0 0 1 0 0 0 -1 6141.dat
1 15 790 -16 -310 -1 0 0 0 1 0 0 0 -1 6141.dat
1 36 790 -24.000000000000004 -310 -1 0 0 0 1 0 0 0 -1 6141.dat
1 15 250 -8 190 -1 0 0 0 1 0 0 0 -1 6141.dat
1 33 250 -16 190 -1 0 0 0 1 0 0 0 -1 6141.dat
1 15 190 -8 250 -1 0 0 0 1 0 0 0 -1 6141.dat
1 33 190 -16 250 -1 0 0 0 1 0 0 0 -1 6141.dat
1 15 -190 -8 250 -1 0 0 0 1 0 0 0 -1 6141.dat
1 33 -190 -16 250 -1 0 0 0 1 0 0 0 -1 6141.dat
1 15 -250 -8 190 -1 0 0 0 1 0 0 0 -1 6141.dat
1 33 -250 -16 190 -1 0 0 0 1 0 0 0 -1 6141.dat
1 15 -250 -8 -190 -1 0 0 0 1 0 0 0 -1 6141.dat
1 33 -250 -16 -190 -1 0 0 0 1 0 0 0 -1 6141.dat
1 15 -190 -8 -250 -1 0 0 0 1 0 0 0 -1 6141.dat
1 33 -190 -16 -250 -1 0 0 0 1 0 0 0 -1 6141.dat
1 15 450 -8 190 -1 0 0 0 1 0 0 0 -1 6141.dat
1 47 450 -16 190 -1 0 0 0 1 0 0 0 -1 6141.dat
1 15 830 -8 190 -1 0 0 0 1 0 0 0 -1 6141.dat
1 47 830 -16 190 -1 0 0 0 1 0 0 0 -1 6141.dat
1 15 450 -8 550 -1 0 0 0 1 0 0 0 -1 6141.dat
1 47 450 -16 550 -1 0 0 0 1 0 0 0 -1 6141.dat
1 15 830 -8 550 -1 0 0 0 1 0 0 0 -1 6141.dat
1 47 830 -16 550 -1 0 0 0 1 0 0 0 -1 6141.dat
1 15 450 -8 810 -1 0 0 0 1 0 0 0 -1 6141.dat
1 47 450 -16 810 -1 0 0 0 1 0 0 0 -1 6141.dat
1 15 830 -8 810 -1 0 0 0 1 0 0 0 -1 6141.dat
1 47 830 -16 810 -1 0 0 0 1 0 0 0 -1 6141.dat
1 15 450 -8 1090 -1 0 0 0 1 0 0 0 -1 6141.dat
1 47 450 -16 1090 -1 0 0 0 1 0 0 0 -1 6141.dat
1 15 830 -8 1090 -1 0 0 0 1 0 0 0 -1 6141.dat
1 47 830 -16 1090 -1 0 0 0 1 0 0 0 -1 6141.dat
1 15 450 -8 1350 -1 0 0 0 1 0 0 0 -1 6141.dat
1 47 450 -16 1350 -1 0 0 0 1 0 0 0 -1 6141.dat
1 15 830 -8 1350 -1 0 0 0 1 0 0 0 -1 6141.dat
1 47 830 -16 1350 -1 0 0 0 1 0 0 0 -1 6141.dat
1 15 490 -16 1590 -1 0 0 0 1 0 0 0 -1 6141.dat
1 36 490 -24.000000000000004 1590 -1 0 0 0 1 0 0 0 -1 6141.dat
1 15 550 -16 1590 -1 0 0 0 1 0 0 0 -1 6141.dat
1 36 550 -24.000000000000004 1590 -1 0 0 0 1 0 0 0 -1 6141.dat
1 15 630 -24.000000000000004 1590 -1 0 0 0 1 0 0 0 -1 6141.dat
1 46 630 -32 1590 -1 0 0 0 1 0 0 0 -1 6141.dat
1 15 650 -24.000000000000004 1590 -1 0 0 0 1 0 0 0 -1 6141.dat
1 46 650 -32 1590 -1 0 0 0 1 0 0 0 -1 6141.dat
1 15 730 -16 1590 -1 0 0 0 1 0 0 0 -1 6141.dat
1 36 730 -24.000000000000004 1590 -1 0 0 0 1 0 0 0 -1 6141.dat
1 15 790 -16 1590 -1 0 0 0 1 0 0 0 -1 6141.dat
1 36 790 -24.000000000000004 1590 -1 0 0 0 1 0 0 0 -1 6141.dat
1 15 380 -48.00000000000001 1340 -1 0 0 0 1 0 0 0 -1 3942b.dat
1 4 380 -72 1340 -1 0 0 0 1 0 0 0 -1 4589.dat
1 15 382 -110 1340 0 -1 0 0 0 -1 1 0 0 3900.dat
1 36 390 -110 1340 0 -1 0 0 0 -1 1 0 0 6141.dat
1 15 432 -110 1338 0 -1 0 0 0 -1 1 0 0 3942bp01.dat
1 36 -166.417 -144 157.629 1 0 0.208 0 1 0 -0.208 0 1 6141.dat
1 2 0 0 480 1 0 0 0 1 0 0 0 1 3857.dat
1 4 -30 -24.000000000000004 620 0 0 -1 0 1 0 1 0 0 3004.dat
1 4 30 -24.000000000000004 620 0 0 -1 0 1 0 1 0 0 3004.dat
1 15 90 -24.000000000000004 490 1 0 0 0 1 0 0 0 1 3622.dat
1 7 -240 -24.000000000000004 490 -1 0 0 0 1 0 0 0 -1 3010.dat
1 15 140 -24.000000000000004 530 0 0 -1 0 1 0 1 0 0 3002.dat
1 14 -200 -24.000000000000004 560 -1 0 0 0 1 0 0 0 -1 3001.dat
1 7 -120 -24.000000000000004 490 -1 0 0 0 1 0 0 0 -1 3008.dat
1 15 190 -24.000000000000004 490 1 0 0 0 1 0 0 0 1 3622.dat
1 0 180 -8 570 -1 0 0 0 1 0 0 0 -1 3069b.dat
1 15 180 -38 564 1 0 0 0 0 1 0 -1 0 3069bp08.dat
1 4 30 -96.00000000000001 620 0 0 1 0 1 0 -1 0 0 2362a.dat
1 4 -30 -96.00000000000001 620 0 0 -1 0 1 0 1 0 0 2362a.dat
1 0 180 -24.000000000000004 550 -1 0 0 0 1 0 0 0 -1 3004.dat
1 0 190 -48.00000000000001 550 -1 0 0 0 1 0 0 0 -1 4070.dat
1 0 170 -48.00000000000001 550 -1 0 0 0 1 0 0 0 -1 4070.dat
1 15 140 -24.000000000000004 490 1 0 0 0 1 0 0 0 1 3747a.dat
1 15 210 -120 630 1 0 0 0 1 0 0 0 1 2453a.dat
1 15 310 -120 620 0 0 -1 0 1 0 1 0 0 2454.dat
1 15 310 -120 500 0 0 -1 0 1 0 1 0 0 2454.dat
1 14 130 -48.00000000000001 460 0 0 -1 0 1 0 1 0 0 4865a.dat
1 14 130 -48.00000000000001 500 0 0 -1 0 1 0 1 0 0 4865a.dat
1 14 130 -48.00000000000001 540 0 0 -1 0 1 0 1 0 0 4865a.dat
1 14 150 -48.00000000000001 540 0 0 1 0 1 0 -1 0 0 4865a.dat
1 14 150 -48.00000000000001 500 0 0 1 0 1 0 -1 0 0 4865a.dat
1 14 150 -48.00000000000001 460 0 0 1 0 1 0 -1 0 0 4865a.dat
1 15 90 -48.00000000000001 490 1 0 0 0 1 0 0 0 1 3622.dat
1 15 190 -48.00000000000001 490 1 0 0 0 1 0 0 0 1 3622.dat
1 4 30 -120 620 0 0 -1 0 1 0 1 0 0 3004.dat
1 4 -30 -120 620 0 0 -1 0 1 0 1 0 0 3004.dat
1 14 -80 -8 600 0 0 1 0 1 0 -1 0 0 4079.dat
1 15 80 -72 490 1 0 0 0 1 0 0 0 1 3004.dat
1 15 200 -72 490 1 0 0 0 1 0 0 0 1 3004.dat
1 4 0 -128 620 1 0 0 0 1 0 0 0 1 3020.dat
1 15 110 -96.00000000000001 490 1 0 0 0 1 0 0 0 1 3581.dat
1 15 170 -96.00000000000001 490 1 0 0 0 1 0 0 0 1 3581.dat
1 4 110 -96.00000000000001 478.00000000000006 0 0 -1 0 1 0 1 0 0 3582.dat
1 4 170 -96.00000000000001 478.00000000000006 0 0 1 0 1 0 -1 0 0 3582.dat
1 14 -220 -72 560 -1 0 0 0 1 0 0 0 -1 4345a.dat
1 14 -180 -72 560 -1 0 0 0 1 0 0 0 -1 4345a.dat
1 15 140 -120 490 -1 0 0 0 1 0 0 0 -1 3008.dat
1 4 0 -136 630 -1 0 0 0 1 0 0 0 -1 2436a.dat
1 4 0 -136 610 -1 0 0 0 1 0 0 0 -1 3710.dat
1 34 -10 -126.00000000000001 652 -1 0 0 0 0 -1 0 -1 0 6141.dat
1 36 10 -126.00000000000001 652 -1 0 0 0 0 -1 0 -1 0 6141.dat
1 15 -30 -120 510 0 0 1 0 1 0 -1 0 0 3755.dat
1 15 40 -144 490 -1 0 0 0 1 0 0 0 -1 3008.dat
1 15 240 -144 490 -1 0 0 0 1 0 0 0 -1 3008.dat
1 15 260 -144 630 -1 0 0 0 1 0 0 0 -1 3067a.dat
1 15 310 -144 560 0 0 1 0 1 0 -1 0 0 3067a.dat
1 15 140 -144 490 -1 0 0 0 1 0 0 0 -1 3747a.dat
1 15 -30 -144 520 0 0 -1 0 1 0 1 0 0 3747a.dat
1 15 -290 -120 500 0 0 -1 0 1 0 1 0 0 2454.dat
1 15 -290 -120 620 0 0 -1 0 1 0 1 0 0 2454.dat
1 4 0 -144 620 1 0 0 0 1 0 0 0 1 3020.dat
1 15 -290 -144 560 0 0 1 0 1 0 -1 0 0 3008.dat
1 15 10 -144 440 0 0 1 0 1 0 -1 0 0 2571.dat
1 15 250 -144 440 0 0 1 0 1 0 -1 0 0 2571.dat
1 15 270 -144 440 0 0 -1 0 1 0 1 0 0 2571.dat
1 15 30 -144 440 0 0 -1 0 1 0 1 0 0 2571.dat
1 7 -10 -152 560 0 0 -1 0 1 0 1 0 0 3460.dat
1 7 300 -152 500 0 0 -1 0 1 0 1 0 0 3022.dat
1 7 140 -152 500 1 0 0 0 1 0 0 0 1 3832.dat
1 7 160 -152 580 1 0 0 0 1 0 0 0 1 3027.dat
1 7 20 -152 490 0 0 -1 0 1 0 1 0 0 3021.dat
1 7 260 -152 490 0 0 -1 0 1 0 1 0 0 3021.dat
1 15 -290 -168 560 0 0 1 0 1 0 -1 0 0 3008.dat
1 15 -30 -168 560 0 0 1 0 1 0 -1 0 0 3008.dat
1 15 -30 -192.00000000000003 560 0 0 1 0 1 0 -1 0 0 3008.dat
1 15 -290 -192.00000000000003 560 0 0 1 0 1 0 -1 0 0 3008.dat
1 7 20 -152 440 0 0 1 0 1 0 -1 0 0 3022.dat
1 7 260 -152 440 0 0 1 0 1 0 -1 0 0 3022.dat
1 7 260 -152 410 1 0 0 0 1 0 0 0 1 2436a.dat
1 7 20 -152 410 1 0 0 0 1 0 0 0 1 2436a.dat
1 14 40 -160 600 1 0 0 0 1 0 0 0 1 4079.dat
1 14 100 -160 600 1 0 0 0 1 0 0 0 1 4079.dat
1 7 260 -176 610 1 0 0 0 1 0 0 0 1 3010.dat
1 7 260 -176 550 1 0 0 0 1 0 0 0 1 3010.dat
1 7 260 -200 550 1 0 0 0 1 0 0 0 1 3010.dat
1 7 260 -224.00000000000003 550 1 0 0 0 1 0 0 0 1 3010.dat
1 7 260 -200 610 1 0 0 0 1 0 0 0 1 3010.dat
1 7 260 -224.00000000000003 610 1 0 0 0 1 0 0 0 1 3010.dat
1 7 230 -248 610 1 0 0 0 1 0 0 0 1 3005.dat
1 7 290 -248 610 1 0 0 0 1 0 0 0 1 3005.dat
1 7 290 -248 550 1 0 0 0 1 0 0 0 1 3005.dat
1 7 230 -248 550 1 0 0 0 1 0 0 0 1 3005.dat
1 7 260 -248 580 0 0 -1 0 1 0 1 0 0 3001.dat
1 15 -290 -216 510 0 0 -1 0 1 0 1 0 0 3622.dat
1 15 -290 -216 560 0 0 -1 0 1 0 1 0 0 3004.dat
1 15 -290 -216 620 0 0 -1 0 1 0 1 0 0 3004.dat
1 15 -30 -216 620 0 0 -1 0 1 0 1 0 0 3004.dat
1 15 -30 -216 560 0 0 -1 0 1 0 1 0 0 3004.dat
1 15 -30 -216 510 0 0 -1 0 1 0 1 0 0 3622.dat
1 14 -30 -200 590 0 0 -1 0 1 0 1 0 0 3024.dat
1 14 -290 -200 590 0 0 -1 0 1 0 1 0 0 3024.dat
1 14 -30 -208 590 0 0 -1 0 1 0 1 0 0 4081b.dat
1 14 -290 -208 590 0 0 1 0 1 0 -1 0 0 4081b.dat
1 46 -310 -206 578 0 0 1 1 0 0 0 1 0 6141.dat
1 46 -10 -206 578 0 0 1 1 0 0 0 1 0 6141.dat
1 14 0 -142 388.00000000000006 1 0 0 0 0 -1 0 1 0 3069b.dat
1 14 240 -142 388.00000000000006 1 0 0 0 0 -1 0 1 0 3069b.dat
1 14 290 -142 388.00000000000006 1 0 0 0 0 -1 0 1 0 3070b.dat
1 14 50 -142 388.00000000000006 1 0 0 0 0 -1 0 1 0 3070b.dat
1 14 30 -142 388.00000000000006 1 0 0 0 0 -1 0 1 0 3070bp01.dat
1 14 270 -142 388.00000000000006 1 0 0 0 0 -1 0 1 0 3070bp02.dat
1 15 -30 -240 620 0 0 -1 0 1 0 1 0 0 3004.dat
1 15 -290 -240 620 0 0 -1 0 1 0 1 0 0 3004.dat
1 15 -160 -232.00000000000003 590 1 0 0 0 1 0 0 0 1 4217.dat
1 7 260 -328.00000000000006 580 1 0 0 0 1 0 0 0 1 3031.dat
1 7 290 -352 610 0 0 -1 0 1 0 1 0 0 3665a.dat
1 7 230 -352 610 0 0 1 0 1 0 -1 0 0 3665a.dat
1 7 230 -352 550 0 0 1 0 1 0 -1 0 0 3676.dat
1 7 290 -352 550 1 0 0 0 1 0 0 0 1 3676.dat
1 7 260 -352 550 1 0 0 0 1 0 0 0 1 3660.dat
1 7 290 -352 580 0 0 -1 0 1 0 1 0 0 3660.dat
1 7 230 -352 580 0 0 1 0 1 0 -1 0 0 3660.dat
1 0 230 -376 550 -1 0 0 0 1 0 0 0 -1 3040p33.dat
1 36 250 -360 550 -1 0 0 0 1 0 0 0 -1 6141.dat
1 34 230 -384.00000000000006 550 -1 0 0 0 1 0 0 0 -1 6141.dat
1 34 290 -360 570 -1 0 0 0 1 0 0 0 -1 6141.dat
1 15 280 -360 550 -1 0 0 0 1 0 0 0 -1 3069bp25.dat
1 14 260 -336 580 1 0 0 0 1 0 0 0 1 4079.dat
1 43 240 -488.00000000000006 530 1 0 0 0 1 0 0 0 1 2466.dat
1 43 280 -488.00000000000006 530 1 0 0 0 1 0 0 0 1 2466.dat
1 43 310 -488.00000000000006 560 0 0 -1 0 1 0 1 0 0 2466.dat
1 43 310 -488.00000000000006 600 0 0 -1 0 1 0 1 0 0 2466.dat
1 43 210 -488.00000000000006 600 0 0 1 0 1 0 -1 0 0 2466.dat
1 43 210 -488.00000000000006 560 0 0 1 0 1 0 -1 0 0 2466.dat
1 43 210 -488.00000000000006 530 0 0 1 0 1 0 -1 0 0 2468.dat
1 43 310 -488.00000000000006 530 1 0 0 0 1 0 0 0 1 2468.dat
1 7 260 -496 610 1 0 0 0 1 0 0 0 1 3666.dat
1 7 260 -496 560 1 0 0 0 1 0 0 0 1 3032.dat
1 43 -220 -240 580 1 0 0 0 1 0 0 0 1 2572.dat
1 43 -100 -240 580 1 0 0 0 1 0 0 0 1 2572.dat
1 15 -30 -240 550 0 0 -1 0 1 0 1 0 0 3622.dat
1 15 -290 -240 550 0 0 -1 0 1 0 1 0 0 3622.dat
1 15 -30 -240 500 0 0 -1 0 1 0 1 0 0 3004.dat
1 15 -290 -240 500 0 0 -1 0 1 0 1 0 0 3004.dat
1 15 -30 -240 590 0 0 -1 0 1 0 1 0 0 3024.dat
1 15 -290 -240 590 0 0 -1 0 1 0 1 0 0 3024.dat
1 7 -290 -248 520 0 0 -1 0 1 0 1 0 0 3710.dat
1 7 -30 -248 520 0 0 -1 0 1 0 1 0 0 3710.dat
1 7 -260 -248 600 0 0 -1 0 1 0 1 0 0 3031.dat
1 7 -60 -248 600 0 0 -1 0 1 0 1 0 0 3031.dat
1 7 -160 -248 600 -1 0 0 0 1 0 0 0 -1 3032.dat
1 4 240 -504.00000000000006 560 -1 0 0 0 1 0 0 0 -1 3680.dat
1 7 240 -504.00000000000006 560 -0.656 0 -0.7550000000000001 0 1 0 0.7550000000000001 0 -0.656 3679.dat
1 7 232.453 -528 553.439 0.656 0 0.7550000000000001 0 1 0 -0.7550000000000001 0 0.656 3937.dat
1 0 227.11600000000004 -525.0710000000001 548.8 0.656 0.534 0.534 0 0.707 -0.707 -0.7550000000000001 0.464 0.464 3938.dat
1 7 228.183 -537.799 549.728 0.656 0.534 0.534 0 0.707 -0.707 -0.7550000000000001 0.464 0.464 3020.dat
1 0 205.457 -536.385 556.472 0.656 0.534 0.534 0 0.707 -0.707 -0.7550000000000001 0.464 0.464 2412a.dat
1 0 231.699 -536.385 526.284 0.656 0.534 0.534 0 0.707 -0.707 -0.7550000000000001 0.464 0.464 2412a.dat
1 0 242.37300000000002 -550.527 535.562 0.656 0.534 0.534 0 0.707 -0.707 -0.7550000000000001 0.464 0.464 2412a.dat
1 0 216.13 -550.527 565.75 0.656 0.534 0.534 0 0.707 -0.707 -0.7550000000000001 0.464 0.464 2412a.dat
1 0 290 -504.00000000000006 590 1 0 0 0 1 0 0 0 1 3957a.dat
1 15 -110 -272 610 -0.7550000000000001 0 0.656 0 1 0 -0.656 0 -0.7550000000000001 10159 - 3596s99.dat
1 15 -210 -272 610 -0.7550000000000001 0 0.656 0 1 0 -0.656 0 -0.7550000000000001 10159 - 3596s99.dat
1 14 60 -224.00000000000003 490 1 0 0 0 1 0 0 0 1 2583.dat
1 14 240 -224.00000000000003 490 1 0 0 0 1 0 0 0 1 2583.dat
1 2 -90 -16 430 1 0 0 0 1 0 0 0 1 3741.dat
1 2 -170 -16 430 0.707 0 -0.707 0 1 0 0.707 0 0.707 3741.dat
1 4 -175.701 -39.80800000000001 408.76300000000003 0.6820000000000002 0.12 -0.722 -0.399 0.888 -0.22900000000000004 0.613 0.444 0.6530000000000001 3742.dat
1 4 -109 -39.80800000000001 419.00000000000006 0.9160000000000001 0.399 0 -0.399 0.888 -0.22900000000000004 0 0.22900000000000004 1 3742.dat
1 4 -146 -44.468 436.205 0.547 -0.43700000000000006 -0.7140000000000001 0.359 0.893 -0.271 0.756 -0.109 0.645 3742.dat
1 4 -68.635 -44.468 417.4100000000001 0.9210000000000002 -0.386 0 0.359 0.893 -0.271 0.14800000000000002 0.232 1 3742.dat
1 4 -90 -36.522 450.91100000000006 1 0 -0.194 0.08 0.9100000000000001 0.40700000000000003 0.17600000000000002 -0.41500000000000004 0.893 3742.dat
1 4 -184.787 -36.522 444.78700000000003 0.569 0.293 -0.768 0.08 0.9100000000000001 0.40700000000000003 0.818 -0.293 0.494 3742.dat
1 15 80 -96.00000000000001 490 -1 0 0 0 1 0 0 0 -1 3004.dat
1 15 80 -84 500 -1 0 0 0 0 -1 0 -1 0 10159 - 163156d.dat
1 15 200 -84 500 -1 0 0 0 0 -1 0 -1 0 10159 - 163156c.dat
1 15 200 -96.00000000000001 490 -1 0 0 0 1 0 0 0 -1 3004.dat
1 7 260 -296 550 1 0 0 0 1 0 0 0 1 3010.dat
1 7 260 -320 550 1 0 0 0 1 0 0 0 1 3010.dat
1 7 260 -272 550 1 0 0 0 1 0 0 0 1 3010.dat
1 7 260 -272 610 1 0 0 0 1 0 0 0 1 3010.dat
1 7 260 -296 610 1 0 0 0 1 0 0 0 1 3010.dat
1 7 260 -320 610 1 0 0 0 1 0 0 0 1 3010.dat
1 7 260 -284 620 -1 0 0 0 0 -1 0 -1 0 10159 - 163155b.dat
1 7 260 -284 540 1 0 0 0 0 -1 0 1 0 10159 - 163155b.dat
1 4 -200 -144 550 -1 0 0 0 1 0 0 0 -1 4215a.dat
1 0 -180 -72 560 -1 0 0 0 1 0 0 0 -1 4346.dat
1 0 -180 -46.00000000000001 591 -1 0 0 0 0 -1 0 -1 0 10159 - 163156a.dat
1 0 -220 -46.00000000000001 591 -1 0 0 0 0 -1 0 -1 0 10159 - 163156b.dat
1 0 -220 -72 560 -1 0 0 0 1 0 0 0 -1 4346.dat
1 6 -260 -8 380 1 0 0 0 1 0 0 0 1 2563.dat
1 6 -260 -43.66 382.59000000000003 1 0 0 0 1 0.259 0 -0.259 1 2536.dat
1 6 -260 -78.706 390.52400000000006 1 0 0 0 1 0.12 0 -0.12 1 2536.dat
1 6 -260 -114.728 392.30000000000007 1 0 0 0 1 0 0 0 1 2536.dat
1 6 -260 -150.496 392.48 1 0 0 0 1 -0.12 0 0.12 1 2536.dat
1 6 -260 -185.932 387.36400000000003 1 0 0 0 1 -0.259 0 0.259 1 2536.dat
1 6 -260 -220.29 377.54600000000005 1 0 0 0 0.9200000000000002 -0.393 0 0.393 0.9200000000000002 2536.dat
1 6 -260 -257.252 362.6600000000001 0.707 0 0.707 -0.278 0.9200000000000002 0.278 0.65 0.393 -0.65 2566.dat
1 2 -267.07 -267.668 366.82000000000005 -0.707 0 0.707 0.278 0.9200000000000002 0.278 -0.65 0.393 -0.65 2518.dat
1 2 -252.93000000000004 -262.108 353.82 0.707 0 0.707 -0.278 0.9200000000000002 0.278 0.65 0.393 -0.65 2518.dat
1 2 -267.07 -269.468 350.676 0.707 0 0.707 0.278 0.9200000000000002 -0.278 -0.65 0.393 0.65 2518.dat
1 2 -252.93000000000004 -275 363.67600000000004 -0.707 0 0.707 -0.278 0.9200000000000002 -0.278 0.65 0.393 0.65 2518.dat
1 2 -260 -279.608 354 0.707 0 0.707 -0.278 0.9200000000000002 0.278 0.65 0.393 -0.65 4032a.dat
1 2 -260 -301.688 344.6 0.707 0 0.707 -0.278 0.9200000000000002 0.278 0.65 0.393 -0.65 3062b.dat
1 4 -200 -110 544 -1 0 0 0 0 -1 0 -1 0 10159 - 163155a.dat
1 4 -200 -110 540 1 0 0 0 0 -1 0 1 0 10159 - 163155a.dat
1 4 690 -78 390 -1 0 0 0 1 0 0 0 -1 4855.dat
1 4 690 -78 90 1 0 0 0 1 0 0 0 1 4855.dat
1 4 690 -78 340 0 0 1 0 1 0 -1 0 0 4854.dat
1 4 690 -78 260 0 0 1 0 1 0 -1 0 0 4854.dat
1 4 690 -78 180 0 0 1 0 1 0 -1 0 0 4854.dat
1 15 690 -78 80 0 0 1 0 1 0 -1 0 0 3022.dat
1 15 690 -94 400 0 0 1 0 1 0 -1 0 0 3003.dat
1 4 690 -94 310 1 0 0 0 1 0 0 0 1 4865a.dat
1 15 660 -86 300 0 0 -1 0 1 0 1 0 0 4477.dat
1 15 720 -86 300 0 0 -1 0 1 0 1 0 0 4477.dat
1 15 690 -86 440 -1 0 0 0 1 0 0 0 -1 4859.dat
1 15 550 -86 130 -1 0 0 0 1 0 0 0 -1 3586.dat
1 15 830 -86 130 -1 0 0 0 1 0 0 0 -1 3585.dat
1 15 690 -102.00000000000001 30 -1 0 0 0 1 0 0 0 -1 4856.dat
1 1 720 -94 120 0 0 1 0 1 0 -1 0 0 3069b.dat
1 1 720 -94 220 0 0 1 0 1 0 -1 0 0 4162.dat
1 1 720 -94 90 0 0 1 0 1 0 -1 0 0 3024.dat
1 1 720 -94 380 0 0 1 0 1 0 -1 0 0 3023.dat
1 1 720 -94 330 0 0 1 0 1 0 -1 0 0 3623.dat
1 1 660 -94 340 0 0 1 0 1 0 -1 0 0 3666.dat
1 1 660 -94 180 0 0 1 0 1 0 -1 0 0 4477.dat
1 1 690 -94 440 -1 0 0 0 1 0 0 0 -1 4859.dat
1 4 690 -94 70 1 0 0 0 1 0 0 0 1 3023.dat
1 15 660 -126.00000000000001 50 0 0 -1 0 1 0 1 0 0 4070.dat
1 15 660 -126.00000000000001 30 0 0 -1 0 1 0 1 0 0 4070.dat
1 15 720 -126.00000000000001 30 0 0 1 0 1 0 -1 0 0 4070.dat
1 15 720 -126.00000000000001 50 0 0 1 0 1 0 -1 0 0 4070.dat
1 1 720 -102.00000000000001 90 0 0 1 0 1 0 -1 0 0 3024.dat
1 1 660 -102.00000000000001 90 0 0 1 0 1 0 -1 0 0 3024.dat
1 4 690 -78 260 -1 0 0 0 1 0 0 0 -1 4079.dat
1 4 690 -78 200 -1 0 0 0 1 0 0 0 -1 4079.dat
1 4 690 -78 140 -1 0 0 0 1 0 0 0 -1 4079.dat
1 1 720 -126.00000000000001 70 0 0 -1 0 1 0 1 0 0 2357.dat
1 1 660 -126.00000000000001 70 1 0 0 0 1 0 0 0 1 2357.dat
1 15 690 -102.00000000000001 70 1 0 0 0 1 0 0 0 1 3023.dat
1 15 690 -118 390 -1 0 0 0 1 0 0 0 -1 4858.dat
1 15 690 -126.00000000000001 -30 -1 0 0 0 1 0 0 0 -1 4856.dat
1 0 690 -118 390 1 0 0 0 1 0 0 0 1 3039pc4.dat
1 1 720 -134 -30 0 0 1 0 1 0 -1 0 0 3024.dat
1 1 660 -134 -30 0 0 1 0 1 0 -1 0 0 3024.dat
1 1 660 -134 40 0 0 1 0 1 0 -1 0 0 3666.dat
1 1 720 -134 40 0 0 1 0 1 0 -1 0 0 3666.dat
1 1 690 -134 -80 1 0 0 0 1 0 0 0 1 4859.dat
1 15 720 -118 360 0 0 1 0 1 0 -1 0 0 4865a.dat
1 15 660 -118 360 0 0 -1 0 1 0 1 0 0 4865a.dat
1 15 690 -142 -80 1 0 0 0 1 0 0 0 1 4859.dat
1 15 720 -142 -10 0 0 1 0 1 0 -1 0 0 3623.dat
1 15 660 -142 -10 0 0 1 0 1 0 -1 0 0 3623.dat
1 15 660 -142 60 0 0 -1 0 1 0 1 0 0 3710.dat
1 15 720 -142 60 0 0 -1 0 1 0 1 0 0 3710.dat
1 15 660 -142 140 0 0 1 0 1 0 -1 0 0 4863.dat
1 15 660 -142 220 0 0 1 0 1 0 -1 0 0 4863.dat
1 15 660 -142 300 0 0 1 0 1 0 -1 0 0 4863.dat
1 15 720 -142 320 0 0 -1 0 1 0 1 0 0 2377.dat
1 43 720 -142 320 0 0 -1 0 1 0 1 0 0 4862.dat
1 43 660 -142 320 0 0 1 0 1 0 -1 0 0 4862.dat
1 43 660 -142 280 0 0 1 0 1 0 -1 0 0 4862.dat
1 43 660 -142 240 0 0 1 0 1 0 -1 0 0 4862.dat
1 43 660 -142 200 0 0 1 0 1 0 -1 0 0 4862.dat
1 43 660 -142 160 0 0 1 0 1 0 -1 0 0 4862.dat
1 43 660 -142 120 0 0 1 0 1 0 -1 0 0 4862.dat
1 15 756.0000000000001 -116.00000000000001 40 0 1 0 1 0 0 0 0 -1 4868a.dat
1 7 756.0000000000001 -116.00000000000001 40 0 1 0 1 0 0 0 0 -1 4869.dat
1 15 624 -116.00000000000001 40 0 -1 0 -1 0 0 0 0 -1 4868a.dat
1 7 624 -116.00000000000001 40 0 -1 0 -1 0 0 0 0 -1 4869.dat
1 4 720 -150 90 -1 0 0 0 1 0 0 0 -1 3070b.dat
1 4 720 -150 40 0 0 1 0 1 0 -1 0 0 2431.dat
1 4 690 -150 -20 1 0 0 0 1 0 0 0 1 3020.dat
1 4 690 -150 -80 1 0 0 0 1 0 0 0 1 4859.dat
1 4 720 -150 310 -1 0 0 0 1 0 0 0 -1 3070b.dat
1 4 720 -150 330 -1 0 0 0 1 0 0 0 -1 3024.dat
1 4 660 -150 330 -1 0 0 0 1 0 0 0 -1 3024.dat
1 15 680 -174.00000000000003 -10 0 0 1 0 1 0 -1 0 0 3040b.dat
1 15 700 -174.00000000000003 -10 0 0 -1 0 1 0 1 0 0 3040b.dat
1 15 690 -174.00000000000003 40 0 0 -1 0 1 0 1 0 0 4857.dat
1 4 660 -150 40 0 0 -1 0 1 0 1 0 0 4625.dat
1 43 690 -150 370 -1 0 0 0 1 0 0 0 -1 2437.dat
1 4 660 -150 120 0 0 -1 0 1 0 1 0 0 4625.dat
1 4 660 -150 200 0 0 -1 0 1 0 1 0 0 4625.dat
1 4 660 -150 280 0 0 -1 0 1 0 1 0 0 4625.dat
1 15 690 -174.00000000000003 120 0 0 -1 0 1 0 1 0 0 4857.dat
1 15 690 -174.00000000000003 200 0 0 -1 0 1 0 1 0 0 4857.dat
1 15 690 -174.00000000000003 280 0 0 -1 0 1 0 1 0 0 4857.dat
1 4 720 -150 200 0 0 -1 0 1 0 1 0 0 4477.dat
1 15 720 -142 120 0 0 -1 0 1 0 1 0 0 2377.dat
1 43 720 -142 120 0 0 -1 0 1 0 1 0 0 4862.dat
1 15 720 -142 180 0 0 -1 0 1 0 1 0 0 4863.dat
1 15 720 -142 260 0 0 -1 0 1 0 1 0 0 4863.dat
1 43 720 -142 160 0 0 -1 0 1 0 1 0 0 4862.dat
1 43 720 -142 200 0 0 -1 0 1 0 1 0 0 4862.dat
1 43 720 -142 240 0 0 -1 0 1 0 1 0 0 4862.dat
1 43 720 -142 280 0 0 -1 0 1 0 1 0 0 4862.dat
1 15 690 -174.00000000000003 330 -1 0 0 0 1 0 0 0 -1 4861.dat
1 7 660 -78 120 0 0 1 0 1 0 -1 0 0 3298.dat
1 7 720 -78 120 0 0 -1 0 1 0 1 0 0 3298.dat
1 7 690 -62 120 0 0 -1 0 1 0 1 0 0 3022.dat
1 7 690 -54 120 -1 0 0 0 1 0 0 0 -1 3034.dat
1 36 690 -54 260 1 0 0 0 1 0 0 0 1 6141.dat
1 7 690 -54 380 1 0 0 0 1 0 0 0 1 3679.dat
1 7 690 -54 380 1 0 0 0 1 0 0 0 1 3680.dat
1 7 702 -17 364 0 0 -1 0 1 0 1 0 0 4624.dat
1 7 690 -46.00000000000001 380 -1 0 0 0 1 0 0 0 -1 4870.dat
1 7 678 -17 364 0 0 1 0 1 0 -1 0 0 4624.dat
1 0 678 -17 364 0 0 1 0 1 0 -1 0 0 59895.dat
1 0 702 -17 364 0 0 1 0 1 0 -1 0 0 59895.dat
1 7 630 -46.00000000000001 120 -1 0 0 0 1 0 0 0 -1 4870.dat
1 7 750 -46.00000000000001 120 -1 0 0 0 1 0 0 0 -1 4870.dat
1 7 618 -17 104 0 0 1 0 1 0 -1 0 0 4624.dat
1 7 642 -17 104 0 0 -1 0 1 0 1 0 0 4624.dat
1 7 762 -17 104 0 0 -1 0 1 0 1 0 0 4624.dat
1 7 738 -17 104 0 0 1 0 1 0 -1 0 0 4624.dat
1 0 642 -17 104 0 0 1 0 1 0 -1 0 0 59895.dat
1 0 618 -17 104 0 0 1 0 1 0 -1 0 0 59895.dat
1 0 738 -17 104 0 0 1 0 1 0 -1 0 0 59895.dat
1 0 762 -17 104 0 0 1 0 1 0 -1 0 0 59895.dat
1 15 690 -174.00000000000003 -30 -1 0 0 0 1 0 0 0 -1 10159 - 4867px3.dat
1 15 690 -254.00000000000003 -140 1 0 0 0 1 0 0 0 1 3474.dat
1 15 690 -262 -150 1 0 0 0 1 0 0 0 1 3794a.dat
1 36 690 -270 -150 1 0 0 0 1 0 0 0 1 6141.dat
1 36 440 -94 70 1 0 0 0 1 0 0 0 1 6141.dat
1 34 940 -94 70 1 0 0 0 1 0 0 0 1 6141.dat
1 0 -184.678 -8 -30.853 0.174 0 -1 0 1 0 1 0 0.174 3666.dat
1 0 -84.678 -8 -48.253 0.174 0 -1 0 1 0 1 0 0.174 3666.dat
1 0 -132.938 -32 -29.552999999999997 1 0 0.174 0 1 0 -0.174 0 1 4873.dat
1 14 -166.418 -40 -44.333 0.174 0 -1 0 1 0 1 0 0.174 3623.dat
1 14 -106.418 -40 -54.772999999999996 0.174 0 -1 0 1 0 1 0 0.174 3623.dat
1 14 -138.158 -40 -59.553000000000004 0.174 0 -1 0 1 0 1 0 0.174 3020.dat
1 0 -142.938 -48.00000000000001 -27.813 0.174 0 -1 0 1 0 1 0 0.174 2420.dat
1 0 -122.93799999999999 -48.00000000000001 -31.293 1 0 0.174 0 1 0 -0.174 0 1 2420.dat
1 0 -108.15799999999999 -48.00000000000001 -64.773 -0.174 0 1 0 1 0 -1 0 -0.174 3023.dat
1 0 -168.158 -48.00000000000001 -54.333 -0.174 0 1 0 1 0 -1 0 -0.174 3023.dat
1 15 -132.938 -56.00000000000001 -29.552999999999997 1 0 0.174 0 1 0 -0.174 0 1 3023.dat
1 15 -166.418 -56.00000000000001 -44.333 -0.174 0 1 0 1 0 -1 0 -0.174 3623.dat
1 15 -106.418 -56.00000000000001 -54.772999999999996 -0.174 0 1 0 1 0 -1 0 -0.174 3623.dat
1 0 -129.458 -56.00000000000001 -9.552999999999997 -1 0 -0.174 0 1 0 0.174 0 -1 2452.dat
1 0 -114.77066 -79.7 74.857 -0.16355999999999998 0.059508 1 0.342 0.94 0 -0.94 0.342 -0.174 4504.dat
1 0 -97.867256 -104.426 172.00300000000001 -0.174 0 1 0 1 0 -1 0 -0.174 4276b.dat
1 14 -102.93799999999999 -80 -34.772999999999996 1 0 0.174 0 1 0 -0.174 0 1 4286.dat
1 14 -162.93800000000002 -80 -24.333 1 0 0.174 0 1 0 -0.174 0 1 4286.dat
1 7 -131.19799999999998 -80 -19.552999999999997 1 0 0.174 0 1 0 -0.174 0 1 3003.dat
1 7 -119.45799999999998 -88 -11.293 0.174 0 -1 0 1 0 1 0 0.174 4081b.dat
1 7 -139.458 -88 -7.812999999999995 -0.174 0 1 0 1 0 -1 0 -0.174 4081b.dat
1 14 -132.938 -88 -29.552999999999997 1 0 0.174 0 1 0 -0.174 0 1 3710.dat
1 15 -97.89213799999999 -112.42800000000001 171.86000000000004 0.174 0 -1 0 1 0 1 0 0.174 3794a.dat
1 7 -129.458 -112.00000000000001 -9.552999999999997 -1 0 -0.174 0 1 0 0.174 0 -1 3700.dat
1 14 -162.93800000000002 -112.00000000000001 -24.333 -1 0 -0.174 0 1 0 0.174 0 -1 3005.dat
1 14 -102.93799999999999 -112.00000000000001 -34.772999999999996 -1 0 -0.174 0 1 0 0.174 0 -1 3005.dat
1 7 -127.71799999999999 -102.00000000000001 0.44700000000000273 -1 0.174 0 0 0 1 0.174 1 0 4589.dat
1 14 -162.93800000000002 -120 -24.333 -1 0 -0.174 0 1 0 0.174 0 -1 3024.dat
1 14 -102.93799999999999 -120 -34.772999999999996 -1 0 -0.174 0 1 0 0.174 0 -1 3024.dat
1 0 -129.458 -120 -9.552999999999997 -1 0 -0.174 0 1 0 0.174 0 -1 2452.dat
1 0 -113.798 -120 80.447 -0.174 0 1 0 1 0 -1 0 -0.174 4504.dat
1 0 -96.39800000000001 -120 180.44700000000003 -0.174 0 1 0 1 0 -1 0 -0.174 4276b.dat
1 7 -110.31799999999998 -128 100.447 -0.174 0 1 0 1 0 -1 0 -0.174 4477.dat
1 14 -106.39800000000001 -136 182.187 -1 0 -0.174 0 1 0 0.174 0 -1 4488.dat
1 7 -159.458 -128 -4.332999999999998 -0.174 0 1 0 1 0 -1 0 -0.174 2420.dat
1 7 -99.45799999999998 -128 -14.772999999999996 -1 0 -0.174 0 1 0 0.174 0 -1 2420.dat
1 14 -133.378 -48.00000000000001 -91.29299999999999 -0.8573580000000002 0 -0.543776 0 1 0 0.543776 0 -0.8573580000000002 4592.dat
1 14 -153.378 -48.00000000000001 -87.813 -0.990642 0 0.22222400000000003 0 1 0 -0.22222400000000003 0 -0.990642 4592.dat
1 0 -153.378 -48.00000000000001 -87.813 -0.990642 0.14555600000000002 0.16772199999999998 0 0.7550000000000001 -0.656 -0.22222400000000003 -0.649674 -0.7472859999999999 4593.dat
1 0 -133.378 -48.00000000000001 -91.29299999999999 -0.8573580000000002 -0.31948200000000004 -0.43997800000000004 0 0.8090000000000002 -0.588 0.543776 -0.50385 -0.69306 4593.dat
1 14 -132.938 -136 -29.552999999999997 1 0 0.174 0 1 0 -0.174 0 1 4315.dat
1 43 -135.374 -132 -43.553 1 0 0.174 0 1 0 -0.174 0 1 2483.dat
1 7 -129.458 -136 -9.552999999999997 1 0 0.174 0 1 0 -0.174 0 1 3023.dat
1 0 -131.19799999999998 -144 -19.552999999999997 1 0 0.174 0 1 0 -0.174 0 1 2460.dat
1 7 -131.19799999999998 -168 -19.552999999999997 0.5362979999999999 0 -0.86175 0 1 0 0.86175 0 0.5362979999999999 2479.dat
1 0 -132.398 -131 186.711 0 1 0.174 -1 0 0 0 -0.174 1 2421.dat
1 14 -208.910102 -176 28.820052000000004 -0.86175 0 -0.5362979999999999 0 1 0 0.5362979999999999 0 -0.86175 4162.dat
1 14 -53.46784599999999 -176 -67.828226 -0.86175 0 -0.5362979999999999 0 1 0 0.5362979999999999 0 -0.86175 4162.dat
1 0 345.932 -31.147 -70.651 0.174 0 -1 0 1 0 1 0 0.174 3023.dat
1 0 415.932 -31.147 -82.83100000000002 -1 0 -0.174 0 1 0 0.174 0 -1 3795.dat
1 0 355.932 -39.147 -72.391 -0.174 0 1 0 1 0 -1 0 -0.174 3730.dat
1 4 395.932 -39.147 -79.351 -1 0 -0.174 0 1 0 0.174 0 -1 3022.dat
1 4 465.932 -39.147 -91.531 -0.174 0 1 0 1 0 -1 0 -0.174 3710.dat
1 4 435.932 -47.147 -86.31100000000002 -0.174 0 1 0 1 0 -1 0 -0.174 3788.dat
1 4 375.932 -47.147 -75.871 -0.174 0 1 0 1 0 -1 0 -0.174 3031.dat
1 46 460.71200000000005 -47.147 -121.53100000000002 -0.174 0 1 0 1 0 -1 0 -0.174 3024.dat
1 46 471.1520000000001 -47.147 -61.531000000000006 -0.174 0 1 0 1 0 -1 0 -0.174 3024.dat
1 4 431.1520000000001 -71.147 -54.571000000000005 0.174 0 -1 0 1 0 1 0 0.174 4286.dat
1 4 420.71200000000005 -71.147 -114.571 0.174 0 -1 0 1 0 1 0 0.174 4286.dat
1 4 390.71200000000005 -71.147 -109.351 -1 0 -0.174 0 1 0 0.174 0 -1 4865a.dat
1 4 350.712 -71.147 -102.391 -1 0 -0.174 0 1 0 0.174 0 -1 4865a.dat
1 4 345.932 -71.147 -70.651 0.174 0 -1 0 1 0 1 0 0.174 4865a.dat
1 4 361.1520000000001 -71.147 -42.391000000000005 1 0 0.174 0 1 0 -0.174 0 1 4865a.dat
1 4 401.1520000000001 -71.147 -49.351 1 0 0.174 0 1 0 -0.174 0 1 4865a.dat
1 0 435.932 -23.147 -86.31100000000002 0.174 0 -1 0 1 0 1 0 0.174 4600.dat
1 0 355.932 -23.147 -72.391 0.174 0 -1 0 1 0 1 0 0.174 4600.dat
1 15 361.5 -18.147 -40.391000000000005 -0.8660000000000001 -0.5 -0.174 -0.5 0.8660000000000001 0 0.15068399999999998 0.087 -1 4624.dat
1 15 441.50000000000006 -18.116 -54.31100000000001 -0.629 -0.777 -0.174 -0.777 0.629 0 0.10944599999999999 0.13519799999999998 -1 4624.dat
1 15 430.3640000000001 -18.147 -118.311 0.9240000000000002 0.383 0.174 -0.383 0.9240000000000002 0 -0.160776 -0.06664199999999999 1 4624.dat
1 15 350.30500000000006 -18.116 -104.380734 1 -0.131 0.174 0.131 1 0 -0.174 0.022794000000000002 1 4624.dat
1 0 350.3640000000001 -18.147 -104.39100000000002 1 0 0.174 0 1 0 -0.174 0 1 3641.dat
1 0 430.3640000000001 -18.147 -118.311 1 0 0.174 0 1 0 -0.174 0 1 3641.dat
1 0 441.50000000000006 -18.147 -54.31100000000001 1 0 0.174 0 1 0 -0.174 0 1 3641.dat
1 0 361.5 -18.147 -40.391000000000005 1 0 0.174 0 1 0 -0.174 0 1 3641.dat
1 4 465.932 -47.147 -91.531 0.174 0 -1 0 1 0 1 0 0.174 3829a.dat
1 0 465.932 -73.147 -91.531 0.174 0.8040000000000002 -0.595 0 0.595 0.8040000000000002 1 -0.139896 0.10353 3828.dat
1 0 405.932 -79.147 -81.09100000000001 -0.174 0 1 0 1 0 -1 0 -0.174 2432.dat
1 0 242.195 -31 -9.775000000000013 -0.574 0 0.819 0 1 0 -0.819 0 -0.574 3022.dat
1 0 283.145 -31 -38.47500000000001 0.819 0 0.574 0 1 0 -0.574 0 0.819 3021.dat
1 4 258.57500000000005 -47 -21.25500000000001 -0.574 0 0.819 0 1 0 -0.819 0 -0.574 3788.dat
1 4 283.145 -39 -38.47500000000001 -0.574 0 0.819 0 1 0 -0.819 0 -0.574 3710.dat
1 4 234.005 -39 -4.035000000000011 -0.574 0 0.819 0 1 0 -0.819 0 -0.574 3710.dat
1 4 299.525 -39 -49.955000000000005 0.574 0 -0.819 0 1 0 0.819 0 0.574 3184.dat
1 36 216.78500000000003 -47 -28.605000000000015 0.574 0 -0.819 0 1 0 0.819 0 0.574 3024.dat
1 36 251.22500000000002 -47 20.534999999999997 0.574 0 -0.819 0 1 0 0.819 0 0.574 3024.dat
1 4 282.305 -47 -74.525 0.574 0 -0.819 0 1 0 0.819 0 0.574 2420.dat
1 4 316.745 -47 -25.38500000000001 -0.819 0 -0.574 0 1 0 0.574 0 -0.819 2420.dat
1 4 234.005 -63.00000000000001 -4.035000000000011 0.574 0 -0.819 0 1 0 0.819 0 0.574 4865a.dat
1 4 224.97500000000002 -71 -34.34500000000001 -0.819 0 -0.574 0 1 0 0.574 0 -0.819 4865a.dat
1 4 257.735 -71 -57.30500000000001 -0.819 0 -0.574 0 1 0 0.574 0 -0.819 4865a.dat
1 4 292.175 -71 -8.165000000000006 0.819 0 0.574 0 1 0 -0.574 0 0.819 4865a.dat
1 4 259.4150000000001 -71 14.79499999999999 0.819 0 0.574 0 1 0 -0.574 0 0.819 4865a.dat
1 0 258.57500000000005 -23.000000000000004 -21.25500000000001 0.574 0 -0.819 0 1 0 0.819 0 0.574 4600.dat
1 15 276.943 -18 4.952999999999989 -0.79443 0.19819799999999999 -0.574 0.242 1 0 0.5567799999999999 -0.13890799999999998 -0.819 4624.dat
1 0 276.943 -18 4.952999999999989 0.819 0 0.574 0 1 0 -0.574 0 0.819 3641.dat
1 15 240.20700000000002 -18 -47.46300000000001 0.7567560000000001 -0.313677 0.574 0.383 0.9240000000000002 0 -0.530376 0.21984199999999998 0.819 4624.dat
1 0 240.20700000000002 -18 -47.46300000000001 0.819 0 0.574 0 1 0 -0.574 0 0.819 3641.dat
1 0 299.525 -95 -49.955000000000005 0.574 0 -0.819 0 1 0 0.819 0 0.574 4083.dat
1 46 293.785 -119 -58.14500000000002 0.574 0 -0.819 0 1 0 0.819 0 0.574 3062b.dat
1 15 384.27 -79.147 -81.357 0.40700000000000003 0 -0.9140000000000001 0 1 0 0.9140000000000001 0 0.40700000000000003 4449-f1.dat
1 6 347.08 -69.678 -69.178 0.40700000000000003 0.8440000000000001 -0.35 0 0.383 0.9240000000000002 0.9140000000000001 -0.376 0.156 4449-f1.dat
1 6 278.345 -79.147 -15.125000000000002 -0.669 0 -0.7430000000000001 0 1 0 0.7430000000000001 0 -0.669 4449-f1.dat
1 0 254.558 -65.14700000000002 -9.63 -0.669 -0.7430000000000001 0 0 0 -1 0.7430000000000001 -0.669 0 4449-f1.dat
1 1 616 -40 -201 -1 0 0 0 1 0 0 0 -1 3815.dat
1 15 631.6 -63.00000000000001 -201 -0.984 0.12400000000000001 0.12200000000000001 0.174 0.702 0.69 0 0.701 -0.7130000000000001 3818.dat
1 15 600.4 -63.00000000000001 -201 -0.984 -0.15700000000000003 -0.073 -0.174 0.892 0.416 0 0.42200000000000004 -0.9060000000000001 3819.dat
1 14 637.6570000000002 -57.467000000000006 -180.698 -0.984 0.174 0 0.174 1 0 0 0 -1 3820.dat
1 14 593.231 -51.162 -184.00000000000003 -0.984 -0.16300000000000003 0.059 -0.174 0.9250000000000002 -0.3360000000000001 0 -0.342 -0.939 3820.dat
1 1 616 -28.000000000000004 -201 -1 0 0 0 1 0 0 0 -1 3816.dat
1 1 616 -28.000000000000004 -201 -1 0 0 0 1 0 0 0 -1 3817.dat
1 14 616 -96.00000000000001 -201 -1 0 0 0 1 0 0 0 -1 3626ap01.dat
1 15 616 -72 -201 -1 0 0 0 1 0 0 0 -1 973p16.dat
1 15 631.94 -87.888 -160.671 -0.978 0.127 -0.16800000000000004 0.127 -0.281 -0.9510000000000001 -0.16800000000000004 -0.9510000000000001 0.259 3900.dat
1 0 616 -104 -201 -1 0 0 0 1 0 0 0 -1 3901.dat
1 1 26 -40 137 1 0 0.096 0 1 0 -0.096 0 1 3815.dat
1 1 10.462000000000005 -63.00000000000001 138.49600000000004 1 -0.19000000000000003 -0.053 0.174 0.702 0.69 -0.094 -0.686 0.722 3818.dat
1 1 41.538 -63.00000000000001 135.504 1 0.16 -0.116 -0.174 0.416 -0.893 -0.094 0.8950000000000001 0.436 3819.dat
1 14 2.483000000000004 -57.467000000000006 118.856 1 -0.172 0.097 0.174 1 0 -0.094 0 1 3820.dat
1 14 50.614000000000004 -47.206 147.636 1 0 -0.19500000000000003 -0.174 -0.337 -0.9250000000000002 -0.094 0.9410000000000001 -0.325 3820.dat
1 1 26 -28.000000000000004 137 1 0 0.096 0 1 0 -0.096 0 1 3816.dat
1 1 26 -28.000000000000004 137 1 0 0.083 0 0.8660000000000001 0.5 -0.096 -0.49800000000000005 0.863 3817.dat
1 14 26 -96.00000000000001 137 1 0 0.096 0 1 0 -0.096 0 1 3626ap01.dat
1 1 26 -72 137 1 0 0.096 0 1 0 -0.096 0 1 973p0a.dat
1 1 26 -96.00000000000001 137 1 0 0.096 0 1 0 -0.096 0 1 2446.dat
1 43 26.441000000000003 -94.596 141.57800000000003 1 -0.068 0.068 0 0.707 0.707 -0.096 -0.7040000000000001 0.7040000000000001 2447.dat
1 1 60 -192.00000000000003 531 1 0 0 0 1 0 0 0 1 3815.dat
1 15 44.400000000000006 -215 531 1 0 -0.16800000000000004 0.174 -0.246 1 0 -0.968 -0.25 3818.dat
1 15 75.6 -215 531 1 0.15700000000000003 0.073 -0.174 0.892 0.416 0 -0.42200000000000004 0.9060000000000001 3819.dat
1 14 42 -230 515.1890000000001 0.943 0.295 -0.15 0 0.528 0.848 0.33 -0.796 0.507 3820.dat
1 14 82.769 -203.16200000000003 514 1 0.16300000000000003 -0.059 -0.174 0.9250000000000002 -0.3360000000000001 0 0.342 0.939 3820.dat
1 1 60 -180 531 1 0 0 0 1 0 0 0 1 3816.dat
1 1 60 -180 531 1 0 0 0 1 0 0 0 1 3817.dat
1 14 60 -248 531 1 0 0 0 1 0 0 0 1 3626ap01.dat
1 15 60 -224.00000000000003 531 1 0 0 0 1 0 0 0 1 973p71.dat
1 6 60 -248 531 1 0 0 0 1 0 0 0 1 4530.dat
1 7 260 -40 450 1 0 0 0 1 0 0 0 1 3815.dat
1 1 244.4 -63.00000000000001 450 1 -0.12400000000000001 -0.12200000000000001 0.174 0.702 0.69 0 -0.701 0.7130000000000001 3818.dat
1 1 275.601 -63.00000000000001 450 1 0.073 -0.15700000000000003 -0.174 0.416 -0.893 0 0.9060000000000001 0.42300000000000004 3819.dat
1 14 238.343 -57.467000000000006 429.698 1 -0.174 0 0.174 1 0 0 0 1 3820.dat
1 14 283.467 -47.206 462.93800000000005 1 -0.059 -0.16300000000000003 -0.174 -0.337 -0.9250000000000002 0 0.939 -0.342 3820.dat
1 7 260 -28.000000000000004 450 1 0 0 0 1 0 0 0 1 3816.dat
1 7 260 -28.000000000000004 450 1 0 0 0 0.8660000000000001 0.5 0 -0.5 0.8660000000000001 3817.dat
1 14 260 -96.00000000000001 450 1 0 0 0 1 0 0 0 1 3626ap01.dat
1 1 260 -72 450 1 0 0 0 1 0 0 0 1 973p18.dat
1 0 260 -96.00000000000001 450 1 0 0 0 1 0 0 0 1 3901.dat
1 15 285.306 -36.777 464.0520000000001 -0.09800000000000002 0.14300000000000002 -0.984 -0.558 0.811 0.174 0.8240000000000001 0.566 0 4449-f1.dat
1 0 260 -357 588 1 0 0 0 1 0 0 0 1 3815.dat
1 0 244.4 -380 588 1 0 -0.174 0.174 0 1 0 -1 0 3818.dat
1 0 275.601 -380 588 1 0.11700000000000002 0.128 -0.174 0.665 0.726 0 -0.737 0.676 3819.dat
1 14 241.168 -390.49000000000007 569 1 -0.12400000000000001 -0.12200000000000001 0.174 0.702 0.69 0 -0.7 0.7130000000000001 3820.dat
1 14 281.472 -375.523 567.384 1 0.173 0 -0.174 1 0 0 0 1 3820.dat
1 0 260 -345 588 1 0 0 0 0 1 0 -1 0 3816.dat
1 0 260 -345 588 1 0 0 0 0 1 0 -1 0 3817.dat
1 14 260 -413.00000000000006 588 1 0 0 0 1 0 0 0 1 3626ap01.dat
1 0 260 -413.00000000000006 588 1 0 0 0 1 0 0 0 1 3624.dat
1 0 260 -389.00000000000006 588 1 0 0 0 1 0 0 0 1 973p1f.dat
1 1 429.2610000000001 -60.147000000000006 -85.405 0.174 0 -0.9850000000000001 0 1 0 1 0 0.174 3815.dat
1 15 426.54851400000007 -83.197 -100.99400000000001 0.174 0.6689089999999999 -0.723533 0.174 0.702 0.69 1 -0.24597399999999997 0.0020619999999999944 3818.dat
1 15 431.97366 -83.19200000000001 -69.815 0.174 0.8241149999999999 -0.540682 -0.174 0.565 0.807 1 -0.042505999999999995 0.241876 3819.dat
1 14 445.4611270000001 -77.65100000000001 -110.568806 0.174 -0.030276 -0.9850000000000001 0.174 1 0 1 -0.174 0.174 3820.dat
1 14 453.71623 -81.394 -68.079532 0.174 0.20114400000000002 -0.9850000000000001 -0.174 1 0.171 1 0.14072400000000002 0.174 3820.dat
1 1 429.2610000000001 -48.147000000000006 -85.405 0.174 0.9850000000000001 0 0 0 1 1 -0.174 0 3816.dat
1 1 429.2610000000001 -48.147000000000006 -85.405 0.174 0.9850000000000001 0 0 0 1 1 -0.174 0 3817.dat
1 14 429.2610000000001 -116.147 -85.405 0.174 0 -0.9850000000000001 0 1 0 1 0 0.174 3626ap01.dat
1 15 429.2610000000001 -92.147 -85.405 0.174 0 -0.9850000000000001 0 1 0 1 0 0.174 973p16.dat
1 1 429.2610000000001 -116.147 -85.405 0.174 0 -0.9850000000000001 0 1 0 1 0 0.174 4485.dat
1 0 686.0000000000001 -91.066 342.442 -1 0 0 0 1 0 0 0 -1 3815.dat
1 0 701.5750000000002 -114.167 342.37500000000006 -0.9850000000000001 0.12400000000000001 0.12200000000000001 0.174 0.702 0.69 0 0.701 -0.7130000000000001 3818.dat
1 0 670.426 -114.167 342.3670000000001 -0.9850000000000001 -0.11700000000000002 -0.128 -0.174 0.665 0.726 0 0.737 -0.676 3819.dat
1 14 707.6260000000001 -108.612 362.611 -0.9850000000000001 0.174 0 0.174 1 0 0 0 -1 3820.dat
1 14 664.5620000000001 -109.668 362.92 -0.9850000000000001 -0.173 0 -0.174 1 0 0 0 -0.999 3820.dat
1 0 686.0000000000001 -79.066 342.446 -1 0 0 0 0 1 0 1 0 3816.dat
1 0 686.0000000000001 -79.066 342.446 -1 0 0 0 0 1 0 1 0 3817.dat
1 14 686.0000000000001 -147.068 342.448 -1 0 0 0 1 0 0 0 -1 3626ap01.dat
1 0 686.0000000000001 -147.068 342.448 -1 0 0 0 1 0 0 0 -1 3624.dat
1 0 686.0000000000001 -123.069 342.449 -1 0 0 0 1 0 0 0 -1 973p04.dat
1 4 920 -24.000000000000004 -190 1 0 0 0 1 0 0 0 1 3039.dat
1 4 920 -24.000000000000004 -170 -1 0 0 0 1 0 0 0 -1 3039.dat
1 7 920 -32 -180 -0.8660000000000001 0 -0.5 0 1 0 0.5 0 -0.8660000000000001 3679.dat
1 7 925 -56.00000000000001 -171.34 -0.8660000000000001 0 -0.5 0 1 0 0.5 0 -0.8660000000000001 3937.dat
1 0 925.768 -54.660000000000004 -166 -0.8660000000000001 -0.25 -0.43300000000000005 0 0.8660000000000001 -0.5 0.5 -0.43300000000000005 -0.7500000000000001 3938.dat
1 7 923.438 -66.588 -170 -0.8660000000000001 -0.25 -0.43300000000000005 0 0.8660000000000001 -0.5 0.5 -0.43300000000000005 -0.7500000000000001 3795.dat
1 0 896.859 -68.517 -140.082 -0.8660000000000001 -0.25 -0.43300000000000005 0 0.8660000000000001 -0.5 0.5 -0.43300000000000005 -0.7500000000000001 2412b.dat
1 0 888.1990000000001 -78.517 -155.082 -0.8660000000000001 -0.25 -0.43300000000000005 0 0.8660000000000001 -0.5 0.5 -0.43300000000000005 -0.7500000000000001 2412b.dat
1 0 922.84 -78.517 -175.082 -0.8660000000000001 -0.25 -0.43300000000000005 0 0.8660000000000001 -0.5 0.5 -0.43300000000000005 -0.7500000000000001 2412b.dat
1 0 931.5 -68.517 -160.082 -0.8660000000000001 -0.25 -0.43300000000000005 0 0.8660000000000001 -0.5 0.5 -0.43300000000000005 -0.7500000000000001 2412b.dat
1 0 966.1410000000001 -68.517 -180.082 -0.8660000000000001 -0.25 -0.43300000000000005 0 0.8660000000000001 -0.5 0.5 -0.43300000000000005 -0.7500000000000001 2412b.dat
1 0 957.4810000000001 -78.517 -195.08200000000002 -0.8660000000000001 -0.25 -0.43300000000000005 0 0.8660000000000001 -0.5 0.5 -0.43300000000000005 -0.7500000000000001 2412b.dat
1 4 920 -32 -180 -1 0 0 0 1 0 0 0 -1 3680.dat
