1 1 -100 -96.00000000000001 10 1 0 0 0 1 0 0 0 1 4485.dat
1 14 -100 -96.00000000000001 10 1 0 0 0 1 0 0 0 1 3626bp04.dat
1 1 -100 -72 10 1 0 0 0 1 0 0 0 1 973p1u.dat
1 1 -100 -40 10 1 0 0 0 1 0 0 0 1 3815.dat
1 1 -84.50000000000001 -64 10 1 0.17 0 -0.17 1 0 0 0 1 3819.dat
1 1 -115.5 -64 10 1 -0.17 0 0.17 1 0 0 0 1 3818.dat
1 14 -76.341999 -46.148998 0 1 0.12 -0.12 -0.17 0.697 -0.697 0 0.707 0.707 3820.dat
1 14 -123.65800100000001 -46.148998 0 1 -0.12 0.12 0.17 0.697 -0.697 0 0.707 0.707 3820.dat
1 1 -100 -28.000000000000004 10 1 0 0 0 1 0 0 0 1 3817.dat
1 1 -100 -28.000000000000004 10 1 0 0 0 1 0 0 0 1 3816.dat
1 0 122.943699 -48.00000000000001 61.6603 0.86603 0 -0.499992 0 1 0 0.499992 0 0.86603 2465.dat
1 0 132.943539 -48.00000000000001 44.33970000000001 0.86603 0 -0.499992 0 1 0 0.499992 0 0.86603 2465.dat
1 0 275.168719 -48.00000000000001 137.99864 0.499992 0 0.86603 0 1 0 -0.86603 0 0.499992 3004.dat
1 7 266.508419 -56.00000000000001 132.99872 0.499992 0 0.86603 0 1 0 -0.86603 0 0.499992 3068b.dat
1 14 -1.9608809999999866 -56.00000000000001 -21.998800000000003 0.499992 0 0.86603 0 1 0 -0.86603 0 0.499992 2436a.dat
1 0 214.54661900000002 -32 102.9992 0.499992 0 0.86603 0 1 0 -0.86603 0 0.499992 6157.dat
1 0 266.508419 -32 132.99872 0.499992 0 0.86603 0 1 0 -0.86603 0 0.499992 6157.dat
1 0 24.020019000000005 -32 -6.999040000000001 0.499992 0 0.86603 0 1 0 -0.86603 0 0.499992 6157.dat
1 7 -21.01354099999999 -46.00000000000001 -32.99862399999999 0.499992 0.86603 0 0 0 -1 -0.86603 0.499992 0 2431.dat
1 14 136.60391900000002 -24.000000000000004 57.99992 0.499992 0 0.86603 0 1 0 -0.86603 0 0.499992 3710.dat
1 14 75.981819 -24.000000000000004 23.00048 0.499992 0 0.86603 0 1 0 -0.86603 0 0.499992 3020.dat
1 14 171.245119 -24.000000000000004 77.9996 0.86603 0 -0.499992 0 1 0 0.499992 0 0.86603 3021.dat
1 14 82.321279 -48.00000000000001 -7.980339999999999 0.86603 0 -0.499992 0 1 0 0.499992 0 0.86603 4070.dat
1 14 99.641879 -48.00000000000001 2.0195000000000007 0.86603 0 -0.499992 0 1 0 0.499992 0 0.86603 4070.dat
1 7 151.603679 -32 32.01902 0.499992 0 0.86603 0 1 0 -0.86603 0 0.499992 6141.dat
1 14 69.642359 -48.00000000000001 53.981300000000005 -0.86603 0 0.499992 0 1 0 -0.499992 0 -0.86603 4070.dat
1 14 52.32175900000001 -48.00000000000001 43.98146 -0.86603 0 0.499992 0 1 0 -0.499992 0 -0.86603 4070.dat
1 7 121.60415900000001 -32 83.98082000000001 -0.499992 0 -0.86603 0 1 0 0.86603 0 -0.499992 6141.dat
1 14 24.020019000000005 -56.00000000000001 -6.999040000000001 0.86603 0 -0.499992 0 1 0 0.499992 0 0.86603 3022.dat
1 14 151.603679 -40 32.01902 0.86603 0 -0.499992 0 1 0 0.499992 0 0.86603 4081b.dat
1 7 97.98146700000002 -38 -15.104839999999998 0.86603 -0.499992 0 0 0 -1 0.499992 0.86603 0 3023.dat
1 7 53.98217100000001 -38 61.1058 -0.86603 0.499992 0 0 0 -1 -0.499992 -0.86603 0 3023.dat
1 14 121.60415900000001 -40 83.98082000000001 -0.86603 0 0.499992 0 1 0 -0.499992 0 -0.86603 4081b.dat
1 7 188.56571900000003 -56.00000000000001 87.99943999999999 0.499992 0 0.86603 0 1 0 -0.86603 0 0.499992 3023.dat
1 383 101.981403 -38 -22.033079999999998 0.86603 -0.499992 0 0 0 -1 0.499992 0.86603 0 2412b.dat
1 383 199.70883900000004 -38 36.698068000000006 0 -0.86603 -0.499992 1 0 0 0 -0.499992 0.86603 71075a.dat
1 383 49.98223500000001 -38 68.03404 -0.86603 0.499992 0 0 0 -1 -0.499992 -0.86603 0 2412b.dat
1 383 149.70963899999998 -38 123.30106800000001 0 -0.86603 -0.499992 1 0 0 0 -0.499992 0.86603 71075a.dat
1 7 121.60415900000001 -48.00000000000001 83.98082000000001 -0.499992 0 -0.86603 0 1 0 0.86603 0 -0.499992 6141.dat
1 7 151.603679 -48.00000000000001 32.01902 0.499992 0 0.86603 0 1 0 -0.86603 0 0.499992 6141.dat
1 14 75.981819 -56.00000000000001 23.00048 0.86603 0 -0.499992 0 1 0 0.499992 0 0.86603 3031.dat
1 383 188.56571900000003 -64 87.99943999999999 0.499992 0 0.86603 0 1 0 -0.86603 0 0.499992 2412b.dat
1 14 137.354679 -38 0.6986440000000016 0 0.86603 0.499992 1 0 0 0 0.499992 -0.86603 3062b.dat
1 14 206.63707900000003 -38 40.698004 0 -0.86603 -0.499992 1 0 0 0 -0.499992 0.86603 6141.dat
1 14 87.355479 -38 87.301644 0 0.86603 0.499992 1 0 0 0 0.499992 -0.86603 3062b.dat
1 14 156.637879 -38 127.30100399999999 0 -0.86603 -0.499992 1 0 0 0 -0.499992 0.86603 6141.dat
1 14 24.020019000000005 -72 -6.999040000000001 0.499992 0 0.86603 0 1 0 -0.86603 0 0.499992 3788.dat
1 7 58.661219 -64 13.000640000000006 0.86603 0 -0.499992 0 1 0 0.499992 0 0.86603 3022.dat
1 0 84.64211900000001 -64 28.0004 0.499992 0 0.86603 0 1 0 -0.86603 0 0.499992 2412b.dat
1 14 145.264219 -56.00000000000001 62.999840000000006 0.499992 0 0.86603 0 1 0 -0.86603 0 0.499992 3032.dat
1 14 86.96295900000001 -80 63.981139999999996 -0.86603 0 0.499992 0 1 0 -0.499992 0 -0.86603 4070.dat
1 14 116.96247900000002 -80 12.01934 0.86603 0 -0.499992 0 1 0 0.499992 0 0.86603 4070.dat
1 14 -1.9608809999999866 -64 -21.998800000000003 0.499992 0 0.86603 0 1 0 -0.86603 0 0.499992 3710.dat
1 14 120.26461900000001 -80 106.30134 -0.86603 0 0.499992 0 1 0 -0.499992 0 -0.86603 3010.dat
1 14 170.263819 -80 19.69834 -0.86603 0 0.499992 0 1 0 -0.499992 0 -0.86603 3010.dat
1 0 110.62301900000001 -80 43.00016 0.499992 0 0.86603 0 1 0 -0.86603 0 0.499992 3003.dat
1 4 24.020019000000005 -72 -6.999040000000001 0.86603 0 -0.499992 0 1 0 0.499992 0 0.86603 3020.dat
1 38 -16.960640999999995 -72 3.9820999999999955 0.499992 0 0.86603 0 1 0 -0.86603 0 0.499992 6141.dat
1 38 13.03887900000001 -72 -47.97970000000001 0.499992 0 0.86603 0 1 0 -0.86603 0 0.499992 6141.dat
1 14 -8.300340999999989 -80 8.982019999999999 -0.86603 0 0.499992 0 1 0 -0.499992 0 -0.86603 3069b.dat
1 14 21.699179 -80 -42.979780000000005 -0.86603 0 0.499992 0 1 0 -0.499992 0 -0.86603 3069b.dat
1 15 50.000919 -80 8.000720000000001 0.499992 0 0.86603 0 1 0 -0.86603 0 0.499992 3829c01.dat
1 14 32.680319 -80 -1.9991199999999978 0.499992 0 0.86603 0 1 0 -0.86603 0 0.499992 3710.dat
1 14 120.26461900000001 -104 106.30134 -0.86603 0 0.499992 0 1 0 -0.499992 0 -0.86603 3010.dat
1 14 170.263819 -104 19.69834 -0.86603 0 0.499992 0 1 0 -0.499992 0 -0.86603 3010.dat
1 14 101.96271899999999 -104 38.00024 0.499992 0 0.86603 0 1 0 -0.86603 0 0.499992 3010.dat
1 14 -1.9608809999999866 -80 -21.998800000000003 0.499992 0 0.86603 0 1 0 -0.86603 0 0.499992 2436a.dat
1 14 120.26461900000001 -128 106.30134 -0.86603 0 0.499992 0 1 0 -0.499992 0 -0.86603 3010.dat
1 14 170.263819 -128 19.69834 -0.86603 0 0.499992 0 1 0 -0.499992 0 -0.86603 3010.dat
1 0 32.680319 -104 -1.9991199999999978 0.499992 0 0.86603 0 1 0 -0.86603 0 0.499992 3004.dat
1 14 65.00067899999999 -104 -17.98017999999999 0.499992 0 0.86603 0 1 0 -0.86603 0 0.499992 3189.dat
1 14 35.001159 -104 33.98162 0.499992 0 0.86603 0 1 0 -0.86603 0 0.499992 3188.dat
1 14 171.245119 -128 77.9996 0.499992 0 0.86603 0 1 0 -0.86603 0 0.499992 4215b.dat
1 7 -21.01354099999999 -70 -32.99862399999999 0.499992 0.86603 0 0 0 -1 -0.86603 0.499992 0 3023.dat
1 46 -6.01378099999998 -70 -58.979524000000005 0.499992 0.86603 0 0 0 -1 -0.86603 0.499992 0 3024.dat
1 46 -36.013301 -70 -7.017723999999994 0.499992 0.86603 0 0 0 -1 -0.86603 0.499992 0 3024.dat
1 383 -27.941781000000006 -70 -36.99856 0.499992 0.86603 0 0 0 -1 -0.86603 0.499992 0 2412b.dat
1 14 32.680319 -104 -1.9991199999999978 0.499992 0 0.86603 0 1 0 -0.86603 0 0.499992 4858.dat
1 14 162.58481899999998 -152 72.99968 0.499992 0 0.86603 0 1 0 -0.86603 0 0.499992 2456.dat
1 14 161.603519 -152 14.698419999999999 0.499992 0 0.86603 0 1 0 -0.86603 0 0.499992 3040b.dat
1 14 111.604319 -152 101.30142 0.499992 0 0.86603 0 1 0 -0.86603 0 0.499992 3040b.dat
1 43 50.000919 -136 8.000720000000001 0.499992 0 0.86603 0 1 0 -0.86603 0 0.499992 2437.dat
1 14 196.244719 -160 34.69810000000001 -0.499992 0 -0.86603 0 1 0 0.86603 0 -0.499992 4085c.dat
1 383 213.565319 -72 44.69794 -0.499992 0 -0.86603 0 1 0 0.86603 0 -0.499992 71184.dat
1 14 146.245519 -160 121.3011 -0.499992 0 -0.86603 0 1 0 0.86603 0 -0.499992 4085c.dat
1 383 163.56611900000001 -72 131.30094 -0.499992 0 -0.86603 0 1 0 0.86603 0 -0.499992 71184.dat
1 14 162.58481899999998 -176 72.99968 0.499992 0 0.86603 0 1 0 -0.86603 0 0.499992 3001.dat
1 14 170.263819 -160 19.69834 -0.86603 0 0.499992 0 1 0 -0.499992 0 -0.86603 2412b.dat
1 14 120.26461900000001 -160 106.30134 -0.86603 0 0.499992 0 1 0 -0.499992 0 -0.86603 2412b.dat
1 14 171.245119 -184.00000000000003 77.9996 0.499992 0 0.86603 0 1 0 -0.86603 0 0.499992 3023.dat
1 14 186.24487900000003 -184.00000000000003 52.0187 0.86603 0 -0.499992 0 1 0 0.499992 0 0.86603 4085c.dat
1 14 156.245359 -184.00000000000003 103.9805 -0.86603 0 0.499992 0 1 0 -0.499992 0 -0.86603 4085c.dat
1 14 153.924519 -184.00000000000003 67.99976 0.499992 0 0.86603 0 1 0 -0.86603 0 0.499992 4315.dat
1 14 141.800099 -179.00000000000003 60.999872 0.499992 0 0.86603 0 1 0 -0.86603 0 0.499992 4474.dat
1 383 146.245519 -192.00000000000003 121.3011 0.499992 0 0.86603 0 1 0 -0.86603 0 0.499992 71182.dat
1 383 196.244719 -192.00000000000003 34.69810000000001 0.499992 0 0.86603 0 1 0 -0.86603 0 0.499992 71182.dat
1 15 3.0203550000000097 -27 29.37422 -0.86603 0 0.499992 0 1 0 -0.499992 0 -0.86603 6014.dat
1 0 0.020403000000001725 -27 34.5704 -0.86603 0 0.499992 0 1 0 -0.499992 0 -0.86603 6015.dat
1 15 45.01968300000001 -27 -43.372299999999996 0.86603 0 -0.499992 0 1 0 0.499992 0 0.86603 6014.dat
1 0 48.01963500000001 -27 -48.568479999999994 0.86603 0 -0.499992 0 1 0 0.499992 0 0.86603 6015.dat
1 15 245.50875500000004 -27 169.37198 -0.86603 0 0.499992 0 1 0 -0.499992 0 -0.86603 6014.dat
1 0 242.50880300000003 -27 174.56816 -0.86603 0 0.499992 0 1 0 -0.499992 0 -0.86603 6015.dat
1 15 287.50808300000006 -27 96.62545999999999 0.86603 0 -0.499992 0 1 0 0.499992 0 0.86603 6014.dat
1 0 290.508035 -27 91.42927999999999 0.86603 0 -0.499992 0 1 0 0.499992 0 0.86603 6015.dat
1 15 193.54695500000003 -27 139.37246 -0.86603 0 0.499992 0 1 0 -0.499992 0 -0.86603 6014.dat
1 0 190.54700300000002 -27 144.56864000000002 -0.86603 0 0.499992 0 1 0 -0.499992 0 -0.86603 6015.dat
1 15 235.54628300000002 -27 66.62594 0.86603 0 -0.499992 0 1 0 0.499992 0 0.86603 6014.dat
1 0 238.54623500000002 -27 61.42976000000001 0.86603 0 -0.499992 0 1 0 0.499992 0 0.86603 6015.dat
1 383 76.463127 -70 82.16776999999999 0.86603 0 -0.499992 0 1 0 0.499992 0 0.86603 71137.dat
1 383 126.462327 -70 -4.435229999999997 -0.86603 0 0.499992 0 1 0 -0.499992 0 -0.86603 71137.dat
1 4 75.981819 -161.331909 23.00048 0.499992 0.40656990792 0.76466205453 0 0.8829510000000002 -0.469464 -0.86603 0.234728244288 0.44146843639200006 003432f.dat
