1 0 0 0 0 -1 0 0 0 1 0 0 0 -1 2445.dat
1 4 0 -8 10 -1 0 0 0 1 0 0 0 -1 60479.dat
1 4 -100 -8 -20 -1 0 0 0 1 0 0 0 -1 3020.dat
1 4 100 -8 -20 -1 0 0 0 1 0 0 0 -1 3020.dat
1 15 0 -8 -10 -1 0 0 0 1 0 0 0 -1 3023.dat
1 19 0 -16 10 -1 0 0 0 1 0 0 0 -1 3794a.dat
1 0 0 0 -60 -1 0 0 0 1 0 0 0 -1 3035.dat
1 4 -70 -8 -70 0 0 1 0 1 0 -1 0 0 3623.dat
1 4 70 -8 -70 0 0 1 0 1 0 -1 0 0 3623.dat
1 38 -50 -8 -30 0 0 1 0 1 0 -1 0 0 6141.dat
1 38 50 -8 -30 0 0 1 0 1 0 -1 0 0 6141.dat
1 15 0 -8 -30 1 0 0 0 1 0 0 0 1 2431.dat
1 15 0 -24.000000000000004 10 -1 0 0 0 1 0 0 0 -1 4081b.dat
1 4 -100 -32 -10 0 0 1 0 1 0 -1 0 0 3002.dat
1 4 100 -32 -10 0 0 1 0 1 0 -1 0 0 3002.dat
1 15 0 -32 10 0 0 1 0 1 0 -1 0 0 3070b.dat
1 71 -40 -24.000000000000004 -70 -1 0 0 0 1 0 0 0 -1 3039.dat
1 71 40 -24.000000000000004 -70 -1 0 0 0 1 0 0 0 -1 3039.dat
1 4 130 -32 -30 0 0 -1 0 1 0 1 0 0 87087.dat
1 4 130 -32 -10 0 0 -1 0 1 0 1 0 0 87087.dat
1 4 -130 -32 -10 0 0 1 0 1 0 -1 0 0 87087.dat
1 4 -130 -32 -30 0 0 1 0 1 0 -1 0 0 87087.dat
1 4 0 -32 -10 1 0 0 0 1 0 0 0 1 3004.dat
1 0 -70 -22 -100 1 0 0 0 1 0 0 0 1 3705.dat
1 71 -30 -22 -100 0 0 1 0 1 0 -1 0 0 59443.dat
1 71 0 -22 -100 -1 0 0 0 1 0 0 0 -1 4519.dat
1 71 30 -22 -100 0 0 1 0 1 0 -1 0 0 59443.dat
1 0 70 -22 -100 1 0 0 0 1 0 0 0 1 3705.dat
1 14 -55 -22 -100 0 0 -1 0 1 0 1 0 0 32123b.dat
1 14 55 -22 -100 0 0 -1 0 1 0 1 0 0 32123b.dat
1 72 -70 -32 -120 0 0 -1 0 1 0 1 0 0 32018.dat
1 72 70 -32 -120 0 0 -1 0 1 0 1 0 0 32018.dat
1 14 -85 -22 -100 0 0 -1 0 1 0 1 0 0 32123b.dat
1 14 85 -22 -100 0 0 -1 0 1 0 1 0 0 32123b.dat
1 4 0 -40 0 -1 0 0 0 1 0 0 0 -1 3034.dat
1 4 90 -40 -30 1 0 0 0 1 0 0 0 1 30357.dat
1 4 -90 -40 -30 0 0 -1 0 1 0 1 0 0 30357.dat
1 71 80 -22 -140 1 0 0 0 -1 0 0 0 -1 4274.dat
1 71 80 -22 -120 1 0 0 0 -1 0 0 0 -1 4274.dat
1 71 -80 -22 -120 -1 0 0 0 -1 0 0 0 1 4274.dat
1 71 -80 -22 -140 -1 0 0 0 -1 0 0 0 1 4274.dat
1 72 -70 -40 -30 0 0 -1 0 1 0 1 0 0 4085c.dat
1 72 70 -40 -30 0 0 1 0 1 0 -1 0 0 4085c.dat
1 0 -50 -26 -30 -1 0 0 0 1 0 0 0 -1 752.dat
1 0 -50 -26 -30 -1 0 0 0 -1 0 0 0 1 755.dat
1 0 -34 -78 -90 0 1 0 1 0 0 0 0 -1 752.dat
1 0 -34 -78 -90 0 -1 0 1 0 0 0 0 1 755.dat
1 0 -50.015556 -31.749530000000004 -30.033635000000004 -0.99996 0.008889 0 0.008888 0.999776 0.019222 0.00017100000000000004 0.019221 -0.999815 754.dat
1 0 -50.064858 -34.246138 -30.141203 -0.9997020000000001 0.024366000000000002 0.001332 0.024402 0.998285 0.05321800000000001 -0.000033 0.053235000000000005 -0.9985820000000001 754.dat
1 0 -50.15380100000001 -36.736197000000004 -30.337266 -0.999174 0.040386 0.004577 0.04063400000000001 0.9951920000000001 0.089118 -0.000956 0.08923100000000002 -0.996011 754.dat
1 0 -50.28750200000001 -39.213875 -30.635987 -0.9981980000000001 0.059098 0.010443 0.05996100000000001 0.989424 0.132082 -0.002526 0.13247000000000003 -0.991184 754.dat
1 0 -50.465317 -41.673916000000006 -31.038853 -0.99691 0.076293 0.01868 0.078376 0.98188 0.17253500000000002 -0.005179 0.173466 -0.984826 754.dat
1 0 -50.689587 -44.108485 -31.555214 -0.994966 0.09548100000000001 0.030441000000000003 0.099842 0.97064 0.21883700000000003 -0.008652 0.220775 -0.9752860000000001 754.dat
1 0 -50.958073000000006 -46.512275 -32.1834 -0.9926390000000002 0.112523 0.044802 0.12035400000000002 0.957826 0.260928 -0.013552 0.2644000000000001 -0.9643180000000001 754.dat
1 0 -51.27412700000001 -48.873551000000006 -32.937496 -0.989112 0.13239300000000004 0.064268 0.14592500000000003 0.938925 0.311649 -0.019082 0.317634 -0.948021 754.dat
1 0 -51.636232 -51.1833 -33.819926 -0.984813 0.150192 0.087092 0.171651 0.917555 0.358649 -0.026045 0.368152 -0.9294010000000001 754.dat
1 0 -52.04362700000001 -53.42862 -34.837514 -0.978944 0.168459 0.115281 0.20133200000000004 0.8899650000000001 0.40917900000000007 -0.033667 0.42377400000000004 -0.905142 754.dat
1 0 -52.489748 -55.605615 -35.97972300000001 -0.972325 0.18278700000000003 0.14551000000000003 0.22959400000000002 0.862867 0.450273 -0.043252000000000006 0.47122 -0.880954 754.dat
1 0 -52.971221 -57.704071 -37.247240000000005 -0.963562 0.19685300000000003 0.1811 0.262143 0.829599 0.492997 -0.053193 0.522507 -0.850974 754.dat
1 0 -53.484660000000005 -59.71144600000001 -38.643271999999996 -0.9525620000000001 0.209084 0.22115400000000002 0.297631 0.791749 0.5334320000000001 -0.06356600000000001 0.57395 -0.81642 754.dat
1 0 -54.02291000000001 -61.624092 -40.158041 -0.939741 0.218033 0.263341 0.333537 0.7538660000000001 0.566073 -0.075102 0.619796 -0.7811610000000001 754.dat
1 0 -54.580191000000006 -63.42881500000001 -41.793211 -0.9233940000000002 0.22507100000000002 0.3109430000000001 0.37419 0.708411 0.598445 -0.08558300000000002 0.668953 -0.7383620000000001 754.dat
1 0 -55.148221 -65.12942100000001 -43.533606000000006 -0.905514 0.228186 0.3577370000000001 0.41286900000000004 0.668342 0.618755 -0.09789900000000001 0.70799 -0.699404 754.dat
1 0 -55.719201 -66.719413 -45.374489000000004 -0.8837080000000002 0.228535 0.408451 0.455254 0.62229 0.6367880000000001 -0.10864600000000002 0.748684 -0.6539640000000001 754.dat
1 0 -56.284487 -68.192936 -47.31164 -0.8587230000000001 0.22512500000000002 0.460341 0.498448 0.575447 0.6483910000000002 -0.11893300000000001 0.7862440000000002 -0.606363 754.dat
1 0 -56.835823000000005 -69.556191 -49.33204500000001 -0.8312980000000001 0.218612 0.51103 0.5404790000000002 0.532493 0.651409 -0.129715 0.817716 -0.560816 754.dat
1 0 -57.310758 -70.67631399999999 -51.280327 -0.796047 0.200803 0.570954 0.590372 0.465407 0.659438 -0.133309 0.862018 -0.4890340000000001 756.dat
1 0 -58.154048 -72.62757300000001 -55.014387000000006 -0.7311830000000001 -0.174259 -0.65955 0.664688 -0.399534 -0.631318 -0.1535 -0.900004 0.40796 754.dat
1 0 -58.573536000000004 -73.59749300000001 -57.279098000000005 -0.692219 -0.152771 -0.7053330000000001 0.703458 -0.36111400000000005 -0.612164 -0.16118400000000002 -0.9199230000000002 0.357438 754.dat
1 0 -58.933561 -74.46894 -59.593344 -0.649746 -0.123616 -0.750033 0.741651 -0.319452 -0.589834 -0.16668600000000003 -0.939505 0.299242 754.dat
1 0 -59.219061 -75.240421 -61.953132000000004 -0.605827 -0.092268 -0.790228 0.7767750000000001 -0.283367 -0.562427 -0.17203 -0.954563 0.24334300000000003 754.dat
1 0 -59.417654000000006 -75.918891 -64.349875 -0.558608 -0.049522000000000004 -0.8279520000000001 0.810705 -0.24351900000000004 -0.532406 -0.175256 -0.968631 0.17617900000000003 754.dat
1 0 -59.506591 -76.501591 -66.77818500000001 -0.510289 -0.003036 -0.8599980000000002 0.8413690000000001 -0.20880000000000004 -0.498498 -0.178054 -0.977954 0.109103 754.dat
1 0 -59.47087700000001 -76.997016 -69.226685 -0.45966300000000004 0.054718 -0.8864060000000001 0.8698600000000001 -0.17347100000000001 -0.46179200000000004 -0.179034 -0.9833180000000001 0.032141 754.dat
1 0 -59.283611 -77.405532 -71.683798 -0.407506 0.12209700000000001 -0.905003 0.895628 -0.140053 -0.422179 -0.178295 -0.9825870000000001 -0.052281 754.dat
1 0 -58.918482 -77.731211 -74.132428 -0.353727 0.202166 -0.9132390000000001 0.918825 -0.10760900000000001 -0.37971200000000005 -0.175038 -0.973421 -0.14769100000000002 754.dat
1 0 -58.342994 -77.976832 -76.54871399999999 -0.298739 0.296051 -0.9072540000000001 0.939354 -0.076566 -0.334293 -0.16843300000000003 -0.9520990000000001 -0.255223 754.dat
1 0 -57.521454 -78.146105 -78.89831900000001 -0.243109 0.405248 -0.8812900000000001 0.957151 -0.04716100000000001 -0.285722 -0.157351 -0.9129900000000001 -0.37641800000000003 754.dat
1 0 -56.421557 -78.244857 -81.13428300000001 -0.189594 0.521896 -0.831672 0.971721 -0.021692 -0.235133 -0.140756 -0.852733 -0.503025 754.dat
1 0 -55.021833 -78.282425 -83.19485499999999 -0.138691 0.650114 -0.747072 0.9832790000000001 0.000501 -0.18210500000000002 -0.118015 -0.759837 -0.6393130000000001 754.dat
1 0 -53.318768 -78.27083200000001 -85.013237 -0.09834800000000002 0.7563360000000001 -0.646749 0.9908870000000001 0.014317000000000002 -0.133936 -0.092041 -0.6540270000000001 -0.7508510000000002 754.dat
1 0 -51.361341 -78.229072 -86.55357699999999 -0.066964 0.8478340000000001 -0.526016 0.995623 0.022333000000000002 -0.09075 -0.065194 -0.529791 -0.8456190000000001 754.dat
1 0 -49.193242 -78.171823 -87.78242 -0.044862 0.914681 -0.40167900000000006 0.9981250000000002 0.02428 -0.05618700000000001 -0.041641 -0.4034460000000001 -0.9140550000000001 754.dat
1 0 -46.875627 -78.113116 -88.70219800000001 -0.029645 0.9580500000000001 -0.285063 0.9992820000000001 0.021675 -0.031074 -0.023591 -0.285779 -0.9580050000000001 754.dat
1 0 -44.464119000000004 -78.06262000000001 -89.34415700000001 -0.019347000000000003 0.9817180000000001 -0.18935800000000003 0.9997450000000001 0.016789 -0.015103 -0.011648000000000002 -0.189602 -0.9817920000000001 754.dat
1 0 -42.000763 -78.025461 -89.753435 -0.010885 0.994582 -0.10338800000000001 0.999932 0.010385000000000002 -0.005378000000000001 -0.004275 -0.10343900000000002 -0.9946270000000001 754.dat
1 0 -39.395572 -78.004653 -89.958123 -0.0030640000000000003 0.999621 -0.02737 0.9999950000000001 0.003046 -0.0007020000000000001 -0.000619 -0.027372000000000004 -0.9996250000000001 754.dat
1 0 50 -26 -30 -1 0 0 0 1 0 0 0 -1 752.dat
1 0 50 -26 -30 -1 0 0 0 -1 0 0 0 1 755.dat
1 0 34 -78 -90 0 -1 0 -1 0 0 0 0 -1 752.dat
1 0 34 -78 -90 0 1 0 -1 0 0 0 0 1 755.dat
1 0 50.015556 -31.749530000000004 -30.033635000000004 -0.99996 -0.008889 0 -0.008888 0.999776 0.019222 -0.00017100000000000004 0.019221 -0.999815 754.dat
1 0 50.064858 -34.246138 -30.141203 -0.9997020000000001 -0.024366000000000002 -0.001332 -0.024402 0.998285 0.05321800000000001 0.000033 0.053235000000000005 -0.9985820000000001 754.dat
1 0 50.15380100000001 -36.736197000000004 -30.337266 -0.999174 -0.040386 -0.004577 -0.04063400000000001 0.9951920000000001 0.089118 0.000956 0.08923100000000002 -0.996011 754.dat
1 0 50.28750200000001 -39.213875 -30.635987 -0.9981980000000001 -0.059098 -0.010443 -0.05996100000000001 0.989424 0.132082 0.002526 0.13247000000000003 -0.991184 754.dat
1 0 50.465317 -41.673916000000006 -31.038853 -0.99691 -0.076293 -0.01868 -0.078376 0.98188 0.17253500000000002 0.005179 0.173466 -0.984826 754.dat
1 0 50.689587 -44.108485 -31.555214 -0.994966 -0.09548100000000001 -0.030441000000000003 -0.099842 0.97064 0.21883700000000003 0.008652 0.220775 -0.9752860000000001 754.dat
1 0 50.958073000000006 -46.512275 -32.1834 -0.9926390000000002 -0.112523 -0.044802 -0.12035400000000002 0.957826 0.260928 0.013552 0.2644000000000001 -0.9643180000000001 754.dat
1 0 51.27412700000001 -48.873551000000006 -32.937496 -0.989112 -0.13239300000000004 -0.064268 -0.14592500000000003 0.938925 0.311649 0.019082 0.317634 -0.948021 754.dat
1 0 51.636232 -51.1833 -33.819926 -0.984813 -0.150192 -0.087092 -0.171651 0.917555 0.358649 0.026045 0.368152 -0.9294010000000001 754.dat
1 0 52.04362700000001 -53.42862 -34.837514 -0.978944 -0.168459 -0.115281 -0.20133200000000004 0.8899650000000001 0.40917900000000007 0.033667 0.42377400000000004 -0.905142 754.dat
1 0 52.489748 -55.605615 -35.97972300000001 -0.972325 -0.18278700000000003 -0.14551000000000003 -0.22959400000000002 0.862867 0.450273 0.043252000000000006 0.47122 -0.880954 754.dat
1 0 52.971221 -57.704071 -37.247240000000005 -0.963562 -0.19685300000000003 -0.1811 -0.262143 0.829599 0.492997 0.053193 0.522507 -0.850974 754.dat
1 0 53.484660000000005 -59.71144600000001 -38.643271999999996 -0.9525620000000001 -0.209084 -0.22115400000000002 -0.297631 0.791749 0.5334320000000001 0.06356600000000001 0.57395 -0.81642 754.dat
1 0 54.02291000000001 -61.624092 -40.158041 -0.939741 -0.218033 -0.263341 -0.333537 0.7538660000000001 0.566073 0.075102 0.619796 -0.7811610000000001 754.dat
1 0 54.580191000000006 -63.42881500000001 -41.793211 -0.9233940000000002 -0.22507100000000002 -0.3109430000000001 -0.37419 0.708411 0.598445 0.08558300000000002 0.668953 -0.7383620000000001 754.dat
1 0 55.148221 -65.12942100000001 -43.533606000000006 -0.905514 -0.228186 -0.3577370000000001 -0.41286900000000004 0.668342 0.618755 0.09789900000000001 0.70799 -0.699404 754.dat
1 0 55.719201 -66.719413 -45.374489000000004 -0.8837080000000002 -0.228535 -0.408451 -0.455254 0.62229 0.6367880000000001 0.10864600000000002 0.748684 -0.6539640000000001 754.dat
1 0 56.284487 -68.192936 -47.31164 -0.8587230000000001 -0.22512500000000002 -0.460341 -0.498448 0.575447 0.6483910000000002 0.11893300000000001 0.7862440000000002 -0.606363 754.dat
1 0 56.835823000000005 -69.556191 -49.33204500000001 -0.8312980000000001 -0.218612 -0.51103 -0.5404790000000002 0.532493 0.651409 0.129715 0.817716 -0.560816 754.dat
1 0 57.310758 -70.67631399999999 -51.280327 -0.796047 -0.200803 -0.570954 -0.590372 0.465407 0.659438 0.133309 0.862018 -0.4890340000000001 756.dat
1 0 58.154048 -72.62757300000001 -55.014387000000006 -0.7311830000000001 0.174259 0.65955 -0.664688 -0.399534 -0.631318 0.1535 -0.900004 0.40796 754.dat
1 0 58.573536000000004 -73.59749300000001 -57.279098000000005 -0.692219 0.152771 0.7053330000000001 -0.703458 -0.36111400000000005 -0.612164 0.16118400000000002 -0.9199230000000002 0.357438 754.dat
1 0 58.933561 -74.46894 -59.593344 -0.649746 0.123616 0.750033 -0.741651 -0.319452 -0.589834 0.16668600000000003 -0.939505 0.299242 754.dat
1 0 59.219061 -75.240421 -61.953132000000004 -0.605827 0.092268 0.790228 -0.7767750000000001 -0.283367 -0.562427 0.17203 -0.954563 0.24334300000000003 754.dat
1 0 59.417654000000006 -75.918891 -64.349875 -0.558608 0.049522000000000004 0.8279520000000001 -0.810705 -0.24351900000000004 -0.532406 0.175256 -0.968631 0.17617900000000003 754.dat
1 0 59.506591 -76.501591 -66.77818500000001 -0.510289 0.003036 0.8599980000000002 -0.8413690000000001 -0.20880000000000004 -0.498498 0.178054 -0.977954 0.109103 754.dat
1 0 59.47087700000001 -76.997016 -69.226685 -0.45966300000000004 -0.054718 0.8864060000000001 -0.8698600000000001 -0.17347100000000001 -0.46179200000000004 0.179034 -0.9833180000000001 0.032141 754.dat
1 0 59.283611 -77.405532 -71.683798 -0.407506 -0.12209700000000001 0.905003 -0.895628 -0.140053 -0.422179 0.178295 -0.9825870000000001 -0.052281 754.dat
1 0 58.918482 -77.731211 -74.132428 -0.353727 -0.202166 0.9132390000000001 -0.918825 -0.10760900000000001 -0.37971200000000005 0.175038 -0.973421 -0.14769100000000002 754.dat
1 0 58.342994 -77.976832 -76.54871399999999 -0.298739 -0.296051 0.9072540000000001 -0.939354 -0.076566 -0.334293 0.16843300000000003 -0.9520990000000001 -0.255223 754.dat
1 0 57.521454 -78.146105 -78.89831900000001 -0.243109 -0.405248 0.8812900000000001 -0.957151 -0.04716100000000001 -0.285722 0.157351 -0.9129900000000001 -0.37641800000000003 754.dat
1 0 56.421557 -78.244857 -81.13428300000001 -0.189594 -0.521896 0.831672 -0.971721 -0.021692 -0.235133 0.140756 -0.852733 -0.503025 754.dat
1 0 55.021833 -78.282425 -83.19485499999999 -0.138691 -0.650114 0.747072 -0.9832790000000001 0.000501 -0.18210500000000002 0.118015 -0.759837 -0.6393130000000001 754.dat
1 0 53.318768 -78.27083200000001 -85.013237 -0.09834800000000002 -0.7563360000000001 0.646749 -0.9908870000000001 0.014317000000000002 -0.133936 0.092041 -0.6540270000000001 -0.7508510000000002 754.dat
1 0 51.361341 -78.229072 -86.55357699999999 -0.066964 -0.8478340000000001 0.526016 -0.995623 0.022333000000000002 -0.09075 0.065194 -0.529791 -0.8456190000000001 754.dat
1 0 49.193242 -78.171823 -87.78242 -0.044862 -0.914681 0.40167900000000006 -0.9981250000000002 0.02428 -0.05618700000000001 0.041641 -0.4034460000000001 -0.9140550000000001 754.dat
1 0 46.875627 -78.113116 -88.70219800000001 -0.029645 -0.9580500000000001 0.285063 -0.9992820000000001 0.021675 -0.031074 0.023591 -0.285779 -0.9580050000000001 754.dat
1 0 44.464119000000004 -78.06262000000001 -89.34415700000001 -0.019347000000000003 -0.9817180000000001 0.18935800000000003 -0.9997450000000001 0.016789 -0.015103 0.011648000000000002 -0.189602 -0.9817920000000001 754.dat
1 0 42.000763 -78.025461 -89.753435 -0.010885 -0.994582 0.10338800000000001 -0.999932 0.010385000000000002 -0.005378000000000001 0.004275 -0.10343900000000002 -0.9946270000000001 754.dat
1 0 39.395572 -78.004653 -89.958123 -0.0030640000000000003 -0.999621 0.02737 -0.9999950000000001 0.003046 -0.0007020000000000001 0.000619 -0.027372000000000004 -0.9996250000000001 754.dat
1 4 0 -40 -110 1 0 0 0 1 0 0 0 1 3460.dat
1 0 50 -48.00000000000001 -110 1 0 0 0 1 0 0 0 1 3623.dat
1 0 -50 -48.00000000000001 -110 1 0 0 0 1 0 0 0 1 3623.dat
1 71 50 -56.00000000000001 -110 1 0 0 0 1 0 0 0 1 3623.dat
1 71 -50 -56.00000000000001 -110 1 0 0 0 1 0 0 0 1 3623.dat
1 14 10 -64 -100 0 0 -1 0 1 0 1 0 0 32000.dat
1 14 -10 -64 -100 0 0 -1 0 1 0 1 0 0 32000.dat
1 15 -30 -80 -110 0 0 -1 0 1 0 1 0 0 3005.dat
1 15 30 -80 -110 0 0 -1 0 1 0 1 0 0 3005.dat
1 15 0 -88 -110 -1 0 0 0 1 0 0 0 -1 3004.dat
1 15 50 -80 -110 0 0 -1 0 1 0 1 0 0 3040b.dat
1 15 -50 -80 -110 0 0 1 0 1 0 -1 0 0 3040b.dat
1 15 -30 -104 -110 0 0 1 0 1 0 -1 0 0 50950.dat
1 15 30 -104 -110 0 0 -1 0 1 0 1 0 0 50950.dat
1 0 20 -54 -90 1 0 0 0 1 0 0 0 1 2780.dat
1 0 -20 -54 -90 -1 0 0 0 1 0 0 0 -1 2780.dat
1 71 40 -54 -90 -1 0 0 0 1 0 0 0 -1 62462.dat
1 71 -40 -54 -90 -1 0 0 0 1 0 0 0 -1 62462.dat
1 47 -10 -88 -90 0 0 1 0 1 0 -1 0 0 4070.dat
1 47 10 -88 -90 0 0 -1 0 1 0 1 0 0 4070.dat
1 71 0 -24.000000000000004 -50 1 0 0 0 1 0 0 0 1 3039.dat
1 0 0 -48.00000000000001 -50 1 0 0 0 1 0 0 0 1 3700.dat
1 19 0 -38 -40 0 0 -1 0 1 0 1 0 0 3749.dat
1 14 0 -38 -35 -1 0 0 0 1 0 0 0 -1 32123b.dat
1 71 0 -38 -25 -1 0 0 0 1 0 0 0 -1 4185a.dat
1 0 0 -62 -60 0 0 -1 0 1 0 1 0 0 2780.dat
1 0 0 -72 -50 1 0 0 0 1 0 0 0 1 3700.dat
1 71 0 -62 -70 0.707 0 0.707 0.707 0 -0.707 0 1 0 44809.dat
1 71 -21.207 -54.931 -70 -0.707 0.707 0 -0.707 -0.707 0 0 0 1 4274.dat
1 0 -26.862 -60.586 -70 0 0.707 0.707 0 0.707 -0.707 -1 0 0 3024.dat
1 4 28.275000000000002 -62 -70 -0.707 0.707 0 0.707 0.707 0 0 0 -1 32054.dat
1 80 -32.517 -66.242 -70 0 0.707 0.707 0 0.707 -0.707 -1 0 0 6141.dat
1 80 -38.172 -71.897 -70 0 0.707 0.707 0 0.707 -0.707 -1 0 0 6141.dat
1 0 -10 -96.00000000000001 -50 1 0 0 0 1 0 0 0 1 6541.dat
1 0 -10 -86 -40 0 0 -1 0 1 0 1 0 0 2780.dat
1 0 10 -80 -70 0 0 -1 0 1 0 1 0 0 2420.dat
1 80 -10 -88 -70 0 0 1 0 1 0 -1 0 0 6141.dat
1 80 10 -88 -70 0 0 1 0 1 0 -1 0 0 6141.dat
1 0 -10 -104 -50 0 0 1 0 1 0 -1 0 0 3024.dat
1 71 -10 -86 -30 1 0 0 0 1 0 0 0 1 42610.dat
1 71 0 -96.00000000000001 -80 0 0 1 0 1 0 -1 0 0 4032a.dat
1 71 0 -104 -80 0 0 1 0 1 0 -1 0 0 4032a.dat
1 15 28.000000000000004 -22 30 0 -1 0 0 0 1 -1 0 0 3005.dat
1 15 36 -22 30 0 -1 0 0 0 -1 1 0 0 4085c.dat
1 15 60 -22 30 0 -1 0 0 0 1 -1 0 0 3005.dat
1 15 84 -22 30 0 -1 0 0 0 1 -1 0 0 3005.dat
1 15 92.00000000000001 -22 30 0 -1 0 0 0 1 -1 0 0 3024.dat
1 15 100 -22 30 0 -1 0 0 0 1 -1 0 0 3024.dat
1 15 108 -22 30 0 -1 0 0 0 -1 1 0 0 4085c.dat
1 15 156 -22 -10 0 -1 0 -1 0 0 0 0 -1 6005.dat
1 71 118.50000000000001 -2 30 0 1 0 1 0 0 0 0 -1 87618.dat
1 15 156 -22 -20 0 -1 0 0 0 -1 1 0 0 3069b.dat
1 15 148 -22 -30 0 -1 0 0 0 1 -1 0 0 3024.dat
1 15 -12.000000000000002 -22 30 0 1 0 0 0 1 1 0 0 3024.dat
1 15 -36 -22 30 0 1 0 0 0 1 1 0 0 3005.dat
1 15 -60 -22 30 0 1 0 0 0 1 1 0 0 3005.dat
1 15 -84 -22 30 0 1 0 0 0 1 1 0 0 3005.dat
1 15 -108 -22 30 0 1 0 0 0 1 1 0 0 3005.dat
1 15 -156 -22 -10 0 1 0 1 0 0 0 0 -1 6005.dat
1 15 -156 -22 -20 0 1 0 0 0 -1 -1 0 0 3069b.dat
1 15 -148 -22 -30 0 1 0 1 0 0 0 0 -1 3024.dat
1 0 -80 -22 -240 -1 0 0 0 1 0 0 0 -1 2780.dat
1 0 -80 -22 -180 -1 0 0 0 1 0 0 0 -1 2780.dat
1 72 -90 -32 -300 0 0 -1 0 1 0 1 0 0 32018.dat
1 0 -80 -22 -360 -1 0 0 0 1 0 0 0 -1 2780.dat
1 0 -80 -22 -420 -1 0 0 0 1 0 0 0 -1 2780.dat
1 71 -80 -22 -460 -1 0 0 0 -1 0 0 0 1 4274.dat
1 71 -80 -22 -480 -1 0 0 0 -1 0 0 0 1 4274.dat
1 72 -70 -32 -480 0 0 -1 0 1 0 1 0 0 32018.dat
1 0 70 -22 -500 -1 0 0 0 1 0 0 0 -1 3705.dat
1 71 30 -22 -500 0 0 -1 0 1 0 1 0 0 59443.dat
1 71 0 -22 -500 1 0 0 0 1 0 0 0 1 4519.dat
1 71 -30 -22 -500 0 0 -1 0 1 0 1 0 0 59443.dat
1 0 -70 -22 -500 -1 0 0 0 1 0 0 0 -1 3705.dat
1 14 55 -22 -500 0 0 1 0 1 0 -1 0 0 32123b.dat
1 14 -55 -22 -500 0 0 1 0 1 0 -1 0 0 32123b.dat
1 72 90 -32 -300 0 0 -1 0 1 0 1 0 0 32018.dat
1 0 80 -22 -240 -1 0 0 0 1 0 0 0 -1 2780.dat
1 0 80 -22 -180 -1 0 0 0 1 0 0 0 -1 2780.dat
1 0 80 -22 -420 -1 0 0 0 1 0 0 0 -1 2780.dat
1 0 80 -22 -360 -1 0 0 0 1 0 0 0 -1 2780.dat
1 72 70 -32 -480 0 0 -1 0 1 0 1 0 0 32018.dat
1 71 80 -22 -460 1 0 0 0 -1 0 0 0 -1 4274.dat
1 71 80 -22 -480 1 0 0 0 -1 0 0 0 -1 4274.dat
1 14 85 -22 -500 0 0 -1 0 1 0 1 0 0 32123b.dat
1 14 -85 -22 -500 0 0 -1 0 1 0 1 0 0 32123b.dat
1 0 80 0 -300 0 0 1 0 1 0 -1 0 0 2445.dat
1 4 70 -8 -300 0 0 1 0 1 0 -1 0 0 60479.dat
1 0 100 -8 -300 0 0 1 0 1 0 -1 0 0 2445.dat
1 4 110 -32 -420 0 0 -1 0 1 0 1 0 0 3660.dat
1 4 110 -32 -380 0 0 -1 0 1 0 1 0 0 3660.dat
1 4 110 -32 -340 0 0 -1 0 1 0 1 0 0 3660.dat
1 4 110 -32 -300 0 0 -1 0 1 0 1 0 0 3660.dat
1 4 110 -32 -260 0 0 -1 0 1 0 1 0 0 3660.dat
1 4 110 -32 -220 0 0 -1 0 1 0 1 0 0 3660.dat
1 4 110 -32 -180 0 0 -1 0 1 0 1 0 0 3660.dat
1 4 70 -32 -320 0 0 1 0 1 0 -1 0 0 3660.dat
1 4 70 -32 -280 0 0 1 0 1 0 -1 0 0 3660.dat
1 0 -80 0 -300 0 0 -1 0 1 0 1 0 0 2445.dat
1 4 -70 -8 -300 0 0 -1 0 1 0 1 0 0 60479.dat
1 0 -100 -8 -300 0 0 -1 0 1 0 1 0 0 2445.dat
1 4 -110 -32 -180 0 0 1 0 1 0 -1 0 0 3660.dat
1 4 -110 -32 -220 0 0 1 0 1 0 -1 0 0 3660.dat
1 4 -110 -32 -260 0 0 1 0 1 0 -1 0 0 3660.dat
1 4 -110 -32 -300 0 0 1 0 1 0 -1 0 0 3660.dat
1 4 -110 -32 -340 0 0 1 0 1 0 -1 0 0 3660.dat
1 4 -110 -32 -380 0 0 1 0 1 0 -1 0 0 3660.dat
1 4 -110 -32 -420 0 0 1 0 1 0 -1 0 0 3660.dat
1 4 -70 -32 -280 0 0 -1 0 1 0 1 0 0 3660.dat
1 4 -70 -32 -320 0 0 -1 0 1 0 1 0 0 3660.dat
1 0 0 -40 -220 -1 0 0 0 1 0 0 0 -1 3029.dat
1 0 0 -40 -300 -1 0 0 0 1 0 0 0 -1 3029.dat
1 0 0 -40 -380 -1 0 0 0 1 0 0 0 -1 3029.dat
1 15 120 -40 -170 1 0 0 0 1 0 0 0 1 3023.dat
1 15 -120 -40 -170 1 0 0 0 1 0 0 0 1 3023.dat
1 15 130 -40 -430 1 0 0 0 1 0 0 0 1 3024.dat
1 15 -100 -40 -430 1 0 0 0 1 0 0 0 1 3710.dat
1 15 -130 -40 -300 0 0 -1 0 1 0 1 0 0 60479.dat
1 15 130 -40 -300 0 0 -1 0 1 0 1 0 0 60479.dat
1 15 110 -48.00000000000001 -210 1 0 0 0 1 0 0 0 1 3024.dat
1 71 -100 -48.00000000000001 -210 1 0 0 0 1 0 0 0 1 3023.dat
1 4 120 -48.00000000000001 -180 1 0 0 0 1 0 0 0 1 3022.dat
1 4 -120 -48.00000000000001 -180 1 0 0 0 1 0 0 0 1 3022.dat
1 4 130 -48.00000000000001 -320 0 0 1 0 1 0 -1 0 0 60479.dat
1 4 -130 -48.00000000000001 -220 0 0 1 0 1 0 -1 0 0 3069b.dat
1 4 -130 -48.00000000000001 -420 0 0 1 0 1 0 -1 0 0 3069b.dat
1 4 -130 -48.00000000000001 -320 0 0 1 0 1 0 -1 0 0 4162.dat
1 15 -100 -48.00000000000001 -240 1 0 0 0 1 0 0 0 1 3068b.dat
1 15 -20 -48.00000000000001 -240 1 0 0 0 1 0 0 0 1 3068b.dat
1 15 60 -48.00000000000001 -240 1 0 0 0 1 0 0 0 1 3068b.dat
1 15 100 -48.00000000000001 -280 1 0 0 0 1 0 0 0 1 3068b.dat
1 15 20 -48.00000000000001 -280 1 0 0 0 1 0 0 0 1 3068b.dat
1 15 -60 -48.00000000000001 -280 1 0 0 0 1 0 0 0 1 3068b.dat
1 15 -100 -48.00000000000001 -320 1 0 0 0 1 0 0 0 1 3068b.dat
1 15 -20 -48.00000000000001 -320 1 0 0 0 1 0 0 0 1 3068b.dat
1 15 60 -48.00000000000001 -320 1 0 0 0 1 0 0 0 1 3068b.dat
1 0 -100 -48.00000000000001 -280 1 0 0 0 1 0 0 0 1 3068b.dat
1 0 -60 -48.00000000000001 -240 1 0 0 0 1 0 0 0 1 3068b.dat
1 0 -60 -48.00000000000001 -320 1 0 0 0 1 0 0 0 1 3068b.dat
1 0 -20 -48.00000000000001 -280 1 0 0 0 1 0 0 0 1 3068b.dat
1 0 20 -48.00000000000001 -240 1 0 0 0 1 0 0 0 1 3068b.dat
1 0 100 -48.00000000000001 -240 1 0 0 0 1 0 0 0 1 3068b.dat
1 0 60 -48.00000000000001 -280 1 0 0 0 1 0 0 0 1 3068b.dat
1 0 20 -48.00000000000001 -320 1 0 0 0 1 0 0 0 1 3068b.dat
1 0 100 -48.00000000000001 -320 1 0 0 0 1 0 0 0 1 3068b.dat
1 0 -100 -48.00000000000001 -350 1 0 0 0 1 0 0 0 1 3069b.dat
1 0 60 -48.00000000000001 -350 1 0 0 0 1 0 0 0 1 3069b.dat
1 0 -20 -48.00000000000001 -350 1 0 0 0 1 0 0 0 1 3069b.dat
1 15 20 -48.00000000000001 -350 1 0 0 0 1 0 0 0 1 3069b.dat
1 15 -60 -48.00000000000001 -350 1 0 0 0 1 0 0 0 1 3069b.dat
1 15 100 -48.00000000000001 -350 1 0 0 0 1 0 0 0 1 3069b.dat
1 0 0 0 -600 1 0 0 0 1 0 0 0 1 2445.dat
1 4 90 -8 -610 1 0 0 0 1 0 0 0 1 3623.dat
1 4 -90 -8 -610 1 0 0 0 1 0 0 0 1 3623.dat
1 4 0 -8 -620 0 0 -1 0 1 0 1 0 0 3020.dat
1 15 -30 -8 -600 0 0 -1 0 1 0 1 0 0 3023.dat
1 15 30 -8 -600 0 0 -1 0 1 0 1 0 0 3023.dat
1 72 0 -16 -620 1 0 0 0 1 0 0 0 1 3022.dat
1 19 0 -16 -650 1 0 0 0 1 0 0 0 1 3794a.dat
1 72 -20 -32 -590 -1 0 0 0 1 0 0 0 -1 3747a.dat
1 72 20 -32 -590 -1 0 0 0 1 0 0 0 -1 3747a.dat
1 28 0 -24.000000000000004 -620 -1 0 0 0 1 0 0 0 -1 87580.dat
1 15 0 -24.000000000000004 -650 1 0 0 0 1 0 0 0 1 4081b.dat
1 4 -100 -8 -580 1 0 0 0 1 0 0 0 1 3020.dat
1 4 100 -8 -580 1 0 0 0 1 0 0 0 1 3020.dat
1 4 130 -32 -570 0 0 -1 0 1 0 1 0 0 87087.dat
1 4 130 -32 -590 0 0 -1 0 1 0 1 0 0 87087.dat
1 4 -130 -32 -570 0 0 1 0 1 0 -1 0 0 87087.dat
1 4 -130 -32 -590 0 0 1 0 1 0 -1 0 0 87087.dat
1 4 -110 -32 -610 0 0 -1 0 1 0 1 0 0 3005.dat
1 4 110 -32 -610 0 0 -1 0 1 0 1 0 0 3005.dat
1 4 30 -32 -610 0 0 -1 0 1 0 1 0 0 3005.dat
1 4 -30 -32 -610 0 0 -1 0 1 0 1 0 0 3005.dat
1 15 0 -32 -630 0 0 -1 0 1 0 1 0 0 63864.dat
1 4 0 -40 -580 0 0 -1 0 1 0 1 0 0 3022.dat
1 71 0 -40 -550 1 0 0 0 1 0 0 0 1 3460.dat
1 4 0 -40 -610 1 0 0 0 1 0 0 0 1 60479.dat
1 72 80 -40 -580 -1 0 0 0 1 0 0 0 -1 3795.dat
1 72 -80 -40 -580 -1 0 0 0 1 0 0 0 -1 3795.dat
1 0 70 -40 -500 0 0 1 0 1 0 -1 0 0 3710.dat
1 0 -70 -40 -500 0 0 1 0 1 0 -1 0 0 3710.dat
1 15 -12.000000000000002 -22 -670 0 1 0 0 0 -1 -1 0 0 3024.dat
1 15 -20 -22 -670 0 1 0 0 0 -1 -1 0 0 3024.dat
1 15 -30 -22 -680 0 0 1 1 0 0 0 1 0 4070.dat
1 15 -44 -22 -670 0 1 0 0 0 -1 -1 0 0 3024.dat
1 15 -52 -22 -670 0 1 0 0 0 -1 -1 0 0 3024.dat
1 15 -76 -22 -670 0 1 0 0 0 -1 -1 0 0 3005.dat
1 15 -156 -22 -580 0 1 0 -1 0 0 0 0 1 6060.dat
1 15 -156 -22 -580 0 1 0 0 0 1 1 0 0 3069b.dat
1 15 12.000000000000002 -22 -670 0 -1 0 0 0 1 -1 0 0 3024.dat
1 15 20 -22 -670 0 -1 0 0 0 1 -1 0 0 3024.dat
1 15 30 -22 -680 0 0 -1 -1 0 0 0 1 0 4070.dat
1 15 44 -22 -670 0 -1 0 0 0 1 -1 0 0 3024.dat
1 15 52 -22 -670 0 -1 0 0 0 1 -1 0 0 3024.dat
1 15 76 -22 -670 0 -1 0 0 0 1 -1 0 0 3005.dat
1 15 156 -22 -580 0 -1 0 1 0 0 0 0 1 6060.dat
1 15 156 -22 -580 0 -1 0 0 0 -1 1 0 0 3069b.dat
1 15 0 -22 -688 1 0 0 0 0 -1 0 1 0 2431.dat
1 15 0 -22 -688 1 0 0 0 0 -1 0 1 0 4614415d.dat
1 4 -90 -40 10 1 0 0 0 1 0 0 0 1 54200.dat
1 4 0 -48.00000000000001 10 -1 0 0 0 1 0 0 0 -1 4162.dat
1 4 90 -40 10 1 0 0 0 1 0 0 0 1 54200.dat
1 4 -120 -72 -190 -1 0 0 0 1 0 0 0 -1 3004.dat
1 4 90 -64 -200 0 0 1 0 1 0 -1 0 0 3004.dat
1 0 90 -48.00000000000001 -10 0 0 1 0 1 0 -1 0 0 3024.dat
1 0 -90 -48.00000000000001 -10 0 0 1 0 1 0 -1 0 0 3024.dat
1 4 110 -48.00000000000001 -30 1 0 0 0 1 0 0 0 1 3623.dat
1 4 -110 -48.00000000000001 -30 1 0 0 0 1 0 0 0 1 3623.dat
1 72 -70 -40 -20 1 0 0 0 1 0 0 0 1 61409.dat
1 72 70 -40 -20 1 0 0 0 1 0 0 0 1 61409.dat
1 71 -90 -72 -20 0 0 1 0 1 0 -1 0 0 3004.dat
1 71 90 -72 -20 0 0 1 0 1 0 -1 0 0 3004.dat
1 71 110 -72 -200 0 0 1 0 1 0 -1 0 0 3004.dat
1 71 80 -72 -200 0 0 1 0 1 0 -1 0 0 3731.dat
1 4 -120 -72 -170 -1 0 0 0 1 0 0 0 -1 3660.dat
1 4 120 -72 -30 1 0 0 0 1 0 0 0 1 3660.dat
1 4 -120 -72 -30 1 0 0 0 1 0 0 0 1 3660.dat
1 4 -110 -64 -10 -1 0 0 0 1 0 0 0 -1 85080.dat
1 4 110 -64 -10 0 0 -1 0 1 0 1 0 0 85080.dat
1 71 110 -96.00000000000001 -200 0 0 1 0 1 0 -1 0 0 3039.dat
1 4 110 -88 -10 0 0 -1 0 1 0 1 0 0 85080.dat
1 4 -110 -88 -10 -1 0 0 0 1 0 0 0 -1 85080.dat
1 4 -120 -96.00000000000001 -170 0 0 1 0 1 0 -1 0 0 3002.dat
1 4 -110 -96.00000000000001 -30 1 0 0 0 1 0 0 0 1 3622.dat
1 4 110 -96.00000000000001 -30 1 0 0 0 1 0 0 0 1 3622.dat
1 4 90 -96.00000000000001 -10 -1 0 0 0 1 0 0 0 -1 87087.dat
1 4 -90 -96.00000000000001 -10 -1 0 0 0 1 0 0 0 -1 87087.dat
1 4 120 -72 -170 -1 0 0 0 1 0 0 0 -1 3660.dat
1 71 -90 -76 24.000000000000004 0 0 1 -1 0 0 0 -1 0 3004.dat
1 71 90 -76 24.000000000000004 0 0 1 -1 0 0 0 -1 0 3004.dat
1 36 90 -76 32 0 0 1 -1 0 0 0 -1 0 3069b.dat
1 36 -90 -76 32 0 0 1 -1 0 0 0 -1 0 3069b.dat
1 71 110 -96.00000000000001 -160 0 0 1 0 1 0 -1 0 0 3004.dat
1 4 110 -112.00000000000001 -10 0 0 -1 0 1 0 1 0 0 85080.dat
1 4 -110 -112.00000000000001 -10 -1 0 0 0 1 0 0 0 -1 85080.dat
1 4 -120 -96.00000000000001 -50 -1 0 0 0 1 0 0 0 -1 3004.dat
1 4 120 -96.00000000000001 -50 -1 0 0 0 1 0 0 0 -1 3004.dat
1 0 110 -120 -120 0 0 1 0 1 0 -1 0 0 925.dat
1 0 -110 -120 -120 0 0 1 0 1 0 -1 0 0 925.dat
1 4 130 -120 -50 -1 0 0 0 1 0 0 0 -1 3005.dat
1 4 110 -120 -210 -1 0 0 0 1 0 0 0 -1 3005.dat
1 4 -130 -120 -50 -1 0 0 0 1 0 0 0 -1 3005.dat
1 4 -130 -120 -170 0 0 1 0 1 0 -1 0 0 3622.dat
1 4 130 -96.00000000000001 -30 0 0 1 0 1 0 -1 0 0 54200.dat
1 4 -130 -96.00000000000001 -30 0 0 -1 0 1 0 1 0 0 54200.dat
1 4 -90 -104 -10 0 0 -1 0 1 0 1 0 0 3623.dat
1 4 90 -104 -10 0 0 -1 0 1 0 1 0 0 3623.dat
1 4 90 -112.00000000000001 10 0 0 -1 0 1 0 1 0 0 3024.dat
1 4 -90 -112.00000000000001 10 0 0 -1 0 1 0 1 0 0 3024.dat
1 72 0 -112.00000000000001 -60 -1 0 0 0 1 0 0 0 -1 3033.dat
1 4 -70 -120 -10 -1 0 0 0 1 0 0 0 -1 6019.dat
1 4 70 -120 -10 -1 0 0 0 1 0 0 0 -1 6019.dat
1 320 0 -120 -10 -1 0 0 0 1 0 0 0 -1 3666.dat
1 320 70 -120 -30 -1 0 0 0 1 0 0 0 -1 3024.dat
1 320 -30 -120 -30 -1 0 0 0 1 0 0 0 -1 3024.dat
1 320 20 -120 -30 -1 0 0 0 1 0 0 0 -1 2431.dat
1 320 -30 -120 -80 0 0 1 0 1 0 -1 0 0 2431.dat
1 320 70 -120 -80 0 0 1 0 1 0 -1 0 0 2431.dat
1 73 0 -120 -60 0 0 1 0 1 0 -1 0 0 3068b.dat
1 73 0 -120 -100 0 0 1 0 1 0 -1 0 0 3068b.dat
1 73 40 -120 -60 0 0 1 0 1 0 -1 0 0 3068b.dat
1 73 40 -120 -100 0 0 1 0 1 0 -1 0 0 3068b.dat
1 28 -60 -120 -60 -1 0 0 0 1 0 0 0 -1 87580.dat
1 4 0 -128 -10 1 0 0 0 1 0 0 0 1 4162.dat
1 4 90 -120 -80 0 0 1 0 1 0 -1 0 0 3710.dat
1 4 0 -68 4 1 0 0 0 0 1 0 -1 0 3034.dat
1 0 -50 -58.00000000000001 12.000000000000002 -1 0 0 0 0 -1 0 -1 0 2420.dat
1 0 50 -58.00000000000001 12.000000000000002 0 0 1 -1 0 0 0 -1 0 2420.dat
1 0 0 -58.00000000000001 12.000000000000002 1 0 0 0 0 1 0 -1 0 3710.dat
1 0 -70 -88 12.000000000000002 0 0 1 -1 0 0 0 -1 0 60478.dat
1 0 70 -88 12.000000000000002 0 0 1 -1 0 0 0 -1 0 60478.dat
1 15 0 -78 4 1 0 0 0 0 1 0 -1 0 85984.dat
1 4 -30 -78 4 1 0 0 0 0 1 0 -1 0 54200.dat
1 4 30 -78 4 1 0 0 0 0 1 0 -1 0 54200.dat
1 4 60 -78 20 1 0 0 0 0 1 0 -1 0 3069b.dat
1 4 -60 -78 20 1 0 0 0 0 1 0 -1 0 3069b.dat
1 4 -50 -58.00000000000001 20 1 0 0 0 0 1 0 -1 0 63864.dat
1 4 50 -58.00000000000001 20 1 0 0 0 0 1 0 -1 0 63864.dat
1 4 0 -58.00000000000001 20 1 0 0 0 0 1 0 -1 0 3794a.dat
1 15 0 -78 14.000000000000002 -1 0 0 0 0.514 -0.857 0 -0.857 -0.514 4614415e.dat
1 4 0 -98 20 1 0 0 0 0 1 0 -1 0 4162.dat
1 80 0 -58.00000000000001 28.000000000000004 1 0 0 0 0 1 0 -1 0 6141.dat
1 4 -40 -98 12.000000000000002 1 0 0 0 0 1 0 -1 0 32028.dat
1 4 0 -98 12.000000000000002 1 0 0 0 0 1 0 -1 0 32028.dat
1 4 40 -98 12.000000000000002 1 0 0 0 0 1 0 -1 0 32028.dat
1 4 90 -120 -30 1 0 0 0 1 0 0 0 1 30357.dat
1 4 -90 -120 -30 0 0 -1 0 1 0 1 0 0 30357.dat
1 4 110 -144 -10 0 0 -1 0 1 0 1 0 0 85080.dat
1 4 -110 -144 -10 -1 0 0 0 1 0 0 0 -1 85080.dat
1 4 -130 -128 -40 0 0 1 0 1 0 -1 0 0 3023.dat
1 4 130 -128 -40 0 0 1 0 1 0 -1 0 0 3023.dat
1 71 -130 -136 -40 0 0 1 0 1 0 -1 0 0 3023.dat
1 71 130 -136 -40 0 0 1 0 1 0 -1 0 0 3023.dat
1 4 -90 -144 -10 0 0 1 0 1 0 -1 0 0 3622.dat
1 4 90 -144 -10 0 0 1 0 1 0 -1 0 0 3622.dat
1 4 -120 -128 -170 0 0 1 0 1 0 -1 0 0 3021.dat
1 70 -110 -128 -130 0 0 1 0 1 0 -1 0 0 6141.dat
1 70 -110 -128 -70 0 0 1 0 1 0 -1 0 0 6141.dat
1 70 110 -128 -130 0 0 1 0 1 0 -1 0 0 6141.dat
1 70 110 -128 -70 0 0 1 0 1 0 -1 0 0 6141.dat
1 4 130 -144 -40 0 0 -1 0 1 0 1 0 0 4175.dat
1 4 -130 -144 -40 0 0 1 0 1 0 -1 0 0 4175.dat
1 15 110 -128 -100 0 0 -1 0 1 0 1 0 0 44728.dat
1 15 -110 -128 -100 0 0 1 0 1 0 -1 0 0 44728.dat
1 4 90 -152 -30 1 0 0 0 1 0 0 0 1 30357.dat
1 4 -120 -152 -120 0 0 1 0 1 0 -1 0 0 2456.dat
1 4 -90 -152 -30 0 0 -1 0 1 0 1 0 0 30357.dat
1 4 -130 -152 -50 0 0 -1 0 1 0 1 0 0 3024.dat
1 4 130 -152 -50 0 0 -1 0 1 0 1 0 0 3024.dat
1 4 -50 -64 -210 0 0 -1 0 1 0 1 0 0 2357.dat
1 71 -40 -72 -200 0 0 -1 0 1 0 1 0 0 3731.dat
1 71 -70 -88 -210 1 0 0 0 1 0 0 0 1 4070.dat
1 4 -50 -80 -200 0 0 -1 0 1 0 1 0 0 3023.dat
1 4 -50 -88 -200 0 0 -1 0 1 0 1 0 0 3023.dat
1 71 -70 -112.00000000000001 -210 1 0 0 0 1 0 0 0 1 4070.dat
1 4 -50 -112.00000000000001 -200 0 0 1 0 1 0 -1 0 0 3004.dat
1 4 -60 -120 -210 -1 0 0 0 1 0 0 0 -1 3023.dat
1 4 -120 -56.00000000000001 -220 0 0 -1 0 1 0 1 0 0 2429.dat
1 4 -120 -56.00000000000001 -220 1 0 0 0 1 0 0 0 1 2430.dat
1 4 -100 -64 -210 -1 0 0 0 1 0 0 0 -1 3023.dat
1 4 -130 -56.00000000000001 -290 0 0 1 0 1 0 -1 0 0 3623.dat
1 4 -130 -80 -300 0 0 1 0 1 0 -1 0 0 3004.dat
1 4 -130 -80 -250 0 0 1 0 1 0 -1 0 0 3622.dat
1 4 -130 -104 -310 -1 0 0 0 1 0 0 0 -1 3005.dat
1 4 -110 -88 -210 -1 0 0 0 1 0 0 0 -1 3005.dat
1 4 -130 -88 -240 0 0 -1 0 1 0 1 0 0 3023.dat
1 4 -130 -104 -290 0 0 -1 0 1 0 1 0 0 87087.dat
1 4 -130 -104 -270 0 0 -1 0 1 0 1 0 0 87087.dat
1 71 -90 -88 -210 1 0 0 0 1 0 0 0 1 4070.dat
1 71 -90 -112.00000000000001 -210 1 0 0 0 1 0 0 0 1 4070.dat
1 4 -110 -112.00000000000001 -210 -1 0 0 0 1 0 0 0 -1 3005.dat
1 4 -130 -112.00000000000001 -240 0 0 1 0 1 0 -1 0 0 3004.dat
1 4 -130 -112.00000000000001 -290 0 0 1 0 1 0 -1 0 0 3623.dat
1 4 -130 -120 -290 0 0 1 0 1 0 -1 0 0 3623.dat
1 4 -120 -120 -220 0 0 -1 0 1 0 1 0 0 2429.dat
1 4 -120 -120 -220 1 0 0 0 1 0 0 0 1 2430.dat
1 4 -130 -144 -310 -1 0 0 0 1 0 0 0 -1 3005.dat
1 4 -130 -128 -260 0 0 1 0 1 0 -1 0 0 3710.dat
1 4 -110 -128 -210 0 0 -1 0 1 0 1 0 0 3024.dat
1 19 -112.00000000000001 -94 -280 0 -1 0 -1 0 0 0 0 -1 3021.dat
1 4 -112.00000000000001 -94 -250 0 -1 0 1 0 0 0 0 1 3623.dat
1 19 -88 -114 -260 0 -1 0 0 0 1 -1 0 0 4865a.dat
1 19 -88 -94 -260 0 -1 0 0 0 1 -1 0 0 4865a.dat
1 19 -88 -74 -260 0 -1 0 0 0 1 -1 0 0 4865a.dat
1 19 -88 -114 -290 0 -1 0 -1 0 0 0 0 -1 6231.dat
1 19 -88 -94 -290 0 -1 0 -1 0 0 0 0 -1 6231.dat
1 19 -88 -74 -290 0 -1 0 -1 0 0 0 0 -1 6231.dat
1 4 -110 -152 -190 -1 0 0 0 1 0 0 0 -1 2357.dat
1 4 -70 -128 -210 1 0 0 0 1 0 0 0 1 63864.dat
1 19 -80 -102.00000000000001 -224.00000000000003 -1 0 0 0 0 1 0 1 0 3794a.dat
1 19 -80 -78 -224.00000000000003 -1 0 0 0 0 1 0 1 0 3794a.dat
1 70 -80 -78 -232.00000000000003 -1 0 0 0 0 1 0 1 0 6141.dat
1 70 -80 -102.00000000000001 -232.00000000000003 -1 0 0 0 0 1 0 1 0 6141.dat
1 0 90 -160 -30 1 0 0 0 1 0 0 0 1 30357.dat
1 0 -90 -160 -30 0 0 -1 0 1 0 1 0 0 30357.dat
1 0 -120 -160 -80 0 0 -1 0 1 0 1 0 0 3020.dat
1 0 -120 -160 -160 0 0 -1 0 1 0 1 0 0 3020.dat
1 0 -110 -160 -210 0 0 -1 0 1 0 1 0 0 3024.dat
1 4 -130 -56.00000000000001 -350 0 0 1 0 1 0 -1 0 0 3623.dat
1 4 -120 -56.00000000000001 -420 -1 0 0 0 1 0 0 0 -1 2429.dat
1 4 -120 -56.00000000000001 -420 0 0 -1 0 1 0 1 0 0 2430.dat
1 4 -130 -80 -390 0 0 1 0 1 0 -1 0 0 3622.dat
1 4 -130 -80 -340 0 0 1 0 1 0 -1 0 0 3004.dat
1 4 -100 -64 -430 1 0 0 0 1 0 0 0 1 3023.dat
1 4 -130 -88 -350 0 0 1 0 1 0 -1 0 0 3623.dat
1 4 -130 -88 -400 0 0 1 0 1 0 -1 0 0 3023.dat
1 4 -100 -72 -430 1 0 0 0 1 0 0 0 1 2436a.dat
1 4 -130 -112.00000000000001 -390 0 0 1 0 1 0 -1 0 0 3622.dat
1 4 -130 -112.00000000000001 -340 0 0 1 0 1 0 -1 0 0 3004.dat
1 4 -130 -120 -350 0 0 1 0 1 0 -1 0 0 3623.dat
1 71 -80 -48.00000000000001 -400 0 0 -1 0 1 0 1 0 0 3031.dat
1 19 -110 -56.00000000000001 -390 0 0 1 0 1 0 -1 0 0 3024.dat
1 19 -110 -72 -370 0 0 1 0 1 0 -1 0 0 3005.dat
1 4 -50 -72 -430 0 0 -1 0 1 0 1 0 0 2357.dat
1 19 -110 -64 -400 0 0 1 0 1 0 -1 0 0 3023.dat
1 19 -110 -72 -400 0 0 1 0 1 0 -1 0 0 3023.dat
1 15 -70 -96.00000000000001 -380 -1 0 0 0 1 0 0 0 -1 4532.dat
1 19 -110 -96.00000000000001 -390 0 0 1 0 1 0 -1 0 0 3622.dat
1 4 -80 -96.00000000000001 -430 1 0 0 0 1 0 0 0 1 3004.dat
1 4 -110 -96.00000000000001 -430 1 0 0 0 1 0 0 0 1 3005.dat
1 4 -50 -96.00000000000001 -410 0 0 1 0 1 0 -1 0 0 2357.dat
1 15 -46.00000000000001 -92.00000000000001 -363.00000000000006 0 0 -1 0 1 0 1 0 0 4533.dat
1 19 -110 -120 -380 0 0 -1 0 1 0 1 0 0 3004.dat
1 71 -90 -120 -370 -1 0 0 0 1 0 0 0 -1 4070.dat
1 71 -70 -120 -370 -1 0 0 0 1 0 0 0 -1 4070.dat
1 19 -80 -110 -356 -1 0 0 0 0 -1 0 -1 0 2412b.dat
1 4 -100 -104 -430 1 0 0 0 1 0 0 0 1 3023.dat
1 19 -110 -104 -410 0 0 -1 0 1 0 1 0 0 3024.dat
1 19 -50 -120 -390 0 0 1 0 1 0 -1 0 0 3622.dat
1 4 -100 -112.00000000000001 -430 1 0 0 0 1 0 0 0 1 3023.dat
1 71 -90 -120 -400 0 0 -1 0 1 0 1 0 0 4865b.dat
1 71 -70 -120 -400 0 0 1 0 1 0 -1 0 0 4865b.dat
1 71 -110 -112.00000000000001 -410 0 0 1 0 1 0 -1 0 0 3070b.dat
1 4 -120 -120 -420 0 0 -1 0 1 0 1 0 0 2430.dat
1 4 -120 -120 -420 -1 0 0 0 1 0 0 0 -1 2429.dat
1 72 -30 -104 -410 -1 0 0 0 1 0 0 0 -1 6141.dat
1 4 -130 -62 -444.00000000000006 1 0 0 0 0 -1 0 1 0 54200.dat
1 4 -100 -128 -430 1 0 0 0 1 0 0 0 1 3023.dat
1 4 -130 -128 -390 0 0 1 0 1 0 -1 0 0 3623.dat
1 4 -130 -128 -340 0 0 -1 0 1 0 1 0 0 3023.dat
1 71 -110 -128 -400 0 0 -1 0 1 0 1 0 0 3069b.dat
1 71 -50 -128 -400 0 0 -1 0 1 0 1 0 0 3069b.dat
1 71 -100 -128 -370 -1 0 0 0 1 0 0 0 -1 3069b.dat
1 71 -60 -128 -370 -1 0 0 0 1 0 0 0 -1 3069b.dat
1 4 -130 -152 -280 0 0 -1 0 1 0 1 0 0 3660.dat
1 4 -130 -152 -240 0 0 -1 0 1 0 1 0 0 3660.dat
1 4 -130 -152 -360 0 0 -1 0 1 0 1 0 0 3660.dat
1 4 -130 -152 -400 0 0 -1 0 1 0 1 0 0 3660.dat
1 4 -130 -152 -330 0 0 1 0 1 0 -1 0 0 87087.dat
1 4 -130 -152 -310 0 0 -1 0 1 0 1 0 0 3024.dat
1 4 -110 -152 -430 -1 0 0 0 1 0 0 0 -1 3005.dat
1 71 -142 -142 -330 0 1 0 -1 0 0 0 0 1 60849.dat
1 0 -110 -160 -410 0 0 -1 0 1 0 1 0 0 2420.dat
1 0 -130 -160 -360 0 0 -1 0 1 0 1 0 0 3710.dat
1 0 -130 -160 -280 0 0 -1 0 1 0 1 0 0 3710.dat
1 0 -110 -160 -430 0 0 -1 0 1 0 1 0 0 3024.dat
1 0 -110 -160 -230 -1 0 0 0 1 0 0 0 -1 2420.dat
1 15 -110 -168 -430 0 0 -1 0 1 0 1 0 0 3070b.dat
1 15 -130 -168 -390 0 0 -1 0 1 0 1 0 0 63864.dat
1 15 -130 -168 -250 0 0 -1 0 1 0 1 0 0 63864.dat
1 15 -130 -168 -340 0 0 -1 0 1 0 1 0 0 3069b.dat
1 15 -130 -168 -300 0 0 -1 0 1 0 1 0 0 3069b.dat
1 15 -110 -168 -200 0 0 -1 0 1 0 1 0 0 3069b.dat
1 15 -100 -168 10 -1 0 0 0 1 0 0 0 -1 3069b.dat
1 15 -130 -168 -140 0 0 1 0 1 0 -1 0 0 6636.dat
1 15 -130 -168 -40 0 0 1 0 1 0 -1 0 0 2431.dat
1 0 -110 -160 -280 0 0 1 0 1 0 -1 0 0 60478.dat
1 0 -110 -160 -360 0 0 -1 0 1 0 1 0 0 60478.dat
1 0 0 -64 -460 0 0 -1 0 1 0 1 0 0 3006.dat
1 4 30 -64 -380 0 0 1 0 1 0 -1 0 0 3004.dat
1 19 70 -88 -480 0 0 1 0 1 0 -1 0 0 3245a.dat
1 19 -70 -88 -480 0 0 1 0 1 0 -1 0 0 3245a.dat
1 19 100 -80 -430 1 0 0 0 1 0 0 0 1 3245a.dat
1 0 0 -88 -500 0 0 -1 0 1 0 1 0 0 2456.dat
1 0 0 -96.00000000000001 -480 -1 0 0 0 1 0 0 0 -1 3029.dat
1 71 0 -96.00000000000001 -530 -1 0 0 0 1 0 0 0 -1 3023.dat
1 4 -130 -48.00000000000001 -580 0 0 -1 0 1 0 1 0 0 3023.dat
1 4 130 -48.00000000000001 -580 0 0 -1 0 1 0 1 0 0 3023.dat
1 4 -90 -48.00000000000001 -610 1 0 0 0 1 0 0 0 1 3623.dat
1 4 90 -48.00000000000001 -610 1 0 0 0 1 0 0 0 1 3623.dat
1 15 0 -48.00000000000001 -610 1 0 0 0 1 0 0 0 1 3710.dat
1 71 -10 -48.00000000000001 -590 0 0 -1 0 1 0 1 0 0 2555.dat
1 71 30 -48.00000000000001 -550 0 0 -1 0 1 0 1 0 0 2555.dat
1 71 50 -48.00000000000001 -570 0 0 -1 0 1 0 1 0 0 2555.dat
1 71 70 -48.00000000000001 -570 0 0 -1 0 1 0 1 0 0 2555.dat
1 15 -60 -104 -440 0 0 -1 0 1 0 1 0 0 3022.dat
1 71 -60 -128 -430 1 0 0 0 1 0 0 0 1 3039.dat
1 0 30 -80.98100000000001 -563.268 0 0 -1 0.8660000000000001 0.5 0 0.5 -0.8660000000000001 0 60478.dat
1 71 30 -84.981 -556.34 0 0 -1 0.8660000000000001 0.5 0 0.5 -0.8660000000000001 0 3069b.dat
1 15 -60 -120 -470 -1 0 0 0 1 0 0 0 -1 3937.dat
1 15 60 -120 -470 -1 0 0 0 1 0 0 0 -1 3937.dat
1 320 -90 -104 -480 0 0 1 0 1 0 -1 0 0 3023.dat
1 320 90 -104 -480 0 0 1 0 1 0 -1 0 0 3023.dat
1 71 0 -104 -490 1 0 0 0 1 0 0 0 1 3460.dat
1 71 0 -104 -520 1 0 0 0 1 0 0 0 1 3832.dat
1 73 -60 -112.00000000000001 -500 0 0 1 0 1 0 -1 0 0 3068b.dat
1 73 -20 -112.00000000000001 -500 0 0 1 0 1 0 -1 0 0 3068b.dat
1 73 20 -112.00000000000001 -500 0 0 1 0 1 0 -1 0 0 3068b.dat
1 73 60 -112.00000000000001 -500 0 0 1 0 1 0 -1 0 0 3068b.dat
1 320 -90 -112.00000000000001 -500 0 0 1 0 1 0 -1 0 0 2431.dat
1 320 90 -112.00000000000001 -500 0 0 1 0 1 0 -1 0 0 2431.dat
1 320 0 -112.00000000000001 -530 1 0 0 0 1 0 0 0 1 4162.dat
1 71 -70 -136 -430 1 0 0 0 1 0 0 0 1 3623.dat
1 19 -50 -160 -430 1 0 0 0 1 0 0 0 1 3005.dat
1 71 -90 -160 -430 -1 0 0 0 1 0 0 0 -1 4070.dat
1 71 -70 -160 -430 -1 0 0 0 1 0 0 0 -1 4070.dat
1 297 -80 -150 -416 -1 0 0 0 0 -1 0 -1 0 6936.dat
1 19 -60 -160 -30 1 0 0 0 1 0 0 0 1 3245a.dat
1 19 -80 -160 -90 1 0 0 0 1 0 0 0 1 3245a.dat
1 19 -90 -160 -60 0 0 -1 0 1 0 1 0 0 3245a.dat
1 19 90 -144 -80 0 0 -1 0 1 0 1 0 0 3010.dat
1 19 90 -152 -50 0 0 -1 0 1 0 1 0 0 3024.dat
1 19 90 -160 -50 0 0 -1 0 1 0 1 0 0 3024.dat
1 19 90 -152 -80 0 0 -1 0 1 0 1 0 0 3794a.dat
1 19 90 -168 -110 -1 0 0 0 1 0 0 0 -1 6231.dat
1 320 -50 -120 -140 0 0 1 0 1 0 -1 0 0 3666.dat
1 19 -50 -128 -140 0 0 1 0 1 0 -1 0 0 3666.dat
1 19 -50 -136 -120 0 0 1 0 1 0 -1 0 0 3710.dat
1 19 -60 -136 -200 0 0 1 0 1 0 -1 0 0 2429.dat
1 19 -60 -136 -200 -1 0 0 0 1 0 0 0 -1 2430.dat
1 19 -50 -160 -100 0 0 -1 0 1 0 1 0 0 3004.dat
1 19 -50 -160 -160 0 0 -1 0 1 0 1 0 0 3010.dat
1 70 -60 -144 -60 0 0 -1 0 1 0 1 0 0 3062b.dat
1 10 -60 -128 -60 0 0 -1 0 1 0 1 0 0 33183.dat
1 19 -90 -184.00000000000003 -60 0 0 -1 0 1 0 1 0 0 3004.dat
1 19 -80 -184.00000000000003 -90 -1 0 0 0 1 0 0 0 -1 3010.dat
1 19 -80 -184.00000000000003 -30 -1 0 0 0 1 0 0 0 -1 3010.dat
1 19 -50 -184.00000000000003 -190 1 0 0 0 1 0 0 0 1 3005.dat
1 70 -50 -184.00000000000003 -140 0 0 -1 0 1 0 1 0 0 30413.dat
1 4 20 -100 -218 -1 0 0 0 1 0 0 0 -1 3020.dat
1 71 20 -108 -228 0 0 1 0 1 0 -1 0 0 3021.dat
1 0 -10 -108 -218 0 0 -1 0 1 0 1 0 0 60478.dat
1 0 50 -108 -218 0 0 -1 0 1 0 1 0 0 60478.dat
1 0 20 -116.00000000000001 -208 -1 0 0 0 1 0 0 0 -1 60470a.dat
1 71 60 -116.00000000000001 -208 -1 0 0 0 1 0 0 0 -1 3023.dat
1 71 -20 -116.00000000000001 -208 -1 0 0 0 1 0 0 0 -1 3023.dat
1 320 20 -116.00000000000001 -228 -1 0 0 0 1 0 0 0 -1 3666.dat
1 320 20 -116.00000000000001 -248 -1 0 0 0 1 0 0 0 -1 3666.dat
1 71 50 -106.00000000000001 -188 1 0 0 0 1 0 0 0 1 30377.dat
1 71 -10 -106.00000000000001 -188 1 0 0 0 1 0 0 0 1 30377.dat
1 320 -30 -124 -218 0 0 1 0 1 0 -1 0 0 2431.dat
1 320 20 -124 -248 1 0 0 0 1 0 0 0 1 2431.dat
1 320 70 -124 -218 0 0 1 0 1 0 -1 0 0 2431.dat
1 73 0 -124 -218 0 0 1 0 1 0 -1 0 0 3068b.dat
1 73 40 -124 -218 0 0 1 0 1 0 -1 0 0 3068b.dat
1 0 20 -164.00000000000003 -166 1 0 0 0 0 -1 0 1 0 3020.dat
1 72 20 -144 -174.00000000000003 1 0 0 0 0 -1 0 1 0 3022.dat
1 0 20 -174.00000000000003 -190 -1 0 0 0 0 1 0 1 0 30414.dat
1 19 50 -144 -190 0 0 -1 -1 0 0 0 1 0 3004.dat
1 19 -10 -144 -190 0 0 -1 -1 0 0 0 1 0 3004.dat
1 4 20 -144 -182 0 0 -1 -1 0 0 0 1 0 3022.dat
1 0 10 -144 -190 0 0 1 1 0 0 0 1 0 60478.dat
1 0 30 -144 -190 0 0 1 1 0 0 0 1 0 60478.dat
1 73 0 -164.00000000000003 -198 0 0 1 1 0 0 0 1 0 3068b.dat
1 73 40 -164.00000000000003 -198 0 0 1 1 0 0 0 1 0 3068b.dat
1 73 40 -134 -198 -1 0 0 0 0 1 0 1 0 3069b.dat
1 73 0 -134 -198 -1 0 0 0 0 1 0 1 0 3069b.dat
1 320 20 -192.00000000000003 -180 1 0 0 0 1 0 0 0 1 3023.dat
1 320 20 -200 -180 1 0 0 0 1 0 0 0 1 2431.dat
1 320 50 -200 -180 0 0 -1 0 1 0 1 0 0 6091.dat
1 320 -10 -200 -180 0 0 1 0 1 0 -1 0 0 6091.dat
1 320 70 -168 -180 1 0 0 0 1 0 0 0 1 3024.dat
1 320 -30 -168 -180 1 0 0 0 1 0 0 0 1 3024.dat
1 320 -30 -160 -180 1 0 0 0 1 0 0 0 1 3005.dat
1 320 70 -160 -180 1 0 0 0 1 0 0 0 1 3005.dat
1 320 70 -136 -180 1 0 0 0 1 0 0 0 1 3024.dat
1 320 -30 -136 -180 1 0 0 0 1 0 0 0 1 3024.dat
1 4 20 -72 -380 -1 0 0 0 1 0 0 0 -1 3022.dat
1 19 20 -96.00000000000001 -390 -1 0 0 0 1 0 0 0 -1 3004.dat
1 4 20 -96.00000000000001 -370 -1 0 0 0 1 0 0 0 -1 3660.dat
1 0 20 -104 -390 1 0 0 0 1 0 0 0 1 60470a.dat
1 320 20 -104 -370 1 0 0 0 1 0 0 0 1 3666.dat
1 320 20 -104 -350 1 0 0 0 1 0 0 0 1 3666.dat
1 73 40 -112.00000000000001 -380 0 0 -1 0 1 0 1 0 0 3068b.dat
1 73 0 -112.00000000000001 -380 0 0 -1 0 1 0 1 0 0 3068b.dat
1 320 70 -112.00000000000001 -380 0 0 -1 0 1 0 1 0 0 2431.dat
1 320 -30 -112.00000000000001 -380 0 0 -1 0 1 0 1 0 0 2431.dat
1 320 20 -112.00000000000001 -350 -1 0 0 0 1 0 0 0 -1 2431.dat
1 0 20 -152 -432 -1 0 0 0 0 -1 0 -1 0 3020.dat
1 72 20 -132 -424.00000000000006 -1 0 0 0 0 -1 0 -1 0 3022.dat
1 0 20 -162 -408.00000000000006 1 0 0 0 0 1 0 -1 0 30414.dat
1 19 50 -132 -408.00000000000006 0 0 1 -1 0 0 0 -1 0 3004.dat
1 19 -10 -132 -408.00000000000006 0 0 1 -1 0 0 0 -1 0 3004.dat
1 4 20 -132 -416 0 0 1 -1 0 0 0 -1 0 3022.dat
1 0 30 -132 -408.00000000000006 0 0 -1 1 0 0 0 -1 0 60478.dat
1 0 10 -132 -408.00000000000006 0 0 -1 1 0 0 0 -1 0 60478.dat
1 73 40 -152 -400 0 0 -1 1 0 0 0 -1 0 3068b.dat
1 73 0 -122.00000000000001 -400 1 0 0 0 0 1 0 -1 0 3069b.dat
1 73 40 -122.00000000000001 -400 1 0 0 0 0 1 0 -1 0 3069b.dat
1 73 0 -152 -400 0 0 -1 1 0 0 0 -1 0 3068b.dat
1 320 20 -180 -418.00000000000006 1 0 0 0 1 0 0 0 1 3023.dat
1 320 20 -188 -418.00000000000006 1 0 0 0 1 0 0 0 1 2431.dat
1 320 50 -188 -418.00000000000006 0 0 -1 0 1 0 1 0 0 6091.dat
1 320 -10 -188 -418.00000000000006 0 0 1 0 1 0 -1 0 0 6091.dat
1 320 70 -156 -418.00000000000006 1 0 0 0 1 0 0 0 1 3024.dat
1 320 -30 -156 -418.00000000000006 1 0 0 0 1 0 0 0 1 3024.dat
1 320 -30 -148 -418.00000000000006 1 0 0 0 1 0 0 0 1 3005.dat
1 320 70 -148 -418.00000000000006 1 0 0 0 1 0 0 0 1 3005.dat
1 320 70 -124 -418.00000000000006 1 0 0 0 1 0 0 0 1 3024.dat
1 320 -30 -124 -418.00000000000006 1 0 0 0 1 0 0 0 1 3024.dat
1 4 130 -72 -430 1 0 0 0 1 0 0 0 1 87087.dat
1 4 130 -72 -360 0 0 -1 0 1 0 1 0 0 3009.dat
1 4 130 -72 -240 0 0 -1 0 1 0 1 0 0 3009.dat
1 4 130 -62 -440 1 0 0 0 0 -1 0 1 0 54200.dat
1 4 130 -96.00000000000001 -380 0 0 -1 0 1 0 1 0 0 3009.dat
1 4 130 -96.00000000000001 -260 0 0 -1 0 1 0 1 0 0 3009.dat
1 4 130 -96.00000000000001 -170 0 0 1 0 1 0 -1 0 0 3622.dat
1 19 100 -152 -430 -1 0 0 0 1 0 0 0 -1 4035.dat
1 4 130 -120 -410 0 0 1 0 1 0 -1 0 0 3622.dat
1 4 130 -120 -320 0 0 -1 0 1 0 1 0 0 3009.dat
1 4 130 -120 -200 0 0 -1 0 1 0 1 0 0 3009.dat
1 4 110 -128 -210 0 0 -1 0 1 0 1 0 0 3024.dat
1 4 120 -128 -170 0 0 -1 0 1 0 1 0 0 3021.dat
1 4 130 -128 -320 0 0 -1 0 1 0 1 0 0 60479.dat
1 4 130 -152 -430 -1 0 0 0 1 0 0 0 -1 3005.dat
1 4 130 -152 -200 0 0 1 0 1 0 -1 0 0 3004.dat
1 4 120 -152 -120 0 0 1 0 1 0 -1 0 0 2456.dat
1 4 120 -152 -360 0 0 1 0 1 0 -1 0 0 2456.dat
1 4 120 -152 -260 0 0 1 0 1 0 -1 0 0 3001.dat
1 4 110 -152 -200 0 0 1 0 1 0 -1 0 0 3660.dat
1 0 130 -160 -50 -1 0 0 0 1 0 0 0 -1 2420.dat
1 0 130 -160 -110 0 0 -1 0 1 0 1 0 0 2420.dat
1 0 120 -160 -160 0 0 -1 0 1 0 1 0 0 3020.dat
1 0 110 -160 -210 -1 0 0 0 1 0 0 0 -1 2420.dat
1 0 120 -160 -400 0 0 -1 0 1 0 1 0 0 3020.dat
1 0 110 -160 -330 -1 0 0 0 1 0 0 0 -1 2420.dat
1 0 130 -160 -320 0 0 1 0 1 0 -1 0 0 3710.dat
1 0 130 -160 -240 0 0 1 0 1 0 -1 0 0 3710.dat
1 0 90 -160 -190 0 0 1 0 1 0 -1 0 0 3024.dat
1 0 90 -160 -430 0 0 1 0 1 0 -1 0 0 3024.dat
1 71 110 -160 -280 0 0 1 0 1 0 -1 0 0 44568.dat
1 15 60 -160 -280 0 0 1 0 1 0 -1 0 0 44570.dat
1 71 20 -152 -280 -1 0 0 0 1 0 0 0 -1 3031.dat
1 15 0 -160 -260 -1 0 0 0 1 0 0 0 -1 3022.dat
1 15 0 -160 -300 -1 0 0 0 1 0 0 0 -1 3022.dat
1 34 10 -208 -290 -1 0 0 0 1 0 0 0 -1 33061.dat
1 15 130 -168 -370 0 0 -1 0 1 0 1 0 0 63864.dat
1 15 130 -168 -30 0 0 -1 0 1 0 1 0 0 63864.dat
1 15 110 -168 -430 0 0 -1 0 1 0 1 0 0 3070b.dat
1 15 130 -168 -420 0 0 -1 0 1 0 1 0 0 3069b.dat
1 15 100 -168 10 -1 0 0 0 1 0 0 0 -1 3069b.dat
1 15 120 -168 -320 -1 0 0 0 1 0 0 0 -1 3068b.dat
1 15 120 -168 -200 -1 0 0 0 1 0 0 0 -1 3068b.dat
1 15 130 -168 -260 0 0 1 0 1 0 -1 0 0 2431.dat
1 15 130 -168 -120 0 0 1 0 1 0 -1 0 0 6636.dat
1 19 90 -168 -330 0 0 -1 0 1 0 1 0 0 3024.dat
1 19 90 -168 -200 0 0 -1 0 1 0 1 0 0 3023.dat
1 71 110 -184.00000000000003 -40 0 0 1 0 1 0 -1 0 0 4865b.dat
1 71 90 -192.00000000000003 -80 0 0 1 0 1 0 -1 0 0 2343.dat
1 42 90 -211 -80 0 0 1 0 1 0 -1 0 0 4589.dat
1 71 4 -146.736 -565.136 0 -1 0 -0.9660000000000001 0 -0.259 0.259 0 -0.9660000000000001 4274.dat
1 80 4 -154.464 -563.064 -1 0 0 0 0.9660000000000001 -0.259 0 -0.259 -0.9660000000000001 6141.dat
1 71 4 -54 -590 0 0 1 -0.259 0.9660000000000001 0 -0.9660000000000001 -0.259 0 87618.dat
1 71 60 -72.72800000000001 -577.298 -1 0 0 0 0.454 -0.8910000000000001 0 -0.8910000000000001 -0.454 48336.dat
1 72 70 -76.36 -570.17 -1 0 0 0 0.454 -0.8910000000000001 0 -0.8910000000000001 -0.454 6141.dat
1 72 50 -76.36 -570.17 -1 0 0 0 0.454 -0.8910000000000001 0 -0.8910000000000001 -0.454 6141.dat
1 4 70 -72 -610 1 0 0 0 1 0 0 0 1 87087.dat
1 4 90 -72 -610 1 0 0 0 1 0 0 0 1 87087.dat
1 4 -70 -72 -610 1 0 0 0 1 0 0 0 1 87087.dat
1 4 -90 -72 -610 1 0 0 0 1 0 0 0 1 87087.dat
1 4 -130 -72 -570 -1 0 0 0 1 0 0 0 -1 87087.dat
1 4 130 -72 -570 -1 0 0 0 1 0 0 0 -1 87087.dat
1 0 0 -72 -610 1 0 0 0 1 0 0 0 1 30414.dat
1 4 120 -72 -600 1 0 0 0 1 0 0 0 1 87620.dat
1 4 -120 -72 -600 0 0 1 0 1 0 -1 0 0 87620.dat
1 4 130 -62 -560 -1 0 0 0 0 -1 0 -1 0 54200.dat
1 4 -130 -62 -560 -1 0 0 0 0 -1 0 -1 0 54200.dat
1 4 -130 -80 -580 0 0 1 0 1 0 -1 0 0 3069b.dat
1 4 130 -80 -580 0 0 1 0 1 0 -1 0 0 3069b.dat
1 4 -90 -80 -610 1 0 0 0 1 0 0 0 1 3623.dat
1 4 90 -80 -610 1 0 0 0 1 0 0 0 1 3623.dat
1 4 0 -80 -610 1 0 0 0 1 0 0 0 1 3710.dat
1 4 0 -88 -610 1 0 0 0 1 0 0 0 1 3710.dat
1 0 0 -112.00000000000001 -610 1 0 0 0 1 0 0 0 1 30414.dat
1 0 -50 -112.00000000000001 -610 -1 0 0 0 1 0 0 0 -1 4460a.dat
1 0 50 -112.00000000000001 -610 -1 0 0 0 1 0 0 0 -1 4460a.dat
1 4 120 -104 -480 0 0 1 0 1 0 -1 0 0 87079.dat
1 4 -120 -104 -480 0 0 1 0 1 0 -1 0 0 87079.dat
1 4 130 -96.00000000000001 -500 0 0 1 0 1 0 -1 0 0 92950.dat
1 4 -130 -96.00000000000001 -500 0 0 1 0 1 0 -1 0 0 92950.dat
1 4 130 -104 -540 0 0 1 0 1 0 -1 0 0 3069b.dat
1 4 -130 -104 -540 0 0 1 0 1 0 -1 0 0 3069b.dat
1 4 70 -104 -610 -1 0 0 0 1 0 0 0 -1 3005.dat
1 4 -70 -104 -610 -1 0 0 0 1 0 0 0 -1 3005.dat
1 4 120 -104 -600 -1 0 0 0 1 0 0 0 -1 3830.dat
1 4 -120 -104 -600 -1 0 0 0 1 0 0 0 -1 3831.dat
1 4 120 -104 -600 0 0 1 0 1 0 -1 0 0 3831.dat
1 4 -120 -104 -600 0 0 -1 0 1 0 1 0 0 3830.dat
1 4 -90 -112.00000000000001 -610 -1 0 0 0 1 0 0 0 -1 3623.dat
1 4 90 -112.00000000000001 -610 -1 0 0 0 1 0 0 0 -1 3623.dat
1 4 0 -120 -610 -1 0 0 0 1 0 0 0 -1 60479.dat
1 4 -130 -112.00000000000001 -520 0 0 -1 0 1 0 1 0 0 3460.dat
1 4 -130 -120 -520 0 0 -1 0 1 0 1 0 0 3460.dat
1 4 -130 -144 -540 0 0 -1 0 1 0 1 0 0 3660.dat
1 4 -130 -144 -500 0 0 -1 0 1 0 1 0 0 3660.dat
1 4 -130 -144 -470 -1 0 0 0 1 0 0 0 -1 3005.dat
1 4 -130 -144 -450 0 0 1 0 1 0 -1 0 0 87087.dat
1 71 -142 -134 -450 0 1 0 -1 0 0 0 0 1 60849.dat
1 4 -120 -144 -600 -1 0 0 0 1 0 0 0 -1 3831.dat
1 4 -120 -144 -600 0 0 -1 0 1 0 1 0 0 3830.dat
1 4 -130 -152 -520 0 0 -1 0 1 0 1 0 0 3460.dat
1 320 -110 -152 -520 0 0 -1 0 1 0 1 0 0 3666.dat
1 0 -110 -160 -480 0 0 -1 0 1 0 1 0 0 60478.dat
1 0 -130 -160 -590 0 0 -1 0 1 0 1 0 0 3024.dat
1 0 -130 -160 -470 0 0 -1 0 1 0 1 0 0 3623.dat
1 0 -120 -160 -540 0 0 -1 0 1 0 1 0 0 3020.dat
1 15 -130 -168 -580 0 0 -1 0 1 0 1 0 0 3069b.dat
1 15 -130 -168 -500 0 0 1 0 1 0 -1 0 0 6636.dat
1 15 -114 -178 -450 0 1 0 0 0 -1 -1 0 0 4085c.dat
1 0 -40 -143.129 -462.352 1 0 0 0 0.974 0.22500000000000003 0 -0.22500000000000003 0.974 30414.dat
1 0 40 -143.129 -462.352 1 0 0 0 0.974 0.22500000000000003 0 -0.22500000000000003 0.974 30414.dat
1 4 0 -150.921 -460.552 -1 0 0 0 0.974 -0.22500000000000003 0 -0.22500000000000003 -0.974 3460.dat
1 4 0 -158.713 -458.752 -1 0 0 0 0.974 -0.22500000000000003 0 -0.22500000000000003 -0.974 3460.dat
1 0 60 -119.75299999999999 -467.75199999999995 -1 0 0 0 0.974 -0.22500000000000003 0 -0.22500000000000003 -0.974 3938.dat
1 0 40 -182.089 -453.352 1 0 0 0 0.974 0.22500000000000003 0 -0.22500000000000003 0.974 30414.dat
1 320 0 -189.881 -451.552 -1 0 0 0 0.974 -0.22500000000000003 0 -0.22500000000000003 -0.974 3666.dat
1 320 0 -197.67300000000003 -449.752 1 0 0 0 0.974 0.22500000000000003 0 -0.22500000000000003 0.974 4162.dat
1 320 -90 -135.337 -464.152 1 0 0 0 0.974 0.22500000000000003 0 -0.22500000000000003 0.974 3024.dat
1 320 -90 -158.713 -458.75200000000007 1 0 0 0 0.974 0.22500000000000003 0 -0.22500000000000003 0.974 3005.dat
1 320 -90 -166.505 -456.952 1 0 0 0 0.974 0.22500000000000003 0 -0.22500000000000003 0.974 3024.dat
1 320 -70 -197.67300000000003 -449.752 0 0 1 -0.22500000000000003 0.974 0 -0.974 -0.22500000000000003 0 6091.dat
1 320 90 -135.337 -464.152 -1 0 0 0 0.974 -0.22500000000000003 0 -0.22500000000000003 -0.974 3024.dat
1 320 90 -158.713 -458.75200000000007 -1 0 0 0 0.974 -0.22500000000000003 0 -0.22500000000000003 -0.974 3005.dat
1 320 90 -166.505 -456.952 -1 0 0 0 0.974 -0.22500000000000003 0 -0.22500000000000003 -0.974 3024.dat
1 320 70 -197.67300000000003 -449.752 0 0 -1 0.22500000000000003 0.974 0 0.974 -0.22500000000000003 0 6091.dat
1 73 -60 -166.659 -475.38399999999996 0 0 1 0.974 0.22500000000000003 0 -0.22500000000000003 0.974 0 3068b.dat
1 73 -20 -166.659 -475.38399999999996 0 0 1 0.974 0.22500000000000003 0 -0.22500000000000003 0.974 0 3068b.dat
1 73 20 -166.659 -475.38399999999996 0 0 1 0.974 0.22500000000000003 0 -0.22500000000000003 0.974 0 3068b.dat
1 73 60 -166.659 -475.38399999999996 0 0 1 0.974 0.22500000000000003 0 -0.22500000000000003 0.974 0 3068b.dat
1 73 60 -137.439 -482.134 -1 0 0 0 0.22500000000000003 0.974 0 0.974 -0.22500000000000003 3069b.dat
1 73 20 -137.439 -482.134 -1 0 0 0 0.22500000000000003 0.974 0 0.974 -0.22500000000000003 3069b.dat
1 73 -20 -137.439 -482.134 -1 0 0 0 0.22500000000000003 0.974 0 0.974 -0.22500000000000003 3069b.dat
1 73 -60 -137.439 -482.134 -1 0 0 0 0.22500000000000003 0.974 0 0.974 -0.22500000000000003 3069b.dat
1 0 -60 -119.75299999999999 -467.75199999999995 -1 0 0 0 0.974 -0.22500000000000003 0 -0.22500000000000003 -0.974 3938.dat
1 0 -40 -182.089 -453.352 1 0 0 0 0.974 0.22500000000000003 0 -0.22500000000000003 0.974 30414.dat
1 4 -20 -144 -610 -1 0 0 0 1 0 0 0 -1 3009.dat
1 72 60 -128 -600 -1 0 0 0 1 0 0 0 -1 3022.dat
1 4 60 -136 -610 -1 0 0 0 1 0 0 0 -1 3023.dat
1 15 60 -136 -590 -1 0 0 0 1 0 0 0 -1 60471.dat
1 72 60 -144 -600 -1 0 0 0 1 0 0 0 -1 3022.dat
1 71 60 -142.66 -565 1 0 0 0 0.5 -0.8660000000000001 0 0.8660000000000001 0.5 30552.dat
1 4 60 -159.981 -555 0 0 -1 -0.8660000000000001 0.5 0 0.5 0.8660000000000001 0 32062.dat
1 71 60 -180.765 -543 0 0 -1 0.5 0.8660000000000001 0 0.8660000000000001 -0.5 0 2819.dat
1 4 130 -112.00000000000001 -520 0 0 -1 0 1 0 1 0 0 3460.dat
1 4 130 -120 -520 0 0 -1 0 1 0 1 0 0 3460.dat
1 4 130 -144 -540 0 0 1 0 1 0 -1 0 0 3660.dat
1 4 130 -144 -450 0 0 -1 0 1 0 1 0 0 87087.dat
1 4 130 -144 -470 -1 0 0 0 1 0 0 0 -1 3005.dat
1 4 130 -144 -500 0 0 1 0 1 0 -1 0 0 3660.dat
1 71 142 -134 -450 0 -1 0 1 0 0 0 0 1 60849.dat
1 4 120 -144 -600 -1 0 0 0 1 0 0 0 -1 3830.dat
1 4 120 -144 -600 0 0 1 0 1 0 -1 0 0 3831.dat
1 320 110 -152 -520 0 0 -1 0 1 0 1 0 0 3666.dat
1 4 130 -152 -520 0 0 -1 0 1 0 1 0 0 3460.dat
1 0 130 -160 -590 0 0 -1 0 1 0 1 0 0 3024.dat
1 0 120 -160 -540 0 0 -1 0 1 0 1 0 0 3020.dat
1 0 110 -160 -480 0 0 -1 0 1 0 1 0 0 60478.dat
1 0 130 -160 -470 0 0 -1 0 1 0 1 0 0 3623.dat
1 15 114 -178 -450 0 -1 0 0 0 -1 1 0 0 4085c.dat
1 15 130 -168 -500 0 0 1 0 1 0 -1 0 0 6636.dat
1 15 130 -168 -580 0 0 -1 0 1 0 1 0 0 4623.dat
1 15 -114 -178 -310 0 1 0 0 0 -1 -1 0 0 4085c.dat
1 15 -114 -178 -330 0 1 0 0 0 -1 -1 0 0 4085c.dat
1 15 70 -152 -610 0 0 -1 0 1 0 1 0 0 3024.dat
1 15 -70 -152 -610 0 0 -1 0 1 0 1 0 0 3024.dat
1 0 110 -152 -610 0 0 -1 0 1 0 1 0 0 2420.dat
1 0 -110 -152 -610 1 0 0 0 1 0 0 0 1 2420.dat
1 15 0 -168 -610 -1 0 0 0 1 0 0 0 -1 3937.dat
1 15 -40 -168 -610 -1 0 0 0 1 0 0 0 -1 3937.dat
1 15 -80 -152 -610 -1 0 0 0 1 0 0 0 -1 85984.dat
1 15 80 -152 -610 -1 0 0 0 1 0 0 0 -1 85984.dat
1 15 40 -168 -610 -1 0 0 0 1 0 0 0 -1 3937.dat
1 19 -70 -192.00000000000003 -60 0 0 1 0 1 0 -1 0 0 3710.dat
1 19 -50 -192.00000000000003 -140 0 0 1 0 1 0 -1 0 0 3666.dat
1 19 -50 -192.00000000000003 -30 0 0 -1 0 1 0 1 0 0 3024.dat
1 19 -60 -216 -30 -1 0 0 0 1 0 0 0 -1 3004.dat
1 19 -60 -216 -90 -1 0 0 0 1 0 0 0 -1 3004.dat
1 19 -50 -216 -180 0 0 1 0 1 0 -1 0 0 3004.dat
1 19 -50 -216 -110 1 0 0 0 1 0 0 0 1 3005.dat
1 19 -90 -208 -70 0 0 -1 0 1 0 1 0 0 3622.dat
1 15 -90 -208 -30 -1 0 0 0 1 0 0 0 -1 87087.dat
1 71 -80 -144 -210 1 0 0 0 1 0 0 0 1 48336.dat
1 19 -80 -216 -210 1 0 0 0 1 0 0 0 1 4035.dat
1 47 -80 -215.5 -208.5 1 0 0 0 1 0 0 0 1 60602.dat
1 15 -80 -182 -215.5 1 0 0 0 0 -1 0 1 0 4614425b.dat
1 19 -60 -224.00000000000003 -200 0 0 1 0 1 0 -1 0 0 2429.dat
1 19 -60 -224.00000000000003 -200 -1 0 0 0 1 0 0 0 -1 2430.dat
1 71 -80 -232.00000000000003 -210 1 0 0 0 1 0 0 0 1 3069b.dat
1 19 -90 -216 -60 0 0 1 0 1 0 -1 0 0 3710.dat
1 19 -50 -232.00000000000003 -190 0 0 -1 0 1 0 1 0 0 2420.dat
1 19 -70 -240 -60 0 0 -1 0 1 0 1 0 0 2377.dat
1 14 -68 -196 -140 0 1 0 0 0 1 1 0 0 51739.dat
1 14 -76 -176 -140 0 1 0 1 0 0 0 0 -1 87079.dat
1 15 -76 -176 -140 0 1 0 0 0 -1 -1 0 0 4614415f.dat
1 19 -50 -216 -150 0 0 -1 0 1 0 1 0 0 47905.dat
1 19 -50 -216 -130 0 0 -1 0 1 0 1 0 0 47905.dat
1 19 -50 -240 -120 0 0 -1 0 1 0 1 0 0 3010.dat
1 19 -50 -240 -170 0 0 -1 0 1 0 1 0 0 3024.dat
1 19 -70 -240 -200 -1 0 0 0 1 0 0 0 -1 3021.dat
1 71 -80 -224.00000000000003 -90 -1 0 0 0 1 0 0 0 -1 3023.dat
1 19 -70 -224.00000000000003 -30 -1 0 0 0 1 0 0 0 -1 3623.dat
1 19 -60 -232.00000000000003 -30 -1 0 0 0 1 0 0 0 -1 3023.dat
1 15 -80 -232.00000000000003 -90 -1 0 0 0 1 0 0 0 -1 3023.dat
1 0 -70 -240 -90 0 0 -1 0 1 0 1 0 0 3024.dat
1 19 -90 -240 -60 0 0 1 0 1 0 -1 0 0 3004.dat
1 15 -90 -248 -30 -1 0 0 0 1 0 0 0 -1 87087.dat
1 19 -70 -184.00000000000003 -430 -1 0 0 0 1 0 0 0 -1 3622.dat
1 19 -60 -208 -430 -1 0 0 0 1 0 0 0 -1 3004.dat
1 71 -90 -208 -430 0 0 1 0 1 0 -1 0 0 4070.dat
1 19 -50 -232.00000000000003 -430 0 0 -1 0 1 0 1 0 0 3665a.dat
1 15 -120 -198 -430 0 1 0 0 0 1 1 0 0 3005.dat
1 72 -70 -216 -430 -1 0 0 0 1 0 0 0 -1 4085c.dat
1 72 -90 -216 -430 -1 0 0 0 1 0 0 0 -1 4085c.dat
1 71 -80 -224.00000000000003 -430 -1 0 0 0 1 0 0 0 -1 3023.dat
1 0 -70 -232.00000000000003 -430 0 0 -1 0 1 0 1 0 0 3024.dat
1 71 -90 -248 -430 0 0 1 0 1 0 -1 0 0 4070.dat
1 72 -60 -240 -420 -1 0 0 0 1 0 0 0 -1 3022.dat
1 15 -104 -238 -430 0 1 0 1 0 0 0 0 -1 3024.dat
1 15 -112.00000000000001 -238 -430 0 1 0 1 0 0 0 0 -1 3024.dat
1 19 -30 -240 -430 -1 0 0 0 1 0 0 0 -1 3024.dat
1 15 -136 -208 -430 0 1 0 0 0 1 1 0 0 61678.dat
1 15 -128 -178 -430 0 1 0 1 0 0 0 0 -1 3024.dat
1 135 -70 -191 -406 -1 0 0 0 0 -1 0 -1 0 4528.dat
1 191 -89.999 -208 -410 -0.8660000000000001 0 0.5 0 -1 0 0.5 0 0.8660000000000001 3852a.dat
1 47 -110 -232.00000000000003 -380 0 0 -1 0 1 0 1 0 0 60581.dat
1 47 -110 -232.00000000000003 -260 0 0 -1 0 1 0 1 0 0 60581.dat
1 47 -110 -232.00000000000003 -140 0 0 -1 0 1 0 1 0 0 60581.dat
1 15 -110 -240 -140 0 0 -1 0 1 0 1 0 0 2540.dat
1 15 -110 -240 -260 0 0 -1 0 1 0 1 0 0 2540.dat
1 15 -110 -240 -380 0 0 -1 0 1 0 1 0 0 2540.dat
1 0 -98 -246 -260 0 -1 0 0 0 -1 1 0 0 97122.dat
1 0 -98 -246 -140 0 -1 0 0 0 -1 1 0 0 97122.dat
1 0 -98 -246 -380 0 -1 0 0 0 -1 1 0 0 97122.dat
1 15 -90 -240 -110 0 0 -1 0 1 0 1 0 0 2420.dat
1 15 -110 -240 -170 0 0 1 0 1 0 -1 0 0 3024.dat
1 15 -110 -240 -230 0 0 1 0 1 0 -1 0 0 3024.dat
1 15 -110 -240 -350 -1 0 0 0 1 0 0 0 -1 4081b.dat
1 15 -110 -240 -290 1 0 0 0 1 0 0 0 1 4081b.dat
1 15 -110 -240 -410 0 0 1 0 1 0 -1 0 0 3024.dat
1 15 -110 -248 -140 0 0 1 0 1 0 -1 0 0 2431.dat
1 15 -110 -248 -260 0 0 1 0 1 0 -1 0 0 2431.dat
1 15 -110 -248 -380 0 0 1 0 1 0 -1 0 0 2431.dat
1 15 -70 -248 -200 0 0 -1 0 1 0 1 0 0 3069b.dat
1 15 -50 -248 -160 0 0 1 0 1 0 -1 0 0 6636.dat
1 15 -70 -248 -90 -1 0 0 0 1 0 0 0 -1 63864.dat
1 15 -70 -248 -60 0 0 1 0 1 0 -1 0 0 3023.dat
1 15 -90 -248 -200 0 0 1 0 1 0 -1 0 0 44728.dat
1 15 -90 -248 -60 0 0 1 0 1 0 -1 0 0 44728.dat
1 15 -90 -248 -110 1 0 0 0 1 0 0 0 1 3070b.dat
1 0 -112.00000000000001 -228 -60 0 1 0 0 0 -1 -1 0 0 3020.dat
1 15 -136 -208 -30 0 1 0 0 0 1 1 0 0 61678.dat
1 15 -136 -208 -50 0 1 0 0 0 1 1 0 0 61678.dat
1 15 -136 -208 -70 0 1 0 0 0 1 1 0 0 61678.dat
1 15 -136 -208 -90 0 1 0 0 0 1 1 0 0 61678.dat
1 15 -128 -178 -60 0 1 0 0 0 1 1 0 0 3710.dat
1 15 -122.00000000000001 -188 -330 0 1 0 1 0 0 0 0 -1 3023.dat
1 15 -130 -178 -330 0 1 0 1 0 0 0 0 -1 3024.dat
1 15 -138 -208 -330 0 1 0 0 0 1 1 0 0 61678.dat
1 15 -122.00000000000001 -188 -310 0 1 0 1 0 0 0 0 -1 3023.dat
1 15 -130 -178 -310 0 1 0 1 0 0 0 0 -1 3024.dat
1 15 -138 -208 -310 0 1 0 0 0 1 1 0 0 61678.dat
1 0 -112.00000000000001 -208 -200 0 1 0 1 0 0 0 0 -1 3020.dat
1 15 -120 -188 -200 0 1 0 1 0 0 0 0 -1 3022.dat
1 15 -128 -178 -200 0 1 0 0 0 -1 -1 0 0 3023.dat
1 15 -136 -208 -190 0 1 0 0 0 1 1 0 0 61678.dat
1 15 -136 -208 -210 0 1 0 0 0 1 1 0 0 61678.dat
1 15 -32 -216 -140 0 -1 0 0 0 1 -1 0 0 87079.dat
1 19 90 -184.00000000000003 -40 0 0 1 0 1 0 -1 0 0 3004.dat
1 15 90 -208 -50 0 0 1 0 1 0 -1 0 0 3005.dat
1 15 90 -208 -30 -1 0 0 0 1 0 0 0 -1 87087.dat
1 15 90 -216 -30 -1 0 0 0 1 0 0 0 -1 2420.dat
1 15 80 -224.00000000000003 -30 1 0 0 0 1 0 0 0 1 3023.dat
1 15 70 -232.00000000000003 -30 1 0 0 0 1 0 0 0 1 3024.dat
1 15 90 -248 -30 -1 0 0 0 1 0 0 0 -1 87087.dat
1 15 90 -240 -50 1 0 0 0 1 0 0 0 1 4287a.dat
1 15 -32 -216 -140 0 -1 0 0 0 -1 1 0 0 4614415g.dat
1 19 110 -200 -80 0 0 1 0 1 0 -1 0 0 2377.dat
1 71 110 -208 -80 0 0 -1 0 1 0 1 0 0 3069b.dat
1 19 90 -176 -200 0 0 -1 0 1 0 1 0 0 3023.dat
1 19 90 -200 -200 0 0 1 0 1 0 -1 0 0 3004.dat
1 15 90 -208 -200 0 0 -1 0 1 0 1 0 0 44728.dat
1 15 90 -232.00000000000003 -200 0 0 1 0 1 0 -1 0 0 3700.dat
1 71 80 -222.00000000000003 -200 -1 0 0 0 -1 0 0 0 1 4274.dat
1 46 72 -222.00000000000003 -200 0 1 0 0 0 -1 -1 0 0 49668.dat
1 19 90 -176 -320 0 0 -1 0 1 0 1 0 0 3023.dat
1 19 90 -200 -320 0 0 1 0 1 0 -1 0 0 3004.dat
1 15 90 -208 -320 0 0 -1 0 1 0 1 0 0 44728.dat
1 15 90 -232.00000000000003 -320 0 0 1 0 1 0 -1 0 0 3700.dat
1 71 80 -222.00000000000003 -320 -1 0 0 0 -1 0 0 0 1 4274.dat
1 46 72 -222.00000000000003 -320 0 1 0 0 0 -1 -1 0 0 49668.dat
1 47 110 -232.00000000000003 -380 0 0 1 0 1 0 -1 0 0 60581.dat
1 47 110 -232.00000000000003 -260 0 0 1 0 1 0 -1 0 0 60581.dat
1 47 110 -232.00000000000003 -140 0 0 1 0 1 0 -1 0 0 60581.dat
1 15 110 -240 -380 0 0 1 0 1 0 -1 0 0 2540.dat
1 15 110 -240 -260 0 0 1 0 1 0 -1 0 0 2540.dat
1 15 110 -240 -140 0 0 1 0 1 0 -1 0 0 2540.dat
1 0 98 -246 -380 0 -1 0 0 0 -1 1 0 0 97122.dat
1 0 98 -246 -260 0 -1 0 0 0 -1 1 0 0 97122.dat
1 0 98 -246 -140 0 -1 0 0 0 -1 1 0 0 97122.dat
1 19 90 -184.00000000000003 -430 1 0 0 0 1 0 0 0 1 3005.dat
1 71 90 -208 -430 0 0 -1 0 1 0 1 0 0 4070.dat
1 19 90 -232.00000000000003 -430 0 0 1 0 1 0 -1 0 0 3665a.dat
1 19 70 -240 -430 -1 0 0 0 1 0 0 0 -1 3024.dat
1 15 120 -198 -430 0 -1 0 0 0 1 -1 0 0 3005.dat
1 15 90 -240 -410 0 0 1 0 1 0 -1 0 0 2420.dat
1 15 90 -240 -290 0 0 1 0 1 0 -1 0 0 2420.dat
1 15 90 -240 -170 0 0 1 0 1 0 -1 0 0 2420.dat
1 15 90 -240 -230 1 0 0 0 1 0 0 0 1 2420.dat
1 15 90 -240 -350 1 0 0 0 1 0 0 0 1 2420.dat
1 15 100 -240 -110 -1 0 0 0 1 0 0 0 -1 3023.dat
1 15 90 -248 -100 0 0 -1 0 1 0 1 0 0 3069b.dat
1 15 90 -248 -60 0 0 -1 0 1 0 1 0 0 44728.dat
1 15 110 -248 -140 0 0 1 0 1 0 -1 0 0 2431.dat
1 15 90 -248 -200 0 0 1 0 1 0 -1 0 0 2431.dat
1 15 110 -248 -260 0 0 1 0 1 0 -1 0 0 2431.dat
1 15 90 -248 -320 0 0 1 0 1 0 -1 0 0 2431.dat
1 15 110 -248 -380 0 0 1 0 1 0 -1 0 0 2431.dat
1 15 90 -248 -410 0 0 -1 0 1 0 1 0 0 3070b.dat
1 71 0 -240 -30 -1 0 0 0 1 0 0 0 -1 3460.dat
1 15 -60 -248 -30 -1 0 0 0 1 0 0 0 -1 60471.dat
1 15 60 -248 -30 -1 0 0 0 1 0 0 0 -1 60471.dat
1 15 0 -248 -30 -1 0 0 0 1 0 0 0 -1 2431.dat
1 71 50 -256 -30 1 0 0 0 1 0 0 0 1 3070b.dat
1 71 -50 -256 -30 1 0 0 0 1 0 0 0 1 3070b.dat
1 15 -70 -248 -410 0 0 1 0 1 0 -1 0 0 2420.dat
1 71 20 -248 -430 -1 0 0 0 1 0 0 0 -1 3460.dat
1 71 -80 -256 -40 1 0 0 0 1 0 0 0 1 3068b.dat
1 71 80 -256 -40 1 0 0 0 1 0 0 0 1 3068b.dat
1 19 -90 -208 -12.000000000000002 0 0 1 -1 0 0 0 -1 0 3710.dat
1 15 -110 -178 -12.000000000000002 0 0 1 -1 0 0 0 -1 0 3024.dat
1 15 -100 -188 -4 0 0 1 -1 0 0 0 -1 0 3022.dat
1 15 -120 -218 -12.000000000000002 1 0 0 0 0 1 0 -1 0 43722.dat
1 15 -110 -178 12.000000000000002 0 0 1 -1 0 0 0 -1 0 6091.dat
1 15 -90 -178 4 0 0 1 -1 0 0 0 -1 0 3024.dat
1 15 -90 -208 12.000000000000002 1 0 0 0 0 1 0 -1 0 61678.dat
1 15 -110 -208 12.000000000000002 1 0 0 0 0 1 0 -1 0 61678.dat
1 19 90 -208 -12.000000000000002 0 0 1 -1 0 0 0 -1 0 3710.dat
1 15 110 -178 -12.000000000000002 0 0 1 -1 0 0 0 -1 0 3024.dat
1 15 100 -188 -4 0 0 1 -1 0 0 0 -1 0 3022.dat
1 15 120 -218 -12.000000000000002 1 0 0 0 0 1 0 -1 0 43723.dat
1 15 90 -178 4 0 0 1 -1 0 0 0 -1 0 3024.dat
1 15 110 -178 12.000000000000002 0 0 -1 1 0 0 0 -1 0 6091.dat
1 15 110 -208 12.000000000000002 1 0 0 0 0 1 0 -1 0 61678.dat
1 15 90 -208 12.000000000000002 1 0 0 0 0 1 0 -1 0 61678.dat
1 4 0 -136 10 -1 0 0 0 1 0 0 0 -1 3460.dat
1 4 50 -144 10 -1 0 0 0 1 0 0 0 -1 3623.dat
1 4 -50 -144 10 -1 0 0 0 1 0 0 0 -1 3623.dat
1 71 0 -144 10 -1 0 0 0 1 0 0 0 -1 48336.dat
1 4 0 -152 10 -1 0 0 0 1 0 0 0 -1 3460.dat
1 0 40 -160 0 1 0 0 0 1 0 0 0 1 3020.dat
1 0 -40 -160 0 1 0 0 0 1 0 0 0 1 3020.dat
1 47 0 -232.00000000000003 -10 1 0 0 0 1 0 0 0 1 60581.dat
1 47 60 -232.00000000000003 -10 1 0 0 0 1 0 0 0 1 2362b.dat
1 47 -60 -232.00000000000003 -10 1 0 0 0 1 0 0 0 1 2362b.dat
1 15 40 -168 10 1 0 0 0 1 0 0 0 1 2431.dat
1 15 -40 -168 10 1 0 0 0 1 0 0 0 1 2431.dat
1 15 40 -240 -10 1 0 0 0 1 0 0 0 1 44822.dat
1 15 -40 -240 -10 1 0 0 0 1 0 0 0 1 44822.dat
1 47 -60 -199.00000000000003 0 -1 0 0 0 0 -1 0 -1 0 4614415c.dat
1 47 60 -199.00000000000003 0 -1 0 0 0 0 -1 0 -1 0 4614415b.dat
1 0 112.00000000000001 -228 -60 0 -1 0 0 0 -1 1 0 0 3020.dat
1 15 136 -208 -90 0 -1 0 0 0 1 -1 0 0 61678.dat
1 15 136 -208 -70 0 -1 0 0 0 1 -1 0 0 61678.dat
1 15 136 -208 -50 0 -1 0 0 0 1 -1 0 0 61678.dat
1 15 136 -208 -30 0 -1 0 0 0 1 -1 0 0 61678.dat
1 15 128 -178 -60 0 -1 0 0 0 1 -1 0 0 3710.dat
1 0 112.00000000000001 -208 -200 0 -1 0 1 0 0 0 0 1 3020.dat
1 15 120 -188 -200 0 -1 0 1 0 0 0 0 1 3022.dat
1 15 128 -178 -200 0 -1 0 0 0 -1 1 0 0 3023.dat
1 15 136 -208 -190 0 -1 0 0 0 1 -1 0 0 61678.dat
1 15 136 -208 -210 0 -1 0 0 0 1 -1 0 0 61678.dat
1 0 112.00000000000001 -208 -320 0 -1 0 1 0 0 0 0 1 3020.dat
1 15 120 -188 -320 0 -1 0 1 0 0 0 0 1 3022.dat
1 15 128 -178 -320 0 -1 0 0 0 -1 1 0 0 3023.dat
1 15 136 -208 -310 0 -1 0 0 0 1 -1 0 0 61678.dat
1 15 136 -208 -330 0 -1 0 0 0 1 -1 0 0 61678.dat
1 15 112.00000000000001 -228 -430 0 -1 0 -1 0 0 0 0 -1 3023.dat
1 15 136 -208 -430 0 -1 0 0 0 1 -1 0 0 61678.dat
1 15 128 -178 -430 0 -1 0 -1 0 0 0 0 -1 3024.dat
1 71 0 -166.559 -591.272 1 0 0 0 0.8050000000000002 0.593 0 -0.593 0.8050000000000002 3832.dat
1 19 -90 -172.99900000000002 -586.528 0 0 1 -0.593 0.8050000000000002 0 -0.8050000000000002 -0.593 0 2412b.dat
1 19 -70 -172.99900000000002 -586.528 0 0 1 -0.593 0.8050000000000002 0 -0.8050000000000002 -0.593 0 2412b.dat
1 19 -50 -172.99900000000002 -586.528 0 0 1 -0.593 0.8050000000000002 0 -0.8050000000000002 -0.593 0 2412b.dat
1 19 -30 -172.99900000000002 -586.528 0 0 1 -0.593 0.8050000000000002 0 -0.8050000000000002 -0.593 0 3794a.dat
1 19 -10 -172.99900000000002 -586.528 0 0 1 -0.593 0.8050000000000002 0 -0.8050000000000002 -0.593 0 3794a.dat
1 19 10 -172.99900000000002 -586.528 0 0 1 -0.593 0.8050000000000002 0 -0.8050000000000002 -0.593 0 3794a.dat
1 19 30 -178.929 -594.5780000000001 0 0 1 -0.593 0.8050000000000002 0 -0.8050000000000002 -0.593 0 3024.dat
1 15 30 -167.06900000000002 -578.4780000000001 -1 0 0 0 0.8050000000000002 -0.593 0 -0.593 -0.8050000000000002 4081b.dat
1 72 60 -172.99900000000002 -586.528 -1 0 0 0 0.8050000000000002 -0.593 0 -0.593 -0.8050000000000002 3022.dat
1 19 90 -172.99900000000002 -586.528 0 0 1 -0.593 0.8050000000000002 0 -0.8050000000000002 -0.593 0 3794a.dat
1 15 -40 -166.049 -604.066 1 0 0 0 0.8050000000000002 0.593 0 -0.593 0.8050000000000002 6134.dat
1 15 40 -166.049 -604.066 1 0 0 0 0.8050000000000002 0.593 0 -0.593 0.8050000000000002 6134.dat
1 15 0 -166.049 -604.066 -1 0 0 0 0.8050000000000002 -0.593 0 -0.593 -0.8050000000000002 6134.dat
1 71 90 -179.439 -581.7840000000001 -1 0 0 0 0.8050000000000002 -0.593 0 -0.593 -0.8050000000000002 3070bp07.dat
1 15 60 -179.439 -581.7840000000001 -1 0 0 0 0.8050000000000002 -0.593 0 -0.593 -0.8050000000000002 4150p03.dat
1 70 10 -179.439 -581.7840000000001 -1 0 0 0 0.8050000000000002 -0.593 0 -0.593 -0.8050000000000002 6141.dat
1 70 -30 -179.439 -581.7840000000001 -1 0 0 0 0.8050000000000002 -0.593 0 -0.593 -0.8050000000000002 6141.dat
1 71 -10 -179.439 -581.7840000000001 -1 0 0 0 0.8050000000000002 -0.593 0 -0.593 -0.8050000000000002 2555.dat
1 0 18 -153.599 -563.5640000000001 0 1 0 -0.593 0 -0.8050000000000002 -0.8050000000000002 0 0.593 4592.dat
1 0 18 -153.599 -563.5640000000001 0 1 0 -0.593 0 -0.8050000000000002 -0.8050000000000002 0 0.593 4593.dat
1 47 -110 -232.00000000000003 -500 0 0 -1 0 1 0 1 0 0 60581.dat
1 47 -110 -232.00000000000003 -560 0 0 -1 0 1 0 1 0 0 2362b.dat
1 15 -110 -240 -520 0 0 1 0 1 0 -1 0 0 3710.dat
1 15 -110 -240 -570 0 0 1 0 1 0 -1 0 0 3024.dat
1 15 -110 -240 -470 -1 0 0 0 1 0 0 0 -1 4081b.dat
1 15 -110 -248 -520 0 0 1 0 1 0 -1 0 0 6636.dat
1 47 110 -232.00000000000003 -500 0 0 1 0 1 0 -1 0 0 60581.dat
1 47 110 -232.00000000000003 -560 0 0 1 0 1 0 -1 0 0 2362b.dat
1 15 110 -240 -520 0 0 1 0 1 0 -1 0 0 3710.dat
1 15 110 -240 -470 -1 0 0 0 1 0 0 0 -1 4081b.dat
1 15 110 -240 -570 0 0 1 0 1 0 -1 0 0 3024.dat
1 15 110 -248 -520 0 0 1 0 1 0 -1 0 0 6636.dat
1 15 122.00000000000001 -188 -450 0 -1 0 1 0 0 0 0 1 3023.dat
1 15 130 -178 -450 0 -1 0 1 0 0 0 0 1 3024.dat
1 15 138 -208 -450 0 -1 0 0 0 1 -1 0 0 61678.dat
1 15 -122.00000000000001 -188 -450 0 1 0 1 0 0 0 0 -1 3023.dat
1 15 -130 -178 -450 0 1 0 1 0 0 0 0 -1 3024.dat
1 15 -138 -208 -450 0 1 0 0 0 1 1 0 0 61678.dat
1 15 110 -176 -600 0 0 1 0 1 0 -1 0 0 3004.dat
1 15 110 -200 -590 0 0 1 0 1 0 -1 0 0 3005.dat
1 15 110 -200 -610 1 0 0 0 1 0 0 0 1 87087.dat
1 15 110 -248 -590 1 0 0 0 1 0 0 0 1 60481.dat
1 15 110 -190 -620 -1 0 0 0 0 1 0 1 0 54200.dat
1 15 -110 -176 -600 0 0 1 0 1 0 -1 0 0 3004.dat
1 15 -110 -200 -590 0 0 1 0 1 0 -1 0 0 3005.dat
1 15 -110 -200 -610 1 0 0 0 1 0 0 0 1 87087.dat
1 15 -110 -248 -590 1 0 0 0 1 0 0 0 1 60481.dat
1 15 -110 -190 -620 -1 0 0 0 0 1 0 1 0 54200.dat
1 15 170.321 -176 -571.732 0 -0.5 0.8660000000000001 1 0 0 0 0.8660000000000001 0.5 4081b.dat
1 71 166.32100000000003 -176 -564.8040000000001 0 -0.5 0.8660000000000001 1 0 0 0 0.8660000000000001 0.5 4740.dat
1 47 0 -235.87900000000002 -577.4590000000001 -1 0 0 0 0.8050000000000002 -0.593 0 -0.593 -0.8050000000000002 87544.dat
1 15 0 -235.87900000000002 -577.4590000000001 1 0 0 0 0.8050000000000002 0.593 0 -0.593 0.8050000000000002 85984.dat
1 47 0 -212.024 -607.45 -1 0 0 0 0.593 0.8050000000000002 0 0.8050000000000002 -0.593 4614415a.dat
1 71 0 -256 -480 -1 0 0 0 1 0 0 0 -1 3028.dat
1 15 0 -264 -430 -1 0 0 0 1 0 0 0 -1 4477.dat
1 15 -110 -256 -430 0 0 1 0 1 0 -1 0 0 54200.dat
1 15 110 -256 -430 0 0 -1 0 1 0 1 0 0 54200.dat
1 15 0 -272 -430 -1 0 0 0 1 0 0 0 -1 3069b.dat
1 15 -60 -272 -430 -1 0 0 0 1 0 0 0 -1 2431.dat
1 15 60 -272 -430 -1 0 0 0 1 0 0 0 -1 2431.dat
1 15 20 -280 -460 0 0 -1 0 1 0 1 0 0 44126.dat
1 15 20 -280 -500 0 0 -1 0 1 0 1 0 0 44126.dat
1 15 -20 -280 -500 0 0 1 0 1 0 -1 0 0 44126.dat
1 15 -20 -280 -460 0 0 1 0 1 0 -1 0 0 44126.dat
1 0 60 -256 -550 1 0 0 0 1 0 0 0 1 3710.dat
1 0 -60 -256 -550 1 0 0 0 1 0 0 0 1 3710.dat
1 15 20 -280 -540 0 0 -1 0 1 0 1 0 0 44126.dat
1 15 -20 -280 -540 0 0 1 0 1 0 -1 0 0 44126.dat
1 71 -110 -256 -570 0 0 -1 0 1 0 1 0 0 3623.dat
1 71 110 -256 -570 0 0 -1 0 1 0 1 0 0 3623.dat
1 71 0 -256 -570 0 0 -1 0 1 0 1 0 0 3021.dat
1 15 20 -280 -590 0 0 -1 0 1 0 1 0 0 41747.dat
1 15 -20 -280 -590 0 0 1 0 1 0 -1 0 0 41748.dat
1 15 -20 -280 -570 0 0 1 0 1 0 -1 0 0 42022.dat
1 15 20 -280 -570 0 0 -1 0 1 0 1 0 0 42022.dat
1 15 0 -288 -560 0 0 1 0 1 0 -1 0 0 87079.dat
1 15 0 -288 -480 0 0 1 0 1 0 -1 0 0 87079.dat
1 15 0 -248 -540 0 0 -1 0 1 0 1 0 0 3022.dat
1 72 60 -248 -540 0 0 -1 0 1 0 1 0 0 3022.dat
1 0 -30 -248 -540 0 0 1 0 1 0 -1 0 0 60478.dat
1 0 30 -248 -540 0 0 1 0 1 0 -1 0 0 60478.dat
1 72 -60 -248 -540 0 0 -1 0 1 0 1 0 0 3022.dat
1 0 -90 -248 -540 0 0 1 0 1 0 -1 0 0 60478.dat
1 0 90 -248 -540 0 0 1 0 1 0 -1 0 0 60478.dat
1 0 60 -240 -540 1 0 0 0 1 0 0 0 1 3020.dat
1 0 -60 -240 -540 1 0 0 0 1 0 0 0 1 3020.dat
1 47 60 -234.72899999999998 -578.3050000000001 -1 0 0 0 0.8050000000000002 -0.593 0 -0.593 -0.8050000000000002 60581.dat
1 71 60 -241.169 -573.561 -1 0 0 0 0.8050000000000002 -0.593 0 -0.593 -0.8050000000000002 3023.dat
1 71 90 -241.169 -573.561 0 0 -1 0.593 0.8050000000000002 0 0.8050000000000002 -0.593 0 2555.dat
1 71 30 -241.169 -573.561 0 0 -1 0.593 0.8050000000000002 0 0.8050000000000002 -0.593 0 2555.dat
1 71 60 -247.60899999999998 -568.817 -1 0 0 0 0.8050000000000002 -0.593 0 -0.593 -0.8050000000000002 3069b.dat
1 47 -60 -234.72899999999998 -578.3050000000001 -1 0 0 0 0.8050000000000002 -0.593 0 -0.593 -0.8050000000000002 60581.dat
1 71 -60 -241.169 -573.561 -1 0 0 0 0.8050000000000002 -0.593 0 -0.593 -0.8050000000000002 3023.dat
1 71 -30 -241.169 -573.561 0 0 -1 0.593 0.8050000000000002 0 0.8050000000000002 -0.593 0 2555.dat
1 71 -90 -241.169 -573.561 0 0 -1 0.593 0.8050000000000002 0 0.8050000000000002 -0.593 0 2555.dat
1 71 -60 -247.60899999999998 -568.817 -1 0 0 0 0.8050000000000002 -0.593 0 -0.593 -0.8050000000000002 3069b.dat
1 71 -60 -256 -300 0 0 -1 0 1 0 1 0 0 3028.dat
1 71 60 -256 -300 0 0 -1 0 1 0 1 0 0 3028.dat
1 320 0 -264 -250 -1 0 0 0 1 0 0 0 -1 3666.dat
1 320 0 -264 -390 -1 0 0 0 1 0 0 0 -1 3666.dat
1 4 0 -264 -280 0 0 -1 0 1 0 1 0 0 3022.dat
1 70 -10 -280 -340 0 0 1 0 1 0 -1 0 0 3701.dat
1 70 10 -280 -340 0 0 1 0 1 0 -1 0 0 3701.dat
1 25 -40 -272 -390 1 0 0 0 1 0 0 0 1 2540.dat
1 25 40 -272 -390 1 0 0 0 1 0 0 0 1 2540.dat
1 25 -40 -272 -250 -1 0 0 0 1 0 0 0 -1 2540.dat
1 25 40 -272 -250 -1 0 0 0 1 0 0 0 -1 2540.dat
1 71 0 -272 -250 -1 0 0 0 1 0 0 0 -1 3023.dat
1 71 0 -272 -390 -1 0 0 0 1 0 0 0 -1 3023.dat
1 0 20 -270 -360 -1 0 0 0 1 0 0 0 -1 2780.dat
1 0 -20 -270 -360 -1 0 0 0 1 0 0 0 -1 2780.dat
1 15 -90 -264 -320 0 0 1 0 1 0 -1 0 0 4477.dat
1 15 90 -264 -320 0 0 1 0 1 0 -1 0 0 4477.dat
1 0 90 -264 -210 0 0 1 0 1 0 -1 0 0 3024.dat
1 0 -90 -264 -210 0 0 1 0 1 0 -1 0 0 3024.dat
1 71 30 -278.316 -320.874 0 1 0 -0.978 0 -0.208 -0.208 0 0.978 32316.dat
1 71 -30 -278.316 -320.874 0 1 0 -0.978 0 -0.208 -0.208 0 0.978 32316.dat
1 15 110 -256 -210 0 0 -1 0 1 0 1 0 0 54200.dat
1 15 -110 -256 -210 0 0 1 0 1 0 -1 0 0 54200.dat
1 15 -110 -256 -240 0 0 1 0 1 0 -1 0 0 85984.dat
1 15 -110 -256 -280 0 0 1 0 1 0 -1 0 0 85984.dat
1 15 -110 -256 -320 0 0 1 0 1 0 -1 0 0 85984.dat
1 15 -110 -256 -360 0 0 1 0 1 0 -1 0 0 85984.dat
1 15 -110 -256 -400 0 0 1 0 1 0 -1 0 0 85984.dat
1 15 110 -256 -360 0 0 -1 0 1 0 1 0 0 85984.dat
1 15 110 -256 -400 0 0 -1 0 1 0 1 0 0 85984.dat
1 15 110 -256 -320 0 0 -1 0 1 0 1 0 0 85984.dat
1 15 110 -256 -280 0 0 -1 0 1 0 1 0 0 85984.dat
1 15 110 -256 -240 0 0 -1 0 1 0 1 0 0 85984.dat
1 0 40 -278.316 -320.874 -1 0 0 0 0.978 0.208 0 0.208 -0.978 2780.dat
1 0 -40 -278.316 -320.874 -1 0 0 0 1 0 0 0 -1 2780.dat
1 15 0 -280 -390 1 0 0 0 1 0 0 0 1 6636.dat
1 15 0 -280 -250 1 0 0 0 1 0 0 0 1 6636.dat
1 15 90 -272 -360 0 0 -1 0 1 0 1 0 0 6636.dat
1 15 -90 -272 -360 0 0 -1 0 1 0 1 0 0 6636.dat
1 15 90 -272 -260 0 0 1 0 1 0 -1 0 0 2431.dat
1 15 -90 -272 -260 0 0 1 0 1 0 -1 0 0 2431.dat
1 15 0 -288 -340 0 0 -1 0 1 0 1 0 0 87079.dat
1 71 -50 -278.29200000000003 -320.75 0 1 0 -0.9810000000000001 0 0.193 0.193 0 0.9810000000000001 32316.dat
1 72 0 -296 -360 1 0 0 0 1 0 0 0 1 30157.dat
1 71 50 -278.29200000000003 -320.75 0 1 0 -0.9810000000000001 0 0.193 0.193 0 0.9810000000000001 32316.dat
1 15 0 -304 -320 0 0 1 0 1 0 -1 0 0 3035.dat
1 320 0 -288 -390 -1 0 0 0 1 0 0 0 -1 3666.dat
1 25 40 -296 -390 1 0 0 0 1 0 0 0 1 2540.dat
1 25 -40 -296 -390 1 0 0 0 1 0 0 0 1 2540.dat
1 71 0 -296 -390 -1 0 0 0 1 0 0 0 -1 3023.dat
1 72 -50 -304 -390 -1 0 0 0 1 0 0 0 -1 6141.dat
1 72 50 -304 -390 -1 0 0 0 1 0 0 0 -1 6141.dat
1 320 0 -288 -250 1 0 0 0 1 0 0 0 1 3666.dat
1 25 -40 -296 -250 -1 0 0 0 1 0 0 0 -1 2540.dat
1 25 40 -296 -250 -1 0 0 0 1 0 0 0 -1 2540.dat
1 71 0 -296 -250 1 0 0 0 1 0 0 0 1 3023.dat
1 72 50 -304 -250 1 0 0 0 1 0 0 0 1 6141.dat
1 72 -50 -304 -250 1 0 0 0 1 0 0 0 1 6141.dat
1 15 0 -312 -360 1 0 0 0 1 0 0 0 1 3035.dat
1 15 0 -312 -280 1 0 0 0 1 0 0 0 1 3035.dat
1 15 0 -320 -320 -1 0 0 0 1 0 0 0 -1 87079.dat
1 15 0 -320 -360 -1 0 0 0 1 0 0 0 -1 87079.dat
1 15 0 -320 -280 -1 0 0 0 1 0 0 0 -1 87079.dat
1 15 90 -280 -320 0 0 -1 0 1 0 1 0 0 4477.dat
1 15 70 -312 -380 0 0 -1 0 1 0 1 0 0 6081.dat
1 15 70 -312 -330 0 0 -1 0 1 0 1 0 0 6091.dat
1 15 70 -312 -310 0 0 -1 0 1 0 1 0 0 6091.dat
1 15 70 -312 -260 0 0 -1 0 1 0 1 0 0 6081.dat
1 15 -90 -280 -320 0 0 1 0 1 0 -1 0 0 4477.dat
1 15 -70 -312 -260 0 0 1 0 1 0 -1 0 0 6081.dat
1 15 -70 -312 -310 0 0 1 0 1 0 -1 0 0 6091.dat
1 15 -70 -312 -330 0 0 1 0 1 0 -1 0 0 6091.dat
1 15 -70 -312 -380 0 0 1 0 1 0 -1 0 0 6081.dat
1 71 0 -256 -120 1 0 0 0 1 0 0 0 1 3028.dat
1 71 110 -256 -40 0 0 1 0 1 0 -1 0 0 3023.dat
1 71 -110 -256 -40 0 0 1 0 1 0 -1 0 0 3023.dat
1 15 -100 -256 -160 0 0 1 0 1 0 -1 0 0 88930.dat
1 15 100 -256 -160 0 0 -1 0 1 0 1 0 0 88930.dat
1 15 100 -256 -80 0 0 -1 0 1 0 1 0 0 88930.dat
1 15 -100 -256 -80 0 0 1 0 1 0 -1 0 0 88930.dat
1 0 0 -256 -40 1 0 0 0 1 0 0 0 1 3020.dat
1 15 -20 -280 -30 0 0 1 0 1 0 -1 0 0 41747.dat
1 15 20 -280 -30 0 0 -1 0 1 0 1 0 0 41748.dat
1 15 -60 -280 -120 0 0 -1 0 1 0 1 0 0 3007.dat
1 15 60 -280 -120 0 0 -1 0 1 0 1 0 0 3007.dat
1 15 20 -280 -80 0 0 -1 0 1 0 1 0 0 3001.dat
1 15 -20 -280 -80 0 0 -1 0 1 0 1 0 0 3001.dat
1 15 0 -280 -130 -1 0 0 0 1 0 0 0 -1 3010.dat
1 71 0 -264 -180 -1 0 0 0 1 0 0 0 -1 3031.dat
1 19 -20 -272 -170 0 0 1 0 1 0 -1 0 0 3021.dat
1 19 20 -272 -170 0 0 1 0 1 0 -1 0 0 3021.dat
1 15 0 -272 -210 1 0 0 0 1 0 0 0 1 3069b.dat
1 15 0 -280 -150 1 0 0 0 1 0 0 0 1 3710.dat
1 15 -20 -280 -180 1 0 0 0 1 0 0 0 1 3022.dat
1 15 20 -280 -180 1 0 0 0 1 0 0 0 1 3022.dat
1 0 0 -288 -190 1 0 0 0 1 0 0 0 1 3710.dat
1 0 -40 -288 -50 1 0 0 0 1 0 0 0 1 3710.dat
1 0 40 -288 -50 1 0 0 0 1 0 0 0 1 3710.dat
1 0 60 -288 -190 1 0 0 0 1 0 0 0 1 60478.dat
1 0 -60 -288 -190 -1 0 0 0 1 0 0 0 -1 60478.dat
1 0 -60 -288 -70 -1 0 0 0 1 0 0 0 -1 60478.dat
1 0 -60 -288 -130 -1 0 0 0 1 0 0 0 -1 60478.dat
1 0 60 -288 -130 1 0 0 0 1 0 0 0 1 60478.dat
1 0 60 -288 -70 1 0 0 0 1 0 0 0 1 60478.dat
1 71 0 -288 -130 1 0 0 0 1 0 0 0 1 3023.dat
1 19 -70 -296 -120 0 0 -1 0 1 0 1 0 0 6636.dat
1 19 70 -296 -120 0 0 -1 0 1 0 1 0 0 6636.dat
1 19 50 -296 -120 0 0 -1 0 1 0 1 0 0 4162.dat
1 19 -50 -296 -120 0 0 -1 0 1 0 1 0 0 4162.dat
1 19 -10 -296 -120 0 0 -1 0 1 0 1 0 0 4162.dat
1 19 10 -296 -120 0 0 -1 0 1 0 1 0 0 4162.dat
1 19 -70 -296 -50 -1 0 0 0 1 0 0 0 -1 3024.dat
1 19 -70 -296 -190 -1 0 0 0 1 0 0 0 -1 3024.dat
1 19 70 -296 -190 -1 0 0 0 1 0 0 0 -1 3024.dat
1 19 70 -296 -50 -1 0 0 0 1 0 0 0 -1 3024.dat
1 19 30 -296 -190 -1 0 0 0 1 0 0 0 -1 3024.dat
1 19 -30 -296 -190 -1 0 0 0 1 0 0 0 -1 3024.dat
1 19 -30 -296 -50 -1 0 0 0 1 0 0 0 -1 3024.dat
1 19 30 -296 -50 -1 0 0 0 1 0 0 0 -1 3024.dat
1 71 -70 -304 -50 -1 0 0 0 1 0 0 0 -1 2555.dat
1 71 -70 -304 -190 -1 0 0 0 1 0 0 0 -1 2555.dat
1 71 70 -304 -190 -1 0 0 0 1 0 0 0 -1 2555.dat
1 71 70 -304 -50 -1 0 0 0 1 0 0 0 -1 2555.dat
1 71 30 -304 -50 0 0 1 0 1 0 -1 0 0 2555.dat
1 71 -30 -304 -50 0 0 1 0 1 0 -1 0 0 2555.dat
1 71 -30 -304 -190 0 0 1 0 1 0 -1 0 0 2555.dat
1 71 30 -304 -190 0 0 1 0 1 0 -1 0 0 2555.dat
1 71 -42.5 -310 -190 0 -1 0 0 0 1 -1 0 0 63965a.dat
1 71 -42.5 -310 -50 0 -1 0 0 0 1 -1 0 0 63965a.dat
1 15 60 -272 -210 1 0 0 0 1 0 0 0 1 2431.dat
1 15 -60 -272 -210 1 0 0 0 1 0 0 0 1 2431.dat
1 71 70 -310 -200 -1 0 0 0 0 1 0 1 0 76260.dat
1 71 -70 -310 -200 -1 0 0 0 0 1 0 1 0 76260.dat
1 71 124.15300000000002 -265.071 -190 0 -0.656 0.7550000000000001 0 -0.7550000000000001 -0.656 1 0 0 30377.dat
1 71 124.15300000000002 -265.071 -130 0 -0.656 0.7550000000000001 0 -0.7550000000000001 -0.656 1 0 0 30377.dat
1 71 124.15300000000002 -265.071 -70 0 -0.656 0.7550000000000001 0 -0.7550000000000001 -0.656 1 0 0 30377.dat
1 71 -124.15300000000002 -265.071 -70 0 0.656 -0.7550000000000001 0 -0.7550000000000001 -0.656 -1 0 0 30377.dat
1 71 -124.15300000000002 -265.071 -130 0 0.656 -0.7550000000000001 0 -0.7550000000000001 -0.656 -1 0 0 30377.dat
1 71 -124.15300000000002 -265.071 -190 0 0.656 -0.7550000000000001 0 -0.7550000000000001 -0.656 -1 0 0 30377.dat
1 15 -40 -292 -208 -1 0 0 0 0 -1 0 -1 0 87079.dat
1 15 -60 -312 -230 -1 0 0 0 1 0 0 0 -1 44728.dat
1 15 40 -292 -208 -1 0 0 0 0 -1 0 -1 0 87079.dat
1 15 0 -312 -230 -1 0 0 0 1 0 0 0 -1 2436a.dat
1 15 0 -320 -240 -1 0 0 0 1 0 0 0 -1 87079.dat
1 15 60 -312 -230 -1 0 0 0 1 0 0 0 -1 44728.dat
1 15 40 -292 -432 1 0 0 0 0 -1 0 1 0 87079.dat
1 15 60 -312 -410 1 0 0 0 1 0 0 0 1 44728.dat
1 15 -40 -292 -432 1 0 0 0 0 -1 0 1 0 87079.dat
1 15 0 -312 -410 1 0 0 0 1 0 0 0 1 2436a.dat
1 15 0 -320 -400 1 0 0 0 1 0 0 0 1 87079.dat
1 15 -60 -312 -410 1 0 0 0 1 0 0 0 1 44728.dat
1 47 0 -248 -180 0 0 -1 0 1 0 1 0 0 2654a.dat
1 4 0 -52 -628 1 0 0 0 0 -1 0 1 0 2445.dat
1 4 110 -72 -636 0 0 -1 -1 0 0 0 1 0 3710.dat
1 4 -110 -72 -636 0 0 -1 -1 0 0 0 1 0 3710.dat
1 4 -110 -112.00000000000001 -628 0 0 -1 -1 0 0 0 1 0 3710.dat
1 4 110 -112.00000000000001 -628 0 0 -1 -1 0 0 0 1 0 3710.dat
1 19 70 -52 -636 -1 0 0 0 0 1 0 1 0 3021.dat
1 19 -70 -52 -636 -1 0 0 0 0 1 0 1 0 3021.dat
1 4 -30 -42 -652 1 0 0 0 0 -1 0 1 0 2357.dat
1 4 30 -42 -652 0 0 -1 -1 0 0 0 1 0 2357.dat
1 0 0 -92.00000000000001 -628 1 0 0 0 0 -1 0 1 0 3020.dat
1 71 0 -132 -628 -1 0 0 0 0 1 0 1 0 3832.dat
1 15 0 -112.00000000000001 -636 0 0 1 1 0 0 0 1 0 3795.dat
1 15 -30 -152 -636 0 0 1 1 0 0 0 1 0 3023.dat
1 15 30 -152 -636 0 0 1 1 0 0 0 1 0 3023.dat
1 4 -50 -52 -644 0 0 1 1 0 0 0 1 0 3023.dat
1 4 50 -52 -644 0 0 1 1 0 0 0 1 0 3023.dat
1 4 -80 -92.00000000000001 -640 0 0 1 -1 0 0 0 -1 0 3022.dat
1 71 -80 -92.00000000000001 -648 0 0 1 -1 0 0 0 -1 0 4032a.dat
1 19 -90 -92.00000000000001 -632 0 0 1 -1 0 0 0 -1 0 3023.dat
1 71 -70 -92.00000000000001 -632 0 0 -1 1 0 0 0 -1 0 48336.dat
1 0 -80 -92.00000000000001 -624 0 0 1 -1 0 0 0 -1 0 3068b.dat
1 47 -80 -92.00000000000001 -656.0000000000001 0 0 1 -1 0 0 0 -1 0 2654a.dat
1 0 -30 -92.00000000000001 -636 0 0 1 1 0 0 0 1 0 60470a.dat
1 4 80 -92.00000000000001 -640 0 0 -1 1 0 0 0 -1 0 3022.dat
1 71 80 -92.00000000000001 -648 0 0 -1 1 0 0 0 -1 0 4032a.dat
1 19 90 -92.00000000000001 -632 0 0 -1 1 0 0 0 -1 0 3023.dat
1 71 70 -92.00000000000001 -632 0 0 1 -1 0 0 0 -1 0 48336.dat
1 0 80 -92.00000000000001 -624 0 0 -1 1 0 0 0 -1 0 3068b.dat
1 47 80 -92.00000000000001 -656.0000000000001 0 0 -1 1 0 0 0 -1 0 2654a.dat
1 0 30 -92.00000000000001 -636 0 0 -1 -1 0 0 0 1 0 60470a.dat
1 4 90 -132 -636 -1 0 0 0 0 1 0 1 0 3021.dat
1 4 -90 -132 -636 -1 0 0 0 0 1 0 1 0 3021.dat
1 15 0 -162 -628 -1 0 0 0 0 1 0 1 0 60479.dat
1 19 0 -62 -644 -1 0 0 0 0 1 0 1 0 3023.dat
1 0 0 -92.00000000000001 -644 -1 0 0 0 0 1 0 1 0 3020.dat
1 19 80 -122.00000000000001 -644 -1 0 0 0 0 1 0 1 0 3023.dat
1 19 -80 -122.00000000000001 -644 -1 0 0 0 0 1 0 1 0 3023.dat
1 15 -110 -162 -636 -1 0 0 0 0 1 0 1 0 3070b.dat
1 15 110 -162 -636 -1 0 0 0 0 1 0 1 0 3070b.dat
1 15 80 -142 -644 1 0 0 0 0 -1 0 1 0 3069b.dat
1 15 -80 -142 -644 1 0 0 0 0 -1 0 1 0 3069b.dat
1 15 -80 -162 -628 -1 0 0 0 0 1 0 1 0 85984.dat
1 15 80 -162 -628 -1 0 0 0 0 1 0 1 0 85984.dat
1 4 0 -62 -652 -1 0 0 0 0 1 0 1 0 3794a.dat
1 4 0 -92.00000000000001 -652 -1 0 0 0 0 1 0 1 0 3020.dat
1 15 50 -72 -652 0 0 1 1 0 0 0 1 0 3710.dat
1 15 -50 -72 -652 0 0 1 1 0 0 0 1 0 3710.dat
1 15 -50 -142 -652 -1 0 0 0 0 1 0 1 0 50950.dat
1 15 50 -142 -652 -1 0 0 0 0 1 0 1 0 50950.dat
1 4 -80 -42 -660 0 0 1 1 0 0 0 1 0 61678.dat
1 4 -80 -62 -660 0 0 1 1 0 0 0 1 0 61678.dat
1 4 80 -62 -660 0 0 -1 -1 0 0 0 1 0 61678.dat
1 4 80 -42 -660 0 0 -1 -1 0 0 0 1 0 61678.dat
1 4 30 -62 -660 0 0 -1 -1 0 0 0 1 0 63864.dat
1 4 -30 -62 -660 0 0 -1 -1 0 0 0 1 0 63864.dat
1 4 -10 -42 -660 -1 0 0 0 0 1 0 1 0 2555.dat
1 4 10 -42 -660 -1 0 0 0 0 1 0 1 0 2555.dat
1 4 -110 -82.00000000000001 -636 0 0 1 1 0 0 0 1 0 54200.dat
1 4 -110 -102.00000000000001 -636 0 0 1 1 0 0 0 1 0 54200.dat
1 4 110 -102.00000000000001 -636 0 0 -1 -1 0 0 0 1 0 54200.dat
1 4 110 -82.00000000000001 -636 0 0 -1 -1 0 0 0 1 0 54200.dat
1 80 110 -122.00000000000001 -644 0 0 1 1 0 0 0 1 0 6141.dat
1 80 -110 -122.00000000000001 -644 0 0 1 1 0 0 0 1 0 6141.dat
1 4 -110 -142 -644 0 0 1 1 0 0 0 1 0 2555.dat
1 4 110 -142 -644 0 0 1 1 0 0 0 1 0 2555.dat
1 38 -110 -122.00000000000001 -652 0 0 1 1 0 0 0 1 0 6141.dat
1 38 110 -122.00000000000001 -652 0 0 1 1 0 0 0 1 0 6141.dat
1 4 50 -92.00000000000001 -660 0 0 -1 -1 0 0 0 1 0 3069b.dat
1 4 -50 -92.00000000000001 -660 0 0 -1 -1 0 0 0 1 0 3069b.dat
1 4 -80 -122.00000000000001 -652 1 0 0 0 0 -1 0 1 0 3069b.dat
1 4 80 -122.00000000000001 -652 1 0 0 0 0 -1 0 1 0 3069b.dat
1 15 0 -62 -660 0 0 1 1 0 0 0 1 0 3070b.dat
1 15 0 -92.00000000000001 -660 0 0 1 1 0 0 0 1 0 3068b.dat
1 15 0 -122.00000000000001 -660 -1 0 0 0 0 1 0 1 0 3937.dat
1 15 -30 -132 -660 -1 0 0 0 0 1 0 1 0 61678.dat
1 15 30 -132 -660 -1 0 0 0 0 1 0 1 0 61678.dat
1 15 0 -162 -636 -1 0 0 0 0 1 0 1 0 85984.dat
1 15 0 -124.41900000000001 -659.703 1 0 0 0 0.242 -0.97 0 0.97 0.242 6134.dat
1 15 0 -136.05700000000002 -665.046 1 0 0 0 0.242 -0.97 0 0.97 0.242 4150.dat
1 15 0 -136.05700000000002 -665.046 1 0 0 0 0.242 -0.97 0 0.97 0.242 4614425a.dat
1 15 110 -22 -100 0 0 1 1 0 0 0 1 0 56904.dat
1 80 118 -22 -100 0 -1 0 -1 0 0 0 0 -1 6141.dat
1 38 126.00000000000001 -22 -100 0 -1 0 -1 0 0 0 0 -1 6141.dat
1 80 134 -22 -100 0 -1 0 -1 0 0 0 0 -1 43898.dat
1 256 110 -22 -100 0 0 1 1 0 0 0 1 0 56898.dat
1 15 110 -22 -500 0 0 1 1 0 0 0 1 0 56904.dat
1 80 118 -22 -500 0 -1 0 -1 0 0 0 0 -1 6141.dat
1 38 126.00000000000001 -22 -500 0 -1 0 -1 0 0 0 0 -1 6141.dat
1 80 134 -22 -500 0 -1 0 -1 0 0 0 0 -1 43898.dat
1 256 110 -22 -500 0 0 1 1 0 0 0 1 0 56898.dat
1 15 -110 -22 -100 0 0 -1 -1 0 0 0 1 0 56904.dat
1 80 -118 -22 -100 0 1 0 1 0 0 0 0 -1 6141.dat
1 38 -126.00000000000001 -22 -100 0 1 0 1 0 0 0 0 -1 6141.dat
1 80 -134 -22 -100 0 1 0 1 0 0 0 0 -1 43898.dat
1 256 -110 -22 -100 0 0 -1 -1 0 0 0 1 0 56898.dat
1 15 -110 -22 -500 0 0 -1 -1 0 0 0 1 0 56904.dat
1 80 -118 -22 -500 0 1 0 1 0 0 0 0 -1 6141.dat
1 38 -126.00000000000001 -22 -500 0 1 0 1 0 0 0 0 -1 6141.dat
1 80 -134 -22 -500 0 1 0 1 0 0 0 0 -1 43898.dat
1 256 -110 -22 -500 0 0 -1 -1 0 0 0 1 0 56898.dat
1 0 132 -108 -100 0 -1 0 0 0 -1 1 0 0 3020.dat
1 4 140 -118 -80 0 -1 0 0 0 -1 1 0 0 3069b.dat
1 4 140 -118 -120 0 -1 0 0 0 -1 1 0 0 3069b.dat
1 4 140 -88 -100 0 -1 0 0 0 -1 1 0 0 87079.dat
1 0 -132 -108 -100 0 1 0 0 0 -1 -1 0 0 3020.dat
1 4 -140 -118 -70 0 1 0 0 0 -1 -1 0 0 3024.dat
1 4 -140 -118 -110 0 1 0 0 0 -1 -1 0 0 63864.dat
1 4 -140 -88 -100 0 1 0 0 0 -1 -1 0 0 87079.dat
1 80 -148 -118 -70 0 1 0 0 0 -1 -1 0 0 6141.dat
