1 10 -40 -8 0 1 0 0 0 1 0 0 0 1 91405.dat
1 72 -180 -16 150 1 0 0 0 1 0 0 0 1 3069b.dat
1 72 -170 -16 60 0 0 -1 0 1 0 1 0 0 4162.dat
1 72 -140 -16 130 1 0 0 0 1 0 0 0 1 3069b.dat
1 71 -100 -16 130 1 0 0 0 1 0 0 0 1 3023.dat
1 71 -40 -32 130 1 0 0 0 1 0 0 0 1 3010.dat
1 71 -190 -32 -60 0 0 -1 0 1 0 1 0 0 3010.dat
1 71 -170 -32 -60 0 0 -1 0 1 0 1 0 0 3010.dat
1 71 -80 -16 -30 1 0 0 0 1 0 0 0 1 30586.dat
1 71 -150 -8 -10 0 0 -1 0 1 0 1 0 0 54200.dat
1 71 10 -32 110 0 0 -1 0 1 0 1 0 0 3622.dat
1 71 10 -32 -30 0 0 -1 0 1 0 1 0 0 3622.dat
1 0 30 -16 40 0 0 -1 0 1 0 1 0 0 2412b.dat
1 72 40 -16 70 1 0 0 0 1 0 0 0 1 3069b.dat
1 72 40 -16 10 1 0 0 0 1 0 0 0 1 3069b.dat
1 72 50 -16 40 0 0 -1 0 1 0 1 0 0 3069b.dat
1 71 -170 -24.000000000000004 60 0 0 -1 0 1 0 1 0 0 3460.dat
1 72 -170 -32 0 0 0 1 0 1 0 -1 0 0 88072.dat
1 71 -170 -32 60 0 0 1 0 1 0 -1 0 0 3710.dat
1 71 -120 -24.000000000000004 140 -1 0 0 0 1 0 0 0 -1 2429c01.dat
1 71 -150 -32 120 -1 0 0 0 1 0 0 0 -1 3021.dat
1 71 -100 -32 130 -1 0 0 0 1 0 0 0 -1 3023.dat
1 19 -190 -56.00000000000001 -80 0 0 1 0 1 0 -1 0 0 3004.dat
1 71 -180 -56.00000000000001 -40 0 0 1 0 1 0 -1 0 0 3003.dat
1 71 -170 -56.00000000000001 10 0 0 1 0 1 0 -1 0 0 3622.dat
1 71 -170 -56.00000000000001 80 0 0 1 0 1 0 -1 0 0 3010.dat
1 19 -140 -56.00000000000001 110 1 0 0 0 1 0 0 0 1 3004.dat
1 71 -150 -56.00000000000001 130 1 0 0 0 1 0 0 0 1 3622.dat
1 0 -170 -40 -80 0 0 -1 0 1 0 1 0 0 2540.dat
1 57 -170 -48.00000000000001 -70 0 0 -1 0 1 0 1 0 0 6141.dat
1 57 -170 -48.00000000000001 -90 0 0 -1 0 1 0 1 0 0 6141.dat
1 0 -170 -56.00000000000001 -80 0 0 -1 0 1 0 1 0 0 2412b.dat
1 71 -80 -56.00000000000001 130 -1 0 0 0 1 0 0 0 -1 3010.dat
1 71 -10 -56.00000000000001 130 1 0 0 0 1 0 0 0 1 3622.dat
1 71 10 -56.00000000000001 100 0 0 -1 0 1 0 1 0 0 3004.dat
1 15 -140 -64 130 1 0 0 0 1 0 0 0 1 3023.dat
1 28 -140 -64 110 1 0 0 0 1 0 0 0 1 32028.dat
1 15 -170 -64 60 0 0 -1 0 1 0 1 0 0 3460.dat
1 0 -120 -16 40 1 0 0 0 1 0 0 0 1 3680.dat
1 71 -120 -24.000000000000004 30 1 0 0 0 1 0 0 0 1 3023.dat
1 71 -120 -24.000000000000004 50 -1 0 0 0 1 0 0 0 -1 99207.dat
1 19 -120 -32 40 1 0 0 0 1 0 0 0 1 3022.dat
1 73 -120 -26 72 1 0 0 0 0 1 0 -1 0 3069b.dat
1 73 -120 -46.00000000000001 72 1 0 0 0 0 1 0 -1 0 3069b.dat
1 71 -120 -16 40 1 0 0 0 1 0 0 0 1 3679.dat
1 70 -60 -32 40 1 0 0 0 1 0 0 0 1 3941.dat
1 19 -60 -40 40 1 0 0 0 1 0 0 0 1 3022.dat
1 15 -90 -64 130 1 0 0 0 1 0 0 0 1 3623.dat
1 28 -40 -64 130 -1 0 0 0 1 0 0 0 -1 32028.dat
1 15 0 -64 130 -1 0 0 0 1 0 0 0 -1 3023.dat
1 15 10 -64 100 0 0 1 0 1 0 -1 0 0 3023.dat
1 71 -190 -80 -70 0 0 1 0 1 0 -1 0 0 3622.dat
1 72 -170 -80 -30 -1 0 0 0 1 0 0 0 -1 2357.dat
1 4 -170 -88 10 0 0 1 0 1 0 -1 0 0 3622.dat
1 4 -170 -88 80 0 0 1 0 1 0 -1 0 0 3010.dat
1 4 -150 -88 130 1 0 0 0 1 0 0 0 1 3622.dat
1 4 -90 -88 130 1 0 0 0 1 0 0 0 1 3622.dat
1 4 10 -88 130 -1 0 0 0 1 0 0 0 -1 2357.dat
1 4 10 -88 90 -1 0 0 0 1 0 0 0 -1 3005.dat
1 4 -130 -112.00000000000001 130 -1 0 0 0 1 0 0 0 -1 3005.dat
1 4 -170 -112.00000000000001 130 0 0 1 0 1 0 -1 0 0 2357.dat
1 4 -170 -112.00000000000001 60 0 0 1 0 1 0 -1 0 0 3010.dat
1 4 -170 -112.00000000000001 0 0 0 1 0 1 0 -1 0 0 3004.dat
1 71 -180 -104 -40 0 0 1 0 1 0 -1 0 0 3003.dat
1 72 -190 -104 -80 0 0 -1 0 1 0 1 0 0 3039.dat
1 4 -90 -112.00000000000001 130 1 0 0 0 1 0 0 0 1 3622.dat
1 15 -40 -112.00000000000001 130 -1 0 0 0 1 0 0 0 -1 60592.dat
1 47 -40 -112.00000000000001 130 -1 0 0 0 1 0 0 0 -1 60601.dat
1 4 -10 -112.00000000000001 130 -1 0 0 0 1 0 0 0 -1 3005.dat
1 4 10 -112.00000000000001 110 0 0 1 0 1 0 -1 0 0 3622.dat
1 4 -170 -136 10 0 0 1 0 1 0 -1 0 0 3622.dat
1 4 -170 -136 80 0 0 1 0 1 0 -1 0 0 3010.dat
1 4 -150 -136 130 1 0 0 0 1 0 0 0 1 3622.dat
1 71 -180 -128 -40 0 0 1 0 1 0 -1 0 0 3003.dat
1 71 -190 -128 -70 1 0 0 0 1 0 0 0 1 3040b.dat
1 15 -130 -88 110 1 0 0 0 1 0 0 0 1 59900.dat
1 57 -130 -96.00000000000001 110 1 0 0 0 1 0 0 0 1 6141.dat
1 57 -130 -104 110 1 0 0 0 1 0 0 0 1 6141.dat
1 272 -130 -104 110 1 0 0 0 1 0 0 0 1 54200.dat
1 4 0 -136 130 1 0 0 0 1 0 0 0 1 3004.dat
1 0 10 -136 110 0 0 -1 0 1 0 1 0 0 87087.dat
1 4 10 -136 90 -1 0 0 0 1 0 0 0 -1 3005.dat
1 4 -90 -136 130 1 0 0 0 1 0 0 0 1 3622.dat
1 71 -190 -152 -50 1 0 0 0 1 0 0 0 1 3040b.dat
1 72 -170 -152 -30 -1 0 0 0 1 0 0 0 -1 2357.dat
1 4 -170 -160 0 0 0 1 0 1 0 -1 0 0 3004.dat
1 4 -170 -160 60 0 0 1 0 1 0 -1 0 0 3010.dat
1 4 -170 -160 130 0 0 1 0 1 0 -1 0 0 2357.dat
1 4 -130 -160 130 -1 0 0 0 1 0 0 0 -1 3005.dat
1 4 -90 -160 130 1 0 0 0 1 0 0 0 1 3622.dat
1 15 -40 -160 130 -1 0 0 0 1 0 0 0 -1 60592.dat
1 47 -40 -160 130 -1 0 0 0 1 0 0 0 -1 60601.dat
1 4 -10 -160 130 -1 0 0 0 1 0 0 0 -1 3005.dat
1 4 10 -160 110 0 0 1 0 1 0 -1 0 0 3622.dat
1 15 10 -152 40 0 0 1 0 1 0 -1 0 0 60596.dat
1 14 15 -152 8 0 0 -1 0 1 0 1 0 0 60623.dat
1 0 26 -84 66 0 -1 0 0 0 -1 1 0 0 6141.dat
1 15 20 -160 40 0 0 1 0 1 0 -1 0 0 3020.dat
1 272 30 -160 70 0 0 -1 0 1 0 1 0 0 54200.dat
1 272 30 -160 50 0 0 -1 0 1 0 1 0 0 54200.dat
1 272 30 -160 30 0 0 -1 0 1 0 1 0 0 54200.dat
1 272 30 -160 10 0 0 -1 0 1 0 1 0 0 54200.dat
1 4 -170 -168 60 0 0 1 0 1 0 -1 0 0 3460.dat
1 4 -120 -168 140 -1 0 0 0 1 0 0 0 -1 2429c01.dat
1 15 -120 -160 -30 -1 0 0 0 1 0 0 0 -1 60596.dat
1 47 -120 -156 -35 1 0 0 0 1 0 0 0 1 57895.dat
1 71 10 -56.00000000000001 -30 0 0 -1 0 1 0 1 0 0 3622.dat
1 15 10 -64 -30 0 0 -1 0 1 0 1 0 0 3623.dat
1 4 10 -88 -30 0 0 1 0 1 0 -1 0 0 3622.dat
1 4 10 -112.00000000000001 -30 0 0 1 0 1 0 -1 0 0 3622.dat
1 4 10 -136 -30 0 0 1 0 1 0 -1 0 0 3622.dat
1 4 10 -160 -30 0 0 1 0 1 0 -1 0 0 3622.dat
1 4 -40 -168 130 1 0 0 0 1 0 0 0 1 3710.dat
1 4 10 -168 120 0 0 -1 0 1 0 1 0 0 3023.dat
1 4 10 -168 20 0 0 1 0 1 0 -1 0 0 3460.dat
1 15 -40 -160 -50 -1 0 0 0 1 0 0 0 -1 60596.dat
1 47 -40 -156 -55 1 0 0 0 1 0 0 0 1 57895.dat
1 71 -80 -168 -30 1 0 0 0 1 0 0 0 1 30586.dat
1 19 -180 -160 -40 1 0 0 0 1 0 0 0 1 3022.dat
1 19 -180 -168 -40 1 0 0 0 1 0 0 0 1 3022.dat
1 71 -190 -176 -40 0 0 -1 0 1 0 1 0 0 3023.dat
1 4 -80 -176 -40 -1 0 0 0 1 0 0 0 -1 3832.dat
1 4 -170 -176 10 0 0 1 0 1 0 -1 0 0 3623.dat
1 4 -170 -176 80 0 0 1 0 1 0 -1 0 0 3710.dat
1 4 -150 -176 130 1 0 0 0 1 0 0 0 1 3623.dat
1 4 -80 -176 130 1 0 0 0 1 0 0 0 1 3710.dat
1 4 -10 -176 130 1 0 0 0 1 0 0 0 1 3623.dat
1 4 10 -176 90 0 0 -1 0 1 0 1 0 0 3623.dat
1 4 10 -176 20 0 0 1 0 1 0 -1 0 0 3710.dat
1 71 -190 -176 -30 0 0 1 0 1 0 -1 0 0 54200.dat
1 71 -190 -176 -50 0 0 1 0 1 0 -1 0 0 54200.dat
1 15 -170 -184.00000000000003 -40 0 0 1 0 1 0 -1 0 0 3069b.dat
1 15 -170 -184.00000000000003 60 0 0 1 0 1 0 -1 0 0 4162.dat
1 15 -140 -184.00000000000003 130 -1 0 0 0 1 0 0 0 -1 3069b.dat
1 15 -120 -184.00000000000003 -50 -1 0 0 0 1 0 0 0 -1 92593.dat
1 15 -40 -184.00000000000003 -50 -1 0 0 0 1 0 0 0 -1 92593.dat
1 15 10 -184.00000000000003 20 0 0 1 0 1 0 -1 0 0 4162.dat
1 15 10 -184.00000000000003 120 0 0 1 0 1 0 -1 0 0 3069b.dat
1 15 -40 -184.00000000000003 130 -1 0 0 0 1 0 0 0 -1 92593.dat
1 15 -100 -184.00000000000003 130 -1 0 0 0 1 0 0 0 -1 3069b.dat
1 0 44 -126.00000000000001 110 0 -1 0 0 0 -1 1 0 0 4599b.dat
1 46 40 -148 110 0 0 -1 0 -1 0 -1 0 0 59900.dat
1 0 40 -172 110 0 0 -1 0 -1 0 -1 0 0 6141.dat
1 70 40 -32 120 0 0 -1 0 1 0 1 0 0 3941.dat
1 27 30 -40 130 0 0 -1 0 1 0 1 0 0 6141.dat
1 27 30 -40 110 0 0 -1 0 1 0 1 0 0 6141.dat
1 4 50 -40 130 0 0 -1 0 1 0 1 0 0 6141.dat
1 14 50 -40 110 0 0 -1 0 1 0 1 0 0 6141.dat
1 14 30 -48.00000000000001 110 0 0 -1 0 1 0 1 0 0 6141.dat
1 15 -80 -192.00000000000003 -40 1 0 0 0 1 0 0 0 1 32001.dat
1 4 -80 -216 -30 1 0 0 0 1 0 0 0 1 3010.dat
1 15 0 -192.00000000000003 40 0 0 -1 0 1 0 1 0 0 3832.dat
1 15 -160 -192.00000000000003 40 0 0 -1 0 1 0 1 0 0 3832.dat
1 4 -10 -216 -20 1 0 0 0 1 0 0 0 1 3002.dat
1 4 -150 -216 -20 1 0 0 0 1 0 0 0 1 3002.dat
1 272 -180 -216 -50 1 0 0 0 1 0 0 0 1 3039.dat
1 272 -80 -216 -50 1 0 0 0 1 0 0 0 1 4445.dat
1 272 20 -216 -50 1 0 0 0 1 0 0 0 1 3039.dat
1 4 -150 -216 10 1 0 0 0 1 0 0 0 1 3622.dat
1 4 -10 -216 10 1 0 0 0 1 0 0 0 1 3622.dat
1 4 -170 -200 40 0 0 -1 0 1 0 1 0 0 3023.dat
1 4 -170 -208 40 0 0 -1 0 1 0 1 0 0 3023.dat
1 4 10 -200 40 0 0 -1 0 1 0 1 0 0 3023.dat
1 4 10 -208 40 0 0 -1 0 1 0 1 0 0 3023.dat
1 28 10 -216 40 0 0 -1 0 1 0 1 0 0 32028.dat
1 28 -170 -216 40 0 0 1 0 1 0 -1 0 0 32028.dat
1 4 -150 -216 70 1 0 0 0 1 0 0 0 1 3622.dat
1 4 -10 -216 70 1 0 0 0 1 0 0 0 1 3622.dat
1 15 -80 -192.00000000000003 120 1 0 0 0 1 0 0 0 1 32001.dat
1 4 -150 -216 100 1 0 0 0 1 0 0 0 1 3002.dat
1 4 -10 -216 100 1 0 0 0 1 0 0 0 1 3002.dat
1 272 -40 -216 130 -1 0 0 0 1 0 0 0 -1 4445.dat
1 272 -160 -216 130 -1 0 0 0 1 0 0 0 -1 3037.dat
1 272 0 -240 110 -1 0 0 0 1 0 0 0 -1 3037.dat
1 272 -120 -240 110 -1 0 0 0 1 0 0 0 -1 4445.dat
1 4 -150 -240 80 1 0 0 0 1 0 0 0 1 3002.dat
1 4 -10 -240 80 1 0 0 0 1 0 0 0 1 3002.dat
1 4 -140 -240 0 1 0 0 0 1 0 0 0 1 3001.dat
1 4 -20 -240 0 1 0 0 0 1 0 0 0 1 3001.dat
1 4 -110 -240 -30 1 0 0 0 1 0 0 0 1 3005.dat
1 4 -50 -240 -30 1 0 0 0 1 0 0 0 1 3005.dat
1 272 -160 -240 -30 1 0 0 0 1 0 0 0 1 3037.dat
1 272 0 -240 -30 1 0 0 0 1 0 0 0 1 3037.dat
1 272 -160 -264 90 -1 0 0 0 1 0 0 0 -1 3037.dat
1 272 -40 -264 90 -1 0 0 0 1 0 0 0 -1 4445.dat
1 4 -160 -264 70 1 0 0 0 1 0 0 0 1 3004.dat
1 4 0 -264 70 1 0 0 0 1 0 0 0 1 3004.dat
1 15 -170 -264 40 0 0 1 0 1 0 -1 0 0 60592.dat
1 47 -170 -264 40 0 0 1 0 1 0 -1 0 0 60601.dat
1 15 10 -264 40 0 0 -1 0 1 0 1 0 0 60592.dat
1 47 10 -264 40 0 0 -1 0 1 0 1 0 0 60601.dat
1 4 -160 -264 10 1 0 0 0 1 0 0 0 1 3004.dat
1 4 -130 -264 40 0 0 -1 0 1 0 1 0 0 3659.dat
1 4 -30 -264 40 0 0 -1 0 1 0 1 0 0 3659.dat
1 4 0 -264 10 1 0 0 0 1 0 0 0 1 3004.dat
1 272 -160 -264 -10 1 0 0 0 1 0 0 0 1 3037.dat
1 4 -110 -264 -10 0 0 -1 0 1 0 1 0 0 3622.dat
1 4 -50 -264 -10 0 0 -1 0 1 0 1 0 0 3622.dat
1 272 0 -264 -10 1 0 0 0 1 0 0 0 1 3037.dat
1 15 -80 -264 -30 1 0 0 0 1 0 0 0 1 60592.dat
1 47 -80 -264 -30 1 0 0 0 1 0 0 0 1 60601.dat
1 272 -120 -288 70 -1 0 0 0 1 0 0 0 -1 4445.dat
1 272 0 -288 70 -1 0 0 0 1 0 0 0 -1 3037.dat
1 4 -80 -288 50 1 0 0 0 1 0 0 0 1 3009.dat
1 4 -80 -288 30 1 0 0 0 1 0 0 0 1 3009.dat
1 27 -70 -224.00000000000003 -50 1 0 0 0 1 0 0 0 1 6141.dat
1 14 -90 -224.00000000000003 -50 1 0 0 0 1 0 0 0 1 6141.dat
1 4 -160 -288 40 1 0 0 0 1 0 0 0 1 3003.dat
1 4 0 -288 40 1 0 0 0 1 0 0 0 1 3003.dat
1 272 -170 -288 10 1 0 0 0 1 0 0 0 1 3038.dat
1 272 -110 -288 10 0 0 1 0 1 0 -1 0 0 3046.dat
1 272 -50 -288 10 1 0 0 0 1 0 0 0 1 3046.dat
1 272 10 -288 10 1 0 0 0 1 0 0 0 1 3038.dat
1 4 -80 -288 -30 1 0 0 0 1 0 0 0 1 3004.dat
1 272 -50 -288 -40 0 0 -1 0 1 0 1 0 0 3039.dat
1 272 -110 -288 -40 0 0 1 0 1 0 -1 0 0 3039.dat
1 272 -160 -312 50 -1 0 0 0 1 0 0 0 -1 3037.dat
1 272 -40 -312 50 -1 0 0 0 1 0 0 0 -1 4445.dat
1 272 -180 -312 30 1 0 0 0 1 0 0 0 1 3039.dat
1 71 -140 -312 20 1 0 0 0 1 0 0 0 1 3003.dat
1 19 -150 -336 20 0 0 -1 0 1 0 1 0 0 3004.dat
1 71 -130 -336 20 0 0 -1 0 1 0 1 0 0 3004.dat
1 19 -140 -344 20 0 0 -1 0 1 0 1 0 0 3022.dat
1 0 -140 -368.00000000000006 20 0 0 -1 0 1 0 1 0 0 3062b.dat
1 272 -90 -312 30 0 0 1 0 1 0 -1 0 0 3046.dat
1 272 -90 -312 -30 0 0 1 0 1 0 -1 0 0 3038.dat
1 272 -70 -312 30 1 0 0 0 1 0 0 0 1 3046.dat
1 272 -70 -312 -30 0 0 -1 0 1 0 1 0 0 3038.dat
1 272 0 -312 30 1 0 0 0 1 0 0 0 1 3037.dat
1 10 -140 -8 -220 1 0 0 0 1 0 0 0 1 3958.dat
1 15 -190 -16 -180 0 0 -1 0 1 0 1 0 0 3460.dat
1 15 -190 -40 -130 0 0 -1 0 1 0 1 0 0 59900.dat
1 15 -190 -40 -170 0 0 -1 0 1 0 1 0 0 59900.dat
1 15 -190 -40 -210 0 0 -1 0 1 0 1 0 0 59900.dat
1 15 -190 -40 -250 0 0 -1 0 1 0 1 0 0 59900.dat
1 27 -190 -16 -270 0 0 -1 0 1 0 1 0 0 6141.dat
1 4 -190 -24.000000000000004 -270 0 0 -1 0 1 0 1 0 0 6141.dat
1 4 -170 -16 -250 0 0 -1 0 1 0 1 0 0 6141.dat
1 70 -140 -32 -160 0 0 -1 0 1 0 1 0 0 3941.dat
1 15 -140 -40 -160 0 0 -1 0 1 0 1 0 0 3020.dat
1 15 -190 -48.00000000000001 -180 0 0 -1 0 1 0 1 0 0 4162.dat
1 1 -20 -8 -220 0 0 -1 0 1 0 1 0 0 3958.dat
1 2 80 -8 -220 0 0 -1 0 1 0 1 0 0 3032.dat
1 2 40 -16 -220 0 0 1 0 1 0 -1 0 0 3020.dat
1 2 0 -16 -160 -1 0 0 0 1 0 0 0 -1 3020.dat
1 2 80 -16 -160 -1 0 0 0 1 0 0 0 -1 3020.dat
1 2 -70 -32 -190 -1 0 0 0 1 0 0 0 -1 4286.dat
1 2 -50 -32 -190 -1 0 0 0 1 0 0 0 -1 4286.dat
1 2 -110 -32 -240 0 0 1 0 1 0 -1 0 0 3039.dat
1 2 -90 -32 -220 0 0 -1 0 1 0 1 0 0 3039.dat
1 4 50 -24.000000000000004 -190 0 0 -1 0 1 0 1 0 0 6141.dat
1 27 70 -16 -190 0 0 -1 0 1 0 1 0 0 6141.dat
1 2 -90 -32 -250 0 0 -1 0 1 0 1 0 0 4286.dat
1 2 -110 -32 -270 0 0 -1 0 1 0 1 0 0 4286.dat
1 27 50 -16 -270 0 0 -1 0 1 0 1 0 0 6141.dat
1 14 50 -24.000000000000004 -270 0 0 -1 0 1 0 1 0 0 6141.dat
1 14 -150 -64 -170 0.707 0 0.707 0 1 0 -0.707 0 0.707 3899.dat
1 1 60 -33 -101.00000000000001 -1 0 0 0 1 0 0 0 -1 88422.dat
1 0 89.50000000000001 -18.5 -100 0 0 1 0 1 0 -1 0 0 2496.dat
1 0 30.500000000000004 -18.5 -100 0 0 1 0 1 0 -1 0 0 2496.dat
1 19 -80 -48.00000000000001 -89 1 0 0 0 1 0 0 0 1 3815c01.dat
1 1 -80 -80 -89 1 0 0 0 1 0 0 0 1 973.dat
1 14 -80 -104 -89 1 0 0 0 1 0 0 0 1 3626cp8k.dat
1 0 -80 -104 -89 1 0 0 0 1 0 0 0 1 62810.dat
1 15 -95.55199999999999 -71 -89 0.9850000000000001 -0.17 0 0.17 0.9850000000000001 0 0 0 1 3818.dat
1 15 -64.44800000000001 -71 -89 0.9850000000000001 0.121 0.11900000000000001 -0.17 0.7040000000000001 0.69 0 -0.7 0.7140000000000001 3819.dat
1 14 -58.403999999999996 -65.372 -109.27500000000002 0.9850000000000001 0.17 -0.002 -0.17 0.9850000000000001 -0.01 0 0.01 1 3820.dat
1 14 -103.688 -53.24000000000001 -98.88400000000001 0.9850000000000001 -0.12 0.12 0.17 0.697 -0.697 0 0.707 0.707 3820.dat
1 0 -103.011 -57.172 -124.123 0.9950000000000001 -0.086 0.04900000000000001 0.086 0.5 -0.862 0.04900000000000001 0.862 0.505 48729b.dat
1 4 -103.011 -57.172 -124.123 -0.04900000000000001 -0.086 0.9950000000000001 0.862 0.5 0.086 -0.505 0.862 0.04900000000000001 33078.dat
