1 0 0 0 40 1 0 0 0 1 0 0 0 1 2445.dat
1 0 0 0 -40 1 0 0 0 1 0 0 0 1 2445.dat
1 19 -90 -8 0 0 0 1 0 1 0 -1 0 0 3666.dat
1 19 90 -8 0 0 0 1 0 1 0 -1 0 0 3666.dat
1 4 60 -8 0 0 0 1 0 1 0 -1 0 0 3832.dat
1 4 -20 -8 0 0 0 1 0 1 0 -1 0 0 3033.dat
1 0 -140 -8 0 0 0 1 0 1 0 -1 0 0 3032.dat
1 0 140 -8 0 0 0 1 0 1 0 -1 0 0 3032.dat
1 71 170 0 0 0 0 1 0 1 0 -1 0 0 3710.dat
1 4 -170 0 0 0 0 1 0 1 0 -1 0 0 4477.dat
1 0 0 -16 0 1 0 0 0 1 0 0 0 1 2445.dat
1 4 140 -16 0 1 0 0 0 1 0 0 0 1 3022.dat
1 15 170 -32 0 0 0 1 0 1 0 -1 0 0 3004.dat
1 71 150 -24.000000000000004 0 0 0 1 0 1 0 -1 0 0 3710.dat
1 4 170 -32 -60 0 0 -1 0 1 0 1 0 0 30414.dat
1 4 170 -32 60 0 0 -1 0 1 0 1 0 0 30414.dat
1 71 120 -32 -40 0 0 1 0 1 0 -1 0 0 6232.dat
1 71 120 -32 40 0 0 -1 0 1 0 1 0 0 6232.dat
1 71 100 -40 0 1 0 0 0 1 0 0 0 1 3001.dat
1 73 40 -32 40 1 0 0 0 1 0 0 0 1 3001.dat
1 73 40 -32 -40 1 0 0 0 1 0 0 0 1 3001.dat
1 0 50 -32 70 1 0 0 0 1 0 0 0 1 3622.dat
1 0 50 -32 -70 1 0 0 0 1 0 0 0 1 3622.dat
1 4 60 -32 90 1 0 0 0 1 0 0 0 1 3004.dat
1 4 60 -32 -90 1 0 0 0 1 0 0 0 1 3004.dat
1 72 -130 -16 0 0 0 1 0 1 0 -1 0 0 2412b.dat
1 4 -170 -8 80 0 0 1 0 1 0 -1 0 0 3023.dat
1 4 -170 -8 -80 0 0 1 0 1 0 -1 0 0 3023.dat
1 0 -50 -16 90 1 0 0 0 1 0 0 0 1 3070b.dat
1 0 -50 -16 -90 1 0 0 0 1 0 0 0 1 3070b.dat
1 0 0 -16 90 1 0 0 0 1 0 0 0 1 2431.dat
1 0 0 -16 -90 1 0 0 0 1 0 0 0 1 2431.dat
1 73 -100 -24.000000000000004 0 1 0 0 0 1 0 0 0 1 3068b.dat
1 4 -70 -32 80 0 0 1 0 1 0 -1 0 0 3004.dat
1 4 -70 -32 -80 0 0 1 0 1 0 -1 0 0 3004.dat
1 4 -60 -40 0 1 0 0 0 1 0 0 0 1 6215.dat
1 72 -160 -32 0 1 0 0 0 1 0 0 0 1 3003.dat
1 4 -170 -32 -60 0 0 1 0 1 0 -1 0 0 30414.dat
1 4 -170 -32 60 0 0 1 0 1 0 -1 0 0 30414.dat
1 15 -150 -32 50 0 0 1 0 1 0 -1 0 0 3062b.dat
1 15 -150 -32 -50 0 0 1 0 1 0 -1 0 0 3062b.dat
1 4 -120 -32 -50 1 0 0 0 1 0 0 0 1 2458.dat
1 4 -120 -32 50 -1 0 0 0 1 0 0 0 -1 2458.dat
1 4 -70 -32 50 -1 0 0 0 1 0 0 0 -1 3622.dat
1 4 -70 -32 -50 -1 0 0 0 1 0 0 0 -1 3622.dat
1 4 -188 -12.000000000000002 0 0 1 0 0 0 -1 -1 0 0 3832.dat
1 15 -212.00000000000003 -22 50 0 1 0 0 0 -1 -1 0 0 3062b.dat
1 15 -212.00000000000003 -22 -50 0 1 0 0 0 -1 -1 0 0 3062b.dat
1 4 -212.00000000000003 -22 70 0 1 0 1 0 0 0 0 -1 3040b.dat
1 4 -212.00000000000003 -22 -70 0 1 0 -1 0 0 0 0 1 3040b.dat
1 71 -196 -22 0 0 1 0 0 0 -1 -1 0 0 3710.dat
1 0 -204.00000000000003 -22 0 0 1 0 0 0 -1 -1 0 0 3710.dat
1 19 -196 -2 50 0 1 0 0 0 -1 -1 0 0 3024.dat
1 19 -196 -2 -50 0 1 0 0 0 -1 -1 0 0 3024.dat
1 135 -212.00000000000003 -22 20 0 1 0 0 0 -1 -1 0 0 2412b.dat
1 135 -212.00000000000003 -22 -20 0 1 0 0 0 -1 -1 0 0 2412b.dat
1 4 -212.00000000000003 -2 70 0 1 0 1 0 0 0 0 -1 50950.dat
1 4 -212.00000000000003 -2 -70 0 1 0 -1 0 0 0 0 1 50950.dat
1 4 -220 -2 20 0 1 0 0 0 -1 -1 0 0 2432.dat
1 4 -220 -2 -20 0 1 0 0 0 -1 -1 0 0 2432.dat
1 47 -220 -22 50 0 1 0 0 0 -1 -1 0 0 3024.dat
1 47 -220 -22 -50 0 1 0 0 0 -1 -1 0 0 3024.dat
1 19 -100 -40 50 1 0 0 0 1 0 0 0 1 3666.dat
1 19 -100 -40 -50 1 0 0 0 1 0 0 0 1 3666.dat
1 0 -180 -40 0 1 0 0 0 1 0 0 0 1 3031.dat
1 0 -70 -40 80 0 0 1 0 1 0 -1 0 0 3023.dat
1 0 -70 -40 -80 0 0 1 0 1 0 -1 0 0 3023.dat
1 0 -190 -40 -70 0 0 1 0 1 0 -1 0 0 2450.dat
1 0 -190 -40 70 -1 0 0 0 1 0 0 0 -1 2450.dat
1 4 188 -12.000000000000002 0 0 -1 0 0 0 -1 1 0 0 3022.dat
1 0 196 -22 0 0 -1 0 0 0 -1 1 0 0 3460.dat
1 4 188 -12.000000000000002 60 0 -1 0 -1 0 0 0 0 -1 41769.dat
1 4 188 -12.000000000000002 -60 0 -1 0 1 0 0 0 0 1 41770.dat
1 4 204.00000000000003 -22 0 0 -1 0 0 0 -1 1 0 0 2431.dat
1 71 204.00000000000003 -22 -50 0 -1 0 0 0 -1 1 0 0 6141.dat
1 71 204.00000000000003 -22 -70 0 -1 0 0 0 -1 1 0 0 6141.dat
1 71 204.00000000000003 -22 50 0 -1 0 0 0 -1 1 0 0 6141.dat
1 71 204.00000000000003 -22 70 0 -1 0 0 0 -1 1 0 0 6141.dat
1 4 188 -2 -10 0 -1 0 0 0 -1 1 0 0 54200.dat
1 4 188 -2 10 0 -1 0 0 0 -1 1 0 0 54200.dat
1 4 188 -22 -90 0 -1 0 0 0 -1 1 0 0 54200.dat
1 4 188 -22 90 0 -1 0 0 0 -1 1 0 0 54200.dat
1 0 180 -40 0 0 0 -1 0 1 0 1 0 0 3022.dat
1 0 120 -40 40 -1 0 0 0 1 0 0 0 -1 3034.dat
1 0 120 -40 -40 -1 0 0 0 1 0 0 0 -1 3034.dat
1 0 10 -40 -40 0 0 -1 0 1 0 1 0 0 3023.dat
1 0 10 -40 40 0 0 -1 0 1 0 1 0 0 3023.dat
1 0 30 -40 50 0 0 -1 0 1 0 1 0 0 3623.dat
1 0 30 -40 -50 0 0 -1 0 1 0 1 0 0 3623.dat
1 0 60 -40 80 0 0 -1 0 1 0 1 0 0 3022.dat
1 0 60 -40 -80 0 0 -1 0 1 0 1 0 0 3022.dat
1 0 180 -40 80 0 0 -1 0 1 0 1 0 0 3022.dat
1 0 180 -40 -80 0 0 -1 0 1 0 1 0 0 3022.dat
1 0 190 -64 40 0 0 1 0 1 0 -1 0 0 4865b.dat
1 0 190 -64 0 0 0 1 0 1 0 -1 0 0 4865b.dat
1 0 190 -64 -40 0 0 1 0 1 0 -1 0 0 4865b.dat
1 71 170 -48.00000000000001 0 0 0 1 0 1 0 -1 0 0 6636.dat
1 71 80 -64 10 -1 0 0 0 1 0 0 0 -1 3937.dat
1 0 80 -63.00000000000001 15 1 0 0 0 0.8660250000000002 0.5 0 -0.5 0.8660250000000002 6134.dat
1 71 70 -69.929 19 1 0 0 0 0.8660250000000002 0.5 0 -0.5 0.8660250000000002 6141.dat
1 71 90 -69.929 19 1 0 0 0 0.8660250000000002 0.5 0 -0.5 0.8660250000000002 6141.dat
1 72 80 -59.928 36.32 1 0 0 0 0.8660250000000002 0.5 0 -0.5 0.8660250000000002 2412b.dat
1 71 120 -64 10 -1 0 0 0 1 0 0 0 -1 3937.dat
1 0 120 -63.00000000000001 15 1 0 0 0 0.8660250000000002 0.5 0 -0.5 0.8660250000000002 6134.dat
1 71 110 -69.929 19 1 0 0 0 0.8660250000000002 0.5 0 -0.5 0.8660250000000002 6141.dat
1 71 130 -69.929 19 1 0 0 0 0.8660250000000002 0.5 0 -0.5 0.8660250000000002 6141.dat
1 72 120 -59.928 36.32 1 0 0 0 0.8660250000000002 0.5 0 -0.5 0.8660250000000002 2412b.dat
1 71 120 -64 -10 1 0 0 0 1 0 0 0 1 3937.dat
1 0 120 -63.00000000000001 -15 -1 0 0 0 0.8660250000000002 0.5 0 0.5 -0.8660250000000002 6134.dat
1 71 130 -69.929 -19 -1 0 0 0 0.8660250000000002 0.5 0 0.5 -0.8660250000000002 6141.dat
1 71 110 -69.929 -19 -1 0 0 0 0.8660250000000002 0.5 0 0.5 -0.8660250000000002 6141.dat
1 72 120 -59.928 -36.32 -1 0 0 0 0.8660250000000002 0.5 0 0.5 -0.8660250000000002 2412b.dat
1 71 80 -64 -10 1 0 0 0 1 0 0 0 1 3937.dat
1 0 80 -63.00000000000001 -15 -1 0 0 0 0.8660250000000002 0.5 0 0.5 -0.8660250000000002 6134.dat
1 71 90 -69.929 -19 -1 0 0 0 0.8660250000000002 0.5 0 0.5 -0.8660250000000002 6141.dat
1 71 70 -69.929 -19 -1 0 0 0 0.8660250000000002 0.5 0 0.5 -0.8660250000000002 6141.dat
1 72 80 -59.928 -36.32 -1 0 0 0 0.8660250000000002 0.5 0 0.5 -0.8660250000000002 2412b.dat
1 73 20 -48.00000000000001 40 1 0 0 0 1 0 0 0 1 3068b.dat
1 73 20 -48.00000000000001 -40 1 0 0 0 1 0 0 0 1 3068b.dat
1 73 50 -64 40 0 0 1 0 1 0 -1 0 0 3004.dat
1 73 50 -64 -40 0 0 1 0 1 0 -1 0 0 3004.dat
1 4 50 -64 80 0 0 1 0 1 0 -1 0 0 3004.dat
1 4 50 -64 -80 0 0 1 0 1 0 -1 0 0 3004.dat
1 4 190 -64 70 0 0 -1 0 1 0 1 0 0 87087.dat
1 4 190 -64 -70 0 0 -1 0 1 0 1 0 0 87087.dat
1 36 208 -54 70 0 -1 0 0 0 -1 1 0 0 3024.dat
1 36 208 -54 -70 0 -1 0 0 0 -1 1 0 0 3024.dat
1 4 190 -64 90 0 0 -1 0 1 0 1 0 0 87087.dat
1 4 190 -64 -90 0 0 -1 0 1 0 1 0 0 87087.dat
1 57 208 -54 90 0 -1 0 0 0 -1 1 0 0 3024.dat
1 57 208 -54 -90 0 -1 0 0 0 -1 1 0 0 3024.dat
1 4 70 -64 80 0 0 -1 0 1 0 1 0 0 3660.dat
1 4 70 -64 -80 0 0 -1 0 1 0 1 0 0 3660.dat
1 4 170 -64 80 0 0 1 0 1 0 -1 0 0 3660.dat
1 4 170 -64 -80 0 0 1 0 1 0 -1 0 0 3660.dat
1 4 120 -72 80 1 0 0 0 1 0 0 0 1 3034.dat
1 4 120 -72 -80 1 0 0 0 1 0 0 0 1 3034.dat
1 4 90 -80 80 1 0 0 0 1 0 0 0 1 3021.dat
1 4 90 -80 -80 1 0 0 0 1 0 0 0 1 3021.dat
1 4 160 -80 80 0 0 -1 0 1 0 1 0 0 41770.dat
1 4 160 -80 -80 0 0 -1 0 1 0 1 0 0 41769.dat
1 73 50 -88 40 0 0 1 0 1 0 -1 0 0 3004.dat
1 73 50 -88 -40 0 0 1 0 1 0 -1 0 0 3004.dat
1 4 70 -80 -90 1 0 0 0 1 0 0 0 1 54200.dat
1 4 90 -80 -90 1 0 0 0 1 0 0 0 1 54200.dat
1 4 90 -80 90 -1 0 0 0 1 0 0 0 -1 54200.dat
1 4 70 -80 90 -1 0 0 0 1 0 0 0 -1 54200.dat
1 72 120 -80 -70 0 0 -1 0 1 0 1 0 0 61409.dat
1 72 120 -80 70 0 0 -1 0 1 0 1 0 0 61409.dat
1 4 80 -104 -70 -1 0 0 0 1 0 0 0 -1 2458.dat
1 4 80 -104 70 1 0 0 0 1 0 0 0 1 2458.dat
1 15 186.25186 -65.52991 0 0 0.9659260000000001 -0.258819 0 0.258819 0.9659260000000001 1 0 0 3666.dat
1 15 163.069636 -71.741566 0 0 0.9659260000000001 -0.258819 0 0.258819 0.9659260000000001 1 0 0 3009.dat
1 0 155.34222799999998 -73.812118 -20 0 0.9659260000000001 -0.258819 0 0.258819 0.9659260000000001 1 0 0 44728.dat
1 0 155.34222799999998 -73.812118 20 0 0.9659260000000001 -0.258819 0 0.258819 0.9659260000000001 1 0 0 44728.dat
1 47 85.795556 -92.44708600000001 0 0 0.9659260000000001 0.258819 0 0.258819 -0.9659260000000001 -1 0 0 60581.dat
1 15 139.88741199999998 -77.953222 -50 0 0.9659260000000001 -0.258819 0 0.258819 0.9659260000000001 1 0 0 3005.dat
1 15 139.88741199999998 -77.953222 50 0 0.9659260000000001 -0.258819 0 0.258819 0.9659260000000001 1 0 0 3005.dat
1 15 116.70518799999999 -84.164878 -50 0 0.9659260000000001 -0.258819 0 0.258819 0.9659260000000001 1 0 0 3005.dat
1 15 116.70518799999999 -84.164878 50 0 0.9659260000000001 -0.258819 0 0.258819 0.9659260000000001 1 0 0 3005.dat
1 15 93.522964 -90.37653399999999 -50 0 0.9659260000000001 -0.258819 0 0.258819 0.9659260000000001 1 0 0 3005.dat
1 15 93.522964 -90.37653399999999 50 0 0.9659260000000001 -0.258819 0 0.258819 0.9659260000000001 1 0 0 3005.dat
1 15 70.34074000000001 -96.58819000000001 -50 0.258819 0.9659260000000001 0 -0.9659260000000001 0.258819 0 0 0 1 6541.dat
1 15 70.34074000000001 -96.58819000000001 50 0.258819 0.9659260000000001 0 -0.9659260000000001 0.258819 0 0 0 1 6541.dat
1 0 78.068148 -94.517638 0 0 0.9659260000000001 -0.258819 0 0.258819 0.9659260000000001 1 0 0 3710.dat
1 0 70.34074000000001 -96.58819000000001 0 0 0.9659260000000001 -0.258819 0 0.258819 0.9659260000000001 1 0 0 3710.dat
1 0 62.613332 -98.658742 0 0 0.9659260000000001 -0.258819 0 0.258819 0.9659260000000001 1 0 0 6636.dat
1 4 168.624954 -84.746892 -30 0 -0.258819 0.9659260000000001 0 0.9659260000000001 0.258819 -1 0 0 54200.dat
1 4 168.624954 -84.746892 30 0 -0.258819 0.9659260000000001 0 0.9659260000000001 0.258819 -1 0 0 54200.dat
1 4 194.15513 -102.752736 -20 0 -0.258819 0.9659260000000001 0 0.9659260000000001 0.258819 -1 0 0 3937.dat
1 4 194.15513 -102.752736 20 0 -0.258819 0.9659260000000001 0 0.9659260000000001 0.258819 -1 0 0 3937.dat
1 0 189.06668100000002 -103.080905 -20 0 0.25881927552499995 0.96592556415 0 0.96592556415 -0.25881927552499995 -1 0 0 3938.dat
1 0 189.06668100000002 -103.080905 20 0 0.25881927552499995 0.96592556415 0 0.96592556415 -0.25881927552499995 -1 0 0 3938.dat
1 4 186.996333851 -110.80908225400002 0 0 0.25881927552499995 0.96592556415 0 0.96592556415 -0.25881927552499995 -1 0 0 4162.dat
1 4 50 -96.00000000000001 0 0 0 1 0 1 0 -1 0 0 3710.dat
1 4 50 -104 50 -1 0 0 0 1 0 0 0 -1 6091.dat
1 4 50 -104 -50 1 0 0 0 1 0 0 0 1 6091.dat
1 0 50 -104 0 0 0 1 0 1 0 -1 0 0 3023.dat
1 0 50 -104 30 0 0 -1 0 1 0 1 0 0 2420.dat
1 0 50 -104 -30 -1 0 0 0 1 0 0 0 -1 2420.dat
1 0 50 -112.00000000000001 0 0 0 1 0 1 0 -1 0 0 2431.dat
1 0 50 -104 50 0 0 -1 0 1 0 1 0 0 54200.dat
1 0 50 -104 -50 0 0 -1 0 1 0 1 0 0 54200.dat
1 15 -160 -48.00000000000001 50 1 0 0 0 1 0 0 0 1 3023.dat
1 15 -160 -48.00000000000001 -50 1 0 0 0 1 0 0 0 1 3023.dat
1 71 -170 -48.00000000000001 0 0 0 1 0 1 0 -1 0 0 3710.dat
1 19 -50 -48.00000000000001 0 0 0 1 0 1 0 -1 0 0 3666.dat
1 0 -50 -56.00000000000001 0 0 0 1 0 1 0 -1 0 0 3710.dat
1 0 -170 -56.00000000000001 0 0 0 1 0 1 0 -1 0 0 2431.dat
1 71 -150 -56.00000000000001 50 1 0 0 0 1 0 0 0 1 6141.dat
1 71 -150 -56.00000000000001 -50 1 0 0 0 1 0 0 0 1 6141.dat
1 4 -50 -56.00000000000001 50 -1 0 0 0 1 0 0 0 -1 4085c.dat
1 4 -50 -56.00000000000001 -50 1 0 0 0 1 0 0 0 1 4085c.dat
1 4 -200 -40 0 0 0 1 0 1 0 -1 0 0 61068.dat
1 19 -100 -64 50 1 0 0 0 1 0 0 0 1 3666.dat
1 19 -100 -64 -50 1 0 0 0 1 0 0 0 1 3666.dat
1 4 -50 -80 0 0 0 -1 0 1 0 1 0 0 30414.dat
1 15 -190 -64 50 0 0 1 0 1 0 -1 0 0 50950.dat
1 15 -190 -64 -50 0 0 1 0 1 0 -1 0 0 50950.dat
1 4 -50 -72 -50 1 0 0 0 1 0 0 0 1 4085c.dat
1 4 -50 -72 50 -1 0 0 0 1 0 0 0 -1 4085c.dat
1 4 -170 -64 80 0 0 -1 0 1 0 1 0 0 3660.dat
1 4 -170 -64 -80 0 0 -1 0 1 0 1 0 0 3660.dat
1 4 -70 -64 -80 0 0 1 0 1 0 -1 0 0 3660.dat
1 4 -70 -64 80 0 0 1 0 1 0 -1 0 0 3660.dat
1 0 -70 -72 0 0 0 1 0 1 0 -1 0 0 3460.dat
1 0 -110 -72 50 1 0 0 0 1 0 0 0 1 3623.dat
1 0 -110 -72 -50 1 0 0 0 1 0 0 0 1 3623.dat
1 57 -190 -48.00000000000001 70 1 0 0 0 1 0 0 0 1 3024.dat
1 57 -190 -48.00000000000001 -70 1 0 0 0 1 0 0 0 1 3024.dat
1 47 -190 -48.00000000000001 70 0 0 1 0 1 0 -1 0 0 54200.dat
1 47 -190 -48.00000000000001 -70 0 0 1 0 1 0 -1 0 0 54200.dat
1 19 -50 -80 50 1 0 0 0 1 0 0 0 1 3024.dat
1 19 -50 -80 -50 1 0 0 0 1 0 0 0 1 3024.dat
1 4 -120 -72 80 1 0 0 0 1 0 0 0 1 3020.dat
1 4 -120 -72 -80 1 0 0 0 1 0 0 0 1 3020.dat
1 19 -32 -70 0 0 -1 0 0 0 1 -1 0 0 3666.dat
1 72 -24.000000000000004 -70 40 0 -1 0 0 0 1 -1 0 0 2412b.dat
1 19 -24.000000000000004 -70 -40 0 -1 0 0 0 1 -1 0 0 3794a.dat
1 0 -16 -70 -40 0 -1 0 0 0 1 -1 0 0 30663.dat
1 15 -100 -80 50 1 0 0 0 1 0 0 0 1 3023.dat
1 15 -100 -80 -50 1 0 0 0 1 0 0 0 1 3023.dat
1 0 -70 -80 20 0 0 1 0 1 0 -1 0 0 48336.dat
1 0 -70 -80 -20 0 0 1 0 1 0 -1 0 0 48336.dat
1 4 -70 -80 -60 0 0 1 0 1 0 -1 0 0 60478.dat
1 4 -70 -80 60 0 0 -1 0 1 0 1 0 0 60478.dat
1 0 -1.106895999999999 -50 -80.652016 0 0.173648 0.9848080000000001 1 0 0 0 0.9848080000000001 -0.173648 3021.dat
1 4 -30.651136 -60 -75.442576 0 0.173648 0.9848080000000001 1 0 0 0 0.9848080000000001 -0.173648 48336.dat
1 4 -2.496079999999999 -60 -88.53048 0.9848080000000001 0.173648 0 0 0 -1 -0.173648 0.9848080000000001 0 3020.dat
1 4 -2.496079999999999 -30 -88.53048 0.9848080000000001 0.173648 0 0 0 -1 -0.173648 0.9848080000000001 0 3710.dat
1 4 -3.8852639999999994 -40 -96.408944 0.9848080000000001 0.173648 0 0 0 -1 -0.173648 0.9848080000000001 0 87079.dat
1 0 -19.413871999999998 -60 -69.300592 0.9848080000000001 0.173648 0 0 0 -1 -0.173648 0.9848080000000001 0 2654a.dat
1 0 -1.106895999999999 -50 80.652016 0 0.173648 0.9848080000000001 -1 0 0 0 -0.9848080000000001 0.173648 3021.dat
1 4 -30.651136 -60 75.442576 0 0.173648 0.9848080000000001 -1 0 0 0 -0.9848080000000001 0.173648 48336.dat
1 4 -2.496079999999999 -60 88.53048 0.9848080000000001 0.173648 0 0 0 1 0.173648 -0.9848080000000001 0 3020.dat
1 4 -2.496079999999999 -30 88.53048 0.9848080000000001 0.173648 0 0 0 1 0.173648 -0.9848080000000001 0 3710.dat
1 4 -3.8852639999999994 -40 96.408944 0.9848080000000001 0.173648 0 0 0 1 0.173648 -0.9848080000000001 0 87079.dat
1 0 -19.413871999999998 -60 69.300592 0.9848080000000001 0.173648 0 0 0 1 0.173648 -0.9848080000000001 0 2654a.dat
1 0 -60 -88 0 0 0 1 0 1 0 -1 0 0 3020.dat
1 4 -150 -80 90 1 0 0 0 1 0 0 0 1 3070b.dat
1 4 -150 -80 -90 1 0 0 0 1 0 0 0 1 3070b.dat
1 4 -120 -80 70 1 0 0 0 1 0 0 0 1 2431.dat
1 4 -120 -80 -70 1 0 0 0 1 0 0 0 1 2431.dat
1 47 -170 -64 90 0 0 1 0 1 0 -1 0 0 54200.dat
1 47 -170 -64 70 0 0 1 0 1 0 -1 0 0 54200.dat
1 47 -170 -64 -70 0 0 1 0 1 0 -1 0 0 54200.dat
1 47 -170 -64 -90 0 0 1 0 1 0 -1 0 0 54200.dat
1 15 -140 -88 50 0 0 1 0 1 0 -1 0 0 61678.dat
1 15 -140 -88 -50 0 0 1 0 1 0 -1 0 0 61678.dat
1 4 -60 -88 -60 0 0 1 0 1 0 -1 0 0 41770.dat
1 4 -60 -88 60 0 0 1 0 1 0 -1 0 0 41769.dat
1 71 -120 -72 0 0 0 1 0 1 0 -1 0 0 3020.dat
1 0 -110 -80 0 0 0 1 0 1 0 -1 0 0 3023.dat
1 0 -110 -80 30 0 0 -1 0 1 0 1 0 0 6019.dat
1 0 -110 -80 -30 0 0 -1 0 1 0 1 0 0 6019.dat
1 4 -140 -88 30 0 0 1 0 1 0 -1 0 0 61678.dat
1 4 -140 -88 10 0 0 1 0 1 0 -1 0 0 61678.dat
1 4 -140 -88 -10 0 0 1 0 1 0 -1 0 0 61678.dat
1 4 -140 -88 -30 0 0 1 0 1 0 -1 0 0 61678.dat
1 4 -160 -64 0 0 0 1 0 1 0 -1 0 0 3020.dat
1 71 30 -112.00000000000001 30 1 0 0 0 1 0 0 0 1 6141.dat
1 71 30 -112.00000000000001 -30 1 0 0 0 1 0 0 0 1 6141.dat
1 47 -30 -112.00000000000001 0 0 0 1 0 1 0 -1 0 0 58181.dat
1 0 0 -120 0 0 0 1 0 1 0 -1 0 0 3032.dat
1 47 -66 -78 -110 0 1 0 -1 0 0 0 0 1 3024.dat
1 15 -74 -78 -110 0 1 0 1 0 0 0 0 -1 4085c.dat
1 15 -74 -78 -110 0 1 0 -1 0 0 0 0 1 54200.dat
1 47 -66 -78 110 0 1 0 1 0 0 0 0 -1 3024.dat
1 15 -74 -78 110 0 1 0 -1 0 0 0 0 1 4085c.dat
1 15 -74 -78 110 0 1 0 1 0 0 0 0 -1 54200.dat
1 71 -120 -22 -80 -1 0 0 0 1 0 0 0 -1 55981.dat
1 71 120 -22 -80 -1 0 0 0 1 0 0 0 -1 55981.dat
1 71 120 -22 80 1 0 0 0 1 0 0 0 1 55981.dat
1 71 -120 -22 80 1 0 0 0 1 0 0 0 1 55981.dat
1 256 -120 -22 -80 -1 0 0 0 1 0 0 0 -1 58090.dat
1 256 120 -22 -80 -1 0 0 0 1 0 0 0 -1 58090.dat
1 256 120 -22 80 1 0 0 0 1 0 0 0 1 58090.dat
1 256 -120 -22 80 1 0 0 0 1 0 0 0 1 58090.dat
