1 0 0 -48.00000000000001 100 0 0 -1 0 1 0 1 0 0 3032.dat
1 0 -30 -56.00000000000001 150 0 0 -1 0 1 0 1 0 0 3623.dat
1 0 30 -56.00000000000001 150 0 0 -1 0 1 0 1 0 0 3623.dat
1 0 30 -56.00000000000001 40 0 0 -1 0 1 0 1 0 0 88072.dat
1 0 -30 -56.00000000000001 40 0 0 1 0 1 0 -1 0 0 88072.dat
1 71 -30 -56.00000000000001 100 0 0 1 0 1 0 -1 0 0 99780.dat
1 71 30 -56.00000000000001 100 0 0 -1 0 1 0 1 0 0 99780.dat
1 0 0 -56.00000000000001 70 1 0 0 0 1 0 0 0 1 3710.dat
1 0 30 -48.00000000000001 -20 0 0 -1 0 1 0 1 0 0 3666.dat
1 0 -30 -48.00000000000001 -20 0 0 -1 0 1 0 1 0 0 3666.dat
1 0 -30 -56.00000000000001 -70 0 0 -1 0 1 0 1 0 0 3623.dat
1 0 30 -56.00000000000001 -70 0 0 -1 0 1 0 1 0 0 3623.dat
1 0 -40 -56.00000000000001 -20 0 0 -1 0 1 0 1 0 0 3022.dat
1 0 40 -56.00000000000001 -20 0 0 -1 0 1 0 1 0 0 3022.dat
1 0 -30 -56.00000000000001 10 0 0 -1 0 1 0 1 0 0 6141.dat
1 0 30 -56.00000000000001 10 0 0 -1 0 1 0 1 0 0 6141.dat
1 0 -20 -56.00000000000001 -110 1 0 0 0 1 0 0 0 1 32803.dat
1 0 20 -56.00000000000001 -110 1 0 0 0 1 0 0 0 1 32803.dat
1 0 20 -56.00000000000001 190 -1 0 0 0 1 0 0 0 -1 32803.dat
1 0 -20 -56.00000000000001 190 -1 0 0 0 1 0 0 0 -1 32803.dat
1 0 30 -80 40 0 0 -1 0 1 0 1 0 0 3703.dat
1 0 -30 -80 40 0 0 -1 0 1 0 1 0 0 3703.dat
1 0 0 -80 -110 1 0 0 0 1 0 0 0 1 3004.dat
1 71 0 -64 190 1 0 0 0 1 0 0 0 1 3023.dat
1 71 0 -72 190 1 0 0 0 1 0 0 0 1 3023.dat
1 4 0 -80 190 1 0 0 0 1 0 0 0 1 88072.dat
1 71 52 -58.00000000000001 100 0 -1 0 0 0 1 -1 0 0 3023.dat
1 0 52 -58.00000000000001 100 0 -1 0 1 0 0 0 0 1 61409.dat
1 71 -52 -58.00000000000001 100 0 1 0 0 0 1 1 0 0 3023.dat
1 0 -52 -58.00000000000001 100 0 1 0 -1 0 0 0 0 1 61409.dat
1 71 50 -80 -10 0 0 -1 0 1 0 1 0 0 3062b.dat
1 71 -50 -80 -10 0 0 -1 0 1 0 1 0 0 3062b.dat
1 71 50 -80 -30 0 0 -1 0 1 0 1 0 0 6541.dat
1 71 -50 -80 -30 0 0 -1 0 1 0 1 0 0 6541.dat
1 71 -40 -88 -20 0 0 -1 0 1 0 1 0 0 3068b.dat
1 71 40 -88 -20 0 0 -1 0 1 0 1 0 0 3068b.dat
1 0 60 -70 -30 1 0 0 0 0.7940000000000002 0.607 0 -0.607 0.7940000000000002 2780.dat
1 0 70 -62.057 -36.07 0 -1 0 0.607 0 -0.7940000000000002 0.7940000000000002 0 0.607 43857.dat
1 71 90 -54.11300000000001 -42.13900000000001 1 0 0 0 0.607 -0.7940000000000002 0 0.7940000000000002 0.607 87082.dat
1 0 -60 -70 -30 1 0 0 0 0.7940000000000002 0.607 0 -0.607 0.7940000000000002 2780.dat
1 0 -70 -62.057 -36.07 0 1 0 -0.607 0 -0.7940000000000002 -0.7940000000000002 0 0.607 43857.dat
1 71 -90 -54.11300000000001 -42.13900000000001 1 0 0 0 0.607 -0.7940000000000002 0 0.7940000000000002 0.607 87082.dat
1 0 0 -88 -110 1 0 0 0 1 0 0 0 1 3666.dat
1 0 0 -88 -110 -1 0 0 0 1 0 0 0 -1 85984.dat
1 72 -40 -96.00000000000001 -110 -1 0 0 0 1 0 0 0 -1 22890.dat
1 72 40 -96.00000000000001 -110 1 0 0 0 1 0 0 0 1 22890.dat
1 0 40 -104 -110 1 0 0 0 1 0 0 0 1 11458.dat
1 0 -40 -104 -110 -1 0 0 0 1 0 0 0 -1 11458.dat
1 0 50 -110 -100 0 0 -1 0 1 0 1 0 0 2780.dat
1 0 -50 -110 -100 0 0 -1 0 1 0 1 0 0 2780.dat
1 0 50 -90 -90 0 0 -1 0 1 0 1 0 0 32557.dat
1 0 -50 -90 -90 0 0 -1 0 1 0 1 0 0 32557.dat
1 4 50 -70 -100 1 0 0 0 1 0 0 0 1 11214.dat
1 4 -50 -70 -100 -1 0 0 0 -1 0 0 0 1 11214.dat
1 0 -90 -70 -100 -1 0 0 0 -1 0 0 0 1 32054.dat
1 0 90 -70 -100 1 0 0 0 1 0 0 0 1 32054.dat
1 0 79.76 -66 178.32 0.998 0 0.07 0 1 0 -0.07 0 0.998 10197.dat
1 0 77.66 -66 148.38 0.998 0 0.07 0 1 0 -0.07 0 0.998 59443.dat
1 4 76.26000000000002 -66 128.42 -0.07 0 0.998 0 1 0 -0.998 0 -0.07 32062.dat
1 0 50 -66 40 0 0.998 -0.07 1 0 0 0 -0.07 -0.998 53586.dat
1 71 79.76 -86 178.32 0.07 0.998 0 0 0 1 0.998 -0.07 0 3713.dat
1 0 30 -88 40 0 0 -1 0 1 0 1 0 0 3710.dat
1 71 30 -96.00000000000001 40 0 0 -1 0 1 0 1 0 0 30043.dat
1 4 50 -84 40 0 0 -1 0 1 0 1 0 0 85861.dat
1 0 0 -152 190 -1 0 0 0 1 0 0 0 -1 60594.dat
1 0 -20 -160 190 -1 0 0 0 1 0 0 0 -1 15573.dat
1 0 20 -160 190 -1 0 0 0 1 0 0 0 -1 15573.dat
1 0 0 -88 170 1 0 0 0 1 0 0 0 1 32124.dat
1 0 30 -96.00000000000001 170 1 0 0 0 1 0 0 0 1 3023.dat
1 0 -50 -96.00000000000001 180 -1 0 0 0 1 0 0 0 -1 2429.dat
1 71 -40 -120 170 1 0 0 0 1 0 0 0 1 6541.dat
1 0 20 -120 210 -1 0 0 0 1 0 0 0 -1 32555.dat
1 0 70 -110 200 -1 0 0 0 1 0 0 0 -1 2780.dat
1 0 70 -110 240 -1 0 0 0 1 0 0 0 -1 2780.dat
1 0 80 -120 240 0 0 -1 0 1 0 1 0 0 3894.dat
1 0 30 -128 170 1 0 0 0 1 0 0 0 1 3023.dat
1 0 -50 -128 180 -1 0 0 0 1 0 0 0 -1 2429.dat
1 0 -50 -128 180 0 0 -1 0 1 0 1 0 0 2430.dat
1 0 -50 -96.00000000000001 180 0 0 -1 0 1 0 1 0 0 2430.dat
1 0 -60 -88 220 0 0 -1 0 1 0 1 0 0 3710.dat
1 0 -60 -96.00000000000001 240 0 0 1 0 1 0 -1 0 0 3023.dat
1 0 -60 -120 240 0 0 1 0 1 0 -1 0 0 3894.dat
1 0 -60 -144 220 -1 0 0 0 1 0 0 0 -1 61678.dat
1 0 -60 -136 190 -1 0 0 0 1 0 0 0 -1 6141.dat
1 0 30 -136 170 0 0 -1 0 1 0 1 0 0 92946.dat
1 0 -30 -136 170 0 0 1 0 1 0 -1 0 0 92946.dat
1 71 30 -88 130 0 0 -1 0 1 0 1 0 0 3623.dat
1 71 30 -96.00000000000001 130 0 0 -1 0 1 0 1 0 0 3623.dat
1 71 30 -120 150 0 0 -1 0 1 0 1 0 0 3062b.dat
1 0 30 -120 20 0 0 -1 0 1 0 1 0 0 3895.dat
1 1 20 -110 120 -1 0 0 0 1 0 0 0 -1 4274.dat
1 71 30 -96.00000000000001 -70 0 0 -1 0 1 0 1 0 0 3623.dat
1 71 30 -88 -70 0 0 -1 0 1 0 1 0 0 3623.dat
1 71 30 -128 120 0 0 -1 0 1 0 1 0 0 3710.dat
1 71 30 -136 130 0 0 -1 0 1 0 1 0 0 63864.dat
1 4 30 -128 70 0 0 -1 0 1 0 1 0 0 85861.dat
1 0 30 -136 70 0 0 -1 0 1 0 1 0 0 6141.dat
1 14 30 -128 50 0 0 -1 0 1 0 1 0 0 6019.dat
1 71 30 -128 -70 0 0 -1 0 1 0 1 0 0 3623.dat
1 71 30 -128 20 0 0 -1 0 1 0 1 0 0 3023.dat
1 0 30 -136 -80 0 0 -1 0 1 0 1 0 0 92280.dat
1 0 30 -136 40 0 0 1 0 1 0 -1 0 0 92280.dat
1 0 30 -144 60 0 0 -1 0 1 0 1 0 0 11458.dat
1 0 30 -144 -20 0 0 -1 0 1 0 1 0 0 3004.dat
1 71 30 -144 -10 -1 0 0 0 1 0 0 0 -1 54200.dat
1 71 30 -144 -30 1 0 0 0 1 0 0 0 1 54200.dat
1 70 48.00000000000001 -110 100 -1 0 0 0 1 0 0 0 -1 15462.dat
1 72 10 -110 100 0 0 -1 0 1 0 1 0 0 10928.dat
1 14 45 -110 100 0 0 -1 0 1 0 1 0 0 32123b.dat
1 72 60 -110 100 0 0 -1 0 1 0 1 0 0 3648b.dat
1 14 75 -110 100 0 0 -1 0 1 0 1 0 0 32123b.dat
1 0 -10 -116.34 -98.96000000000001 0 -1 0 -0.948 0 -0.317 0.317 0 -0.948 32523.dat
1 0 0 -116.34 -98.96000000000001 -1 0 0 0 0.948 -0.317 0 -0.317 -0.948 2780.dat
1 0 0 -122.68 -117.92000000000002 -1 0 0 0 0.948 -0.317 0 -0.317 -0.948 2780.dat
1 0 10 -116.34 -98.96000000000001 0 -1 0 -0.948 0 -0.317 0.317 0 -0.948 32523.dat
1 0 20 -110 -80 -1 0 0 0 0.948 -0.317 0 -0.317 -0.948 2780.dat
1 0 -20 -110 -80 -1 0 0 0 0.948 -0.317 0 -0.317 -0.948 2780.dat
1 0 -40 -122.68 -117.92000000000002 0 1 0 0.948 0 -0.317 -0.317 0 -0.948 30374.dat
1 4 -10 -110 60 0 1 0 1 0 0 0 0 -1 32316.dat
1 70 30 -110 20 -1 0 0 0 1 0 0 0 -1 15462.dat
1 70 10 -110 60 -1 0 0 0 1 0 0 0 -1 24316.dat
1 72 10 -110 20 0 0 1 0 1 0 -1 0 0 10928.dat
1 72 10 -110 60 0 0 1 0 1 0 -1 0 0 3648b.dat
1 0 -20 -110 40 -1 0 0 0 1 0 0 0 -1 2780.dat
1 71 50 -110 20 0 0 -1 0 1 0 1 0 0 94925.dat
1 4 50 -110 -20 -1 0 0 0 1 0 0 0 -1 3705.dat
1 71 0 -110 -20 0 0 -1 -1 0 0 0 1 0 2853.dat
1 14 5 -118.45300000000002 -12.286999999999999 0 -1 0 -0.386 0 0.923 -0.923 0 -0.386 32017.dat
1 14 -5 -118.45300000000002 -27.713 0 -1 0 -0.386 0 -0.923 0.923 0 -0.386 32017.dat
1 71 -30 -100 -20 0 0 -1 1 0 0 0 -1 0 2853.dat
1 1 10 -155.359 -43.138000000000005 1 0 0 0 -0.44800000000000006 -0.8940000000000001 0 0.8940000000000001 -0.44800000000000006 4274.dat
1 0 0 -173.23900000000003 -52.09800000000001 -1 0 0 0 0.44800000000000006 -0.8940000000000001 0 -0.8940000000000001 -0.44800000000000006 32126.dat
1 71 0 -191.11900000000003 -61.058000000000014 0 0 1 -0.8940000000000001 0.44800000000000006 0 -0.44800000000000006 -0.8940000000000001 0 4519.dat
1 71 0 -191.11900000000003 -61.058000000000014 0 0 1 -0.8940000000000001 0.44800000000000006 0 -0.44800000000000006 -0.8940000000000001 0 61510.dat
1 71 0 -208.99900000000002 -70.018 0 0 1 -0.8940000000000001 0.44800000000000006 0 -0.44800000000000006 -0.8940000000000001 0 61510.dat
1 1 -10 -155.359 3.1380000000000017 -1 0 0 0 -0.44800000000000006 -0.8940000000000001 0 -0.8940000000000001 0.44800000000000006 4274.dat
1 0 0 -173.23900000000003 12.098000000000004 1 0 0 0 0.44800000000000006 -0.8940000000000001 0 0.8940000000000001 0.44800000000000006 32126.dat
1 71 0 -191.11900000000003 21.058000000000003 0 0 -1 -0.8940000000000001 0.44800000000000006 0 0.44800000000000006 0.8940000000000001 0 4519.dat
1 71 0 -191.11900000000003 21.058000000000003 0 0 -1 -0.8940000000000001 0.44800000000000006 0 0.44800000000000006 0.8940000000000001 0 61510.dat
1 71 0 -208.99900000000002 30.018 0 0 -1 -0.8940000000000001 0.44800000000000006 0 0.44800000000000006 0.8940000000000001 0 61510.dat
1 71 50 -110 -20 0 0 -1 0 1 0 1 0 0 94925.dat
1 71 -30 -88 130 0 0 -1 0 1 0 1 0 0 3623.dat
1 71 -30 -96.00000000000001 130 0 0 -1 0 1 0 1 0 0 3623.dat
1 71 -30 -120 150 0 0 -1 0 1 0 1 0 0 3062b.dat
1 0 -30 -120 20 0 0 -1 0 1 0 1 0 0 3895.dat
1 71 -30 -96.00000000000001 -70 0 0 -1 0 1 0 1 0 0 3623.dat
1 71 -30 -88 -70 0 0 -1 0 1 0 1 0 0 3623.dat
1 71 -30 -128 120 0 0 -1 0 1 0 1 0 0 3710.dat
1 71 -30 -128 40 0 0 -1 0 1 0 1 0 0 3710.dat
1 71 -30 -128 -70 0 0 -1 0 1 0 1 0 0 3623.dat
1 71 -30 -136 130 0 0 -1 0 1 0 1 0 0 63864.dat
1 0 -30 -136 70 0 0 -1 0 1 0 1 0 0 6141.dat
1 0 -30 -136 -80 0 0 -1 0 1 0 1 0 0 92280.dat
1 0 -30 -136 40 0 0 1 0 1 0 -1 0 0 92280.dat
1 0 -30 -144 60 0 0 -1 0 1 0 1 0 0 11458.dat
1 0 -30 -144 -20 0 0 -1 0 1 0 1 0 0 3004.dat
1 71 -30 -144 -10 -1 0 0 0 1 0 0 0 -1 54200.dat
1 71 -30 -144 -30 1 0 0 0 1 0 0 0 1 54200.dat
1 0 0 -152 90 1 0 0 0 1 0 0 0 1 3659.dat
1 0 20 -160 90 1 0 0 0 1 0 0 0 1 15573.dat
1 0 -20 -160 90 1 0 0 0 1 0 0 0 1 15573.dat
1 72 -50 -120 70 0 0 -1 0 1 0 1 0 0 30526.dat
1 72 -50 -128 70 0 0 -1 0 1 0 1 0 0 32530.dat
1 71 -70 -130 70 1 0 0 0 0 1 0 -1 0 87082.dat
1 0 -30 -150 70 1 0 0 0 0 1 0 -1 0 18651.dat
1 71 -50 -96.00000000000001 -20 0 0 1 0 1 0 -1 0 0 3623.dat
1 71 -50 -120 0 0 0 1 0 1 0 -1 0 0 6541.dat
1 71 -50 -120 -30 0 0 1 0 1 0 -1 0 0 32000.dat
1 71 -40 -110 0 -1 0 0 0 1 0 0 0 -1 3673.dat
1 71 -40 -110 -40 -1 0 0 0 1 0 0 0 -1 3673.dat
1 0 -50 -128 -10 0 0 1 0 1 0 -1 0 0 11458.dat
1 0 -50 -128 -40 0 0 1 0 1 0 -1 0 0 3024.dat
1 71 -50 -128 0 -1 0 0 0 1 0 0 0 -1 54200.dat
1 71 -50 -128 -40 1 0 0 0 1 0 0 0 1 54200.dat
1 0 -30 -157.228 4.0760000000000005 0 0 -1 0.44800000000000006 0.8940000000000001 0 0.8940000000000001 -0.44800000000000006 0 60478.dat
1 71 -30 -164.38 7.66 0 0 -1 0.44800000000000006 0.8940000000000001 0 0.8940000000000001 -0.44800000000000006 0 3023.dat
1 0 -30 -185.836 18.412 1 0 0 0 0.8940000000000001 0.44800000000000006 0 -0.44800000000000006 0.8940000000000001 32802.dat
1 71 -30 -174.204 23.768 0 0 1 -0.44800000000000006 0.8940000000000001 0 -0.8940000000000001 -0.44800000000000006 0 60897.dat
1 71 -30 -183.164 5.888000000000002 0 0 1 -0.44800000000000006 0.8940000000000001 0 -0.8940000000000001 -0.44800000000000006 0 60897.dat
1 0 -30 -185.836 18.412 0 0 1 -0.44800000000000006 0.8940000000000001 0 -0.8940000000000001 -0.44800000000000006 0 3023.dat
1 0 30 -157.228 4.0760000000000005 0 0 -1 0.44800000000000006 0.8940000000000001 0 0.8940000000000001 -0.44800000000000006 0 60478.dat
1 71 30 -164.38 7.66 0 0 -1 0.44800000000000006 0.8940000000000001 0 0.8940000000000001 -0.44800000000000006 0 3023.dat
1 0 30 -185.836 18.412 1 0 0 0 0.8940000000000001 0.44800000000000006 0 -0.44800000000000006 0.8940000000000001 32802.dat
1 0 30 -185.836 18.412 0 0 1 -0.44800000000000006 0.8940000000000001 0 -0.8940000000000001 -0.44800000000000006 0 3023.dat
1 71 30 -178.68400000000003 14.828000000000001 0 0 -1 0.44800000000000006 0.8940000000000001 0 0.8940000000000001 -0.44800000000000006 0 3023.dat
1 71 -30 -179.54800000000003 48.816 0 0 1 -0.44800000000000006 0.8940000000000001 0 -0.8940000000000001 -0.44800000000000006 0 2420.dat
1 71 -30 -206.428 -4.823999999999998 1 0 0 0 0.8940000000000001 0.44800000000000006 0 -0.44800000000000006 0.8940000000000001 2420.dat
1 71 30 -179.54800000000003 48.816 -1 0 0 0 0.8940000000000001 -0.44800000000000006 0 -0.44800000000000006 -0.8940000000000001 2420.dat
1 71 30 -206.428 -4.823999999999998 0 0 -1 0.44800000000000006 0.8940000000000001 0 0.8940000000000001 -0.44800000000000006 0 2420.dat
1 0 0 -200.14 25.580000000000002 0 0 -1 0.44800000000000006 0.8940000000000001 0 0.8940000000000001 -0.44800000000000006 0 11833.dat
1 71 -30 -193.852 55.98400000000001 0 0 1 -0.44800000000000006 0.8940000000000001 0 -0.8940000000000001 -0.44800000000000006 0 2420.dat
1 71 -30 -220.732 2.344000000000001 1 0 0 0 0.8940000000000001 0.44800000000000006 0 -0.44800000000000006 0.8940000000000001 2420.dat
1 71 30 -193.852 55.98400000000001 -1 0 0 0 0.8940000000000001 -0.44800000000000006 0 -0.44800000000000006 -0.8940000000000001 2420.dat
1 71 30 -216.25200000000004 11.283999999999999 0 0 -1 0.44800000000000006 0.8940000000000001 0 0.8940000000000001 -0.44800000000000006 0 3023.dat
1 71 10 -225.212 -6.595999999999997 0 0 1 -0.44800000000000006 0.8940000000000001 0 -0.8940000000000001 -0.44800000000000006 0 18677.dat
1 0 10 -236.844 -11.951999999999998 0 0 1 -0.44800000000000006 0.8940000000000001 0 -0.8940000000000001 -0.44800000000000006 0 6141.dat
1 0 0 -214.44400000000002 32.748000000000005 0 0 -1 0.44800000000000006 0.8940000000000001 0 0.8940000000000001 -0.44800000000000006 0 11833.dat
1 71 10 -235.03600000000003 9.512 -1 0 0 0 0.8940000000000001 -0.44800000000000006 0 -0.44800000000000006 -0.8940000000000001 2420.dat
1 0 -30 -157.228 -44.07600000000001 0 0 1 0.44800000000000006 0.8940000000000001 0 -0.8940000000000001 0.44800000000000006 0 60478.dat
1 71 -30 -164.38 -47.66 0 0 -1 -0.44800000000000006 0.8940000000000001 0 0.8940000000000001 0.44800000000000006 0 3023.dat
1 0 -30 -185.836 -58.412000000000006 -1 0 0 0 0.8940000000000001 0.44800000000000006 0 0.44800000000000006 -0.8940000000000001 32802.dat
1 71 -30 -174.204 -63.768 0 0 1 0.44800000000000006 0.8940000000000001 0 -0.8940000000000001 0.44800000000000006 0 60897.dat
1 71 -30 -183.164 -45.888000000000005 0 0 1 0.44800000000000006 0.8940000000000001 0 -0.8940000000000001 0.44800000000000006 0 60897.dat
1 0 -30 -185.836 -58.412000000000006 0 0 1 0.44800000000000006 0.8940000000000001 0 -0.8940000000000001 0.44800000000000006 0 3023.dat
1 0 30 -157.228 -44.07600000000001 0 0 1 0.44800000000000006 0.8940000000000001 0 -0.8940000000000001 0.44800000000000006 0 60478.dat
1 71 30 -164.38 -47.66 0 0 -1 -0.44800000000000006 0.8940000000000001 0 0.8940000000000001 0.44800000000000006 0 3023.dat
1 0 30 -185.836 -58.412000000000006 -1 0 0 0 0.8940000000000001 0.44800000000000006 0 0.44800000000000006 -0.8940000000000001 32802.dat
1 0 30 -185.836 -58.412000000000006 0 0 1 0.44800000000000006 0.8940000000000001 0 -0.8940000000000001 0.44800000000000006 0 3023.dat
1 71 30 -178.68400000000003 -54.82800000000001 0 0 -1 -0.44800000000000006 0.8940000000000001 0 0.8940000000000001 0.44800000000000006 0 3023.dat
1 71 -30 -179.54800000000003 -88.816 1 0 0 0 0.8940000000000001 -0.44800000000000006 0 0.44800000000000006 0.8940000000000001 2420.dat
1 71 -30 -206.428 -35.176 0 0 1 0.44800000000000006 0.8940000000000001 0 -0.8940000000000001 0.44800000000000006 0 2420.dat
1 71 30 -179.54800000000003 -88.816 0 0 -1 -0.44800000000000006 0.8940000000000001 0 0.8940000000000001 0.44800000000000006 0 2420.dat
1 71 30 -206.428 -35.176 -1 0 0 0 0.8940000000000001 0.44800000000000006 0 0.44800000000000006 -0.8940000000000001 2420.dat
1 0 0 -200.14 -65.58 0 0 -1 -0.44800000000000006 0.8940000000000001 0 0.8940000000000001 0.44800000000000006 0 11833.dat
1 71 -30 -193.852 -95.98400000000001 1 0 0 0 0.8940000000000001 -0.44800000000000006 0 0.44800000000000006 0.8940000000000001 2420.dat
1 71 30 -220.732 -42.344 -1 0 0 0 0.8940000000000001 0.44800000000000006 0 0.44800000000000006 -0.8940000000000001 2420.dat
1 71 30 -193.852 -95.98400000000001 0 0 -1 -0.44800000000000006 0.8940000000000001 0 0.8940000000000001 0.44800000000000006 0 2420.dat
1 71 -30 -216.25200000000004 -51.284 0 0 1 0.44800000000000006 0.8940000000000001 0 -0.8940000000000001 0.44800000000000006 0 3023.dat
1 71 -10 -225.212 -33.40400000000001 0 0 -1 -0.44800000000000006 0.8940000000000001 0 0.8940000000000001 0.44800000000000006 0 18677.dat
1 0 -10 -236.844 -28.048000000000002 0 0 -1 -0.44800000000000006 0.8940000000000001 0 0.8940000000000001 0.44800000000000006 0 6141.dat
1 0 0 -214.44400000000002 -72.748 0 0 -1 -0.44800000000000006 0.8940000000000001 0 0.8940000000000001 0.44800000000000006 0 11833.dat
1 71 -10 -235.03600000000003 -49.512 1 0 0 0 0.8940000000000001 -0.44800000000000006 0 0.44800000000000006 0.8940000000000001 2420.dat
1 0 -10 -220.765 -20 1 0 0 0 1 0 0 0 1 32054.dat
1 71 -30 -221.597 36.349999999999994 0 0 -1 0.44800000000000006 0.8940000000000001 0 0.8940000000000001 -0.44800000000000006 0 3710.dat
1 71 30 -221.597 36.349999999999994 0 0 -1 0.44800000000000006 0.8940000000000001 0 0.8940000000000001 -0.44800000000000006 0 3710.dat
1 71 0 -208.151 63.168000000000006 -1 0 0 0 0.8940000000000001 -0.44800000000000006 0 -0.44800000000000006 -0.8940000000000001 14704.dat
1 0 0 -228.748 39.93600000000001 -1 0 0 0 0.8940000000000001 -0.44800000000000006 0 -0.44800000000000006 -0.8940000000000001 11833.dat
1 71 -30 -231.42 52.460000000000015 0 0 -1 0.44800000000000006 0.8940000000000001 0 0.8940000000000001 -0.44800000000000006 0 2420.dat
1 71 0 -222.45999999999998 70.34 -1 0 0 0 0.8940000000000001 -0.44800000000000006 0 -0.44800000000000006 -0.8940000000000001 3023.dat
1 71 0 -249.33999999999997 16.70000000000001 -1 0 0 0 0.8940000000000001 -0.44800000000000006 0 -0.44800000000000006 -0.8940000000000001 3023.dat
1 71 30 -235.9 43.52000000000001 0 0 -1 0.44800000000000006 0.8940000000000001 0 0.8940000000000001 -0.44800000000000006 0 3710.dat
1 71 -40 -244.86 25.640000000000008 0 0 1 -0.44800000000000006 0.8940000000000001 0 -0.8940000000000001 -0.44800000000000006 0 26601.dat
1 14 -30 -243.052 47.104000000000006 0 0 -1 0.44800000000000006 0.8940000000000001 0 0.8940000000000001 -0.44800000000000006 0 3023.dat
1 71 -50 -235.9 43.52000000000001 0 0 1 -0.44800000000000006 0.8940000000000001 0 -0.8940000000000001 -0.44800000000000006 0 85984.dat
1 71 -30 -250.20399999999998 50.68800000000002 0 0 -1 0.44800000000000006 0.8940000000000001 0 0.8940000000000001 -0.44800000000000006 0 45677.dat
1 71 -30 -221.597 -76.35 0 0 1 0.44800000000000006 0.8940000000000001 0 -0.8940000000000001 0.44800000000000006 0 3710.dat
1 71 30 -221.597 -76.35 0 0 1 0.44800000000000006 0.8940000000000001 0 -0.8940000000000001 0.44800000000000006 0 3710.dat
1 71 0 -208.151 -103.168 -1 0 0 0 0.8940000000000001 0.44800000000000006 0 0.44800000000000006 -0.8940000000000001 3023.dat
1 0 0 -228.748 -79.936 1 0 0 0 0.8940000000000001 -0.44800000000000006 0 0.44800000000000006 0.8940000000000001 11833.dat
1 71 -30 -231.42 -92.46000000000001 -1 0 0 0 0.8940000000000001 0.44800000000000006 0 0.44800000000000006 -0.8940000000000001 2420.dat
1 71 0 -222.45999999999998 -110.34 1 0 0 0 0.8940000000000001 -0.44800000000000006 0 0.44800000000000006 0.8940000000000001 3023.dat
1 71 0 -249.33999999999997 -56.70000000000001 1 0 0 0 0.8940000000000001 -0.44800000000000006 0 0.44800000000000006 0.8940000000000001 3023.dat
1 71 30 -235.9 -83.52000000000002 0 0 -1 -0.44800000000000006 0.8940000000000001 0 0.8940000000000001 0.44800000000000006 0 3710.dat
1 71 -40 -244.86 -65.64000000000001 -1 0 0 0 0.8940000000000001 0.44800000000000006 0 0.44800000000000006 -0.8940000000000001 26601.dat
1 14 -30 -243.052 -87.10400000000001 0 0 -1 -0.44800000000000006 0.8940000000000001 0 0.8940000000000001 0.44800000000000006 0 3023.dat
1 71 -50 -235.9 -83.52000000000002 0 0 1 0.44800000000000006 0.8940000000000001 0 -0.8940000000000001 0.44800000000000006 0 85984.dat
1 71 -30 -250.20399999999998 -90.68800000000002 0 0 -1 -0.44800000000000006 0.8940000000000001 0 0.8940000000000001 0.44800000000000006 0 45677.dat
1 71 -50 -154.55700000000002 -8.428999999999995 -1 0 0 0 0.8940000000000001 -0.44800000000000006 0 -0.44800000000000006 -0.8940000000000001 3957b.dat
1 71 -50 -221.597 36.351 0 0 1 0.44800000000000006 -0.8940000000000001 0 0.8940000000000001 0.44800000000000006 0 35480.dat
1 71 -50 -145.59699999999998 9.451 -1 0 0 0 0.8940000000000001 -0.44800000000000006 0 -0.44800000000000006 -0.8940000000000001 3957b.dat
1 71 -50 -145.59699999999998 -49.451 -1 0 0 0 0.8940000000000001 0.44800000000000006 0 0.44800000000000006 -0.8940000000000001 3957b.dat
1 71 -50 -221.597 -76.351 0 0 1 -0.44800000000000006 -0.8940000000000001 0 0.8940000000000001 -0.44800000000000006 0 35480.dat
1 71 -50 -154.55700000000002 -31.571000000000005 -1 0 0 0 0.8940000000000001 0.44800000000000006 0 0.44800000000000006 -0.8940000000000001 3957b.dat
1 28 -52 -220.765 -20 -1 0 0 0 1 0 0 0 -1 6587.dat
1 71 -80 -220.765 -20 0 1 0 1 0 0 0 0 -1 2723.dat
1 71 -60 -220.765 -20 0 0 -1 1 0 0 0 -1 0 10269 - 46372.dat
1 71 -50 -220.765 -20 0 1 0 1 0 0 0 0 -1 2723.dat
1 71 -90 -220.765 -20 0 1 0 1 0 0 0 0 -1 14769.dat
1 1 -60 -110 -20 -1 0 0 0 1 0 0 0 -1 43093.dat
1 71 -68 -110 -20 0 1 0 1 0 0 0 0 -1 4032a.dat
1 71 -76 -110 -20 0 1 0 1 0 0 0 0 -1 4032a.dat
1 71 -84 -110 -20 0 1 0 1 0 0 0 0 -1 14769.dat
1 0 40 -90 -60 -1 0 0 0 1 0 0 0 -1 15461.dat
1 0 20 -160 140 0 0 1 0 1 0 -1 0 0 3701.dat
1 0 20 -168 140 0 0 1 0 1 0 -1 0 0 3666.dat
1 0 20 -176 120 0 0 1 0 1 0 -1 0 0 3710.dat
1 0 20 -200 120 0 0 1 0 1 0 -1 0 0 3701.dat
1 1 0 -190 120 1 0 0 0 1 0 0 0 1 6558.dat
1 72 0 -150 120 -1 0 0 0 1 0 0 0 -1 11214.dat
1 4 0 -170 120 0 1 0 0 0 1 1 0 0 32523.dat
1 1 0 -190 140 1 0 0 0 1 0 0 0 1 6558.dat
1 72 0 -150 140 -1 0 0 0 1 0 0 0 -1 11214.dat
1 14 0 -130 140 0 1 0 0 0 1 1 0 0 32524.dat
1 19 10 -90 140 1 0 0 0 0 1 0 -1 0 32002.dat
1 4 0 -110 140 1 0 0 0 0 1 0 -1 0 32062.dat
1 71 15 -110 140 0 1 0 0 0 1 1 0 0 6632.dat
1 71 -15 -110 140 0 1 0 0 0 1 1 0 0 6632.dat
1 0 -20 -200 120 0 0 1 0 1 0 -1 0 0 3701.dat
1 0 -20 -176 120 0 0 1 0 1 0 -1 0 0 3710.dat
1 0 -20 -168 140 0 0 1 0 1 0 -1 0 0 3666.dat
1 0 -20 -160 140 0 0 1 0 1 0 -1 0 0 3701.dat
1 0 0 -192.00000000000003 170 -1 0 0 0 1 0 0 0 -1 3038.dat
1 14 20 -192.00000000000003 170 -1 0 0 0 1 0 0 0 -1 54200.dat
1 14 -20 -192.00000000000003 170 -1 0 0 0 1 0 0 0 -1 54200.dat
1 72 0 -70 140 -1 0 0 0 1 0 0 0 -1 87083.dat
1 0 -40 -90 -60 1 0 0 0 1 0 0 0 1 15461.dat
1 71 -70 -90 -60 1 0 0 0 0 1 0 -1 0 87082.dat
1 0 90 -110 260 1 0 0 0 1 0 0 0 1 32062.dat
1 0 90 -110 280 1 0 0 0 1 0 0 0 1 2780.dat
1 0 100 -110 260 0 1 0 -1 0 0 0 0 1 32140.dat
1 0 -50 -110 280 1 0 0 0 1 0 0 0 1 2780.dat
1 0 -50 -110 260 1 0 0 0 1 0 0 0 1 32062.dat
1 0 -40 -110 260 0 1 0 -1 0 0 0 0 1 32140.dat
1 72 0 -322.56 15.509999999999993 0 0 -1 0.5110000000000001 0.8600000000000001 0 0.8600000000000001 -0.5110000000000001 0 32018.dat
1 0 0 -235.49000000000004 115.04600000000003 -1 0 0 0 0.8600000000000001 -0.5110000000000001 0 -0.5110000000000001 -0.8600000000000001 15573.dat
1 0 0 -368.35 -108.55399999999997 -1 0 0 0 0.8600000000000001 -0.5110000000000001 0 -0.5110000000000001 -0.8600000000000001 15573.dat
1 0 0 -255.93000000000004 80.64600000000002 0 0 1 -0.5110000000000001 0.8600000000000001 0 -0.8600000000000001 -0.5110000000000001 0 3623.dat
1 0 0 -347.91 -74.154 0 0 1 -0.5110000000000001 0.8600000000000001 0 -0.8600000000000001 -0.5110000000000001 0 3623.dat
1 0 0 -243.94000000000003 85.15800000000002 0 0 1 -0.5110000000000001 0.8600000000000001 0 -0.8600000000000001 -0.5110000000000001 0 3710.dat
1 0 0 -346.14 -86.84199999999998 0 0 1 -0.5110000000000001 0.8600000000000001 0 -0.8600000000000001 -0.5110000000000001 0 3710.dat
1 0 0 -388.99 -96.28999999999998 1 0 0 0 0.8600000000000001 0.5110000000000001 0 -0.5110000000000001 0.8600000000000001 54200.dat
1 1 0 -365.06 -75.59999999999997 -1 0 0 0 0.8600000000000001 -0.5110000000000001 0 -0.5110000000000001 -0.8600000000000001 6558.dat
1 1 0 -324.18 -6.800000000000011 -1 0 0 0 0.8600000000000001 -0.5110000000000001 0 -0.5110000000000001 -0.8600000000000001 6558.dat
1 1 0 -262.86 96.4 -1 0 0 0 0.8600000000000001 -0.5110000000000001 0 -0.5110000000000001 -0.8600000000000001 6558.dat
1 1 0 -252.64 113.6 -1 0 0 0 0.8600000000000001 -0.5110000000000001 0 -0.5110000000000001 -0.8600000000000001 6558.dat
1 72 0 -344.62 -41.19999999999999 -1 0 0 0 0.8600000000000001 -0.5110000000000001 0 -0.5110000000000001 -0.8600000000000001 11214.dat
1 0 20 -240.8 153.11 0 0 -1 0.5110000000000001 0.8600000000000001 0 0.8600000000000001 -0.5110000000000001 0 3702.dat
1 0 40 -206.65000000000003 191 -1 0 0 0 0.5110000000000001 0.8600000000000001 0 0.8600000000000001 -0.5110000000000001 32138.dat
1 0 60 -191.32000000000002 216.80000000000004 0 -1 0 -0.8600000000000001 0 -0.5110000000000001 0.5110000000000001 0 -0.8600000000000001 32316.dat
1 0 70 -181.1 234.00000000000003 -1 0 0 0 0.8600000000000001 -0.5110000000000001 0 -0.5110000000000001 -0.8600000000000001 2780.dat
1 0 70 -170.88 251.20000000000002 -1 0 0 0 0.8600000000000001 -0.5110000000000001 0 -0.5110000000000001 -0.8600000000000001 2780.dat
1 0 75 -155.55 277 0 -1 0 -0.8600000000000001 0 -0.5110000000000001 0.5110000000000001 0 -0.8600000000000001 32063.dat
1 0 85 -155.55 277 0 -1 0 -0.8600000000000001 0 -0.5110000000000001 0.5110000000000001 0 -0.8600000000000001 32063.dat
1 0 90 -130 320 -1 0 0 0 0.8600000000000001 -0.5110000000000001 0 -0.5110000000000001 -0.8600000000000001 2780.dat
1 0 70 -191.32000000000002 216.80000000000004 -1 0 0 0 0.8600000000000001 -0.5110000000000001 0 -0.5110000000000001 -0.8600000000000001 2780.dat
1 0 20 -276.493 -102.47300000000001 0 0 -1 -0.8600000000000001 0.5110000000000001 0 0.5110000000000001 0.8600000000000001 0 3666.dat
1 0 20 -246.18099999999998 -129.793 0 0 1 0.8600000000000001 0.5110000000000001 0 -0.5110000000000001 0.8600000000000001 0 63868.dat
1 0 20 -314.981 -88.913 0 0 -1 -0.8600000000000001 0.5110000000000001 0 0.5110000000000001 0.8600000000000001 0 3666.dat
1 71 20 -362.493 -51.373 0 0 -1 -0.8600000000000001 0.5110000000000001 0 0.5110000000000001 0.8600000000000001 0 3710.dat
1 0 20 -335.845 -104.443 0 0 -1 -0.8600000000000001 0.5110000000000001 0 0.5110000000000001 0.8600000000000001 0 3622.dat
1 71 20 -370.245 -84.003 0 0 -1 -0.8600000000000001 0.5110000000000001 0 0.5110000000000001 0.8600000000000001 0 6541.dat
1 0 20 -292.84499999999997 -129.993 0 0 -1 -0.8600000000000001 0.5110000000000001 0 0.5110000000000001 0.8600000000000001 0 32000.dat
1 0 20 -258.445 -150.433 0 0 -1 -0.8600000000000001 0.5110000000000001 0 0.5110000000000001 0.8600000000000001 0 32000.dat
1 0 20 -314.133 -126.653 0 0 -1 -0.8600000000000001 0.5110000000000001 0 0.5110000000000001 0.8600000000000001 0 4162.dat
1 0 30 -244.735 -146.94299999999998 -1 0 0 0 0.5110000000000001 0.8600000000000001 0 0.8600000000000001 -0.5110000000000001 6628.dat
1 1 20 -311.741 -44.293000000000006 0 0 -1 -0.8600000000000001 0.5110000000000001 0 0.5110000000000001 0.8600000000000001 0 3710.dat
1 1 20 -307.653 -37.413 0 0 -1 -0.8600000000000001 0.5110000000000001 0 0.5110000000000001 0.8600000000000001 0 3710.dat
1 4 20 -306.805 -75.15299999999999 0 0 -1 -0.8600000000000001 0.5110000000000001 0 0.5110000000000001 0.8600000000000001 0 3700.dat
1 0 20 -341.205 -54.712999999999994 0 0 -1 -0.8600000000000001 0.5110000000000001 0 0.5110000000000001 0.8600000000000001 0 32000.dat
1 19 20 -312.16499999999996 -25.42299999999999 1 0 0 0 0.5110000000000001 -0.8600000000000001 0 0.8600000000000001 0.5110000000000001 4287a.dat
1 71 20 -329.365 -15.202999999999989 0 0 -1 -0.8600000000000001 0.5110000000000001 0 0.5110000000000001 0.8600000000000001 0 6541.dat
1 0 20 -308.501 0.3270000000000124 0 0 -1 -0.8600000000000001 0.5110000000000001 0 0.5110000000000001 0.8600000000000001 0 32529.dat
1 72 -30 -110 320 1 0 0 0 1 0 0 0 1 87083.dat
1 0 0 -110 320 0 1 0 -1 0 0 0 0 1 18654.dat
1 71 -20 -110 320 0 0 1 -1 0 0 0 -1 0 10269 - 46334.dat
1 1 -10 -110 340 1 0 0 0 -1 0 0 0 -1 43093.dat
1 1 -10 -110 300 1 0 0 0 -1 0 0 0 -1 43093.dat
1 71 20 -110 300 1 0 0 0 -1 0 0 0 -1 32054.dat
1 71 20 -110 340 1 0 0 0 -1 0 0 0 -1 32054.dat
1 71 20 -110 320 0 0 1 -1 0 0 0 -1 0 10269 - 46334.dat
1 0 40 -110 320 0 1 0 -1 0 0 0 0 1 32523.dat
1 72 67 -110 320 1 0 0 0 0 1 0 -1 0 59426.dat
1 71 60 -110 320 0 0 -1 1 0 0 0 -1 0 3649.dat
1 71 80 -110 320 0 0 1 1 0 0 0 1 0 3713.dat
1 256 0 -110 320 0 0 -1 1 0 0 0 -1 0 10269 - 46335.dat
1 71 115 -110 320 0 0 1 0 1 0 -1 0 0 32123b.dat
1 71 -55 -110 320 0 0 1 0 1 0 -1 0 0 32123b.dat
1 14 0 -306.553 -133.463 0 -1 0 -0.8600000000000001 0 -0.5110000000000001 0.5110000000000001 0 -0.8600000000000001 32073.dat
1 0 0 -272.153 -153.903 0 0 -1 -0.8600000000000001 0.5110000000000001 0 0.5110000000000001 0.8600000000000001 0 6536.dat
1 71 0 -285.053 -146.238 1 0 0 0 -0.8600000000000001 -0.5110000000000001 0 0.5110000000000001 -0.8600000000000001 6632.dat
1 0 0 -297.953 -138.57300000000004 0 0 -1 -0.8600000000000001 0.5110000000000001 0 0.5110000000000001 0.8600000000000001 0 32557.dat
1 19 0 -316.773 -150.66299999999998 0 0 -1 -0.8600000000000001 0.5110000000000001 0 0.5110000000000001 0.8600000000000001 0 32002.dat
1 71 0 -310.85300000000007 -130.908 1 0 0 0 -0.8600000000000001 -0.5110000000000001 0 0.5110000000000001 -0.8600000000000001 6632.dat
1 71 0 -303.313 -88.84299999999999 0 0 -1 -0.8600000000000001 0.5110000000000001 0 0.5110000000000001 0.8600000000000001 0 98989.dat
1 0 0 -322.133 -100.93299999999999 0 0 -1 -0.8600000000000001 0.5110000000000001 0 0.5110000000000001 0.8600000000000001 0 2780.dat
1 71 0 -336.653 -115.578 1 0 0 0 -0.8600000000000001 -0.5110000000000001 0 0.5110000000000001 -0.8600000000000001 11478.dat
1 71 0 -345.25300000000004 -110.46799999999999 1 0 0 0 -0.8600000000000001 -0.5110000000000001 0 0.5110000000000001 -0.8600000000000001 11478.dat
1 72 0 -279.133 -126.48299999999999 1 0 0 0 -0.8600000000000001 -0.5110000000000001 0 0.5110000000000001 -0.8600000000000001 11214.dat
1 72 0 -261.933 -136.703 -1 0 0 0 0.8600000000000001 -0.5110000000000001 0 -0.5110000000000001 -0.8600000000000001 11214.dat
1 72 0 -296.33299999999997 -116.263 -1 0 0 0 0.8600000000000001 -0.5110000000000001 0 -0.5110000000000001 -0.8600000000000001 11214.dat
1 1 0 -301.693 -66.53299999999999 -1 0 0 0 0.8600000000000001 -0.5110000000000001 0 -0.5110000000000001 -0.8600000000000001 6558.dat
1 0 -20 -276.493 -102.47300000000001 0 0 -1 -0.8600000000000001 0.5110000000000001 0 0.5110000000000001 0.8600000000000001 0 3666.dat
1 0 -20 -246.18099999999998 -129.793 0 0 1 0.8600000000000001 0.5110000000000001 0 -0.5110000000000001 0.8600000000000001 0 63868.dat
1 0 -20 -314.981 -88.913 0 0 -1 -0.8600000000000001 0.5110000000000001 0 0.5110000000000001 0.8600000000000001 0 3666.dat
1 71 -20 -362.493 -51.373 0 0 -1 -0.8600000000000001 0.5110000000000001 0 0.5110000000000001 0.8600000000000001 0 3710.dat
1 0 -20 -335.845 -104.443 0 0 -1 -0.8600000000000001 0.5110000000000001 0 0.5110000000000001 0.8600000000000001 0 3622.dat
1 71 -20 -370.245 -84.003 0 0 -1 -0.8600000000000001 0.5110000000000001 0 0.5110000000000001 0.8600000000000001 0 6541.dat
1 0 -20 -292.84499999999997 -129.993 0 0 -1 -0.8600000000000001 0.5110000000000001 0 0.5110000000000001 0.8600000000000001 0 32000.dat
1 0 -20 -258.445 -150.433 0 0 -1 -0.8600000000000001 0.5110000000000001 0 0.5110000000000001 0.8600000000000001 0 32000.dat
1 0 -20 -314.133 -126.653 0 0 -1 -0.8600000000000001 0.5110000000000001 0 0.5110000000000001 0.8600000000000001 0 4162.dat
1 0 -30 -244.735 -146.94299999999998 1 0 0 0 -0.5110000000000001 0.8600000000000001 0 -0.8600000000000001 -0.5110000000000001 6628.dat
1 1 -20 -311.741 -44.293000000000006 0 0 -1 -0.8600000000000001 0.5110000000000001 0 0.5110000000000001 0.8600000000000001 0 3710.dat
1 1 -20 -307.653 -37.413 0 0 -1 -0.8600000000000001 0.5110000000000001 0 0.5110000000000001 0.8600000000000001 0 3710.dat
1 4 -20 -306.805 -75.15299999999999 0 0 -1 -0.8600000000000001 0.5110000000000001 0 0.5110000000000001 0.8600000000000001 0 3700.dat
1 0 -20 -341.205 -54.712999999999994 0 0 -1 -0.8600000000000001 0.5110000000000001 0 0.5110000000000001 0.8600000000000001 0 32000.dat
1 19 -20 -312.16499999999996 -25.42299999999999 1 0 0 0 0.5110000000000001 -0.8600000000000001 0 0.8600000000000001 0.5110000000000001 4287a.dat
1 71 -20 -329.365 -15.202999999999989 0 0 -1 -0.8600000000000001 0.5110000000000001 0 0.5110000000000001 0.8600000000000001 0 6541.dat
1 0 -20 -308.501 0.3270000000000124 0 0 -1 -0.8600000000000001 0.5110000000000001 0 0.5110000000000001 0.8600000000000001 0 32529.dat
1 0 60 -94.209003 367.422325 -1 0 0 0 -0.161105 -0.986937 0 -0.986937 0.161105 3711.dat
1 0 60 -80.04126900000001 359.987587 -1 0 0 0 -0.46467100000000006 -0.8854830000000001 0 -0.8854830000000001 0.46467100000000006 3711.dat
1 0 60 -68.94949199999999 348.456218 -1 0 0 0 -0.720711 -0.693236 0 -0.693236 0.720711 3711.dat
1 0 60 -62.072281000000004 334.009628 -1 0 0 0 -0.9029120000000002 -0.42982600000000004 0 -0.42982600000000004 0.9029120000000002 3711.dat
1 0 60 -60.045565 318.138509 -1 0 0 0 -0.9919450000000001 -0.12667 0 -0.12667 0.9919450000000001 3711.dat
1 0 60 -61.423977 302.197995 -1 0 0 0 -0.996282 0.086151 0 0.086151 0.996282 3711.dat
1 0 60 -62.872065 286.2636600000001 -1 0 0 0 -0.995896 0.090506 0 0.090506 0.995896 3711.dat
1 0 60 -64.326352 270.329889 -1 0 0 0 -0.9958610000000001 0.090893 0 0.090893 0.9958610000000001 3711.dat
1 0 60 -65.780885 254.39614000000003 -1 0 0 0 -0.995859 0.09090800000000002 0 0.09090800000000002 0.995859 3711.dat
1 0 60 -67.23543000000001 238.46239300000005 -1 0 0 0 -0.995859 0.090909 0 0.090909 0.995859 3711.dat
1 0 60 -68.689975 222.52864599999998 -1 0 0 0 -0.995859 0.090909 0 0.090909 0.995859 3711.dat
1 0 60 -70.144521 206.594899 -1 0 0 0 -0.995859 0.090909 0 0.090909 0.995859 3711.dat
1 0 60 -71.599066 190.661152 -1 0 0 0 -0.995859 0.090909 0 0.090909 0.995859 3711.dat
1 0 60 -73.053612 174.727405 -1 0 0 0 -0.995859 0.090909 0 0.090909 0.995859 3711.dat
1 0 60 -74.508157 158.793658 -1 0 0 0 -0.995859 0.090909 0 0.090909 0.995859 3711.dat
1 0 60 -75.962703 142.859911 -1 0 0 0 -0.995859 0.090909 0 0.090909 0.995859 3711.dat
1 0 60 -77.417248 126.926163 -1 0 0 0 -0.995859 0.090909 0 0.090909 0.995859 3711.dat
1 0 60 -78.871794 110.99241599999999 -1 0 0 0 -0.995859 0.090909 0 0.090909 0.995859 3711.dat
1 0 60 -80.417734 95.06727699999999 -1 0 0 0 -0.9953210000000001 0.096621 0 0.096621 0.9953210000000001 3711.dat
1 0 60 -87.19651 80.57423700000001 -1 0 0 0 -0.905815 0.423674 0 0.423674 0.905815 3711.dat
1 0 60 -100.45089400000002 71.612022 -1 0 0 0 -0.560138 0.8283990000000001 0 0.8283990000000001 0.560138 3711.dat
1 0 60 -116.42770300000001 70.750879 -1 0 0 0 -0.05382100000000001 0.998551 0 0.998551 0.05382100000000001 3711.dat
1 0 60 -130.567861 78.23793 -1 0 0 0 0.46794100000000005 0.8837600000000001 0 0.8837600000000001 -0.46794100000000005 3711.dat
1 0 60 -138.834658 91.93683800000001 -1 0 0 0 0.856182 0.516675 0 0.516675 -0.856182 3711.dat
1 0 60 -140.807021 107.81480300000001 -1 0 0 0 0.992373 0.123273 0 0.123273 -0.992373 3711.dat
1 0 60 -142.290107 123.74591899999999 -1 0 0 0 0.995695 0.092693 0 0.092693 -0.995695 3711.dat
1 0 60 -143.746818 139.679468 -1 0 0 0 0.9958470000000001 0.091044 0 0.091044 -0.9958470000000001 3711.dat
1 0 60 -145.201506 155.613202 -1 0 0 0 0.995858 0.090918 0 0.090918 -0.995858 3711.dat
1 0 60 -146.65605399999998 171.54694900000004 -1 0 0 0 0.995859 0.090909 0 0.090909 -0.995859 3711.dat
1 0 60 -148.110599 187.48069600000002 -1 0 0 0 0.995859 0.090909 0 0.090909 -0.995859 3711.dat
1 0 60 -149.565145 203.41444300000003 -1 0 0 0 0.995859 0.090909 0 0.090909 -0.995859 3711.dat
1 0 60 -151.01969 219.34819099999999 -1 0 0 0 0.995859 0.090909 0 0.090909 -0.995859 3711.dat
1 0 60 -152.474235 235.281938 -1 0 0 0 0.995859 0.090909 0 0.090909 -0.995859 3711.dat
1 0 60 -153.92878100000001 251.215685 -1 0 0 0 0.995859 0.090909 0 0.090909 -0.995859 3711.dat
1 0 60 -155.383326 267.149432 -1 0 0 0 0.995859 0.090909 0 0.090909 -0.995859 3711.dat
1 0 60 -156.837872 283.083179 -1 0 0 0 0.995859 0.090909 0 0.090909 -0.995859 3711.dat
1 0 60 -158.292417 299.016926 -1 0 0 0 0.995859 0.090909 0 0.090909 -0.995859 3711.dat
1 0 60 -159.746963 314.95067300000005 -1 0 0 0 0.995859 0.090909 0 0.090909 -0.995859 3711.dat
1 0 60 -158.763607 330.9204260000001 -1 0 0 0 0.99811 -0.06146 0 -0.06146 -0.99811 3711.dat
1 0 60 -152.796888 345.766243 -1 0 0 0 0.927864 -0.37292 0 -0.37292 -0.927864 3711.dat
1 0 60 -142.443263 357.964704 -1 0 0 0 0.762404 -0.647102 0 -0.647102 -0.762404 3711.dat
1 0 60 -128.80085000000003 366.3244030000001 -1 0 0 0 0.522481 -0.852651 0 -0.852651 -0.522481 3711.dat
1 0 60 -113.199646 369.874393 -1 0 0 0 0.221874 -0.9750750000000001 0 -0.9750750000000001 -0.221874 3711.dat
1 0 0 -172.572 -124.85400000000001 1 0 0 0 -0.255 -0.9670000000000001 0 0.9670000000000001 -0.255 3031.dat
1 0 -30 -189.87199999999999 -137.69 0 0 -1 -0.9670000000000001 -0.255 0 -0.255 0.9670000000000001 0 63868.dat
1 0 30 -189.87199999999999 -137.69 0 0 -1 -0.9670000000000001 -0.255 0 -0.255 0.9670000000000001 0 63868.dat
1 0 -30 -151.192 -127.49000000000002 0 0 1 0.9670000000000001 -0.255 0 0.255 0.9670000000000001 0 63868.dat
1 0 30 -151.192 -127.49000000000002 0 0 1 0.9670000000000001 -0.255 0 0.255 0.9670000000000001 0 63868.dat
1 0 -10 -170.532 -132.59 0 0 1 0.9670000000000001 -0.255 0 0.255 0.9670000000000001 0 3743.dat
1 0 10 -170.532 -132.59 0 0 1 0.9670000000000001 -0.255 0 0.255 0.9670000000000001 0 3743.dat
1 0 -30 -168.492 -140.326 0 0 1 0.9670000000000001 -0.255 0 0.255 0.9670000000000001 0 2431.dat
1 0 30 -168.492 -140.326 0 0 1 0.9670000000000001 -0.255 0 0.255 0.9670000000000001 0 2431.dat
1 0 -40 -219.392 -143.406 0 1 0 0.9670000000000001 0 0.255 0.255 0 -0.9670000000000001 30374.dat
1 0 70 -92.00000000000001 -110 0 -0.9820000000000001 -0.188 -0.235 0.182 -0.9550000000000001 0.9720000000000001 0.044000000000000004 -0.23100000000000004 32293.dat
1 0 -70 -92.00000000000001 -110 0 0.9820000000000001 0.188 0.235 0.182 -0.9550000000000001 -0.9720000000000001 0.044000000000000004 -0.23100000000000004 32293.dat
1 0 50 -197.23 148.232 0 0 1 0.8600000000000001 0.5110000000000001 0 -0.5110000000000001 0.8600000000000001 0 3003.dat
1 0 50 -201.31799999999998 141.352 0 0 1 0.8600000000000001 0.5110000000000001 0 -0.5110000000000001 0.8600000000000001 0 3022.dat
1 0 50 -196.80599999999998 129.362 1 0 0 0 0.5110000000000001 -0.8600000000000001 0 0.8600000000000001 0.5110000000000001 44728.dat
1 0 50 -214.006 139.582 1 0 0 0 0.5110000000000001 -0.8600000000000001 0 0.8600000000000001 0.5110000000000001 3023.dat
1 0 50 -200.89399999999998 122.482 0 0 1 0.8600000000000001 0.5110000000000001 0 -0.5110000000000001 0.8600000000000001 0 3021.dat
1 0 40 -174.546 139.408 1 0 0 0 -0.8600000000000001 -0.5110000000000001 0 0.5110000000000001 -0.8600000000000001 61409.dat
1 0 60 -174.546 139.408 1 0 0 0 -0.8600000000000001 -0.5110000000000001 0 0.5110000000000001 -0.8600000000000001 61409.dat
1 0 60 -221.75799999999998 106.952 0 0 1 0.8600000000000001 0.5110000000000001 0 -0.5110000000000001 0.8600000000000001 0 30526.dat
1 0 60 -195.958 91.622 -1 0 0 0 0.5110000000000001 0.8600000000000001 0 0.8600000000000001 -0.5110000000000001 6231.dat
1 0 40 -173.648 90.002 0 -1 0 0.5110000000000001 0 -0.8600000000000001 0.8600000000000001 0 0.5110000000000001 32526.dat
1 0 30 -190.84799999999998 100.22200000000001 -1 0 0 0 0.5110000000000001 0.8600000000000001 0 0.8600000000000001 -0.5110000000000001 2780.dat
1 0 30 -242.44799999999998 130.882 -1 0 0 0 0.5110000000000001 0.8600000000000001 0 0.8600000000000001 -0.5110000000000001 2780.dat
1 0 30 -222.008 165.282 -1 0 0 0 0.5110000000000001 0.8600000000000001 0 0.8600000000000001 -0.5110000000000001 2780.dat
1 1 50 -173.648 90.002 1 0 0 0 0.5110000000000001 -0.8600000000000001 0 0.8600000000000001 0.5110000000000001 4274.dat
1 0 58.00000000000001 -173.648 90.002 0 -1 0 0.5110000000000001 0 -0.8600000000000001 0.8600000000000001 0 0.5110000000000001 98138.dat
1 0 50 -230.358 112.06200000000001 0 0 -1 -0.8600000000000001 0.5110000000000001 0 0.5110000000000001 0.8600000000000001 0 11477.dat
1 0 50 -204.558 96.73200000000001 0 0 -1 -0.8600000000000001 0.5110000000000001 0 0.5110000000000001 0.8600000000000001 0 15068.dat
1 19 40 -217.24599999999998 94.962 0 0 -1 -0.8600000000000001 0.5110000000000001 0 0.5110000000000001 0.8600000000000001 0 3623.dat
1 71 0 -233.955 190.459 0 0 1 0.369 0.9300000000000002 0 -0.9300000000000002 0.369 0 3666.dat
1 0 0 -230.32500000000002 159.607 0 0 1 0.369 0.9300000000000002 0 -0.9300000000000002 0.369 0 11458.dat
1 14 0 -267.345 209.503 0 0 1 0.369 0.9300000000000002 0 -0.9300000000000002 0.369 0 3010.dat
1 0 0 -263.71500000000003 178.65099999999998 1 0 0 0 0.9300000000000002 -0.369 0 0.369 0.9300000000000002 10269 - 28192.dat
1 0 0 -278.475 215.851 0 0 1 0.369 0.9300000000000002 0 -0.9300000000000002 0.369 0 63864.dat
1 71 0 -244.965 239.91100000000003 0 0 -1 -0.369 0.9300000000000002 0 0.9300000000000002 0.369 0 18677.dat
1 1 0 -222.825 184.11100000000002 0 0 -1 -0.369 0.9300000000000002 0 0.9300000000000002 0.369 0 3710.dat
1 1 0 -222.765 205.66299999999998 0 0 -1 -0.369 0.9300000000000002 0 0.9300000000000002 0.369 0 3710.dat
1 1 0 -232.21500000000003 148.09300000000002 1 0 0 0 0.9300000000000002 -0.369 0 0.369 0.9300000000000002 6558.dat
1 71 0 -239.35500000000002 252.90099999999998 1 0 0 0 0.9300000000000002 -0.369 0 0.369 0.9300000000000002 4519.dat
1 15 -30 -239.35500000000002 252.90099999999998 0 0 1 0.369 0.9300000000000002 0 -0.9300000000000002 0.369 0 59443.dat
1 15 30 -239.35500000000002 252.90099999999998 0 0 1 0.369 0.9300000000000002 0 -0.9300000000000002 0.369 0 59443.dat
1 72 60 -239.35500000000002 252.90099999999998 -1 0 0 0 0.9300000000000002 0.369 0 0.369 -0.9300000000000002 11214.dat
1 72 -60 -239.35500000000002 252.90099999999998 1 0 0 0 0.9300000000000002 -0.369 0 0.369 0.9300000000000002 11214.dat
1 320 -60 -225.329 322.856 0 0 1 0 1 0 -1 0 0 3460.dat
1 320 60 -225.329 322.856 0 0 1 0 1 0 -1 0 0 3460.dat
1 320 60 -249.32900000000004 252.85600000000002 0 0 1 0 1 0 -1 0 0 6541.dat
1 320 -60 -249.32900000000004 252.85600000000002 0 0 1 0 1 0 -1 0 0 6541.dat
1 320 -60 -249.32900000000004 352.856 0 0 1 0 1 0 -1 0 0 6541.dat
1 320 60 -249.32900000000004 352.856 0 0 1 0 1 0 -1 0 0 6541.dat
1 320 60 -249.32900000000004 372.856 0 0 1 0 1 0 -1 0 0 3005.dat
1 320 -60 -249.32900000000004 372.856 0 0 1 0 1 0 -1 0 0 3005.dat
1 320 60 -249.32900000000004 302.856 0 0 1 0 1 0 -1 0 0 3010.dat
1 320 -60 -249.32900000000004 302.856 0 0 1 0 1 0 -1 0 0 3010.dat
1 320 40 -233.329 392.856 -1 0 0 0 1 0 0 0 -1 3623.dat
1 320 -40 -233.329 392.856 -1 0 0 0 1 0 0 0 -1 3623.dat
1 0 40 -257.329 392.856 -1 0 0 0 1 0 0 0 -1 87087.dat
1 320 60 -257.329 392.856 -1 0 0 0 1 0 0 0 -1 87087.dat
1 320 -60 -257.329 392.856 -1 0 0 0 1 0 0 0 -1 87087.dat
1 71 -10 -257.329 392.856 -1 0 0 0 1 0 0 0 -1 30414.dat
1 320 -50 -257.329 322.856 0 0 -1 0 1 0 1 0 0 3795.dat
1 320 50 -257.329 322.856 0 0 -1 0 1 0 1 0 0 3795.dat
1 320 60 -265.329 322.856 0 0 -1 0 1 0 1 0 0 3710.dat
1 1 40 -265.329 302.856 0 0 -1 0 1 0 1 0 0 3710.dat
1 0 40 -273.329 292.856 0 0 -1 0 1 0 1 0 0 6141.dat
1 320 10 -273.329 322.856 1 0 0 0 1 0 0 0 1 3795.dat
1 320 -60 -265.329 322.856 0 0 -1 0 1 0 1 0 0 3710.dat
1 1 -40 -265.329 302.856 0 0 -1 0 1 0 1 0 0 3710.dat
1 0 -40 -273.329 292.856 0 0 -1 0 1 0 1 0 0 6141.dat
1 320 -60 -273.329 322.856 0 0 -1 0 1 0 1 0 0 3023.dat
1 320 50 -257.329 252.85600000000002 1 0 0 0 1 0 0 0 1 44728.dat
1 320 -50 -257.329 252.85600000000002 1 0 0 0 1 0 0 0 1 44728.dat
1 320 -30 -281.329 362.856 -1 0 0 0 1 0 0 0 -1 93606.dat
1 320 30 -281.329 362.856 -1 0 0 0 1 0 0 0 -1 93606.dat
1 320 0 -281.329 362.856 -1 0 0 0 1 0 0 0 -1 61678.dat
1 320 -60 -281.329 362.856 -1 0 0 0 1 0 0 0 -1 61678.dat
1 320 60 -281.329 362.856 -1 0 0 0 1 0 0 0 -1 61678.dat
1 320 -60 -281.329 282.856 1 0 0 0 1 0 0 0 1 61678.dat
1 320 60 -281.329 282.856 1 0 0 0 1 0 0 0 1 61678.dat
1 0 40 -281.329 302.856 0 0 1 0 1 0 -1 0 0 3023.dat
1 0 -40 -281.329 302.856 0 0 1 0 1 0 -1 0 0 3023.dat
1 0 40 -289.32900000000006 292.856 0 0 1 0 1 0 -1 0 0 3070b.dat
1 0 -40 -289.32900000000006 292.856 0 0 1 0 1 0 -1 0 0 3070b.dat
1 320 40 -237.329 410.856 1 0 0 0 0 1 0 -1 0 15672.dat
1 320 0 -237.329 410.856 1 0 0 0 0 1 0 -1 0 15672.dat
1 320 20 -237.329 410.856 1 0 0 0 0 1 0 -1 0 15672.dat
1 320 -40 -237.329 410.856 1 0 0 0 0 1 0 -1 0 15672.dat
1 320 -20 -237.329 410.856 1 0 0 0 0 1 0 -1 0 15672.dat
1 320 -60 -217.329 252.85600000000002 -1 0 0 0 1 0 0 0 -1 4287a.dat
1 320 60 -217.329 252.85600000000002 -1 0 0 0 1 0 0 0 -1 4287a.dat
1 320 60 -237.329 410.856 1 0 0 0 0 1 0 -1 0 15672.dat
1 320 -60 -237.329 410.856 1 0 0 0 0 1 0 -1 0 15672.dat
1 320 -60 -227.329 410.856 -1 0 0 0 0 -1 0 -1 0 54200.dat
1 320 60 -227.329 410.856 -1 0 0 0 0 -1 0 -1 0 54200.dat
1 320 60 -217.329 230.856 1 0 0 0 0 -1 0 1 0 15672.dat
1 320 60 -227.329 222.85600000000002 1 0 0 0 0 -1 0 1 0 3024.dat
1 320 60 -227.329 214.85600000000002 -1 0 0 0 0 1 0 1 0 10269 - 28192.dat
1 320 -60 -217.329 230.856 1 0 0 0 0 -1 0 1 0 15672.dat
1 320 -60 -227.329 222.85600000000002 1 0 0 0 0 -1 0 1 0 3024.dat
1 320 -60 -227.329 214.85600000000002 -1 0 0 0 0 1 0 1 0 10269 - 28192.dat
1 0 40 -289.32900000000006 272.856 1 0 0 0 1 0 0 0 1 87087.dat
1 0 40 -279.32900000000006 254.85600000000002 1 0 0 0 0 -1 0 1 0 3024.dat
1 0 40 -279.32900000000006 254.85600000000002 -1 0 0 0 0 1 0 1 0 54200.dat
1 0 -40 -289.32900000000006 272.856 1 0 0 0 1 0 0 0 1 87087.dat
1 0 -40 -279.32900000000006 254.85600000000002 1 0 0 0 0 -1 0 1 0 3024.dat
1 0 -40 -279.32900000000006 254.85600000000002 -1 0 0 0 0 1 0 1 0 54200.dat
1 0 -20 -240.81000000000003 153.204 0 0 1 -0.5110000000000001 0.8600000000000001 0 -0.8600000000000001 -0.5110000000000001 0 3702.dat
1 0 -40 -206.661 191.07 -1 0 0 0 0.5110000000000001 0.8600000000000001 0 0.8600000000000001 -0.5110000000000001 32138.dat
1 0 -60 -170.886 251.237 0 1 0 0.8600000000000001 0 -0.5110000000000001 -0.5110000000000001 0 -0.8600000000000001 40490.dat
1 0 -70 -191.32900000000004 216.856 -1 0 0 0 0.8600000000000001 -0.5110000000000001 0 -0.5110000000000001 -0.8600000000000001 2780.dat
1 0 -50 -130 320 1 0 0 0 1 0 0 0 1 2780.dat
1 71 -80 -239.32900000000004 352.856 0 1 0 1 0 0 0 0 -1 64451.dat
1 71 80 -239.32900000000004 352.856 0 1 0 1 0 0 0 0 -1 64451.dat
1 71 80 -239.32900000000004 352.856 -1 0 0 0 -1 0 0 0 1 32054.dat
1 71 126.00000000000001 -239.32900000000004 350.856 -1 0 0 0 0 1 0 1 0 32828.dat
1 57 126.00000000000001 -239.32900000000004 358.85600000000005 -1 0 0 0 0 1 0 1 0 6141.dat
1 71 126.00000000000001 -239.32900000000004 326.856 -1 0 0 0 0 1 0 1 0 59900.dat
1 71 -80 -239.32900000000004 352.856 1 0 0 0 -1 0 0 0 -1 32054.dat
1 71 -126.00000000000001 -239.32900000000004 354.856 1 0 0 0 0 1 0 -1 0 32828.dat
1 57 -126.00000000000001 -239.32900000000004 346.856 1 0 0 0 0 1 0 -1 0 6141.dat
1 71 -126.00000000000001 -239.32900000000004 378.85600000000005 1 0 0 0 0 1 0 -1 0 59900.dat
1 0 20 -227.329 426.856 -1 0 0 0 0 -1 0 -1 0 44567.dat
1 0 -20 -227.329 426.856 -1 0 0 0 0 -1 0 -1 0 44567.dat
1 36 0 -227.329 434.85600000000005 -1 0 0 0 0 -1 0 -1 0 3069b.dat
1 36 30 -227.329 434.85600000000005 0 0 -1 1 0 0 0 -1 0 24246.dat
1 36 -30 -227.329 434.85600000000005 0 0 1 -1 0 0 0 -1 0 24246.dat
1 0 30 -227.329 418.85600000000005 -1 0 0 0 0 -1 0 -1 0 15573.dat
1 0 -20 -227.329 418.85600000000005 -1 0 0 0 0 -1 0 -1 0 34103.dat
1 71 20 -178.869 434.552 0 0 1 -0.9660000000000001 0.259 0 -0.259 -0.9660000000000001 0 44302a.dat
1 71 -20 -178.869 434.552 0 0 1 -0.9660000000000001 0.259 0 -0.259 -0.9660000000000001 0 44302a.dat
1 71 0 -180.93900000000002 442.28000000000003 -1 0 0 0 0.259 -0.9660000000000001 0 -0.9660000000000001 -0.259 26603.dat
1 0 -50 -197.23 148.232 0 0 -1 -0.8600000000000001 0.5110000000000001 0 0.5110000000000001 0.8600000000000001 0 3003.dat
1 0 -50 -201.31799999999998 141.352 0 0 -1 -0.8600000000000001 0.5110000000000001 0 0.5110000000000001 0.8600000000000001 0 3022.dat
1 0 -50 -196.80599999999998 129.362 1 0 0 0 0.5110000000000001 -0.8600000000000001 0 0.8600000000000001 0.5110000000000001 44728.dat
1 0 -50 -214.006 139.582 1 0 0 0 0.5110000000000001 -0.8600000000000001 0 0.8600000000000001 0.5110000000000001 3023.dat
1 0 -50 -200.89399999999998 122.482 0 0 -1 -0.8600000000000001 0.5110000000000001 0 0.5110000000000001 0.8600000000000001 0 3021.dat
1 0 -40 -174.546 139.408 1 0 0 0 -0.8600000000000001 -0.5110000000000001 0 0.5110000000000001 -0.8600000000000001 61409.dat
1 0 -60 -174.546 139.408 1 0 0 0 -0.8600000000000001 -0.5110000000000001 0 0.5110000000000001 -0.8600000000000001 61409.dat
1 0 -60 -221.75799999999998 106.952 0 0 -1 -0.8600000000000001 0.5110000000000001 0 0.5110000000000001 0.8600000000000001 0 30526.dat
1 0 -60 -195.958 91.622 0 0 -1 -0.8600000000000001 0.5110000000000001 0 0.5110000000000001 0.8600000000000001 0 6231.dat
1 0 -40 -173.648 90.002 0 -1 0 0.5110000000000001 0 -0.8600000000000001 0.8600000000000001 0 0.5110000000000001 32526.dat
1 0 -30 -190.84799999999998 100.22200000000001 -1 0 0 0 0.5110000000000001 0.8600000000000001 0 0.8600000000000001 -0.5110000000000001 2780.dat
1 0 -30 -242.44799999999998 130.882 -1 0 0 0 0.5110000000000001 0.8600000000000001 0 0.8600000000000001 -0.5110000000000001 2780.dat
1 0 -30 -222.008 165.282 -1 0 0 0 0.5110000000000001 0.8600000000000001 0 0.8600000000000001 -0.5110000000000001 2780.dat
1 1 -50 -173.648 90.002 -1 0 0 0 0.5110000000000001 0.8600000000000001 0 0.8600000000000001 -0.5110000000000001 4274.dat
1 0 -58.00000000000001 -173.648 90.002 0 1 0 -0.5110000000000001 0 -0.8600000000000001 -0.8600000000000001 0 0.5110000000000001 98138.dat
1 0 -50 -230.358 112.06200000000001 0 0 1 0.8600000000000001 0.5110000000000001 0 -0.5110000000000001 0.8600000000000001 0 11477.dat
1 0 -50 -204.558 96.73200000000001 0 0 1 0.8600000000000001 0.5110000000000001 0 -0.5110000000000001 0.8600000000000001 0 15068.dat
1 19 -40 -217.24599999999998 94.962 0 0 1 0.8600000000000001 0.5110000000000001 0 -0.5110000000000001 0.8600000000000001 0 3623.dat
1 0 -56.00000000000001 -100 150 0 -1 0 -1 0 0 0 0 -1 30357.dat
1 0 -48.00000000000001 -130 120 0 -1 0 0 0 1 -1 0 0 26601.dat
1 0 -48.00000000000001 -120 150 0 -1 0 -1 0 0 0 0 -1 3623.dat
1 71 -48.00000000000001 -90 120 0 -1 0 -1 0 0 0 0 -1 4032a.dat
1 0 -56.00000000000001 -80 120 0 -1 0 0 0 -1 1 0 0 3023.dat
1 0 -40 -140 140 0 -1 0 0 0 -1 1 0 0 3069b.dat
1 0 -40 -80 120 0 -1 0 0 0 -1 1 0 0 3069b.dat
1 71 -40 -110 120 0 -1 0 0 0 -1 1 0 0 2460.dat
1 71 20 -391.9030000000001 -61.77300000000001 0 0 -1 -0.8600000000000001 0.5110000000000001 0 0.5110000000000001 0.8600000000000001 0 3700.dat
1 71 -20 -391.9030000000001 -61.77300000000001 0 0 -1 -0.8600000000000001 0.5110000000000001 0 0.5110000000000001 0.8600000000000001 0 3700.dat
1 1 0 -386.79300000000006 -53.173 -1 0 0 0 0.5110000000000001 0.8600000000000001 0 0.8600000000000001 -0.5110000000000001 6558.dat
1 0 0 -386.79300000000006 -53.173 0 -1 0 -0.8600000000000001 0 -0.5110000000000001 0.5110000000000001 0 -0.8600000000000001 22961.dat
1 71 0 -404.59100000000007 -63.54300000000001 1 0 0 0 0.5110000000000001 -0.8600000000000001 0 0.8600000000000001 0.5110000000000001 3623.dat
1 71 20 -387.3910000000001 -73.763 1 0 0 0 0.5110000000000001 -0.8600000000000001 0 0.8600000000000001 0.5110000000000001 3024.dat
1 71 -20 -387.3910000000001 -73.763 1 0 0 0 0.5110000000000001 -0.8600000000000001 0 0.8600000000000001 0.5110000000000001 3024.dat
1 71 0 -408.6790000000001 -70.423 1 0 0 0 0.5110000000000001 -0.8600000000000001 0 0.8600000000000001 0.5110000000000001 3024.dat
1 71 0 -412.76700000000005 -77.303 1 0 0 0 0.5110000000000001 -0.8600000000000001 0 0.8600000000000001 0.5110000000000001 3070b.dat
1 71 -20 -395.9910000000001 -68.65300000000002 0 0 1 0.8600000000000001 0.5110000000000001 0 -0.5110000000000001 0.8600000000000001 0 85984.dat
1 71 20 -395.9910000000001 -68.65300000000002 0 0 -1 -0.8600000000000001 0.5110000000000001 0 0.5110000000000001 0.8600000000000001 0 85984.dat
1 71 0 -410.0130000000001 -39.376000000000005 0 0 -1 0.5110000000000001 0.8600000000000001 0 0.8600000000000001 -0.5110000000000001 0 2723.dat
1 71 0 -384.144 -29.157000000000004 1 0 0 0 0.5110000000000001 -0.8600000000000001 0 0.8600000000000001 0.5110000000000001 3623.dat
1 1 0 -264.785 144.19 -1 0 0 0 0.8600000000000001 -0.5110000000000001 0 -0.5110000000000001 -0.8600000000000001 3021.dat
1 71 0 -281.88500000000005 131.078 0 0 -1 0.5110000000000001 0.8600000000000001 0 0.8600000000000001 -0.5110000000000001 0 3710.dat
1 0 30 -275.00500000000005 126.99 0 0 -1 0.5110000000000001 0.8600000000000001 0 0.8600000000000001 -0.5110000000000001 0 88930.dat
1 0 -30 -275.00500000000005 126.99 0 0 1 -0.5110000000000001 0.8600000000000001 0 -0.8600000000000001 -0.5110000000000001 0 88930.dat
1 0 0 -288.7650000000001 135.166 0 0 1 -0.5110000000000001 0.8600000000000001 0 -0.8600000000000001 -0.5110000000000001 0 2431.dat
1 0 0 -295.44500000000005 92.59 1 0 0 0 0.8600000000000001 0.5110000000000001 0 -0.5110000000000001 0.8600000000000001 3021.dat
1 0 -40 -280.115 118.39 0 0 -1 0.5110000000000001 0.8600000000000001 0 0.8600000000000001 -0.5110000000000001 0 3623.dat
1 0 40 -280.115 118.39 0 0 -1 0.5110000000000001 0.8600000000000001 0 0.8600000000000001 -0.5110000000000001 0 3623.dat
1 0 -30 -273.235 114.30199999999999 0 0 -1 0.5110000000000001 0.8600000000000001 0 0.8600000000000001 -0.5110000000000001 0 3021.dat
1 0 30 -273.235 114.30199999999999 0 0 -1 0.5110000000000001 0.8600000000000001 0 0.8600000000000001 -0.5110000000000001 0 3021.dat
1 379 40 -254.56500000000005 161.39 0 0 -1 0.5110000000000001 0.8600000000000001 0 0.8600000000000001 -0.5110000000000001 0 99206.dat
1 379 -40 -254.56500000000005 161.39 0 0 1 -0.5110000000000001 0.8600000000000001 0 -0.8600000000000001 -0.5110000000000001 0 99206.dat
1 19 20 -239.23500000000004 187.19 0 0 1 -0.5110000000000001 0.8600000000000001 0 -0.8600000000000001 -0.5110000000000001 0 3623.dat
1 19 -20 -239.23500000000004 187.19 0 0 1 -0.5110000000000001 0.8600000000000001 0 -0.8600000000000001 -0.5110000000000001 0 3623.dat
1 379 40 -234.12500000000006 195.79000000000002 0 0 -1 0.5110000000000001 0.8600000000000001 0 0.8600000000000001 -0.5110000000000001 0 99206.dat
1 379 -40 -234.12500000000006 195.79000000000002 0 0 1 -0.5110000000000001 0.8600000000000001 0 -0.8600000000000001 -0.5110000000000001 0 99206.dat
1 19 -20 -246.11500000000004 191.27800000000002 0 0 1 -0.5110000000000001 0.8600000000000001 0 -0.8600000000000001 -0.5110000000000001 0 3623.dat
1 19 20 -246.11500000000004 191.27800000000002 0 0 1 -0.5110000000000001 0.8600000000000001 0 -0.8600000000000001 -0.5110000000000001 0 3623.dat
1 0 40 -270.295 228.91800000000003 0 0 1 -0.5110000000000001 0.8600000000000001 0 -0.8600000000000001 -0.5110000000000001 0 18653.dat
1 0 20 -277.175 233.00600000000003 0 0 1 -0.5110000000000001 0.8600000000000001 0 -0.8600000000000001 -0.5110000000000001 0 18653.dat
1 0 -20 -277.175 233.00600000000003 0 0 1 -0.5110000000000001 0.8600000000000001 0 -0.8600000000000001 -0.5110000000000001 0 18653.dat
1 0 -40 -270.295 228.91800000000003 0 0 1 -0.5110000000000001 0.8600000000000001 0 -0.8600000000000001 -0.5110000000000001 0 18653.dat
1 14 0 -298.785 71.302 0 0 1 -0.5110000000000001 0.8600000000000001 0 -0.8600000000000001 -0.5110000000000001 0 3023.dat
1 0 0 -310.77500000000003 66.78999999999999 0 0 1 -0.5110000000000001 0.8600000000000001 0 -0.8600000000000001 -0.5110000000000001 0 6141.dat
1 0 40 -277.175 233.00600000000003 0 0 1 -0.5110000000000001 0.8600000000000001 0 -0.8600000000000001 -0.5110000000000001 0 3024.dat
1 0 -40 -277.175 233.00600000000003 0 0 1 -0.5110000000000001 0.8600000000000001 0 -0.8600000000000001 -0.5110000000000001 0 3024.dat
1 0 30 -277.175 233.00600000000003 1 0 0 0 0.8600000000000001 0.5110000000000001 0 -0.5110000000000001 0.8600000000000001 85984.dat
1 0 -30 -277.175 233.00600000000003 1 0 0 0 0.8600000000000001 0.5110000000000001 0 -0.5110000000000001 0.8600000000000001 85984.dat
1 0 -58.00000000000001 -249.40500000000003 158.324 0 1 0 -0.5110000000000001 0 -0.8600000000000001 -0.8600000000000001 0 0.5110000000000001 6636.dat
1 0 58.00000000000001 -249.40500000000003 158.324 0 -1 0 -0.5110000000000001 0 0.8600000000000001 -0.8600000000000001 0 -0.5110000000000001 6636.dat
1 0 -40 -276.57500000000005 93.014 1 0 0 0 0.8600000000000001 0.5110000000000001 0 -0.5110000000000001 0.8600000000000001 24201.dat
1 0 40 -276.57500000000005 93.014 1 0 0 0 0.8600000000000001 0.5110000000000001 0 -0.5110000000000001 0.8600000000000001 24201.dat
1 0 -40 -266.355 110.214 1 0 0 0 0.8600000000000001 0.5110000000000001 0 -0.5110000000000001 0.8600000000000001 3024.dat
1 0 40 -266.355 110.214 1 0 0 0 0.8600000000000001 0.5110000000000001 0 -0.5110000000000001 0.8600000000000001 3024.dat
1 14 0 -343.211 27.944 0 0 1 -0.5110000000000001 0.8600000000000001 0 -0.8600000000000001 -0.5110000000000001 0 3010.dat
1 0 0 -350.091 32.032 -1 0 0 0 0.8600000000000001 -0.5110000000000001 0 -0.5110000000000001 -0.8600000000000001 3021.dat
1 0 0 -370.531 -2.3679999999999986 -1 0 0 0 0.8600000000000001 -0.5110000000000001 0 -0.5110000000000001 -0.8600000000000001 3021.dat
1 71 0 -368.761 -15.056000000000003 -1 0 0 0 0.8600000000000001 -0.5110000000000001 0 -0.5110000000000001 -0.8600000000000001 3005.dat
1 71 0 -336.5210000000001 70.50200000000001 -1 0 0 0 0.8600000000000001 -0.5110000000000001 0 -0.5110000000000001 -0.8600000000000001 61678.dat
1 71 0 -372.296 10.335 0 0 1 -0.5110000000000001 0.8600000000000001 0 -0.8600000000000001 -0.5110000000000001 0 63864.dat
1 71 -20 -336.5210000000001 70.50200000000001 -1 0 0 0 0.8600000000000001 -0.5110000000000001 0 -0.5110000000000001 -0.8600000000000001 61678.dat
1 71 -20 -372.296 10.335 0 0 1 -0.5110000000000001 0.8600000000000001 0 -0.8600000000000001 -0.5110000000000001 0 63864.dat
1 71 20 -336.5210000000001 70.50200000000001 -1 0 0 0 0.8600000000000001 -0.5110000000000001 0 -0.5110000000000001 -0.8600000000000001 61678.dat
1 71 20 -372.296 10.335 0 0 1 -0.5110000000000001 0.8600000000000001 0 -0.8600000000000001 -0.5110000000000001 0 63864.dat
1 0 30 -297.329 282.856 0 0 -1 0 1 0 1 0 0 3020.dat
1 0 40 -305.329 282.856 0 0 -1 0 1 0 1 0 0 3069b.dat
1 0 0 -305.329 282.856 1 0 0 0 1 0 0 0 1 26603.dat
1 1 0 -297.329 282.856 0 0 -1 0 1 0 1 0 0 3710.dat
1 0 -30 -297.329 282.856 0 0 -1 0 1 0 1 0 0 3020.dat
1 0 -40 -305.329 282.856 0 0 -1 0 1 0 1 0 0 3069b.dat
1 0 10 -289.32900000000006 242.85600000000002 1 0 0 0 1 0 0 0 1 15068.dat
1 0 -40 -289.32900000000006 242.85600000000002 1 0 0 0 1 0 0 0 1 29119.dat
1 0 40 -289.32900000000006 242.85600000000002 1 0 0 0 1 0 0 0 1 29120.dat
1 0 -20 -289.32900000000006 242.85600000000002 1 0 0 0 1 0 0 0 1 11477.dat
1 0 -10 -289.32900000000006 322.856 -1 0 0 0 1 0 0 0 -1 15068.dat
1 0 40 -289.32900000000006 322.856 -1 0 0 0 1 0 0 0 -1 29119.dat
1 0 -40 -289.32900000000006 322.856 -1 0 0 0 1 0 0 0 -1 29120.dat
1 0 20 -289.32900000000006 322.856 -1 0 0 0 1 0 0 0 -1 11477.dat
1 1 0 -289.32900000000006 282.856 -1 0 0 0 1 0 0 0 -1 3021.dat
1 0 -30 -289.32900000000006 322.856 -1 0 0 0 1 0 0 0 -1 26601.dat
1 0 30 -289.32900000000006 322.856 0 0 -1 0 1 0 1 0 0 26601.dat
1 0 0 -289.32900000000006 322.856 0 0 -1 0 1 0 1 0 0 3023.dat
1 19 -46.00000000000001 -316.101 -12.866999999999997 0 1 0 -0.284 0 -0.959 -0.959 0 0.284 3020.dat
1 19 -54 -310.421 6.313000000000003 0 1 0 -0.284 0 -0.959 -0.959 0 0.284 3020.dat
1 320 -46.00000000000001 -277.041 48.583000000000006 0 1 0 0.959 0 -0.284 -0.284 0 -0.959 43723.dat
1 320 -46.00000000000001 -315.401 59.94299999999999 0 1 0 0.959 0 -0.284 -0.284 0 -0.959 43722.dat
1 320 -54 -293.38100000000003 63.85300000000001 0 1 0 0.959 0 -0.284 -0.284 0 -0.959 90194.dat
1 320 -38 -293.38100000000003 63.85300000000001 0 1 0 0.959 0 -0.284 -0.284 0 -0.959 90194.dat
1 320 -38 -316.101 -12.866999999999997 0 1 0 0.959 0 -0.284 -0.284 0 -0.959 3022.dat
1 14 -62 -301.901 35.083000000000006 0 1 0 0.959 0 -0.284 -0.284 0 -0.959 3023.dat
1 320 -78 -296.221 54.263000000000005 0 1 0 0.959 0 -0.284 -0.284 0 -0.959 64225.dat
1 320 -78 -284.491 -11.797000000000004 0 1 0 0.959 0 -0.284 -0.284 0 -0.959 42862.dat
1 320 -54 -274.901 -14.637000000000002 0 1 0 0.959 0 -0.284 -0.284 0 -0.959 6565.dat
1 320 -78 -342.031 5.243000000000002 0 1 0 0.959 0 -0.284 -0.284 0 -0.959 48165.dat
1 320 -54 -351.62100000000004 8.082999999999998 0 1 0 0.959 0 -0.284 -0.284 0 -0.959 6564.dat
1 320 -54 -324.6210000000001 -41.637 0 1 0 0.959 0 -0.284 -0.284 0 -0.959 3666.dat
1 320 -78 -295.851 -50.157 0 1 0 -0.284 0 -0.959 -0.959 0 0.284 3040b.dat
1 320 -78 -353.391 -33.117000000000004 0 1 0 0.284 0 0.959 0.959 0 -0.284 3040b.dat
1 71 -78 -324.6210000000001 -41.637 0 1 0 0.959 0 -0.284 -0.284 0 -0.959 3004.dat
1 0 -46.00000000000001 -372.571 -27.437 0 1 0 0.284 0 0.959 0.959 0 -0.284 36840.dat
1 71 -48.00000000000001 -393.669 -21.189 0 0 -1 0.284 0.959 0 0.959 -0.284 0 98138.dat
1 320 -46.00000000000001 -286.261 -52.99700000000001 0 1 0 0.959 0 -0.284 -0.284 0 -0.959 3023.dat
1 0 -46.00000000000001 -353.391 -33.117000000000004 0 1 0 0.959 0 -0.284 -0.284 0 -0.959 6141.dat
1 320 -38 -289.101 -62.587 0 1 0 0.959 0 -0.284 -0.284 0 -0.959 3022.dat
1 320 -38 -365.821 -39.867 0 1 0 0.959 0 -0.284 -0.284 0 -0.959 3022.dat
1 320 -86 -339.891 -57.977 0 1 0 -0.959 0 0.284 0.284 0 0.959 88293.dat
1 320 -86 -320.711 -63.657000000000004 0 1 0 -0.284 0 -0.959 -0.959 0 0.284 88293.dat
1 0 -38 -338.821 -89.58699999999999 0 1 0 -0.959 0 0.284 0.284 0 0.959 18980.dat
1 320 -86 -316.101 -12.866999999999997 0 1 0 -0.284 0 -0.959 -0.959 0 0.284 87079.dat
1 72 -38 -304.741 25.493000000000006 0 1 0 -0.959 0 0.284 0.284 0 0.959 15092.dat
1 28 -38 -327.46100000000007 -51.227000000000004 0 1 0 -0.284 0 -0.959 -0.959 0 0.284 2476a.dat
1 15 -20 -314.331 28.33300000000001 0 1 0 -0.959 0 0.284 0.284 0 0.959 18654.dat
1 71 -90 -90 -60 -1 0 0 0 1 0 0 0 -1 32015.dat
1 0 -90 -154.672 -86.78800000000001 0 1 0 0.9240000000000002 0 0.383 0.383 0 -0.9240000000000002 3706.dat
1 71 -90 -136.19400000000002 -79.13399999999999 0 -1 0 0.9240000000000002 0 -0.383 0.383 0 0.9240000000000002 62462.dat
1 71 -90 -173.149 -94.44200000000001 0 -1 0 0.9240000000000002 0 -0.383 0.383 0 0.9240000000000002 62462.dat
1 71 -90 -219.34300000000002 -113.576 -1 0 0 0 -0.383 0.9240000000000002 0 0.9240000000000002 0.383 25214.dat
1 1 -60 -219.34300000000002 -113.576 -1 0 0 0 -0.383 0.9240000000000002 0 0.9240000000000002 0.383 43093.dat
1 71 -50 -219.34300000000002 -113.576 0 1 0 0 0 1 1 0 0 18654.dat
1 0 -90 -90 50 0 0 -1 0 1 0 1 0 0 3737.dat
1 71 -90 -90 -25 1 0 0 0 1 0 0 0 1 32123b.dat
1 71 -90 -90 -10 1 0 0 0 0 -1 0 1 0 18654.dat
1 71 -90 -90 20 0 -1 0 0 0 -1 1 0 0 62462.dat
1 71 -90 -90 60 0 -1 0 0 0 -1 1 0 0 62462.dat
1 71 -90 -90 120 0 -1 0 -1 0 0 0 0 -1 4868b.dat
1 15 -90 -90 150 0 -1 0 -1 0 0 0 0 -1 59443.dat
1 71 -90 -90 220 0 0 -1 0 1 0 1 0 0 44294.dat
1 71 -90 -90 204.00000000000003 0 0 1 -1 0 0 0 -1 0 3941.dat
1 71 -90 -90 228 0 0 1 -1 0 0 0 -1 0 3941.dat
1 71 -90 -90 252.00000000000003 0 0 1 -1 0 0 0 -1 0 3941.dat
1 71 -90 -90 276 0 0 1 -1 0 0 0 -1 0 3941.dat
1 71 -90 -90 316 0 0 1 -1 0 0 0 -1 0 2489.dat
1 0 -110 -141.48399999999998 -119.16600000000001 -1 0 0 0 -0.9660000000000001 -0.259 0 -0.259 0.9660000000000001 3623.dat
1 0 -110 -133.756 -117.09400000000001 1 0 0 0 -0.9660000000000001 0.259 0 -0.259 -0.9660000000000001 44300.dat
1 71 -90 -118.3 -112.95000000000002 0 1 0 -0.259 0 0.9660000000000001 0.9660000000000001 0 0.259 30553.dat
1 4 -90 -98.98000000000002 -107.77000000000001 0 0 -1 -0.9660000000000001 -0.259 0 -0.259 0.9660000000000001 0 32062.dat
1 71 -90 -70 -100 -1 0 0 0 -0.259 0.9660000000000001 0 0.9660000000000001 0.259 32013.dat
1 71 90 -70 -100 0 1 0 -1 0 0 0 0 1 18654.dat
1 19 46.00000000000001 -316.101 -12.866999999999997 0 -1 0 0.284 0 -0.959 0.959 0 0.284 3020.dat
1 19 54 -310.421 6.313000000000003 0 -1 0 0.284 0 -0.959 0.959 0 0.284 3020.dat
1 320 46.00000000000001 -277.041 48.583000000000006 0 -1 0 -0.959 0 -0.284 0.284 0 -0.959 43722.dat
1 320 46.00000000000001 -315.401 59.94299999999999 0 -1 0 -0.959 0 -0.284 0.284 0 -0.959 43723.dat
1 320 54 -293.38100000000003 63.85300000000001 0 -1 0 -0.959 0 -0.284 0.284 0 -0.959 90194.dat
1 320 38 -293.38100000000003 63.85300000000001 0 -1 0 -0.959 0 -0.284 0.284 0 -0.959 90194.dat
1 320 38 -316.101 -12.866999999999997 0 -1 0 -0.959 0 -0.284 0.284 0 -0.959 3022.dat
1 14 62 -301.901 35.083000000000006 0 -1 0 -0.959 0 -0.284 0.284 0 -0.959 3023.dat
1 320 78 -296.221 54.263000000000005 0 -1 0 -0.959 0 -0.284 0.284 0 -0.959 64225.dat
1 320 78 -284.491 -11.797000000000004 0 -1 0 -0.959 0 -0.284 0.284 0 -0.959 48165.dat
1 320 54 -274.901 -14.637000000000002 0 -1 0 -0.959 0 -0.284 0.284 0 -0.959 6564.dat
1 320 78 -342.031 5.243000000000002 0 -1 0 -0.959 0 -0.284 0.284 0 -0.959 42862.dat
1 320 54 -351.62100000000004 8.082999999999998 0 -1 0 -0.959 0 -0.284 0.284 0 -0.959 6565.dat
1 320 54 -324.6210000000001 -41.637 0 -1 0 -0.959 0 -0.284 0.284 0 -0.959 3666.dat
1 320 78 -295.851 -50.157 0 -1 0 0.284 0 -0.959 0.959 0 0.284 3040b.dat
1 320 78 -353.391 -33.117000000000004 0 -1 0 -0.284 0 0.959 -0.959 0 -0.284 3040b.dat
1 71 78 -324.6210000000001 -41.637 0 -1 0 -0.959 0 -0.284 0.284 0 -0.959 3004.dat
1 0 46.00000000000001 -372.571 -27.437 0 -1 0 -0.284 0 0.959 -0.959 0 -0.284 36840.dat
1 71 48.00000000000001 -393.669 -21.189 0 0 1 -0.284 0.959 0 -0.959 -0.284 0 98138.dat
1 320 46.00000000000001 -286.261 -52.99700000000001 0 -1 0 -0.959 0 -0.284 0.284 0 -0.959 3023.dat
1 0 46.00000000000001 -353.391 -33.117000000000004 0 -1 0 -0.959 0 -0.284 0.284 0 -0.959 6141.dat
1 320 38 -289.101 -62.587 0 -1 0 -0.959 0 -0.284 0.284 0 -0.959 3022.dat
1 320 38 -365.821 -39.867 0 -1 0 -0.959 0 -0.284 0.284 0 -0.959 3022.dat
1 320 86 -339.891 -57.977 0 -1 0 -0.284 0 0.959 -0.959 0 -0.284 88293.dat
1 320 86 -320.711 -63.657000000000004 0 -1 0 0.959 0 0.284 -0.284 0 0.959 88293.dat
1 0 38 -338.821 -89.58699999999999 0 -1 0 0.959 0 0.284 -0.284 0 0.959 18980.dat
1 320 86 -316.101 -12.866999999999997 0 -1 0 0.284 0 -0.959 0.959 0 0.284 87079.dat
1 72 38 -304.741 25.493000000000006 0 -1 0 0.959 0 0.284 -0.284 0 0.959 15092.dat
1 28 38 -327.46100000000007 -51.227000000000004 0 -1 0 0.284 0 -0.959 0.959 0 0.284 2476a.dat
1 15 20 -314.331 28.33300000000001 0 -1 0 0.959 0 0.284 -0.284 0 0.959 18654.dat
1 71 80 -88 -20 0 0 -1 0 1 0 1 0 0 3020.dat
1 71 70 -96.00000000000001 -20 0 0 -1 0 1 0 1 0 0 3710.dat
1 71 90 -96.00000000000001 -40 0 0 1 0 1 0 -1 0 0 44301.dat
1 71 90 -96.00000000000001 20 0 0 -1 0 1 0 1 0 0 3710.dat
1 71 90 -88 80 0 0 -1 0 1 0 1 0 0 3666.dat
1 71 90 -96.00000000000001 100 0 0 -1 0 1 0 1 0 0 3710.dat
1 71 80 -120 -50 1 0 0 0 1 0 0 0 1 3004.dat
1 0 70 -120 0 0 0 1 0 1 0 -1 0 0 3701.dat
1 71 90 -120 -20 0 0 1 0 1 0 -1 0 0 3700.dat
1 71 90 -120 40 0 0 -1 0 1 0 1 0 0 30414.dat
1 4 90 -120 100 0 0 -1 0 1 0 1 0 0 3700.dat
1 71 90 -120 130 0 0 -1 0 1 0 1 0 0 3005.dat
1 71 80 -128 50 -1 0 0 0 1 0 0 0 -1 60478.dat
1 19 70 -128 10 0 0 1 0 1 0 -1 0 0 3623.dat
1 71 90 -128 10 0 0 1 0 1 0 -1 0 0 3623.dat
1 71 80 -144 -30 1 0 0 0 1 0 0 0 1 3039.dat
1 71 80 -136 20 0 0 1 0 1 0 -1 0 0 3020.dat
1 71 80 -144 0 0 0 1 0 1 0 -1 0 0 3068b.dat
1 71 100 -130 70 0 -1 0 0 0 1 -1 0 0 4070.dat
1 71 100 -130 90 0 -1 0 0 0 1 -1 0 0 4070.dat
1 71 100 -130 110 0 -1 0 0 0 1 -1 0 0 4070.dat
1 71 100 -130 130 0 -1 0 0 0 1 -1 0 0 4070.dat
1 71 90 -144 120 -1 0 0 0 1 0 0 0 -1 15672.dat
1 71 90 -144 80 0 0 -1 0 1 0 1 0 0 3023.dat
1 71 90 -152 100 0 0 -1 0 1 0 1 0 0 3023.dat
1 71 90 -160 110 0 0 -1 0 1 0 1 0 0 3070b.dat
1 71 80 -160 60 1 0 0 0 1 0 0 0 1 93606.dat
1 71 108 -120 100 0 -1 0 1 0 0 0 0 1 60474.dat
1 71 116.00000000000001 -120 100 0 -1 0 1 0 0 0 0 1 14769.dat
1 71 116.00000000000001 -110 90 0 -1 0 1 0 0 0 0 1 27925.dat
1 71 116.00000000000001 -130 90 0 -1 0 0 0 1 -1 0 0 27925.dat
1 71 116.00000000000001 -130 110 0 -1 0 -1 0 0 0 0 -1 27925.dat
1 71 116.00000000000001 -110 110 0 -1 0 0 0 -1 1 0 0 27925.dat
1 71 108 -110 30 0 -1 0 0 0 -1 1 0 0 63864.dat
1 71 100 -110 -20 0 1 0 0 0 1 1 0 0 18674.dat
1 71 108 -110 -20 0 1 0 0 0 1 1 0 0 2654a.dat
1 71 90 -101.07100000000001 -77.071 -1 0 0 0 0.707 -0.707 0 -0.707 -0.707 30553.dat
1 4 90 -115.213 -91.213 0 0 -1 0.707 0.707 0 0.707 -0.707 0 32062.dat
1 71 90 -136.426 -112.42600000000002 -1 0 0 0 0.707 -0.707 0 -0.707 -0.707 32013.dat
1 1 100 -136.426 -112.42600000000002 1 0 0 0 0.707 0.707 0 -0.707 0.707 43093.dat
1 0 120 -136.426 -112.42600000000002 0 0 -1 0.707 0.707 0 0.707 -0.707 0 59443.dat
1 71 120 -79.40200000000002 -66.31 0 0 -1 0.265 0.964 0 0.964 -0.265 0 18980.dat
1 72 110 -87.114 -64.19 0 0 -1 0.265 0.964 0 0.964 -0.265 0 2412b.dat
1 72 130 -87.114 -64.19 0 0 -1 0.265 0.964 0 0.964 -0.265 0 2412b.dat
1 72 110 -79.164 -35.27000000000001 0 0 -1 0.265 0.964 0 0.964 -0.265 0 25269.dat
1 72 110 -95.064 -93.11 1 0 0 0 0.964 0.265 0 -0.265 0.964 25269.dat
1 72 110 -95.064 -93.11 1 0 0 0 0.964 0.265 0 -0.265 0.964 27925.dat
1 72 110 -79.164 -35.27000000000001 0 0 -1 0.265 0.964 0 0.964 -0.265 0 27925.dat
1 0 110 -66.39 -49.150000000000006 0 0 -1 0.265 0.964 0 0.964 -0.265 0 18677.dat
1 0 110 -76.99 -87.71 0 0 1 -0.265 0.964 0 -0.964 -0.265 0 18677.dat
1 0 130 -71.69 -68.43 0 0 -1 0.265 0.964 0 0.964 -0.265 0 32803.dat
1 71 -120 -79.41499999999999 -66.289 0 0 1 -0.265 0.964 0 -0.964 -0.265 0 18980.dat
1 72 -110 -87.12700000000001 -64.169 0 0 1 -0.265 0.964 0 -0.964 -0.265 0 2412b.dat
1 72 -130 -87.12700000000001 -64.169 0 0 1 -0.265 0.964 0 -0.964 -0.265 0 2412b.dat
1 72 -110 -95.077 -93.089 0 0 1 -0.265 0.964 0 -0.964 -0.265 0 25269.dat
1 72 -110 -79.17699999999999 -35.24900000000001 -1 0 0 0 0.964 -0.265 0 -0.265 -0.964 25269.dat
1 72 -110 -79.17699999999999 -35.24900000000001 -1 0 0 0 0.964 -0.265 0 -0.265 -0.964 27925.dat
1 72 -110 -95.077 -93.089 0 0 1 -0.265 0.964 0 -0.964 -0.265 0 27925.dat
1 0 -110 -77.003 -87.68900000000001 0 0 1 -0.265 0.964 0 -0.964 -0.265 0 18677.dat
1 0 -110 -66.403 -49.129000000000005 0 0 -1 0.265 0.964 0 0.964 -0.265 0 18677.dat
1 0 -130 -71.703 -68.40899999999999 0 0 1 -0.265 0.964 0 -0.964 -0.265 0 32803.dat
1 71 90 -150.44 285.6 1 0 0 0 1 0 0 0 1 4274.dat
1 71 90 -160.66 268.4 1 0 0 0 1 0 0 0 1 4274.dat
1 0 98 -160.66 268.4 0 -1 0 0.5110000000000001 0 -0.8600000000000001 0.8600000000000001 0 0.5110000000000001 63864.dat
1 71 -70 -170.886 251.237 -1 0 0 0 1 0 0 0 -1 4274.dat
1 71 -70 -160.666 268.437 -1 0 0 0 1 0 0 0 -1 4274.dat
1 0 -78 -170.886 251.237 0 1 0 0.5110000000000001 0 0.8600000000000001 0.8600000000000001 0 -0.5110000000000001 63864.dat
1 70 0 -328.7130000000001 -166.841 0 -1 0 -0.8600000000000001 0 -0.5110000000000001 0.5110000000000001 0 -0.8600000000000001 15462.dat
1 71 -90 -130 70 -1 0 0 0 1 0 0 0 -1 32192.dat
1 4 -90 -151.213 48.78700000000001 0 0 -1 0.707 0.707 0 0.707 -0.707 0 32062.dat
1 71 -90 -172.426 27.574000000000012 0 1 0 -0.707 0 -0.707 -0.707 0 0.707 25214.dat
1 4 -90 -193.64000000000001 48.78700000000001 0 1 0 0.707 0 -0.707 -0.707 0 -0.707 32062.dat
1 71 -90 -214.853 70 0 0 1 -0.707 -0.707 0 0.707 -0.707 0 25214.dat
1 1 -60 -214.853 70 -1 0 0 0 0.707 0.707 0 0.707 -0.707 43093.dat
1 71 -50 -214.853 70 0 -1 0 -1 0 0 0 0 -1 18654.dat
1 14 -90 -130 130 0 0 -1 0 1 0 1 0 0 32073.dat
1 71 -90 -130 110 0 0 -1 -1 0 0 0 1 0 18654.dat
1 71 -90 -130 160 0 -1 0 -1 0 0 0 0 -1 4868b.dat
1 15 -90 -130 180 -1 0 0 0 1 0 0 0 -1 59443.dat
1 71 -90 -130 250 0 0 -1 0 1 0 1 0 0 44294.dat
1 71 -90 -130 244.00000000000003 0 0 -1 1 0 0 0 -1 0 3941.dat
1 71 -90 -130 268 0 0 -1 1 0 0 0 -1 0 3941.dat
1 71 -90 -130 292 0 0 -1 1 0 0 0 -1 0 3941.dat
1 71 -90 -130 316 0 0 -1 1 0 0 0 -1 0 3941.dat
1 71 -90 -130 356 0 0 -1 1 0 0 0 -1 0 2489.dat
1 0 50 -308.351 -195.231 0 0 1 -0.8600000000000001 -0.5110000000000001 0 0.5110000000000001 -0.8600000000000001 0 3666.dat
1 71 60 -253.08700000000005 -200.14100000000002 -1 0 0 0 -0.5110000000000001 -0.8600000000000001 0 -0.8600000000000001 0.5110000000000001 32064a.dat
1 71 60 -270.28700000000003 -189.921 -1 0 0 0 -0.5110000000000001 -0.8600000000000001 0 -0.8600000000000001 0.5110000000000001 32064a.dat
1 71 0 -287.487 -179.70100000000002 -1 0 0 0 -0.5110000000000001 -0.8600000000000001 0 -0.8600000000000001 0.5110000000000001 3702.dat
1 0 -50 -308.351 -195.231 0 0 -1 0.8600000000000001 -0.5110000000000001 0 -0.5110000000000001 -0.8600000000000001 0 3666.dat
1 71 -60 -270.28700000000003 -189.921 -1 0 0 0 -0.5110000000000001 -0.8600000000000001 0 -0.8600000000000001 0.5110000000000001 32064a.dat
1 71 -60 -253.08700000000005 -200.14100000000002 -1 0 0 0 -0.5110000000000001 -0.8600000000000001 0 -0.8600000000000001 0.5110000000000001 32064a.dat
1 71 60 -304.687 -169.481 -1 0 0 0 -0.5110000000000001 -0.8600000000000001 0 -0.8600000000000001 0.5110000000000001 32064a.dat
1 71 60 -321.88700000000006 -159.261 -1 0 0 0 -0.5110000000000001 -0.8600000000000001 0 -0.8600000000000001 0.5110000000000001 32064a.dat
1 71 -60 -304.687 -169.481 -1 0 0 0 -0.5110000000000001 -0.8600000000000001 0 -0.8600000000000001 0.5110000000000001 32064a.dat
1 71 -60 -321.88700000000006 -159.261 -1 0 0 0 -0.5110000000000001 -0.8600000000000001 0 -0.8600000000000001 0.5110000000000001 32064a.dat
1 71 0 -339.08700000000005 -149.041 -1 0 0 0 -0.5110000000000001 -0.8600000000000001 0 -0.8600000000000001 0.5110000000000001 3702.dat
1 0 50 -291.999 -167.711 0 0 1 -0.8600000000000001 -0.5110000000000001 0 0.5110000000000001 -0.8600000000000001 0 3666.dat
1 0 -50 -291.999 -167.711 0 0 -1 0.8600000000000001 -0.5110000000000001 0 -0.5110000000000001 -0.8600000000000001 0 3666.dat
1 71 -60 -253.08700000000005 -200.14100000000002 0 0 1 -0.8600000000000001 -0.5110000000000001 0 0.5110000000000001 -0.8600000000000001 0 11477.dat
1 71 60 -253.08700000000005 -200.14100000000002 0 0 -1 0.8600000000000001 -0.5110000000000001 0 -0.5110000000000001 -0.8600000000000001 0 11477.dat
1 71 60 -278.88700000000006 -184.811 0 0 -1 0.8600000000000001 -0.5110000000000001 0 -0.5110000000000001 -0.8600000000000001 0 15068.dat
1 71 60 -313.28700000000003 -164.371 0 0 -1 0.8600000000000001 -0.5110000000000001 0 -0.5110000000000001 -0.8600000000000001 0 15068.dat
1 71 60 -347.687 -143.931 0 0 -1 0.8600000000000001 -0.5110000000000001 0 -0.5110000000000001 -0.8600000000000001 0 15068.dat
1 71 -60 -278.88700000000006 -184.811 0 0 1 -0.8600000000000001 -0.5110000000000001 0 0.5110000000000001 -0.8600000000000001 0 15068.dat
1 71 -60 -313.28700000000003 -164.371 0 0 1 -0.8600000000000001 -0.5110000000000001 0 0.5110000000000001 -0.8600000000000001 0 15068.dat
1 71 -60 -347.687 -143.931 0 0 1 -0.8600000000000001 -0.5110000000000001 0 0.5110000000000001 -0.8600000000000001 0 15068.dat
1 71 50 -352.199 -131.941 0 0 1 -0.8600000000000001 -0.5110000000000001 0 0.5110000000000001 -0.8600000000000001 0 36841.dat
1 71 -50 -352.199 -131.941 0 0 -1 0.8600000000000001 -0.5110000000000001 0 -0.5110000000000001 -0.8600000000000001 0 36841.dat
1 71 -60 -356.28700000000003 -138.82100000000003 -1 0 0 0 -0.5110000000000001 -0.8600000000000001 0 -0.8600000000000001 0.5110000000000001 32064a.dat
1 71 60 -356.28700000000003 -138.82100000000003 -1 0 0 0 -0.5110000000000001 -0.8600000000000001 0 -0.8600000000000001 0.5110000000000001 32064a.dat
1 0 -50 -368.55100000000004 -159.461 0 0 -1 0.8600000000000001 -0.5110000000000001 0 -0.5110000000000001 -0.8600000000000001 0 36840.dat
1 0 50 -368.55100000000004 -159.461 0 0 1 -0.8600000000000001 -0.5110000000000001 0 0.5110000000000001 -0.8600000000000001 0 36840.dat
1 71 70 -265.351 -220.78100000000003 0 0 -1 0.8600000000000001 -0.5110000000000001 0 -0.5110000000000001 -0.8600000000000001 0 24201.dat
1 71 -70 -265.351 -220.78100000000003 0 0 1 -0.8600000000000001 -0.5110000000000001 0 0.5110000000000001 -0.8600000000000001 0 24201.dat
1 71 -70 -291.151 -205.45100000000005 0 0 1 -0.8600000000000001 -0.5110000000000001 0 0.5110000000000001 -0.8600000000000001 0 32803.dat
1 71 -70 -325.55100000000004 -185.01100000000005 0 0 1 -0.8600000000000001 -0.5110000000000001 0 0.5110000000000001 -0.8600000000000001 0 32803.dat
1 71 -70 -359.951 -164.571 0 0 1 -0.8600000000000001 -0.5110000000000001 0 0.5110000000000001 -0.8600000000000001 0 32803.dat
1 71 70 -291.151 -205.45100000000005 0 0 -1 0.8600000000000001 -0.5110000000000001 0 -0.5110000000000001 -0.8600000000000001 0 32803.dat
1 71 70 -325.55100000000004 -185.01100000000005 0 0 -1 0.8600000000000001 -0.5110000000000001 0 -0.5110000000000001 -0.8600000000000001 0 32803.dat
1 71 70 -359.951 -164.571 0 0 -1 0.8600000000000001 -0.5110000000000001 0 -0.5110000000000001 -0.8600000000000001 0 32803.dat
1 0 -28.000000000000004 -362.4190000000001 -149.14100000000002 0 -1 0 -0.5110000000000001 0 0.8600000000000001 -0.8600000000000001 0 -0.5110000000000001 60470b.dat
1 0 -20 -362.4190000000001 -149.14100000000002 0 -1 0 -0.5110000000000001 0 0.8600000000000001 -0.8600000000000001 0 -0.5110000000000001 3069b.dat
1 0 20 -362.4190000000001 -149.14100000000002 0 1 0 0.5110000000000001 0 0.8600000000000001 0.8600000000000001 0 -0.5110000000000001 3069b.dat
1 0 28.000000000000004 -362.4190000000001 -149.14100000000002 0 1 0 0.5110000000000001 0 0.8600000000000001 0.8600000000000001 0 -0.5110000000000001 60470b.dat
1 71 -60 -352.797 -152.531 0 1 0 -0.8600000000000001 0 0.5110000000000001 0.5110000000000001 0 0.8600000000000001 4519.dat
1 71 -60 -374.297 -139.756 0 1 0 0.5110000000000001 0 0.8600000000000001 0.8600000000000001 0 -0.5110000000000001 32123b.dat
1 71 60 -374.297 -139.756 0 1 0 0.5110000000000001 0 0.8600000000000001 0.8600000000000001 0 -0.5110000000000001 32123b.dat
1 71 60 -352.797 -152.531 0 1 0 -0.8600000000000001 0 0.5110000000000001 0.5110000000000001 0 0.8600000000000001 4519.dat
1 320 -20 -252.82174000000003 -258.829156 0 0 -1 0.012526000000000039 1.00026 0 1.00026 -0.012526000000000039 0 10269 - 92582.dat
1 320 0 -260.94908000000004 -268.73154800000003 1 0 0 0 1.00026 0.012526000000000039 0 -0.012526000000000039 1.00026 3710.dat
1 320 20 -252.82174000000003 -258.829156 0 0 -1 0.012526000000000039 1.00026 0 1.00026 -0.012526000000000039 0 10269 - 92582.dat
1 320 0 -269.32694000000004 -298.63914 1 0 0 0 1.00026 0.012526000000000039 0 -0.012526000000000039 1.00026 93606.dat
1 320 0 -253.19752000000005 -288.836956 1 0 0 0 1.00026 0.012526000000000039 0 -0.012526000000000039 1.00026 11291.dat
1 320 40 -231.06654000000006 -279.109928 0 -1 0 -0.012526000000000039 0 1.00026 -1.00026 0 -0.012526000000000039 93274.dat
1 320 32 -231.31706000000005 -299.115128 0 -1 0 1.00026 0 0.012526000000000039 -0.012526000000000039 0 1.00026 29120.dat
1 320 32 -230.81602000000004 -259.104728 0 -1 0 -1.00026 0 -0.012526000000000039 0.012526000000000039 0 -1.00026 29119.dat
1 320 -40 -231.06654000000006 -279.109928 0 1 0 0.012526000000000039 0 1.00026 1.00026 0 -0.012526000000000039 93274.dat
1 320 -32 -231.31706000000005 -299.115128 0 1 0 -1.00026 0 0.012526000000000039 0.012526000000000039 0 1.00026 29119.dat
1 320 -32 -230.81602000000004 -259.104728 0 1 0 1.00026 0 -0.012526000000000039 -0.012526000000000039 0 -1.00026 29120.dat
1 0 -20 -258.57278 -238.74880000000005 -1 0 0 0 -1.00026 0.012526000000000039 0 0.012526000000000039 1.00026 30553.dat
1 0 20 -258.57278 -238.74880000000005 -1 0 0 0 -1.00026 0.012526000000000039 0 0.012526000000000039 1.00026 30553.dat
1 0 -20 -292.59700000000004 -188.30100000000002 0 1 0 -0.8600000000000001 0 0.5110000000000001 0.5110000000000001 0 0.8600000000000001 32054.dat
1 0 20 -292.59700000000004 -188.30100000000002 0 1 0 -0.8600000000000001 0 0.5110000000000001 0.5110000000000001 0 0.8600000000000001 32054.dat
1 71 20 -258.19700000000006 -208.741 0 1 0 -0.5110000000000001 0 -0.8600000000000001 -0.8600000000000001 0 0.5110000000000001 57585.dat
1 71 -20 -258.19700000000006 -208.741 0 1 0 -0.5110000000000001 0 -0.8600000000000001 -0.8600000000000001 0 0.5110000000000001 57585.dat
1 320 20 -211.63514000000006 -189.51315600000004 0 0 1 -0.8725260000000001 0.48926 0 -0.48926 -0.8725260000000001 0 10269 - 92582.dat
1 320 -20 -211.63514000000006 -189.51315600000004 0 0 1 -0.8725260000000001 0.48926 0 -0.48926 -0.8725260000000001 0 10269 - 92582.dat
1 320 -40 -183.42090000000002 -198.92352800000003 0 1 0 0.8725260000000001 0 0.48926 0.48926 0 -0.8725260000000001 93274.dat
1 320 -32 -165.97038000000003 -189.13832800000006 0 1 0 0.48926 0 -0.8725260000000001 -0.8725260000000001 0 -0.48926 29120.dat
1 320 -32 -200.87142000000003 -208.70872800000004 0 1 0 -0.48926 0 0.8725260000000001 0.8725260000000001 0 0.48926 29119.dat
1 320 40 -183.42090000000002 -198.92352800000003 0 -1 0 -0.8725260000000001 0 0.48926 -0.48926 0 -0.8725260000000001 93274.dat
1 320 32 -165.97038000000003 -189.13832800000006 0 -1 0 -0.48926 0 -0.8725260000000001 0.8725260000000001 0 -0.48926 29119.dat
1 320 32 -200.87142000000003 -208.70872800000004 0 -1 0 0.48926 0 0.8725260000000001 -0.8725260000000001 0 0.48926 29120.dat
1 0 20 -232.02122000000003 -194.06320000000005 1 0 0 0 -0.48926 -0.8725260000000001 0 0.8725260000000001 -0.48926 30553.dat
1 0 -20 -232.02122000000003 -194.06320000000005 1 0 0 0 -0.48926 -0.8725260000000001 0 0.8725260000000001 -0.48926 30553.dat
1 320 0 -206.82396000000006 -177.64034800000002 -1 0 0 0 0.48926 -0.8725260000000001 0 -0.8725260000000001 -0.48926 2431.dat
1 320 0 -185.45936000000006 -174.83535600000005 -1 0 0 0 0.48926 -0.8725260000000001 0 -0.8725260000000001 -0.48926 3710.dat
1 320 20 -172.82002000000003 -176.92296400000004 -1 0 0 0 0.48926 -0.8725260000000001 0 -0.8725260000000001 -0.48926 15068.dat
1 320 -20 -172.82002000000003 -176.92296400000004 -1 0 0 0 0.48926 -0.8725260000000001 0 -0.8725260000000001 -0.48926 15068.dat
1 71 60 -110.27700000000003 -296.63300000000004 -1 0 0 0 0.5110000000000001 0.8600000000000001 0 0.8600000000000001 -0.5110000000000001 32013.dat
1 4 60 -222.07700000000003 -230.20300000000006 0 0 1 0.8600000000000001 0.5110000000000001 0 -0.5110000000000001 0.8600000000000001 0 3708.dat
1 71 60 -144.67700000000002 -276.19300000000004 1 0 0 0 0.5110000000000001 -0.8600000000000001 0 0.8600000000000001 0.5110000000000001 3713.dat
1 71 60 -125.75700000000003 -287.43500000000006 1 0 0 0 -0.8600000000000001 -0.5110000000000001 0 0.5110000000000001 -0.8600000000000001 2489.dat
1 71 60 -160.15700000000004 -266.99500000000006 1 0 0 0 -0.8600000000000001 -0.5110000000000001 0 0.5110000000000001 -0.8600000000000001 3941.dat
1 71 60 -180.79700000000003 -254.73100000000005 1 0 0 0 -0.8600000000000001 -0.5110000000000001 0 0.5110000000000001 -0.8600000000000001 3941.dat
1 71 60 -222.07700000000003 -230.20300000000006 1 0 0 0 -0.8600000000000001 -0.5110000000000001 0 0.5110000000000001 -0.8600000000000001 3941.dat
1 71 60 -201.437 -242.46700000000004 1 0 0 0 -0.8600000000000001 -0.5110000000000001 0 0.5110000000000001 -0.8600000000000001 3941.dat
1 71 60 -242.71700000000004 -217.93900000000005 1 0 0 0 -0.8600000000000001 -0.5110000000000001 0 0.5110000000000001 -0.8600000000000001 4032a.dat
1 0 0 -110.27700000000003 -296.63300000000004 -1 0 0 0 -0.5110000000000001 -0.8600000000000001 0 -0.8600000000000001 0.5110000000000001 3707.dat
1 71 75 -110.27700000000003 -296.63300000000004 0 0 -1 0.8600000000000001 -0.5110000000000001 0 -0.5110000000000001 -0.8600000000000001 0 32123b.dat
1 71 30 -110.27700000000003 -296.63300000000004 -1 0 0 0 -0.5110000000000001 -0.8600000000000001 0 -0.8600000000000001 0.5110000000000001 62462.dat
1 71 0 -110.27700000000003 -296.63300000000004 0 0 1 -0.8600000000000001 -0.5110000000000001 0 0.5110000000000001 -0.8600000000000001 0 10269 - 46334.dat
1 256 0 -110.27700000000003 -296.63300000000004 0 0 -1 0.8600000000000001 -0.5110000000000001 0 -0.5110000000000001 -0.8600000000000001 0 88516.dat
1 71 -10 -100.05700000000003 -279.4330000000001 -1 0 0 0 -0.5110000000000001 -0.8600000000000001 0 -0.8600000000000001 0.5110000000000001 4274.dat
1 71 -10 -120.49700000000001 -313.8330000000001 -1 0 0 0 -0.5110000000000001 -0.8600000000000001 0 -0.8600000000000001 0.5110000000000001 4274.dat
1 0 -18 -100.05700000000003 -279.4330000000001 0 1 0 -0.5110000000000001 0 -0.8600000000000001 -0.8600000000000001 0 0.5110000000000001 6141.dat
1 0 -18 -120.49700000000001 -313.8330000000001 0 1 0 -0.5110000000000001 0 -0.8600000000000001 -0.8600000000000001 0 0.5110000000000001 6141.dat
1 71 -26 -110.27700000000003 -296.63300000000004 0 1 0 -0.5110000000000001 0 -0.8600000000000001 -0.8600000000000001 0 0.5110000000000001 60474.dat
1 71 -34 -113.76700000000001 -282.92300000000006 0 1 0 0.5110000000000001 0 0.8600000000000001 0.8600000000000001 0 -0.5110000000000001 27925.dat
1 71 -34 -96.56700000000001 -293.14300000000003 0 1 0 0.8600000000000001 0 -0.5110000000000001 -0.5110000000000001 0 -0.8600000000000001 27925.dat
1 71 -34 -106.78700000000003 -310.343 0 1 0 -0.5110000000000001 0 -0.8600000000000001 -0.8600000000000001 0 0.5110000000000001 27925.dat
1 71 -34 -123.98700000000004 -300.12300000000005 0 1 0 -0.8600000000000001 0 0.5110000000000001 0.5110000000000001 0 0.8600000000000001 27925.dat
1 71 -40 -110.27700000000003 -296.63300000000004 0 1 0 -0.5110000000000001 0 -0.8600000000000001 -0.8600000000000001 0 0.5110000000000001 18654.dat
1 71 -60 -110.27700000000003 -296.63300000000004 -1 0 0 0 0.5110000000000001 0.8600000000000001 0 0.8600000000000001 -0.5110000000000001 32013.dat
1 4 -60 -222.07700000000003 -230.20300000000006 0 0 1 0.8600000000000001 0.5110000000000001 0 -0.5110000000000001 0.8600000000000001 0 3708.dat
1 71 -60 -144.67700000000002 -276.19300000000004 1 0 0 0 0.5110000000000001 -0.8600000000000001 0 0.8600000000000001 0.5110000000000001 3713.dat
1 71 -60 -125.75700000000003 -287.43500000000006 1 0 0 0 -0.8600000000000001 -0.5110000000000001 0 0.5110000000000001 -0.8600000000000001 2489.dat
1 71 -60 -160.15700000000004 -266.99500000000006 1 0 0 0 -0.8600000000000001 -0.5110000000000001 0 0.5110000000000001 -0.8600000000000001 3941.dat
1 71 -60 -180.79700000000003 -254.73100000000005 1 0 0 0 -0.8600000000000001 -0.5110000000000001 0 0.5110000000000001 -0.8600000000000001 3941.dat
1 71 -60 -222.07700000000003 -230.20300000000006 1 0 0 0 -0.8600000000000001 -0.5110000000000001 0 0.5110000000000001 -0.8600000000000001 3941.dat
1 71 -60 -201.437 -242.46700000000004 1 0 0 0 -0.8600000000000001 -0.5110000000000001 0 0.5110000000000001 -0.8600000000000001 3941.dat
1 71 -60 -242.71700000000004 -217.93900000000005 1 0 0 0 -0.8600000000000001 -0.5110000000000001 0 0.5110000000000001 -0.8600000000000001 4032a.dat
1 71 -75 -110.27700000000003 -296.63300000000004 0 0 -1 0.8600000000000001 -0.5110000000000001 0 -0.5110000000000001 -0.8600000000000001 0 32123b.dat
1 72 0 -325.5561650000001 -185.007037 0 0 1 -0.8590940000000001 -0.511024 0 0.511024 -0.8590940000000001 0 3020.dat
1 72 0 -355.421752 -176.561232 1 0 0 0 -0.511024 0.8590940000000001 0 -0.8590940000000001 -0.511024 2540.dat
1 14 0 -338.23512200000005 -186.774544 1 0 0 0 -0.511024 0.8590940000000001 0 -0.8590940000000001 -0.511024 3023.dat
1 71 -10 -312.455659 -202.09502900000004 0 0 -1 0.8590940000000001 -0.511024 0 -0.511024 -0.8590940000000001 0 18677.dat
1 71 10 -312.455659 -202.09502900000004 0 0 -1 0.8590940000000001 -0.511024 0 -0.511024 -0.8590940000000001 0 18677.dat
1 0 20 -308.96900000000005 -215.79500000000002 -1 0 0 0 -0.511024 -0.8590940000000001 0 -0.8590940000000001 0.511024 2780.dat
1 0 -20 -308.96900000000005 -215.79500000000002 -1 0 0 0 -0.511024 -0.8590940000000001 0 -0.8590940000000001 0.511024 2780.dat
1 1 0 -342.32024700000005 -193.64918900000004 0 0 1 -0.8590940000000001 -0.511024 0 0.511024 -0.8590940000000001 0 3021.dat
1 71 30 -319.309 -206.155 0 0 1 0.035 0.999 0 -0.999 0.035 0 18677.dat
1 71 -30 -319.309 -206.155 0 0 1 0.035 0.999 0 -0.999 0.035 0 18677.dat
1 71 -30 -359.269 -207.555 0 0 1 0.035 0.999 0 -0.999 0.035 0 3023.dat
1 71 30 -359.269 -207.555 0 0 1 0.035 0.999 0 -0.999 0.035 0 3023.dat
1 71 0 -382.89500000000004 -218.385 -1 0 0 0 0.999 0.035 0 0.035 -0.999 3701.dat
1 71 30 -383.595 -198.40500000000003 -1 0 0 0 0.999 0.035 0 0.035 -0.999 26604.dat
1 71 -30 -383.595 -198.40500000000003 0 0 -1 -0.035 0.999 0 0.999 0.035 0 26604.dat
1 0 -30 -373.605 -198.055 0 1 0 -0.035 0 0.999 0.999 0 0.035 87994.dat
1 71 30 -373.95500000000004 -188.065 -1 0 0 0 0.035 -0.999 0 -0.999 -0.035 54200.dat
1 71 -30 -373.95500000000004 -188.065 -1 0 0 0 0.035 -0.999 0 -0.999 -0.035 54200.dat
1 71 -30 -391.58700000000005 -198.685 0 0 -1 -0.035 0.999 0 0.999 0.035 0 3623.dat
1 71 30 -391.58700000000005 -198.685 0 0 -1 -0.035 0.999 0 0.999 0.035 0 3623.dat
1 71 -30 -351.27700000000004 -207.27500000000003 0 0 1 0.035 0.999 0 -0.999 0.035 0 3023.dat
1 71 30 -351.27700000000004 -207.27500000000003 0 0 1 0.035 0.999 0 -0.999 0.035 0 3023.dat
1 71 30 -343.2850000000001 -206.995 0 0 1 0.035 0.999 0 -0.999 0.035 0 3004.dat
1 71 -30 -343.2850000000001 -206.995 0 0 1 0.035 0.999 0 -0.999 0.035 0 3004.dat
1 71 -20 -372.55500000000006 -228.02500000000003 0 0 1 0.035 0.999 0 -0.999 0.035 0 4274.dat
1 71 0 -372.55500000000006 -228.02500000000003 0 0 1 0.035 0.999 0 -0.999 0.035 0 4274.dat
1 71 20 -372.55500000000006 -228.02500000000003 0 0 1 0.035 0.999 0 -0.999 0.035 0 4274.dat
1 0 0 -352.26000000000005 -236.31600000000003 0 0 1 0.999 -0.035 0 0.035 0.999 0 60474.dat
1 47 0 -351.7000000000001 -252.30000000000004 0 0 1 0.999 -0.035 0 0.035 0.999 0 3960.dat
1 71 0 -392.28700000000003 -178.70500000000004 0 0 1 0.035 0.999 0 -0.999 0.035 0 93273.dat
1 71 0 -399.579 -198.96500000000003 1 0 0 0 0.999 -0.035 0 0.035 0.999 93604.dat
1 71 0 -407.5710000000001 -199.245 1 0 0 0 0.999 -0.035 0 0.035 0.999 3069b.dat
1 0 0 -373.605 -198.055 1 0 0 0 -0.555259 -0.831739 0 0.831739 -0.555259 93609.dat
1 0 0 -396.803 -128.709 1 0 0 0 0.8600000000000001 0.5110000000000001 0 -0.5110000000000001 0.8600000000000001 3706.dat
1 71 70 -396.803 -128.709 1 0 0 0 0.5110000000000001 -0.8600000000000001 0 0.8600000000000001 0.5110000000000001 25214.dat
1 72 30 -396.803 -128.709 0 0 -1 -0.5110000000000001 -0.8600000000000001 0 -0.8600000000000001 0.5110000000000001 0 99021.dat
1 71 0 -396.803 -128.709 1 0 0 0 -0.8600000000000001 -0.5110000000000001 0 0.5110000000000001 -0.8600000000000001 62462.dat
1 72 -30 -396.803 -128.709 0 0 -1 -0.5110000000000001 -0.8600000000000001 0 -0.8600000000000001 0.5110000000000001 0 99021.dat
1 71 -70 -396.803 -128.709 -1 0 0 0 -0.5110000000000001 -0.8600000000000001 0 -0.8600000000000001 0.5110000000000001 25214.dat
1 4 -70 -422.603 -113.37900000000002 0 0 1 -0.8600000000000001 -0.5110000000000001 0 0.5110000000000001 -0.8600000000000001 0 32062.dat
1 4 70 -422.603 -113.37900000000002 0 0 1 -0.8600000000000001 -0.5110000000000001 0 0.5110000000000001 -0.8600000000000001 0 32062.dat
1 71 -70 -448.4030000000001 -98.04900000000002 1 0 0 0 -0.5110000000000001 0.8600000000000001 0 -0.8600000000000001 -0.5110000000000001 25214.dat
1 71 70 -448.4030000000001 -98.04900000000002 0 0 1 -0.8600000000000001 -0.5110000000000001 0 0.5110000000000001 -0.8600000000000001 0 25214.dat
1 4 -100 -448.4030000000001 -98.04900000000002 1 0 0 0 -0.5110000000000001 0.8600000000000001 0 -0.8600000000000001 -0.5110000000000001 32062.dat
1 4 100 -448.4030000000001 -98.04900000000002 1 0 0 0 -0.5110000000000001 0.8600000000000001 0 -0.8600000000000001 -0.5110000000000001 32062.dat
1 71 -130 -448.4030000000001 -98.04900000000002 0 0 -1 0.8600000000000001 -0.5110000000000001 0 -0.5110000000000001 -0.8600000000000001 0 32192.dat
1 71 130 -448.4030000000001 -98.04900000000002 0 0 1 -0.8600000000000001 -0.5110000000000001 0 0.5110000000000001 -0.8600000000000001 0 32192.dat
1 0 -165.35399999999998 -437.5626460000001 -79.80496000000001 0 0.707 0.707 0.8600000000000001 0.36127700000000007 -0.36127700000000007 -0.5110000000000001 0.60802 -0.60802 32064a.dat
1 0 -171.01 -449.05286200000006 -79.55912000000001 0 0.707 -0.707 -0.8600000000000001 0.36127700000000007 0.36127700000000007 0.5110000000000001 0.60802 0.60802 4081b.dat
1 0 -171.01 -431.8528620000001 -89.77912000000002 0 0.707 -0.707 -0.8600000000000001 0.36127700000000007 0.36127700000000007 0.5110000000000001 0.60802 0.60802 4081b.dat
1 0 -176.666 -443.34307800000005 -89.53328 0 0.707 -0.707 -0.8600000000000001 0.36127700000000007 0.36127700000000007 0.5110000000000001 0.60802 0.60802 15573.dat
1 0 -158.284 -433.9498760000001 -73.72476 0.707 0.707 0 -0.36127700000000007 0.36127700000000007 -0.8600000000000001 -0.60802 0.60802 0.5110000000000001 18651.dat
1 0 -182.32200000000003 -446.233294 -94.39744000000002 0 0.707 -0.707 -0.8600000000000001 0.36127700000000007 0.36127700000000007 0.5110000000000001 0.60802 0.60802 4592.dat
1 0 -182.32200000000003 -446.233294 -94.39744000000002 0 0.707 -0.707 0.8600000000000001 -0.36127700000000007 -0.36127700000000007 -0.5110000000000001 -0.60802 -0.60802 4593.dat
1 0 -179.494 -423.11156600000004 -55.48416 -0.707 -0.707 0 0.36127700000000007 -0.36127700000000007 -0.8600000000000001 0.60802 -0.60802 0.5110000000000001 62462.dat
1 0 -193.634 -415.886026 -43.32376000000001 -0.707 -0.707 0 0.36127700000000007 -0.36127700000000007 -0.8600000000000001 0.60802 -0.60802 0.5110000000000001 2780.dat
1 0 -200.704 -412.273256 -37.24356 -0.707 0.707 0 -0.36127700000000007 -0.36127700000000007 -0.8600000000000001 -0.60802 -0.60802 0.5110000000000001 18654.dat
1 0 165.35399999999998 -437.5626460000001 -79.80496000000001 0 -0.707 -0.707 -0.8600000000000001 0.36127700000000007 -0.36127700000000007 0.5110000000000001 0.60802 -0.60802 32064a.dat
1 0 171.01 -431.8528620000001 -89.77912000000002 0 -0.707 0.707 0.8600000000000001 0.36127700000000007 0.36127700000000007 -0.5110000000000001 0.60802 0.60802 4081b.dat
1 0 171.01 -449.05286200000006 -79.55912000000001 0 -0.707 0.707 0.8600000000000001 0.36127700000000007 0.36127700000000007 -0.5110000000000001 0.60802 0.60802 4081b.dat
1 0 176.666 -443.34307800000005 -89.53328 0 -0.707 0.707 0.8600000000000001 0.36127700000000007 0.36127700000000007 -0.5110000000000001 0.60802 0.60802 15573.dat
1 0 158.284 -433.9498760000001 -73.72476 -0.707 -0.707 0 -0.36127700000000007 0.36127700000000007 0.8600000000000001 -0.60802 0.60802 -0.5110000000000001 18651.dat
1 0 182.32200000000003 -446.233294 -94.39744000000002 0 -0.707 0.707 0.8600000000000001 0.36127700000000007 0.36127700000000007 -0.5110000000000001 0.60802 0.60802 4592.dat
1 0 182.32200000000003 -446.233294 -94.39744000000002 0 -0.707 0.707 -0.8600000000000001 -0.36127700000000007 -0.36127700000000007 0.5110000000000001 -0.60802 -0.60802 4593.dat
1 0 179.494 -423.11156600000004 -55.48416 0.707 0.707 0 0.36127700000000007 -0.36127700000000007 0.8600000000000001 0.60802 -0.60802 -0.5110000000000001 62462.dat
1 0 193.634 -415.886026 -43.32376000000001 0.707 0.707 0 0.36127700000000007 -0.36127700000000007 0.8600000000000001 0.60802 -0.60802 -0.5110000000000001 2780.dat
1 0 200.704 -412.273256 -37.24356 0.707 -0.707 0 -0.36127700000000007 -0.36127700000000007 0.8600000000000001 -0.60802 -0.60802 -0.5110000000000001 18654.dat
1 0 155.45600000000002 -473.61789200000004 -79.77592000000001 1 0 0 0 0.8600000000000001 0.5110000000000001 0 -0.5110000000000001 0.8600000000000001 48729b.dat
1 0 155.45600000000002 -420.29789200000005 -111.45792 0 0 1 0.5110000000000001 -0.8600000000000001 0 0.8600000000000001 0.5110000000000001 0 48729b.dat
1 0 -155.45600000000002 -473.61789200000004 -79.77592000000001 -1 0 0 0 0.8600000000000001 -0.5110000000000001 0 -0.5110000000000001 -0.8600000000000001 48729b.dat
1 0 -155.45600000000002 -420.29789200000005 -111.45792 0 0 1 0.5110000000000001 -0.8600000000000001 0 0.8600000000000001 0.5110000000000001 0 48729b.dat
1 71 -155.45600000000002 -401.40269600000005 -104.58376800000002 1 0 0 0 0.246743 0.9692970000000001 0 -0.9692970000000001 0.246743 26047.dat
1 57 -155.45600000000002 -399.42875200000003 -112.338144 1 0 0 0 0.246743 0.9692970000000001 0 -0.9692970000000001 0.246743 6141.dat
1 71 -155.45600000000002 -406.337556 -85.197828 1 0 0 0 0.246743 0.9692970000000001 0 -0.9692970000000001 0.246743 59900.dat
1 71 155.45600000000002 -401.40218500000003 -104.582908 1 0 0 0 0.246743 0.9692970000000001 0 -0.9692970000000001 0.246743 26047.dat
1 57 155.45600000000002 -399.42824099999996 -112.33728400000003 1 0 0 0 0.246743 0.9692970000000001 0 -0.9692970000000001 0.246743 6141.dat
1 71 155.45600000000002 -406.337045 -85.196968 1 0 0 0 0.246743 0.9692970000000001 0 -0.9692970000000001 0.246743 59900.dat
1 71 -155.45600000000002 -473.61789200000004 -79.77592000000001 -0.707 0.707 0 0.60802 0.60802 -0.5110000000000001 -0.36127700000000007 -0.36127700000000007 -0.8600000000000001 23443.dat
1 71 -204.246 -515.90914 -52.63164499999999 -0.6120000000000001 -0.354 -0.707 0.78182 -0.13808600000000004 -0.60802 0.11726799999999998 -0.9256540000000001 0.36127700000000007 3900.dat
1 71 -201.41800000000003 -514.8010120000001 -45.22845700000002 -0.6120000000000001 -0.354 -0.707 0.78182 -0.13808600000000004 -0.60802 0.11726799999999998 -0.9256540000000001 0.36127700000000007 14769.dat
1 71 155.45600000000002 -473.61789200000004 -79.77592000000001 -0.707 -0.707 0 -0.60802 0.60802 -0.5110000000000001 0.36127700000000007 -0.36127700000000007 -0.8600000000000001 23443.dat
1 71 204.246 -515.90914 -52.63164499999999 -0.6120000000000001 0.354 0.707 -0.78182 -0.13808600000000004 -0.60802 -0.11726799999999998 -0.9256540000000001 0.36127700000000007 3900.dat
1 71 201.41800000000003 -514.8005009999999 -45.22759700000002 -0.6120000000000001 0.354 0.707 -0.78182 -0.13808600000000004 -0.60802 -0.11726799999999998 -0.9256540000000001 0.36127700000000007 14769.dat
1 72 0 0 0 0 0 -1 0 1 0 1 0 0 3020.dat
1 72 0 -8 0 1 0 0 0 1 0 0 0 1 3832.dat
1 72 90 0 0 0 0 -1 0 1 0 1 0 0 3023.dat
1 72 -90 0 0 0 0 -1 0 1 0 1 0 0 3023.dat
1 72 0 -8 30 1 0 0 0 1 0 0 0 1 3023.dat
1 72 0 -8 -30 1 0 0 0 1 0 0 0 1 3023.dat
1 72 0 -32 0 0 0 -1 0 1 0 1 0 0 3001.dat
1 72 30 -32 0 0 0 -1 0 1 0 1 0 0 30363.dat
1 72 -30 -32 0 0 0 1 0 1 0 -1 0 0 30363.dat
1 72 0 -40 30 1 0 0 0 1 0 0 0 1 3023.dat
1 72 0 -40 -30 1 0 0 0 1 0 0 0 1 3023.dat
1 72 0 -40 0 1 0 0 0 1 0 0 0 1 3020.dat
1 72 0 -64 0 0 0 -1 0 1 0 1 0 0 6192.dat
