1 72 140 -80 170 0 -1 0 0 0 1 -1 0 0 32523.dat
1 1 120 -100 170 -1 0 0 0 0 1 0 1 0 6558.dat
1 1 120 -60 170 -1 0 0 0 0 1 0 1 0 6558.dat
1 0 120 -100 90 0 -1 0 1 0 0 0 0 1 32526.dat
1 72 120 -100 90 1 0 0 0 1 0 0 0 1 11214.dat
1 72 100 -100 50 0 -1 0 1 0 0 0 0 1 40490.dat
1 72 100 -100 130 -1 0 0 0 -1 0 0 0 1 11214.dat
1 71 140 -100 90 -1 0 0 0 1 0 0 0 -1 6536.dat
1 0 140 -80 100 0 0 1 0 1 0 -1 0 0 2780.dat
1 1 120 -100 -30 1 0 0 0 1 0 0 0 1 6558.dat
1 1 120 -100 10 1 0 0 0 1 0 0 0 1 6558.dat
1 71 120 -100 30 -1 0 0 0 0 -1 0 -1 0 87082.dat
1 71 80 -100 130 1 0 0 0 1 0 0 0 1 6536.dat
1 71 120 -100 -130 0 -1 0 -1 0 0 0 0 -1 32278.dat
1 0 130 -100 -50 1 0 0 0 -1 0 0 0 -1 2780.dat
1 1 110 -100 70 1 0 0 0 -1 0 0 0 -1 43093.dat
1 4 140 -100 70 1 0 0 0 -1 0 0 0 -1 32054.dat
1 0 140 -100 -10 0 -1 0 1 0 0 0 0 1 32526.dat
1 0 150 -60 70 1 0 0 0 -1 0 0 0 -1 2780.dat
1 1 130 -100 -70 1 0 0 0 -1 0 0 0 -1 43093.dat
1 0 130 -100 -90 1 0 0 0 -1 0 0 0 -1 2780.dat
1 71 135 -100 -110 0 -1 0 1 0 0 0 0 1 32056.dat
1 71 145 -100 -110 0 -1 0 1 0 0 0 0 1 32056.dat
1 0 150 -80 -110 1 0 0 0 -1 0 0 0 -1 2780.dat
1 1 150 -60 -110 -1 0 0 0 1 0 0 0 -1 43093.dat
1 1 120 -100 -250 -1 0 0 0 -1 0 0 0 1 6558.dat
1 1 120 -100 -210 -1 0 0 0 -1 0 0 0 1 6558.dat
1 1 130 -100 -150 1 0 0 0 -1 0 0 0 -1 43093.dat
1 71 140 -100 -150 -1 0 0 0 1 0 0 0 -1 6536.dat
1 72 140 -100 -230 0 1 0 1 0 0 0 0 -1 32523.dat
1 72 147 -100 -230 1 0 0 0 -1 0 0 0 -1 32209.dat
1 72 100 -100 -230 0 1 0 1 0 0 0 0 -1 32523.dat
1 71 0 -100 -270 -1 0 0 0 0.999 -0.052 0 -0.052 -0.999 60485.dat
1 0 90 -100 -270 0 0 -1 0.052 0.999 0 0.999 -0.052 0 59443.dat
1 1 110 -100 -270 -1 0 0 0 0.999 -0.052 0 -0.052 -0.999 43093.dat
1 72 60 -100 -270 0 -1 0 0.052 0 -0.999 0.999 0 0.052 60483.dat
1 0 50 -119.98000000000002 -268.96000000000004 1 0 0 0 0.052 -0.999 0 0.999 0.052 2780.dat
1 27 40 -135.8 -188 0 1 0 0.999 0 -0.052 -0.052 0 -0.999 32526.dat
1 0 -90 -100 -270 0 0 1 -0.052 0.999 0 -0.999 -0.052 0 59443.dat
1 1 -110 -100 -270 1 0 0 0 0.999 0.052 0 -0.052 0.999 43093.dat
1 72 -60 -100 -270 0 1 0 -0.052 0 -0.999 -0.999 0 0.052 60483.dat
1 0 -50 -119.98000000000002 -268.96000000000004 1 0 0 0 0.052 -0.999 0 0.999 0.052 2780.dat
1 27 -40 -135.8 -188 0 1 0 0.999 0 -0.052 -0.052 0 -0.999 32526.dat
1 0 40 -135.8 -188 -1 0 0 0 0.999 -0.052 0 -0.052 -0.999 32054.dat
1 0 40 -138.92000000000002 -247.94 -1 0 0 0 0.999 -0.052 0 -0.052 -0.999 32054.dat
1 0 -40 -135.8 -188 1 0 0 0 0.999 0.052 0 -0.052 0.999 32054.dat
1 0 -40 -138.92000000000002 -247.94 1 0 0 0 0.999 0.052 0 -0.052 0.999 32054.dat
1 72 -140 -80 170 0 1 0 0 0 1 1 0 0 32523.dat
1 1 -120 -100 170 1 0 0 0 0 -1 0 1 0 6558.dat
1 1 -120 -60 170 1 0 0 0 0 -1 0 1 0 6558.dat
1 0 -120 -100 90 0 -1 0 1 0 0 0 0 1 32526.dat
1 72 -120 -100 90 -1 0 0 0 1 0 0 0 -1 11214.dat
1 72 -100 -100 50 0 1 0 -1 0 0 0 0 1 40490.dat
1 72 -100 -100 130 1 0 0 0 -1 0 0 0 -1 11214.dat
1 72 -147 -80 170 -1 0 0 0 -1 0 0 0 1 32209.dat
1 71 -140 -100 90 -1 0 0 0 1 0 0 0 -1 6536.dat
1 0 -140 -80 100 0 0 -1 0 1 0 1 0 0 2780.dat
1 1 -120 -100 -30 -1 0 0 0 1 0 0 0 -1 6558.dat
1 1 -120 -100 10 -1 0 0 0 1 0 0 0 -1 6558.dat
1 71 -120 -100 30 -1 0 0 0 0 -1 0 -1 0 87082.dat
1 71 -80 -100 130 -1 0 0 0 1 0 0 0 -1 6536.dat
1 71 -120 -100 -130 0 1 0 1 0 0 0 0 -1 32278.dat
1 0 -130 -100 -50 1 0 0 0 -1 0 0 0 -1 2780.dat
1 1 -110 -100 70 -1 0 0 0 -1 0 0 0 1 43093.dat
1 4 -140 -100 70 -1 0 0 0 -1 0 0 0 1 32054.dat
1 0 -140 -100 -10 0 -1 0 1 0 0 0 0 1 32526.dat
1 0 -150 -60 70 1 0 0 0 -1 0 0 0 -1 2780.dat
1 15 -100 -80 170 0 1 0 0 0 1 1 0 0 42065 - 32523p01.dat
1 1 -130 -100 -70 -1 0 0 0 -1 0 0 0 1 43093.dat
1 0 -130 -100 -90 1 0 0 0 -1 0 0 0 -1 2780.dat
1 71 -135 -100 -110 0 -1 0 1 0 0 0 0 1 32056.dat
1 71 -145 -100 -110 0 -1 0 1 0 0 0 0 1 32056.dat
1 0 -150 -80 -110 1 0 0 0 -1 0 0 0 -1 2780.dat
1 1 -150 -60 -110 1 0 0 0 1 0 0 0 1 43093.dat
1 1 -120 -100 -250 1 0 0 0 -1 0 0 0 -1 6558.dat
1 1 -120 -100 -210 1 0 0 0 -1 0 0 0 -1 6558.dat
1 1 -130 -100 -150 -1 0 0 0 -1 0 0 0 1 43093.dat
1 71 -140 -100 -150 -1 0 0 0 1 0 0 0 -1 6536.dat
1 72 -140 -100 -230 0 -1 0 -1 0 0 0 0 -1 32523.dat
1 71 0 -80 110 0 0 -1 -1 0 0 0 1 0 32278.dat
1 4 80 -80 110 0 -1 0 0 0 -1 1 0 0 32054.dat
1 4 -80 -80 110 0 -1 0 0 0 -1 1 0 0 32054.dat
1 19 40 -80 100 0 -1 0 0 0 1 -1 0 0 3749.dat
1 19 -40 -80 100 0 -1 0 0 0 1 -1 0 0 3749.dat
1 72 -140 -120 -40 0 0 -1 0 1 0 1 0 0 32291.dat
1 4 -140 -120 -40 0 0 -1 0 1 0 1 0 0 32062.dat
1 4 -140 -120 -40 0 0 1 0 -1 0 1 0 0 41678.dat
1 72 140 -120 -40 0 0 1 0 1 0 -1 0 0 32291.dat
1 4 140 -120 -40 0 0 1 0 1 0 -1 0 0 32062.dat
1 4 140 -120 -40 0 0 -1 0 -1 0 -1 0 0 41678.dat
1 0 -160 -110 -50 0 1 0 1 0 0 0 0 -1 2780.dat
1 0 -160 -110 -30 0 1 0 1 0 0 0 0 -1 2780.dat
1 0 160 -110 -50 0 1 0 1 0 0 0 0 -1 2780.dat
1 0 160 -110 -30 0 1 0 1 0 0 0 0 -1 2780.dat
1 0 -160 -100 -30 -1 0 0 0 -1 0 0 0 1 42065 - 24119.dat
1 0 160 -100 -30 1 0 0 0 -1 0 0 0 -1 42065 - 24119.dat
1 0 -160 -40 -110 0 1 0 0 0 -1 -1 0 0 32526.dat
1 70 -152 -40 -110 -1 0 0 0 0 -1 0 -1 0 15462.dat
1 15 -195 -40 -110 0 0 1 -1 0 0 0 -1 0 42065 - 4185.dat
1 4 -140 -40 -110 0 0 1 -1 0 0 0 -1 0 3713.dat
1 0 -160 -40 70 0 1 0 0 0 -1 -1 0 0 32526.dat
1 70 -152 -40 70 -1 0 0 0 0 -1 0 -1 0 15462.dat
1 15 -195 -40 70 0 0 1 -1 0 0 0 -1 0 42065 - 4185.dat
1 4 -140 -40 70 0 0 1 -1 0 0 0 -1 0 3713.dat
1 0 160 -40 -110 0 1 0 0 0 -1 -1 0 0 32526.dat
1 70 152 -40 -110 1 0 0 0 0 1 0 -1 0 15462.dat
1 15 195 -40 -110 0 0 -1 1 0 0 0 -1 0 42065 - 4185.dat
1 4 140 -40 -110 0 0 -1 1 0 0 0 -1 0 3713.dat
1 0 160 -40 70 0 1 0 0 0 -1 -1 0 0 32526.dat
1 70 152 -40 70 1 0 0 0 0 1 0 -1 0 15462.dat
1 15 195 -40 70 0 0 -1 1 0 0 0 -1 0 42065 - 4185.dat
1 4 140 -40 70 0 0 -1 1 0 0 0 -1 0 3713.dat
1 4 -180 -40 -110 0 0 1 -1 0 0 0 -1 0 3713.dat
1 4 -180 -40 70 0 0 1 -1 0 0 0 -1 0 3713.dat
1 4 180 -40 70 0 0 -1 1 0 0 0 -1 0 3713.dat
1 4 180 -40 -110 0 0 -1 1 0 0 0 -1 0 3713.dat
1 70 -120 -100 -110 -1 0 0 0 0 -1 0 -1 0 15462.dat
1 4 -90 -100 -110 -1 0 0 0 0 -1 0 -1 0 41678.dat
1 70 120 -100 -110 1 0 0 0 0 -1 0 1 0 15462.dat
1 4 90 -100 -110 1 0 0 0 0 -1 0 1 0 41678.dat
1 0 100 -80 -120 0 0 1 0 -1 0 1 0 0 2780.dat
1 0 80 -80 -120 0 0 1 0 -1 0 1 0 0 2780.dat
1 0 -80 -80 -120 0 0 1 0 -1 0 1 0 0 2780.dat
1 0 -100 -80 -120 0 0 1 0 -1 0 1 0 0 2780.dat
1 71 0 -80 -130 0 0 1 1 0 0 0 1 0 32278.dat
1 4 -40 -80 -130 0 -1 0 0 0 -1 1 0 0 32054.dat
1 4 40 -80 -130 0 -1 0 0 0 -1 1 0 0 32054.dat
1 0 -140 -80 -150 0 -1 0 0 0 -1 1 0 0 32054.dat
1 0 140 -80 -150 0 -1 0 0 0 -1 1 0 0 32054.dat
1 15 125 -40 -110 0 0 -1 1 0 0 0 -1 0 42065 - 4185.dat
1 15 125 -40 70 0 0 -1 1 0 0 0 -1 0 42065 - 4185.dat
1 15 -125 -40 -110 0 0 -1 1 0 0 0 -1 0 42065 - 4185.dat
1 15 -125 -40 70 0 0 -1 1 0 0 0 -1 0 42065 - 4185.dat
1 71 110 -80 170 0 0 -1 1 0 0 0 -1 0 58120.dat
1 72 -20 -206 160 0 0 -1 0 1 0 1 0 0 58124c01.dat
1 0 -9.869901999999996 -79.932989 194.85933000000003 0.697144 2.153134 0.018312 0.00017500000000000003 -0.077243 0.9996690000000001 0.716932 -2.093687 -0.018050000000000004 u9190.dat
1 0 -11.493324999999999 -79.77347800000001 196.348568 0.67799 2.200105 0.063391 -0.022927 -0.195664 0.997613 0.7347130000000001 -2.036353 -0.027367 u9190.dat
1 0 -13.148517 -79.546867 197.79335000000003 0.65666 2.24386 0.10460400000000002 -0.048155 -0.291088 0.9941290000000002 0.7526470000000001 -1.976319 -0.027658000000000002 u9190.dat
1 0 -14.833583000000006 -79.269269 199.19397200000003 0.6336000000000002 2.284918 0.141751 -0.075813 -0.364422 0.989716 0.769937 -1.9162000000000001 -0.019197 u9190.dat
1 0 -16.353234999999998 -78.988977 200.39749200000003 0.609291 2.323321 0.17521400000000004 -0.10614100000000001 -0.418897 0.984526 0.7858110000000001 -1.8580050000000001 -0.002872 u9190.dat
1 0 -17.898110000000003 -78.683244 201.562153 0.584584 2.358266 0.20511100000000002 -0.139274 -0.456539 0.9785240000000001 0.7992900000000001 -1.804336 0.020491 u9190.dat
1 0 -19.667741000000007 -78.318364 202.832253 0.554025 2.399851 0.23439700000000002 -0.175448 -0.49028800000000006 0.9708680000000001 0.8138030000000002 -1.7394850000000002 0.049735 u9190.dat
1 0 -21.469427 -77.937465 204.051581 0.520194 2.443144 0.260871 -0.21479200000000004 -0.513905 0.961563 0.826597 -1.671056 0.08569100000000002 u9190.dat
1 0 -23.30487099999999 -77.547312 205.216473 0.48282 2.48865 0.284033 -0.257341 -0.528174 0.9501930000000001 0.837055 -1.597852 0.128291 u9190.dat
1 0 -24.960971 -77.19888600000002 206.20250600000003 0.444692 2.531672 0.303492 -0.302624 -0.5334130000000001 0.9364260000000001 0.8430110000000001 -1.526953 0.176064 u9190.dat
1 0 -26.651162 -76.853331 207.13031700000002 0.403026 2.5775750000000004 0.318501 -0.350606 -0.53091 0.919699 0.8453670000000001 -1.44904 0.22958900000000002 u9190.dat
1 0 -28.59262100000001 -76.473323 208.11243700000003 0.35504 2.631451 0.326689 -0.401368 -0.519093 0.899471 0.8443050000000001 -1.353324 0.290217 u9190.dat
1 0 -30.576323000000002 -76.11108200000001 209.013684 0.304148 2.6883830000000004 0.32667500000000005 -0.453883 -0.49681100000000006 0.8755810000000002 0.8375470000000002 -1.245494 0.355866 u9190.dat
1 0 -32.604330000000004 -75.775525 209.82222500000003 0.251208 2.748125 0.316435 -0.507295 -0.462647 0.847901 0.8243460000000001 -1.122161 0.425362 u9190.dat
1 0 -34.44302300000001 -75.51063 210.444435 0.19843100000000002 2.8083220000000004 0.294622 -0.560362 -0.415855 0.8165990000000001 0.804127 -0.982788 0.49635000000000007 u9190.dat
1 0 -36.31913 -75.286428 210.96357100000003 0.151644 2.8608260000000003 0.264956 -0.610892 -0.36182900000000007 0.7825 0.777056 -0.842752 0.563465 u9190.dat
1 0 -38.473082000000005 -75.091778 211.41441 0.10194500000000001 2.920063 0.21180900000000003 -0.660462 -0.279663 0.7450670000000001 0.7439070000000001 -0.64846 0.632465 u9190.dat
1 0 -40.663861999999995 -74.982082 211.68267900000004 0.05661800000000001 2.9715540000000003 0.135788 -0.706981 -0.16918 0.7049870000000001 0.704962 -0.40831900000000004 0.6961 u9190.dat
1 0 -42.87293700000001 -74.96923 211.755273 0.022134000000000004 3.0004150000000003 0.045351 -0.7482900000000001 -0.040657 0.6632340000000001 0.6630020000000001 -0.146054 0.747037 u9190.dat
1 0 -44.825591 -75.075301 211.59279800000004 -0.004082 2.995951 -0.074138 -0.785109 0.128346 0.617883 0.619344 0.182444 0.782767 u9190.dat
1 0 -46.74111300000001 -75.293286 211.22393399999999 -0.014457000000000001 2.953584 -0.182296 -0.8140510000000001 0.28327800000000003 0.573088 0.580613 0.4707140000000001 0.7989610000000001 u9190.dat
1 0 -48.81800100000001 -75.672937 210.56745500000002 -0.017246 2.847211 -0.318607 -0.837922 0.48115500000000005 0.521763 0.545518 0.8290690000000001 0.791361 u9190.dat
1 0 -50.750134 -76.2287 209.643162 -0.004447 2.66329 -0.462689 -0.853431 0.7143710000000001 0.46380200000000005 0.521187 1.192492 0.755517 u9190.dat
1 0 -52.430814000000005 -76.83748800000001 208.842574 0.047767000000000004 2.5934800000000005 -0.502473 -0.850936 0.897097 0.4321340000000001 0.523092 1.22252 0.748853 u9190.dat
1 0 -54.07044400000001 -77.679506 208.168146 0.142854 2.5356740000000006 -0.516918 -0.8137660000000001 1.19401 0.424058 0.563362 1.0817450000000002 0.74362 u9190.dat
1 0 -55.85786200000001 -78.803846 207.517001 0.236957 2.449047 -0.528495 -0.7640590000000002 1.479174 0.41688500000000006 0.600054 0.9163470000000001 0.739527 u9190.dat
1 0 -57.512455999999986 -80.195789 207.050225 0.354971 2.282762 -0.544637 -0.680098 1.831421 0.407236 0.6414540000000001 0.678506 0.733164 u9190.dat
1 0 -58.99592899999999 -81.81410900000002 206.77221600000001 0.462782 2.059385 -0.562079 -0.577188 2.145783 0.395853 0.67282 0.42429400000000006 0.7262010000000001 u9190.dat
1 0 -60.12412599999999 -83.420494 206.70072400000004 0.555835 1.7860450000000003 -0.58104 -0.458728 2.410189 0.38202800000000003 0.693265 0.16281500000000002 0.718642 u9190.dat
1 0 -61.071518000000005 -85.139704 206.775883 0.617265 1.536255 -0.5979080000000001 -0.35479000000000005 2.58133 0.368581 0.702217 -0.046207 0.711797 u9190.dat
1 0 -61.945789 -87.15765000000002 207.000295 0.6686940000000001 1.243263 -0.617728 -0.23658600000000002 2.7219680000000004 0.35088 0.7048940000000001 -0.265833 0.7037720000000001 u9190.dat
1 0 -62.625068000000006 -89.230655 207.35354700000002 0.6994270000000001 0.973442 -0.6370330000000001 -0.130429 2.8066380000000004 0.33198300000000003 0.702702 -0.44796400000000003 0.695684 u9190.dat
1 0 -63.13363899999999 -91.331858 207.809772 0.714269 0.7351770000000001 -0.655694 -0.038468 2.8515960000000002 0.312345 0.6988130000000001 -0.594466 0.687391 u9190.dat
1 0 -63.480728000000006 -93.203539 208.272324 0.71693 0.5668090000000001 -0.67113 0.025972000000000002 2.86841 0.296157 0.696661 -0.6902380000000001 0.679615 u9190.dat
1 0 -63.695846999999986 -95.077947 208.80372 0.7134850000000001 0.388905 -0.688609 0.09294700000000002 2.8738980000000005 0.276139 0.694479 -0.784182 0.670497 u9190.dat
1 0 -63.861650999999995 -97.18689600000002 209.438801 0.704733 0.250531 -0.704555 0.144639 2.8700260000000006 0.25775 0.694573 -0.8518570000000001 0.6611860000000002 u9190.dat
1 0 -63.92436699999999 -99.287206 210.11983100000003 0.690977 0.110554 -0.7219390000000001 0.195974 2.859338 0.236083 0.695805 -0.915119 0.6504370000000002 u9190.dat
1 0 -63.917756 -101.378834 210.829071 0.675614 0.009261 -0.737249 0.232946 2.847633 0.217435 0.6994860000000002 -0.9572770000000002 0.639677 u9190.dat
1 0 -63.83690100000002 -103.22235200000001 211.48617200000004 0.655441 -0.10152000000000001 -0.75449 0.272185 2.8313070000000002 0.19424200000000003 0.704495 -0.9994370000000001 0.626908 u9190.dat
1 0 -63.711941 -105.05804900000001 212.15773000000002 0.637282 -0.169277 -0.768568 0.296237 2.819794 0.176823 0.7114180000000001 -1.022537 0.614847 u9190.dat
1 0 -63.518339 -107.11774300000002 212.930932 0.614524 -0.249007 -0.784532 0.323289 2.80472 0.154599 0.719614 -1.047386 0.600507 u9190.dat
1 0 -63.28122099999999 -109.16848000000002 213.715717 0.591957 -0.311335 -0.799279 0.343916 2.792021 0.134212 0.728909 -1.064502 0.585781 u9190.dat
1 0 -62.710024000000004 -112.96128000000002 215.206231 0.558149 -0.693295 -0.818566 0.372681 4.712204 0.101183 0.7413350000000001 -1.84692 0.56543 u9190.dat
1 0 -61.98821000000002 -116.76975400000002 216.73588600000002 0.503914 -0.86097 -0.847152 0.399467 4.674582000000001 0.055568000000000006 0.7658310000000002 -1.8718040000000002 0.528437 u9190.dat
1 0 -61.155868 -120.55355399999999 218.27000300000003 0.44342 -1.008229 -0.874315 0.41756800000000005 4.641679 0.006667000000000001 0.7931050000000001 -1.8801390000000002 0.485314 u9190.dat
1 0 -60.219145999999995 -124.315575 219.797722 0.37899700000000003 -1.130874 -0.8985300000000002 0.42629300000000003 4.615885 -0.042805 0.821362 -1.8738640000000002 0.43682 u9190.dat
1 0 -59.125012000000005 -128.284877 221.396823 0.304805 -1.2556920000000003 -0.9201490000000001 0.426586 4.592674 -0.09885400000000001 0.851539 -1.8512740000000003 0.378886 u9190.dat
1 0 -58.013747 -132.018048 222.877407 0.23068100000000002 -1.354204 -0.936223 0.417292 4.577982 -0.150924 0.879007 -1.8179230000000002 0.317345 u9190.dat
1 0 -56.821037999999994 -135.74303700000002 224.314823 0.151947 -1.448712 -0.9468310000000001 0.398491 4.568131 -0.203883 0.9044980000000001 -1.769195 0.248882 u9190.dat
1 0 -55.55919499999999 -139.465453 225.698735 0.07064600000000001 -1.5394490000000003 -0.950893 0.369412 4.563911000000001 -0.255685 0.9265760000000001 -1.702191 0.17443700000000004 u9190.dat
1 0 -54.23023900000001 -143.189658 227.013348 -0.007254000000000001 -1.6180380000000003 -0.948486 0.332663 4.565569 -0.300992 0.943018 -1.623013 0.09888300000000001 u9190.dat
1 0 -52.75293500000001 -147.143993 228.313457 -0.085223 -1.70207 -0.939002 0.284113 4.573001 -0.34342000000000006 0.9549960000000001 -1.512368 0.018373 u9190.dat
1 0 -51.288391 -150.887338 229.41213199999999 -0.158189 -1.7883400000000003 -0.923269 0.22336800000000004 4.588015 -0.378806 0.9618120000000001 -1.3596300000000001 -0.063877 u9190.dat
1 0 -50.557751999999994 -152.699593 229.88665600000004 -0.214775 -1.082599 -0.907753 0.17329800000000004 2.70572 -0.3985330000000001 0.961166 -0.729751 -0.130984 u9190.dat
1 0 -49.73924199999999 -154.69504899999998 230.36191000000002 -0.243457 -1.108765 -0.8969500000000001 0.133912 2.713215 -0.407956 0.960623 -0.659229 -0.17045000000000002 u9190.dat
1 0 -48.905417 -156.695309 230.787647 -0.267621 -1.130417 -0.887016 0.09720400000000001 2.719907 -0.4133800000000001 0.9586090000000002 -0.591388 -0.205717 u9190.dat
1 0 -48.14785800000002 -158.474981 231.09639200000004 -0.2884920000000001 -1.156759 -0.87665 0.050635 2.728339 -0.415546 0.956142 -0.49350900000000003 -0.242501 u9190.dat
1 0 -47.37700799999999 -160.25877300000002 231.34200500000003 -0.30482200000000004 -1.176151 -0.8682250000000001 0.010225 2.734495 -0.414019 0.9523540000000001 -0.40581200000000006 -0.273449 u9190.dat
1 0 -46.492684 -162.27373799999998 231.53235100000003 -0.316158 -1.198962 -0.860681 -0.041005 2.740217 -0.40787700000000005 0.9478200000000001 -0.281383 -0.304737 u9190.dat
1 0 -45.590687 -164.289671 231.58694 -0.319553 -1.22277 -0.855702 -0.10613700000000001 2.742098 -0.3945100000000001 0.9416060000000002 -0.105885 -0.33486800000000005 u9190.dat
1 0 -44.77998500000001 -166.07149099999998 231.49877700000002 -0.315734 -1.240069 -0.8543600000000001 -0.1754 2.7347350000000006 -0.37497400000000003 0.932495 0.094521 -0.3598100000000001 u9190.dat
1 0 -43.96438599999999 -167.835544 231.24073600000003 -0.30484100000000003 -1.248563 -0.856942 -0.249002 2.713584 -0.34948100000000004 0.919277 0.320986 -0.37883300000000003 u9190.dat
1 0 -43.05208099999999 -169.778552 230.71506900000003 -0.277985 -1.242905 -0.8669270000000001 -0.350772 2.6554340000000005 -0.309337 0.89425 0.655236 -0.39082900000000004 u9190.dat
1 0 -42.17312899999999 -171.61793 229.856355 -0.234649 -1.203722 -0.885664 -0.477155 2.527356 -0.254169 0.846914 1.090415 -0.38858500000000007 u9190.dat
1 0 -41.38546900000001 -173.235354 228.55986400000003 -0.170163 -1.092431 -0.91587 -0.637262 2.2517580000000006 -0.17918600000000004 0.7516260000000001 1.6618240000000002 -0.35926900000000006 u9190.dat
1 0 -40.81658999999999 -174.385248 227.06597299999999 -0.10786000000000001 -0.9105370000000002 -0.94684 -0.781037 1.84788 -0.10791800000000001 0.6151 2.186719 -0.303063 u9190.dat
1 0 -40.40262000000001 -175.210792 225.325062 -0.062877 -0.7049890000000001 -0.9700410000000002 -0.8805010000000001 1.4138950000000001 -0.056778 0.4698570000000001 2.5552630000000005 -0.236214 u9190.dat
1 0 -40.119009000000005 -175.769037 223.20149800000002 -0.026287000000000005 -0.43609000000000003 -0.989059 -0.957764 0.8624290000000001 -0.016677000000000004 0.28635 2.84456 -0.146573 u9190.dat
1 0 -40.002893 -175.994719 221.00356000000002 -0.009034 -0.20089 -0.9977210000000001 -0.991419 0.392728 0.00021500000000000002 0.130412 2.971681 -0.067476 u9190.dat
1 0 -39.994932000000006 -175.981975 218.793067 -0.0027620000000000006 -0.039955 -0.999908 -0.9998820000000002 0.045476 0.002561 0.015102 3.0036330000000007 -0.013340000000000001 u9190.dat
1 0 -39.99991499999999 -175.706818 216.850891 0.000008 -0.0004 -1 -0.9934530000000001 -0.343202 0.000008 -0.11423900000000001 2.984575 -0.000133 u9190.dat
1 0 -40 -175.1252 214.97420300000002 0 -0.000002 -1 -0.9677970000000001 -0.7562610000000001 0 -0.251731 2.907498 -0.000001 u9190.dat
1 0 -40 -174.14953400000002 212.98943400000002 0 0 -1 -0.910609 -1.241558 0 -0.413268 2.7356920000000002 0 u9190.dat
1 0 -40 -172.86432100000002 211.190135 0 0 -1 -0.830603 -1.6729570000000002 0 -0.556865 2.495334 0 u9190.dat
1 0 -40 -171.32176900000002 209.604272 0 0 -1 -0.735785 -2.0345190000000004 0 -0.677215 2.210477 0 u9190.dat
1 0 -40 -169.75327900000002 208.421065 0 0 -1 -0.626152 -2.342411 0 -0.779701 1.881113 0 u9190.dat
1 0 -40 -168.108525 207.35264999999998 0 0 -1 -0.565469 -2.477809 0 -0.8247700000000001 1.6988060000000003 0 u9190.dat
1 0 -40 -166.15027 206.328549 0 0 -1 -0.479452 -2.636428 0 -0.8775680000000001 1.44039 0 u9190.dat
1 0 -40 -164.132554 205.42950100000002 0 0 -1 -0.418246 -2.728856 0 -0.9083340000000001 1.2565120000000003 0 u9190.dat
1 0 -40 -162.06577500000003 204.64992600000002 0 0 -1 -0.363016 -2.799303 0 -0.931783 1.090588 0 u9190.dat
1 0 -40 -160.20796 204.02971100000002 0 0 -1 -0.324546 -2.841624 0 -0.94587 0.9750150000000001 0 u9190.dat
1 0 -40 -158.32280300000002 203.49687500000002 0 0 -1 -0.285136 -2.8795290000000002 0 -0.9584870000000001 0.8566170000000001 0 u9190.dat
1 0 -40 -156.18433 202.94472900000002 0 0 -1 -0.25538400000000006 -2.904621 0 -0.96684 0.7672370000000001 0 u9190.dat
1 0 -40 -154.029211 202.46121000000002 0 0 -1 -0.22450400000000004 -2.927555 0 -0.9744730000000001 0.6744640000000001 0 u9190.dat
1 0 -40 -149.989626 201.677119 0 0 -1 -0.19354900000000003 -5.011888 0 -0.981091 0.9887420000000001 0 u9190.dat
1 0 -40 -145.873516 201.02671200000003 0 0 -1 -0.16077900000000003 -5.042028 0 -0.98699 0.8213360000000001 0 u9190.dat
1 0 -40 -141.744976 200.462208 0 0 -1 -0.137414 -5.060026 0 -0.9905140000000001 0.7019790000000001 0 u9190.dat
1 0 -40 -133.32070099999999 199.494057 0 0 -1 -0.1157 -9.254402000000002 0 -0.993284 1.077976 0 u9190.dat
1 0 -40 -129.073071 199.046558 0 0 -1 -0.105358 -5.080055 0 -0.9944340000000002 0.538221 0 u9190.dat
1 0 -40 -118.75131500000002 197.893093 0 0 -1 -0.11075000000000002 -11.350956 0 -0.993848 1.2649030000000003 0 u9190.dat
1 0 -40 -114.466933 197.314031 0 0 -1 -0.131802 -5.06392 0 -0.991276 0.6733100000000001 0 u9190.dat
1 0 -40 -110.35025400000002 196.66871400000002 0 0 -1 -0.153101 -5.04826 0 -0.988211 0.782115 0 u9190.dat
1 0 -40 -108.37293700000002 196.303777 0 0 -1 -0.175018 -2.957873 0 -0.984565 0.525797 0 u9190.dat
1 0 -40 -106.207395 195.87012100000004 0 0 -1 -0.19310300000000002 -2.947699 0 -0.9811780000000001 0.58013 0 u9190.dat
1 0 -40 -104.054362 195.377714 0 0 -1 -0.218405 -2.931716 0 -0.975858 0.656142 0 u9190.dat
1 0 -40 -102.157323 194.890396 0 0 -1 -0.243689 -2.913676 0 -0.969853 0.732102 0 u9190.dat
1 0 -40 -100.27837400000001 194.336862 0 0 -1 -0.272963 -2.890156 0 -0.9620250000000001 0.820046 0 u9190.dat
1 0 -40 -98.18525199999999 193.631767 0 0 -1 -0.312219 -2.8540610000000006 0 -0.95001 0.937983 0 u9190.dat
1 0 -40 -96.13108199999999 192.8197 0 0 -1 -0.3592600000000001 -2.8036720000000006 0 -0.9332370000000001 1.079305 0 u9190.dat
1 0 -40 -94.13249 191.878286 0 0 -1 -0.416065 -2.7318630000000006 0 -0.909335 1.249962 0 u9190.dat
1 0 -40 -92.433415 190.901305 0 0 -1 -0.48486 -2.627487 0 -0.8745920000000001 1.456636 0 u9190.dat
1 0 -40 -90.841361 189.755997 0 0 -1 -0.5600890000000001 -2.488813 0 -0.8284330000000001 1.6826430000000003 0 u9190.dat
1 0 -40 -89.210152 188.264956 0 0 -1 -0.65808 -2.262038 0 -0.752948 1.9770330000000003 0 u9190.dat
1 0 -40 -87.823829 186.54245600000002 0 0 -1 -0.7620360000000002 -1.9453500000000001 0 -0.647534 2.2893430000000006 0 u9190.dat
1 0 -40 -86.804667 184.576287 0 0 -1 -0.8714870000000001 -1.473337 0 -0.490419 2.618159 0 u9190.dat
1 0 -40 -86.21677 182.702843 0 0 -1 -0.9430340000000001 -0.9994970000000001 0 -0.332695 2.833105 0 u9190.dat
1 0 -40 -85.990411 180.74722300000002 0 0 -1 -0.98549 -0.5099180000000001 0 -0.169733 2.9606520000000005 0 u9190.dat
1 0 -39.98693900000001 -86.0676 178.53570700000003 -0.000009 -0.015064 -0.999987 -0.9999930000000001 0.010906000000000002 -0.000009 0.0036300000000000004 3.004186 -0.005014 u9190.dat
1 0 -39.913354 -86.489079 176.36667600000004 -0.002373 -0.087202 -0.999576 -0.986721 0.48791200000000007 -0.002373 0.162408 2.963075 -0.029026 u9190.dat
1 0 -39.74372500000001 -87.447917 174.374412 -0.014282000000000001 -0.209139 -0.9974720000000001 -0.9193230000000001 1.1813990000000003 -0.014282000000000001 0.39324300000000006 2.754276 -0.069615 u9190.dat
1 0 -39.470833999999996 -88.989788 173.131989 -0.054558 -0.382881 -0.9903440000000001 -0.691746 2.163287 -0.054558 0.720077 2.049163 -0.127447 u9190.dat
1 0 -39.13964999999999 -90.86097600000001 172.505445 -0.10125500000000001 -0.47755900000000007 -0.9820790000000001 -0.42790800000000007 2.698208 -0.10125500000000001 0.8981320000000002 1.2317010000000002 -0.158961 u9190.dat
1 0 -38.754672 -93.03610499999999 172.306485 -0.147571 -0.518423 -0.973881 -0.166222 2.929088 -0.147571 0.974984 0.420903 -0.172563 u9190.dat
1 0 -38.36999900000001 -95.209507 172.461995 -0.17815800000000004 -0.523206 -0.9684680000000001 0.006595 2.9561150000000005 -0.17815800000000004 0.98398 -0.11454400000000002 -0.174156 u9190.dat
1 0 -37.99070800000001 -97.35250200000002 172.85556600000004 -0.198527 -0.517109 -0.9648620000000001 0.12168 2.921665 -0.198527 0.972513 -0.47111800000000004 -0.172126 u9190.dat
1 0 -37.660077 -99.22056300000001 173.350414 -0.212192 -0.5087410000000001 -0.9624440000000001 0.198884 2.874387 -0.212192 0.9567760000000001 -0.710323 -0.16934100000000002 u9190.dat
1 0 -37.332606 -101.07077500000001 173.905398 -0.21824200000000002 -0.503891 -0.961373 0.23306800000000003 2.846986 -0.21824200000000002 0.947655 -0.8162380000000001 -0.167727 u9190.dat
1 0 -36.968198 -103.12968000000001 174.617216 -0.225606 -0.497 -0.9600700000000001 0.274676 2.808051 -0.225606 0.934695 -0.945155 -0.165433 u9190.dat
1 0 -36.60735299999999 -105.16845700000002 175.385944 -0.23047700000000002 -0.491826 -0.9592080000000001 0.302194 2.7788190000000004 -0.23047700000000002 0.924965 -1.030414 -0.163711 u9190.dat
1 0 -35.944109 -108.915787 176.951499 -0.236343 -0.824564 -0.958169 0.33534 4.658786 -0.236343 0.91197 -1.9267710000000002 -0.16141100000000003 u9190.dat
1 0 -35.281679999999994 -112.65850800000001 178.65982 -0.24127000000000004 -0.8136880000000001 -0.9572970000000001 0.363175 4.597334 -0.24127000000000004 0.8999410000000001 -2.073418 -0.159282 u9190.dat
1 0 -34.625517 -116.365829 180.445543 -0.24486300000000003 -0.80515 -0.956661 0.38347700000000007 4.549099 -0.24486300000000003 0.8904980000000001 -2.180381 -0.15761 u9190.dat
1 0 -33.303529999999995 -123.835055 184.236136 -0.248104 -1.453584 -0.956088 0.40178700000000006 8.212749000000002 -0.248104 0.8814830000000001 -4.15257 -0.156015 u9190.dat
1 0 -31.011606 -136.784426 191.03233900000004 -0.250369 -2.42023 -0.9556870000000001 0.41458400000000006 13.674301 -0.250369 0.874892 -7.172419 -0.154848 u9190.dat
1 0 -29.058909 -147.817164 196.69289700000002 -0.24906300000000003 -2.103556 -0.955918 0.407208 11.885092000000002 -0.24906300000000003 0.8787200000000001 -6.1039080000000006 -0.155526 u9190.dat
1 0 -28.070652 -153.40081600000002 199.39597300000003 -0.245672 -1.133984 -0.9565180000000001 0.38804900000000003 6.40701 -0.245672 0.888292 -3.1125190000000003 -0.15722 u9190.dat
1 0 -27.400686000000007 -157.186122 201.13478700000002 -0.242724 -0.8102940000000001 -0.9570400000000001 0.371393 4.578163 -0.242724 0.896188 -2.116716 -0.15861700000000004 u9190.dat
1 0 -26.73326599999999 -160.95704600000002 202.777445 -0.239534 -0.8176290000000002 -0.9576050000000002 0.353364 4.619601 -0.239534 0.9042990000000001 -2.0217330000000002 -0.160053 u9190.dat
1 0 -26.058163000000008 -164.771377 204.313502 -0.235461 -0.8264120000000001 -0.958325 0.330357 4.669229 -0.235461 0.9140140000000001 -1.90052 -0.161772 u9190.dat
1 0 -25.688254 -166.86136299999998 205.09164300000003 -0.231324 -0.49087400000000003 -0.959058 0.306983 2.77344 -0.231324 0.923174 -1.045252 -0.163394 u9190.dat
1 0 -25.32464300000001 -168.915769 205.81606700000003 -0.22843000000000002 -0.49406100000000003 -0.9595700000000001 0.290632 2.791446 -0.22843000000000002 0.9291680000000001 -0.9945910000000001 -0.164454 u9190.dat
1 0 -24.99969400000001 -170.751729 206.41577900000001 -0.224887 -0.497723 -0.960197 0.270609 2.812134 -0.224887 0.936054 -0.932553 -0.16567300000000001 u9190.dat
1 0 -24.671898 -172.603774 206.962511 -0.22085800000000003 -0.50157 -0.9609100000000002 0.24784600000000004 2.83387 -0.22085800000000003 0.943289 -0.8620260000000001 -0.166954 u9190.dat
1 0 -24.299870000000002 -174.70573400000004 207.52914 -0.21644400000000003 -0.505408 -0.9616910000000001 0.222907 2.855556 -0.21644400000000003 0.950508 -0.7847550000000001 -0.16823100000000002 u9190.dat
1 0 -23.924027999999993 -176.82923900000003 208.006532 -0.20989400000000002 -0.510396 -0.9628510000000001 0.185903 2.883736 -0.20989400000000002 0.959888 -0.6701030000000001 -0.169892 u9190.dat
1 0 -23.545416999999986 -178.968392 208.404856 -0.203689 -0.514361 -0.9639490000000001 0.150841 2.906142 -0.203689 0.967346 -0.561471 -0.171212 u9190.dat
1 0 -23.206582999999995 -180.882804 208.64522100000002 -0.194539 -0.5188950000000001 -0.965568 0.099147 2.931754 -0.194539 0.9758710000000002 -0.4013030000000001 -0.172721 u9190.dat
1 0 -22.86617000000001 -182.80614100000003 208.795122 -0.187186 -0.521427 -0.9668700000000001 0.057600000000000005 2.946064 -0.187186 0.9806340000000001 -0.272577 -0.173564 u9190.dat
1 0 -22.48110600000001 -184.98175200000003 208.785911 -0.173387 -0.523559 -0.969312 -0.020363 2.958108 -0.173387 0.984643 -0.031019000000000005 -0.17427300000000004 u9190.dat
1 0 -22.097807999999986 -187.147386 208.57288800000003 -0.157857 -0.521902 -0.9720610000000001 -0.10810800000000001 2.9487440000000005 -0.157857 0.9815260000000001 0.240847 -0.173721 u9190.dat
1 0 -21.72178199999999 -189.271929 208.09217500000003 -0.13785 -0.513352 -0.975602 -0.22115 2.9004420000000004 -0.13785 0.965448 0.591089 -0.17087600000000003 u9190.dat
1 0 -21.399269000000004 -191.094133 207.44521700000004 -0.118773 -0.498148 -0.9789780000000001 -0.32893300000000003 2.814539 -0.118773 0.9368540000000001 0.9250400000000001 -0.165815 u9190.dat
1 0 -21.10234700000001 -192.77173900000003 206.46223700000004 -0.093691 -0.4665 -0.9834180000000001 -0.47064700000000004 2.6357230000000005 -0.093691 0.8773330000000001 1.364119 -0.15528 u9190.dat
1 0 -20.804435000000012 -194.45494200000002 205.057844 -0.067102 -0.415295 -0.9881240000000001 -0.620874 2.346415 -0.067102 0.781033 1.8295760000000003 -0.138236 u9190.dat
1 0 -20.557894000000005 -195.84789999999998 203.356575 -0.043451000000000004 -0.348205 -0.9923100000000001 -0.7545010000000001 1.967356 -0.043451000000000004 0.654859 2.2436 -0.11590400000000001 u9190.dat
1 0 -20.384321999999997 -196.828581 201.66631 -0.026705 -0.28049900000000005 -0.995274 -0.849118 1.5848200000000001 -0.026705 0.527527 2.536758 -0.093368 u9190.dat
1 0 -20.25072900000001 -197.58338300000003 199.858996 -0.016482 -0.22389600000000004 -0.9970830000000002 -0.906876 1.265014 -0.016482 0.421076 2.715711 -0.074527 u9190.dat
1 0 -20.14073300000001 -198.204859 197.739988 -0.008323 -0.161077 -0.9985270000000002 -0.9529750000000001 0.910085 -0.008323 0.302933 2.8585450000000003 -0.053616000000000004 u9190.dat
1 0 -20.067536999999987 -198.61841800000005 195.57022500000002 -0.0037600000000000003 -0.109007 -0.9993340000000001 -0.978753 0.615891 -0.0037600000000000003 0.205007 2.938413 -0.036284 u9190.dat
1 0 -20.02176 -198.87705800000003 193.37690000000003 -0.001516 -0.069437 -0.999732 -0.991436 0.39231800000000006 -0.001516 0.13058800000000004 2.977708 -0.023113 u9190.dat
1 0 -20.002334999999988 -198.98680600000003 191.421082 -0.0004180000000000001 -0.036502 -0.999926 -0.9976410000000001 0.20623500000000003 -0.0004180000000000001 0.06864800000000001 2.996934 -0.01215 u9190.dat
1 0 -19.997690000000006 -199.01305000000005 189.53222100000002 -0.000069 -0.014828000000000001 -0.999988 -0.9996110000000001 0.083776 -0.000069 0.027886000000000005 3.003038 -0.004936000000000001 u9190.dat
1 72 147 -80 170 1 0 0 0 1 0 0 0 1 32209.dat
1 4 -20 -214.00000000000003 150 -1 0 0 0 1 0 0 0 -1 3069b.dat
1 72 -147 -100 -230 -1 0 0 0 -1 0 0 0 1 32209.dat
1 71 -110 -100 -230 0 0 1 -1 0 0 0 -1 0 58120.dat
1 72 20 -206 160 0 0 -1 0 1 0 1 0 0 58124c01.dat
1 0 9.834753000000006 -100.043613 -205.11058000000003 -0.709728 -2.114058 -0.011829 0.000029 0.050307 -0.9998600000000001 0.704476 -2.129823 -0.011876000000000001 u9190.dat
1 0 11.374049999999997 -100.145312 -203.53827800000002 -0.713549 -2.100069 -0.035297 0.008571 0.125032 -0.999095 0.700552 -2.14056 -0.023729000000000004 u9190.dat
1 0 12.899805000000002 -100.307836 -201.95790200000002 -0.717637 -2.0823230000000006 -0.06028800000000001 0.017226000000000005 0.20666400000000001 -0.997478 0.6962040000000002 -2.151544 -0.037464 u9190.dat
1 0 14.411475999999993 -100.525538 -200.370634 -0.721344 -2.06333 -0.08391300000000002 0.025959 0.28284 -0.9952110000000001 0.6920900000000001 -2.161155 -0.05013200000000001 u9190.dat
1 0 15.732090000000001 -100.78571500000001 -198.955673 -0.7262440000000001 -2.035555 -0.112195 0.0349 0.38003100000000006 -0.991337 0.6865510000000001 -2.172559 -0.068288 u9190.dat
1 0 17.036803000000006 -101.09307100000001 -197.53547700000001 -0.729531 -2.012961 -0.134002 0.043785 0.44937200000000005 -0.9877580000000001 0.682545 -2.1803600000000003 -0.079863 u9190.dat
1 0 18.488204999999994 -101.49450700000001 -195.927888 -0.7336320000000001 -1.9831770000000002 -0.158648 0.052858 0.532034 -0.982742 0.677488 -2.189034 -0.095122 u9190.dat
1 0 19.912746 -101.96136100000001 -194.313976 -0.7381880000000001 -1.94766 -0.184288 0.062113 0.620194 -0.9764430000000001 0.671729 -2.197703 -0.11223200000000001 u9190.dat
1 0 21.312277999999992 -102.48317 -192.69508400000004 -0.7420500000000001 -1.9133560000000003 -0.207241 0.071366 0.697116 -0.9700300000000001 0.666534 -2.204772 -0.12686 u9190.dat
1 0 22.52483799999999 -103.00197500000002 -191.254991 -0.746556 -1.8722700000000003 -0.23131700000000002 0.08085800000000001 0.7804310000000001 -0.962209 0.66039 -2.212115 -0.14368600000000004 u9190.dat
1 0 23.714294 -103.562674 -189.81133400000002 -0.7494650000000002 -1.839314 -0.25047 0.090101 0.8415430000000002 -0.955648 0.655884 -2.217352 -0.154926 u9190.dat
1 0 25.02120400000001 -104.25289599999999 -188.178002 -0.7544790000000001 -1.7898610000000001 -0.274079 0.09995900000000002 0.925352 -0.9460180000000001 0.648668 -2.224419 -0.173005 u9190.dat
1 0 26.293802999999997 -104.99457200000002 -186.540251 -0.758837 -1.7427130000000002 -0.29498 0.109801 0.9975800000000001 -0.9367320000000001 0.6419580000000001 -2.2306280000000003 -0.188467 u9190.dat
1 0 27.533624000000003 -105.781518 -184.898506 -0.762615 -1.6976500000000003 -0.313809 0.11959900000000001 1.060876 -0.927769 0.6357 -2.236168 -0.20191200000000004 u9190.dat
1 0 28.596656999999993 -106.52468800000001 -183.43873900000003 -0.7672480000000002 -1.644816 -0.333155 0.129816 1.128509 -0.917479 0.628075 -2.242536 -0.21734500000000004 u9190.dat
1 0 29.629481999999996 -107.302276 -181.975226 -0.7703330000000002 -1.601874 -0.34889400000000004 0.139625 1.178599 -0.9090090000000001 0.622167 -2.247849 -0.227983 u9190.dat
1 0 30.758735 -108.216757 -180.31981 -0.7746750000000001 -1.5484750000000003 -0.365641 0.15004 1.235763 -0.898865 0.614302 -2.254558 -0.241554 u9190.dat
1 0 31.846141999999986 -109.17080300000002 -178.658676 -0.7793050000000001 -1.491992 -0.38152700000000006 0.160762 1.290163 -0.888466 0.605672 -2.262158 -0.255079 u9190.dat
1 0 32.89907400000001 -110.15420200000001 -176.99249000000003 -0.7827070000000002 -1.44354 -0.39501800000000004 0.17111700000000002 1.332356 -0.8795740000000001 0.598405 -2.269127 -0.26516 u9190.dat
1 0 33.79192900000001 -111.05720400000001 -175.508979 -0.787458 -1.3844520000000002 -0.40881600000000007 0.18228900000000003 1.378522 -0.869373 0.588797 -2.278352 -0.277597 u9190.dat
1 0 34.65481500000001 -111.98005600000002 -174.019998 -0.790049 -1.3408220000000002 -0.419811 0.192561 1.408512 -0.861789 0.582016 -2.286091 -0.284743 u9190.dat
1 0 35.591533999999996 -113.042814 -172.33327500000001 -0.794049 -1.286286 -0.431058 0.20374000000000003 1.442059 -0.8530140000000002 0.572692 -2.296487 -0.294203 u9190.dat
1 0 37.33376999999999 -115.19767200000001 -168.97401400000004 -0.801341 -2.053769 -0.442553 0.21712800000000002 2.518911 -0.8421200000000001 0.557412 -3.933707 -0.308189 u9190.dat
1 0 38.844987 -117.30772100000002 -165.72879400000002 -0.808912 -1.871153 -0.4595540000000001 0.240605 2.585612 -0.8278550000000001 0.5364420000000001 -3.9812470000000006 -0.321662 u9190.dat
1 0 39.526825 -118.334883 -164.14964300000003 -0.8097710000000001 -1.039742 -0.47356000000000004 0.260205 1.5347660000000003 -0.819024 0.525895 -2.360371 -0.323945 u9190.dat
1 0 40.91482400000001 -120.575089 -160.682906 -0.8166180000000001 -1.6383210000000001 -0.479633 0.274985 2.623749 -0.8123960000000001 0.507463 -4.058174 -0.33161 u9190.dat
1 0 42.10771600000001 -122.70682200000002 -157.321352 -0.8219160000000001 -1.478323 -0.490427 0.299161 2.6182680000000005 -0.804494 0.484724 -4.12264 -0.335069 u9190.dat
1 0 43.182299 -124.811656 -153.903332 -0.825279 -1.339606 -0.4999910000000001 0.32267700000000005 2.5890110000000006 -0.799023 0.463458 -4.188007000000001 -0.334023 u9190.dat
1 0 43.721903 -125.936922 -152.027185 -0.8252520000000001 -0.728044 -0.510016 0.343906 1.502104 -0.794511 0.44798200000000005 -2.494304 -0.3296 u9190.dat
1 0 44.627893 -127.94673500000002 -148.564771 -0.8293810000000001 -1.136181 -0.512394 0.35885300000000003 2.5034290000000006 -0.7940540000000001 0.4281960000000001 -4.298705 -0.32700200000000007 u9190.dat
1 0 45.44160900000001 -129.911724 -144.994796 -0.8304260000000001 -1.016512 -0.520295 0.38250400000000007 2.424448 -0.792425 0.405072 -4.373292 -0.318366 u9190.dat
1 0 46.16713999999999 -131.798816 -141.364466 -0.8307730000000001 -0.9006990000000001 -0.527882 0.4063530000000001 2.325705 -0.79192 0.38038700000000003 -4.451602 -0.30692600000000003 u9190.dat
1 0 46.48199700000001 -132.671978 -139.58902899999998 -0.827559 -0.4850940000000001 -0.537608 0.427003 1.321967 -0.789722 0.364436 -2.650473 -0.295493 u9190.dat
1 0 47.112570000000005 -134.502101 -135.68827299999998 -0.8289960000000001 -0.7461230000000001 -0.5398000000000001 0.441261 2.153212 -0.7919730000000001 0.343589 -4.565513 -0.285297 u9190.dat
1 0 47.63350700000001 -136.134243 -131.902558 -0.8268550000000001 -0.647972 -0.5478910000000001 0.464499 2.01587 -0.7925690000000001 0.3170990000000001 -4.642556 -0.267675 u9190.dat
1 0 47.85640799999999 -136.874921 -130.05445400000002 -0.821576 -0.344818 -0.558402 0.4844760000000001 1.127216 -0.7900810000000001 0.300492 -2.7601460000000007 -0.252901 u9190.dat
1 0 48.297799 -138.403923 -126.00103500000002 -0.8211040000000001 -0.523026 -0.5615000000000001 0.49765300000000007 1.8021850000000001 -0.792212 0.279517 -4.74505 -0.238993 u9190.dat
1 0 48.654267000000004 -139.729957 -122.079106 -0.8163140000000001 -0.44436300000000006 -0.571006 0.519411 1.6418850000000003 -0.791628 0.252672 -4.810788 -0.217434 u9190.dat
1 0 48.806105 -140.323174 -120.17159 -0.808798 -0.23529 -0.582837 0.53789 0.9065060000000001 -0.787051 0.237739 -2.851457 -0.20211800000000002 u9190.dat
1 0 48.95846800000001 -140.938625 -118.06212700000002 -0.806013 -0.211864 -0.587674 0.548778 0.8490550000000001 -0.7866470000000001 0.221779 -2.870913 -0.189278 u9190.dat
1 0 49.22438700000001 -142.05953 -113.86266300000001 -0.8033610000000001 -0.3156900000000001 -0.5922700000000001 0.56004 1.3244180000000003 -0.7867560000000001 0.202402 -4.91764 -0.17386800000000002 u9190.dat
1 0 49.432046000000014 -142.992934 -109.818899 -0.795649 -0.259716 -0.603615 0.579299 1.16007 -0.7827680000000001 0.17707200000000003 -4.962229000000001 -0.151403 u9190.dat
1 0 49.51587900000001 -143.389962 -107.857026 -0.7864080000000001 -0.131855 -0.616144 0.596534 0.6149910000000001 -0.77599 0.160343 -2.934675 -0.134933 u9190.dat
1 0 49.673215000000006 -144.162809 -103.57441300000002 -0.7825720000000002 -0.18771200000000002 -0.621472 0.606563 0.9173890000000001 -0.7744400000000001 0.140222 -5.015983 -0.11838300000000002 u9190.dat
1 0 49.790204999999986 -144.772124 -99.46569500000003 -0.7729540000000001 -0.14708 -0.633807 0.62364 0.761362 -0.7673400000000001 0.116688 -5.043374 -0.097356 u9190.dat
1 0 49.875181 -145.243507 -95.33792 -0.762791 -0.109735 -0.646287 0.639986 0.60186 -0.759279 0.092559 -5.065832 -0.076208 u9190.dat
1 0 49.937836000000004 -145.607741 -91.19915599999999 -0.7519930000000001 -0.079483 -0.658987 0.6553370000000001 0.459267 -0.749955 0.070995 -5.081307000000001 -0.057476 u9190.dat
1 0 49.976373 -145.84566999999998 -87.05078599999999 -0.740789 -0.051375 -0.671662 0.6699710000000001 0.313232 -0.739845 0.04868000000000001 -5.092757 -0.038729 u9190.dat
1 0 49.99691000000002 -145.978901 -82.64762200000001 -0.7291950000000001 -0.025814000000000004 -0.684287 0.6838140000000001 0.165988 -0.728931 0.025947 -5.0998730000000005 -0.020261 u9190.dat
1 0 50.00025700000001 -146.200735 -70.136662 -0.71718 -0.005368 -0.696888 0.696768 0.24489700000000003 -0.717067 0.012919000000000002 -13.505696 -0.012725000000000002 u9190.dat
1 0 50 -146.41636900000003 -63.880615000000006 -0.687656 0 -0.726037 0.7256430000000001 0.23716100000000004 -0.6872830000000001 0.023902000000000003 -7.200054 -0.022638 u9190.dat
1 0 50 -147.25178800000003 -42.725345000000004 -0.673665 0 -0.739037 0.738464 0.862687 -0.673143 0.029095000000000003 -21.896208 -0.026521000000000003 u9190.dat
1 0 50 -148.165838 -21.718846000000017 -0.623819 0 -0.781569 0.7808330000000001 0.950744 -0.623232 0.03391 -21.892562000000005 -0.027066 u9190.dat
1 0 50 -149.115927 -0.7139319999999998 -0.5691820000000001 0 -0.822212 0.8213730000000001 0.989346 -0.568602 0.037122 -21.890851 -0.025698000000000002 u9190.dat
1 0 50 -150.08424200000002 20.29015100000001 -0.510133 0 -0.8600960000000001 0.8591840000000001 1.008745 -0.509592 0.039593 -21.889966 -0.023483000000000004 u9190.dat
1 0 50 -151.060155 41.293882999999994 -0.447284 0 -0.894392 0.893428 1.016901 -0.44680200000000003 0.04150500000000001 -21.889588 -0.020757 u9190.dat
1 0 50 -152.035582 62.297638000000006 -0.381463 0 -0.9243840000000001 0.923389 1.0165730000000002 -0.38105200000000006 0.042883000000000004 -21.889604 -0.017696 u9190.dat
1 0 50 -153.00220000000002 83.30180000000001 -0.313659 0 -0.9495360000000002 0.9485320000000002 1.007576 -0.313327 0.043660000000000004 -21.89002 -0.014422000000000003 u9190.dat
1 0 50 -153.938078 104.057102 -0.244954 0 -0.9695350000000001 0.9685500000000001 0.987513 -0.24470500000000003 0.043692 -21.890934000000005 -0.011039 u9190.dat
1 0 50 -154.835105 124.81411800000002 -0.176437 0 -0.984312 0.9833920000000002 0.9474470000000002 -0.17627200000000004 0.042558 -21.892704 -0.007628000000000001 u9190.dat
1 0 50 -155.6524 145.82460099999997 -0.10912400000000001 0 -0.9940280000000001 0.9932730000000001 0.8537420000000001 -0.109041 0.038728 -21.896559 -0.004251 u9190.dat
1 0 50 -155.99499600000001 158.488343 -0.043892 0 -0.999036 0.9986600000000001 0.370744 -0.043876 0.02742 -13.502829 -0.001205 u9190.dat
1 0 49.99654400000001 -156.00685800000002 160.694215 -0.006057 0.003987 -0.999981 0.9999440000000002 0.026225 -0.006045 0.008730000000000002 -3.0012020000000006 -0.0013810000000000003 u9190.dat
1 0 49.96028000000002 -156.05705799999998 162.89601699999997 0 0.042442 -0.9999000000000001 0.999787 0.061930000000000006 0.000292 0.020636 -3.0003800000000003 -0.014138 u9190.dat
1 0 49.864247000000006 -156.194583 165.092627 0 0.117289 -0.999236 0.9984270000000001 0.16814 0.002191 0.056065000000000004 -2.99431 -0.039018 u9190.dat
1 0 49.74094700000001 -156.371309 167.03356200000002 0 0.177259 -0.9982540000000001 0.996398 0.254073 0.005008 0.084802 -2.9852880000000006 -0.058848 u9190.dat
1 0 49.567882 -156.619369 168.963217 0 0.24386900000000003 -0.9966930000000002 0.99315 0.349546 0.009495 0.11685000000000001 -2.970903 -0.080697 u9190.dat
1 0 49.32609299999999 -156.965934 171.12520700000002 0 0.31634500000000004 -0.99443 0.9883920000000002 0.4534290000000001 0.016013 0.151923 -2.9499570000000004 -0.10417900000000001 u9190.dat
1 0 49.032446 -157.38682699999998 173.267446 0 0.387293 -0.9916390000000002 0.9824520000000001 0.55512 0.024068000000000003 0.186518 -2.9239980000000005 -0.126776 u9190.dat
1 0 48.695595000000004 -157.869647 175.39015799999999 0 0.448007 -0.9887960000000001 0.9763100000000001 0.642144 0.032299 0.216378 -2.8973880000000003 -0.145734 u9190.dat
1 0 48.336804 -158.383914 177.24016899999998 0 0.53389 -0.9840510000000001 0.9658500000000001 0.765242 0.046090000000000006 0.259101 -2.8525930000000006 -0.17181 u9190.dat
1 0 47.94824700000001 -158.940846 179.07134200000002 0 0.5814240000000002 -0.9810560000000002 0.9591110000000002 0.8333740000000001 0.054830000000000004 0.283031 -2.8240670000000003 -0.18580200000000002 u9190.dat
1 0 47.458698999999996 -159.64253100000002 181.10134200000002 0 0.65396 -0.975973 0.947418 0.937342 0.069725 0.319999 -2.775184 -0.20643400000000003 u9190.dat
1 0 46.922913 -160.410492 183.09518300000005 0 0.718452 -0.970926 0.9354780000000001 1.029782 0.08459300000000002 0.353384 -2.7260400000000002 -0.22393400000000002 u9190.dat
1 0 46.33558 -161.25233500000004 185.04425700000002 0 0.787814 -0.9649350000000001 0.920854 1.1292 0.10234600000000002 0.389907 -2.6668660000000006 -0.24171400000000004 u9190.dat
1 0 45.78266199999999 -162.044851 186.74111299999998 0 0.8394000000000001 -0.9600940000000001 0.9086620000000001 1.203139 0.11677400000000002 0.417532 -2.6183550000000007 -0.254132 u9190.dat
1 0 45.181985 -162.905822 188.38822800000003 0 0.9024120000000001 -0.9537280000000001 0.8920830000000001 1.293457 0.135865 0.45187200000000005 -2.553535 -0.268224 u9190.dat
1 0 44.466361000000006 -163.931549 190.201605 0 0.9640300000000002 -0.947011 0.8738750000000001 1.381777 0.156153 0.4861500000000001 -2.483799 -0.280691 u9190.dat
1 0 43.714177000000014 -165.00967900000003 191.96905800000002 0 1.015666 -0.9410000000000001 0.8569130000000001 1.455788 0.174436 0.515462 -2.420129 -0.289985 u9190.dat
1 0 42.91282699999999 -166.15828199999999 193.66966200000005 0 1.0802580000000002 -0.93298 0.8332110000000001 1.54837 0.199024 0.552956 -2.333133 -0.299896 u9190.dat
1 0 42.164251000000014 -167.23124 195.11994099999998 0 1.138629 -0.925243 0.8090730000000002 1.6320350000000001 0.22296200000000002 0.587708 -2.246754 -0.306943 u9190.dat
1 0 41.38471799999999 -168.348572 196.51944300000002 0 1.18335 -0.9189920000000001 0.7885700000000001 1.6961340000000003 0.242458 0.614945 -2.175024 -0.310915 u9190.dat
1 0 40.469420000000014 -169.66049800000005 198.03394400000002 0 1.237499 -0.9110400000000001 0.7610460000000001 1.7737480000000003 0.26747 0.648698 -2.080945 -0.313793 u9190.dat
1 0 39.515546 -171.02771700000002 199.47390100000004 0 1.2903200000000001 -0.902868 0.7308780000000001 1.849459 0.293422 0.682509 -1.980529 -0.314217 u9190.dat
1 0 38.52397300000001 -172.448972 200.833912 0 1.3419120000000002 -0.8944800000000002 0.6976340000000001 1.9234070000000003 0.32033200000000006 0.7164540000000001 -1.8728840000000002 -0.311918 u9190.dat
1 0 37.61412999999999 -173.75308 201.967713 0 1.38898 -0.8864680000000001 0.663376 1.9908720000000002 0.3463 0.7482870000000001 -1.7649590000000002 -0.307003 u9190.dat
1 0 36.67153400000001 -175.10413499999999 203.017207 0 1.4340470000000003 -0.878466 0.626274 2.055467 0.372499 0.779603 -1.6512060000000002 -0.299237 u9190.dat
1 0 35.57751999999999 -176.672221 204.11133500000003 0 1.482222 -0.869543 0.580779 2.124519 0.40203 0.8140610000000001 -1.5157030000000002 -0.286822 u9190.dat
1 0 34.45044200000001 -178.28770000000003 205.09777900000003 0 1.5277560000000001 -0.8607500000000001 0.53057 2.1897840000000004 0.431473 0.8476410000000001 -1.3706660000000002 -0.27007500000000007 u9190.dat
1 0 33.29092399999999 -179.949675 205.96249 0 1.5720820000000002 -0.851843 0.472456 2.253318 0.46165100000000003 0.881354 -1.207905 -0.247471 u9190.dat
1 0 32.231779999999986 -181.467782 206.58844000000002 0 1.6184030000000003 -0.8421580000000001 0.397141 2.319711 0.4948830000000001 0.9177580000000001 -1.003808 -0.21415100000000004 u9190.dat
1 0 31.152253000000005 -183.015104 207.096506 0 1.649233 -0.835492 0.333634 2.363901 0.518018 0.9427030000000001 -0.836613 -0.183333 u9190.dat
1 0 29.91409300000001 -184.78980000000004 207.51149700000002 0 1.6817780000000002 -0.828258 0.24429500000000004 2.410549 0.543368 0.969701 -0.607285 -0.13689 u9190.dat
1 0 28.657614999999996 -186.590751 207.70281100000003 0 1.707875 -0.822309 0.12723 2.447955 0.564417 0.991873 -0.314006 -0.072399 u9190.dat
1 0 27.396460999999988 -188.398406 207.65077300000002 0 1.7172870000000002 -0.82013 -0.004793 2.461444 0.572171 0.999989 0.011798 0.002742 u9190.dat
1 0 26.29020299999999 -189.984042 207.35683899999998 0 1.7036890000000002 -0.823272 -0.152625 2.441955 0.560996 0.9882840000000002 0.377121 0.08663700000000002 u9190.dat
1 0 25.215795000000014 -191.52402800000002 206.80498200000002 0 1.665568 -0.831887 -0.292828 2.387314 0.530619 0.956165 0.73112 0.162503 u9190.dat
1 0 24.071155000000005 -193.16467799999998 205.87705999999997 0 1.578065 -0.8506140000000001 -0.463711 2.2618930000000006 0.465843 0.8859860000000002 1.183839 0.243815 u9190.dat
1 0 23.03747899999999 -194.64628000000002 204.61114199999997 0 1.436754 -0.8779740000000001 -0.6238900000000001 2.059348 0.374116 0.781512 1.644002 0.298661 u9190.dat
1 0 22.150671999999986 -195.91737 203.04015600000002 0 1.245216 -0.909872 -0.7568570000000001 1.7848090000000003 0.271164 0.653581 2.0668370000000005 0.31401200000000007 u9190.dat
1 0 21.506933000000004 -196.840062 201.43869999999998 0 1.033925 -0.93879 -0.8505070000000001 1.4819590000000002 0.181189 0.525963 2.3963970000000003 0.292991 u9190.dat
1 0 20.995899000000012 -197.572544 199.69626300000002 0 0.848141 -0.9592410000000001 -0.906477 1.215668 0.119325 0.422255 2.6097370000000004 0.256161 u9190.dat
1 0 20.567845000000005 -198.186089 197.621695 0 0.6245670000000001 -0.978108 -0.9523690000000001 0.8952130000000001 0.063459 0.304949 2.795788 0.19818600000000003 u9190.dat
1 0 20.26346000000001 -198.622373 195.48297000000005 0 0.447281 -0.9888330000000001 -0.976389 0.641103 0.032193 0.21601900000000002 2.8977310000000003 0.145509 u9190.dat
1 0 20.075716999999997 -198.891472 193.303335 0 0.285315 -0.995471 -0.990588 0.408952 0.013012 0.136877 2.959607 0.094169 u9190.dat
1 0 20.006969999999995 -198.99000999999998 191.35222800000005 0 0.136152 -0.9989710000000002 -0.997879 0.19515100000000002 0.0029530000000000003 0.065089 2.991872 0.045268 u9190.dat
1 0 19.990888000000012 -199.013061 189.499702 0 0.054636 -0.999834 -0.999659 0.07831200000000002 0.00047500000000000005 0.026097 2.9998000000000005 0.018198 u9190.dat
1 1 20 -214.00000000000003 150 -1 0 0 0 1 0 0 0 -1 3069b.dat
1 71 0 -100 -10 0 1 0 0 0 1 1 0 0 58119.dat
1 4 20 -120 -110 0 1 0 1 0 0 0 0 -1 32054.dat
1 4 -20 -120 -110 0 1 0 1 0 0 0 0 -1 32054.dat
1 4 -80 -110 10 0 1 0 1 0 0 0 0 -1 32054.dat
1 71 0 -100 -130 -1 0 0 0 0 1 0 1 0 63869.dat
1 72 -20 -120 90 0 -1 0 -1 0 0 0 0 -1 11214.dat
1 72 20 -120 90 0 -1 0 -1 0 0 0 0 -1 11214.dat
1 71 20 -140 90 -1 0 0 0 0 1 0 1 0 32039.dat
1 71 -20 -140 90 -1 0 0 0 0 1 0 1 0 32039.dat
1 71 0 -100 110 -1 0 0 0 0 -1 0 -1 0 63869.dat
1 71 0 -160 90 -1 0 0 0 1 0 0 0 -1 4519.dat
1 71 0 -160 90 -1 0 0 0 -1 0 0 0 1 63869.dat
1 0 10 -180 100 0 0 1 0 -1 0 1 0 0 2780.dat
1 0 -20 -180 100 0 0 1 0 -1 0 1 0 0 2780.dat
1 71 0 -190 140 1 0 0 0 1 0 0 0 1 58123.dat
1 72 -86 -100 -50 0 1 0 -1 0 0 0 0 1 58124c01.dat
1 0 -0.102069 -179.897931 182.59967200000003 -0.000103 0.117713 0.999231 -0.99923 -0.117713 0.001435 0.039228 -2.998109 0.039176 u9190.dat
1 0 -0.38593800000000006 -179.614062 184.76989400000002 0.013359000000000001 0.345461 0.99327 -0.993001 -0.345461 0.026681 0.117344 -2.9627160000000003 0.11270700000000002 u9190.dat
1 0 -0.855815 -179.144185 186.87485500000003 0.02536 0.594966 0.9798450000000001 -0.9779900000000001 -0.594966 0.06538 0.207103 -2.88243 0.18875600000000003 u9190.dat
1 0 -1.5120880000000003 -178.487912 188.878063 0.035293 0.8482200000000001 0.9586230000000001 -0.951951 -0.8482200000000001 0.118288 0.30421 -2.75271 0.258941 u9190.dat
1 0 -2.247111 -177.75288900000004 190.537757 0.042893 1.081467 0.931903 -0.9151 -1.081467 0.181315 0.40093900000000005 -2.584033 0.3141360000000001 u9190.dat
1 0 -3.132549 -176.867451 192.046647 0.047828 1.290724 0.901632 -0.867328 -1.290724 0.250939 0.49543300000000007 -2.3842050000000006 0.352263 u9190.dat
1 0 -4.253777000000001 -175.746223 193.582309 0.048751 1.49141 0.8665600000000001 -0.80281 -1.49141 0.32984900000000006 0.594239 -2.137232 0.37453000000000003 u9190.dat
1 0 -5.493800000000001 -174.5062 194.92189300000004 0.046162 1.659351 0.832157 -0.727126 -1.659351 0.407313 0.68495 -1.873359 0.376311 u9190.dat
1 0 -6.832716 -173.167284 196.056227 0.039685 1.7986760000000002 0.799755 -0.6405880000000002 -1.7986760000000002 0.480447 0.766859 -1.595588 0.359949 u9190.dat
1 0 -8.08578 -171.91422 196.888238 0.030621 1.903053 0.772911 -0.5523 -1.903053 0.541566 0.833083 -1.3315960000000002 0.330627 u9190.dat
1 0 -9.390987000000003 -170.609013 197.54292300000003 0.019575000000000002 1.9793170000000002 0.7517370000000001 -0.46607000000000004 -1.9793170000000002 0.590144 0.8845310000000001 -1.08673 0.294317 u9190.dat
1 0 -10.895614 -169.10438600000003 198.12570399999998 0.005404 2.038739 0.7341530000000001 -0.3758250000000001 -2.038739 0.630687 0.9266750000000001 -0.8387250000000002 0.251502 u9190.dat
1 0 -12.43047 -167.56953 198.52054600000002 -0.011796000000000001 2.08271 0.7202580000000001 -0.280873 -2.08271 0.663341 0.959673 -0.583958 0.20299700000000004 u9190.dat
1 0 -13.983334000000001 -166.016666 198.73342300000004 -0.030195 2.109994 0.7108530000000001 -0.186114 -2.109994 0.68672 0.9820640000000002 -0.334998 0.151999 u9190.dat
1 0 -15.366686000000001 -164.63331399999998 198.76808800000003 -0.047638 2.122048 0.705901 -0.09495500000000001 -2.122048 0.7011060000000001 0.9943410000000001 -0.100981 0.100771 u9190.dat
1 0 -16.748255 -163.251745 198.651237 -0.062112 2.121834 0.704846 -0.010562 -2.121834 0.7074990000000001 0.998013 0.10959700000000001 0.051354 u9190.dat
1 0 -18.294877 -161.70512300000001 198.360835 -0.079419 2.1086360000000006 0.7074970000000002 0.086214 -2.1086360000000006 0.706701 0.9931060000000002 0.351684 -0.004772 u9190.dat
1 0 -19.819094 -160.180906 197.88889 -0.09885600000000001 2.080702 0.714188 0.182345 -2.080702 0.697559 0.978252 0.598103 -0.057853 u9190.dat
1 0 -21.304362 -158.69563800000003 197.210492 -0.125032 2.031344 0.725751 0.28393500000000005 -2.031344 0.6795060000000002 0.9506570000000001 0.873872 -0.10749800000000001 u9190.dat
1 0 -22.582271 -157.417729 196.460515 -0.149945 1.974317 0.738376 0.36436 -1.974317 0.6594880000000001 0.9191070000000001 1.104768 -0.14098 u9190.dat
1 0 -23.803865 -156.196135 195.539824 -0.178678 1.9010630000000002 0.753155 0.440275 -1.9010630000000002 0.6366530000000001 0.8799050000000002 1.337269 -0.16562 u9190.dat
1 0 -25.104042 -154.895958 194.31928600000003 -0.21621600000000002 1.7910230000000003 0.772968 0.525007 -1.7910230000000003 0.607122 0.823176 1.612714 -0.184184 u9190.dat
1 0 -26.300116 -153.699884 192.9007 -0.2562340000000001 1.6538300000000001 0.794349 0.6035060000000001 -1.6538300000000001 0.576564 0.755066 1.8831 -0.19126900000000002 u9190.dat
1 0 -27.349906 -152.650094 191.264676 -0.301949 1.463869 0.819242 0.6842720000000001 -1.463869 0.5423120000000001 0.663775 2.174981 -0.186388 u9190.dat
1 0 -28.157870000000003 -151.84213 189.674287 -0.340719 1.278637 0.8382030000000001 0.7419180000000001 -1.278637 0.517909 0.577467 2.397195 -0.17084100000000002 u9190.dat
1 0 -28.81787 -151.18213 187.95104300000003 -0.376765 1.080009 0.8536280000000002 0.7881690000000001 -1.080009 0.499423 0.48666 2.5852530000000002 -0.147972 u9190.dat
1 0 -29.393286 -150.606714 185.898495 -0.41327200000000003 0.8294270000000001 0.8677020000000001 0.8305990000000001 -0.8294270000000001 0.483534 0.373244 2.76414 -0.115276 u9190.dat
1 0 -29.781259000000002 -150.218741 183.759455 -0.443615 0.574617 0.875548 0.858053 -0.574617 0.476576 0.258749 2.890675 -0.07930900000000002 u9190.dat
1 0 -29.982619 -150.017381 181.56920100000002 -0.4676350000000001 0.320213 0.877465 0.8720280000000001 -0.320213 0.477698 0.14451600000000003 2.9683830000000007 -0.043125 u9190.dat
1 0 -30.014202 -149.98691300000002 179.611318 -0.485023 0.09450300000000002 0.8739350000000001 0.8734740000000001 -0.093081 0.48588400000000004 0.042383 2.999796 -0.012455 u9190.dat
1 0 -30.041288 -149.998789 177.655524 -0.497937 0.05476600000000001 0.867021 0.867132 -0.009485 0.49806800000000007 0.011823 3.0022130000000002 -0.014242000000000001 u9190.dat
1 0 -30.265665 -149.999996 173.30167200000002 -0.507179 0.24856000000000003 0.8604650000000001 0.8614860000000001 -0.000056000000000000006 0.507782 0.024731000000000003 5.099400000000001 -0.041936 u9190.dat
1 0 -30.741266 -150 167.004634 -0.525488 0.5328730000000002 0.8475830000000001 0.849909 0 0.52693 0.038954 7.188458 -0.062831 u9190.dat
1 0 -31.928364000000002 -150 154.482174 -0.554751 1.264112 0.826743 0.8303830000000001 0 0.557194 0.052111 13.45712 -0.077661 u9190.dat
1 0 -32.357077 -150 150.388266 -0.619983 0.52702 0.777795 0.7819720000000001 0 0.623313 0.06434300000000001 5.07818 -0.080721 u9190.dat
1 0 -33.71969800000001 -150 137.93533 -0.643131 1.466797 0.758028 0.7625310000000001 0 0.646952 0.07020700000000002 13.436538000000002 -0.08275000000000002 u9190.dat
1 0 -34.923738 -150 127.42545200000002 -0.717218 1.296921 0.687523 0.692005 0 0.721893 0.08202800000000002 11.339712000000002 -0.078632 u9190.dat
1 0 -35.898735 -150 119.109233 -0.781831 1.082872 0.612547 0.616732 0 0.787173 0.091549 9.247724 -0.07172700000000001 u9190.dat
1 0 -36.911106000000004 -150 110.59741000000001 -0.8331710000000001 1.098745 0.540278 0.54408 0 0.8390330000000001 0.09901100000000002 9.245852 -0.064205 u9190.dat
1 0 -37.932735 -150 102.08669200000001 -0.8817160000000002 1.109414 0.456487 0.459762 0 0.888042 0.105812 9.244578 -0.054782 u9190.dat
1 0 -38.93076 -150 93.824939 -0.924599 1.11624 0.36158500000000005 0.364212 0 0.931316 0.111651 9.243756 -0.043664 u9190.dat
1 0 -39.93166600000001 -150 85.563533 -0.958829 1.119665 0.257266 0.259147 0 0.965838 0.116145 9.243342000000002 -0.031163000000000003 u9190.dat
1 0 -40.932724 -150 77.302146 -0.98186 1.120018 0.14656200000000003 0.147634 0 0.989042 0.118973 9.243299 -0.017759 u9190.dat
1 0 -41.93124 -150 69.04045100000002 -0.992207 1.117353 0.033514 0.03375700000000001 0 0.99943 0.119936 9.243621 -0.004051000000000001 u9190.dat
1 0 -42.95410400000001 -150 60.52988200000001 -0.9898190000000001 1.111403 -0.077525 -0.07808300000000001 0 0.9969470000000001 0.119001 9.244339 0.009320000000000002 u9190.dat
1 0 -43.967716 -150 52.01820600000001 -0.97603 1.101297 -0.182688 -0.18398 0 0.9829300000000001 0.116261 9.245548 0.021761 u9190.dat
1 0 -44.939091 -150 43.753277 -0.9531060000000001 1.08764 -0.279184 -0.281108 0 0.959676 0.112103 9.247165000000003 0.032837 u9190.dat
1 0 -46.135416000000006 -150 33.345904000000004 -0.923757 1.304758 -0.365521 -0.367933 0 0.929852 0.106297 11.338813000000002 0.04206000000000001 u9190.dat
1 0 -46.826307 -150 27.165311000000006 -0.881648 0.8023170000000001 -0.458592 -0.46146 0 0.8871610000000001 0.098747 7.163391 0.051363 u9190.dat
1 0 -48.15748200000001 -150 14.657326 -0.8553660000000001 1.433495 -0.507051 -0.509927 0 0.8602180000000001 0.091232 13.440132 0.054081 u9190.dat
1 0 -49.159605000000006 -150 4.126306 -0.802618 1.085848 -0.588858 -0.591541 0 0.8062750000000001 0.076706 11.361866000000001 0.056277 u9190.dat
1 0 -49.652373 -150 -2.073204000000004 -0.760673 0.578771 -0.644151 -0.646237 0 0.763137 0.06127500000000001 7.184908000000001 0.051889 u9190.dat
1 0 -49.90036500000001 -150 -6.278199999999998 -0.737137 0.313129 -0.672955 -0.674224 0 0.738527 0.04529600000000001 5.095843000000001 0.041352 u9190.dat
1 0 -49.984137000000004 -150 -8.533491999999995 -0.722136 0.121159 -0.690573 -0.691136 0 0.7227250000000001 0.029162000000000004 3.0002820000000003 0.027887 u9190.dat
1 0 -50.010494 -150 -10.738900000000003 -0.714917 0.04894 -0.6990190000000001 -0.699112 0 0.715012 0.011654000000000001 3.0023280000000003 0.011394000000000001 u9190.dat
1 0 -50.091831000000006 -150.015279 -12.692588000000002 -0.706849 0.112042 -0.70638 -0.7066860000000001 0.01949 0.707498 0.030984000000000005 3.000573 0.021781000000000002 u9190.dat
1 0 -50.327388000000006 -150.05037099999998 -14.63488000000001 -0.711971 0.299554 -0.6950860000000001 -0.697408 0.045323 0.7165160000000002 0.081972 2.987404 0.058827000000000004 u9190.dat
1 0 -50.710585 -150.102691 -16.806679000000003 -0.713406 0.48778 -0.681662 -0.687993 0.067278 0.7253720000000001 0.133106 2.962079 0.09577700000000001 u9190.dat
1 0 -51.243984000000005 -150.16666100000003 -18.946506 -0.7092320000000001 0.6897940000000001 -0.666496 -0.679712 0.084071 0.732945 0.187035 2.921213 0.136288 u9190.dat
1 0 -51.913353 -150.235069 -21.047673000000003 -0.70123 0.87748 -0.650292 -0.67278 0.09175500000000002 0.7392110000000001 0.235889 2.870188 0.175177 u9190.dat
1 0 -52.617726000000005 -150.293913 -22.871789000000007 -0.6907010000000001 1.047056 -0.633514 -0.667317 0.09059700000000001 0.744162 0.278605 2.812799 0.211855 u9190.dat
1 0 -53.42028200000001 -150.345208 -24.655182 -0.68035 1.186312 -0.617282 -0.6629830000000001 0.08172 0.74814 0.312373 2.757237 0.243414 u9190.dat
1 0 -54.42511100000001 -150.388653 -26.618315999999993 -0.664922 1.340462 -0.598826 -0.661297 0.062618 0.749835 0.347225 2.6861890000000006 0.281346 u9190.dat
1 0 -55.531543 -150.409315 -28.526375 -0.6485240000000001 1.481218 -0.579725 -0.661695 0.033417 0.749691 0.3762670000000001 2.611752 0.31919 u9190.dat
1 0 -56.730650000000004 -150.399357 -30.377702000000003 -0.631795 1.609603 -0.5599 -0.664247 -0.006365 0.747511 0.399514 2.534859 0.35740700000000003 u9190.dat
1 0 -57.864692 -150.357961 -31.970586 -0.616688 1.719223 -0.540257 -0.668225 -0.053881 0.743743 0.41613800000000006 2.461248 0.39366100000000004 u9190.dat
1 0 -59.0626 -150.276964 -33.514723000000004 -0.604172 1.809656 -0.5213100000000002 -0.672972 -0.106825 0.738812 0.426714 2.393764 0.42707400000000006 u9190.dat
1 0 -60.474543 -150.134628 -35.203374 -0.5903590000000001 1.905279 -0.498865 -0.681174 -0.18049000000000004 0.72965 0.432989 2.313808 0.46770100000000003 u9190.dat
1 0 -61.952151 -149.91861800000004 -36.82697300000001 -0.578193 1.995608 -0.47328900000000007 -0.692009 -0.276724 0.715983 0.432224 2.226509 0.513193 u9190.dat
1 0 -63.476128 -149.628548 -38.39501200000001 -0.571417 2.062936 -0.44887000000000005 -0.701768 -0.37686400000000003 0.701263 0.425446 2.149102 0.553846 u9190.dat
1 0 -64.864634 -149.28916900000002 -39.73013 -0.568466 2.120575 -0.42202500000000004 -0.7120760000000002 -0.496737 0.682335 0.412061 2.067072 0.59692 u9190.dat
1 0 -66.279273 -148.858156 -41.01088200000001 -0.570884 2.159547 -0.39604300000000003 -0.72001 -0.6207640000000001 0.662455 0.394559 1.991828 0.635849 u9190.dat
1 0 -67.891428 -148.249461 -42.38841 -0.58036 2.189851 -0.362384 -0.728138 -0.7970090000000001 0.631951 0.364687 1.8935950000000001 0.685066 u9190.dat
1 0 -69.504939 -147.504189 -43.69514100000001 -0.597205 2.196236 -0.32921200000000006 -0.73073 -0.9815750000000001 0.599311 0.33072700000000005 1.797061 0.729689 u9190.dat
1 0 -71.097219 -146.575514 -44.908596999999986 -0.62662 2.172644 -0.289504 -0.725902 -1.221295 0.554651 0.283572 1.674643 0.7800960000000001 u9190.dat
1 0 -72.469026 -145.598015 -45.90499600000001 -0.662221 2.117948 -0.252897 -0.710634 -1.453803 0.5104770000000001 0.237618 1.554709 0.821861 u9190.dat
1 0 -73.766053 -144.43386900000002 -46.799375000000005 -0.7066270000000001 2.023786 -0.21546800000000002 -0.6820950000000001 -1.7050120000000002 0.46078800000000003 0.188216 1.419012 0.860958 u9190.dat
1 0 -75.113182 -142.928383 -47.689654999999995 -0.7642670000000001 1.8642540000000003 -0.17446100000000003 -0.631429 -1.9980090000000001 0.39817400000000003 0.131121 1.244543 0.900567 u9190.dat
1 0 -76.304779 -141.229927 -48.44399799999999 -0.8217350000000001 1.6605020000000001 -0.137639 -0.563981 -2.265668 0.335558 0.081709 1.061061 0.9319100000000001 u9190.dat
1 0 -77.27926100000002 -139.336077 -49.03210100000002 -0.882537 1.378518 -0.101816 -0.4689380000000001 -2.531562 0.26325 0.035016 0.8409840000000001 0.9593400000000001 u9190.dat
1 0 -77.956612 -137.539841 -49.42585399999999 -0.927862 1.097378 -0.074231 -0.37286800000000003 -2.719665 0.201543 0.006423000000000001 0.644634 0.976663 u9190.dat
1 0 -78.440064 -135.659292 -49.697171999999995 -0.9595120000000001 0.8309060000000001 -0.052582000000000004 -0.281536 -2.846363 0.14890800000000004 -0.008639 0.473479 0.987452 u9190.dat
1 0 -78.810814 -133.49343 -49.900193 -0.9821570000000001 0.555139 -0.034469 -0.18741000000000002 -2.93497 0.097462 -0.015672 0.306827 0.994642 u9190.dat
1 0 -78.988026 -131.29580099999998 -49.99413200000001 -0.9951370000000002 0.289539 -0.020107000000000003 -0.09732600000000001 -2.984692 0.050042 -0.015161000000000003 0.155408 0.9985450000000001 u9190.dat
1 0 -79.01950400000001 -129.34569299999998 -50.01025300000001 -0.9995140000000001 0.089456 -0.009147 -0.02993 -3.001026 0.015394 -0.008683 0.04702400000000001 0.9998400000000001 u9190.dat
1 4 180 -120 -130 0 0 -1 1 0 0 0 -1 0 3713.dat
1 15 195 -120 -130 0 0 -1 1 0 0 0 -1 0 42065 - 4185.dat
1 70 152 -120 -130 1 0 0 0 0 1 0 -1 0 15462.dat
1 71 145 -120 -130 0 0 -1 1 0 0 0 -1 0 32123a.dat
1 71 135 -120 -130 0 0 -1 1 0 0 0 -1 0 32123a.dat
1 4 180 -120 50 0 0 -1 1 0 0 0 -1 0 3713.dat
1 15 195 -120 50 0 0 -1 1 0 0 0 -1 0 42065 - 4185.dat
1 70 152 -120 50 1 0 0 0 0 1 0 -1 0 15462.dat
1 71 145 -120 50 0 0 -1 1 0 0 0 -1 0 32123a.dat
1 71 135 -120 50 0 0 -1 1 0 0 0 -1 0 32123a.dat
1 4 -179.00000000000003 -120 50 0 0 1 -1 0 0 0 -1 0 3713.dat
1 15 -194.00000000000003 -120 50 0 0 1 -1 0 0 0 -1 0 42065 - 4185.dat
1 70 -151 -120 50 -1 0 0 0 0 -1 0 -1 0 15462.dat
1 71 -144 -120 50 0 0 1 -1 0 0 0 -1 0 32123a.dat
1 71 -134 -120 50 0 0 1 -1 0 0 0 -1 0 32123a.dat
1 4 -180 -120 -130 0 0 1 -1 0 0 0 -1 0 3713.dat
1 15 -195 -120 -130 0 0 1 -1 0 0 0 -1 0 42065 - 4185.dat
1 70 -152 -120 -130 -1 0 0 0 0 -1 0 -1 0 15462.dat
1 71 -145 -120 -130 0 0 1 -1 0 0 0 -1 0 32123a.dat
1 71 -135 -120 -130 0 0 1 -1 0 0 0 -1 0 32123a.dat
1 15 160 -80 170 0 0 -1 1 0 0 0 -1 0 57519.dat
1 15 -160 -80 170 0 0 1 1 0 0 0 1 0 57519.dat
1 15 160 -100 -230 0 0 -1 1 0 0 0 -1 0 57519.dat
1 15 -160 -100 -230 0 0 1 1 0 0 0 1 0 57519.dat
1 27 -40 -181.93200000000002 -194.477 0 1 0 0.9770000000000001 0 0.21400000000000002 0.21400000000000002 0 -0.9770000000000001 64391.dat
1 0 -30 -173.37199999999999 -233.55700000000002 1 0 0 0 -0.9770000000000001 0.21400000000000002 0 -0.21400000000000002 -0.9770000000000001 2780.dat
1 0 -30 -164.81199999999998 -272.637 1 0 0 0 -0.9770000000000001 0.21400000000000002 0 -0.21400000000000002 -0.9770000000000001 2780.dat
1 15 -20 -169.09199999999998 -253.09700000000004 0 -1 0 -0.9770000000000001 0 0.21400000000000002 -0.21400000000000002 0 -0.9770000000000001 32524.dat
1 1 0 -181.93200000000002 -194.477 1 0 0 0 -0.9770000000000001 0.21400000000000002 0 -0.21400000000000002 -0.9770000000000001 6558.dat
1 1 0 -177.652 -214.01700000000002 1 0 0 0 -0.9770000000000001 0.21400000000000002 0 -0.21400000000000002 -0.9770000000000001 6558.dat
1 1 0 -160.532 -292.177 1 0 0 0 -0.9770000000000001 0.21400000000000002 0 -0.21400000000000002 -0.9770000000000001 6558.dat
1 1 0 -156.252 -311.717 1 0 0 0 -0.9770000000000001 0.21400000000000002 0 -0.21400000000000002 -0.9770000000000001 6558.dat
1 0 -40 -164.53199999999998 -180.427 0 1 0 -0.21400000000000002 0 0.9770000000000001 0.9770000000000001 0 0.21400000000000002 2780.dat
1 0 -40 -166.67200000000003 -170.65700000000004 0 0 -1 -0.21400000000000002 0.9770000000000001 0 0.9770000000000001 0.21400000000000002 0 32016.dat
1 1 -67.71600000000001 -177.888937 -173.113934 0.9240000000000002 0.383 0 0.37419100000000005 -0.902748 0.21400000000000002 0.081962 -0.19773600000000002 -0.9770000000000001 43093.dat
1 0 0 -177.652 -214.01700000000002 0 1 0 0.9770000000000001 0 0.21400000000000002 0.21400000000000002 0 -0.9770000000000001 32526.dat
1 72 0 -151.97199999999998 -331.257 0 -1 0 0.9770000000000001 0 -0.21400000000000002 0.21400000000000002 0 0.9770000000000001 60483.dat
1 0 0 -170.95200000000003 -151.11700000000002 0 1 0 0.9770000000000001 0 0.21400000000000002 0.21400000000000002 0 -0.9770000000000001 60484.dat
1 15 20 -169.09199999999998 -253.09700000000004 0 -1 0 -0.9770000000000001 0 0.21400000000000002 -0.21400000000000002 0 -0.9770000000000001 32524.dat
1 71 0 -166.67200000000003 -170.65700000000004 -1 0 0 0 0.9770000000000001 0.21400000000000002 0 0.21400000000000002 -0.9770000000000001 4519.dat
1 0 40 -166.67200000000003 -170.65700000000004 0 0 1 0.21400000000000002 0.9770000000000001 0 -0.9770000000000001 0.21400000000000002 0 32016.dat
1 1 67.716 -177.888937 -173.113934 -0.9240000000000002 -0.383 0 0.37419100000000005 -0.902748 -0.21400000000000002 0.081962 -0.19773600000000002 0.9770000000000001 43093.dat
1 27 40 -181.93200000000002 -194.477 0 -1 0 -0.9770000000000001 0 0.21400000000000002 -0.21400000000000002 0 -0.9770000000000001 64683.dat
1 0 30 -173.37199999999999 -233.55700000000002 1 0 0 0 -0.9770000000000001 0.21400000000000002 0 -0.21400000000000002 -0.9770000000000001 2780.dat
1 0 30 -164.81199999999998 -272.637 1 0 0 0 -0.9770000000000001 0.21400000000000002 0 -0.21400000000000002 -0.9770000000000001 2780.dat
1 71 0 -170.95200000000003 -151.11700000000002 1 0 0 0 0.21400000000000002 0.9770000000000001 0 -0.9770000000000001 0.21400000000000002 4519.dat
1 0 40 -170.95200000000003 -151.11700000000002 1 0 0 0 0.21400000000000002 0.9770000000000001 0 -0.9770000000000001 0.21400000000000002 32054.dat
1 0 -40 -170.95200000000003 -151.11700000000002 -1 0 0 0 0.21400000000000002 -0.9770000000000001 0 -0.9770000000000001 -0.21400000000000002 32054.dat
1 71 0 -151.97199999999998 -331.257 -1 0 0 0 0.21400000000000002 -0.9770000000000001 0 -0.9770000000000001 -0.21400000000000002 4519.dat
1 0 40 -151.97199999999998 -331.257 0 0 1 -0.21400000000000002 -0.9770000000000001 0 0.9770000000000001 -0.21400000000000002 0 32016.dat
1 0 -40 -151.97199999999998 -331.257 0 0 -1 0.21400000000000002 -0.9770000000000001 0 -0.9770000000000001 -0.21400000000000002 0 32016.dat
1 0 76.955 -137.01706099999998 -327.981302 0.383 0 0.9240000000000002 -0.902748 0.21400000000000002 0.37419100000000005 -0.19773600000000002 -0.9770000000000001 0.081962 10197.dat
1 0 -76.955 -137.01706099999998 -327.981302 0.383 0 -0.9240000000000002 0.902748 0.21400000000000002 0.37419100000000005 0.19773600000000002 -0.9770000000000001 0.081962 10197.dat
1 47 76.955 -141.29706099999999 -308.441302 0.383 0 0.9240000000000002 -0.902748 0.21400000000000002 0.37419100000000005 -0.19773600000000002 -0.9770000000000001 0.081962 41669.dat
1 47 -76.955 -141.29706099999999 -308.441302 0.383 0 -0.9240000000000002 0.902748 0.21400000000000002 0.37419100000000005 0.19773600000000002 -0.9770000000000001 0.081962 41669.dat
1 1 0 -140.992 -287.897 1 0 0 0 -0.052609000000000024 0.998538 0 -0.998538 -0.052609000000000024 6558.dat
1 72 -20 -136.798949 -207.993843 0 1 0 -0.998538 0 0.052609000000000024 0.052609000000000024 0 0.998538 40490.dat
1 0 -20 -132.605898 -128.090686 -1 0 0 0 -0.052609000000000024 -0.998538 0 -0.998538 0.052609000000000024 32054.dat
1 0 -40 -132.605898 -128.090686 0 1 0 0.07703399999999999 0 -0.9967619999999999 -0.9967619999999999 0 -0.07703399999999999 60484.dat
1 72 20 -132.605898 -128.090686 -1 0 0 0 -0.052609000000000024 -0.998538 0 -0.998538 0.052609000000000024 11214.dat
1 72 20 -136.798949 -207.993843 0 1 0 -0.998538 0 0.052609000000000024 0.052609000000000024 0 0.998538 40490.dat
1 0 40 -132.605898 -128.090686 0 1 0 0.07703399999999999 0 -0.9967619999999999 -0.9967619999999999 0 -0.07703399999999999 60484.dat
1 1 60 -174.03406700000002 -111.22926900000002 1 0 0 0 -0.9770000000000001 0.21400000000000002 0 -0.21400000000000002 -0.9770000000000001 6558.dat
1 1 -60 -174.03406700000002 -111.22926900000002 -1 0 0 0 0.9770000000000001 0.21400000000000002 0 0.21400000000000002 -0.9770000000000001 6558.dat
1 19 30 -134.70182799999998 -168.042646 1 0 0 0 -0.9770000000000001 0.21400000000000002 0 -0.21400000000000002 -0.9770000000000001 3749.dat
1 19 -30 -134.70182799999998 -168.042646 -1 0 0 0 0.9770000000000001 0.21400000000000002 0 0.21400000000000002 -0.9770000000000001 3749.dat
1 27 60 -180.199178 -31.454021000000015 0 1 0 -0.9967619999999999 0 -0.07703399999999999 -0.07703399999999999 0 0.9967619999999999 41239.dat
1 72 60 -189.446142 88.20798099999999 -1 0 0 0 -0.052609000000000024 -0.998538 0 -0.998538 0.052609000000000024 11214.dat
1 0 30 -189.446142 88.20798099999999 0 0 -1 0.998538 -0.052609000000000024 0 -0.052609000000000024 -0.998538 0 59443.dat
1 71 0 -189.446142 88.20798099999999 1 0 0 0 -0.052609000000000024 0.998538 0 -0.998538 -0.052609000000000024 4519.dat
1 0 -30 -189.446142 88.20798099999999 0 0 -1 0.998538 -0.052609000000000024 0 -0.052609000000000024 -0.998538 0 59443.dat
1 72 -60 -189.446142 88.20798099999999 1 0 0 0 -0.052609000000000024 0.998538 0 -0.998538 -0.052609000000000024 11214.dat
1 27 -60 -180.199178 -31.454021000000015 0 1 0 -0.9967619999999999 0 -0.07703399999999999 -0.07703399999999999 0 0.9967619999999999 41239.dat
1 0 70 -172.493415 -131.17373 1 0 0 0 -0.9770000000000001 0.21400000000000002 0 -0.21400000000000002 -0.9770000000000001 2780.dat
1 0 -70 -172.493415 -131.17373 1 0 0 0 -0.9770000000000001 0.21400000000000002 0 -0.21400000000000002 -0.9770000000000001 2780.dat
1 1 -60 -187.90472699999998 68.26471099999995 1 0 0 0 -0.9770000000000001 0.21400000000000002 0 -0.21400000000000002 -0.9770000000000001 6558.dat
1 0 70 -187.90472699999998 68.26471099999995 1 0 0 0 -0.9770000000000001 0.21400000000000002 0 -0.21400000000000002 -0.9770000000000001 2780.dat
1 27 80 -172.493415 -131.17373 0 1 0 -0.9967619999999999 0 -0.07703399999999999 -0.07703399999999999 0 0.9967619999999999 32523.dat
1 27 -80 -172.493415 -131.17373 0 1 0 -0.9967619999999999 0 -0.07703399999999999 -0.07703399999999999 0 0.9967619999999999 32523.dat
1 0 -70 -175.575482 -91.28599900000003 1 0 0 0 0.9967619999999999 -0.07703399999999999 0 0.07703399999999999 0.9967619999999999 2780.dat
1 0 -70 -181.73961599999998 -11.510537000000028 1 0 0 0 0.9967619999999999 -0.07703399999999999 0 0.07703399999999999 0.9967619999999999 2780.dat
1 27 -80 -175.575482 -91.28599900000003 0 1 0 -0.9967619999999999 0 -0.07703399999999999 -0.07703399999999999 0 0.9967619999999999 32526.dat
1 71 -60 -211.65560499999998 -13.822384999999997 1 0 0 0 0.9967619999999999 -0.07703399999999999 0 0.07703399999999999 0.9967619999999999 32138.dat
1 27 -40 -235.406483 -95.909481 0 -1 0 0.9967619999999999 0 -0.07703399999999999 0.07703399999999999 0 0.9967619999999999 32526.dat
1 1 -40 -238.48952699999998 -56.021964000000004 -1 0 0 0 -0.9967619999999999 -0.07703399999999999 0 -0.07703399999999999 0.9967619999999999 6558.dat
1 1 -40 -236.948112 -75.965234 -1 0 0 0 -0.9967619999999999 -0.07703399999999999 0 -0.07703399999999999 0.9967619999999999 6558.dat
1 15 -20 -236.948112 -75.965234 0 1 0 -0.9967619999999999 0 -0.07703399999999999 -0.07703399999999999 0 0.9967619999999999 32316.dat
1 1 0 -240.030179 -36.077503000000036 1 0 0 0 0.9967619999999999 -0.07703399999999999 0 0.07703399999999999 0.9967619999999999 6558.dat
1 1 0 -235.406483 -95.909481 1 0 0 0 0.9967619999999999 -0.07703399999999999 0 0.07703399999999999 0.9967619999999999 6558.dat
1 0 0 -236.948112 -75.965234 0 -1 0 0.9967619999999999 0 -0.07703399999999999 0.07703399999999999 0 0.9967619999999999 32316.dat
1 15 20 -236.948112 -75.965234 0 1 0 -0.9967619999999999 0 -0.07703399999999999 -0.07703399999999999 0 0.9967619999999999 32316.dat
1 0 70 -175.575482 -91.28599900000003 1 0 0 0 0.9967619999999999 -0.07703399999999999 0 0.07703399999999999 0.9967619999999999 2780.dat
1 0 70 -181.73961599999998 -11.510537000000028 1 0 0 0 0.9967619999999999 -0.07703399999999999 0 0.07703399999999999 0.9967619999999999 2780.dat
1 27 80 -175.575482 -91.28599900000003 0 1 0 -0.9967619999999999 0 -0.07703399999999999 -0.07703399999999999 0 0.9967619999999999 32526.dat
1 71 60 -211.65560499999998 -13.822384999999997 1 0 0 0 0.9967619999999999 -0.07703399999999999 0 0.07703399999999999 0.9967619999999999 32138.dat
1 27 40 -235.406483 -95.909481 0 -1 0 0.9967619999999999 0 -0.07703399999999999 0.07703399999999999 0 0.9967619999999999 32526.dat
1 1 40 -238.48952699999998 -56.021964000000004 1 0 0 0 -0.9967619999999999 0.07703399999999999 0 -0.07703399999999999 -0.9967619999999999 6558.dat
1 1 40 -236.948112 -75.965234 1 0 0 0 -0.9967619999999999 0.07703399999999999 0 -0.07703399999999999 -0.9967619999999999 6558.dat
1 15 60 -241.571594 -16.134232999999995 0 -1 0 -0.9967619999999999 0 0.07703399999999999 -0.07703399999999999 0 -0.9967619999999999 11947.dat
1 15 -60 -241.571594 -16.134232999999995 0 1 0 0.9967619999999999 0 0.07703399999999999 0.07703399999999999 0 -0.9967619999999999 11946.dat
1 14 0 -233.866045 -115.85296500000001 -1 0 0 0 0.7000450000000001 -0.7138850000000001 0 -0.7138850000000001 -0.7000450000000001 32073.dat
1 0 -60 -233.866045 -115.85296500000001 0 0 -1 -0.7000450000000001 0.7138850000000001 0 0.7138850000000001 0.7000450000000001 0 32013.dat
1 0 60 -233.866045 -115.85296500000001 0 0 1 0.7000450000000001 0.7138850000000001 0 -0.7138850000000001 0.7000450000000001 0 32013.dat
1 0 76.955 -181.626939 -173.93269800000002 -0.9240000000000002 0.32400000000000007 0.203 0.37419100000000005 0.6513570000000001 0.6599880000000001 0.081962 0.686349 -0.722659 32013.dat
1 0 74.924 -188.23277399999998 -166.702293 -0.601 -0.217 -0.7690000000000001 -0.49907499999999994 -0.65086 0.572784 -0.624325 0.7277299999999999 0.283138 76250.dat
1 0 -76.955 -181.626939 -173.93269800000002 -0.9240000000000002 -0.32400000000000007 -0.203 -0.37419100000000005 0.6513570000000001 0.6599880000000001 -0.081962 0.686349 -0.722659 32013.dat
1 0 -74.924 -188.23277399999998 -166.702293 -0.601 0.217 0.7690000000000001 0.49907499999999994 -0.65086 0.572784 0.624325 0.7277299999999999 0.283138 76250.dat
1 0 60 -183.28124499999998 8.43370999999999 1 0 0 0 -0.9770000000000001 0.21400000000000002 0 -0.21400000000000002 -0.9770000000000001 32054.dat
1 0 -60 -183.28124499999998 8.43370999999999 -1 0 0 0 0.9770000000000001 0.21400000000000002 0 0.21400000000000002 -0.9770000000000001 32054.dat
1 0 -40 -187.90472699999998 68.26471099999995 1 0 0 0 -0.184913 0.9834910000000001 0 -0.9834910000000001 -0.184913 32013.dat
1 0 80 -190.98679399999997 108.15244199999998 0 1 0 -0.9967619999999999 0 -0.07703399999999999 -0.07703399999999999 0 0.9967619999999999 32316.dat
1 0 -80 -190.98679399999997 108.15244199999998 0 1 0 -0.9967619999999999 0 -0.07703399999999999 -0.07703399999999999 0 0.9967619999999999 32316.dat
1 1 60 -242.34202699999997 -6.1615139999999835 0 1 0 0.07703399999999999 0 -0.9967619999999999 -0.9967619999999999 0 -0.07703399999999999 43093.dat
1 1 -60 -242.34202699999997 -6.1615139999999835 0 1 0 0.07703399999999999 0 -0.9967619999999999 -0.9967619999999999 0 -0.07703399999999999 43093.dat
1 15 -80 -203.22549199999997 6.892081000000019 1 0 0 0 0.9967619999999999 -0.07703399999999999 0 0.07703399999999999 0.9967619999999999 64391.dat
1 15 80 -203.22549199999997 6.892081000000019 1 0 0 0 0.9967619999999999 -0.07703399999999999 0 0.07703399999999999 0.9967619999999999 64683.dat
1 0 80 -184.82265999999998 28.376980000000003 0 0 1 -0.9967619999999999 0.07703399999999999 0 -0.07703399999999999 -0.9967619999999999 0 42003.dat
1 0 -80 -184.82265999999998 28.376980000000003 0 0 1 -0.9967619999999999 0.07703399999999999 0 -0.07703399999999999 -0.9967619999999999 0 42003.dat
1 1 80 -196.33581700000002 47.55003099999999 0 0 -1 0.9967619999999999 0.07703399999999999 0 0.07703399999999999 -0.9967619999999999 0 43093.dat
1 1 -80 -196.33581700000002 47.55003099999999 0 0 -1 0.9967619999999999 0.07703399999999999 0 0.07703399999999999 -0.9967619999999999 0 43093.dat
1 1 -70 -194.06886100000003 148.040173 1 0 0 0 0.31627800000000006 0.9484539999999999 0 -0.9484539999999999 0.31627800000000006 43093.dat
1 1 70 -194.06886100000003 148.040173 -1 0 0 0 0.31627800000000006 -0.9484539999999999 0 -0.9484539999999999 -0.31627800000000006 43093.dat
1 0 -60 -213.048232 141.719526 1 0 0 0 -0.9484539999999999 0.31627800000000006 0 -0.31627800000000006 -0.9484539999999999 42003.dat
1 0 60 -213.048232 141.719526 1 0 0 0 -0.9484539999999999 0.31627800000000006 0 -0.31627800000000006 -0.9484539999999999 42003.dat
1 0 60 -235.186354 144.88839699999997 0 -0.138 -0.99 0.31627800000000006 -0.939875 0.130639 -0.9484539999999999 -0.31337500000000007 0.043973 2780.dat
1 0 -60 -235.186354 144.88839699999997 0 -0.138 -0.99 0.31627800000000006 -0.939875 0.130639 -0.9484539999999999 -0.31337500000000007 0.043973 2780.dat
1 0 0 -244.666515 173.356095 -1 0 0 0 0.9484539999999999 0.31627800000000006 0 0.31627800000000006 -0.9484539999999999 15458.dat
1 0 160 -100 -280 -1 0 0 0 0.301262 0.953541 0 0.953541 -0.301262 57518.dat
1 0 160 -128.727836 -270.923713 -1 0 0 0 0.791434 0.611254 0 0.611254 -0.791434 57518.dat
1 0 160 -146.851477 -247.45775000000003 -1 0 0 0 0.9953390000000001 0.09643600000000001 0 0.09643600000000001 -0.9953390000000001 57518.dat
1 0 160 -149.779831 -217.233613 -1 0 0 0 0.9998400000000001 -0.017869000000000003 0 -0.017869000000000003 -0.9998400000000001 57518.dat
1 0 160 -149.241955 -187.13659500000003 -1 0 0 0 0.9998400000000001 -0.017869000000000003 0 -0.017869000000000003 -0.9998400000000001 57518.dat
1 0 160 -148.704079 -157.039576 -1 0 0 0 0.9998400000000001 -0.017869000000000003 0 -0.017869000000000003 -0.9998400000000001 57518.dat
1 0 160 -148.15726899999999 -126.44263800000002 -1 0 0 0 0.9998400000000001 -0.017869000000000003 0 -0.017869000000000003 -0.9998400000000001 57518.dat
1 0 160 -147.619393 -96.34562000000001 -1 0 0 0 0.9998400000000001 -0.017869000000000003 0 -0.017869000000000003 -0.9998400000000001 57518.dat
1 0 160 -147.072583 -65.748682 -1 0 0 0 0.9998400000000001 -0.017869000000000003 0 -0.017869000000000003 -0.9998400000000001 57518.dat
1 0 160 -146.534707 -35.65166400000001 -1 0 0 0 0.9998400000000001 -0.017869000000000003 0 -0.017869000000000003 -0.9998400000000001 57518.dat
1 0 160 -145.996831 -5.554645999999991 -1 0 0 0 0.9998400000000001 -0.017869000000000003 0 -0.017869000000000003 -0.9998400000000001 57518.dat
1 0 160 -145.450021 25.042293000000004 -1 0 0 0 0.999561 -0.029644000000000004 0 -0.029644000000000004 -0.999561 57518.dat
1 0 160 -144.558091 55.11697400000003 -1 0 0 0 0.99247 -0.12248800000000001 0 -0.12248800000000001 -0.99247 57518.dat
1 0 160 -140.809735 85.488366 -1 0 0 0 0.99247 -0.12249000000000002 0 -0.12249000000000002 -0.99247 57518.dat
1 0 160 -137.122565 115.36351600000002 -1 0 0 0 0.99247 -0.12249000000000002 0 -0.12249000000000002 -0.99247 57518.dat
1 0 160 -133.435395 145.23866600000002 -1 0 0 0 0.99247 -0.12249000000000002 0 -0.12249000000000002 -0.99247 57518.dat
1 0 160 -129.68698 175.610051 -1 0 0 0 0.915663 -0.401947 0 -0.401947 -0.915663 57518.dat
1 0 160 -117.76920400000002 202.759574 -1 0 0 0 0.522993 -0.8523370000000001 0 -0.8523370000000001 -0.522993 57518.dat
1 0 160 -92.09139300000001 218.51545800000002 -1 0 0 0 -0.056744 -0.9983890000000001 0 -0.9983890000000001 0.056744 57518.dat
1 0 160 -62.48917900000001 216.83300000000003 -1 0 0 0 -0.6122130000000001 -0.7906930000000001 0 -0.7906930000000001 0.6122130000000001 57518.dat
1 0 160 -39.045298 198.680995 -1 0 0 0 -0.948446 -0.316939 0 -0.316939 0.948446 57518.dat
1 0 160 -29.459975000000004 169.996695 -1 0 0 0 -0.9893240000000001 -0.14573 0 -0.14573 0.9893240000000001 57518.dat
1 0 160 -25.073243000000005 140.216225 -1 0 0 0 -0.9893240000000001 -0.14573 0 -0.14573 0.9893240000000001 57518.dat
1 0 160 -20.613646000000006 109.94109300000004 -1 0 0 0 -0.9893240000000001 -0.14573 0 -0.14573 0.9893240000000001 57518.dat
1 0 160 -16.226913999999994 80.160623 -1 0 0 0 -0.9991660000000001 -0.040838 0 -0.040838 0.9991660000000001 57518.dat
1 0 160 -15 50.141906000000006 -1 0 0 0 -1 0 0 0 1 57518.dat
1 0 160 -15 19.540082000000012 -1 0 0 0 -1 0 0 0 1 57518.dat
1 0 160 -15 -10.56174200000001 -1 0 0 0 -1 0 0 0 1 57518.dat
1 0 160 -15 -41.163566 -1 0 0 0 -1 0 0 0 1 57518.dat
1 0 160 -15 -71.26539 -1 0 0 0 -1 0 0 0 1 57518.dat
1 0 160 -15 -101.36721399999999 -1 0 0 0 -0.9860440000000001 0.16648800000000002 0 0.16648800000000002 0.9860440000000001 57518.dat
1 0 160 -20.055836 -131.31101999999998 -1 0 0 0 -0.962095 0.272714 0 0.272714 0.962095 57518.dat
1 0 160 -28.265030999999997 -160.271837 -1 0 0 0 -0.962095 0.272714 0 0.272714 0.962095 57518.dat
1 0 160 -36.610584 -189.71370100000001 -1 0 0 0 -0.962095 0.272714 0 0.272714 0.962095 57518.dat
1 0 160 -44.819779 -218.674518 -1 0 0 0 -0.960491 0.278312 0 0.278312 0.960491 57518.dat
1 0 160 -53.196265 -247.58285700000002 -1 0 0 0 -0.7866970000000001 0.61734 0 0.61734 0.7866970000000001 57518.dat
1 0 160 -71.794326 -271.282983 -1 0 0 0 -0.295272 0.955413 0 0.955413 0.295272 57518.dat
1 0 -160 -100 -280 -1 0 0 0 0.301262 0.953541 0 0.953541 -0.301262 57518.dat
1 0 -160 -128.727836 -270.923713 -1 0 0 0 0.791434 0.611254 0 0.611254 -0.791434 57518.dat
1 0 -160 -146.851477 -247.45775000000003 -1 0 0 0 0.9953390000000001 0.09643600000000001 0 0.09643600000000001 -0.9953390000000001 57518.dat
1 0 -160 -149.779831 -217.233613 -1 0 0 0 0.9998400000000001 -0.017869000000000003 0 -0.017869000000000003 -0.9998400000000001 57518.dat
1 0 -160 -149.241955 -187.13659500000003 -1 0 0 0 0.9998400000000001 -0.017869000000000003 0 -0.017869000000000003 -0.9998400000000001 57518.dat
1 0 -160 -148.704079 -157.039576 -1 0 0 0 0.9998400000000001 -0.017869000000000003 0 -0.017869000000000003 -0.9998400000000001 57518.dat
1 0 -160 -148.15726899999999 -126.44263800000002 -1 0 0 0 0.9998400000000001 -0.017869000000000003 0 -0.017869000000000003 -0.9998400000000001 57518.dat
1 0 -160 -147.619393 -96.34562000000001 -1 0 0 0 0.9998400000000001 -0.017869000000000003 0 -0.017869000000000003 -0.9998400000000001 57518.dat
1 0 -160 -147.072583 -65.748682 -1 0 0 0 0.9998400000000001 -0.017869000000000003 0 -0.017869000000000003 -0.9998400000000001 57518.dat
1 0 -160 -146.534707 -35.65166400000001 -1 0 0 0 0.9998400000000001 -0.017869000000000003 0 -0.017869000000000003 -0.9998400000000001 57518.dat
1 0 -160 -145.996831 -5.554645999999991 -1 0 0 0 0.9998400000000001 -0.017869000000000003 0 -0.017869000000000003 -0.9998400000000001 57518.dat
1 0 -160 -145.450021 25.042293000000004 -1 0 0 0 0.999561 -0.029644000000000004 0 -0.029644000000000004 -0.999561 57518.dat
1 0 -160 -144.558091 55.11697400000003 -1 0 0 0 0.99247 -0.12248800000000001 0 -0.12248800000000001 -0.99247 57518.dat
1 0 -160 -140.809735 85.488366 -1 0 0 0 0.99247 -0.12249000000000002 0 -0.12249000000000002 -0.99247 57518.dat
1 0 -160 -137.122565 115.36351600000002 -1 0 0 0 0.99247 -0.12249000000000002 0 -0.12249000000000002 -0.99247 57518.dat
1 0 -160 -133.435395 145.23866600000002 -1 0 0 0 0.99247 -0.12249000000000002 0 -0.12249000000000002 -0.99247 57518.dat
1 0 -160 -129.68698 175.610051 -1 0 0 0 0.915663 -0.401947 0 -0.401947 -0.915663 57518.dat
1 0 -160 -117.76920400000002 202.759574 -1 0 0 0 0.522993 -0.8523370000000001 0 -0.8523370000000001 -0.522993 57518.dat
1 0 -160 -92.09139300000001 218.51545800000002 -1 0 0 0 -0.056744 -0.9983890000000001 0 -0.9983890000000001 0.056744 57518.dat
1 0 -160 -62.48917900000001 216.83300000000003 -1 0 0 0 -0.6122130000000001 -0.7906930000000001 0 -0.7906930000000001 0.6122130000000001 57518.dat
1 0 -160 -39.045298 198.680995 -1 0 0 0 -0.948446 -0.316939 0 -0.316939 0.948446 57518.dat
1 0 -160 -29.459975000000004 169.996695 -1 0 0 0 -0.9893240000000001 -0.14573 0 -0.14573 0.9893240000000001 57518.dat
1 0 -160 -25.073243000000005 140.216225 -1 0 0 0 -0.9893240000000001 -0.14573 0 -0.14573 0.9893240000000001 57518.dat
1 0 -160 -20.613646000000006 109.94109300000004 -1 0 0 0 -0.9893240000000001 -0.14573 0 -0.14573 0.9893240000000001 57518.dat
1 0 -160 -16.226913999999994 80.160623 -1 0 0 0 -0.9991660000000001 -0.040838 0 -0.040838 0.9991660000000001 57518.dat
1 0 -160 -15 50.141906000000006 -1 0 0 0 -1 0 0 0 1 57518.dat
1 0 -160 -15 19.540082000000012 -1 0 0 0 -1 0 0 0 1 57518.dat
1 0 -160 -15 -10.56174200000001 -1 0 0 0 -1 0 0 0 1 57518.dat
1 0 -160 -15 -41.163566 -1 0 0 0 -1 0 0 0 1 57518.dat
1 0 -160 -15 -71.26539 -1 0 0 0 -1 0 0 0 1 57518.dat
1 0 -160 -15 -101.36721399999999 -1 0 0 0 -0.9860440000000001 0.16648800000000002 0 0.16648800000000002 0.9860440000000001 57518.dat
1 0 -160 -20.055836 -131.31101999999998 -1 0 0 0 -0.962095 0.272714 0 0.272714 0.962095 57518.dat
1 0 -160 -28.265030999999997 -160.271837 -1 0 0 0 -0.962095 0.272714 0 0.272714 0.962095 57518.dat
1 0 -160 -36.610584 -189.71370100000001 -1 0 0 0 -0.962095 0.272714 0 0.272714 0.962095 57518.dat
1 0 -160 -44.819779 -218.674518 -1 0 0 0 -0.960491 0.278312 0 0.278312 0.960491 57518.dat
1 0 -160 -53.196265 -247.58285700000002 -1 0 0 0 -0.7866970000000001 0.61734 0 0.61734 0.7866970000000001 57518.dat
1 0 -160 -71.794326 -271.282983 -1 0 0 0 -0.295272 0.955413 0 0.955413 0.295272 57518.dat
1 0 -40 -197.75000000000003 70.068 -1 0 0 0 -0.983 0.185 0 0.185 0.983 71551.dat
1 15 -40 -408.07000000000005 109.584 -1 0 0 0 -0.983 0.185 0 0.185 0.983 2335.dat
1 71 -359.289 -290 -237.57400000000004 -0.6830000000000002 -0.36 -0.636 -0.259 0.933 -0.25 0.6830000000000002 -0.006 -0.73 58122.dat
1 4 -322.122 -307.8140000000001 -236.43900000000002 -0.36 -0.636 -0.6830000000000002 0.933 -0.25 -0.259 -0.006 -0.73 0.6830000000000002 32062.dat
1 4 -349.443 -318.167 -209.11900000000003 -0.36 -0.636 -0.6830000000000002 0.933 -0.25 -0.259 -0.006 -0.73 0.6830000000000002 32062.dat
1 4 -318.525 -317.144 -236.377 0.636 -0.6830000000000002 0.36 0.25 -0.259 -0.933 0.73 0.6830000000000002 0.006 3713.dat
1 4 -345.845 -327.49700000000007 -209.05600000000004 0.636 -0.6830000000000002 0.36 0.25 -0.259 -0.933 0.73 0.6830000000000002 0.006 3713.dat
