1 0 0 16 0 0 0 -1 -1 0 0 0 1 0 32525.dat
1 1 -20 16 -20 0 0 1 0 1 0 -1 0 0 32556.dat
1 1 20 16 -20 0 0 1 0 1 0 -1 0 0 32556.dat
1 71 0 -4 -20 1 0 0 0 1 0 0 0 1 99009.dat
1 0 0 -4 -20 0 0 1 0 1 0 -1 0 0 99010.dat
1 0 80 36 -20 0 -1 0 -1 0 0 0 0 -1 32525.dat
1 19 90 36 80 1 0 0 0 1 0 0 0 1 3749.dat
1 19 90 36 -120 1 0 0 0 1 0 0 0 1 3749.dat
1 1 80 36 0 -1 0 0 0 1 0 0 0 -1 32556.dat
1 1 80 36 -40 -1 0 0 0 1 0 0 0 -1 32556.dat
1 71 60 16 -20 0 0 -1 0 1 0 1 0 0 63869.dat
1 71 100 16 -20 0 0 -1 0 1 0 1 0 0 63869.dat
1 71 60 16 -20 0 0 -1 0 1 0 1 0 0 4519.dat
1 71 100 16 -20 0 0 -1 0 1 0 1 0 0 4519.dat
1 71 -100 16 -20 0 0 1 0 1 0 -1 0 0 4519.dat
1 71 -100 16 -20 0 0 1 0 1 0 -1 0 0 63869.dat
1 0 -80 36 -20 0 1 0 -1 0 0 0 0 1 32525.dat
1 1 -80 36 -40 1 0 0 0 1 0 0 0 1 32556.dat
1 1 -80 36 0 1 0 0 0 1 0 0 0 1 32556.dat
1 19 -90 36 80 -1 0 0 0 1 0 0 0 -1 3749.dat
1 19 -90 36 -120 -1 0 0 0 1 0 0 0 -1 3749.dat
1 71 -60 16 -20 0 0 1 0 1 0 -1 0 0 63869.dat
1 71 -60 16 -20 0 0 1 0 1 0 -1 0 0 4519.dat
1 0 0 16 -40 0 0 -1 -1 0 0 0 1 0 32525.dat
1 72 0 16 8 0 0 1 0 1 0 -1 0 0 55013.dat
1 0 0 16 -60 1 0 0 0 1 0 0 0 1 32270.dat
1 71 0 16 20 -1 0 0 0 1 0 0 0 -1 3713.dat
1 71 0 16 40 -1 0 0 0 1 0 0 0 -1 3713.dat
1 71 0 16 60 -1 0 0 0 1 0 0 0 -1 3713.dat
1 14 0 16 90 -1 0 0 0 1 0 0 0 -1 59443.dat
1 4 0 16 110 0 0 1 0 1 0 -1 0 0 32062.dat
1 0 0 16 120 1 0 0 0 1 0 0 0 1 32270.dat
1 14 -20 -24.000000000000004 0 0 1 0 -1 0 0 0 0 1 32524.dat
1 1 0 -24.000000000000004 -40 1 0 0 0 1 0 0 0 1 32556.dat
1 14 0 -44 -60 1 0 0 0 -1 0 0 0 -1 42003.dat
1 0 0 -44 -50 0 0 -1 0 1 0 1 0 0 3673.dat
1 71 0 -64 -40 -1 0 0 0 1 0 0 0 -1 42003.dat
1 72 0 -64 10 0 -0.669131 -0.743144 0 -0.743144 0.669131 -1 0 0 55013.dat
1 71 0 -64 -10 0.743144 -0.669131 0 -0.669131 -0.743144 0 0 0 -1 4716.dat
1 71 0 -64 20 0.743144 -0.669131 0 -0.669131 -0.743144 0 0 0 -1 3713.dat
1 71 0 -64 40 -1 0 0 0 1 0 0 0 -1 42003.dat
1 0 0 -44 50 0 0 -1 0 1 0 1 0 0 3673.dat
1 14 0 -44 60 1 0 0 0 -1 0 0 0 -1 42003.dat
1 14 0 -64 90 0.743144 -0.669131 0 -0.669131 -0.743144 0 0 0 -1 59443.dat
1 4 0 -64 110 0 -0.669131 -0.743144 0 -0.743144 0.669131 -1 0 0 32062.dat
1 0 0 -64 120 -0.743144 -0.669131 0 0.669131 -0.743144 0 0 0 1 32270.dat
1 71 0 -84 40 -1 0 0 0 1 0 0 0 -1 4519.dat
1 71 0 -84 -40 -1 0 0 0 1 0 0 0 -1 4519.dat
1 14 -15 -84 -40 0 0 1 0 1 0 -1 0 0 32123a.dat
1 14 15 -84 -40 0 0 1 0 1 0 -1 0 0 32123a.dat
1 14 -15 -84 40 0 0 1 0 1 0 -1 0 0 32123a.dat
1 14 15 -84 40 0 0 1 0 1 0 -1 0 0 32123a.dat
1 71 0 -24.000000000000004 -60 -1 0 0 0 1 0 0 0 -1 60485.dat
1 71 0 -24.000000000000004 60 -1 0 0 0 1 0 0 0 -1 60485.dat
1 14 -25 -84 0 0 -1 0 0 0 -1 1 0 0 2905.dat
1 14 20 -24.000000000000004 0 0 1 0 -1 0 0 0 0 1 32524.dat
1 0 0 -84 -20 1 0 0 0 0 -1 0 1 0 3706.dat
1 72 0 -84 -20 0 0 -1 -1 0 0 0 1 0 3647.dat
1 14 -15 -84 -20 0 0 -1 -1 0 0 0 1 0 32123a.dat
1 14 15 -84 -20 0 0 -1 -1 0 0 0 1 0 32123a.dat
1 14 25 -84 0 0 -1 0 0 0 -1 1 0 0 2905.dat
1 14 -35 -84 -20 0 0 -1 -1 0 0 0 1 0 32123a.dat
1 14 35 -84 -20 0 0 -1 -1 0 0 0 1 0 32123a.dat
1 14 40 -104 0 0 -1 0 0 0 1 -1 0 0 32526.dat
1 72 30 -104 0 -1 0 0 0 1 0 0 0 -1 32002.dat
1 0 40 -24.000000000000004 -20 -1 0 0 0 1 0 0 0 -1 32054.dat
1 1 70 -24.000000000000004 -20 -1 0 0 0 1 0 0 0 -1 3749.dat
1 14 -40 -104 0 0 -1 0 0 0 1 -1 0 0 32526.dat
1 72 -30 -104 0 1 0 0 0 1 0 0 0 1 32002.dat
1 0 -40 -24.000000000000004 -20 1 0 0 0 1 0 0 0 1 32054.dat
1 1 -70 -24.000000000000004 -20 1 0 0 0 1 0 0 0 1 3749.dat
1 71 -40 -24.000000000000004 -60 0 0 1 0 1 0 -1 0 0 3713.dat
1 0 -60 -24.000000000000004 -60 0 -1 0 0 0 -1 1 0 0 33299.dat
1 14 -60 -24.000000000000004 60 0 -1 0 0 0 -1 1 0 0 32140.dat
1 1 -60 -44 60 -1 0 0 0 1 0 0 0 -1 32556.dat
1 1 -50 -84 60 1 0 0 0 0.9238790000000001 -0.38268300000000005 0 0.38268300000000005 0.9238790000000001 3749.dat
1 14 -40 -34 70 0 0 -1 1 0 0 0 -1 0 32000.dat
1 72 -40 -84 60 0 0 -1 -0.38268300000000005 0.9238790000000001 0 0.9238790000000001 0.38268300000000005 0 3647.dat
1 14 -80 -24.000000000000004 0 0 1 0 -1 0 0 0 0 1 32140.dat
1 71 0 -24.000000000000004 0 1 0 0 0 1 0 0 0 1 60485.dat
1 71 -60 -24.000000000000004 0 0 0 1 0 1 0 -1 0 0 3713.dat
1 71 60 -24.000000000000004 0 0 0 1 0 1 0 -1 0 0 3713.dat
1 14 -80 -24.000000000000004 -40 0 1 0 -1 0 0 0 0 1 32523.dat
1 0 -60 -64 0 1 0 0 0 1 0 0 0 1 87082.dat
1 1 -70 -64 60 -1 0 0 0 1 0 0 0 -1 3749.dat
1 14 -80 -64 60 0 1 0 1 0 0 0 0 -1 32271.dat
1 71 20 -84 80 -1 0 0 0 1 0 0 0 -1 60485.dat
1 72 -40 -84 80 0 0 1 0 1 0 -1 0 0 3647.dat
1 14 -25 -84 80 0 0 1 0 1 0 -1 0 0 32123a.dat
1 71 -3.0000000000000004 -84 80 1 0 0 0 1 0 0 0 1 2585.dat
1 14 19 -84 80 0 0 1 0 1 0 -1 0 0 32123a.dat
1 71 40 -84 80 0 0 1 0 1 0 -1 0 0 3713.dat
1 14 60 -24.000000000000004 60 0 -1 0 0 0 -1 1 0 0 32140.dat
1 1 60 -44 60 1 0 0 0 1 0 0 0 1 32556.dat
1 14 40 -34 70 0 0 -1 1 0 0 0 -1 0 32000.dat
1 0 70 -64 60 1 0 0 0 1 0 0 0 1 3673.dat
1 0 -50 -84 -20 0 1 0 0 0 1 1 0 0 33299.dat
1 14 -30 -108.17300000000002 -96.6928 0 -1 0 -0.766928 0 -0.641733 0.641733 0 -0.766928 32525.dat
1 0 -20 -121.008 -112.031 1 0 0 0 0.766928 0.641733 0 -0.641733 0.766928 3673.dat
1 72 -20 -172.346 -173.386 1 0 0 0 0.766928 0.641733 0 -0.641733 0.766928 32002.dat
1 0 0 -121.008 -112.031 1 0 0 0 0.766928 0.641733 0 -0.641733 0.766928 62462.dat
1 0 20 -121.008 -112.031 1 0 0 0 0.766928 0.641733 0 -0.641733 0.766928 3673.dat
1 14 0 -178.94100000000003 -130.021 0 0 1 -0.268592 0.963254 0 -0.963254 -0.268592 0 57779.dat
1 72 20 -172.347 -173.386 -1 0 0 0 0.766928 -0.641733 0 -0.641733 -0.766928 32002.dat
1 14 30 -108.17300000000002 -96.6928 0 -1 0 -0.766928 0 -0.641733 0.641733 0 -0.766928 32525.dat
1 0 50 -84 -20 0 -1 0 0 0 1 -1 0 0 33299.dat
1 71 0 -124 0 1 0 0 0 0.963254 0.268592 0 -0.268592 0.963254 4519.dat
1 14 35 -24.000000000000004 -60 0 -1 0 -1 0 0 0 0 -1 41677.dat
1 14 45 -24.000000000000004 -60 0 -1 0 -1 0 0 0 0 -1 41677.dat
1 0 60 -24.000000000000004 -60 0 1 0 0 0 -1 -1 0 0 33299.dat
1 14 80 -24.000000000000004 0 0 1 0 -1 0 0 0 0 1 32140.dat
1 14 80 -24.000000000000004 -40 0 1 0 -1 0 0 0 0 1 32523.dat
1 0 60 -64 0 1 0 0 0 0 -1 0 1 0 87082.dat
1 14 80 -64 0 0 1 0 -1 0 0 0 0 1 32524.dat
1 0 0 -144.025 -4.797890000000001 1 0 0 0 0.963253 0.268592 0 -0.268592 0.963254 32530.dat
1 0 0 -180.365 -202.14 0 1 0 -0.963254 0 0.268592 0.268592 0 0.963254 32278.dat
1 4 0 -212.59500000000003 -317.731 1 0 0 0 0.963254 0.268592 0 -0.268592 0.963254 32062.dat
1 4 0 -217.967 -336.996 1 0 0 0 0.963254 0.268592 0 -0.268592 0.963254 32062.dat
1 0 0 -237.23200000000003 -331.624 -1 0 0 0 0.963254 -0.268592 0 -0.268592 -0.963254 92907.dat
1 71 80 -84 80 0 0 1 0 1 0 -1 0 0 3713.dat
1 0 100 -84 80 0 0 -1 0 1 0 1 0 0 32270.dat
1 72 0 -152 -347 0 0 1 0 1 0 -1 0 0 30395.dat
1 0 -10 -90.9698 81.6536 0 1 0 -0.1732 0 -0.9849000000000001 0.9849000000000001 0 -0.1732 9391 - ls60.dat
1 0 -10 -91.90600000000002 80.3397 0 1 0 -0.7002000000000002 0 -0.7140000000000001 0.7140000000000001 0 -0.7002000000000002 9391 - ls60.dat
1 0 -10 -92.0418 78.7513 0 1 0 -0.9692000000000001 0 -0.2463 0.2463 0 -0.9692000000000001 9391 - ls60.dat
1 0 -10 -92.0222 77.2383 0 1 0 -0.9987000000000001 0 -0.05170000000000001 0.05170000000000001 0 -0.9987000000000001 9391 - ls60.dat
1 0 -10 -91.8795 75.741 0 1 0 -0.9983 0 0.05840000000000001 -0.05840000000000001 0 -0.9983 9391 - ls60.dat
1 0 -10 -91.48090000000002 74.2851 0 1 0 -0.9769 0 0.21390000000000003 -0.21390000000000003 0 -0.9769 9391 - ls60.dat
1 0 -10 -90.7089 72.9766 0 1 0 -0.8983000000000001 0 0.43940000000000007 -0.43940000000000007 0 -0.8983000000000001 9391 - ls60.dat
1 0 -10 -89.5328 71.9922 0 1 0 -0.7164000000000001 0 0.6977 -0.6977 0 -0.7164000000000001 9391 - ls60.dat
1 0 -10 -88.1171 71.4088 0 1 0 -0.47080000000000005 0 0.8822000000000001 -0.8822000000000001 0 -0.47080000000000005 9391 - ls60.dat
1 0 -10 -86.62890000000002 71.1144 0 1 0 -0.2647 0 0.9643000000000002 -0.9643000000000002 0 -0.2647 9391 - ls60.dat
1 0 -10 -85.12590000000002 70.99360000000001 0 1 0 -0.1264 0 0.9920000000000001 -0.9920000000000001 0 -0.1264 9391 - ls60.dat
1 0 -10 -83.62180000000001 70.98150000000001 0 1 0 -0.0375 0 0.9993000000000001 -0.9993000000000001 0 -0.0375 9391 - ls60.dat
1 0 -10 -82.1222 71.07060000000001 0 1 0 0.03520000000000001 0 0.9994000000000001 -0.9994000000000001 0 0.03520000000000001 9391 - ls60.dat
1 0 -10 -80.6364 71.2991 0 1 0 0.123 0 0.9924 -0.9924 0 0.123 9391 - ls60.dat
1 0 -10 -79.1924 71.7285 0 1 0 0.2453 0 0.9694000000000002 -0.9694000000000002 0 0.2453 9391 - ls60.dat
1 0 -10 -77.8524 72.4279 0 1 0 0.41090000000000004 0 0.9117 -0.9117 0 0.41090000000000004 9391 - ls60.dat
1 0 -10 -76.7224 73.44120000000001 0 1 0 0.6094 0 0.7929000000000002 -0.7929000000000002 0 0.6094 9391 - ls60.dat
1 0 -10 -75.8982 74.7225 0 1 0 0.7926 0 0.6098000000000001 -0.6098000000000001 0 0.7926 9391 - ls60.dat
1 0 -10 -75.3823 76.1516 0 1 0 0.9121000000000001 0 0.41000000000000003 -0.41000000000000003 0 0.9121000000000001 9391 - ls60.dat
1 0 -10 -75.102 77.63580000000002 0 1 0 0.9701 0 0.24260000000000004 -0.24260000000000004 0 0.9701 9391 - ls60.dat
1 0 -10 -74.9855 79.1379 0 1 0 0.9929 0 0.1187 -0.1187 0 0.9929 9391 - ls60.dat
1 0 -10 -75.0949 80.6414 0 1 0 1 0 -0.025000000000000005 0.025000000000000005 0 1 9391 - ls60.dat
1 0 -10 -75.2566 82.13390000000001 0 1 0 0.9962 0 -0.08710000000000001 0.08710000000000001 0 0.9962 9391 - ls60.dat
1 0 -10 -75.56 83.6063 0 1 0 0.9848000000000001 0 -0.1734 0.1734 0 0.9848000000000001 9391 - ls60.dat
1 0 -10 -76.0601 85.0273 0 1 0 0.9560000000000001 0 -0.2933 0.2933 0 0.9560000000000001 9391 - ls60.dat
1 0 -10 -76.82050000000001 86.33180000000002 0 1 0 0.8912 0 -0.4535 0.4535 0 0.8912 9391 - ls60.dat
1 0 -10 -77.8774 87.4212 0 1 0 0.767 0 -0.6416 0.6416 0 0.767 9391 - ls60.dat
1 0 -10 -79.1807 88.2069 0 1 0 0.5841 0 -0.8117000000000001 0.8117000000000001 0 0.5841 9391 - ls60.dat
1 0 -10 -80.6192 88.69120000000001 0 1 0 0.3879 0 -0.9217 0.9217 0 0.3879 9391 - ls60.dat
1 0 -10 -82.1085 88.9425 0 1 0 0.22250000000000003 0 -0.9749000000000001 0.9749000000000001 0 0.22250000000000003 9391 - ls60.dat
1 0 -10 -83.61310000000002 89.0284 0 1 0 0.09840000000000002 0 -0.9951 0.9951 0 0.09840000000000002 9391 - ls60.dat
1 0 -9.9489 -85.1139 88.9084 0.0009000000000000001 1 0.0256 -0.0354 0.0256 -0.999 0.9994000000000001 0 -0.0354 9391 - ls60.dat
1 0 -9.7998 -86.5934 88.67710000000001 0.010100000000000001 0.9967000000000001 0.0809 -0.12400000000000001 0.08150000000000002 -0.9889000000000001 0.9922 0 -0.12450000000000001 9391 - ls60.dat
1 0 -9.5586 -88.01590000000002 88.2423 0.0181 0.9899000000000001 0.14080000000000004 -0.2485 0.1409 -0.9583000000000002 0.9685 0.017600000000000005 -0.2485 9391 - ls60.dat
1 0 -9.2335 -89.31470000000002 87.53770000000002 0.030900000000000004 0.9798000000000001 0.1977 -0.4168 0.19240000000000002 -0.8884000000000001 0.9085 0.05500000000000001 -0.4143 9391 - ls60.dat
1 0 -8.864 -90.3886 86.5284 0.0489 0.9710000000000001 0.2341 -0.6154 0.21390000000000003 -0.7586000000000002 0.7867000000000001 0.1069 -0.608 9391 - ls60.dat
1 0 -8.5182 -91.1602 85.2632 0.0606 0.9710000000000001 0.2314 -0.7963 0.1868 -0.5753 0.6019 0.14940000000000003 -0.7845000000000001 9391 - ls60.dat
1 0 -8.250600000000002 -91.6424 83.8489 0.05240000000000001 0.9801 0.1916 -0.9147 0.12410000000000002 -0.38470000000000004 0.40080000000000005 0.1551 -0.9029 9391 - ls60.dat
1 0 -8.0775 -91.905 82.36980000000001 0.0315 0.9904000000000001 0.1343 -0.9719 0.061700000000000005 -0.22720000000000004 0.23330000000000004 0.12340000000000001 -0.9646 9391 - ls60.dat
1 0 -7.994 -92.0135 80.8688 0.0126 0.9971000000000001 0.0752 -0.9936 0.021000000000000005 -0.11090000000000001 0.1121 0.0734 -0.9910000000000001 9391 - ls60.dat
1 0 -8.0308 -91.92 79.3636 0 1 0.0004 -1 0 0.0191 -0.0191 0.0004 -1 9391 - ls60.dat
1 0 -8.0287 -91.79180000000001 77.86680000000001 0 1 0.0011000000000000003 -0.9976000000000002 0 0.0688 -0.0688 0.0011000000000000003 -0.9976000000000002 9391 - ls60.dat
1 0 -8.025400000000001 -91.5418 76.3841 0 1 0.0019000000000000002 -0.9898000000000001 0 0.1421 -0.1421 0.0019000000000000002 -0.9898000000000001 9391 - ls60.dat
1 0 -8.0209 -91.1121 74.942 0 1 0.0027 -0.9682000000000001 -0.0007000000000000001 0.2503 -0.2504 0.0026 -0.9682000000000001 9391 - ls60.dat
1 0 -8.0154 -90.4248 73.5967 0 1 0.0034000000000000002 -0.9139000000000002 -0.0013 0.406 -0.406 0.0031 -0.9139000000000002 9391 - ls60.dat
1 0 -8.0097 -89.4162 72.4617 0 1 0.0037000000000000006 -0.7957000000000001 -0.0021000000000000003 0.6057 -0.6057 0.0031 -0.7957000000000001 9391 - ls60.dat
1 0 -8.0048 -88.1189 71.6574 0.0005 1 0.0034000000000000002 -0.6005 -0.0024 0.7996000000000001 -0.7996000000000001 0.0024 -0.6005 9391 - ls60.dat
1 0 -8.0016 -86.668 71.19820000000001 0.0005 1 0.0025 -0.37950000000000006 -0.0021000000000000003 0.9252 -0.9252 0.0014000000000000002 -0.37950000000000006 9391 - ls60.dat
1 0 -8 -85.1676 70.9965 0.0003 1 0.0014000000000000002 -0.19540000000000002 -0.0013 0.9807 -0.9807 0.0006 -0.19540000000000002 9391 - ls60.dat
1 0 -8 -83.6603 70.9698 0 1 0.0005 -0.0621 -0.0005 0.9981000000000001 -0.9981000000000001 0 -0.0621 9391 - ls60.dat
1 0 -8 -82.1597 71.0705 0 1 0 0.0349 0 0.9994000000000001 -0.9994000000000001 0 0.0349 9391 - ls60.dat
1 0 -8 -80.6725 71.2969 0 1 0 0.1219 0 0.9925 -0.9925 0 0.1219 9391 - ls60.dat
1 0 -8 -79.228 71.7218 0 1 0 0.24290000000000003 0 0.9701 -0.9701 0 0.24290000000000003 9391 - ls60.dat
1 0 -8 -77.8851 72.4143 0 1 0 0.40690000000000004 0 0.9135 -0.9135 0 0.40690000000000004 9391 - ls60.dat
1 0 -8 -76.7485 73.4198 0 1 0 0.6045 0 0.7966000000000001 -0.7966000000000001 0 0.6045 9391 - ls60.dat
1 0 -8 -75.9154 74.6953 0 1 0 0.7884000000000001 0 0.6151 -0.6151 0 0.7884000000000001 9391 - ls60.dat
1 0 -8 -75.3923 76.1209 0 1 0 0.9097 0 0.4152 -0.4152 0 0.9097 9391 - ls60.dat
1 0 -8 -75.1064 77.6048 0 1 0 0.9691 0 0.2466 -0.2466 0 0.9691 9391 - ls60.dat
1 0 -8 -74.9866 79.1058 0 1 0 0.9926000000000001 0 0.12150000000000001 -0.12150000000000001 0 0.9926000000000001 9391 - ls60.dat
1 0 -8 -75.0969 80.6091 0 1 0 1 0 -0.0248 0.0248 0 1 9391 - ls60.dat
1 0 -8 -75.2572 82.10230000000001 0 1 0 0.9963 0 -0.0863 0.0863 0 0.9963 9391 - ls60.dat
1 0 -8 -75.5578 83.5756 0 1 0 0.9851 0 -0.1719 0.1719 0 0.9851 9391 - ls60.dat
1 0 -8 -76.0538 84.9986 0 1 0 0.9568 0 -0.2908 0.2908 0 0.9568 9391 - ls60.dat
1 0 -8 -76.8086 86.3072 0 1 0 0.893 0 -0.45000000000000007 0.45000000000000007 0 0.893 9391 - ls60.dat
1 0 -8 -77.8587 87.4017 0 1 0 0.7704 0 -0.6375 0.6375 0 0.7704 9391 - ls60.dat
1 0 -8 -79.157 88.19380000000001 0 1 0 0.5886 0 -0.8084000000000001 0.8084000000000001 0 0.5886 9391 - ls60.dat
1 0 -8 -80.59380000000002 88.6842 0 1 0 0.39200000000000007 0 -0.9200000000000002 0.9200000000000002 0 0.39200000000000007 9391 - ls60.dat
1 0 -8 -82.0825 88.93970000000002 0 1 0 0.22570000000000004 0 -0.9742000000000001 0.9742000000000001 0 0.22570000000000004 9391 - ls60.dat
1 0 -8 -83.58540000000002 89.02810000000001 0 1 0 0.1006 0 -0.9949000000000001 0.9949000000000001 0 0.1006 9391 - ls60.dat
1 0 -7.949000000000001 -85.0872 88.9075 0.0009000000000000001 1 0.025500000000000002 -0.03520000000000001 0.025500000000000002 -0.9991 0.9994000000000001 0 -0.03520000000000001 9391 - ls60.dat
1 0 -7.800500000000001 -86.5672 88.6779 0.01 0.9967000000000001 0.0806 -0.1232 0.08120000000000001 -0.9891 0.9923 0 -0.12360000000000002 9391 - ls60.dat
1 0 -7.5602 -87.9909 88.24600000000001 0.0178 0.99 0.1403 -0.24680000000000002 0.1403 -0.9589000000000001 0.9689000000000001 0.0175 -0.24680000000000002 9391 - ls60.dat
1 0 -7.2362 -89.2926 87.5459 0.0302 0.9799000000000001 0.197 -0.4141 0.1916 -0.8898 0.9097 0.0547 -0.4116 9391 - ls60.dat
1 0 -6.867200000000001 -90.37170000000002 86.5412 0.0478 0.9712 0.23360000000000003 -0.6123 0.21320000000000003 -0.7613000000000001 0.7891000000000001 0.10660000000000001 -0.6049 9391 - ls60.dat
1 0 -6.5212 -91.14940000000001 85.2794 0.059500000000000004 0.9711000000000001 0.2313 -0.7938000000000001 0.1865 -0.5789 0.6053 0.1492 -0.7819 9391 - ls60.dat
1 0 -6.252800000000001 -91.63650000000001 83.86670000000001 0.05170000000000001 0.98 0.1919 -0.9132000000000001 0.1242 -0.388 0.4041 0.1552 -0.9014 9391 - ls60.dat
1 0 -6.078900000000001 -91.90240000000001 82.38840000000002 0.0312 0.9904000000000001 0.1348 -0.9713 0.061900000000000004 -0.22970000000000002 0.23580000000000004 0.12380000000000001 -0.9639 9391 - ls60.dat
1 0 -5.9945 -92.0129 80.88750000000002 0.0126 0.9970000000000001 0.0758 -0.9934 0.021100000000000004 -0.11250000000000002 0.11380000000000001 0.0739 -0.9908 9391 - ls60.dat
1 0 -6.031500000000001 -91.9189 79.3819 0 1 0.0004 -1 0 0.0189 -0.0189 0.0004 -1 9391 - ls60.dat
1 0 -6.029400000000001 -91.79160000000002 77.8853 0 1 0.0012 -0.9977000000000001 0 0.0683 -0.0683 0.0012 -0.9977000000000001 9391 - ls60.dat
1 0 -6.026 -91.54340000000002 76.4027 0 1 0.002 -0.99 0 0.1412 -0.1412 0.002 -0.99 9391 - ls60.dat
1 0 -6.0214 -91.1165 74.9601 0 1 0.0028000000000000004 -0.9686 -0.0007000000000000001 0.24870000000000003 -0.24870000000000003 0.0027 -0.9686 9391 - ls60.dat
1 0 -6.0159 -90.4331 73.613 0 1 0.0035000000000000005 -0.9149000000000002 -0.0014000000000000002 0.40360000000000007 -0.40360000000000007 0.0032 -0.9149000000000002 9391 - ls60.dat
1 0 -6.01 -89.4289 72.4742 0 1 0.0038000000000000004 -0.7978000000000001 -0.0021000000000000003 0.6029 -0.6029 0.0032 -0.7978000000000001 9391 - ls60.dat
1 0 -6.005000000000001 -88.13470000000001 71.665 0.0005 1 0.0034000000000000002 -0.6035 -0.0025 0.7974000000000001 -0.7974000000000001 0.0025 -0.6035 9391 - ls60.dat
1 0 -6.0017 -86.68530000000001 71.202 0.0005 1 0.0025 -0.3824 -0.0021000000000000003 0.9240000000000002 -0.9240000000000002 0.0014000000000000002 -0.3824 9391 - ls60.dat
1 0 -6.000000000000001 -85.18590000000002 70.9978 0.0003 1 0.0015 -0.19750000000000004 -0.0014000000000000002 0.9803000000000001 -0.9803000000000001 0.0006 -0.19750000000000004 9391 - ls60.dat
1 0 -6.000000000000001 -83.67890000000001 70.9692 0 1 0.0005 -0.0635 -0.0005 0.998 -0.998 0 -0.0635 9391 - ls60.dat
1 0 -6.000000000000001 -82.1781 71.0704 0 1 0 0.0347 0 0.9994000000000001 -0.9994000000000001 0 0.0347 9391 - ls60.dat
1 0 -6.000000000000001 -80.6911 71.2955 0 1 0 0.1212 0 0.9926000000000001 -0.9926000000000001 0 0.1212 9391 - ls60.dat
1 0 -6.000000000000001 -79.2463 71.7182 0 1 0 0.2416 0 0.9704000000000002 -0.9704000000000002 0 0.2416 9391 - ls60.dat
1 0 -6.000000000000001 -77.9019 72.4072 0 1 0 0.40480000000000005 0 0.9144000000000001 -0.9144000000000001 0 0.40480000000000005 9391 - ls60.dat
1 0 -6.000000000000001 -76.7619 73.4087 0 1 0 0.6019 0 0.7985 -0.7985 0 0.6019 9391 - ls60.dat
1 0 -6.000000000000001 -75.9246 74.6812 0 1 0 0.7864 0 0.6178 -0.6178 0 0.7864 9391 - ls60.dat
1 0 -6.000000000000001 -75.3972 76.1067 0 1 0 0.9086 0 0.4176000000000001 -0.4176000000000001 0 0.9086 9391 - ls60.dat
1 0 -6.000000000000001 -75.10850000000002 77.5913 0 1 0 0.9687000000000001 0 0.2484 -0.2484 0 0.9687000000000001 9391 - ls60.dat
1 0 -6.000000000000001 -74.9871 79.0937 0 1 0 0.9925 0 0.1226 -0.1226 0 0.9925 9391 - ls60.dat
1 0 -6.000000000000001 -75.0976 80.5986 0 1 0 1 0 -0.0247 0.0247 0 1 9391 - ls60.dat
1 0 -6.000000000000001 -75.2575 82.0926 0 1 0 0.9963 0 -0.0861 0.0861 0 0.9963 9391 - ls60.dat
1 0 -6.000000000000001 -75.5569 83.565 0 1 0 0.9852 0 -0.17130000000000004 0.17130000000000004 0 0.9852 9391 - ls60.dat
1 0 -6.000000000000001 -76.051 84.9874 0 1 0 0.9571000000000001 0 -0.2898 0.2898 0 0.9571000000000001 9391 - ls60.dat
1 0 -6.000000000000001 -76.8041 86.2979 0 1 0 0.8937 0 -0.4487 0.4487 0 0.8937 9391 - ls60.dat
1 0 -6.000000000000001 -77.8527 87.39510000000001 0 1 0 0.7715 0 -0.6362 0.6362 0 0.7715 9391 - ls60.dat
1 0 -6.000000000000001 -79.1502 88.1901 0 1 0 0.59 0 -0.8074000000000001 0.8074000000000001 0 0.59 9391 - ls60.dat
1 0 -6.000000000000001 -80.58530000000002 88.6817 0 1 0 0.39330000000000004 0 -0.9194000000000001 0.9194000000000001 0 0.39330000000000004 9391 - ls60.dat
1 0 -6.000000000000001 -82.0745 88.9387 0 1 0 0.2266 0 -0.974 0.974 0 0.2266 9391 - ls60.dat
1 0 -6.000000000000001 -83.57820000000001 89.028 0 1 0 0.10120000000000001 0 -0.9949000000000001 0.9949000000000001 0 0.10120000000000001 9391 - ls60.dat
1 0 -5.9491 -85.079 88.90730000000002 0.0009000000000000001 1 0.025400000000000002 -0.0351 0.025500000000000002 -0.9991 0.9994000000000001 0 -0.0351 9391 - ls60.dat
1 0 -5.800800000000001 -86.55790000000002 88.6783 0.01 0.9967000000000001 0.0805 -0.12290000000000001 0.0811 -0.9891 0.9924 0 -0.1233 9391 - ls60.dat
1 0 -5.560900000000001 -87.9826 88.2475 0.0177 0.99 0.14 -0.24610000000000004 0.1401 -0.9591 0.9691 0.0175 -0.24610000000000004 9391 - ls60.dat
1 0 -5.237500000000001 -89.2843 87.5496 0.0298 0.98 0.19670000000000004 -0.41300000000000003 0.19130000000000003 -0.8904000000000001 0.9103 0.0547 -0.4104 9391 - ls60.dat
1 0 -4.869 -90.3644 86.5475 0.047400000000000005 0.9712 0.2334 -0.611 0.213 -0.7624 0.7902 0.1065 -0.6035 9391 - ls60.dat
1 0 -4.5226 -91.14490000000002 85.2866 0.0591 0.9711000000000001 0.2314 -0.7928000000000001 0.1865 -0.5803 0.6066 0.1492 -0.7809 9391 - ls60.dat
1 0 -4.2537 -91.6343 83.8743 0.0514 0.98 0.19210000000000002 -0.9127000000000001 0.1242 -0.3894 0.4055 0.1553 -0.9008 9391 - ls60.dat
1 0 -4.0795 -91.90130000000002 82.3975 0.0311 0.9903000000000001 0.1351 -0.9710000000000001 0.062000000000000006 -0.23080000000000003 0.237 0.12400000000000001 -0.9636 9391 - ls60.dat
1 0 -3.9948000000000006 -92.01260000000002 80.898 0.0126 0.9970000000000001 0.0762 -0.9933000000000001 0.0212 -0.11340000000000001 0.1146 0.0742 -0.9906000000000001 9391 - ls60.dat
1 0 -4.032 -91.91830000000002 79.3934 0 1 0.0004 -1 0 0.0188 -0.0188 0.0004 -1 9391 - ls60.dat
1 0 -4.0299 -91.7917 77.8976 0 1 0.0012 -0.9977000000000001 0 0.068 -0.068 0.0012 -0.9977000000000001 9391 - ls60.dat
1 0 -4.0265 -91.5446 76.41580000000002 0 1 0.002 -0.9901 0 0.1405 -0.1405 0.002 -0.9901 9391 - ls60.dat
1 0 -4.0218 -91.11940000000001 74.9718 0 1 0.0028000000000000004 -0.9688000000000001 -0.0007000000000000001 0.2477 -0.2477 0.0027 -0.9688000000000001 9391 - ls60.dat
1 0 -4.016200000000001 -90.439 73.6241 0 1 0.0035000000000000005 -0.9156 -0.0014000000000000002 0.4020000000000001 -0.4020000000000001 0.0032 -0.9156 9391 - ls60.dat
1 0 -4.0102 -89.4383 72.4832 0 1 0.0039 -0.7994000000000001 -0.0021000000000000003 0.6009 -0.6009 0.0032 -0.7993 9391 - ls60.dat
1 0 -4.0051 -88.1467 71.67100000000002 0.0005 1 0.0035000000000000005 -0.6056 -0.0025 0.7958 -0.7958 0.0025 -0.6056 9391 - ls60.dat
1 0 -4.0017 -86.69740000000002 71.2048 0.0005 1 0.0026 -0.38420000000000004 -0.0022000000000000006 0.9232000000000001 -0.9232000000000001 0.0015 -0.38420000000000004 9391 - ls60.dat
1 0 -4 -85.1975 70.9985 0.0003 1 0.0015 -0.19890000000000002 -0.0014000000000000002 0.98 -0.98 0.0006 -0.19890000000000002 9391 - ls60.dat
1 0 -4 -83.6914 70.9689 0 1 0.0005 -0.0645 -0.0005 0.9979 -0.9979 0 -0.0645 9391 - ls60.dat
1 0 -4 -82.1911 71.0702 0 1 0 0.0346 0 0.9994000000000001 -0.9994000000000001 0 0.0346 9391 - ls60.dat
1 0 -4 -80.70480000000002 71.2946 0 1 0 0.1208 0 0.9927000000000001 -0.9927000000000001 0 0.1208 9391 - ls60.dat
1 0 -4 -79.2586 71.7158 0 1 0 0.24070000000000003 0 0.9706000000000001 -0.9706000000000001 0 0.24070000000000003 9391 - ls60.dat
1 0 -4 -77.9137 72.4024 0 1 0 0.4035 0 0.9150000000000001 -0.9150000000000001 0 0.4035 9391 - ls60.dat
1 0 -4 -76.7704 73.40180000000001 0 1 0 0.6003000000000001 0 0.7998 -0.7998 0 0.6003000000000001 9391 - ls60.dat
1 0 -4 -75.9305 74.6719 0 1 0 0.7849 0 0.6196 -0.6196 0 0.7849 9391 - ls60.dat
1 0 -4 -75.4006 76.0957 0 1 0 0.9077000000000001 0 0.4195 -0.4195 0 0.9077000000000001 9391 - ls60.dat
1 0 -4 -75.1102 77.579 0 1 0 0.9683000000000002 0 0.2499 -0.2499 0 0.9683000000000002 9391 - ls60.dat
1 0 -4 -74.98760000000001 79.0803 0 1 0 0.9923 0 0.1237 -0.1237 0 0.9923 9391 - ls60.dat
1 0 -4 -75.0984 80.58480000000002 0 1 0 1 0 -0.024600000000000004 0.024600000000000004 0 1 9391 - ls60.dat
1 0 -4 -75.2576 82.078 0 1 0 0.9963 0 -0.0857 0.0857 0 0.9963 9391 - ls60.dat
1 0 -4 -75.556 83.5516 0 1 0 0.9853000000000001 0 -0.17060000000000003 0.17060000000000003 0 0.9853000000000001 9391 - ls60.dat
1 0 -4 -76.0485 84.9756 0 1 0 0.9574 0 -0.2887 0.2887 0 0.9574 9391 - ls60.dat
1 0 -4 -76.7986 86.2869 0 1 0 0.8945000000000001 0 -0.4471 0.4471 0 0.8945000000000001 9391 - ls60.dat
1 0 -4 -77.844 87.3862 0 1 0 0.7730000000000001 0 -0.6344 0.6344 0 0.7730000000000001 9391 - ls60.dat
1 0 -4 -79.139 88.1839 0 1 0 0.5920000000000001 0 -0.806 0.806 0 0.5920000000000001 9391 - ls60.dat
1 0 -4 -80.57410000000002 88.67850000000001 0 1 0 0.3950000000000001 0 -0.9187000000000001 0.9187000000000001 0 0.3950000000000001 9391 - ls60.dat
1 0 -4 -82.06380000000001 88.9373 0 1 0 0.2278 0 -0.9737000000000001 0.9737000000000001 0 0.2278 9391 - ls60.dat
1 0 -4 -83.5684 89.0278 0 1 0 0.10200000000000001 0 -0.9948000000000001 0.9948000000000001 0 0.10200000000000001 9391 - ls60.dat
1 0 -3.9491000000000005 -85.07040000000002 88.9069 0.0009000000000000001 1 0.025400000000000002 -0.035 0.025400000000000002 -0.9991 0.9994000000000001 0 -0.035 9391 - ls60.dat
1 0 -3.8010000000000006 -86.55 88.6783 0.01 0.9967000000000001 0.0804 -0.1226 0.08100000000000002 -0.9891 0.9924 0 -0.123 9391 - ls60.dat
1 0 -3.5612 -87.9755 88.24820000000001 0.017600000000000005 0.99 0.1399 -0.24570000000000003 0.1399 -0.9592 0.9692000000000001 0.0175 -0.24570000000000003 9391 - ls60.dat
1 0 -3.2379000000000002 -89.2785 87.5512 0.029700000000000004 0.98 0.1965 -0.4124 0.19110000000000002 -0.8907 0.9105000000000001 0.0546 -0.40980000000000005 9391 - ls60.dat
1 0 -2.8695 -90.36050000000002 86.55 0.047 0.9713 0.23320000000000002 -0.6103000000000001 0.2128 -0.7631 0.7908 0.1064 -0.6027 9391 - ls60.dat
1 0 -2.5233 -91.1419 85.291 0.0587 0.9711000000000001 0.2313 -0.792 0.18630000000000002 -0.5813 0.6076000000000001 0.1491 -0.7801000000000001 9391 - ls60.dat
1 0 -2.2545 -91.6323 83.8802 0.0512 0.98 0.1922 -0.9122000000000001 0.1243 -0.3904000000000001 0.4065 0.1554 -0.9003 9391 - ls60.dat
1 0 -2.08 -91.90040000000002 82.4031 0.031000000000000003 0.9903000000000001 0.1353 -0.9708 0.0621 -0.2316 0.2377 0.12410000000000002 -0.9634 9391 - ls60.dat
1 0 -1.9949 -92.0124 80.903 0.0126 0.9970000000000001 0.0763 -0.9933000000000001 0.0212 -0.11380000000000001 0.1151 0.0743 -0.9906000000000001 9391 - ls60.dat
1 0 -2.0322 -91.918 79.3977 0 1 0.0004 -1 0 0.0188 -0.0188 0.0004 -1 9391 - ls60.dat
1 0 -2.03 -91.79160000000002 77.9016 0 1 0.0012 -0.9977000000000001 0 0.06790000000000002 -0.06790000000000002 0.0012 -0.9977000000000001 9391 - ls60.dat
1 0 -2.0266 -91.5448 76.4194 0 1 0.002 -0.9901 0 0.1403 -0.1403 0.002 -0.9901 9391 - ls60.dat
1 0 -2.0219 -91.1199 74.9749 0 1 0.0028000000000000004 -0.9689000000000001 -0.0007000000000000001 0.2474 -0.2474 0.0028000000000000004 -0.9689000000000001 9391 - ls60.dat
1 0 -2.0163 -90.44 73.6266 0 1 0.0035000000000000005 -0.9158 -0.0014000000000000002 0.40170000000000006 -0.40170000000000006 0.0033 -0.9158 9391 - ls60.dat
1 0 -2.0103 -89.4395 72.4848 0 1 0.0039 -0.7996000000000001 -0.0022000000000000006 0.6005 -0.6005 0.0032 -0.7996000000000001 9391 - ls60.dat
1 0 -2.0052 -88.148 71.6719 0.0005 1 0.0035000000000000005 -0.6059000000000001 -0.0025 0.7955000000000001 -0.7955000000000001 0.0025 -0.6059000000000001 9391 - ls60.dat
1 0 -2.0017 -86.69870000000002 71.20490000000001 0.0005 1 0.0026 -0.3846 -0.0022000000000000006 0.9231 -0.9231 0.0015 -0.3846 9391 - ls60.dat
1 0 -2 -85.20020000000001 70.9987 0.0003 1 0.0015 -0.1992 -0.0014000000000000002 0.98 -0.98 0.0006 -0.1992 9391 - ls60.dat
1 0 -1.9997 -83.69370000000002 70.9688 0 1 0.0005 -0.06470000000000001 -0.0005 0.9979 -0.9979 0 -0.06470000000000001 9391 - ls60.dat
1 0 -2 -82.1931 71.0702 0 1 0 0.0346 0 0.9994000000000001 -0.9994000000000001 0 0.0346 9391 - ls60.dat
1 0 -2 -80.70660000000001 71.2945 0 1 0 0.1208 0 0.9927000000000001 -0.9927000000000001 0 0.1208 9391 - ls60.dat
1 0 -2 -79.2602 71.7156 0 1 0 0.2406 0 0.9706000000000001 -0.9706000000000001 0 0.2406 9391 - ls60.dat
1 0 -2 -77.915 72.402 0 1 0 0.40330000000000005 0 0.9151 -0.9151 0 0.40330000000000005 9391 - ls60.dat
1 0 -2 -76.7714 73.4012 0 1 0 0.6001 0 0.7999 -0.7999 0 0.6001 9391 - ls60.dat
1 0 -2 -75.9311 74.6713 0 1 0 0.7848 0 0.6198000000000001 -0.6198000000000001 0 0.7848 9391 - ls60.dat
1 0 -2 -75.4009 76.0951 0 1 0 0.9077000000000001 0 0.4197000000000001 -0.4197000000000001 0 0.9077000000000001 9391 - ls60.dat
1 0 -2 -75.1104 77.57850000000002 0 1 0 0.9682000000000001 0 0.25 -0.25 0 0.9682000000000001 9391 - ls60.dat
1 0 -2 -74.98760000000001 79.0799 0 1 0 0.9923 0 0.12380000000000001 -0.12380000000000001 0 0.9923 9391 - ls60.dat
1 0 -2 -75.0985 80.5845 0 1 0 1 0 -0.024600000000000004 0.024600000000000004 0 1 9391 - ls60.dat
1 0 -2 -75.2576 82.0777 0 1 0 0.9963 0 -0.0857 0.0857 0 0.9963 9391 - ls60.dat
1 0 -2 -75.556 83.5514 0 1 0 0.9853000000000001 0 -0.17060000000000003 0.17060000000000003 0 0.9853000000000001 9391 - ls60.dat
1 0 -2 -76.0485 84.9754 0 1 0 0.9574 0 -0.2887 0.2887 0 0.9574 9391 - ls60.dat
1 0 -2 -76.7986 86.2867 0 1 0 0.8945000000000001 0 -0.4471 0.4471 0 0.8945000000000001 9391 - ls60.dat
1 0 -2 -77.844 87.3861 0 1 0 0.7731 0 -0.6343 0.6343 0 0.7731 9391 - ls60.dat
1 0 -2 -79.1389 88.18380000000002 0 1 0 0.5920000000000001 0 -0.806 0.806 0 0.5920000000000001 9391 - ls60.dat
1 0 -2 -80.57410000000002 88.67850000000001 0 1 0 0.3950000000000001 0 -0.9187000000000001 0.9187000000000001 0 0.3950000000000001 9391 - ls60.dat
1 0 -2 -82.0637 88.9375 0 1 0 0.22790000000000002 0 -0.9737000000000001 0.9737000000000001 0 0.22790000000000002 9391 - ls60.dat
1 0 -2 -83.5664 89.0278 0 1 0 0.1021 0 -0.9948000000000001 0.9948000000000001 0 0.1021 9391 - ls60.dat
1 0 -1.9491000000000003 -85.06860000000002 88.9069 0.0009000000000000001 1 0.025400000000000002 -0.035 0.025400000000000002 -0.9991 0.9994000000000001 0 -0.035 9391 - ls60.dat
1 0 -1.8011 -86.54830000000001 88.67850000000001 0.01 0.9967000000000001 0.0804 -0.1225 0.08100000000000002 -0.9892000000000001 0.9924 0 -0.12290000000000001 9391 - ls60.dat
1 0 -1.5616000000000003 -87.9723 88.249 0.017600000000000005 0.99 0.1398 -0.24540000000000003 0.1398 -0.9593000000000002 0.9693000000000002 0.0175 -0.24540000000000003 9391 - ls60.dat
1 0 -1.2384 -89.2758 87.55250000000001 0.029600000000000005 0.9801 0.19640000000000002 -0.41200000000000003 0.19100000000000003 -0.8909 0.9107 0.0546 -0.4095 9391 - ls60.dat
1 0 -0.8700000000000001 -90.35850000000002 86.55190000000002 0.0469 0.9713 0.23320000000000002 -0.6099 0.2127 -0.7634000000000001 0.7911000000000001 0.1064 -0.6024 9391 - ls60.dat
1 0 -0.5238 -91.1407 85.29310000000001 0.058600000000000006 0.9711000000000001 0.2314 -0.7918000000000001 0.18630000000000002 -0.5817 0.608 0.1491 -0.7798 9391 - ls60.dat
1 0 -0.2548 -91.63160000000002 83.88240000000002 0.0512 0.98 0.1923 -0.9121000000000001 0.1243 -0.39080000000000004 0.40690000000000004 0.1554 -0.9002 9391 - ls60.dat
1 0 -0.08010000000000002 -91.9001 82.4053 0.031000000000000003 0.9903000000000001 0.1353 -0.9708 0.0621 -0.23180000000000003 0.23800000000000002 0.1242 -0.9633000000000002 9391 - ls60.dat
1 0 0.005 -92.01230000000001 80.9051 0.0126 0.9970000000000001 0.0763 -0.9933000000000001 0.0213 -0.114 0.1153 0.0744 -0.9905000000000002 9391 - ls60.dat
1 0 -0.0323 -91.9179 79.3996 0 1 0.0004 -1 0 0.0188 -0.0188 0.0004 -1 9391 - ls60.dat
1 0 -0.030100000000000002 -91.7915 77.9033 0 1 0.0012 -0.9977000000000001 0 0.06790000000000002 -0.06790000000000002 0.0012 -0.9977000000000001 9391 - ls60.dat
1 0 -0.026700000000000005 -91.545 76.4209 0 1 0.002 -0.9901 0 0.1402 -0.1402 0.002 -0.9901 9391 - ls60.dat
1 0 -0.022000000000000002 -91.1208 74.978 0 1 0.0028000000000000004 -0.969 -0.0007000000000000001 0.2471 -0.2471 0.0028000000000000004 -0.969 9391 - ls60.dat
1 0 -0.0163 -90.4414 73.6292 0 1 0.0036000000000000003 -0.9159 -0.0014000000000000002 0.4013 -0.4013 0.0033 -0.9159 9391 - ls60.dat
1 0 -0.0103 -89.44140000000002 72.4866 0 1 0.0039 -0.7999 -0.0022000000000000006 0.6001 -0.6001 0.0032 -0.7999 9391 - ls60.dat
1 0 -0.0052 -88.15020000000001 71.6729 0.0005 1 0.0035000000000000005 -0.6063 -0.0025 0.7953 -0.7953 0.0025 -0.6063 9391 - ls60.dat
1 0 -0.0018000000000000002 -86.7008 71.2054 0.0005 1 0.0026 -0.3849 -0.0022000000000000006 0.9229 -0.9229 0.0015 -0.3849 9391 - ls60.dat
1 0 0 -85.2022 70.9989 0.0003 1 0.0015 -0.1994 -0.0014000000000000002 0.9799000000000001 -0.9799000000000001 0.0006 -0.1994 9391 - ls60.dat
1 0 0.0003 -83.69550000000001 70.9688 0 1 0.0005 -0.0648 -0.0005 0.9979 -0.9979 0 -0.0648 9391 - ls60.dat
1 0 0 -82.1946 71.0702 0 1 0 0.0345 0 0.9994000000000001 -0.9994000000000001 0 0.0345 9391 - ls60.dat
1 0 0 -80.708 71.2944 0 1 0 0.1207 0 0.9927000000000001 -0.9927000000000001 0 0.1207 9391 - ls60.dat
1 0 0 -79.26140000000001 71.7154 0 1 0 0.2406 0 0.9706000000000001 -0.9706000000000001 0 0.2406 9391 - ls60.dat
1 0 0 -77.9161 72.4017 0 1 0 0.4032 0 0.9151 -0.9151 0 0.4032 9391 - ls60.dat
1 0 0 -76.7721 73.4008 0 1 0 0.6 0 0.8000000000000002 -0.8000000000000002 0 0.6 9391 - ls60.dat
1 0 0 -75.9315 74.6708 0 1 0 0.7847 0 0.6199 -0.6199 0 0.7847 9391 - ls60.dat
1 0 0 -75.4011 76.0947 0 1 0 0.9076000000000001 0 0.41980000000000006 -0.41980000000000006 0 0.9076000000000001 9391 - ls60.dat
1 0 0 -75.1104 77.5781 0 1 0 0.9682000000000001 0 0.2501 -0.2501 0 0.9682000000000001 9391 - ls60.dat
1 0 0 -74.98760000000001 79.0798 0 1 0 0.9923 0 0.12380000000000001 -0.12380000000000001 0 0.9923 9391 - ls60.dat
1 0 0 -75.0985 80.58440000000002 0 1 0 1 0 -0.024600000000000004 0.024600000000000004 0 1 9391 - ls60.dat
1 0 0 -75.2576 82.0777 0 1 0 0.9963 0 -0.0857 0.0857 0 0.9963 9391 - ls60.dat
1 0 0 -75.556 83.55130000000001 0 1 0 0.9853000000000001 0 -0.17060000000000003 0.17060000000000003 0 0.9853000000000001 9391 - ls60.dat
1 0 0 -76.0484 84.9753 0 1 0 0.9574 0 -0.2887 0.2887 0 0.9574 9391 - ls60.dat
1 0 0 -76.7986 86.2867 0 1 0 0.8945000000000001 0 -0.4471 0.4471 0 0.8945000000000001 9391 - ls60.dat
1 0 0 -77.844 87.3861 0 1 0 0.7731 0 -0.6343 0.6343 0 0.7731 9391 - ls60.dat
1 0 0 -79.1389 88.18380000000002 0 1 0 0.5920000000000001 0 -0.806 0.806 0 0.5920000000000001 9391 - ls60.dat
1 0 0 -80.57410000000002 88.67850000000001 0 1 0 0.3950000000000001 0 -0.9187000000000001 0.9187000000000001 0 0.3950000000000001 9391 - ls60.dat
1 0 0 -82.0637 88.9375 0 1 0 0.22790000000000002 0 -0.9737000000000001 0.9737000000000001 0 0.22790000000000002 9391 - ls60.dat
1 0 0 -83.5664 89.0278 0 1 0 0.1021 0 -0.9948000000000001 0.9948000000000001 0 0.1021 9391 - ls60.dat
1 0 0.05090000000000001 -85.0685 88.9069 0.0009000000000000001 1 0.025400000000000002 -0.035 0.025400000000000002 -0.9991 0.9994000000000001 0 -0.035 9391 - ls60.dat
1 0 0.19890000000000002 -86.54830000000001 88.67850000000001 0.01 0.9967000000000001 0.0804 -0.1225 0.08100000000000002 -0.9892000000000001 0.9924 0 -0.12290000000000001 9391 - ls60.dat
1 0 0.4384 -87.9723 88.249 0.017600000000000005 0.99 0.1398 -0.24540000000000003 0.1398 -0.9593000000000002 0.9693000000000002 0.0175 -0.24540000000000003 9391 - ls60.dat
1 0 0.7616 -89.2758 87.55250000000001 0.029600000000000005 0.9801 0.19640000000000002 -0.41200000000000003 0.19100000000000003 -0.8909 0.9107 0.0546 -0.4095 9391 - ls60.dat
1 0 1.13 -90.35850000000002 86.55190000000002 0.0469 0.9713 0.23320000000000002 -0.6099 0.2127 -0.7634000000000001 0.7911000000000001 0.1064 -0.6024 9391 - ls60.dat
1 0 1.4762 -91.1407 85.29310000000001 0.058600000000000006 0.9711000000000001 0.2314 -0.7918000000000001 0.18630000000000002 -0.5817 0.608 0.1491 -0.7798 9391 - ls60.dat
1 0 1.7452 -91.63160000000002 83.88240000000002 0.0512 0.98 0.1923 -0.9121000000000001 0.1243 -0.39080000000000004 0.40690000000000004 0.1554 -0.9002 9391 - ls60.dat
1 0 1.9199 -91.9001 82.4053 0.031000000000000003 0.9903000000000001 0.1353 -0.9708 0.0621 -0.23180000000000003 0.23800000000000002 0.1242 -0.9633000000000002 9391 - ls60.dat
1 0 2.005 -92.01230000000001 80.9051 0.0126 0.9970000000000001 0.0763 -0.9933000000000001 0.0213 -0.114 0.1153 0.0744 -0.9905000000000002 9391 - ls60.dat
1 0 1.9677 -91.9179 79.3996 0 1 0.0004 -1 0 0.0188 -0.0188 0.0004 -1 9391 - ls60.dat
1 0 1.9699 -91.7915 77.9033 0 1 0.0012 -0.9977000000000001 0 0.06790000000000002 -0.06790000000000002 0.0012 -0.9977000000000001 9391 - ls60.dat
1 0 1.9733 -91.54490000000001 76.4209 0 1 0.002 -0.9901 0 0.1402 -0.1402 0.002 -0.9901 9391 - ls60.dat
1 0 1.978 -91.1208 74.978 0 1 0.0028000000000000004 -0.969 -0.0007000000000000001 0.2471 -0.2471 0.0028000000000000004 -0.969 9391 - ls60.dat
1 0 1.9837000000000002 -90.4414 73.6292 0 1 0.0036000000000000003 -0.9159 -0.0014000000000000002 0.4013 -0.4013 0.0033 -0.9159 9391 - ls60.dat
1 0 1.9897 -89.44140000000002 72.4866 0 1 0.0039 -0.7999 -0.0022000000000000006 0.6001 -0.6001 0.0032 -0.7999 9391 - ls60.dat
1 0 1.9948 -88.1501 71.6729 0.0005 1 0.0035000000000000005 -0.6063 -0.0025 0.7953 -0.7953 0.0025 -0.6063 9391 - ls60.dat
1 0 1.9982 -86.7008 71.2054 0.0005 1 0.0026 -0.3849 -0.0022000000000000006 0.9229 -0.9229 0.0015 -0.3849 9391 - ls60.dat
1 0 2 -85.2022 70.9989 0.0003 1 0.0015 -0.1994 -0.0014000000000000002 0.9799000000000001 -0.9799000000000001 0.0006 -0.1994 9391 - ls60.dat
1 0 2 -83.6956 70.9688 0 1 0.0005 -0.0648 -0.0005 0.9979 -0.9979 0 -0.0648 9391 - ls60.dat
1 0 2 -82.1946 71.0702 0 1 0 0.0345 0 0.9994000000000001 -0.9994000000000001 0 0.0345 9391 - ls60.dat
1 0 2 -80.708 71.2944 0 1 0 0.1207 0 0.9927000000000001 -0.9927000000000001 0 0.1207 9391 - ls60.dat
1 0 2 -79.26140000000001 71.7154 0 1 0 0.2406 0 0.9706000000000001 -0.9706000000000001 0 0.2406 9391 - ls60.dat
1 0 2 -77.9161 72.4017 0 1 0 0.4032 0 0.9151 -0.9151 0 0.4032 9391 - ls60.dat
1 0 2 -76.7721 73.4008 0 1 0 0.6 0 0.8000000000000002 -0.8000000000000002 0 0.6 9391 - ls60.dat
1 0 2 -75.9315 74.6708 0 1 0 0.7847 0 0.6199 -0.6199 0 0.7847 9391 - ls60.dat
1 0 2 -75.4011 76.0947 0 1 0 0.9076000000000001 0 0.41980000000000006 -0.41980000000000006 0 0.9076000000000001 9391 - ls60.dat
1 0 2 -75.1104 77.5781 0 1 0 0.9682000000000001 0 0.2501 -0.2501 0 0.9682000000000001 9391 - ls60.dat
1 0 2 -74.98760000000001 79.0798 0 1 0 0.9923 0 0.12380000000000001 -0.12380000000000001 0 0.9923 9391 - ls60.dat
1 0 2 -75.0985 80.58440000000002 0 1 0 1 0 -0.024600000000000004 0.024600000000000004 0 1 9391 - ls60.dat
1 0 2 -75.2576 82.0776 0 1 0 0.9963 0 -0.0857 0.0857 0 0.9963 9391 - ls60.dat
1 0 2 -75.556 83.55130000000001 0 1 0 0.9853000000000001 0 -0.17060000000000003 0.17060000000000003 0 0.9853000000000001 9391 - ls60.dat
1 0 2 -76.0484 84.9753 0 1 0 0.9574 0 -0.2887 0.2887 0 0.9574 9391 - ls60.dat
1 0 2 -76.7986 86.2867 0 1 0 0.8945000000000001 0 -0.4471 0.4471 0 0.8945000000000001 9391 - ls60.dat
1 0 2 -77.8439 87.3861 0 1 0 0.7731 0 -0.6343 0.6343 0 0.7731 9391 - ls60.dat
1 0 2 -79.1389 88.18380000000002 0 1 0 0.5920000000000001 0 -0.806 0.806 0 0.5920000000000001 9391 - ls60.dat
1 0 2 -80.574 88.67850000000001 0 1 0 0.3951 0 -0.9187000000000001 0.9187000000000001 0 0.3951 9391 - ls60.dat
1 0 2 -82.0637 88.9375 0 1 0 0.22790000000000002 0 -0.9737000000000001 0.9737000000000001 0 0.22790000000000002 9391 - ls60.dat
1 0 2 -83.5664 89.0278 0 1 0 0.1021 0 -0.9948000000000001 0.9948000000000001 0 0.1021 9391 - ls60.dat
1 0 2.0509 -85.0685 88.9069 0.0009000000000000001 1 0.025400000000000002 -0.035 0.025400000000000002 -0.9991 0.9994000000000001 0 -0.035 9391 - ls60.dat
1 0 2.1989 -86.54830000000001 88.67850000000001 0.01 0.9967000000000001 0.0804 -0.1225 0.08100000000000002 -0.9892000000000001 0.9924 0 -0.12290000000000001 9391 - ls60.dat
1 0 2.4384 -87.9723 88.249 0.017600000000000005 0.99 0.1398 -0.24540000000000003 0.1398 -0.9593000000000002 0.9693000000000002 0.0175 -0.24550000000000002 9391 - ls60.dat
1 0 2.7616 -89.2758 87.55250000000001 0.029600000000000005 0.9801 0.19640000000000002 -0.41200000000000003 0.19100000000000003 -0.8909 0.9107 0.0546 -0.4095 9391 - ls60.dat
1 0 3.13 -90.35850000000002 86.55190000000002 0.0469 0.9713 0.23320000000000002 -0.6099 0.2127 -0.7634000000000001 0.7911000000000001 0.1064 -0.6024 9391 - ls60.dat
1 0 3.4762000000000004 -91.1407 85.29310000000001 0.058600000000000006 0.9711000000000001 0.2314 -0.7918000000000001 0.18630000000000002 -0.5817 0.608 0.1491 -0.7798 9391 - ls60.dat
1 0 3.7452 -91.63160000000002 83.88240000000002 0.0512 0.98 0.1923 -0.9121000000000001 0.1243 -0.39080000000000004 0.40690000000000004 0.1554 -0.9002 9391 - ls60.dat
1 0 3.9199000000000006 -91.9001 82.4053 0.031000000000000003 0.9903000000000001 0.1353 -0.9708 0.0621 -0.23180000000000003 0.23800000000000002 0.1242 -0.9633000000000002 9391 - ls60.dat
1 0 4.005 -92.01230000000001 80.9052 0.0126 0.9970000000000001 0.0763 -0.9933000000000001 0.0213 -0.114 0.1153 0.0744 -0.9905000000000002 9391 - ls60.dat
1 0 3.9677000000000002 -91.9179 79.3996 0 1 0.0004 -1 0 0.0188 -0.0188 0.0004 -1 9391 - ls60.dat
1 0 3.9699 -91.7915 77.9034 0 1 0.0012 -0.9977000000000001 0 0.06790000000000002 -0.06790000000000002 0.0012 -0.9977000000000001 9391 - ls60.dat
1 0 3.9733 -91.545 76.4209 0 1 0.002 -0.9901 0 0.1402 -0.1402 0.002 -0.9901 9391 - ls60.dat
1 0 3.9780000000000006 -91.1208 74.978 0 1 0.0028000000000000004 -0.969 -0.0007000000000000001 0.2471 -0.2471 0.0028000000000000004 -0.969 9391 - ls60.dat
1 0 3.9837 -90.4414 73.6292 0 1 0.0036000000000000003 -0.9159 -0.0014000000000000002 0.4013 -0.4013 0.0033 -0.9159 9391 - ls60.dat
1 0 3.9897000000000005 -89.44140000000002 72.4866 0 1 0.0039 -0.7999 -0.0022000000000000006 0.6001 -0.6001 0.0032 -0.7999 9391 - ls60.dat
1 0 3.9948000000000006 -88.15020000000001 71.6729 0.0005 1 0.0035000000000000005 -0.6063 -0.0025 0.7953 -0.7953 0.0025 -0.6063 9391 - ls60.dat
1 0 3.9982000000000006 -86.7008 71.2054 0.0005 1 0.0026 -0.3849 -0.0022000000000000006 0.9229 -0.9229 0.0015 -0.3849 9391 - ls60.dat
1 0 4 -85.2023 70.9989 0.0003 1 0.0015 -0.1994 -0.0014000000000000002 0.9799000000000001 -0.9799000000000001 0.0006 -0.1994 9391 - ls60.dat
1 0 4 -83.6956 70.9688 0 1 0.0005 -0.0648 -0.0005 0.9979 -0.9979 0 -0.0648 9391 - ls60.dat
1 0 4 -82.1946 71.0702 0 1 0 0.0345 0 0.9994000000000001 -0.9994000000000001 0 0.0345 9391 - ls60.dat
1 0 4 -80.708 71.2944 0 1 0 0.1207 0 0.9927000000000001 -0.9927000000000001 0 0.1207 9391 - ls60.dat
1 0 4 -79.26140000000001 71.7154 0 1 0 0.2406 0 0.9706000000000001 -0.9706000000000001 0 0.2406 9391 - ls60.dat
1 0 4 -77.9161 72.4017 0 1 0 0.4032 0 0.9151 -0.9151 0 0.4032 9391 - ls60.dat
1 0 4 -76.7721 73.4008 0 1 0 0.6 0 0.8000000000000002 -0.8000000000000002 0 0.6 9391 - ls60.dat
1 0 4 -75.9315 74.6708 0 1 0 0.7847 0 0.6199 -0.6199 0 0.7847 9391 - ls60.dat
1 0 4 -75.4011 76.0947 0 1 0 0.9076000000000001 0 0.41980000000000006 -0.41980000000000006 0 0.9076000000000001 9391 - ls60.dat
1 0 4 -75.1104 77.5781 0 1 0 0.9682000000000001 0 0.2501 -0.2501 0 0.9682000000000001 9391 - ls60.dat
1 0 4 -74.98760000000001 79.0798 0 1 0 0.9923 0 0.12380000000000001 -0.12380000000000001 0 0.9923 9391 - ls60.dat
1 0 4 -75.0985 80.58440000000002 0 1 0 1 0 -0.024600000000000004 0.024600000000000004 0 1 9391 - ls60.dat
1 0 4 -75.2576 82.0776 0 1 0 0.9963 0 -0.0857 0.0857 0 0.9963 9391 - ls60.dat
1 0 4 -75.556 83.55130000000001 0 1 0 0.9853000000000001 0 -0.17060000000000003 0.17060000000000003 0 0.9853000000000001 9391 - ls60.dat
1 0 4 -76.0484 84.9753 0 1 0 0.9574 0 -0.2887 0.2887 0 0.9574 9391 - ls60.dat
1 0 4 -76.7986 86.2867 0 1 0 0.8945000000000001 0 -0.4471 0.4471 0 0.8945000000000001 9391 - ls60.dat
1 0 4 -77.8439 87.3861 0 1 0 0.7731 0 -0.6343 0.6343 0 0.7731 9391 - ls60.dat
1 0 4 -79.1389 88.18380000000002 0 1 0 0.5920000000000001 0 -0.8059 0.8059 0 0.5920000000000001 9391 - ls60.dat
1 0 4 -80.574 88.67850000000001 0 1 0 0.3950000000000001 0 -0.9187000000000001 0.9187000000000001 0 0.3950000000000001 9391 - ls60.dat
1 0 4 -82.0637 88.9375 0 1 0 0.22790000000000002 0 -0.9737000000000001 0.9737000000000001 0 0.22790000000000002 9391 - ls60.dat
1 0 4 -83.5664 89.0278 0 1 0 0.1021 0 -0.9948000000000001 0.9948000000000001 0 0.1021 9391 - ls60.dat
1 0 4 -85.0701 88.9448 0 1 0 -0.016 0 -1 1 0 -0.016 9391 - ls60.dat
1 0 4 -86.56350000000002 88.78 0 1 0 -0.0864 0 -0.9963 0.9963 0 -0.0864 9391 - ls60.dat
1 0 4 -87.99460000000002 88.2954 0 1 0 -0.2639 0 -0.9646 0.9646 0 -0.2639 9391 - ls60.dat
1 0 4 -89.1814 87.3247 0 1 0 -0.5513 0 -0.8343 0.8343 0 -0.5513 9391 - ls60.dat
1 0 4 -90.07220000000001 86.0868 0 1 0 -0.7566 0 -0.6538 0.6538 0 -0.7566 9391 - ls60.dat
1 0 4 -90.8368 84.788 0 1 0 -0.8382000000000001 0 -0.5454000000000001 0.5454000000000001 0 -0.8382000000000001 9391 - ls60.dat
1 0 3.9758000000000004 -91.6769 83.54510000000002 0.0008 1 -0.012100000000000001 -0.8309 -0.006100000000000001 -0.5563 0.5564 -0.010500000000000002 -0.8309 9391 - ls60.dat
1 0 3.9345000000000003 -92.61790000000002 82.3679 0.0031 1 -0.023600000000000003 -0.7940000000000002 -0.0119 -0.6078 0.6079 -0.0206 -0.7937 9391 - ls60.dat
1 0 3.8885000000000005 -93.58220000000001 81.2012 0.0047 0.9996 -0.028800000000000003 -0.7766000000000001 -0.0145 -0.6299 0.63 -0.025300000000000003 -0.7762000000000001 9391 - ls60.dat
1 0 3.8390000000000004 -94.5566 80.05340000000001 0.005900000000000001 0.9995 -0.03180000000000001 -0.766 -0.016 -0.6427 0.6428 -0.0281 -0.7655000000000001 9391 - ls60.dat
1 0 3.7870000000000004 -95.54070000000002 78.9164 0.0068000000000000005 0.9994000000000001 -0.0339 -0.7587 -0.017 -0.6512 0.6514 -0.030100000000000002 -0.7581 9391 - ls60.dat
1 0 3.7328000000000006 -96.53550000000001 77.7836 0.0075 0.9993000000000001 -0.0354 -0.7533000000000001 -0.017600000000000005 -0.6574000000000001 0.6576 -0.0316 -0.7527 9391 - ls60.dat
1 0 3.6768 -97.54000000000002 76.6527 0.0082 0.9993000000000001 -0.0366 -0.7492 -0.0182 -0.6621 0.6623 -0.0328 -0.7485000000000002 9391 - ls60.dat
1 0 3.6196000000000006 -98.5474 75.5289 0.0087 0.9993000000000001 -0.0376 -0.7459 -0.018500000000000003 -0.6658 0.666 -0.0338 -0.7452000000000001 9391 - ls60.dat
1 0 3.5616000000000003 -99.55330000000001 74.4152 0.0092 0.9992000000000001 -0.0383 -0.7432 -0.0188 -0.6688 0.669 -0.0346 -0.7425000000000002 9391 - ls60.dat
1 0 3.5026 -100.564 73.3026 0.0096 0.9992000000000001 -0.039 -0.741 -0.019 -0.6712 0.6714 -0.0354 -0.7402 9391 - ls60.dat
1 0 3.4429 -101.57800000000002 72.1924 0.010100000000000001 0.9992000000000001 -0.03950000000000001 -0.7392 -0.0192 -0.6732 0.6734 -0.036 -0.7384000000000001 9391 - ls60.dat
1 0 3.3825 -102.594 71.0853 0.0104 0.9991 -0.04 -0.7376 -0.019300000000000005 -0.6749 0.6751 -0.0366 -0.7368000000000001 9391 - ls60.dat
1 0 3.3216 -103.61000000000001 69.98180000000002 0.0108 0.9991 -0.040400000000000005 -0.7363 -0.0194 -0.6764000000000001 0.6766 -0.0371 -0.7355 9391 - ls60.dat
1 0 3.2598 -104.63500000000002 68.8721 0.0111 0.9991 -0.0408 -0.7352000000000001 -0.0195 -0.6776 0.6778 -0.0375 -0.7343 9391 - ls60.dat
1 0 3.1976000000000004 -105.66000000000001 67.7662 0.011400000000000002 0.9991 -0.0411 -0.7342 -0.0195 -0.6787 0.6788 -0.0379 -0.7333 9391 - ls60.dat
1 0 3.1352 -106.684 66.6636 0.0117 0.9991 -0.041400000000000006 -0.7334 -0.0195 -0.6795 0.6797 -0.0383 -0.7325000000000002 9391 - ls60.dat
1 0 3.0724 -107.707 65.56380000000001 0.012 0.9991 -0.0416 -0.7327 -0.0195 -0.6803000000000001 0.6805 -0.0387 -0.7317 9391 - ls60.dat
1 0 3.0095000000000005 -108.73000000000002 64.4663 0.012300000000000002 0.999 -0.0419 -0.7321 -0.0195 -0.681 0.6811 -0.039 -0.7311 9391 - ls60.dat
1 0 2.9463 -109.75200000000001 63.370400000000004 0.0126 0.999 -0.0421 -0.7316 -0.0195 -0.6815 0.6817 -0.0393 -0.7306 9391 - ls60.dat
1 0 2.8829 -110.775 62.27530000000001 0.0128 0.999 -0.04220000000000001 -0.7311 -0.0194 -0.6819 0.6821 -0.03960000000000001 -0.7302 9391 - ls60.dat
1 0 2.8192 -111.8 61.18030000000001 0.013100000000000002 0.999 -0.0424 -0.7308000000000001 -0.0194 -0.6823 0.6825000000000001 -0.0399 -0.7298 9391 - ls60.dat
1 0 2.7552 -112.825 60.0846 0.0133 0.999 -0.0425 -0.7305 -0.019300000000000005 -0.6826 0.6828 -0.0402 -0.7295 9391 - ls60.dat
1 0 2.6909 -113.85300000000001 58.987300000000005 0.013500000000000002 0.999 -0.0427 -0.7303 -0.019300000000000005 -0.6829000000000001 0.6830000000000002 -0.040400000000000005 -0.7293 9391 - ls60.dat
1 0 2.6263000000000005 -114.88300000000001 57.88740000000001 0.013800000000000002 0.999 -0.0428 -0.7301000000000001 -0.0192 -0.6830000000000002 0.6832 -0.040600000000000004 -0.7291000000000001 9391 - ls60.dat
1 0 2.5618000000000003 -115.90900000000002 56.792300000000004 0.014000000000000002 0.999 -0.04290000000000001 -0.7301000000000001 -0.0191 -0.6831 0.6833 -0.0409 -0.7290000000000001 9391 - ls60.dat
1 0 2.4969 -116.94000000000001 55.6926 0.014200000000000003 0.999 -0.043 -0.73 -0.019 -0.6832 0.6833 -0.0411 -0.7290000000000001 9391 - ls60.dat
1 0 2.4321 -117.96900000000001 54.595200000000006 0.014400000000000001 0.999 -0.043100000000000006 -0.73 -0.0189 -0.6832 0.6833 -0.04130000000000001 -0.7290000000000001 9391 - ls60.dat
1 0 2.3672 -118.996 53.498900000000006 0.014600000000000002 0.999 -0.043100000000000006 -0.7301000000000001 -0.0188 -0.6831 0.6832 -0.0415 -0.7290000000000001 9391 - ls60.dat
1 0 2.3022 -120.023 52.4025 0.014800000000000002 0.999 -0.0432 -0.7302 -0.0187 -0.6830000000000002 0.6831 -0.0416 -0.7291000000000001 9391 - ls60.dat
1 0 2.2371 -121.05000000000001 51.3048 0.015 0.999 -0.0432 -0.7303 -0.0186 -0.6828 0.6829000000000001 -0.0418 -0.7293 9391 - ls60.dat
1 0 2.1718 -122.08 50.2045 0.015200000000000002 0.9989000000000001 -0.0433 -0.7305 -0.018500000000000003 -0.6826 0.6827 -0.04200000000000001 -0.7295 9391 - ls60.dat
1 0 2.1067 -123.10500000000002 49.10810000000001 0.015300000000000001 0.9989000000000001 -0.0433 -0.7308000000000001 -0.0184 -0.6824000000000001 0.6825000000000001 -0.0421 -0.7297 9391 - ls60.dat
1 0 2.0412 -124.13400000000001 48.006400000000006 0.015500000000000002 0.9989000000000001 -0.0433 -0.7311 -0.0182 -0.6821 0.6821 -0.042300000000000004 -0.73 9391 - ls60.dat
1 0 1.9759000000000002 -125.16100000000002 46.9059 0.0157 0.9989000000000001 -0.0434 -0.7314 -0.0181 -0.6817 0.6818000000000001 -0.0424 -0.7303 9391 - ls60.dat
1 0 1.9106 -126.18700000000001 45.8053 0.0158 0.9989000000000001 -0.0434 -0.7318000000000001 -0.018 -0.6813000000000001 0.6814 -0.0425 -0.7307000000000001 9391 - ls60.dat
1 0 1.8452000000000002 -127.21200000000002 44.7032 0.016 0.9989000000000001 -0.0434 -0.7322 -0.0178 -0.6808000000000001 0.6809 -0.0427 -0.7311 9391 - ls60.dat
1 0 1.7797 -128.23900000000003 43.5982 0.0162 0.9989000000000001 -0.0434 -0.7327 -0.0177 -0.6803000000000001 0.6804 -0.0428 -0.7316 9391 - ls60.dat
1 0 1.7145 -129.262 42.496700000000004 0.0163 0.9989000000000001 -0.0433 -0.7332 -0.0175 -0.6798 0.6798 -0.04290000000000001 -0.7322 9391 - ls60.dat
1 0 1.6491 -130.287 41.3897 0.0164 0.9989000000000001 -0.0433 -0.7338 -0.0174 -0.6791000000000001 0.6791000000000001 -0.04290000000000001 -0.7327 9391 - ls60.dat
1 0 1.5839000000000003 -131.31 40.2835 0.0166 0.9989000000000001 -0.0433 -0.7345 -0.0172 -0.6784 0.6784 -0.043 -0.7334 9391 - ls60.dat
1 0 1.5187 -132.33 39.177 0.0167 0.9989000000000001 -0.0432 -0.7352000000000001 -0.0171 -0.6777 0.6777 -0.043100000000000006 -0.7341 9391 - ls60.dat
1 0 1.4536000000000002 -133.35000000000002 38.0688 0.016800000000000002 0.9989000000000001 -0.0432 -0.736 -0.0169 -0.6768000000000001 0.6768000000000001 -0.043100000000000006 -0.7349 9391 - ls60.dat
1 0 1.3885 -134.37 36.9577 0.0169 0.9989000000000001 -0.043100000000000006 -0.7368000000000001 -0.0167 -0.6759 0.6759 -0.0432 -0.7357000000000001 9391 - ls60.dat
1 0 1.3239 -135.384 35.8506 0.017 0.9989000000000001 -0.043100000000000006 -0.7377 -0.0166 -0.6749 0.6749 -0.0432 -0.7366 9391 - ls60.dat
1 0 1.2592 -136.399 34.738 0.0171 0.9989000000000001 -0.043 -0.7387 -0.0164 -0.6738 0.6738 -0.0432 -0.7376 9391 - ls60.dat
1 0 1.1948 -137.41 33.6272 0.0171 0.9989000000000001 -0.04290000000000001 -0.7398 -0.0162 -0.6727 0.6726 -0.0432 -0.7387 9391 - ls60.dat
1 0 1.1302 -138.423 32.5087 0.0172 0.9989000000000001 -0.0428 -0.741 -0.016 -0.6714 0.6713000000000001 -0.0432 -0.7399 9391 - ls60.dat
1 0 1.066 -139.433 31.389600000000005 0.0172 0.9989000000000001 -0.0426 -0.7422 -0.0158 -0.6699 0.6699 -0.0432 -0.7412000000000001 9391 - ls60.dat
1 0 1.0020000000000002 -140.441 30.269200000000005 0.0172 0.9989000000000001 -0.0425 -0.7436 -0.0156 -0.6684 0.6684 -0.043100000000000006 -0.7426 9391 - ls60.dat
1 0 0.9382000000000001 -141.445 29.146300000000004 0.0173 0.999 -0.042300000000000004 -0.7452000000000001 -0.0154 -0.6667 0.6666 -0.043 -0.7441 9391 - ls60.dat
1 0 0.8747 -142.447 28.020200000000003 0.0172 0.999 -0.0421 -0.7469000000000001 -0.015200000000000002 -0.6648 0.6648 -0.04290000000000001 -0.7458 9391 - ls60.dat
1 0 0.8115 -143.447 26.889900000000004 0.0172 0.999 -0.0419 -0.7487 -0.0149 -0.6627 0.6627 -0.0428 -0.7477 9391 - ls60.dat
1 0 0.7491000000000001 -144.437 25.764200000000002 0.0171 0.999 -0.0417 -0.7507000000000001 -0.0147 -0.6604 0.6604 -0.0426 -0.7497 9391 - ls60.dat
1 0 0.6869000000000001 -145.424 24.6331 0.017 0.999 -0.041400000000000006 -0.7530000000000001 -0.014400000000000001 -0.6579 0.6578 -0.0424 -0.752 9391 - ls60.dat
1 0 0.6252000000000001 -146.409 23.4957 0.0169 0.999 -0.0411 -0.7555000000000001 -0.014200000000000003 -0.655 0.6549 -0.04220000000000001 -0.7545000000000001 9391 - ls60.dat
1 0 0.5638 -147.39 22.351500000000005 0.0167 0.999 -0.0408 -0.7584000000000001 -0.0139 -0.6517 0.6516 -0.0418 -0.7574000000000001 9391 - ls60.dat
1 0 0.5029 -148.368 21.1998 0.0165 0.999 -0.040400000000000005 -0.7616 -0.013600000000000001 -0.6479 0.6479 -0.0415 -0.7606000000000002 9391 - ls60.dat
1 0 0.4433000000000001 -149.332 20.0511 0.0162 0.9991 -0.0399 -0.7652000000000001 -0.0133 -0.6436 0.6436 -0.041 -0.7643 9391 - ls60.dat
1 0 0.3844 -150.289 18.8948 0.015900000000000004 0.9991 -0.0394 -0.7694000000000001 -0.012900000000000002 -0.6386000000000001 0.6385000000000001 -0.040400000000000005 -0.7685 9391 - ls60.dat
1 0 0.3266 -151.236 17.7307 0.0154 0.9991 -0.0387 -0.7744000000000001 -0.012500000000000002 -0.6326 0.6326 -0.0398 -0.7735000000000001 9391 - ls60.dat
1 0 0.2696 -152.179 16.5477 0.0149 0.9992000000000001 -0.0379 -0.7802 -0.012100000000000001 -0.6254 0.6253 -0.0389 -0.7794000000000001 9391 - ls60.dat
1 0 0.2144 -153.105 15.357500000000002 0.014200000000000003 0.9992000000000001 -0.0369 -0.7874000000000001 -0.0116 -0.6164000000000001 0.6163 -0.0378 -0.7866000000000001 9391 - ls60.dat
1 0 0.1611 -154.014 14.1493 0.0132 0.9993000000000001 -0.0356 -0.7962000000000001 -0.011000000000000001 -0.6049 0.6048 -0.0364 -0.7955000000000001 9391 - ls60.dat
1 0 0.1106 -154.897 12.924600000000002 0.012 0.9994000000000001 -0.0339 -0.8077000000000001 -0.0103 -0.5895 0.5895 -0.0345 -0.8071 9391 - ls60.dat
1 0 0.0642 -155.744 11.6735 0.0103 0.9994000000000001 -0.0315 -0.8233000000000001 -0.0094 -0.5676000000000001 0.5676000000000001 -0.03180000000000001 -0.8227000000000001 9391 - ls60.dat
1 0 0.0243 -156.531 10.386800000000001 0.0079 0.9996 -0.0277 -0.8462000000000001 -0.0081 -0.5328 0.5328 -0.0277 -0.8458 9391 - ls60.dat
1 0 -0.0033 -157.204 9.0304 0.0043 1 -0.0205 -0.8846 -0.0058 -0.46640000000000004 0.46640000000000004 -0.020200000000000003 -0.8843000000000001 9391 - ls60.dat
1 0 0.0068000000000000005 -157.52000000000004 7.544300000000001 0 1 0 -0.9619 0 -0.2736 0.2736 0 -0.9619 9391 - ls60.dat
1 0 0.0065 -157.954 6.107100000000001 0 1 0 -0.9585 0 -0.2851 0.2851 0 -0.9585 9391 - ls60.dat
1 0 0.006100000000000001 -158.41000000000003 4.6765 0 1 0 -0.9542 0 -0.2993 0.2993 0 -0.9542 9391 - ls60.dat
1 0 0.0055000000000000005 -158.894 3.2543000000000006 0 1 -0.0004 -0.9487000000000001 0 -0.31620000000000004 0.31620000000000004 -0.0004 -0.9487000000000001 9391 - ls60.dat
1 0 0.0046 -159.405 1.8431 0 1 -0.0005 -0.9423000000000001 0 -0.3347 0.3347 -0.0005 -0.9423000000000001 9391 - ls60.dat
1 0 0.0035000000000000005 -159.939 0.4399 0 1 -0.0007000000000000001 -0.9367000000000001 0 -0.3502 0.3502 -0.0006 -0.9367000000000001 9391 - ls60.dat
1 0 0.0024 -160.475 -0.9628000000000001 0 1 -0.0007000000000000001 -0.9346 0 -0.3556 0.3556 -0.0007000000000000001 -0.9346 9391 - ls60.dat
1 0 0.0015 -160.993 -2.3713 0 1 -0.0006 -0.9377000000000001 0 -0.3475 0.3475 -0.0006 -0.9377000000000001 9391 - ls60.dat
1 0 0.0008 -161.481 -3.7909000000000006 0 1 -0.0005 -0.9437000000000001 0 -0.3308 0.3308 -0.0005 -0.9437000000000001 9391 - ls60.dat
1 0 0.0004 -161.94100000000003 -5.2204 0 1 -0.0004 -0.9499000000000001 0 -0.3125 0.3125 -0.0003 -0.9499000000000001 9391 - ls60.dat
1 0 0 -162.378 -6.657500000000001 0 1 0 -0.9552 0 -0.29600000000000004 0.29600000000000004 0 -0.9552 9391 - ls60.dat
1 0 0 -162.795 -8.099 0 1 0 -0.9593000000000002 0 -0.2825 0.2825 0 -0.9593000000000002 9391 - ls60.dat
1 0 0 -163.149 -9.557 0 1 0 -0.9688000000000001 0 -0.2478 0.2478 0 -0.9688000000000001 9391 - ls60.dat
1 0 0 -163.51 -11.0604 0 1 0 -0.9716000000000001 0 -0.23650000000000002 0.23650000000000002 0 -0.9716000000000001 9391 - ls60.dat
1 0 0 -163.86300000000003 -12.5442 0 1 0 -0.9725 0 -0.23290000000000002 0.23290000000000002 0 -0.9725 9391 - ls60.dat
1 0 0 -164.21500000000003 -14.030500000000002 0 1 0 -0.973 0 -0.23100000000000004 0.23100000000000004 0 -0.973 9391 - ls60.dat
1 0 0 -164.57 -15.538600000000002 0 1 0 -0.9733000000000002 0 -0.22970000000000002 0.22970000000000002 0 -0.9733000000000002 9391 - ls60.dat
1 0 0 -164.92000000000002 -17.0282 0 1 0 -0.9735 0 -0.2288 0.2288 0 -0.9735 9391 - ls60.dat
1 0 0 -165.273 -18.5365 0 1 0 -0.9736 0 -0.2281 0.2281 0 -0.9736 9391 - ls60.dat
1 0 0 -165.626 -20.0502 0 1 0 -0.9738000000000001 0 -0.22750000000000004 0.22750000000000004 0 -0.9738000000000001 9391 - ls60.dat
1 0 0 -165.97800000000004 -21.5602 0 1 0 -0.9739 0 -0.22710000000000002 0.22710000000000002 0 -0.9739 9391 - ls60.dat
1 0 0 -166.327 -23.0604 0 1 0 -0.974 0 -0.2267 0.2267 0 -0.974 9391 - ls60.dat
1 0 0 -166.67200000000003 -24.5464 0 1 0 -0.974 0 -0.2264 0.2264 0 -0.974 9391 - ls60.dat
1 0 0 -167.013 -26.0154 0 1 0 -0.9741 0 -0.22610000000000002 0.22610000000000002 0 -0.9741 9391 - ls60.dat
1 0 0 -167.362 -27.522900000000003 0 1 0 -0.9742000000000001 0 -0.22580000000000003 0.22580000000000003 0 -0.9742000000000001 9391 - ls60.dat
1 0 0 -167.706 -29.0086 0 1 0 -0.9742000000000001 0 -0.2256 0.2256 0 -0.9742000000000001 9391 - ls60.dat
1 0 0 -168.04500000000002 -30.4717 0 1 0 -0.9743000000000002 0 -0.22540000000000002 0.22540000000000002 0 -0.9743000000000002 9391 - ls60.dat
1 0 0 -168.39 -31.966700000000003 0 1 0 -0.9743000000000002 0 -0.2252 0.2252 0 -0.9743000000000002 9391 - ls60.dat
1 0 0 -168.73000000000002 -33.4368 0 1 0 -0.9743000000000002 0 -0.22510000000000002 0.22510000000000002 0 -0.9743000000000002 9391 - ls60.dat
1 0 0 -169.076 -34.9354 0 1 0 -0.9744000000000002 0 -0.2249 0.2249 0 -0.9744000000000002 9391 - ls60.dat
1 0 0 -169.41500000000002 -36.4079 0 1 0 -0.9744000000000002 0 -0.2248 0.2248 0 -0.9744000000000002 9391 - ls60.dat
1 0 0 -169.761 -37.906 0 1 0 -0.9744000000000002 0 -0.22470000000000004 0.22470000000000004 0 -0.9744000000000002 9391 - ls60.dat
1 0 0 -170.10000000000002 -39.3775 0 1 0 -0.9745000000000001 0 -0.22460000000000002 0.22460000000000002 0 -0.9745000000000001 9391 - ls60.dat
1 0 0 -170.444 -40.87230000000001 0 1 0 -0.9745000000000001 0 -0.2245 0.2245 0 -0.9745000000000001 9391 - ls60.dat
1 0 0 -170.78200000000004 -42.3404 0 1 0 -0.9745000000000001 0 -0.22440000000000002 0.22440000000000002 0 -0.9745000000000001 9391 - ls60.dat
1 0 0 -171.125 -43.8301 0 1 0 -0.9745000000000001 0 -0.22430000000000003 0.22430000000000003 0 -0.9745000000000001 9391 - ls60.dat
1 0 0 -171.462 -45.293 0 1 0 -0.9745000000000001 0 -0.2242 0.2242 0 -0.9745000000000001 9391 - ls60.dat
1 0 0 -171.803 -46.7762 0 1 0 -0.9746 0 -0.2241 0.2241 0 -0.9746 9391 - ls60.dat
1 0 0 -172.148 -48.2781 0 1 0 -0.9746 0 -0.2241 0.2241 0 -0.9746 9391 - ls60.dat
1 0 0 -172.487 -49.7531 0 1 0 -0.9746 0 -0.22400000000000003 0.22400000000000003 0 -0.9746 9391 - ls60.dat
1 0 0 -172.83 -51.24580000000001 0 1 0 -0.9746 0 -0.2239 0.2239 0 -0.9746 9391 - ls60.dat
1 0 0 -173.167 -52.7123 0 1 0 -0.9746 0 -0.2239 0.2239 0 -0.9746 9391 - ls60.dat
1 0 0 -173.507 -54.195600000000006 0 1 0 -0.9746 0 -0.2238 0.2238 0 -0.9746 9391 - ls60.dat
1 0 0 -173.851 -55.6947 0 1 0 -0.9746 0 -0.2237 0.2237 0 -0.9746 9391 - ls60.dat
1 0 0 -174.18900000000002 -57.1679 0 1 0 -0.9747 0 -0.2237 0.2237 0 -0.9747 9391 - ls60.dat
1 0 0 -174.53100000000003 -58.6562 0 1 0 -0.9747 0 -0.22360000000000002 0.22360000000000002 0 -0.9747 9391 - ls60.dat
1 0 0 -174.86600000000004 -60.119600000000005 0 1 0 -0.9747 0 -0.22360000000000002 0.22360000000000002 0 -0.9747 9391 - ls60.dat
1 0 0 -175.205 -61.59770000000001 0 1 0 -0.9747 0 -0.22350000000000003 0.22350000000000003 0 -0.9747 9391 - ls60.dat
1 0 0 -175.548 -63.08970000000001 0 1 0 -0.9747 0 -0.22350000000000003 0.22350000000000003 0 -0.9747 9391 - ls60.dat
1 0 0 -175.88400000000001 -64.5574 0 1 0 -0.9747 0 -0.22350000000000003 0.22350000000000003 0 -0.9747 9391 - ls60.dat
1 0 0 -176.223 -66.0386 0 1 0 -0.9747 0 -0.2234 0.2234 0 -0.9747 9391 - ls60.dat
1 0 0 -176.566 -67.5327 0 1 0 -0.9747 0 -0.2234 0.2234 0 -0.9747 9391 - ls60.dat
1 0 0 -176.90300000000002 -69.0035 0 1 0 -0.9747 0 -0.2234 0.2234 0 -0.9747 9391 - ls60.dat
1 0 0 -177.243 -70.487 0 1 0 -0.9747 0 -0.22330000000000003 0.22330000000000003 0 -0.9747 9391 - ls60.dat
1 0 0 -177.585 -71.98260000000002 0 1 0 -0.9748000000000001 0 -0.22330000000000003 0.22330000000000003 0 -0.9748000000000001 9391 - ls60.dat
1 0 0 -177.923 -73.4558 0 1 0 -0.9748000000000001 0 -0.22330000000000003 0.22330000000000003 0 -0.9748000000000001 9391 - ls60.dat
1 0 0 -178.263 -74.9411 0 1 0 -0.9748000000000001 0 -0.22320000000000004 0.22320000000000004 0 -0.9748000000000001 9391 - ls60.dat
1 0 0 -178.59800000000004 -76.405 0 1 0 -0.9748000000000001 0 -0.22320000000000004 0.22320000000000004 0 -0.9748000000000001 9391 - ls60.dat
1 0 0 -178.93600000000004 -77.8811 0 1 0 -0.9748000000000001 0 -0.22320000000000004 0.22320000000000004 0 -0.9748000000000001 9391 - ls60.dat
1 0 0 -179.277 -79.3688 0 1 0 -0.9748000000000001 0 -0.22320000000000004 0.22320000000000004 0 -0.9748000000000001 9391 - ls60.dat
1 0 0 -179.61200000000002 -80.83620000000002 0 1 0 -0.9748000000000001 0 -0.2231 0.2231 0 -0.9748000000000001 9391 - ls60.dat
1 0 0 -179.95100000000002 -82.3155 0 1 0 -0.9748000000000001 0 -0.2231 0.2231 0 -0.9748000000000001 9391 - ls60.dat
1 0 0 -180.292 -83.8062 0 1 0 -0.9748000000000001 0 -0.2231 0.2231 0 -0.9748000000000001 9391 - ls60.dat
1 0 0 -180.629 -85.2776 0 1 0 -0.9748000000000001 0 -0.2231 0.2231 0 -0.9748000000000001 9391 - ls60.dat
1 0 0 -180.968 -86.76070000000001 0 1 0 -0.9748000000000001 0 -0.223 0.223 0 -0.9748000000000001 9391 - ls60.dat
1 0 0 -181.30300000000003 -88.2255 0 1 0 -0.9748000000000001 0 -0.223 0.223 0 -0.9748000000000001 9391 - ls60.dat
1 0 0 -181.64100000000002 -89.7022 0 1 0 -0.9748000000000001 0 -0.223 0.223 0 -0.9748000000000001 9391 - ls60.dat
1 0 0 -181.981 -91.1905 0 1 0 -0.9748000000000001 0 -0.223 0.223 0 -0.9748000000000001 9391 - ls60.dat
1 0 0 -182.31800000000004 -92.66170000000001 0 1 0 -0.9748000000000001 0 -0.223 0.223 0 -0.9748000000000001 9391 - ls60.dat
1 0 0 -182.65700000000004 -94.1448 0 1 0 -0.9748000000000001 0 -0.22290000000000001 0.22290000000000001 0 -0.9748000000000001 9391 - ls60.dat
1 0 0 -182.992 -95.6116 0 1 0 -0.9748000000000001 0 -0.22290000000000001 0.22290000000000001 0 -0.9748000000000001 9391 - ls60.dat
1 0 0 -183.331 -97.0907 0 1 0 -0.9748000000000001 0 -0.22290000000000001 0.22290000000000001 0 -0.9748000000000001 9391 - ls60.dat
1 0 0 -183.665 -98.55460000000001 0 1 0 -0.9748000000000001 0 -0.22290000000000001 0.22290000000000001 0 -0.9748000000000001 9391 - ls60.dat
1 0 0 -184.003 -100.03100000000002 0 1 0 -0.9748000000000001 0 -0.22290000000000001 0.22290000000000001 0 -0.9748000000000001 9391 - ls60.dat
1 0 0 -184.34300000000002 -101.52000000000001 0 1 0 -0.9748000000000001 0 -0.22290000000000001 0.22290000000000001 0 -0.9748000000000001 9391 - ls60.dat
1 0 0 -184.68 -102.99500000000002 0 1 0 -0.9749000000000001 0 -0.22290000000000001 0.22290000000000001 0 -0.9749000000000001 9391 - ls60.dat
1 0 0 -185.02000000000004 -104.482 0 1 0 -0.9749000000000001 0 -0.2228 0.2228 0 -0.9749000000000001 9391 - ls60.dat
1 0 0 -185.35700000000003 -105.95700000000001 0 1 0 -0.9749000000000001 0 -0.2228 0.2228 0 -0.9749000000000001 9391 - ls60.dat
1 0 0 -185.697 -107.444 0 1 0 -0.9749000000000001 0 -0.2228 0.2228 0 -0.9749000000000001 9391 - ls60.dat
1 0 0 -186.035 -108.92000000000002 0 1 0 -0.9749000000000001 0 -0.2228 0.2228 0 -0.9749000000000001 9391 - ls60.dat
1 0 0 -186.369 -110.383 0 1 0 -0.9749000000000001 0 -0.2228 0.2228 0 -0.9749000000000001 9391 - ls60.dat
1 0 0 -186.707 -111.86100000000002 0 1 0 -0.9749000000000001 0 -0.2228 0.2228 0 -0.9749000000000001 9391 - ls60.dat
1 0 0 -187.042 -113.328 0 1 0 -0.9749000000000001 0 -0.2228 0.2228 0 -0.9749000000000001 9391 - ls60.dat
1 0 0 -187.381 -114.81000000000002 0 1 0 -0.9749000000000001 0 -0.2228 0.2228 0 -0.9749000000000001 9391 - ls60.dat
1 0 0 -187.71700000000004 -116.282 0 1 0 -0.9749000000000001 0 -0.2228 0.2228 0 -0.9749000000000001 9391 - ls60.dat
1 0 0 -188.051 -117.744 0 1 0 -0.9749000000000001 0 -0.2228 0.2228 0 -0.9749000000000001 9391 - ls60.dat
1 0 0 -188.389 -119.223 0 1 0 -0.9749000000000001 0 -0.2227 0.2227 0 -0.9749000000000001 9391 - ls60.dat
1 0 0 -188.725 -120.69200000000001 0 1 0 -0.9749000000000001 0 -0.2227 0.2227 0 -0.9749000000000001 9391 - ls60.dat
1 0 0 -189.06400000000002 -122.178 0 1 0 -0.9749000000000001 0 -0.2227 0.2227 0 -0.9749000000000001 9391 - ls60.dat
1 0 0 -189.40200000000002 -123.656 0 1 0 -0.9749000000000001 0 -0.2227 0.2227 0 -0.9749000000000001 9391 - ls60.dat
1 0 0 -189.738 -125.12700000000001 0 1 0 -0.9749000000000001 0 -0.2227 0.2227 0 -0.9749000000000001 9391 - ls60.dat
1 0 0 -190.073 -126.592 0 1 0 -0.9749000000000001 0 -0.2227 0.2227 0 -0.9749000000000001 9391 - ls60.dat
1 0 0 -190.411 -128.074 0 1 0 -0.9749000000000001 0 -0.2227 0.2227 0 -0.9749000000000001 9391 - ls60.dat
1 0 0 -190.749 -129.551 0 1 0 -0.9749000000000001 0 -0.2227 0.2227 0 -0.9749000000000001 9391 - ls60.dat
1 0 0 -191.08500000000004 -131.023 0 1 0 -0.9749000000000001 0 -0.2227 0.2227 0 -0.9749000000000001 9391 - ls60.dat
1 0 0 -191.42 -132.49 0 1 0 -0.9749000000000001 0 -0.2227 0.2227 0 -0.9749000000000001 9391 - ls60.dat
1 0 0 -191.754 -133.952 0 1 0 -0.9749000000000001 0 -0.2227 0.2227 0 -0.9749000000000001 9391 - ls60.dat
1 0 0 -192.093 -135.435 0 1 0 -0.9749000000000001 0 -0.2227 0.2227 0 -0.9749000000000001 9391 - ls60.dat
1 0 0 -192.431 -136.914 0 1 0 -0.9749000000000001 0 -0.2227 0.2227 0 -0.9749000000000001 9391 - ls60.dat
1 0 0 -192.76800000000003 -138.391 0 1 0 -0.9749000000000001 0 -0.2227 0.2227 0 -0.9749000000000001 9391 - ls60.dat
1 0 0 -193.10500000000002 -139.865 0 1 0 -0.9749000000000001 0 -0.2227 0.2227 0 -0.9749000000000001 9391 - ls60.dat
1 0 0 -193.441 -141.33800000000002 0 1 0 -0.9749000000000001 0 -0.2227 0.2227 0 -0.9749000000000001 9391 - ls60.dat
1 0 0 -193.77700000000002 -142.809 0 1 0 -0.9749000000000001 0 -0.2227 0.2227 0 -0.9749000000000001 9391 - ls60.dat
1 0 0 -194.113 -144.28 0 1 0 -0.9749000000000001 0 -0.2227 0.2227 0 -0.9749000000000001 9391 - ls60.dat
1 0 0 -194.44900000000004 -145.75 0 1 0 -0.9749000000000001 0 -0.2227 0.2227 0 -0.9749000000000001 9391 - ls60.dat
1 0 0 -194.785 -147.221 0 1 0 -0.9749000000000001 0 -0.2227 0.2227 0 -0.9749000000000001 9391 - ls60.dat
1 0 0 -195.12100000000004 -148.692 0 1 0 -0.9749000000000001 0 -0.2227 0.2227 0 -0.9749000000000001 9391 - ls60.dat
1 0 0 -195.458 -150.16500000000002 0 1 0 -0.9749000000000001 0 -0.2227 0.2227 0 -0.9749000000000001 9391 - ls60.dat
1 0 0 -195.79400000000004 -151.639 0 1 0 -0.9749000000000001 0 -0.2227 0.2227 0 -0.9749000000000001 9391 - ls60.dat
1 0 0 -196.13100000000003 -153.115 0 1 0 -0.9749000000000001 0 -0.2227 0.2227 0 -0.9749000000000001 9391 - ls60.dat
1 0 0 -196.46900000000002 -154.594 0 1 0 -0.9749000000000001 0 -0.2227 0.2227 0 -0.9749000000000001 9391 - ls60.dat
1 0 0 -196.80800000000002 -156.077 0 1 0 -0.9749000000000001 0 -0.2227 0.2227 0 -0.9749000000000001 9391 - ls60.dat
1 0 0 -197.14200000000002 -157.539 0 1 0 -0.9749000000000001 0 -0.2227 0.2227 0 -0.9749000000000001 9391 - ls60.dat
1 0 0 -197.47700000000003 -159.006 0 1 0 -0.9749000000000001 0 -0.2227 0.2227 0 -0.9749000000000001 9391 - ls60.dat
1 0 0 -197.81300000000002 -160.47700000000003 0 1 0 -0.9749000000000001 0 -0.2227 0.2227 0 -0.9749000000000001 9391 - ls60.dat
1 0 0 -198.15 -161.953 0 1 0 -0.9749000000000001 0 -0.2227 0.2227 0 -0.9749000000000001 9391 - ls60.dat
1 0 0 -198.489 -163.43500000000003 0 1 0 -0.9749000000000001 0 -0.2227 0.2227 0 -0.9749000000000001 9391 - ls60.dat
1 0 0 -198.82400000000004 -164.89900000000003 0 1 0 -0.9749000000000001 0 -0.2227 0.2227 0 -0.9749000000000001 9391 - ls60.dat
1 0 0 -199.16 -166.37 0 1 0 -0.9749000000000001 0 -0.2227 0.2227 0 -0.9749000000000001 9391 - ls60.dat
1 0 0 -199.49700000000004 -167.847 0 1 0 -0.9749000000000001 0 -0.2227 0.2227 0 -0.9749000000000001 9391 - ls60.dat
1 0 0 -199.837 -169.333 0 1 0 -0.9749000000000001 0 -0.2227 0.2227 0 -0.9749000000000001 9391 - ls60.dat
1 0 0 -200.17200000000003 -170.80200000000002 0 1 0 -0.9749000000000001 0 -0.2228 0.2228 0 -0.9749000000000001 9391 - ls60.dat
1 0 0 -200.51000000000002 -172.27900000000002 0 1 0 -0.9749000000000001 0 -0.2228 0.2228 0 -0.9749000000000001 9391 - ls60.dat
1 0 0 -200.85000000000002 -173.766 0 1 0 -0.9749000000000001 0 -0.2228 0.2228 0 -0.9749000000000001 9391 - ls60.dat
1 0 0 -201.186 -175.23700000000002 0 1 0 -0.9749000000000001 0 -0.2228 0.2228 0 -0.9749000000000001 9391 - ls60.dat
1 0 0 -201.524 -176.71800000000002 0 1 0 -0.9749000000000001 0 -0.2228 0.2228 0 -0.9749000000000001 9391 - ls60.dat
1 0 0 -201.86000000000004 -178.185 0 1 0 -0.9749000000000001 0 -0.2228 0.2228 0 -0.9749000000000001 9391 - ls60.dat
1 0 0 -202.19700000000003 -179.662 0 1 0 -0.9749000000000001 0 -0.2228 0.2228 0 -0.9749000000000001 9391 - ls60.dat
1 0 0 -202.53100000000003 -181.125 0 1 0 -0.9749000000000001 0 -0.2228 0.2228 0 -0.9749000000000001 9391 - ls60.dat
1 0 0 -202.86900000000003 -182.60000000000002 0 1 0 -0.9749000000000001 0 -0.2228 0.2228 0 -0.9749000000000001 9391 - ls60.dat
1 0 0 -203.209 -184.087 0 1 0 -0.9749000000000001 0 -0.2228 0.2228 0 -0.9749000000000001 9391 - ls60.dat
1 0 0 -203.54600000000002 -185.561 0 1 0 -0.9749000000000001 0 -0.22290000000000001 0.22290000000000001 0 -0.9749000000000001 9391 - ls60.dat
1 0 0 -203.885 -187.04800000000003 0 1 0 -0.9748000000000001 0 -0.22290000000000001 0.22290000000000001 0 -0.9748000000000001 9391 - ls60.dat
1 0 0 -204.22200000000004 -188.522 0 1 0 -0.9748000000000001 0 -0.22290000000000001 0.22290000000000001 0 -0.9748000000000001 9391 - ls60.dat
1 0 0 -204.563 -190.01000000000002 0 1 0 -0.9748000000000001 0 -0.22290000000000001 0.22290000000000001 0 -0.9748000000000001 9391 - ls60.dat
1 0 0 -204.90000000000003 -191.485 0 1 0 -0.9748000000000001 0 -0.22290000000000001 0.22290000000000001 0 -0.9748000000000001 9391 - ls60.dat
1 0 0 -205.235 -192.94800000000004 0 1 0 -0.9748000000000001 0 -0.22290000000000001 0.22290000000000001 0 -0.9748000000000001 9391 - ls60.dat
1 0 0 -205.573 -194.426 0 1 0 -0.9748000000000001 0 -0.22290000000000001 0.22290000000000001 0 -0.9748000000000001 9391 - ls60.dat
1 0 0 -205.90800000000002 -195.89200000000002 0 1 0 -0.9748000000000001 0 -0.223 0.223 0 -0.9748000000000001 9391 - ls60.dat
1 0 0 -206.24700000000004 -197.37400000000002 0 1 0 -0.9748000000000001 0 -0.223 0.223 0 -0.9748000000000001 9391 - ls60.dat
1 0 0 -206.583 -198.84500000000003 0 1 0 -0.9748000000000001 0 -0.223 0.223 0 -0.9748000000000001 9391 - ls60.dat
1 0 0 -206.92400000000004 -200.332 0 1 0 -0.9748000000000001 0 -0.223 0.223 0 -0.9748000000000001 9391 - ls60.dat
1 0 0 -207.26100000000002 -201.80800000000002 0 1 0 -0.9748000000000001 0 -0.223 0.223 0 -0.9748000000000001 9391 - ls60.dat
1 0 0 -207.59600000000003 -203.27100000000002 0 1 0 -0.9748000000000001 0 -0.2231 0.2231 0 -0.9748000000000001 9391 - ls60.dat
1 0 0 -207.935 -204.75300000000001 0 1 0 -0.9748000000000001 0 -0.2231 0.2231 0 -0.9748000000000001 9391 - ls60.dat
1 0 0 -208.27200000000002 -206.223 0 1 0 -0.9748000000000001 0 -0.2231 0.2231 0 -0.9748000000000001 9391 - ls60.dat
1 0 0 -208.613 -207.713 0 1 0 -0.9748000000000001 0 -0.2231 0.2231 0 -0.9748000000000001 9391 - ls60.dat
1 0 0 -208.951 -209.191 0 1 0 -0.9748000000000001 0 -0.22320000000000004 0.22320000000000004 0 -0.9748000000000001 9391 - ls60.dat
1 0 0 -209.28700000000003 -210.65700000000004 0 1 0 -0.9748000000000001 0 -0.22320000000000004 0.22320000000000004 0 -0.9748000000000001 9391 - ls60.dat
1 0 0 -209.627 -212.144 0 1 0 -0.9748000000000001 0 -0.22320000000000004 0.22320000000000004 0 -0.9748000000000001 9391 - ls60.dat
1 0 0 -209.965 -213.61800000000002 0 1 0 -0.9748000000000001 0 -0.22320000000000004 0.22320000000000004 0 -0.9748000000000001 9391 - ls60.dat
1 0 0 -210.3 -215.081 0 1 0 -0.9748000000000001 0 -0.22330000000000003 0.22330000000000003 0 -0.9748000000000001 9391 - ls60.dat
1 0 0 -210.64 -216.565 0 1 0 -0.9748000000000001 0 -0.22330000000000003 0.22330000000000003 0 -0.9748000000000001 9391 - ls60.dat
1 0 0 -210.97700000000003 -218.03600000000003 0 1 0 -0.9747 0 -0.22330000000000003 0.22330000000000003 0 -0.9747 9391 - ls60.dat
1 0 0 -211.32000000000002 -219.53100000000003 0 1 0 -0.9747 0 -0.2234 0.2234 0 -0.9747 9391 - ls60.dat
1 0 0 -211.659 -221.01300000000003 0 1 0 -0.9747 0 -0.2234 0.2234 0 -0.9747 9391 - ls60.dat
1 0 0 -211.99600000000004 -222.482 0 1 0 -0.9747 0 -0.2234 0.2234 0 -0.9747 9391 - ls60.dat
1 0 0 -212.33800000000002 -223.97400000000002 0 1 0 -0.9747 0 -0.22350000000000003 0.22350000000000003 0 -0.9747 9391 - ls60.dat
1 0 0 -212.678 -225.454 0 1 0 -0.9747 0 -0.22350000000000003 0.22350000000000003 0 -0.9747 9391 - ls60.dat
1 0 0 -213.014 -226.92000000000002 0 1 0 -0.9747 0 -0.22360000000000002 0.22360000000000002 0 -0.9747 9391 - ls60.dat
1 0 0 -213.356 -228.41000000000003 0 1 0 -0.9747 0 -0.22360000000000002 0.22360000000000002 0 -0.9747 9391 - ls60.dat
1 0 0 -213.69500000000002 -229.88600000000002 0 1 0 -0.9747 0 -0.2237 0.2237 0 -0.9747 9391 - ls60.dat
1 0 0 -214.039 -231.387 0 1 0 -0.9747 0 -0.2237 0.2237 0 -0.9747 9391 - ls60.dat
1 0 0 -214.38100000000003 -232.875 0 1 0 -0.9746 0 -0.2237 0.2237 0 -0.9746 9391 - ls60.dat
1 0 0 -214.71900000000002 -234.34600000000003 0 1 0 -0.9746 0 -0.2238 0.2238 0 -0.9746 9391 - ls60.dat
1 0 0 -215.063 -235.84400000000002 0 1 0 -0.9746 0 -0.2239 0.2239 0 -0.9746 9391 - ls60.dat
1 0 0 -215.40300000000002 -237.32600000000002 0 1 0 -0.9746 0 -0.2239 0.2239 0 -0.9746 9391 - ls60.dat
1 0 0 -215.74 -238.791 0 1 0 -0.9746 0 -0.22400000000000003 0.22400000000000003 0 -0.9746 9391 - ls60.dat
1 0 0 -216.083 -240.282 0 1 0 -0.9746 0 -0.2241 0.2241 0 -0.9746 9391 - ls60.dat
1 0 0 -216.42200000000003 -241.755 0 1 0 -0.9746 0 -0.2241 0.2241 0 -0.9746 9391 - ls60.dat
1 0 0 -216.767 -243.25500000000002 0 1 0 -0.9745000000000001 0 -0.2242 0.2242 0 -0.9745000000000001 9391 - ls60.dat
1 0 0 -217.10800000000003 -244.73700000000002 0 1 0 -0.9745000000000001 0 -0.22430000000000003 0.22430000000000003 0 -0.9745000000000001 9391 - ls60.dat
1 0 0 -217.45500000000004 -246.245 0 1 0 -0.9745000000000001 0 -0.22440000000000002 0.22440000000000002 0 -0.9745000000000001 9391 - ls60.dat
1 0 0 -217.798 -247.73400000000004 0 1 0 -0.9745000000000001 0 -0.2245 0.2245 0 -0.9745000000000001 9391 - ls60.dat
1 0 0 -218.13600000000002 -249.20100000000002 0 1 0 -0.9744000000000002 0 -0.22460000000000002 0.22460000000000002 0 -0.9744000000000002 9391 - ls60.dat
1 0 0 -218.48100000000002 -250.69400000000002 0 1 0 -0.9744000000000002 0 -0.22470000000000004 0.22470000000000004 0 -0.9744000000000002 9391 - ls60.dat
1 0 0 -218.82000000000002 -252.164 0 1 0 -0.9744000000000002 0 -0.2248 0.2248 0 -0.9744000000000002 9391 - ls60.dat
1 0 0 -219.16600000000003 -253.66100000000003 0 1 0 -0.9744000000000002 0 -0.22500000000000003 0.22500000000000003 0 -0.9744000000000002 9391 - ls60.dat
1 0 0 -219.50600000000003 -255.13100000000003 0 1 0 -0.9743000000000002 0 -0.22510000000000002 0.22510000000000002 0 -0.9743000000000002 9391 - ls60.dat
1 0 0 -219.85200000000003 -256.628 0 1 0 -0.9743000000000002 0 -0.2253 0.2253 0 -0.9743000000000002 9391 - ls60.dat
1 0 0 -220.19100000000003 -258.096 0 1 0 -0.9743000000000002 0 -0.2255 0.2255 0 -0.9743000000000002 9391 - ls60.dat
1 0 0 -220.53700000000003 -259.588 0 1 0 -0.9742000000000001 0 -0.22570000000000004 0.22570000000000004 0 -0.9742000000000001 9391 - ls60.dat
1 0 0 -220.889 -261.105 0 1 0 -0.9742000000000001 0 -0.2259 0.2259 0 -0.9742000000000001 9391 - ls60.dat
1 0 0 -221.23400000000004 -262.588 0 1 0 -0.9741 0 -0.2262 0.2262 0 -0.9741 9391 - ls60.dat
1 0 0 -221.583 -264.092 0 1 0 -0.974 0 -0.2264 0.2264 0 -0.974 9391 - ls60.dat
1 0 0 -221.925 -265.558 0 1 0 -0.9739 0 -0.22680000000000003 0.22680000000000003 0 -0.9739 9391 - ls60.dat
1 0 0 -222.27100000000002 -267.039 0 1 0 -0.9739 0 -0.22720000000000004 0.22720000000000004 0 -0.9739 9391 - ls60.dat
1 0 0 -222.62 -268.533 0 1 0 -0.9737000000000001 0 -0.22760000000000002 0.22760000000000002 0 -0.9737000000000001 9391 - ls60.dat
1 0 0 -222.97300000000004 -270.036 0 1 0 -0.9736 0 -0.22820000000000001 0.22820000000000001 0 -0.9736 9391 - ls60.dat
1 0 0 -223.32700000000003 -271.54 0 1 0 -0.9734 0 -0.22900000000000004 0.22900000000000004 0 -0.9734 9391 - ls60.dat
1 0 0 -223.681 -273.035 0 1 0 -0.9732000000000001 0 -0.23000000000000004 0.23000000000000004 0 -0.9732000000000001 9391 - ls60.dat
1 0 0 -224.032 -274.509 0 1 0 -0.9729 0 -0.2313 0.2313 0 -0.9729 9391 - ls60.dat
1 0 0 -224.38900000000004 -275.993 0 1 0 -0.9724 0 -0.23350000000000004 0.23350000000000004 0 -0.9724 9391 - ls60.dat
1 0 0 -224.759 -277.49700000000007 0 1 0 -0.9713 0 -0.2377 0.2377 0 -0.9713 9391 - ls60.dat
1 0 0 -225.12600000000003 -278.959 0 1 0 -0.9703 0 -0.24180000000000001 0.24180000000000001 0 -0.9703 9391 - ls60.dat
1 0 0 -225.42100000000002 -280.4340000000001 0 1 0 -0.9782000000000001 0 -0.20780000000000004 0.20780000000000004 0 -0.9782000000000001 9391 - ls60.dat
1 0 0 -225.69500000000002 -281.913 0 1 0 -0.9821000000000001 0 -0.1883 0.1883 0 -0.9821000000000001 9391 - ls60.dat
1 0 0 -225.95200000000003 -283.392 0 1 0 -0.9845000000000002 0 -0.1754 0.1754 0 -0.9845000000000002 9391 - ls60.dat
1 0 0 -226.19600000000003 -284.873 0 1 0 -0.9861 0 -0.166 0.166 0 -0.9861 9391 - ls60.dat
1 0 0 -226.43200000000002 -286.36 0 1 0 -0.9873 0 -0.159 0.159 0 -0.9873 9391 - ls60.dat
1 0 0 -226.66 -287.844 0 1 0 -0.9882000000000001 0 -0.1534 0.1534 0 -0.9882000000000001 9391 - ls60.dat
1 0 0 -226.88100000000003 -289.327 0 1 0 -0.9888000000000001 0 -0.149 0.149 0 -0.9888000000000001 9391 - ls60.dat
1 0 0 -227.098 -290.817 0 1 0 -0.9894000000000001 0 -0.1453 0.1453 0 -0.9894000000000001 9391 - ls60.dat
1 0 0 -227.31 -292.302 0 1 0 -0.9898000000000001 0 -0.1423 0.1423 0 -0.9898000000000001 9391 - ls60.dat
1 0 0 -227.51900000000003 -293.791 0 1 0 -0.9902 0 -0.1398 0.1398 0 -0.9902 9391 - ls60.dat
1 0 0 -227.72500000000002 -295.283 0 1 0 -0.9905000000000002 0 -0.1377 0.1377 0 -0.9905000000000002 9391 - ls60.dat
1 0 0 -227.92900000000003 -296.772 0 1 0 -0.9907 0 -0.136 0.136 0 -0.9907 9391 - ls60.dat
1 0 0 -228.13000000000002 -298.25800000000004 0 1 0 -0.9909000000000001 0 -0.1345 0.1345 0 -0.9909000000000001 9391 - ls60.dat
1 0 0 -228.33 -299.751 0 1 0 -0.9911000000000001 0 -0.13330000000000003 0.13330000000000003 0 -0.9911000000000001 9391 - ls60.dat
1 0 0 -228.52900000000002 -301.244 0 1 0 -0.9912 0 -0.1323 0.1323 0 -0.9912 9391 - ls60.dat
1 0 0 -228.72600000000003 -302.733 0 1 0 -0.9913 0 -0.1315 0.1315 0 -0.9913 9391 - ls60.dat
1 0 0 -228.92200000000003 -304.225 0 1 0 -0.9914000000000001 0 -0.1309 0.1309 0 -0.9914000000000001 9391 - ls60.dat
1 0 0 -229.11900000000003 -305.717 0 1 0 -0.9915000000000002 0 -0.1305 0.1305 0 -0.9915000000000002 9391 - ls60.dat
1 0 0 -229.314 -307.209 0 1 0 -0.9915000000000002 0 -0.1302 0.1302 0 -0.9915000000000002 9391 - ls60.dat
1 0 0 -229.51 -308.699 0 1 0 -0.9915000000000002 0 -0.1301 0.1301 0 -0.9915000000000002 9391 - ls60.dat
1 0 0 -229.705 -310.186 0 1 0 -0.9915000000000002 0 -0.1302 0.1302 0 -0.9915000000000002 9391 - ls60.dat
1 0 0 -229.901 -311.674 0 1 0 -0.9915000000000002 0 -0.1304 0.1304 0 -0.9915000000000002 9391 - ls60.dat
1 0 0 -230.098 -313.1650000000001 0 1 0 -0.9914000000000001 0 -0.1307 0.1307 0 -0.9914000000000001 9391 - ls60.dat
1 0 0 -230.295 -314.655 0 1 0 -0.9913 0 -0.1313 0.1313 0 -0.9913 9391 - ls60.dat
1 0 0 -230.49400000000003 -316.144 0 1 0 -0.9912 0 -0.132 0.132 0 -0.9912 9391 - ls60.dat
1 0 0 -230.69400000000002 -317.636 0 1 0 -0.9911000000000001 0 -0.1329 0.1329 0 -0.9911000000000001 9391 - ls60.dat
1 0 0 -230.89600000000002 -319.124 0 1 0 -0.9910000000000001 0 -0.1341 0.1341 0 -0.9910000000000001 9391 - ls60.dat
1 0 0 -231.1 -320.61100000000005 0 1 0 -0.9908 0 -0.1355 0.1355 0 -0.9908 9391 - ls60.dat
1 0 0 -231.30700000000002 -322.098 0 1 0 -0.9906000000000001 0 -0.1371 0.1371 0 -0.9906000000000001 9391 - ls60.dat
1 0 0 -231.51700000000002 -323.587 0 1 0 -0.9903000000000001 0 -0.1391 0.1391 0 -0.9903000000000001 9391 - ls60.dat
1 0 0 -231.73200000000003 -325.079 0 1 0 -0.9899000000000001 0 -0.1415 0.1415 0 -0.9899000000000001 9391 - ls60.dat
1 0 0 -231.95 -326.567 0 1 0 -0.9895 0 -0.1443 0.1443 0 -0.9895 9391 - ls60.dat
1 0 0 -232.174 -328.05100000000004 0 1 0 -0.989 0 -0.1478 0.1478 0 -0.989 9391 - ls60.dat
1 0 0 -232.404 -329.539 0 1 0 -0.9884 0 -0.15190000000000003 0.15190000000000003 0 -0.9884 9391 - ls60.dat
1 0 0 -232.64300000000003 -331.02200000000005 0 1 0 -0.9876000000000001 0 -0.1571 0.1571 0 -0.9876000000000001 9391 - ls60.dat
1 0 0 -232.892 -332.5040000000001 0 1 0 -0.9865000000000002 0 -0.1636 0.1636 0 -0.9865000000000002 9391 - ls60.dat
1 0 0 -233.155 -333.982 0 1 0 -0.9851 0 -0.1721 0.1721 0 -0.9851 9391 - ls60.dat
1 0 0 -233.43600000000004 -335.456 0 1 0 -0.983 0 -0.1836 0.1836 0 -0.983 9391 - ls60.dat
1 0 0 -233.746 -336.928 0 1 0 -0.9797 0 -0.2006 0.2006 0 -0.9797 9391 - ls60.dat
1 0 0 -234.10300000000004 -338.388 0 1 0 -0.9736 0 -0.2284 0.2284 0 -0.9736 9391 - ls60.dat
1 0 -0.0111 -234.41500000000002 -339.86 -0.0003 1 -0.005600000000000001 -0.9771000000000001 -0.0015 -0.2127 0.2127 -0.0054 -0.9771000000000001 9391 - ls60.dat
1 0 -0.0471 -234.439 -341.37 -0.0041 1 -0.0194 -0.9979 -0.0053 -0.06470000000000001 0.0648 -0.0191 -0.9977000000000001 9391 - ls60.dat
1 0 -0.1126 -234.097 -342.847 -0.014200000000000003 0.9992000000000001 -0.0376 -0.9879 -0.0082 0.1549 -0.1545 -0.0393 -0.9872000000000001 9391 - ls60.dat
1 0 -0.2084 -233.296 -344.14700000000005 -0.0378 0.9976000000000002 -0.0572 -0.8985 -0.0089 0.439 -0.4374 -0.068 -0.8967000000000002 9391 - ls60.dat
1 0 -0.32 -232.11700000000002 -345.1240000000001 -0.0741 0.9948000000000001 -0.0701 -0.715 -0.004 0.6991000000000002 -0.6951 -0.10190000000000002 -0.7116 9391 - ls60.dat
1 0 -0.4304 -230.75100000000003 -345.786 -0.10480000000000002 0.9918 -0.0727 -0.5141 0.0086 0.8577000000000001 -0.8513 -0.1273 -0.509 9391 - ls60.dat
1 0 -0.5329 -229.311 -346.232 -0.1124 0.9912 -0.0694 -0.356 0.025000000000000005 0.9341 -0.9277000000000001 -0.12970000000000004 -0.3501000000000001 9391 - ls60.dat
1 0 -0.6261 -227.838 -346.534 -0.0985 0.9931000000000001 -0.0639 -0.24370000000000003 0.0382 0.9691 -0.9648000000000001 -0.11110000000000002 -0.23820000000000002 9391 - ls60.dat
1 0 -0.7098 -226.35000000000002 -346.736 -0.0761 0.9954000000000001 -0.057800000000000004 -0.1644 0.0446 0.9854000000000002 -0.9835 -0.08440000000000002 -0.1603 9391 - ls60.dat
1 0 -0.7839000000000002 -224.854 -346.867 -0.0545 0.9972000000000001 -0.0514 -0.10790000000000001 0.0453 0.9931000000000001 -0.9927000000000001 -0.0597 -0.10520000000000002 9391 - ls60.dat
1 0 -0.848 -223.356 -346.946 -0.0372 0.9983 -0.0449 -0.0675 0.042300000000000004 0.9968 -0.9970000000000001 -0.0401 -0.0658 9391 - ls60.dat
1 0 -0.902 -221.856 -346.988 -0.024200000000000003 0.999 -0.0382 -0.03860000000000001 0.0372 0.9986 -0.999 -0.0257 -0.0377 9391 - ls60.dat
1 0 -0.9454000000000001 -220.35400000000004 -347.00600000000003 -0.014800000000000002 0.9994000000000001 -0.0312 -0.0186 0.030900000000000004 0.9993000000000001 -1 -0.0154 -0.0181 9391 - ls60.dat
1 0 -0.9773 -218.852 -347.00800000000004 -0.0082 1 -0.023700000000000002 -0.0058 0.023700000000000002 1 -1 -0.008400000000000001 -0.005600000000000001 9391 - ls60.dat
1 0 -0.9970000000000001 -217.35 -347.003 -0.0037000000000000006 1 -0.0157 0.001 0.0157 1 -1 -0.0037000000000000006 0.0011000000000000003 9391 - ls60.dat
1 0 -1.0031 -215.847 -346.9990000000001 -0.001 1 -0.007000000000000001 0.0023 0.007000000000000001 1 -1 -0.001 0.0023 9391 - ls60.dat
1 0 -0.9996 -214.34600000000003 -347 0 1 0 0 0 1 -1 0 0 9391 - ls60.dat
1 0 -0.9996 -212.842 -347 0 1 0 0 0 1 -1 0 0 9391 - ls60.dat
1 0 -0.9996 -211.34 -347 0 1 0 0 0 1 -1 0 0 9391 - ls60.dat
1 0 -0.9996 -209.83900000000003 -347 0 1 0 0 0 1 -1 0 0 9391 - ls60.dat
1 0 -0.9996 -208.335 -347 0 1 0 0 0 1 -1 0 0 9391 - ls60.dat
1 0 -1 -206.82900000000004 -347 0 1 0 0 0 1 -1 0 0 9391 - ls60.dat
1 0 -1 -205.32700000000003 -347 0 1 0 0 0 1 -1 0 0 9391 - ls60.dat
1 0 -1 -203.82400000000004 -347 0 1 0 0 0 1 -1 0 0 9391 - ls60.dat
1 0 -1 -202.32200000000003 -347 0 1 0 0 0 1 -1 0 0 9391 - ls60.dat
1 0 -1 -200.82 -347 0 1 0 0 0 1 -1 0 0 9391 - ls60.dat
1 0 -1 -199.319 -347 0 1 0 0 0 1 -1 0 0 9391 - ls60.dat
1 0 -1 -197.816 -347 0 1 0 0 0 1 -1 0 0 9391 - ls60.dat
1 0 -1 -196.31200000000004 -347 0 1 0 0 0 1 -1 0 0 9391 - ls60.dat
1 0 -1 -194.80900000000003 -347 0 1 0 0 0 1 -1 0 0 9391 - ls60.dat
1 0 -1 -193.30700000000002 -347 0 1 0 0 0 1 -1 0 0 9391 - ls60.dat
1 0 -1 -191.803 -347 0 1 0 0 0 1 -1 0 0 9391 - ls60.dat
1 0 -1 -190.30200000000002 -347 0 1 0 0 0 1 -1 0 0 9391 - ls60.dat
1 0 -1 -188.8 -347 0 1 0 0 0 1 -1 0 0 9391 - ls60.dat
1 0 -1 -187.29700000000003 -347 0 1 0 0 0 1 -1 0 0 9391 - ls60.dat
1 0 -1 -185.796 -347 0 1 0 0 0 1 -1 0 0 9391 - ls60.dat
1 0 -1 -184.29500000000002 -347 0 1 0 0 0 1 -1 0 0 9391 - ls60.dat
1 0 -1 -182.792 -347 0 1 0 0 0 1 -1 0 0 9391 - ls60.dat
1 0 -1 -181.292 -347 0 1 0 0 0 1 -1 0 0 9391 - ls60.dat
1 0 -1 -179.786 -347 0 1 0 0 0 1 -1 0 0 9391 - ls60.dat
1 0 -1 -178.28100000000003 -347 0 1 0 0 0 1 -1 0 0 9391 - ls60.dat
1 0 -1 -176.77500000000003 -347 0 1 0 0 0 1 -1 0 0 9391 - ls60.dat
1 0 -1 -175.275 -347 0 1 0 0 0 1 -1 0 0 9391 - ls60.dat
1 0 -1 -173.76900000000003 -347 0 1 0 0 0 1 -1 0 0 9391 - ls60.dat
1 0 -1 -172.265 -347 0 1 0 0 0 1 -1 0 0 9391 - ls60.dat
1 0 -1 -170.762 -347 0 1 0 0 0 1 -1 0 0 9391 - ls60.dat
1 0 -1 -169.26 -347 0 1 0 0 0 1 -1 0 0 9391 - ls60.dat
1 0 -1 -167.755 -347 0 1 0 0 0 1 -1 0 0 9391 - ls60.dat
1 0 -1.1047000000000002 -166.255 -347 0 0.9986 -0.0523 0 0.0523 0.9986 -1 0 0 9391 - ls60.dat
1 0 -1.4615 -164.79 -347 0 0.9815000000000002 -0.1915 0 0.1915 0.9815000000000002 -1 0 0 9391 - ls60.dat
1 0 -2.0650000000000004 -163.407 -347 0 0.9369 -0.3496 0 0.3496 0.9369 -1 0 0 9391 - ls60.dat
1 0 -2.6598000000000006 -162.029 -347 0 0.923 -0.38470000000000004 0 0.38470000000000004 0.923 -1 0 0 9391 - ls60.dat
1 0 -2.9713000000000003 -160.55400000000003 -347 0 0.9678 -0.2518 0 0.2518 0.9678 -1 0 0 9391 - ls60.dat
1 0 -3.0389 -159.046 -347 0 0.9953000000000001 -0.09660000000000002 0 0.09660000000000002 0.9953000000000001 -1 0 0 9391 - ls60.dat
1 0 -2.9261 -157.544 -347 0 0.9995 0.0323 0 -0.0323 0.9995 -1 0 0 9391 - ls60.dat
1 0 -2.5589 -156.08100000000002 -347 0 0.9815000000000002 0.1916 0 -0.1916 0.9815000000000002 -1 0 0 9391 - ls60.dat
1 0 -1.4196 -154.998 -347 0 0.7865 0.6175 0 -0.6175 0.7865 -1 0 0 9391 - ls60.dat
1 0 0.2048 -154.879 -347 0 0.2564 0.9666000000000001 0 -0.9666000000000001 0.2564 -1 0 0 9391 - ls60.dat
1 0 1.7092 -155.229 -347 0 -0.11130000000000001 0.9938000000000001 0 -0.9938000000000001 -0.11130000000000001 -1 0 0 9391 - ls60.dat
1 0 2.9005 -156.247 -347 0 -0.5366 0.8438000000000001 0 -0.8438000000000001 -0.5366 -1 0 0 9391 - ls60.dat
1 0 3.1340000000000003 -157.868 -347 0 -0.9448000000000001 0.32760000000000006 0 -0.32760000000000006 -0.9448000000000001 -1 0 0 9391 - ls60.dat
1 0 3.0082000000000004 -159.39500000000004 -347.036 -0.0003 -1 0.019 0.0178 -0.019 -1 -1 0 -0.0178 9391 - ls60.dat
1 0 3.0780000000000003 -160.89200000000002 -347.129 -0.002 -0.9992000000000001 0.03960000000000001 0.0512 -0.039700000000000006 -0.9979 -0.9987000000000001 0 -0.0513 9391 - ls60.dat
1 0 3.1145 -162.38600000000002 -347.268 -0.0064 -0.9996 0.0282 0.0822 -0.0286 -0.9962 -0.9966000000000002 0.0041 -0.0824 9391 - ls60.dat
1 0 3.0334 -163.875 -347.451 0.015500000000000002 -0.9993000000000001 -0.0335 0.1114 0.035 -0.9932000000000001 -0.9937000000000001 -0.0117 -0.11180000000000001 9391 - ls60.dat
1 0 2.6677 -165.32300000000004 -347.671 0.15050000000000002 -0.9699000000000001 -0.1912 0.11000000000000001 0.2087 -0.9718 -0.9825 -0.1252 -0.1381 9391 - ls60.dat
1 0 1.7179 -166.51800000000003 -347.89 0.5067 -0.6856 -0.5227000000000002 -0.1704 0.5147 -0.8403 -0.8451 -0.5148 -0.1439 9391 - ls60.dat
1 0 0.22350000000000003 -167.038 -348.004 0.4433000000000001 -0.1818 -0.8778000000000001 -0.7233 0.5059 -0.47 -0.5295 -0.8432000000000001 -0.0928 9391 - ls60.dat
1 0 -1.3199000000000003 -167.063 -348.014 0.1321 -0.0145 -0.9911000000000001 -0.9398000000000001 0.31620000000000004 -0.1299 -0.3153 -0.9486 -0.0281 9391 - ls60.dat
1 0 -2.3901 -167.00100000000003 -346.754 0.0009000000000000001 -0.6229 -0.7823000000000001 -1 0 -0.0011000000000000003 -0.0007000000000000001 -0.7823000000000001 0.6229 9391 - ls60.dat
1 0 -0.6309 -167 -345.606 0 -0.7294 0.6841000000000002 -1 0 0 0 0.6841000000000002 0.7294 9391 - ls60.dat
1 0 0.41420000000000007 -167 -347.414 0 0.7071 0.7071 -1 0 0 0 0.7071 -0.7071 9391 - ls60.dat
1 0 -0.30490000000000006 -166.814 -348.9680000000001 -0.014200000000000003 0.9882000000000001 -0.1525 -0.9957 0 0.0929 -0.0918 -0.1531 -0.9839 9391 - ls60.dat
1 0 -1.4037 -165.99900000000002 -349.846 -0.2807 0.7590000000000001 -0.5875 -0.9023000000000001 0 0.43110000000000004 -0.3272 -0.6511 -0.6848 9391 - ls60.dat
1 0 -2.4694 -164.95000000000002 -350.248 -0.5244 0.513 -0.6796000000000001 -0.7736 0.0464 0.6319000000000001 -0.3557 -0.8572000000000001 -0.3725 9391 - ls60.dat
1 0 -3.3062000000000005 -163.871 -350.882 -0.5291 0.6117 -0.5881000000000001 -0.7149 0.052 0.6973 -0.4571 -0.7894000000000001 -0.40980000000000005 9391 - ls60.dat
1 0 105 -24.000000000000004 -80 0 1 0 0 0 -1 -1 0 0 32250.dat
1 0 70 -24.000000000000004 -80 1 0 0 0 1 0 0 0 1 3705.dat
1 71 80 -24.000000000000004 -120 1 0 0 0 1 0 0 0 1 4519.dat
1 71 80 -104 -80 1 0 0 0 1 0 0 0 1 4519.dat
1 0 80 -24.000000000000004 -120 1 0 0 0 0 1 0 -1 0 62462.dat
1 0 95 -104 -80 0 -1 0 0 0 1 -1 0 0 32056.dat
1 71 80 -64 -80 1 0 0 0 1 0 0 0 1 4519.dat
1 14 95 -24.000000000000004 -80 0 0 -1 0 1 0 1 0 0 32123a.dat
1 0 80 -104 -100 1 0 0 0 0 1 0 -1 0 32184.dat
1 1 80 -84 -80 0 -1 0 0 0 1 -1 0 0 32140.dat
1 14 65 -24.000000000000004 -80 0 0 -1 0 1 0 1 0 0 32123a.dat
1 0 65 -104 -80 0 -1 0 0 0 1 -1 0 0 32056.dat
1 0 55 -24.000000000000004 -80 0 1 0 0 0 -1 -1 0 0 32250.dat
1 57 80 -114 -100 1 0 0 0 -1 0 0 0 -1 6141.dat
1 57 80 -120 -100 1 0 0 0 -1 0 0 0 -1 6141.dat
1 14 -20 -34 78 1 0 0 0 0 1 0 -1 0 3021.dat
1 14 30 -34 78 1 0 0 0 0 1 0 -1 0 3022.dat
1 14 0 -34 86 1 0 0 0 0 1 0 -1 0 3021.dat
1 14 0 -34 94 0 0 -1 1 0 0 0 -1 0 3069b.dat
1 14 50 -44 94 0 0 -1 1 0 0 0 -1 0 61678.dat
1 14 50 -24.000000000000004 94 0 0 -1 1 0 0 0 -1 0 61678.dat
1 14 -50 -44 94 0 0 1 -1 0 0 0 -1 0 61678.dat
1 14 -50 -24.000000000000004 94 0 0 1 -1 0 0 0 -1 0 61678.dat
1 71 -100 36 80 0 0 1 0 1 0 -1 0 0 94925.dat
1 71 -100 36 -120 0 0 1 0 1 0 -1 0 0 94925.dat
1 71 100 36 -120 0 0 1 0 1 0 -1 0 0 94925.dat
1 71 100 36 80 0 0 1 0 1 0 -1 0 0 94925.dat
1 0 100 56.00000000000001 -108 1 0 0 0 -1 0 0 0 -1 3873.dat
1 0 100 56.00000000000001 -92.00000000000001 1 0 0 0 -1 0 0 0 -1 3873.dat
1 0 100 56.00000000000001 -76 1 0 0 0 -1 0 0 0 -1 3873.dat
1 0 100 56.00000000000001 -60 1 0 0 0 -1 0 0 0 -1 3873.dat
1 0 100 56.00000000000001 -44 1 0 0 0 -1 0 0 0 -1 3873.dat
1 0 100 56.00000000000001 -28.000000000000004 1 0 0 0 -1 0 0 0 -1 3873.dat
1 0 100 56.00000000000001 -12.000000000000002 1 0 0 0 -1 0 0 0 -1 3873.dat
1 0 100 56.00000000000001 4 1 0 0 0 -1 0 0 0 -1 3873.dat
1 0 100 56.00000000000001 20 1 0 0 0 -1 0 0 0 -1 3873.dat
1 0 100 56.00000000000001 36 1 0 0 0 -1 0 0 0 -1 3873.dat
1 0 100 56.00000000000001 52 1 0 0 0 -1 0 0 0 -1 3873.dat
1 0 100 56.00000000000001 68 1 0 0 0 -1 0 0 0 -1 3873.dat
1 0 100 56.00000000000001 84 1 0 0 0 -1 0 0 0 -1 3873.dat
1 0 100 48.24300000000001 97.99390000000001 1 0 0 0 -0.874619 0.48481 0 -0.48481 -0.874619 3873.dat
1 0 100 32.3623 99.9438 1 0 0 0 -0.121869 0.9925460000000002 0 -0.9925460000000002 -0.121869 3873.dat
1 0 100 18.9436 91.2296 1 0 0 0 0.544639 0.8386700000000001 0 -0.8386700000000001 0.544639 3873.dat
1 0 100 15.616900000000001 75.5792 1 0 0 0 0.978148 0.20791200000000004 0 -0.20791200000000004 0.978148 3873.dat
1 0 100 12.290400000000002 59.9288 1 0 0 0 0.978148 0.20791200000000004 0 -0.20791200000000004 0.978148 3873.dat
1 0 100 8.96379 44.2785 1 0 0 0 0.978148 0.20791200000000004 0 -0.20791200000000004 0.978148 3873.dat
1 0 100 5.6372 28.6281 1 0 0 0 0.978148 0.20791200000000004 0 -0.20791200000000004 0.978148 3873.dat
1 0 100 2.3106 12.977800000000002 1 0 0 0 0.978148 0.20791200000000004 0 -0.20791200000000004 0.978148 3873.dat
1 0 100 2.3106 -3.02225 1 0 0 0 1 0 0 0 1 3873.dat
1 0 100 2.3106 -19.0223 1 0 0 0 1 0 0 0 1 3873.dat
1 0 100 2.3106 -35.0223 1 0 0 0 1 0 0 0 1 3873.dat
1 0 100 2.3106 -51.0222 1 0 0 0 1 0 0 0 1 3873.dat
1 0 100 5.63719 -66.6726 1 0 0 0 0.9781470000000001 -0.20791200000000004 0 0.20791200000000004 0.9781470000000001 3873.dat
1 0 100 8.96378 -82.32300000000001 1 0 0 0 0.9781470000000001 -0.20791200000000004 0 0.20791200000000004 0.9781470000000001 3873.dat
1 0 100 12.290400000000002 -97.97330000000001 1 0 0 0 0.9781470000000001 -0.20791200000000004 0 0.20791200000000004 0.9781470000000001 3873.dat
1 0 100 15.616900000000001 -113.62400000000001 1 0 0 0 0.9781470000000001 -0.20791200000000004 0 0.20791200000000004 0.9781470000000001 3873.dat
1 0 100 18.9435 -129.274 1 0 0 0 0.9781470000000001 -0.20791200000000004 0 0.20791200000000004 0.9781470000000001 3873.dat
1 0 100 30.453000000000003 -140.389 1 0 0 0 0.6946580000000001 -0.71934 0 0.71934 0.6946580000000001 3873.dat
1 0 100 45.9777 -136.51800000000003 1 0 0 0 -0.241922 -0.970295 0 0.970295 -0.241922 3873.dat
1 0 100 56.00000000000001 -124 1 0 0 0 -0.780624 -0.625001 0 0.625001 -0.780624 3873.dat
1 0 -100 56.00000000000001 -92.00000000000001 1 0 0 0 -1 0 0 0 -1 3873.dat
1 0 -100 56.00000000000001 -108 1 0 0 0 -1 0 0 0 -1 3873.dat
1 0 -100 56.00000000000001 -76 1 0 0 0 -1 0 0 0 -1 3873.dat
1 0 -100 56.00000000000001 -124 1 0 0 0 -0.780624 -0.625001 0 0.625001 -0.780624 3873.dat
1 0 -100 56.00000000000001 -60 1 0 0 0 -1 0 0 0 -1 3873.dat
1 0 -100 45.9777 -136.51800000000003 1 0 0 0 -0.241922 -0.970295 0 0.970295 -0.241922 3873.dat
1 0 -100 56.00000000000001 -44 1 0 0 0 -1 0 0 0 -1 3873.dat
1 0 -100 30.453000000000003 -140.389 1 0 0 0 0.6946580000000001 -0.71934 0 0.71934 0.6946580000000001 3873.dat
1 0 -100 56.00000000000001 -28.000000000000004 1 0 0 0 -1 0 0 0 -1 3873.dat
1 0 -100 18.9435 -129.274 1 0 0 0 0.9781470000000001 -0.20791200000000004 0 0.20791200000000004 0.9781470000000001 3873.dat
1 0 -100 56.00000000000001 -12.000000000000002 1 0 0 0 -1 0 0 0 -1 3873.dat
1 0 -100 15.616900000000001 -113.62400000000001 1 0 0 0 0.9781470000000001 -0.20791200000000004 0 0.20791200000000004 0.9781470000000001 3873.dat
1 0 -100 56.00000000000001 4 1 0 0 0 -1 0 0 0 -1 3873.dat
1 0 -100 12.290400000000002 -97.97330000000001 1 0 0 0 0.9781470000000001 -0.20791200000000004 0 0.20791200000000004 0.9781470000000001 3873.dat
1 0 -100 56.00000000000001 20 1 0 0 0 -1 0 0 0 -1 3873.dat
1 0 -100 8.96378 -82.32300000000001 1 0 0 0 0.9781470000000001 -0.20791200000000004 0 0.20791200000000004 0.9781470000000001 3873.dat
1 0 -100 56.00000000000001 36 1 0 0 0 -1 0 0 0 -1 3873.dat
1 0 -100 5.63719 -66.6726 1 0 0 0 0.9781470000000001 -0.20791200000000004 0 0.20791200000000004 0.9781470000000001 3873.dat
1 0 -100 56.00000000000001 52 1 0 0 0 -1 0 0 0 -1 3873.dat
1 0 -100 2.3106 -51.0222 1 0 0 0 1 0 0 0 1 3873.dat
1 0 -100 56.00000000000001 68 1 0 0 0 -1 0 0 0 -1 3873.dat
1 0 -100 2.3106 -35.0223 1 0 0 0 1 0 0 0 1 3873.dat
1 0 -100 56.00000000000001 84 1 0 0 0 -1 0 0 0 -1 3873.dat
1 0 -100 2.3106 -19.0223 1 0 0 0 1 0 0 0 1 3873.dat
1 0 -100 48.24300000000001 97.99390000000001 1 0 0 0 -0.874619 0.48481 0 -0.48481 -0.874619 3873.dat
1 0 -100 2.3106 -3.02225 1 0 0 0 1 0 0 0 1 3873.dat
1 0 -100 32.3623 99.9438 1 0 0 0 -0.121869 0.9925460000000002 0 -0.9925460000000002 -0.121869 3873.dat
1 0 -100 2.3106 12.977800000000002 1 0 0 0 0.978148 0.20791200000000004 0 -0.20791200000000004 0.978148 3873.dat
1 0 -100 18.9436 91.2296 1 0 0 0 0.544639 0.8386700000000001 0 -0.8386700000000001 0.544639 3873.dat
1 0 -100 5.6372 28.6281 1 0 0 0 0.978148 0.20791200000000004 0 -0.20791200000000004 0.978148 3873.dat
1 0 -100 15.616900000000001 75.5792 1 0 0 0 0.978148 0.20791200000000004 0 -0.20791200000000004 0.978148 3873.dat
1 0 -100 8.96379 44.2785 1 0 0 0 0.978148 0.20791200000000004 0 -0.20791200000000004 0.978148 3873.dat
1 0 -100 12.290400000000002 59.9288 1 0 0 0 0.978148 0.20791200000000004 0 -0.20791200000000004 0.978148 3873.dat
1 72 0 -114 -353.00000000000006 1 0 0 0 1 0 0 0 1 2432.dat
1 4 0 -82.00000000000001 -353.00000000000006 1 0 0 0 1 0 0 0 1 3702.dat
