1 72 -300 -232.00000000000003 -50 0.707 0 0.707 0 1 0 -0.707 0 0.707 44301.dat
1 0 -300 -256 -50 0.707 0 0.707 0 1 0 -0.707 0 0.707 52107.dat
1 0 -280.204 -246 -44.344 0.707 -0.707 0 0 0 1 -0.707 -0.707 0 4081b.dat
1 47 -284.446 -266 -42.93 -0.707 0.707 0 0 0 -1 -0.707 -0.707 0 54200.dat
1 47 -278.7900000000001 -266 -48.586 0.707 -0.707 0 0 0 -1 0.707 0.707 0 54200.dat
1 0 -305.65600000000006 -246 -69.79599999999999 -0.707 0.707 0 0 0 1 0.707 0.707 0 4081b.dat
1 47 -301.414 -266 -71.21 0.707 -0.707 0 0 0 -1 0.707 0.707 0 54200.dat
1 47 -307.07 -266 -65.55399999999999 -0.707 0.707 0 0 0 -1 -0.707 -0.707 0 54200.dat
1 0 -277.376 -250 -72.624 0.707 -0.707 0 0 0 -1 0.707 0.707 0 60471.dat
1 15 -278.78999999999996 -250 -85.35 -0.612262 -0.707 0.3535 0.5 0 0.8660000000000001 -0.612262 0.707 0.3535 98138p07.dat
1 15 -264.65 -250 -71.21 -0.612262 -0.707 0.3535 0.5 0 0.8660000000000001 -0.612262 0.707 0.3535 98138p07.dat
1 15 -200 -8 130 -1 0 0 0 1 0 0 0 -1 3020.dat
1 15 -200 -16 110 0 0 1 0 1 0 -1 0 0 3020.dat
1 2 -160 -16 150 0 0 -1 0 1 0 1 0 0 2429.dat
1 2 -240 -16 150 0 0 1 0 1 0 -1 0 0 2430.dat
1 2 -240 -16 150 0.707 0 -0.707 0 1 0 0.707 0 0.707 2429.dat
1 2 -160 -16 150 0.707 0 0.707 0 1 0 -0.707 0 0.707 2430.dat
1 27 -210 -32 130 0 0 1 0 1 0 -1 0 0 47457.dat
1 27 -190 -32 130 0 0 -1 0 1 0 1 0 0 47457.dat
1 19 -200 -8 90 0 0 -1 0 1 0 1 0 0 4032a.dat
1 2 -131.716 -8 135.858 0 0 1 0 1 0 -1 0 0 2420.dat
1 2 -268.284 -8 135.858 -1 0 0 0 1 0 0 0 -1 2420.dat
1 2 -200 -24.000000000000004 70 0 0 -1 0 1 0 1 0 0 3020.dat
1 2 -200 -32 100 1 0 0 0 1 0 0 0 1 3023.dat
1 27 -210 -40 80 0 0 1 0 1 0 -1 0 0 6091.dat
1 27 -190 -40 80 0 0 -1 0 1 0 1 0 0 6091.dat
1 2 -200 -40 110 0 0 -1 0 1 0 1 0 0 3020.dat
1 2 -230 -8 80 -1 0 0 0 1 0 0 0 -1 2420.dat
1 2 -170 -8 80 0 0 1 0 1 0 -1 0 0 2420.dat
1 0 -200 -48.00000000000001 90 0 0 1 0 1 0 -1 0 0 3022.dat
1 288 -200 -32 30 1 0 0 0 1 0 0 0 1 48183.dat
1 4 -200 -40 20 1 0 0 0 1 0 0 0 1 15573.dat
1 4 -210 -24.000000000000004 50 -1 0 0 0 1 0 0 0 -1 11477.dat
1 4 -190 -24.000000000000004 50 -1 0 0 0 1 0 0 0 -1 11477.dat
1 71 -200 -56.00000000000001 80 1 0 0 0 1 0 0 0 1 14704.dat
1 288 -200 -64 80 -1 0 0 0 1 0 0 0 -1 48933.dat
1 288 -200 -55.901 29.986999999999995 1 0 0 0 0.9660000000000001 0.259 0 -0.259 0.9660000000000001 48183.dat
1 72 -200 -61.039 41.719 -1 0 0 0 0.9660000000000001 -0.259 0 -0.259 -0.9660000000000001 14417.dat
1 2 -200 -66.21900000000001 22.398999999999994 -1 0 0 0 0.9660000000000001 -0.259 0 -0.259 -0.9660000000000001 3023.dat
1 0 -190 -68.767 43.791000000000004 0 0 -1 0.259 0.9660000000000001 0 0.9660000000000001 -0.259 0 4081b.dat
1 0 -210 -68.767 43.791000000000004 0 0 1 -0.259 0.9660000000000001 0 -0.9660000000000001 -0.259 0 4081b.dat
1 27 -210 -63.629000000000005 32.059 1 0 0 0 0.9660000000000001 0.259 0 -0.259 0.9660000000000001 11477.dat
1 27 -190 -63.629000000000005 32.059 1 0 0 0 0.9660000000000001 0.259 0 -0.259 0.9660000000000001 11477.dat
1 15 -230 -69.943 31.680999999999994 1 0 0 0 0.259 -0.9660000000000001 0 0.9660000000000001 0.259 98138p07.dat
1 15 -170 -69.943 31.680999999999994 1 0 0 0 0.259 -0.9660000000000001 0 0.9660000000000001 0.259 98138p07.dat
1 272 46.00000000000001 -116.00000000000001 -32 0 1 0 1 0 0 0 0 -1 4871.dat
1 14 54 -106.00000000000001 -32 0 1 0 0 0 -1 -1 0 0 48336.dat
1 4 54 -136 -22 0 1 0 -1 0 0 0 0 1 63868.dat
1 4 54 -136 -42 0 1 0 -1 0 0 0 0 1 63868.dat
1 2 38 -96.00000000000001 -2 0 1 0 -1 0 0 0 0 1 3710.dat
1 2 38 -96.00000000000001 -62 0 1 0 -1 0 0 0 0 1 3710.dat
1 0 46.00000000000001 -86 -2 0 1 0 0 0 -1 -1 0 0 3665a.dat
1 0 46.00000000000001 -86 -62 0 1 0 0 0 -1 -1 0 0 3665a.dat
1 15 6.000000000000001 -116.00000000000001 -22 0 1 0 -1 0 0 0 0 1 87552.dat
1 15 6.000000000000001 -116.00000000000001 -42 0 1 0 1 0 0 0 0 -1 87552.dat
1 27 14.000000000000002 -126.00000000000001 -62 0 1 0 0 0 1 1 0 0 87087.dat
1 27 14.000000000000002 -126.00000000000001 -2 0 1 0 0 0 1 1 0 0 87087.dat
1 2 24.000000000000004 -144 -62 0 0 -1 0 1 0 1 0 0 3070b.dat
1 2 24.000000000000004 -144 -2 0 0 -1 0 1 0 1 0 0 3070b.dat
1 2 14.000000000000002 -106.00000000000001 -2 0 1 0 0 0 1 1 0 0 3005.dat
1 2 14.000000000000002 -106.00000000000001 -62 0 1 0 0 0 1 1 0 0 3005.dat
1 0 24.000000000000004 -66 -2 -0.174 0.9850000000000001 0 0 0 -1 -0.9850000000000001 -0.174 0 41532.dat
1 0 14.000000000000002 -86 -2 0 1 0 0 0 1 1 0 0 6541.dat
1 0 14.000000000000002 -86 -62 0 1 0 0 0 1 1 0 0 6541.dat
1 0 24.000000000000004 -66 -62 0.174 0.9850000000000001 0 0 0 -1 -0.9850000000000001 0.174 0 41532.dat
1 2 6.000000000000001 -96.00000000000001 -2 0 1 0 -1 0 0 0 0 1 3710.dat
1 2 6.000000000000001 -96.00000000000001 -62 0 1 0 -1 0 0 0 0 1 3710.dat
1 0 -2 -126.00000000000001 -32 0 1 0 0 0 1 1 0 0 99207.dat
1 0 -4 -140 -32 0 0 -1 0 1 0 1 0 0 85984.dat
1 191 -24.000000000000004 -140 -32 0 0 1 0 1 0 -1 0 0 85984.dat
1 2 -2 -106.00000000000001 -32 0 1 0 0 0 -1 -1 0 0 3023.dat
1 72 -2 -116.00000000000001 -2 0 1 0 1 0 0 0 0 -1 14417.dat
1 72 -2 -116.00000000000001 -62 0 1 0 -1 0 0 0 0 1 14417.dat
1 2 -2 -76 -2 0 1 0 -1 0 0 0 0 1 3023.dat
1 2 -2 -76 -62 0 1 0 -1 0 0 0 0 1 3023.dat
1 2 -10 -96.00000000000001 -32 0 1 0 -1 0 0 0 0 1 3031.dat
1 2 -2 -66 -32 0 1 0 0 0 1 1 0 0 3660.dat
1 2 -18 -96.00000000000001 -2 0 1 0 -1 0 0 0 0 1 3023.dat
1 2 -18 -96.00000000000001 -62 0 1 0 -1 0 0 0 0 1 3023.dat
1 0 -18 -116.00000000000001 -32 0 1 0 -1 0 0 0 0 1 3022.dat
1 0 -18 -126.00000000000001 -32 0 1 0 0 0 1 1 0 0 85984.dat
1 2 -34 -86 -22 0 1 0 0 0 -1 -1 0 0 50950.dat
1 2 -34 -86 -42 0 1 0 0 0 -1 -1 0 0 50950.dat
1 27 -10 -96.00000000000001 -2 0 1 0 0 0 -1 -1 0 0 93273.dat
1 27 -10 -96.00000000000001 -62 0 1 0 0 0 -1 -1 0 0 93273.dat
1 0 29.909 -26 -3.042000000000002 -0.174 0.9850000000000001 0 0 0 -1 -0.9850000000000001 -0.174 0 60471.dat
1 0 22.029 -26 -1.6500000000000017 0.174 0.9850000000000001 0 0 0 1 0.9850000000000001 -0.174 0 60471.dat
1 14 14.149000000000001 -26 -0.2580000000000018 -0.174 0.9850000000000001 0 0 0 -1 -0.9850000000000001 -0.174 0 44567.dat
1 0 14.149000000000001 -26 -0.2580000000000018 0.174 0.9850000000000001 0 0 0 1 0.9850000000000001 -0.174 0 85984.dat
1 0 29.909 -26 -60.958000000000006 0.174 0.9850000000000001 0 0 0 -1 -0.9850000000000001 0.174 0 60471.dat
1 0 22.029 -26 -62.35 -0.174 0.9850000000000001 0 0 0 1 0.9850000000000001 0.174 0 60471.dat
1 14 14.149000000000001 -26 -63.742000000000004 0.174 0.9850000000000001 0 0 0 -1 -0.9850000000000001 0.174 0 44567.dat
1 0 14.149000000000001 -26 -63.742000000000004 -0.174 0.9850000000000001 0 0 0 1 0.9850000000000001 0.174 0 85984.dat
1 0 -3.575 -8 2.862000000000002 0.174 0 -0.9850000000000001 0 1 0 0.9850000000000001 0 0.174 60471.dat
1 0 -11.684999999999999 0 14.452000000000002 -0.174 0 0.9850000000000001 0 1 0 -0.9850000000000001 0 -0.174 11477.dat
1 0 -15.165 0 -5.247999999999998 -0.174 0 0.9850000000000001 0 1 0 -0.9850000000000001 0 -0.174 11477.dat
1 0 -3.575 -8 -66.862 -0.174 0 -0.9850000000000001 0 1 0 0.9850000000000001 0 -0.174 60471.dat
1 0 -15.165 0 -58.751999999999995 0.174 0 0.9850000000000001 0 1 0 -0.9850000000000001 0 0.174 11477.dat
1 0 -11.684999999999999 0 -78.452 0.174 0 0.9850000000000001 0 1 0 -0.9850000000000001 0 0.174 11477.dat
1 72 61.423 -8 -8.599 -0.9850000000000001 0 -0.174 0 1 0 0.174 0 -0.9850000000000001 44301.dat
1 72 51.573 -16 -6.859000000000001 -0.9850000000000001 0 -0.174 0 1 0 0.174 0 -0.9850000000000001 3024.dat
1 0 61.423 -8 -8.599 0.174 0 -0.9850000000000001 0 1 0 0.9850000000000001 0 0.174 11477.dat
1 72 61.423 -8 -55.400999999999996 -0.9850000000000001 0 0.174 0 1 0 -0.174 0 -0.9850000000000001 44301.dat
1 72 51.573 -16 -57.141000000000005 -0.9850000000000001 0 0.174 0 1 0 -0.174 0 -0.9850000000000001 3024.dat
1 0 61.423 -8 -55.400999999999996 -0.174 0 -0.9850000000000001 0 1 0 0.9850000000000001 0 -0.174 11477.dat
1 2 26 -152 -32 0 0 1 0 1 0 -1 0 0 3020.dat
1 191 16 -176 -32 0 0 1 0 1 0 -1 0 0 3004.dat
1 2 36 -160 -2 0 0 1 0 1 0 -1 0 0 2420.dat
1 2 36 -160 -62 1 0 0 0 1 0 0 0 1 2420.dat
1 14 36 -168 -32 0 0 -1 0 1 0 1 0 0 48336.dat
1 2 36 -176 -32 0 0 -1 0 1 0 1 0 0 3023.dat
1 15 16 -176 -2 0 0 1 0 1 0 -1 0 0 3665a.dat
1 15 16 -176 -62 0 0 1 0 1 0 -1 0 0 3665a.dat
1 2 56.00000000000001 -184.00000000000003 -62 0 0 -1 0 1 0 1 0 0 3005.dat
1 2 56.00000000000001 -184.00000000000003 -2 0 0 -1 0 1 0 1 0 0 3005.dat
1 27 36 -184.00000000000003 -2 -1 0 0 0 1 0 0 0 -1 87087.dat
1 27 36 -184.00000000000003 -62 1 0 0 0 1 0 0 0 1 87087.dat
1 14 36 -184.00000000000003 -32 -1 0 0 0 1 0 0 0 -1 3021.dat
1 15 16 -184.00000000000003 -2 -1 0 0 0 1 0 0 0 -1 3024.dat
1 15 16 -184.00000000000003 -62 -1 0 0 0 1 0 0 0 -1 3024.dat
1 2 56.00000000000001 -192.00000000000003 -32 0 0 -1 0 1 0 1 0 0 3710.dat
1 15 26 -192.00000000000003 -32 0 0 -1 0 1 0 1 0 0 3020.dat
1 15 16 -200 -32 0 0 -1 0 1 0 1 0 0 3710.dat
1 2 46.00000000000001 -200 -32 0 0 -1 0 1 0 1 0 0 3020.dat
1 15 -4 -200 -32 0 0 -1 0 1 0 1 0 0 3010.dat
1 2 26 -208 -22 1 0 0 0 1 0 0 0 1 3710.dat
1 2 26 -208 -42 1 0 0 0 1 0 0 0 1 3710.dat
1 2 56.00000000000001 -224.00000000000003 -2 1 0 0 0 1 0 0 0 1 3005.dat
1 2 56.00000000000001 -224.00000000000003 -62 1 0 0 0 1 0 0 0 1 3005.dat
1 27 36 -224.00000000000003 -62 1 0 0 0 1 0 0 0 1 87087.dat
1 27 36 -224.00000000000003 -2 -1 0 0 0 1 0 0 0 -1 87087.dat
1 4 46.00000000000001 -194.00000000000003 16 1 0 0 0 0 1 0 -1 0 43723.dat
1 4 46.00000000000001 -194.00000000000003 -80 -1 0 0 0 0 1 0 1 0 43722.dat
1 0 6.000000000000001 -216 -32 1 0 0 0 1 0 0 0 1 3022.dat
1 0 6.000000000000001 -224.00000000000003 -32 1 0 0 0 1 0 0 0 1 3022.dat
1 15 6.000000000000001 -224.00000000000003 -2 1 0 0 0 1 0 0 0 1 3700.dat
1 15 6.000000000000001 -224.00000000000003 -62 1 0 0 0 1 0 0 0 1 3700.dat
1 1 6.000000000000001 -214.00000000000003 -72 0 0 1 0 1 0 -1 0 0 4274.dat
1 1 6.000000000000001 -214.00000000000003 8 0 0 -1 0 1 0 1 0 0 4274.dat
1 15 16 -232.00000000000003 -32 0 0 1 0 1 0 -1 0 0 3710.dat
1 2 16 -240 -32 0 0 1 0 1 0 -1 0 0 3023.dat
1 2 16 -256 -22 0 0 -1 0 1 0 1 0 0 6005.dat
1 2 16 -240 -42 0 0 -1 0 1 0 1 0 0 6005.dat
1 2 36 -248 -2 0 0 -1 0 1 0 1 0 0 50950.dat
1 2 36 -248 -62 0 0 -1 0 1 0 1 0 0 50950.dat
1 15 -4 -232.00000000000003 -12.000000000000002 0 0 1 0 1 0 -1 0 0 44728.dat
1 15 -4 -232.00000000000003 -52 0 0 1 0 1 0 -1 0 0 44728.dat
1 15 6.000000000000001 -214.00000000000003 16 0 0 -1 1 0 0 0 -1 0 14769p01.dat
1 15 6.000000000000001 -214.00000000000003 -80 -1 0 0 0 0 1 0 1 0 14769p01.dat
1 15 -26 -222.00000000000003 -32 0 1 0 0 0 -1 -1 0 0 3710.dat
1 191 -50 -222.00000000000003 -32 0 1 0 0 0 -1 -1 0 0 3004.dat
1 0 -26 -192.00000000000003 -32 0 1 0 0 0 -1 -1 0 0 51739.dat
1 4 -34 -192.00000000000003 -32 0 1 0 0 0 -1 -1 0 0 48183.dat
1 191 -58.00000000000001 -192.00000000000003 -32 0 1 0 0 0 -1 -1 0 0 47753.dat
1 4 -4 -256 -42 0 0 1 0 1 0 -1 0 0 3045.dat
1 4 -4 -256 -22 -1 0 0 0 1 0 0 0 -1 3045.dat
1 0 6.000000000000001 -248 -22 0 0 -1 0 1 0 1 0 0 11477.dat
1 0 6.000000000000001 -248 -42 0 0 -1 0 1 0 1 0 0 11477.dat
1 4 66 -64 -32 0 0 1 0 1 0 -1 0 0 3176.dat
1 2 56.00000000000001 -72 -32 0 0 1 0 1 0 -1 0 0 3023.dat
1 4 96.00000000000001 -72 -52 0 0 1 0 1 0 -1 0 0 43723.dat
1 4 96.00000000000001 -72 -12.000000000000002 0 0 1 0 1 0 -1 0 0 43722.dat
1 15 66 -80 -22 -1 0 0 0 1 0 0 0 -1 92280.dat
1 15 66 -80 -42 -1 0 0 0 1 0 0 0 -1 92280.dat
1 2 96.00000000000001 -80 -32 0 0 -1 0 1 0 1 0 0 3023.dat
1 1 126.00000000000001 -88 -22 0 0 -1 0 1 0 1 0 0 61678.dat
1 1 126.00000000000001 -88 -42 0 0 -1 0 1 0 1 0 0 61678.dat
1 272 86 -80 -32 0 0 1 0 1 0 -1 0 0 15068.dat
1 27 11.654 -84.778 -107.45600000000002 -0.406 0.406 -0.819 -0.579 0.579 0.574 0.707 0.707 0 3623.dat
1 71 8.475999999999999 -106.73 -98.97200000000001 -0.819 0.406 0.406 0.574 0.579 0.579 0 0.707 -0.707 14704.dat
1 72 8.405999999999999 -89.41000000000001 -113.11200000000001 -0.819 0.406 0.406 0.574 0.579 0.579 0 0.707 -0.707 3024.dat
1 2 19.913999999999998 -107.838 -93.316 0.406 0.406 0.819 0.579 0.579 -0.574 -0.707 0.707 0 2420.dat
1 1 16.526 -77.83 -127.25200000000001 0.819 0.406 -0.406 -0.574 0.579 -0.579 0 0.707 0.707 60897.dat
1 1 24.786 -100.88999999999999 -113.11200000000001 0.819 0.406 -0.406 -0.574 0.579 -0.579 0 0.707 0.707 60897.dat
1 1 33.04599999999999 -123.94999999999999 -98.97200000000001 0.819 0.406 -0.406 -0.574 0.579 -0.579 0 0.707 0.707 60897.dat
1 27 5.1579999999999995 -94.042 -118.76800000000001 0.406 0.406 0.819 0.579 0.579 -0.574 -0.707 0.707 0 3623.dat
1 2 13.418 -117.102 -104.62800000000001 0.406 0.406 0.819 0.579 0.579 -0.574 -0.707 0.707 0 2420.dat
1 27 10.1 -104.414 -124.424 0.819 0.406 -0.406 -0.574 0.579 -0.579 0 0.707 0.707 43723.dat
1 27 11.654 -84.778 43.456 -0.406 0.406 0.819 -0.579 0.579 -0.574 -0.707 -0.707 0 3623.dat
1 71 8.475999999999999 -106.73 34.97200000000001 0.819 0.406 0.406 -0.574 0.579 0.579 0 -0.707 0.707 14704.dat
1 72 8.405999999999999 -89.41000000000001 49.11200000000001 0.819 0.406 0.406 -0.574 0.579 0.579 0 -0.707 0.707 3024.dat
1 2 19.913999999999998 -107.838 29.316000000000003 0.819 0.406 0.406 -0.574 0.579 0.579 0 -0.707 0.707 2420.dat
1 1 16.526 -77.83 63.25200000000001 -0.819 0.406 -0.406 0.574 0.579 -0.579 0 -0.707 -0.707 60897.dat
1 1 24.786 -100.88999999999999 49.11200000000001 -0.819 0.406 -0.406 0.574 0.579 -0.579 0 -0.707 -0.707 60897.dat
1 1 33.04599999999999 -123.94999999999999 34.97200000000001 -0.819 0.406 -0.406 0.574 0.579 -0.579 0 -0.707 -0.707 60897.dat
1 27 5.1579999999999995 -94.042 54.76800000000001 0.406 0.406 -0.819 0.579 0.579 0.574 0.707 -0.707 0 3623.dat
1 2 13.418 -117.102 40.628 0.819 0.406 0.406 -0.574 0.579 0.579 0 -0.707 0.707 2420.dat
1 27 10.1 -104.414 60.42400000000001 -0.819 0.406 -0.406 0.574 0.579 -0.579 0 -0.707 -0.707 43722.dat
1 27 59.55 -79.398 -156.30599999999998 -0.604 0.686 0.406 -0.411 -0.7040000000000001 0.579 0.6830000000000002 0.183 0.707 3623.dat
1 1 48.022 -77.87599999999999 -150.94 -0.604 0.686 0.406 -0.411 -0.7040000000000001 0.579 0.6830000000000002 0.183 0.707 60478.dat
1 1 66.694 -55.804 -179.724 -0.406 0.686 -0.604 -0.579 -0.7040000000000001 -0.411 -0.707 0.183 0.6830000000000002 61678.dat
1 2 36.494 -76.35400000000001 -145.57399999999998 -0.406 0.686 -0.604 -0.579 -0.7040000000000001 -0.411 -0.707 0.183 0.6830000000000002 3070b.dat
1 27 73.026 -110.79700000000001 -138.315 -0.761 0.507 0.406 -0.21500000000000002 -0.786 0.579 0.6120000000000001 0.354 0.707 3623.dat
1 1 61.36 -106.659 -135.027 -0.761 0.507 0.406 -0.21500000000000002 -0.786 0.579 0.6120000000000001 0.354 0.707 60478.dat
1 1 87.744 -91.77100000000002 -162.33900000000003 -0.406 0.507 -0.761 -0.579 -0.786 -0.21500000000000002 -0.707 0.354 0.6120000000000001 61678.dat
1 2 49.694 -102.521 -131.739 -0.406 0.507 -0.761 -0.579 -0.786 -0.21500000000000002 -0.707 0.354 0.6120000000000001 3070b.dat
1 27 44.148 -48.83200000000001 -172.51000000000002 -0.406 0.819 0.406 -0.579 -0.574 0.579 0.707 0 0.707 3623.dat
1 1 33.536 -50.03 -165.44 -0.406 0.819 0.406 -0.579 -0.574 0.579 0.707 0 0.707 60478.dat
1 1 43.22400000000001 -22.278000000000006 -193.72 -0.406 0.819 -0.406 -0.579 -0.574 -0.579 -0.707 0 0.707 61678.dat
1 2 22.924000000000003 -51.22800000000001 -158.37 -0.406 0.819 -0.406 -0.579 -0.574 -0.579 -0.707 0 0.707 3070b.dat
1 27 59.55 -79.398 92.30600000000001 -0.604 0.686 -0.406 -0.411 -0.7040000000000001 -0.579 -0.6830000000000002 -0.183 0.707 3623.dat
1 1 48.022 -77.87599999999999 86.94000000000001 -0.604 0.686 -0.406 -0.411 -0.7040000000000001 -0.579 -0.6830000000000002 -0.183 0.707 60478.dat
1 1 66.694 -55.804 115.72400000000002 0.406 0.686 -0.604 0.579 -0.7040000000000001 -0.411 -0.707 -0.183 -0.6830000000000002 61678.dat
1 2 36.494 -76.35400000000001 81.57400000000001 0.406 0.686 -0.604 0.579 -0.7040000000000001 -0.411 -0.707 -0.183 -0.6830000000000002 3070b.dat
1 27 73.026 -110.79700000000001 74.315 -0.761 0.507 -0.406 -0.21500000000000002 -0.786 -0.579 -0.6120000000000001 -0.354 0.707 3623.dat
1 1 61.36 -106.659 71.027 -0.761 0.507 -0.406 -0.21500000000000002 -0.786 -0.579 -0.6120000000000001 -0.354 0.707 60478.dat
1 1 87.744 -91.77100000000002 98.339 0.406 0.507 -0.761 0.579 -0.786 -0.21500000000000002 -0.707 -0.354 -0.6120000000000001 61678.dat
1 2 49.694 -102.521 67.739 0.406 0.507 -0.761 0.579 -0.786 -0.21500000000000002 -0.707 -0.354 -0.6120000000000001 3070b.dat
1 27 44.148 -48.83200000000001 108.50999999999999 -0.406 0.819 -0.406 -0.579 -0.574 -0.579 -0.707 0 0.707 3623.dat
1 1 33.536 -50.03 101.44 -0.406 0.819 -0.406 -0.579 -0.574 -0.579 -0.707 0 0.707 60478.dat
1 1 43.22400000000001 -22.278000000000006 129.72000000000003 0.406 0.819 -0.406 0.579 -0.574 -0.579 -0.707 0 -0.707 61678.dat
1 2 22.924000000000003 -51.22800000000001 94.36999999999999 0.406 0.819 -0.406 0.579 -0.574 -0.579 -0.707 0 -0.707 3070b.dat
1 86 -120 -8 -50 1 0 0 0 1 0 0 0 1 98138.dat
1 86 -150 -8 -80 1 0 0 0 1 0 0 0 1 98138.dat
1 86 -70 -8 -110 1 0 0 0 1 0 0 0 1 98138.dat
