1 71 0 0 0 -1 0 0 0 0 1 0 1 0 48989.dat
1 70 -20 0 20 1 0 0 0 0 -1 0 1 0 24316.dat
1 71 -15 0 20 0 0 -1 0 1 0 1 0 0 32123b.dat
1 72 20 20 20 0 0 -1 0 1 0 1 0 0 32523p01.dat
1 72 20 20 -20 0 0 -1 0 1 0 1 0 0 32523p01.dat
1 71 40 0 0 -1 0 0 0 0 1 0 1 0 48989.dat
1 70 60 0 20 -1 0 0 0 0 1 0 1 0 24316.dat
1 71 55 0 20 0 0 -1 0 1 0 1 0 0 32123b.dat
1 0 20 0 20 1 0 0 0 -1 0 0 0 -1 42102 - 33299b.dat
1 72 20 -20 -20 0 0 -1 0 -1 0 -1 0 0 32523.dat
1 71 20 -20 60 1 0 0 0 1 0 0 0 1 14720.dat
1 71 40 0 100 0 -1 0 -1 0 0 0 0 -1 15100.dat
1 72 20 -50 100 0 -1 0 1 0 0 0 0 1 87083.dat
1 71 20 -40 100 0 -1 0 0 0 1 -1 0 0 94925.dat
1 71 20 -20 20 0 0 -1 1 0 0 0 -1 0 4519.dat
1 71 20 -40 20 -1 0 0 0 0 1 0 1 0 94925.dat
1 72 20 -80 140 0 -1 0 0 0 1 -1 0 0 32526.dat
1 0 30 0 100 -1 0 0 0 1 0 0 0 -1 2780.dat
1 0 30 -80 140 1 0 0 0 1 0 0 0 1 2780.dat
1 1 20 -60 140 -1 0 0 0 1 0 0 0 -1 6558.dat
1 72 0 -60 80 0 -1 0 -1 0 0 0 0 -1 32524.dat
1 71 20 -60 80 0 0 -1 -1 0 0 0 1 0 48989.dat
1 71 20 -40 60 0.9810000000000001 -0.19500000000000003 0 0 0 1 -0.19500000000000003 -0.9810000000000001 0 94925.dat
1 19 20 -50 60 0 0.19500000000000003 0.9810000000000001 1 0 0 0 0.9810000000000001 -0.19500000000000003 3749.dat
1 0 20 -69.397 16.58 0 1 0 0.342 0 -0.94 -0.94 0 -0.342 43857.dat
1 1 0 -60 20 -1 0 0 0 1 0 0 0 -1 6558.dat
1 72 40 -60 80 0 -1 0 1 0 0 0 0 1 32524.dat
1 0 50 -60 20 1 0 0 0 -1 0 0 0 -1 2780.dat
1 4 20 -20 80 1 0 0 0 1 0 0 0 1 3706.dat
1 71 -35 -20 80 0 0 1 0 1 0 -1 0 0 32123b.dat
1 0 -20 -40 80 1 0 0 0 -1 0 0 0 -1 42003.dat
1 71 -20 -40 100 0 1 0 0 0 -1 -1 0 0 15100.dat
1 4 0 -20 80 0 0 1 -1 0 0 0 -1 0 3713.dat
1 27 -20 -60 60 0 1 0 1 0 0 0 0 -1 11946.dat
1 1 -20 -60 70 0 0 1 0 1 0 -1 0 0 43093.dat
1 4 40 -20 80 0 0 1 -1 0 0 0 -1 0 3713.dat
1 0 60 -40 80 1 0 0 0 -1 0 0 0 -1 42003.dat
1 71 60 -40 100 0 1 0 0 0 -1 -1 0 0 15100.dat
1 27 60 -60 60 0 -1 0 -1 0 0 0 0 -1 11947.dat
1 1 60 -60 70 0 -1 0 0 0 1 -1 0 0 43093.dat
1 71 75 -20 80 0 0 1 0 1 0 -1 0 0 32123b.dat
1 0 20 -71.48 -46.398 0 -1 0 0.12200000000000001 0 0.993 -0.993 0 0.12200000000000001 32140.dat
1 1 20 -9.460000000000008 -58.938 1 0 0 0 -0.993 0.12200000000000001 0 -0.12200000000000001 -0.993 6558.dat
1 1 20 -11.900000000000006 -39.078 1 0 0 0 -0.993 0.12200000000000001 0 -0.12200000000000001 -0.993 6558.dat
1 71 20 -71.48 -46.398 1 0 0 0 -0.993 0.12200000000000001 0 -0.12200000000000001 -0.993 4519.dat
1 0 0 -10.680000000000007 -49.008 0 1 0 0.993 0 0.12200000000000001 0.12200000000000001 0 -0.993 43857.dat
1 0 40 -10.680000000000007 -49.008 0 1 0 0.993 0 0.12200000000000001 0.12200000000000001 0 -0.993 43857.dat
1 27 0 -81.24000000000001 33.042 0 1 0 0.993 0 0.12200000000000001 0.12200000000000001 0 -0.993 32526.dat
1 1 20 -31.760000000000016 -41.51800000000001 1 0 0 0 0.993 -0.12200000000000001 0 0.12200000000000001 0.993 6558.dat
1 0 10 -73.92 -26.538000000000004 1 0 0 0 0.993 -0.12200000000000001 0 0.12200000000000001 0.993 2780.dat
1 0 10 -76.36 -6.678000000000005 1 0 0 0 0.993 -0.12200000000000001 0 0.12200000000000001 0.993 2780.dat
1 27 20 -75.14 -16.608000000000004 0 -1 0 0.993 0 -0.12200000000000001 0.12200000000000001 0 0.993 43857.dat
1 1 20 -81.24000000000001 33.042 1 0 0 0 -0.993 0.12200000000000001 0 -0.12200000000000001 -0.993 6558.dat
1 1 20 -78.8 13.181999999999995 1 0 0 0 -0.993 0.12200000000000001 0 -0.12200000000000001 -0.993 6558.dat
1 0 20 -81.708855 43.03606199999999 0 1 0 0.999171 0 0.04715899999999999 0.04715899999999999 0 -0.999171 43857.dat
1 27 40 -81.231 33.011 0 1 0 0.993 0 0.12200000000000001 0.12200000000000001 0 -0.993 32526.dat
1 27 80 -60 160 0 1 0 1 0 0 0 0 -1 32140.dat
1 0 70 -60 100 -1 0 0 0 1 0 0 0 -1 2780.dat
1 0 70 -40 100 -1 0 0 0 1 0 0 0 -1 2780.dat
1 1 60 -60 120 -1 0 0 0 1 0 0 0 -1 6558.dat
1 0 60 -120 100 0 1 0 0 0 1 1 0 0 32140.dat
1 0 50 -100 100 -1 0 0 0 1 0 0 0 -1 2780.dat
1 1 50 -120 100 1 0 0 0 0 1 0 -1 0 43093.dat
1 15 20 -120 60 0 -1 0 1 0 0 0 0 1 32523.dat
1 1 20 -120 60 -1 0 0 0 -1 0 0 0 1 6558.dat
1 1 20 -120 80 -1 0 0 0 -1 0 0 0 1 6558.dat
1 15 40 -120 40 0 -1 0 1 0 0 0 0 1 32140.dat
1 15 0 -120 40 0 -1 0 1 0 0 0 0 1 32140.dat
1 1 50 -120 40 -1 0 0 0 -1 0 0 0 1 43093.dat
1 1 -10 -120 40 1 0 0 0 -1 0 0 0 -1 43093.dat
1 0 -20 -120 100 0 1 0 0 0 1 1 0 0 32140.dat
1 0 -10 -100 100 1 0 0 0 1 0 0 0 1 2780.dat
1 1 -10 -120 100 -1 0 0 0 0 1 0 1 0 43093.dat
1 27 -40 -60 160 0 1 0 1 0 0 0 0 -1 32140.dat
1 0 -30 -60 100 1 0 0 0 -1 0 0 0 -1 2780.dat
1 0 -30 -40 100 1 0 0 0 -1 0 0 0 -1 2780.dat
1 1 -20 -60 120 1 0 0 0 -1 0 0 0 -1 6558.dat
1 0 60 -119.99700000000001 39.998 -1 0 0 0 0.325 -0.9460000000000001 0 -0.9460000000000001 -0.325 32013.dat
1 1 60 -91.61700000000002 49.748000000000005 0 0 -1 -0.9460000000000001 -0.325 0 -0.325 0.9460000000000001 0 43093.dat
1 0 60 -82.15700000000001 52.998000000000005 0 0 1 -0.9460000000000001 0.325 0 -0.325 -0.9460000000000001 0 32013.dat
1 71 20 -82.15700000000001 52.998000000000005 1 0 0 0 0.325 0.9460000000000001 0 -0.9460000000000001 0.325 4519.dat
1 0 -20 -120.00800000000001 39.989 -1 0 0 0 0.325 -0.9460000000000001 0 -0.9460000000000001 -0.325 32013.dat
1 1 -20 -91.62800000000001 49.739000000000004 0 0 -1 -0.9460000000000001 -0.325 0 -0.325 0.9460000000000001 0 43093.dat
1 0 -20 -82.168 52.989 0 0 -1 0.9460000000000001 0.325 0 0.325 -0.9460000000000001 0 32013.dat
1 71 35 -20 140 0 1 0 0 0 1 1 0 0 6632.dat
1 1 30 -20 140 1 0 0 0 0 1 0 -1 0 43093.dat
1 71 45 -20 140 0 0 -1 1 0 0 0 -1 0 32123b.dat
1 0 20 -3.688 189.864 0 1 0 -0.07400000000000001 0 0.9970000000000001 0.9970000000000001 0 0.07400000000000001 3705.dat
1 0 20 -5.9079999999999995 219.77400000000003 0 1 0 -0.9970000000000001 0 -0.07400000000000001 -0.07400000000000001 0 0.9970000000000001 32270.dat
1 4 20 -4.428 199.83400000000003 -1 0 0 0 -0.9970000000000001 -0.07400000000000001 0 -0.07400000000000001 0.9970000000000001 3713.dat
1 72 20 -3.688 189.864 -1 0 0 0 -0.9970000000000001 -0.07400000000000001 0 -0.07400000000000001 0.9970000000000001 42102 - 61904.dat
1 19 20 -1.9860000000000002 166.933 1 0 0 0 -0.9970000000000001 0.07400000000000001 0 -0.07400000000000001 -0.9970000000000001 6589.dat
1 71 20 -22.888 178.41400000000004 -1 0 0 0 -0.9970000000000001 -0.07400000000000001 0 -0.07400000000000001 0.9970000000000001 4519.dat
1 27 20 -79.97275700000002 159.988741 0 1 0 -0.30721999999999994 0 0.9516199999999999 0.9516199999999999 0 0.30721999999999994 32140.dat
1 1 30 -79.97275700000002 159.988741 -1 0 0 0 -0.30721999999999994 0.9516199999999999 0 0.9516199999999999 0.30721999999999994 43093.dat
1 1 30 -60.94412300000002 166.12985399999997 1 0 0 0 0.9516199999999999 -0.30721999999999994 0 0.30721999999999994 0.9516199999999999 43093.dat
1 4 40 -60.94412300000002 166.12985399999997 0 0 1 0.9516199999999999 -0.30721999999999994 0 0.30721999999999994 0.9516199999999999 0 3713.dat
1 14 20 -28.808000000000003 258.174 -1 0 0 0 0.9970000000000001 0.07400000000000001 0 0.07400000000000001 -0.9970000000000001 32073.dat
1 4 60 -28.808000000000003 258.174 -1 0 0 0 0.07400000000000001 -0.9970000000000001 0 -0.9970000000000001 -0.07400000000000001 6536.dat
1 4 45 -25.848 218.29399999999998 0 -1 0 0.9970000000000001 0 -0.07400000000000001 0.07400000000000001 0 0.9970000000000001 11478.dat
1 4 -5 -25.848 218.29400000000004 0 -1 0 -0.9970000000000001 0 0.07400000000000001 -0.07400000000000001 0 -0.9970000000000001 11478.dat
1 4 20 -28.808000000000003 258.174 1 0 0 0 -0.9970000000000001 0.07400000000000001 0 -0.07400000000000001 -0.9970000000000001 62462.dat
1 4 -20 -28.808000000000003 258.174 1 0 0 0 0.07400000000000001 0.9970000000000001 0 -0.9970000000000001 0.07400000000000001 6536.dat
1 4 20 -7.388 239.71400000000003 0 0 -1 0.07400000000000001 -0.9970000000000001 0 -0.9970000000000001 -0.07400000000000001 0 32524.dat
1 19 80 2.5820000000000007 240.454 0 0 -1 0.9970000000000001 0.07400000000000001 0 0.07400000000000001 -0.9970000000000001 0 3749.dat
1 19 20 2.5820000000000007 240.454 0 0.707 -0.707 0.9970000000000001 0.052318 0.052318 0.07400000000000001 -0.7048789999999999 -0.7048789999999999 3749.dat
1 19 -40 2.5820000000000007 240.454 0 0 -1 0.9970000000000001 0.07400000000000001 0 0.07400000000000001 -0.9970000000000001 0 3749.dat
1 0 80 12.552000000000003 241.194 -1 0 0 0 0.07400000000000001 -0.9970000000000001 0 -0.9970000000000001 -0.07400000000000001 32498.dat
1 0 -40 12.552000000000003 241.194 -1 0 0 0 0.07400000000000001 -0.9970000000000001 0 -0.9970000000000001 -0.07400000000000001 32498.dat
1 0 20 12.552000000000003 241.194 -0.707 0.707 0 0.052318 0.052318 -0.9970000000000001 -0.7048789999999999 -0.7048789999999999 -0.07400000000000001 32270.dat
1 0 60 -17.358000000000004 238.97400000000002 0 -1 0 -0.9970000000000001 0 0.07400000000000001 -0.07400000000000001 0 -0.9970000000000001 2780.dat
1 0 -20 -17.358000000000004 238.97400000000002 0 -1 0 -0.9970000000000001 0 0.07400000000000001 -0.07400000000000001 0 -0.9970000000000001 2780.dat
1 71 15 0.011999999999999567 140.014 -1 0 0 0 -0.9734920000000001 -0.22864400000000004 0 -0.22864400000000004 0.9734920000000001 44294.dat
1 19 3.0000000000000004 0.011999999999999567 140.014 0 0 -1 0.22864400000000004 -0.9734920000000001 0 -0.9734920000000001 -0.22864400000000004 0 32198.dat
1 71 55 0 140 0 0 -1 -0.973 -0.22900000000000004 0 -0.22900000000000004 0.973 0 32123b.dat
1 71 -15 0 140 0 0 -1 -0.974 -0.228 0 -0.228 0.974 0 32123b.dat
1 0 40 -80 160 0 0 -1 1 0 0 0 -1 0 42003.dat
1 72 20 -90 100 1 0 0 0 0 1 0 -1 0 59443.dat
1 71 20 -120 100 0 0 1 -1 0 0 0 -1 0 4519.dat
1 4 20 -120 100 1 0 0 0 0 1 0 -1 0 3713.dat
1 0 20 -140 100 1 0 0 0 0 1 0 -1 0 32270.dat
1 4 -40 0 20 0 0 1 -1 0 0 0 -1 0 55982.dat
1 256 -40 0 20 0 0 1 -1 0 0 0 -1 0 42102 - 92402.dat
1 4 80 0 20 0 0 -1 1 0 0 0 -1 0 55982.dat
1 256 80 0 20 0 0 -1 1 0 0 0 -1 0 42102 - 92402.dat
1 4 80 0.012 140.014 0 0 -1 0.973 0.22900000000000004 0 0.22900000000000004 -0.973 0 55982.dat
1 256 80 0.012 140.014 0 0 -1 0.973 0.22900000000000004 0 0.22900000000000004 -0.973 0 42102 - 92402.dat
1 4 -40 0.012 140.014 0 0 1 0.973 0.22900000000000004 0 -0.22900000000000004 0.973 0 55982.dat
1 256 -40 0.012 140.014 0 0 1 0.973 0.22900000000000004 0 -0.22900000000000004 0.973 0 42102 - 92402.dat
