1 0 0 -24.000000000000004 -100 0 0 1 0 1 0 -1 0 0 32532.dat
1 0 0 -24.000000000000004 100 0 0 1 0 1 0 -1 0 0 32532.dat
1 72 -20 -24.000000000000004 0 0 0 -1 0 1 0 1 0 0 30000.dat
1 72 20 -24.000000000000004 0 0 0 -1 0 1 0 1 0 0 30000.dat
1 0 70 -24.000000000000004 -160 0 0 1 0 1 0 -1 0 0 2458.dat
1 0 -70 -24.000000000000004 -160 0 0 -1 0 1 0 1 0 0 2458.dat
1 0 -60 -14.000000000000002 -120 1 0 0 0 1 0 0 0 1 2780.dat
1 0 -60 -14.000000000000002 -40 1 0 0 0 1 0 0 0 1 2780.dat
1 0 -60 -14.000000000000002 40 1 0 0 0 1 0 0 0 1 2780.dat
1 0 60 -14.000000000000002 -120 1 0 0 0 1 0 0 0 1 2780.dat
1 0 60 -14.000000000000002 -40 1 0 0 0 1 0 0 0 1 2780.dat
1 0 60 -14.000000000000002 40 1 0 0 0 1 0 0 0 1 2780.dat
1 0 70 -24.000000000000004 0 0 0 -1 0 1 0 1 0 0 32018.dat
1 0 -70 -24.000000000000004 0 0 0 -1 0 1 0 1 0 0 32018.dat
1 71 60 -14.000000000000002 120 1 0 0 0 1 0 0 0 1 32073.dat
1 0 100 -14.000000000000002 140 1 0 0 0 1 0 0 0 1 32039.dat
1 14 85 -14.000000000000002 120 0 0 -1 1 0 0 0 -1 0 32123b.dat
1 4 0 -14.000000000000002 120 0 0 -1 0 1 0 1 0 0 26287.dat
1 71 -60 -14.000000000000002 120 1 0 0 0 1 0 0 0 1 32073.dat
1 0 -100 -14.000000000000002 140 1 0 0 0 1 0 0 0 1 32039.dat
1 14 -85 -14.000000000000002 120 0 0 1 0 1 0 -1 0 0 32123a.dat
1 0 0 -24.000000000000004 -240 1 0 0 0 1 0 0 0 1 32532.dat
1 0 20 -14.000000000000002 -180 0 0 -1 0 1 0 1 0 0 2780.dat
1 0 -20 -14.000000000000002 -180 0 0 -1 0 1 0 1 0 0 2780.dat
1 71 0 -16 -210 0 0 -1 0 -1 0 -1 0 0 59443.dat
1 14 30 -14.000000000000002 -210 1 0 0 0 1 0 0 0 1 4519.dat
1 14 -30 -14.000000000000002 -210 1 0 0 0 1 0 0 0 1 4519.dat
1 0 25 -54 -210 0 1 0 0 0 1 1 0 0 11478.dat
1 0 -25 -54 -210 0 1 0 0 0 1 1 0 0 11478.dat
1 0 40 -14.000000000000002 -210 0 -1 0 0 0 -1 1 0 0 87082.dat
1 0 -40 -14.000000000000002 -210 0 -1 0 0 0 -1 1 0 0 87082.dat
1 14 55 -14.000000000000002 -210 0 0 -1 1 0 0 0 -1 0 32123b.dat
1 14 -55 -14.000000000000002 -210 0 0 -1 1 0 0 0 -1 0 32123b.dat
1 1 0 -24.000000000000004 -230 1 0 0 0 1 0 0 0 1 3894.dat
1 71 0 -32 -160 1 0 0 0 1 0 0 0 1 3029.dat
1 71 0 -32 -250 1 0 0 0 1 0 0 0 1 3460.dat
1 71 0 -40 -250 1 0 0 0 1 0 0 0 1 3460.dat
1 71 0 -32 -290 1 0 0 0 1 0 0 0 1 3460.dat
1 71 0 -40 -290 1 0 0 0 1 0 0 0 1 3460.dat
1 0 -80 -32 -220 1 0 0 0 1 0 0 0 1 3020.dat
1 0 80 -32 -220 1 0 0 0 1 0 0 0 1 3020.dat
1 0 0 -40 -120 0 0 -1 0 1 0 1 0 0 3020.dat
1 0 0 -40 20 0 0 -1 0 1 0 1 0 0 3020.dat
1 0 0 -40 -60 0 0 -1 0 1 0 1 0 0 3068b.dat
1 0 0 -40 -180 0 0 -1 0 1 0 1 0 0 3068b.dat
1 0 0 -40 80 0 0 -1 0 1 0 1 0 0 3068b.dat
1 72 60 -40 -10 1 0 0 0 1 0 0 0 1 3023.dat
1 72 -60 -40 -10 1 0 0 0 1 0 0 0 1 3023.dat
1 0 0 -40 -230 1 0 0 0 1 0 0 0 1 60479.dat
1 0 0 -40 -30 1 0 0 0 1 0 0 0 1 60479.dat
1 71 0 -32 -80 1 0 0 0 1 0 0 0 1 3029.dat
1 71 0 -32 0 1 0 0 0 1 0 0 0 1 3029.dat
1 71 0 -32 80 1 0 0 0 1 0 0 0 1 3029.dat
1 71 110 -48.00000000000001 -210 0 0 -1 0 1 0 1 0 0 11212.dat
1 71 130 -48.00000000000001 -140 0 0 -1 0 1 0 1 0 0 99207.dat
1 71 130 -48.00000000000001 -100 0 0 -1 0 1 0 1 0 0 99207.dat
1 71 130 -48.00000000000001 -60 0 0 -1 0 1 0 1 0 0 99207.dat
1 19 110 -56.00000000000001 -200 0 0 -1 0 1 0 1 0 0 3023.dat
1 19 100 -80 -210 1 0 0 0 1 0 0 0 1 3023.dat
1 272 110 -72 -190 0 0 1 0 1 0 -1 0 0 2420.dat
1 272 144 -60 -200 0 -1 0 0 0 -1 1 0 0 88930p02.dat
1 19 80 -64 -180 1 0 0 0 1 0 0 0 1 2430.dat
1 19 80 -64 -180 -1 0 0 0 1 0 0 0 -1 2429.dat
1 272 160 -96.00000000000001 -160 0 0 -1 0 1 0 1 0 0 2430.dat
1 272 160 -96.00000000000001 -160 0 0 -1 0 1 0 1 0 0 2429.dat
1 272 160 -136 -160 0 0 -1 0 1 0 1 0 0 2430.dat
1 272 150 -136 -150 0 0 -1 0 1 0 1 0 0 54200.dat
1 272 150 -136 70 0 0 -1 0 1 0 1 0 0 54200.dat
1 272 150 -136 40 0 0 -1 0 1 0 1 0 0 85984.dat
1 272 150 -136 0 0 0 -1 0 1 0 1 0 0 85984.dat
1 272 150 -136 -40 0 0 -1 0 1 0 1 0 0 85984.dat
1 272 150 -136 -80 0 0 -1 0 1 0 1 0 0 85984.dat
1 272 150 -136 -120 0 0 -1 0 1 0 1 0 0 85984.dat
1 272 160 -136 -160 0 0 -1 0 1 0 1 0 0 2429.dat
1 19 120 -72 -160 -1 0 0 0 1 0 0 0 -1 2430.dat
1 19 120 -72 -160 0 0 1 0 1 0 -1 0 0 2429.dat
1 4 90 -56.00000000000001 -190 0 0 -1 0 1 0 1 0 0 3070b.dat
1 19 90 -72 -220 0 0 -1 0 1 0 1 0 0 3004.dat
1 19 130 -56.00000000000001 -100 0 0 1 0 1 0 -1 0 0 3666.dat
1 19 130 -112.00000000000001 -100 0 0 1 0 1 0 -1 0 0 3666.dat
1 19 130 -104 -80 0 0 1 0 1 0 -1 0 0 14718.dat
1 19 130 -64 -140 0 0 1 0 1 0 -1 0 0 3023.dat
1 19 130 -80 -140 0 0 1 0 1 0 -1 0 0 3023.dat
1 272 150 -112.00000000000001 -140 0 0 1 0 1 0 -1 0 0 3023.dat
1 272 140 -96.00000000000001 -210 1 0 0 0 1 0 0 0 1 3023.dat
1 272 150 -104 -210 0 0 -1 0 1 0 1 0 0 2420.dat
1 15 152 -70 -110 0 -1 0 -1 0 0 0 0 -1 2420.dat
1 15 152 -90 -90 0 -1 0 1 0 0 0 0 1 2420.dat
1 15 152 -110 -90 0 -1 0 0 0 -1 1 0 0 3623.dat
1 272 136 -50 -10 0 -1 0 0 0 -1 1 0 0 3623.dat
1 272 144 -60 -140 0 -1 0 0 0 -1 1 0 0 15068p07.dat
1 272 144 -60 -100 0 -1 0 0 0 -1 1 0 0 15068p07.dat
1 272 144 -60 20 0 -1 0 0 0 -1 1 0 0 15068p07.dat
1 272 144 -60 60 0 -1 0 0 0 -1 1 0 0 15068p07.dat
1 272 144 -60 -60 0 -1 0 0 0 -1 1 0 0 15068p07.dat
1 272 144 -60 -20 0 -1 0 0 0 -1 1 0 0 15068p07.dat
1 272 160 -100 -100 0 -1 0 0 0 -1 1 0 0 3068b.dat
1 272 128 -60 -20 0 -1 0 0 0 1 -1 0 0 11203.dat
1 272 120 -100 -20 0 -1 0 0 0 1 -1 0 0 11203.dat
1 272 120 -100 20 0 -1 0 0 0 1 -1 0 0 11203.dat
1 4 152 -70 -150 0 -1 0 1 0 0 0 0 1 6141.dat
1 272 150 -120 -130 -1 0 0 0 1 0 0 0 -1 2420.dat
1 272 140 -128 -80 0 0 -1 0 1 0 1 0 0 3795.dat
1 272 150 -136 -40 0 0 -1 0 1 0 1 0 0 3460.dat
1 272 140 -128 10 0 0 -1 0 1 0 1 0 0 3021.dat
1 272 140 -128 60 0 0 -1 0 1 0 1 0 0 26601.dat
1 272 136 -90 10 0 -1 0 1 0 0 0 0 1 2420.dat
1 272 136 -80 -20 0 -1 0 0 0 1 -1 0 0 3022.dat
1 71 130 -112.00000000000001 -180 0 0 1 0 1 0 -1 0 0 4865b.dat
1 272 150 -104 -170 1 0 0 0 1 0 0 0 1 3024.dat
1 272 130 -120 -100 0 0 -1 0 1 0 1 0 0 44728.dat
1 272 130 -120 -60 0 0 -1 0 1 0 1 0 0 44728.dat
1 272 140 -96.00000000000001 -230 1 0 0 0 1 0 0 0 1 44728.dat
1 19 130 -96.00000000000001 -140 0 0 1 0 1 0 -1 0 0 3023.dat
1 272 140 -88 -140 0 0 1 0 1 0 -1 0 0 3022.dat
1 272 140 -104 -140 0 0 1 0 1 0 -1 0 0 3022.dat
1 0 130 -72 -230 0 0 -1 0 1 0 1 0 0 2357.dat
1 71 110 -80 -190 0 0 -1 0 1 0 1 0 0 85861.dat
1 4 130 -80 -230 0 0 -1 0 1 0 1 0 0 6141.dat
1 72 130 -80 -200 0 0 -1 0 1 0 1 0 0 93274.dat
1 19 100 -104 -210 -1 0 0 0 1 0 0 0 -1 11211.dat
1 272 140 -88 -200 0 0 -1 0 1 0 1 0 0 3020.dat
1 272 160 -100 -40 0 -1 0 -1 0 0 0 0 -1 42918.dat
1 272 152 -70 0 0 -1 0 0 0 -1 1 0 0 3460.dat
1 272 144 -60 0 0 -1 0 0 0 -1 1 0 0 3020.dat
1 1 100 -94 -176 1 0 0 0 0 1 0 -1 0 3937.dat
1 272 136 -60 30 0 -1 0 -1 0 0 0 0 -1 99206.dat
1 272 136 -110 0 0 -1 0 0 0 1 -1 0 0 99206.dat
1 272 136 -110 40 0 -1 0 0 0 1 -1 0 0 99206.dat
1 272 136 -110 -30 0 -1 0 0 0 1 -1 0 0 6141.dat
1 272 136 -90 50 0 -1 0 0 0 1 -1 0 0 6141.dat
1 272 128 -100 -30 0 -1 0 -1 0 0 0 0 -1 3023.dat
1 272 130 -60 56.00000000000001 0 0 1 -1 0 0 0 -1 0 3023.dat
1 272 130 -60 48.00000000000001 0 0 -1 1 0 0 0 -1 0 99207.dat
1 272 130 -60 80 0 0 1 -1 0 0 0 -1 0 37352.dat
1 272 150 -76 -244.00000000000003 1 0 0 0 0 -1 0 1 0 61409.dat
1 0 130 -142 -120 0.913545 0 -0.40673700000000007 -0.40673700000000007 0 -0.913545 0 1 0 87994.dat
1 19 130 -136 -110 1 0 0 0 1 0 0 0 1 15712.dat
1 19 130 -136 -90 1 0 0 0 1 0 0 0 1 15712.dat
1 19 130 -136 -70 1 0 0 0 1 0 0 0 1 15712.dat
1 19 130 -128 -130 1 0 0 0 1 0 0 0 1 54200.dat
1 19 130 -144 0 0 0 1 0 1 0 -1 0 0 6636.dat
1 19 130 -136 0 0 0 1 0 1 0 -1 0 0 3666.dat
1 72 150 -136 60 0 0 -1 0 1 0 1 0 0 48336.dat
1 71 159.835 -168.41900000000004 -98 1 0 0 0 0 -1 0 1 0 20482.dat
1 47 159.835 -168.41900000000004 -82.00000000000001 1 0 0 0 0 -1 0 1 0 3023.dat
1 71 159.835 -168.41900000000004 -90 1 0 0 0 0 -1 0 1 0 15573.dat
1 71 159.835 -168.41900000000004 -102.00000000000001 0 -0.913545 -0.40673700000000007 0 0.40673700000000007 -0.913545 1 0 0 30377.dat
1 272 140 -120 160 1 0 0 0 1 0 0 0 1 47755.dat
1 72 130 -128 200 0 0 1 0 1 0 -1 0 0 4477.dat
1 272 140 -112.00000000000001 120 0 0 1 0 1 0 -1 0 0 3022.dat
1 272 140 -112.00000000000001 280 0 0 1 0 1 0 -1 0 0 3022.dat
1 272 140 -120 140 0 0 1 0 1 0 -1 0 0 3020.dat
1 272 140 -120 260 0 0 1 0 1 0 -1 0 0 3020.dat
1 272 140 -120 240 -1 0 0 0 1 0 0 0 -1 47755.dat
1 272 140 -120 -360 1 0 0 0 1 0 0 0 1 47755.dat
1 272 140 -128 -320 0 0 1 0 1 0 -1 0 0 3020.dat
1 272 140 -136 -260 0 0 1 0 1 0 -1 0 0 3020.dat
1 272 140 -136 -360 0 0 1 0 1 0 -1 0 0 3795.dat
1 272 140 -120 -280 -1 0 0 0 1 0 0 0 -1 47755.dat
1 272 140 -128 -390 -1 0 0 0 1 0 0 0 -1 3660.dat
1 272 140 -128 -250 1 0 0 0 1 0 0 0 1 3660.dat
1 272 -140 -120 -360 1 0 0 0 1 0 0 0 1 47755.dat
1 272 -140 -128 -320 0 0 1 0 1 0 -1 0 0 3020.dat
1 272 -140 -136 -260 0 0 1 0 1 0 -1 0 0 3020.dat
1 272 -140 -136 -360 0 0 1 0 1 0 -1 0 0 3795.dat
1 272 -140 -120 -280 -1 0 0 0 1 0 0 0 -1 47755.dat
1 272 -140 -128 -390 -1 0 0 0 1 0 0 0 -1 3660.dat
1 272 -140 -128 -250 1 0 0 0 1 0 0 0 1 3660.dat
1 272 130 -136 -210 1 0 0 0 1 0 0 0 1 2420.dat
1 272 -130 -136 -210 0 0 -1 0 1 0 1 0 0 2420.dat
1 72 -110 -136 -320 0 0 -1 0 1 0 1 0 0 4477.dat
1 72 110 -136 -320 0 0 -1 0 1 0 1 0 0 4477.dat
1 272 -90 -136 -440 0 0 -1 0 1 0 1 0 0 3069b.dat
1 272 -120 -144 -400 0 0 -1 0 1 0 1 0 0 87079.dat
1 272 -120 -144 -320 0 0 -1 0 1 0 1 0 0 87079.dat
1 272 -120 -144 -240 0 0 -1 0 1 0 1 0 0 87079.dat
1 272 -130 -144 -190 0 0 -1 0 1 0 1 0 0 3070b.dat
1 272 130 -144 -190 0 0 -1 0 1 0 1 0 0 3070b.dat
1 272 150 -136 -410 0 0 -1 0 1 0 1 0 0 54200.dat
1 272 -150 -136 -410 0 0 1 0 1 0 -1 0 0 54200.dat
1 272 150 -136 -220 0 0 -1 0 1 0 1 0 0 85984.dat
1 272 150 -136 -180 0 0 -1 0 1 0 1 0 0 85984.dat
1 272 150 -136 -260 0 0 -1 0 1 0 1 0 0 85984.dat
1 272 150 -136 -300 0 0 -1 0 1 0 1 0 0 85984.dat
1 272 150 -136 -340 0 0 -1 0 1 0 1 0 0 85984.dat
1 272 150 -136 -380 0 0 -1 0 1 0 1 0 0 85984.dat
1 272 -150 -136 -340 0 0 1 0 1 0 -1 0 0 85984.dat
1 272 -150 -136 -380 0 0 1 0 1 0 -1 0 0 85984.dat
1 272 -150 -136 -300 0 0 1 0 1 0 -1 0 0 85984.dat
1 272 -150 -136 -260 0 0 1 0 1 0 -1 0 0 85984.dat
1 272 -150 -136 -220 0 0 1 0 1 0 -1 0 0 85984.dat
1 272 -150 -136 -180 0 0 1 0 1 0 -1 0 0 85984.dat
1 272 120 -144 -400 0 0 -1 0 1 0 1 0 0 87079.dat
1 272 120 -144 -320 0 0 -1 0 1 0 1 0 0 87079.dat
1 272 120 -144 -240 0 0 -1 0 1 0 1 0 0 87079.dat
1 272 -130 -136 -440 0 0 1 0 1 0 -1 0 0 43723.dat
1 272 130 -136 -440 0 0 -1 0 1 0 1 0 0 43722.dat
1 272 90 -136 -440 0 0 -1 0 1 0 1 0 0 3069b.dat
1 272 150 -76 -396 -1 0 0 0 0 -1 0 -1 0 61409.dat
1 272 -150 -76 -396 -1 0 0 0 0 -1 0 -1 0 61409.dat
1 272 150 -128 270 0 0 1 0 1 0 -1 0 0 63864.dat
1 272 -150 -128 270 0 0 1 0 1 0 -1 0 0 63864.dat
1 272 -150 -128 160 0 0 1 0 1 0 -1 0 0 4162.dat
1 272 150 -128 160 0 0 1 0 1 0 -1 0 0 4162.dat
1 71 110 -152 220 0 0 1 0 1 0 -1 0 0 4162.dat
1 71 -110 -152 220 0 0 1 0 1 0 -1 0 0 4162.dat
1 71 -120 -112.00000000000001 320 -1 0 0 0 1 0 0 0 -1 41682.dat
1 19 -110 -152 130 0 0 1 0 1 0 -1 0 0 3024.dat
1 19 -110 -200 90 0 0 1 0 1 0 -1 0 0 3024.dat
1 19 110 -200 90 0 0 1 0 1 0 -1 0 0 3024.dat
1 19 110 -162 212.00000000000003 0 0 1 -1 0 0 0 -1 0 14716.dat
1 19 -110 -162 212.00000000000003 0 0 1 -1 0 0 0 -1 0 14716.dat
1 19 -100 -208 130 -1 0 0 0 1 0 0 0 -1 99206.dat
1 19 100 -208 130 -1 0 0 0 1 0 0 0 -1 99206.dat
1 19 0 -168 190 1 0 0 0 1 0 0 0 1 3069b.dat
1 19 0 -152 190 1 0 0 0 1 0 0 0 1 3684a.dat
1 19 -110 -192.00000000000003 130 -1 0 0 0 1 0 0 0 -1 32952.dat
1 19 110 -192.00000000000003 130 -1 0 0 0 1 0 0 0 -1 32952.dat
1 19 -110 -192.00000000000003 100 0 0 1 0 1 0 -1 0 0 3004.dat
1 19 -110 -168 100 0 0 1 0 1 0 -1 0 0 11211.dat
1 19 110 -192.00000000000003 100 0 0 -1 0 1 0 1 0 0 3004.dat
1 19 110 -168 100 0 0 -1 0 1 0 1 0 0 11211.dat
1 19 110 -152 130 0 0 1 0 1 0 -1 0 0 3024.dat
1 272 -140 -120 240 -1 0 0 0 1 0 0 0 -1 47755.dat
1 72 -130 -128 200 0 0 -1 0 1 0 1 0 0 4477.dat
1 272 -140 -112.00000000000001 280 0 0 -1 0 1 0 1 0 0 3022.dat
1 272 -140 -112.00000000000001 120 0 0 -1 0 1 0 1 0 0 3022.dat
1 272 -140 -120 260 0 0 -1 0 1 0 1 0 0 3020.dat
1 272 -140 -120 140 0 0 -1 0 1 0 1 0 0 3020.dat
1 272 -140 -120 160 1 0 0 0 1 0 0 0 1 47755.dat
1 272 -140 -88 110 -1 0 0 0 1 0 0 0 -1 3023.dat
1 272 -140 -96.00000000000001 110 -1 0 0 0 1 0 0 0 -1 44728.dat
1 272 -150 -76 124 -1 0 0 0 0 -1 0 -1 0 61409.dat
1 272 140 -88 110 -1 0 0 0 1 0 0 0 -1 3023.dat
1 19 0 -162 212.00000000000003 1 0 0 0 0 1 0 -1 0 3023.dat
1 19 -110 -208 100 0 0 1 0 1 0 -1 0 0 3023.dat
1 19 110 -208 100 0 0 1 0 1 0 -1 0 0 3023.dat
1 272 110 -104 100 0 0 1 0 1 0 -1 0 0 3023.dat
1 272 -110 -104 100 0 0 1 0 1 0 -1 0 0 3023.dat
1 272 140 -96.00000000000001 110 -1 0 0 0 1 0 0 0 -1 44728.dat
1 272 140 -104 100 1 0 0 0 1 0 0 0 1 26601.dat
1 272 -140 -104 100 0 0 1 0 1 0 -1 0 0 26601.dat
1 272 150 -76 124 -1 0 0 0 0 -1 0 -1 0 61409.dat
1 272 140 -96.00000000000001 290 1 0 0 0 1 0 0 0 1 44728.dat
1 272 150 -76 276 1 0 0 0 0 -1 0 1 0 61409.dat
1 272 -140 -96.00000000000001 290 1 0 0 0 1 0 0 0 1 44728.dat
1 272 130 -104 290 1 0 0 0 1 0 0 0 1 2420.dat
1 272 -130 -104 290 0 0 -1 0 1 0 1 0 0 2420.dat
1 0 110 -128 90 1 0 0 0 1 0 0 0 1 2357.dat
1 0 -110 -128 90 0 0 -1 0 1 0 1 0 0 2357.dat
1 272 -150 -76 276 1 0 0 0 0 -1 0 1 0 61409.dat
1 71 -110 -48.00000000000001 -210 0 0 -1 0 1 0 1 0 0 11212.dat
1 71 -130 -48.00000000000001 -140 0 0 1 0 1 0 -1 0 0 99207.dat
1 71 -130 -48.00000000000001 -100 0 0 1 0 1 0 -1 0 0 99207.dat
1 71 -130 -48.00000000000001 -60 0 0 1 0 1 0 -1 0 0 99207.dat
1 19 -110 -56.00000000000001 -200 0 0 -1 0 1 0 1 0 0 3023.dat
1 19 -130 -80 -140 0 0 -1 0 1 0 1 0 0 3023.dat
1 272 -110 -72 -190 -1 0 0 0 1 0 0 0 -1 2420.dat
1 272 -144 -60 -200 0 1 0 0 0 -1 -1 0 0 88930p02.dat
1 19 -80 -64 -180 -1 0 0 0 1 0 0 0 -1 2430.dat
1 19 -80 -64 -180 1 0 0 0 1 0 0 0 1 2429.dat
1 272 -160 -96.00000000000001 -160 0 0 1 0 1 0 -1 0 0 2430.dat
1 272 -160 -96.00000000000001 -160 0 0 1 0 1 0 -1 0 0 2429.dat
1 19 -120 -72 -160 0 0 -1 0 1 0 1 0 0 2430.dat
1 19 -120 -72 -160 -1 0 0 0 1 0 0 0 -1 2429.dat
1 4 -90 -56.00000000000001 -190 0 0 -1 0 1 0 1 0 0 3070b.dat
1 19 -90 -72 -220 0 0 -1 0 1 0 1 0 0 3004.dat
1 19 -130 -56.00000000000001 -100 0 0 -1 0 1 0 1 0 0 3666.dat
1 19 -130 -112.00000000000001 -100 0 0 1 0 1 0 -1 0 0 3666.dat
1 19 -130 -104 -80 0 0 -1 0 1 0 1 0 0 14718.dat
1 19 -130 -64 -140 0 0 1 0 1 0 -1 0 0 3023.dat
1 19 -100 -80 -210 1 0 0 0 1 0 0 0 1 3023.dat
1 272 -150 -112.00000000000001 -140 0 0 1 0 1 0 -1 0 0 3023.dat
1 272 -140 -96.00000000000001 -210 1 0 0 0 1 0 0 0 1 3023.dat
1 272 -150 -104 -210 1 0 0 0 1 0 0 0 1 2420.dat
1 15 -152 -70 -110 0 1 0 0 0 -1 -1 0 0 2420.dat
1 15 -152 -90 -90 0 1 0 0 0 1 1 0 0 2420.dat
1 15 -152 -110 -90 0 1 0 0 0 -1 -1 0 0 3623.dat
1 272 -136 -50 -10 0 1 0 0 0 1 1 0 0 3623.dat
1 272 -144 -60 -140 0 1 0 0 0 -1 -1 0 0 15068p07.dat
1 272 -144 -60 -100 0 1 0 0 0 -1 -1 0 0 15068p07.dat
1 272 -144 -60 -20 0 1 0 0 0 -1 -1 0 0 15068p07.dat
1 272 -144 -60 -60 0 1 0 0 0 -1 -1 0 0 15068p07.dat
1 272 -144 -60 60 0 1 0 0 0 -1 -1 0 0 15068p07.dat
1 272 -144 -60 20 0 1 0 0 0 -1 -1 0 0 15068p07.dat
1 272 -160 -100 -100 0 1 0 0 0 -1 -1 0 0 3068b.dat
1 272 -128 -60 -20 0 1 0 1 0 0 0 0 -1 11203.dat
1 272 -120 -100 -20 0 1 0 0 0 -1 -1 0 0 11203.dat
1 272 -120 -100 20 0 1 0 0 0 -1 -1 0 0 11203.dat
1 4 -152 -70 -150 0 1 0 1 0 0 0 0 -1 6141.dat
1 272 -150 -120 -130 0 0 1 0 1 0 -1 0 0 2420.dat
1 272 -136 -90 10 0 1 0 0 0 1 1 0 0 2420.dat
1 272 -136 -80 -20 0 1 0 1 0 0 0 0 -1 3022.dat
1 71 -130 -112.00000000000001 -180 0 0 -1 0 1 0 1 0 0 4865b.dat
1 272 -150 -104 -170 0 0 -1 0 1 0 1 0 0 3024.dat
1 272 -130 -120 -60 0 0 1 0 1 0 -1 0 0 44728.dat
1 272 -130 -120 -100 0 0 1 0 1 0 -1 0 0 44728.dat
1 272 -140 -96.00000000000001 -230 1 0 0 0 1 0 0 0 1 44728.dat
1 19 -130 -96.00000000000001 -140 0 0 1 0 1 0 -1 0 0 3023.dat
1 272 -140 -88 -140 0 0 1 0 1 0 -1 0 0 3022.dat
1 272 -140 -104 -140 1 0 0 0 1 0 0 0 1 3022.dat
1 0 -130 -72 -230 1 0 0 0 1 0 0 0 1 2357.dat
1 71 -110 -80 -190 0 0 -1 0 1 0 1 0 0 85861.dat
1 4 -130 -80 -230 0 0 -1 0 1 0 1 0 0 6141.dat
1 72 -130 -80 -200 0 0 1 0 1 0 -1 0 0 93274.dat
1 19 -100 -104 -210 -1 0 0 0 1 0 0 0 -1 11211.dat
1 272 -140 -88 -200 0 0 1 0 1 0 -1 0 0 3020.dat
1 272 -160 -100 -40 0 1 0 1 0 0 0 0 -1 42918.dat
1 272 -152 -70 0 0 1 0 0 0 1 1 0 0 3460.dat
1 272 -144 -60 0 0 1 0 0 0 1 1 0 0 3020.dat
1 1 -100 -94 -176 1 0 0 0 0 1 0 -1 0 3937.dat
1 272 -136 -60 30 0 1 0 1 0 0 0 0 -1 99206.dat
1 272 -136 -110 40 0 1 0 0 0 1 1 0 0 99206.dat
1 272 -136 -110 0 0 1 0 0 0 1 1 0 0 99206.dat
1 272 -136 -90 50 0 1 0 1 0 0 0 0 -1 6141.dat
1 272 -136 -110 -30 0 1 0 1 0 0 0 0 -1 6141.dat
1 272 -128 -100 -30 0 1 0 1 0 0 0 0 -1 3023.dat
1 272 -130 -60 56.00000000000001 0 0 -1 1 0 0 0 -1 0 3023.dat
1 272 -130 -60 48.00000000000001 0 0 1 -1 0 0 0 -1 0 99207.dat
1 272 -130 -60 80 0 0 -1 1 0 0 0 -1 0 37352.dat
1 272 -150 -76 -244.00000000000003 1 0 0 0 0 -1 0 1 0 61409.dat
1 272 -160 -136 -160 0 0 1 0 1 0 -1 0 0 2430.dat
1 272 -150 -136 70 0 0 1 0 1 0 -1 0 0 54200.dat
1 272 -150 -136 -150 0 0 1 0 1 0 -1 0 0 54200.dat
1 272 -150 -136 -120 0 0 1 0 1 0 -1 0 0 85984.dat
1 272 -150 -136 -80 0 0 1 0 1 0 -1 0 0 85984.dat
1 272 -150 -136 -40 0 0 1 0 1 0 -1 0 0 85984.dat
1 272 -150 -136 0 0 0 1 0 1 0 -1 0 0 85984.dat
1 272 -150 -136 40 0 0 1 0 1 0 -1 0 0 85984.dat
1 272 -160 -136 -160 0 0 1 0 1 0 -1 0 0 2429.dat
1 272 -140 -128 -80 0 0 -1 0 1 0 1 0 0 3795.dat
1 272 -150 -136 -40 0 0 -1 0 1 0 1 0 0 3460.dat
1 272 -140 -128 10 0 0 -1 0 1 0 1 0 0 3021.dat
1 272 -140 -128 60 -1 0 0 0 1 0 0 0 -1 26601.dat
1 0 -130 -142 -120 0.913545 0 -0.40673700000000007 -0.40673700000000007 0 -0.913545 0 1 0 87994.dat
1 19 -130 -136 -110 1 0 0 0 1 0 0 0 1 15712.dat
1 19 -130 -136 -90 1 0 0 0 1 0 0 0 1 15712.dat
1 19 -130 -136 -70 1 0 0 0 1 0 0 0 1 15712.dat
1 19 -130 -144 0 0 0 1 0 1 0 -1 0 0 6636.dat
1 19 -130 -136 0 0 0 1 0 1 0 -1 0 0 3666.dat
1 72 -150 -136 60 0 0 1 0 1 0 -1 0 0 48336.dat
1 71 -160.16500000000002 -168.41900000000004 -98 1 0 0 0 0 -1 0 1 0 20482.dat
1 47 -160.16500000000002 -168.41900000000004 -82.00000000000001 1 0 0 0 0 -1 0 1 0 3023.dat
1 71 -160.16500000000002 -168.41900000000004 -90 1 0 0 0 0 -1 0 1 0 15573.dat
1 71 -160.16500000000002 -168.41900000000004 -102.00000000000001 0 0.913545 0.40673700000000007 0 0.40673700000000007 -0.913545 -1 0 0 30377.dat
1 272 0 -40 -420 1 0 0 0 1 0 0 0 1 91988.dat
1 0 0 -40 -380 1 0 0 0 1 0 0 0 1 3795.dat
1 0 0 -32 -400 1 0 0 0 1 0 0 0 1 3795.dat
1 1 0 -32 -370 1 0 0 0 1 0 0 0 1 3666.dat
1 0 0 -32 -430 1 0 0 0 1 0 0 0 1 32803.dat
1 0 -40 -32 -430 1 0 0 0 1 0 0 0 1 32803.dat
1 0 40 -32 -430 1 0 0 0 1 0 0 0 1 32803.dat
1 0 40 -24.000000000000004 -380 0 0 -1 0 1 0 1 0 0 10247.dat
1 0 -40 -24.000000000000004 -380 0 0 -1 0 1 0 1 0 0 10247.dat
1 0 40 -54 -400 0 0 -1 0 1 0 1 0 0 3673.dat
1 0 -40 -54 -400 0 0 -1 0 1 0 1 0 0 3673.dat
1 19 -40 -64 -380 0 0 1 0 1 0 -1 0 0 17485.dat
1 19 40 -64 -380 0 0 1 0 1 0 -1 0 0 17485.dat
1 272 -120 -64 -430 1 0 0 0 1 0 0 0 1 2431.dat
1 272 120 -64 -430 1 0 0 0 1 0 0 0 1 2431.dat
1 0 0 -64 -410 1 0 0 0 1 0 0 0 1 3895.dat
1 0 70 -48.00000000000001 -430 0 0 -1 0 1 0 1 0 0 15712.dat
1 0 50 -48.00000000000001 -430 0 0 -1 0 1 0 1 0 0 15712.dat
1 0 -50 -48.00000000000001 -430 0 0 -1 0 1 0 1 0 0 15712.dat
1 0 -70 -48.00000000000001 -430 0 0 -1 0 1 0 1 0 0 15712.dat
1 1 0 -64 -430 1 0 0 0 1 0 0 0 1 30414.dat
1 71 0 -44 -448.00000000000006 1 0 0 0 0 -1 0 1 0 3020.dat
1 72 -20 -44 -456 1 0 0 0 0 -1 0 1 0 87580.dat
1 14 0 -44 -464.00000000000006 1 0 0 0 0 -1 0 1 0 87079dt0.dat
1 72 20 -44 -456 1 0 0 0 0 -1 0 1 0 87580.dat
1 4 -90 -56.00000000000001 -430 1 0 0 0 1 0 0 0 1 6141.dat
1 4 90 -56.00000000000001 -430 1 0 0 0 1 0 0 0 1 6141.dat
1 272 -100 -48.00000000000001 -430 1 0 0 0 1 0 0 0 1 3023.dat
1 272 100 -48.00000000000001 -430 1 0 0 0 1 0 0 0 1 3023.dat
1 272 -130 -48.00000000000001 -420 0 0 -1 0 1 0 1 0 0 3023.dat
1 0 130 -56.00000000000001 -420 0 0 -1 0 1 0 1 0 0 99781.dat
1 272 144 -46.00000000000001 -420 0 -1 0 0 0 -1 1 0 0 85984.dat
1 272 -144 -46.00000000000001 -420 0 1 0 0 0 -1 -1 0 0 85984.dat
1 0 -74 -54 -450 0 -1 0 0 0 1 -1 0 0 26604.dat
1 272 -98 -54 -450 0 -1 0 0 0 1 -1 0 0 3024.dat
1 272 -50 -54 -450 0 -1 0 -1 0 0 0 0 -1 2921.dat
1 0 -130 -56.00000000000001 -420 0 0 1 0 1 0 -1 0 0 99781.dat
1 272 130 -48.00000000000001 -420 0 0 -1 0 1 0 1 0 0 3023.dat
1 0 -110 -56.00000000000001 -430 1 0 0 0 1 0 0 0 1 4081b.dat
1 272 -42 -54 -450 0 -1 0 -1 0 0 0 0 -1 3070b.dat
1 71 -84 -54 -460 1 0 0 0 0 -1 0 1 0 54200.dat
1 272 -138 -54 -450 0 1 0 -1 0 0 0 0 1 87087.dat
1 272 -138 -54 -450 0 1 0 0 0 -1 -1 0 0 54200.dat
1 47 -128 -54 -468.00000000000006 1 0 0 0 0 -1 0 1 0 98138.dat
1 0 74 -54 -450 0 1 0 -1 0 0 0 0 1 26604.dat
1 272 98 -54 -450 0 1 0 0 0 -1 -1 0 0 3024.dat
1 272 50 -54 -450 0 1 0 1 0 0 0 0 -1 2921.dat
1 0 110 -56.00000000000001 -430 1 0 0 0 1 0 0 0 1 4081b.dat
1 272 42 -54 -450 0 1 0 1 0 0 0 0 -1 3070b.dat
1 71 84 -54 -460 1 0 0 0 0 -1 0 1 0 54200.dat
1 272 138 -54 -450 0 -1 0 1 0 0 0 0 1 87087.dat
1 272 138 -54 -450 0 -1 0 0 0 -1 1 0 0 54200.dat
1 47 128 -54 -468.00000000000006 -1 0 0 0 0 1 0 1 0 98138.dat
1 272 110 -224.00000000000003 -40 -1 0 0 0 1 0 0 0 -1 85970.dat
1 272 110 -216 10 -1 0 0 0 1 0 0 0 -1 3024.dat
1 272 110 -224.00000000000003 -70 1 0 0 0 1 0 0 0 1 26047.dat
1 272 110 -216 -40 0 0 1 0 1 0 -1 0 0 3710.dat
1 272 110 -232.00000000000003 -50 0 0 1 0 1 0 -1 0 0 63864.dat
1 7 0 -216 -20 1 0 0 0 1 0 0 0 1 3030.dat
1 15 0 -232.00000000000003 20 -1 0 0 0 1 0 0 0 -1 42918p01.dat
1 15 40 -232.00000000000003 20 -1 0 0 0 1 0 0 0 -1 42918.dat
1 15 0 -232.00000000000003 -60 0 0 -1 0 1 0 1 0 0 87079p0b.dat
1 15 40 -232.00000000000003 -60 0 0 -1 0 1 0 1 0 0 87079.dat
1 15 -40 -232.00000000000003 -60 0 0 -1 0 1 0 1 0 0 87079.dat
1 272 -80 -232.00000000000003 -60 0 0 -1 0 1 0 1 0 0 87079.dat
1 272 80 -232.00000000000003 -60 0 0 -1 0 1 0 1 0 0 87079.dat
1 15 -40 -232.00000000000003 20 -1 0 0 0 1 0 0 0 -1 42918.dat
1 272 -80 -232.00000000000003 20 -1 0 0 0 1 0 0 0 -1 42918.dat
1 272 80 -232.00000000000003 20 -1 0 0 0 1 0 0 0 -1 42918.dat
1 19 60 -224.00000000000003 -20 1 0 0 0 1 0 0 0 1 3022.dat
1 19 0 -224.00000000000003 -20 1 0 0 0 1 0 0 0 1 3022.dat
1 0 0 -224.00000000000003 -50 1 0 0 0 1 0 0 0 1 99781.dat
1 71 60 -224.00000000000003 -50 1 0 0 0 1 0 0 0 1 2436a.dat
1 71 -60 -224.00000000000003 -50 1 0 0 0 1 0 0 0 1 2436a.dat
1 19 -60 -224.00000000000003 -20 1 0 0 0 1 0 0 0 1 3022.dat
1 71 -60 -214.00000000000003 -72 -1 0 0 0 0 1 0 1 0 3710.dat
1 71 60 -214.00000000000003 -72 -1 0 0 0 0 1 0 1 0 3710.dat
1 71 80 -214.00000000000003 -96.00000000000001 1 0 0 0 0 -1 0 1 0 4865b.dat
1 71 40 -214.00000000000003 -96.00000000000001 1 0 0 0 0 -1 0 1 0 4865b.dat
1 71 -40 -214.00000000000003 -96.00000000000001 1 0 0 0 0 -1 0 1 0 4865b.dat
1 71 -80 -214.00000000000003 -96.00000000000001 1 0 0 0 0 -1 0 1 0 4865b.dat
1 71 10 -214.00000000000003 -72 0 0 1 1 0 0 0 1 0 15712.dat
1 71 -10 -214.00000000000003 -72 0 0 1 1 0 0 0 1 0 15712.dat
1 72 0 -194.00000000000003 -76 1 0 0 0 0 1 0 -1 0 48336.dat
1 71 0 -194.00000000000003 -68 -1 0 0 0 0 -1 0 -1 0 3069bd06.dat
1 0 0 -208 100 1 0 0 0 1 0 0 0 1 3832.dat
1 19 90 -224.00000000000003 -30 0 0 -1 0 1 0 1 0 0 3623.dat
1 19 30 -224.00000000000003 -30 0 0 -1 0 1 0 1 0 0 3623.dat
1 19 -90 -224.00000000000003 -30 0 0 -1 0 1 0 1 0 0 3623.dat
1 19 -30 -224.00000000000003 -30 0 0 -1 0 1 0 1 0 0 3623.dat
1 15 0 -158.59793 -233.32463500000003 0 0 -1 -0.0348995 0.999391 0 0.999391 0.0348995 0 26603p02.dat
1 15 -40 -158.59793 -233.32463500000003 0 0 -1 -0.0348995 0.999391 0 0.999391 0.0348995 0 26603.dat
1 15 40 -158.59793 -233.32463500000003 0 0 -1 -0.0348995 0.999391 0 0.999391 0.0348995 0 26603.dat
1 15 0 -152.31602000000004 -413.21501500000005 0 0 -1 -0.0348995 0.999391 0 0.999391 0.0348995 0 26603p02.dat
1 15 -40 -152.31602000000004 -413.21501500000005 0 0 -1 -0.0348995 0.999391 0 0.999391 0.0348995 0 26603.dat
1 15 40 -152.31602000000004 -413.21501500000005 0 0 -1 -0.0348995 0.999391 0 0.999391 0.0348995 0 26603.dat
1 272 -80 -158.248935 -243.31854500000003 0 0 -1 -0.0348995 0.999391 0 0.999391 0.0348995 0 87079.dat
1 272 -90 -147.461847 -322.990629 0 0 -1 -0.0348995 0.999391 0 0.999391 0.0348995 0 4477.dat
1 272 90 -147.461847 -322.990629 0 0 -1 -0.0348995 0.999391 0 0.999391 0.0348995 0 4477.dat
1 71 -70 -149.206822 -273.021079 0 0 1 0.0348995 0.999391 0 -0.999391 0.0348995 0 2420.dat
1 71 -70 -146.763857 -342.97844899999996 0 0 1 0.0348995 0.999391 0 -0.999391 0.0348995 0 3710.dat
1 71 70 -146.763857 -342.97844899999996 0 0 1 0.0348995 0.999391 0 -0.999391 0.0348995 0 3710.dat
1 71 70 -149.206822 -273.021079 -1 0 0 0 0.999391 0.0348995 0 0.0348995 -0.999391 2420.dat
1 272 90 -151.300792 -213.057619 0 0 -1 -0.0348995 0.999391 0 0.999391 0.0348995 0 3024.dat
1 272 -90 -151.300792 -213.057619 0 0 -1 -0.0348995 0.999391 0 0.999391 0.0348995 0 3024.dat
1 272 80 -158.248935 -243.31854500000003 0 0 -1 -0.0348995 0.999391 0 0.999391 0.0348995 0 87079.dat
1 272 -80 -155.456975 -323.26982499999997 0 0 -1 -0.0348995 0.999391 0 0.999391 0.0348995 0 87079.dat
1 272 80 -155.456975 -323.26982499999997 0 0 -1 -0.0348995 0.999391 0 0.999391 0.0348995 0 87079.dat
1 272 -80 -152.665015 -403.221105 0 0 -1 -0.0348995 0.999391 0 0.999391 0.0348995 0 87079.dat
1 272 80 -152.665015 -403.221105 0 0 -1 -0.0348995 0.999391 0 0.999391 0.0348995 0 87079.dat
1 72 60 -151.300792 -213.057619 -1 0 0 0 0.999391 0.0348995 0 0.0348995 -0.999391 48336.dat
1 72 20 -151.300792 -213.057619 -1 0 0 0 0.999391 0.0348995 0 0.0348995 -0.999391 48336.dat
1 72 -20 -151.300792 -213.057619 -1 0 0 0 0.999391 0.0348995 0 0.0348995 -0.999391 48336.dat
1 72 -60 -151.300792 -213.057619 -1 0 0 0 0.999391 0.0348995 0 0.0348995 -0.999391 48336.dat
1 71 0 -150.253807 -243.03934900000002 -1 0 0 0 0.999391 0.0348995 0 0.0348995 -0.999391 3034.dat
1 71 0 -134.580789 -462.626173 -1 0 0 0 0.999391 0.0348995 0 0.0348995 -0.999391 3034.dat
1 0 -70 -138.070739 -362.68707300000005 0 0 -1 -0.0348995 0.999391 0 0.999391 0.0348995 0 4510.dat
1 0 70 -138.070739 -362.68707300000005 0 0 1 0.0348995 0.999391 0 -0.999391 0.0348995 0 4510.dat
1 0 80 -141.56068900000002 -262.747973 0 0 1 0.0348995 0.999391 0 -0.999391 0.0348995 0 2654a.dat
1 0 -80 -141.56068900000002 -262.747973 0 0 1 0.0348995 0.999391 0 -0.999391 0.0348995 0 2654a.dat
1 0 80 -142.956669 -222.77233300000003 0 0 1 0.0348995 0.999391 0 -0.999391 0.0348995 0 2654a.dat
1 0 0 -142.956669 -222.77233300000003 0 0 1 0.0348995 0.999391 0 -0.999391 0.0348995 0 2654a.dat
1 0 -80 -142.956669 -222.77233300000003 0 0 1 0.0348995 0.999391 0 -0.999391 0.0348995 0 2654a.dat
1 71 0 -144.669887 -402.941909 -1 0 0 0 0.999391 0.0348995 0 0.0348995 -0.999391 3034.dat
1 272 -70 -143.273907 -442.917549 -1 0 0 0 0.999391 0.0348995 0 0.0348995 -0.999391 3021.dat
1 272 0 -143.273907 -442.917549 -1 0 0 0 0.999391 0.0348995 0 0.0348995 -0.999391 3020.dat
1 272 -70 -134.580789 -462.626173 1 0 0 0 0.999391 -0.0348995 0 0.0348995 0.999391 11477.dat
1 272 70 -134.580789 -462.626173 1 0 0 0 0.999391 -0.0348995 0 0.0348995 0.999391 11477.dat
1 272 90 -134.580789 -462.626173 1 0 0 0 0.999391 -0.0348995 0 0.0348995 0.999391 29120.dat
1 272 -90 -134.580789 -462.626173 1 0 0 0 0.999391 -0.0348995 0 0.0348995 0.999391 29119.dat
1 15 0 -134.580789 -462.626173 1 0 0 0 0.999391 -0.0348995 0 0.0348995 0.999391 15068p06.dat
1 272 0 -146.763857 -342.97844899999996 1 0 0 0 0.999391 -0.0348995 0 0.0348995 0.999391 3795.dat
1 0 0 -148.508832 -293.00889899999993 -1 0 0 0 0.999391 0.0348995 0 0.0348995 -0.999391 2419.dat
1 272 -20 -155.10798 -333.26373499999994 0 0 1 0.0348995 0.999391 0 -0.999391 0.0348995 0 3021.dat
1 272 20 -155.10798 -333.26373499999994 0 0 1 0.0348995 0.999391 0 -0.999391 0.0348995 0 3021.dat
1 272 0 -162.754113 -343.53684100000004 1 0 0 0 0.999391 -0.0348995 0 0.0348995 0.999391 3020.dat
1 15 0 -164.15009300000003 -303.561201 1 0 0 0 0.999391 -0.0348995 0 0.0348995 0.999391 3020.dat
1 15 40 -156.852955 -283.29418499999997 0 0 -1 -0.0348995 0.999391 0 0.999391 0.0348995 0 33909.dat
1 15 -40 -156.852955 -283.29418499999997 0 0 1 0.0348995 0.999391 0 -0.999391 0.0348995 0 33909.dat
1 19 0 -156.852955 -283.29418499999997 0 0 -1 -0.0348995 0.999391 0 0.999391 0.0348995 0 3022.dat
1 15 30 -156.852955 -283.29418499999997 -1 0 0 0 0.999391 0.0348995 0 0.0348995 -0.999391 11477.dat
1 15 -30 -156.852955 -283.29418499999997 -1 0 0 0 0.999391 0.0348995 0 0.0348995 -0.999391 11477.dat
1 15 0 -156.852955 -283.29418499999997 -1 0 0 0 0.999391 0.0348995 0 0.0348995 -0.999391 15068p06.dat
1 15 0 -170.749241 -343.81603699999994 0 0 -1 -0.0348995 0.999391 0 0.999391 0.0348995 0 87079p0b.dat
1 15 30 -170.749241 -343.81603699999994 0 0 -1 -0.0348995 0.999391 0 0.999391 0.0348995 0 2431.dat
1 15 50 -170.749241 -343.81603699999994 0 0 -1 -0.0348995 0.999391 0 0.999391 0.0348995 0 30413.dat
1 15 -50 -170.749241 -343.81603699999994 0 0 1 0.0348995 0.999391 0 -0.999391 0.0348995 0 30413.dat
1 15 -30 -170.749241 -343.81603699999994 0 0 -1 -0.0348995 0.999391 0 0.999391 0.0348995 0 2431.dat
1 15 -40 -134.580789 -462.626173 1 0 0 0 0.999391 -0.0348995 0 0.0348995 0.999391 15068.dat
1 15 40 -134.580789 -462.626173 1 0 0 0 0.999391 -0.0348995 0 0.0348995 0.999391 15068.dat
1 272 70 -143.273907 -442.917549 -1 0 0 0 0.999391 0.0348995 0 0.0348995 -0.999391 3021.dat
1 272 -110 -224.00000000000003 -40 -1 0 0 0 1 0 0 0 -1 85970.dat
1 272 -110 -216 10 -1 0 0 0 1 0 0 0 -1 3024.dat
1 272 -110 -224.00000000000003 -70 1 0 0 0 1 0 0 0 1 26047.dat
1 272 -110 -216 -40 0 0 1 0 1 0 -1 0 0 3710.dat
1 272 -110 -232.00000000000003 -50 0 0 1 0 1 0 -1 0 0 63864.dat
1 71 0 -14.000000000000002 200 0 0 -1 1 0 0 0 -1 0 32525.dat
1 71 100 -14.000000000000002 220 0 0 -1 1 0 0 0 -1 0 60483.dat
1 71 -100 -14.000000000000002 220 0 0 1 1 0 0 0 1 0 60483.dat
1 71 100 -14.000000000000002 160 0 0 -1 1 0 0 0 -1 0 60483.dat
1 71 -80 -14.000000000000002 160 0 0 -1 1 0 0 0 -1 0 60483.dat
1 15 -120 -34 180 0 1 0 -1 0 0 0 0 1 60483.dat
1 15 120 -34 180 0 1 0 -1 0 0 0 0 1 60483.dat
1 4 -80 -14.000000000000002 200 0 0 -1 0 1 0 1 0 0 32054.dat
1 1 -80 -14.000000000000002 170 0 0 -1 0 1 0 1 0 0 43093.dat
1 1 80 -14.000000000000002 170 0 0 -1 0 1 0 1 0 0 43093.dat
1 14 -100 -14.000000000000002 180 0 0 -1 0 1 0 1 0 0 32073.dat
1 14 100 -14.000000000000002 180 0 0 -1 0 1 0 1 0 0 32073.dat
1 4 80 -14.000000000000002 200 0 0 -1 0 1 0 1 0 0 32054.dat
1 71 -100 -14.000000000000002 180 0 0 1 0 -1 0 1 0 0 63869.dat
1 4 -100 -34 180 -1 0 0 0 -1 0 0 0 1 11214.dat
1 72 -107.00000000000001 -34 200 -1 0 0 0 -1 0 0 0 1 32209.dat
1 71 -85 -34 200 0 -1 0 1 0 0 0 0 1 32017.dat
1 71 -75 -34 200 0 -1 0 1 0 0 0 0 1 32017.dat
1 72 107.00000000000001 -34 200 1 0 0 0 1 0 0 0 1 32209.dat
1 71 85 -34 200 0 1 0 -1 0 0 0 0 1 32017.dat
1 71 75 -34 200 0 1 0 -1 0 0 0 0 1 32017.dat
1 19 137 -34 200 0 0 1 -1 0 0 0 -1 0 32198.dat
1 19 -137 -34 200 0 0 -1 -1 0 0 0 1 0 32198.dat
1 4 100 -34 180 1 0 0 0 -1 0 0 0 -1 11214.dat
1 0 90 -34 160 1 0 0 0 -1 0 0 0 -1 3673.dat
1 0 -90 -34 160 1 0 0 0 -1 0 0 0 -1 3673.dat
1 71 100 -14.000000000000002 180 0 0 1 0 -1 0 1 0 0 63869.dat
1 272 -120 -132 308 1 0 0 0 0 1 0 -1 0 3022.dat
1 0 -60 -34 -320 0 0 -1 0 1 0 1 0 0 32184.dat
1 72 -20 -14.000000000000002 -320 0 0 1 0 -1 0 1 0 0 57515.dat
1 0 -60 -14.000000000000002 -310 0 0 -1 0 -1 0 -1 0 0 18651.dat
1 0 60 -34 -320 0 0 1 0 1 0 -1 0 0 32184.dat
1 72 20 -14.000000000000002 -320 0 0 -1 0 -1 0 -1 0 0 57515.dat
1 0 60 -14.000000000000002 -310 0 0 -1 0 -1 0 -1 0 0 18651.dat
1 71 0 -14.000000000000002 -325 0 0 -1 -1 0 0 0 1 0 32017.dat
1 71 0 -14.000000000000002 -315 0 0 -1 -1 0 0 0 1 0 32017.dat
1 4 -40 -14.000000000000002 -330 0 0 1 0 -1 0 1 0 0 32054.dat
1 4 40 -14.000000000000002 -330 0 0 1 0 -1 0 1 0 0 32054.dat
1 1 20 -14.000000000000002 -310 0 0 -1 0 -1 0 -1 0 0 6558.dat
1 1 -20 -14.000000000000002 -310 0 0 -1 0 -1 0 -1 0 0 6558.dat
1 4 -80 -34 -320 0 0 1 -1 0 0 0 -1 0 32039.dat
1 1 -70 -34 -320 -1 0 0 0 -1 0 0 0 1 3749.dat
1 4 80 -34 -320 0 0 -1 -1 0 0 0 1 0 32039.dat
1 1 70 -34 -320 1 0 0 0 -1 0 0 0 -1 3749.dat
1 72 -120 -34 -320 -1 0 0 0 -1 0 0 0 1 15460.dat
1 72 120 -34 -320 -1 0 0 0 -1 0 0 0 1 15460.dat
1 6 140 -34 -320 -1 0 0 0 -1 0 0 0 1 24316.dat
1 6 -140 -34 -320 1 0 0 0 -1 0 0 0 -1 24316.dat
1 19 -137 -34 -320 0 0 -1 0 -1 0 -1 0 0 32198.dat
1 19 137 -34 -320 0 0 1 0 -1 0 1 0 0 32198.dat
1 1 40 -14.000000000000002 -360 0 0 1 0 -1 0 1 0 0 3749.dat
1 1 -40 -14.000000000000002 -360 0 0 1 0 -1 0 1 0 0 3749.dat
1 72 -20 -54 -320 0 0 1 0 1 0 -1 0 0 57515.dat
1 72 20 -54 -320 0 0 -1 0 1 0 1 0 0 57515.dat
1 0 -20 -34 -330 0 0 -1 0 1 0 1 0 0 6628.dat
1 0 20 -34 -330 0 0 -1 0 1 0 1 0 0 6628.dat
1 4 0 -34 -335 -1 0 0 0 0 -1 0 -1 0 41677.dat
1 14 0 -34 -320 0 0 -1 -1 0 0 0 1 0 32523.dat
1 14 0 -64 -290 -1 0 0 0 1 0 0 0 -1 3701.dat
1 71 0 -54 -270 -1 0 0 0 1 0 0 0 -1 3649.dat
1 4 0 -54 -300 0 0 -1 0 1 0 1 0 0 3705.dat
1 4 0 -34 -320 0 0 -1 0 1 0 1 0 0 32062.dat
1 71 0 -54 -325 0 0 -1 -1 0 0 0 1 0 32017.dat
1 71 0 -54 -315 0 0 -1 -1 0 0 0 1 0 32017.dat
1 1 20 -54 -310 0 0 -1 0 -1 0 -1 0 0 6558.dat
1 1 -20 -54 -310 0 0 -1 0 -1 0 -1 0 0 6558.dat
1 4 0 -34 -305 -1 0 0 0 0 -1 0 -1 0 41677.dat
1 0 -20 -34 -340 0 0 -1 -1 0 0 0 1 0 32005.dat
1 0 120 -34 -340 0 0 -1 -1 0 0 0 1 0 32005.dat
1 4 -60 -54 -320 0 0 -1 0 -1 0 -1 0 0 32062.dat
1 4 60 -54 -320 0 0 -1 0 -1 0 -1 0 0 32062.dat
1 15 -60 -64 -290 1 0 0 0 1 0 0 0 1 32000.dat
1 15 60 -64 -290 1 0 0 0 1 0 0 0 1 32000.dat
1 4 -40 -54 -330 0 0 1 0 -1 0 1 0 0 32054.dat
1 4 40 -54 -330 0 0 1 0 -1 0 1 0 0 32054.dat
1 1 -40 -54 -360 0 0 1 0 -1 0 1 0 0 3749.dat
1 1 40 -54 -360 0 0 1 0 -1 0 1 0 0 3749.dat
1 6 70 -54 -270 0 0.20791200000000004 -0.978148 0 -0.978148 -0.20791200000000004 -1 0 0 24316.dat
1 71 70 -54 -270 0.978148 0.20791200000000004 0 0.20791200000000004 -0.978148 0 0 0 -1 94925.dat
1 1 0 -34 280 -1 0 0 0 -1 0 0 0 1 92907.dat
1 71 -30 -64 200 0 0 -1 0 1 0 1 0 0 2730.dat
1 71 30 -64 200 0 0 -1 0 1 0 1 0 0 2730.dat
1 0 -10 -64 40 0 0 -1 0 1 0 1 0 0 32018.dat
1 0 10 -64 -120 0 0 -1 0 1 0 1 0 0 32018.dat
1 0 -50 -64 160 0 0 -1 0 1 0 1 0 0 32064a.dat
1 0 -50 -64 260 0 0 -1 0 1 0 1 0 0 3702.dat
1 0 50 -64 160 0 0 -1 0 1 0 1 0 0 32064a.dat
1 0 50 -64 260 0 0 -1 0 1 0 1 0 0 3702.dat
1 71 0 -64 330 -1 0 0 0 1 0 0 0 -1 3010.dat
1 15 80 -54 240 0 -1 0 0 0 -1 1 0 0 60483.dat
1 15 -80 -54 240 0 -1 0 0 0 -1 1 0 0 60483.dat
1 0 -10 -64 -180 0 0 -1 0 1 0 1 0 0 3702.dat
1 0 10 -64 100 0 0 -1 0 1 0 1 0 0 3702.dat
1 4 -30 -54 280 1 0 0 0 1 0 0 0 1 11214.dat
1 4 30 -54 280 -1 0 0 0 1 0 0 0 -1 11214.dat
1 1 0 -34 220 -1 0 0 0 -1 0 0 0 1 92907.dat
1 4 30 -54 200 -1 0 0 0 1 0 0 0 -1 11214.dat
1 72 -40 -54 160 1 0 0 0 1 0 0 0 1 87083.dat
1 72 40 -54 160 -1 0 0 0 1 0 0 0 -1 87083.dat
1 4 -30 -54 200 1 0 0 0 1 0 0 0 1 11214.dat
1 0 -20 -54 120 1 0 0 0 1 0 0 0 1 3673.dat
1 0 0 -54 -80 1 0 0 0 1 0 0 0 1 3673.dat
1 0 0 -54 -40 1 0 0 0 1 0 0 0 1 3673.dat
1 0 0 -54 -160 1 0 0 0 1 0 0 0 1 3673.dat
1 0 0 -54 -120 1 0 0 0 1 0 0 0 1 3673.dat
1 0 0 -54 -240 1 0 0 0 1 0 0 0 1 3673.dat
1 0 0 -54 -200 1 0 0 0 1 0 0 0 1 3673.dat
1 0 0 -54 0 1 0 0 0 1 0 0 0 1 3673.dat
1 0 0 -54 40 1 0 0 0 1 0 0 0 1 3673.dat
1 0 0 -54 80 1 0 0 0 1 0 0 0 1 3673.dat
1 0 -20 -54 140 1 0 0 0 1 0 0 0 1 3673.dat
1 0 20 -54 120 1 0 0 0 1 0 0 0 1 3673.dat
1 0 20 -54 140 1 0 0 0 1 0 0 0 1 3673.dat
1 71 0 -54 240 1 0 0 0 1 0 0 0 1 60485.dat
1 72 0 -34 253 0 0 1 0 1 0 -1 0 0 32209.dat
1 0 0 -34 314 1 0 0 0 0 1 0 -1 0 92947.dat
1 71 0 -34 250 1 0 0 0 1 0 0 0 1 4716.dat
1 14 -15 -54 240 0 0 1 0 1 0 -1 0 0 32123b.dat
1 14 15 -54 240 0 0 1 0 1 0 -1 0 0 32123b.dat
1 14 0 -34 205 1 0 0 0 1 0 0 0 1 32123b.dat
1 72 0 -54 240 0 0 1 0 1 0 -1 0 0 3647.dat
1 0 0 -40 260 0 0 1 0 1 0 -1 0 0 92107.dat
1 0 0 -40 160 -1 0 0 0 1 0 0 0 -1 3795.dat
1 0 0 -40 120 -1 0 0 0 1 0 0 0 -1 3832.dat
1 71 -40 -32 200 0 0 -1 0 1 0 1 0 0 3034.dat
1 71 40 -32 200 0 0 -1 0 1 0 1 0 0 3034.dat
1 72 80 -32 130 1 0 0 0 1 0 0 0 1 3023.dat
1 72 -80 -32 130 1 0 0 0 1 0 0 0 1 3023.dat
1 19 -63.00000000000001 -54 240 0 0 1 0 -1 0 1 0 0 32198.dat
1 19 63.00000000000001 -54 240 0 0 -1 0 -1 0 -1 0 0 32198.dat
1 0 -40 -24.000000000000004 230 -1 0 0 0 1 0 0 0 -1 3747a.dat
1 0 40 -24.000000000000004 230 -1 0 0 0 1 0 0 0 -1 3747a.dat
1 7 70 -54 160 0 -1 0 0 0 1 -1 0 0 33299a.dat
1 7 -70 -54 160 0 1 0 0 0 1 1 0 0 33299a.dat
1 71 110 -40 80 0 0 -1 0 1 0 1 0 0 2436b.dat
1 71 110 -40 0 0 0 -1 0 1 0 1 0 0 2436b.dat
1 71 110 -40 -120 0 0 -1 0 1 0 1 0 0 2436b.dat
1 71 110 -40 -200 0 0 -1 0 1 0 1 0 0 2436b.dat
1 4 110 -40 110 0 0 -1 0 1 0 1 0 0 6141.dat
1 4 110 -40 -90 0 0 -1 0 1 0 1 0 0 6141.dat
1 4 -110 -40 110 0 0 -1 0 1 0 1 0 0 6141.dat
1 4 -90 -48.00000000000001 130 0 0 -1 0 1 0 1 0 0 6141.dat
1 4 -90 -64 130 0 0 -1 0 1 0 1 0 0 6141.dat
1 4 -110 -40 -90 0 0 -1 0 1 0 1 0 0 6141.dat
1 0 110 -40 -60 0 0 -1 0 1 0 1 0 0 99781.dat
1 71 -110 -40 -200 0 0 1 0 1 0 -1 0 0 2436b.dat
1 71 -110 -48.00000000000001 20 0 0 1 0 1 0 -1 0 0 2431.dat
1 71 110 -48.00000000000001 20 0 0 1 0 1 0 -1 0 0 2431.dat
1 71 -110 -48.00000000000001 -100 0 0 1 0 1 0 -1 0 0 4162.dat
1 71 110 -48.00000000000001 -100 0 0 1 0 1 0 -1 0 0 4162.dat
1 71 -110 -40 -120 0 0 1 0 1 0 -1 0 0 2436b.dat
1 71 -110 -40 0 0 0 1 0 1 0 -1 0 0 2436b.dat
1 71 -110 -40 80 0 0 1 0 1 0 -1 0 0 2436b.dat
1 0 -110 -40 -60 0 0 1 0 1 0 -1 0 0 99781.dat
1 72 -110 -40 40 0 0 1 0 1 0 -1 0 0 3023.dat
1 72 110 -40 40 0 0 1 0 1 0 -1 0 0 3023.dat
1 72 -110 -40 -160 0 0 1 0 1 0 -1 0 0 3023.dat
1 72 110 -40 -160 0 0 1 0 1 0 -1 0 0 3023.dat
1 72 -90 -40 -200 0 0 1 0 1 0 -1 0 0 3023.dat
1 0 132 -30 -210 0 -1 0 0 0 1 -1 0 0 3623.dat
1 0 132 -30 90 0 -1 0 0 0 1 -1 0 0 3623.dat
1 0 132 -30 -60 0 -1 0 0 0 1 -1 0 0 60479.dat
1 0 -132 -30 -210 0 1 0 0 0 -1 -1 0 0 3623.dat
1 0 -132 -30 90 0 1 0 0 0 -1 -1 0 0 3623.dat
1 0 -132 -30 -60 0 1 0 0 0 -1 -1 0 0 60479.dat
1 72 90 -40 -200 0 0 1 0 1 0 -1 0 0 3023.dat
1 71 132 -30 100 0 -1 0 0 0 -1 1 0 0 85984.dat
1 0 104 -68 130 0 -1 0 -1 0 0 0 0 -1 85984.dat
1 0 -104 -68 130 0 1 0 1 0 0 0 0 -1 85984.dat
1 71 132 -30 60 0 -1 0 0 0 -1 1 0 0 85984.dat
1 71 132 -30 20 0 -1 0 0 0 -1 1 0 0 85984.dat
1 71 132 -30 -20 0 -1 0 0 0 -1 1 0 0 85984.dat
1 71 132 -30 -60 0 -1 0 0 0 -1 1 0 0 85984.dat
1 71 132 -30 -100 0 -1 0 0 0 -1 1 0 0 85984.dat
1 71 132 -30 -140 0 -1 0 0 0 -1 1 0 0 85984.dat
1 71 132 -30 -180 0 -1 0 0 0 -1 1 0 0 85984.dat
1 71 132 -30 -220 0 -1 0 0 0 -1 1 0 0 85984.dat
1 71 -132 -30 -220 0 1 0 0 0 -1 -1 0 0 85984.dat
1 71 -132 -30 -180 0 1 0 0 0 -1 -1 0 0 85984.dat
1 71 -132 -30 -140 0 1 0 0 0 -1 -1 0 0 85984.dat
1 71 -132 -30 -100 0 1 0 0 0 -1 -1 0 0 85984.dat
1 71 -132 -30 -60 0 1 0 0 0 -1 -1 0 0 85984.dat
1 71 -132 -30 -20 0 1 0 0 0 -1 -1 0 0 85984.dat
1 71 -132 -30 20 0 1 0 0 0 -1 -1 0 0 85984.dat
1 71 -132 -30 60 0 1 0 0 0 -1 -1 0 0 85984.dat
1 71 -132 -30 100 0 1 0 0 0 -1 -1 0 0 85984.dat
1 0 92.00000000000001 -54 240 -1 0 0 0 -1 0 0 0 1 15461.dat
1 0 -92.00000000000001 -54 240 1 0 0 0 -1 0 0 0 -1 15461.dat
1 0 -90 -56.00000000000001 130 0 0 1 0 1 0 -1 0 0 36840.dat
1 4 90 -48.00000000000001 130 0 0 1 0 1 0 -1 0 0 6141.dat
1 4 90 -64 130 0 0 1 0 1 0 -1 0 0 6141.dat
1 0 90 -56.00000000000001 130 0 0 -1 0 1 0 1 0 0 36840.dat
1 19 40 -72 230 1 0 0 0 1 0 0 0 1 3023.dat
1 19 -40 -72 230 1 0 0 0 1 0 0 0 1 3023.dat
1 71 0 -72 180 1 0 0 0 1 0 0 0 1 3022.dat
1 19 -40 -72 280 0 0 1 0 1 0 -1 0 0 87079.dat
1 19 -80 -64 160 -1 0 0 0 1 0 0 0 -1 15068.dat
1 19 -40 -64 160 -1 0 0 0 1 0 0 0 -1 15068.dat
1 19 40 -64 160 -1 0 0 0 1 0 0 0 -1 15068.dat
1 19 80 -64 160 -1 0 0 0 1 0 0 0 -1 15068.dat
1 19 40 -72 280 0 0 1 0 1 0 -1 0 0 87079.dat
1 19 60 -80 120 1 0 0 0 1 0 0 0 1 87079.dat
1 19 0 -88 60 0 0 -1 0 1 0 1 0 0 3068b.dat
1 19 0 -88 120 0 0 -1 0 1 0 1 0 0 87079.dat
1 19 -60 -80 120 1 0 0 0 1 0 0 0 1 87079.dat
1 19 0 -80 120 0 0 -1 0 1 0 1 0 0 3034.dat
1 19 0 -80 280 0 0 -1 0 1 0 1 0 0 3958.dat
1 15 -16 -108 240 0 -1 0 0 0 1 -1 0 0 6143.dat
1 15 -40 -108 240 0 -1 0 0 0 1 -1 0 0 4032b.dat
1 15 16 -108 240 0 -1 0 0 0 1 -1 0 0 10265 - 6143d02.dat
1 15 -8 -108 240 0 -1 0 0 0 1 -1 0 0 4032b.dat
1 71 -4 -88 240 0 0 -1 0 1 0 1 0 0 3956.dat
1 71 62 -128 248 -1 0 0 0 0 -1 0 -1 0 3070bp07.dat
1 71 62 -128 240 -1 0 0 0 0 -1 0 -1 0 61252.dat
1 15 48.00000000000001 -108 240 0 -1 0 0 0 -1 1 0 0 30367a.dat
1 4 72 -108 240 0 -1 0 0 0 1 -1 0 0 4599a.dat
1 72 -40 -88 330 -1 0 0 0 1 0 0 0 -1 93274.dat
1 72 40 -88 330 -1 0 0 0 1 0 0 0 -1 93274.dat
1 272 50 -88 300 0 0 -1 0 1 0 1 0 0 44728.dat
1 272 -50 -88 300 0 0 1 0 1 0 -1 0 0 44728.dat
1 71 0 -88 320 0 0 -1 0 1 0 1 0 0 3022.dat
1 0 -60 -104 330 -1 0 0 0 1 0 0 0 -1 87609.dat
1 0 60 -104 330 -1 0 0 0 1 0 0 0 -1 87609.dat
1 71 120 -68 300 0 -1 0 -1 0 0 0 0 -1 3022.dat
1 71 -120 -68 300 0 1 0 1 0 0 0 0 -1 3022.dat
1 71 0 -68 352 1 0 0 0 0 1 0 -1 0 2445.dat
1 0 50 -48.00000000000001 -20 0 0 1 0 1 0 -1 0 0 92280.dat
1 72 0 -80 -210 -1 0 0 0 1 0 0 0 -1 3023.dat
1 1 0 -120 -250 -1 0 0 0 1 0 0 0 -1 28964.dat
1 0 70 -48.00000000000001 -20 0 0 1 0 1 0 -1 0 0 92280.dat
1 0 -50 -48.00000000000001 -20 0 0 1 0 1 0 -1 0 0 92280.dat
1 0 0 -88 -140 0 0 1 0 1 0 -1 0 0 3003.dat
1 0 88 -68 310 0 -1 0 0 0 1 -1 0 0 3002.dat
1 0 112.00000000000001 -68 320 0 -1 0 -1 0 0 0 0 -1 3003.dat
1 272 120 -68 330 0 -1 0 -1 0 0 0 0 -1 44728.dat
1 272 -120 -68 330 0 1 0 1 0 0 0 0 -1 44728.dat
1 272 -144 -78 310 0 1 0 0 0 1 1 0 0 3622.dat
1 71 152 -88 340 0 -1 0 0 0 1 -1 0 0 3022.dat
1 272 152 -78 310 0 -1 0 -1 0 0 0 0 -1 2420.dat
1 71 -152 -88 340 0 1 0 0 0 -1 -1 0 0 3022.dat
1 272 -152 -78 310 0 1 0 0 0 -1 -1 0 0 2420.dat
1 272 -144 -68 290 0 1 0 0 0 -1 -1 0 0 11477.dat
1 272 144 -68 350 0 -1 0 0 0 -1 1 0 0 29120.dat
1 272 -144 -68 350 0 1 0 0 0 -1 -1 0 0 29119.dat
1 272 -144 -68 320 0 1 0 0 0 -1 -1 0 0 15068.dat
1 272 144 -68 290 0 -1 0 0 0 -1 1 0 0 11477.dat
1 272 144 -68 320 0 -1 0 0 0 -1 1 0 0 15068.dat
1 272 144 -78 310 0 -1 0 0 0 -1 1 0 0 3622.dat
1 272 144 -48.00000000000001 320 0 -1 0 -1 0 0 0 0 -1 43720.dat
1 272 -144 -48.00000000000001 320 0 1 0 1 0 0 0 0 -1 43721.dat
1 0 -88 -68 310 0 1 0 0 0 -1 -1 0 0 3002.dat
1 0 -112.00000000000001 -68 320 0 1 0 1 0 0 0 0 -1 3003.dat
1 15 30 -64 -240 0 0 1 0 1 0 -1 0 0 32000.dat
1 15 -30 -64 -240 0 0 1 0 1 0 -1 0 0 32000.dat
1 4 -30 -72 -240 1 0 0 0 1 0 0 0 1 92946.dat
1 4 30 -72 -240 1 0 0 0 1 0 0 0 1 92946.dat
1 0 50 -72 200 0 0 1 0 1 0 -1 0 0 92280.dat
1 0 -50 -72 200 0 0 1 0 1 0 -1 0 0 92280.dat
1 0 -70 -48.00000000000001 -20 0 0 1 0 1 0 -1 0 0 92280.dat
1 0 -40 -72 -360 0 0 1 0 1 0 -1 0 0 3035.dat
1 0 40 -72 -360 0 0 1 0 1 0 -1 0 0 3035.dat
1 0 0 -96.00000000000001 -230 -1 0 0 0 1 0 0 0 -1 6112.dat
1 19 0 -162 236 -1 0 0 0 0 -1 0 -1 0 6112.dat
1 40 0 -192.00000000000003 236 1 0 0 0 0 1 0 -1 0 6267.dat
1 19 0 -104 -230 -1 0 0 0 1 0 0 0 -1 3023.dat
1 0 -10 -112.00000000000001 -220 0 0 1 0 1 0 -1 0 0 4623.dat
1 0 10 -112.00000000000001 -220 0 0 -1 0 1 0 1 0 0 4623.dat
1 272 120 -104 -230 -1 0 0 0 1 0 0 0 -1 3710.dat
1 272 -120 -104 -230 -1 0 0 0 1 0 0 0 -1 3710.dat
1 272 -100 -112.00000000000001 -220 -1 0 0 0 1 0 0 0 -1 3020.dat
1 272 100 -112.00000000000001 -220 -1 0 0 0 1 0 0 0 -1 3020.dat
1 272 150 -128 -200 0 0 1 0 1 0 -1 0 0 3010.dat
1 272 150 -128 -150 0 0 1 0 1 0 -1 0 0 3024.dat
1 272 -150 -128 -200 0 0 1 0 1 0 -1 0 0 3010.dat
1 272 -150 -128 -150 0 0 1 0 1 0 -1 0 0 3024.dat
1 71 130 -128 -230 0 0 -1 0 1 0 1 0 0 2420.dat
1 71 -130 -128 -230 1 0 0 0 1 0 0 0 1 2420.dat
1 272 70 -104 -280 0 0 1 0 1 0 -1 0 0 3460.dat
1 72 130 -120 -220 0 0 -1 0 1 0 1 0 0 3023.dat
1 71 100 -120 -230 0 0 1 0 1 0 -1 0 0 92946.dat
1 71 -100 -120 -230 0 0 -1 0 1 0 1 0 0 92946.dat
1 72 -130 -120 -220 0 0 -1 0 1 0 1 0 0 3023.dat
1 0 70 -112.00000000000001 -300 0 0 -1 0 1 0 1 0 0 88072.dat
1 0 -70 -112.00000000000001 -300 0 0 1 0 1 0 -1 0 0 88072.dat
1 272 -70 -104 -280 0 0 1 0 1 0 -1 0 0 3460.dat
1 72 120 -72 90 1 0 0 0 1 0 0 0 1 3023.dat
1 72 -120 -72 90 1 0 0 0 1 0 0 0 1 3023.dat
1 1 0 -128 -300 1 0 0 0 1 0 0 0 1 60474.dat
1 1 -10 -136 -310 0 0 1 0 1 0 -1 0 0 27925.dat
1 1 -10 -136 -290 -1 0 0 0 1 0 0 0 -1 27925.dat
1 1 10 -136 -290 0 0 -1 0 1 0 1 0 0 27925.dat
1 1 10 -136 -310 1 0 0 0 1 0 0 0 1 27925dt1.dat
1 19 100 -72 110 1 0 0 0 1 0 0 0 1 3710.dat
1 272 130 -80 100 0 0 -1 0 1 0 1 0 0 44728.dat
1 272 -130 -80 100 0 0 1 0 1 0 -1 0 0 44728.dat
1 0 -110 -96.00000000000001 100 0 0 -1 0 1 0 1 0 0 2877.dat
1 0 110 -96.00000000000001 100 0 0 1 0 1 0 -1 0 0 2877.dat
1 0 130 -88 90 0 0 1 0 1 0 -1 0 0 6141.dat
1 0 130 -96.00000000000001 90 0 0 1 0 1 0 -1 0 0 6141.dat
1 0 -130 -88 90 0 0 1 0 1 0 -1 0 0 6141.dat
1 0 -130 -96.00000000000001 90 0 0 1 0 1 0 -1 0 0 6141.dat
1 19 -100 -72 110 1 0 0 0 1 0 0 0 1 3710.dat
1 1 0 -72 330 1 0 0 0 1 0 0 0 1 3666.dat
1 19 0 -72 110 1 0 0 0 1 0 0 0 1 3666.dat
1 0 0 -72 140 1 0 0 0 1 0 0 0 1 3832.dat
1 19 60 -64 130 -1 0 0 0 1 0 0 0 -1 3004.dat
1 19 -60 -64 130 -1 0 0 0 1 0 0 0 -1 3004.dat
1 71 80 -64 110 -1 0 0 0 1 0 0 0 -1 3010.dat
1 71 -80 -64 110 -1 0 0 0 1 0 0 0 -1 3010.dat
1 0 130 -64 90 0 0 -1 0 1 0 1 0 0 2357.dat
1 0 -130 -64 90 1 0 0 0 1 0 0 0 1 2357.dat
1 71 10 -72 -70 0 0 -1 0 1 0 1 0 0 15712.dat
1 71 0 -72 50 1 0 0 0 1 0 0 0 1 3069b.dat
1 71 0 -72 -10 1 0 0 0 1 0 0 0 1 3069b.dat
1 19 0 -96.00000000000001 -150 1 0 0 0 1 0 0 0 1 3069b.dat
1 71 0 -72 80 1 0 0 0 1 0 0 0 1 3022.dat
1 71 0 -72 -40 0 0 1 0 1 0 -1 0 0 10265 - 92582.dat
1 71 0 -80 -180 0 0 -1 0 1 0 1 0 0 10265 - 92582.dat
1 71 0 -72 -180 0 0 -1 0 1 0 1 0 0 3022.dat
1 71 -10 -72 -70 0 0 -1 0 1 0 1 0 0 15712.dat
1 71 0 -72 20 -1 0 0 0 1 0 0 0 -1 41682.dat
1 71 0 -72 -100 -1 0 0 0 1 0 0 0 -1 41682.dat
1 19 0 -82.00000000000001 -16 1 0 0 0 0 1 0 -1 0 4035.dat
1 19 0 -82.00000000000001 -112.00000000000001 1 0 0 0 0 1 0 -1 0 3023.dat
1 19 0 -82.00000000000001 -104 1 0 0 0 0 1 0 -1 0 3023.dat
1 19 0 -82.00000000000001 -88 1 0 0 0 0 1 0 -1 0 3023.dat
1 19 0 -82.00000000000001 -8 1 0 0 0 0 1 0 -1 0 3023.dat
1 19 0 -82.00000000000001 32 1 0 0 0 0 1 0 -1 0 3023.dat
1 19 0 -82.00000000000001 16 1 0 0 0 0 1 0 -1 0 3004.dat
1 19 0 -82.00000000000001 40 1 0 0 0 0 1 0 -1 0 3069b.dat
1 0 0 -116.00000000000001 -50 0 0 1 0 1 0 -1 0 0 4697b.dat
1 0 0 -88 -50 -1 0 0 0 0 -1 0 -1 0 30553.dat
1 72 0 -104 -290 -1 0 0 0 1 0 0 0 -1 3023.dat
1 1 -39 -101.58845 -300 0 0.5 0.8660250000000002 0 0.8660250000000002 -0.5 -1 0 0 3666.dat
1 1 -43 -108.51665 -340 0 0.5 0.8660250000000002 0 0.8660250000000002 -0.5 -1 0 0 3069b.dat
1 1 -43 -108.51665 -280 0 0.5 0.8660250000000002 0 0.8660250000000002 -0.5 -1 0 0 2431dt0.dat
1 71 -30 -86 -340 0 0.5 0.8660250000000002 0 0.8660250000000002 -0.5 -1 0 0 3938.dat
1 71 -30 -86 -300 0 0.5 0.8660250000000002 0 0.8660250000000002 -0.5 -1 0 0 3938.dat
1 1 39 -101.58845 -300 0 -0.5 0.8660250000000002 0 0.8660250000000002 0.5 -1 0 0 3666.dat
1 1 43 -108.51665 -340 0 -0.5 0.8660250000000002 0 0.8660250000000002 0.5 -1 0 0 3794b.dat
1 1 43 -108.51665 -280 0 -0.5 -0.8660250000000002 0 0.8660250000000002 -0.5 1 0 0 2431dt0.dat
1 71 47 -115.44485000000002 -340 0 -0.5 -0.8660250000000002 0 0.8660250000000002 -0.5 1 0 0 98138p09.dat
1 71 30 -86 -340 0 -0.5 0.8660250000000002 0 0.8660250000000002 0.5 -1 0 0 3938.dat
1 71 30 -86 -300 0 -0.5 0.8660250000000002 0 0.8660250000000002 0.5 -1 0 0 3938.dat
1 0 0 -110 -344 1 0 0 0 1 0 0 0 1 10265 - 30191-f4.dat
1 1 -30 -96.00000000000001 -340 0 0 1 0 1 0 -1 0 0 3937.dat
1 1 -30 -96.00000000000001 -300 0 0 1 0 1 0 -1 0 0 3937.dat
1 1 30 -96.00000000000001 -300 0 0 -1 0 1 0 1 0 0 3937.dat
1 1 30 -96.00000000000001 -340 0 0 -1 0 1 0 1 0 0 3937.dat
1 0 -70 -96.00000000000001 -300 0 0 -1 0 1 0 1 0 0 30236.dat
1 0 70 -96.00000000000001 -300 0 0 1 0 1 0 -1 0 0 30236.dat
1 0 70 -96.00000000000001 -340 0 0 1 0 1 0 -1 0 0 3039.dat
1 0 -70 -96.00000000000001 -340 0 0 -1 0 1 0 1 0 0 3039.dat
1 1 0 -96.00000000000001 -320 0 0 1 0 1 0 -1 0 0 3001.dat
1 0 -10 -104 -320 0 0 1 0 1 0 -1 0 0 92280.dat
1 0 10 -104 -320 0 0 1 0 1 0 -1 0 0 92280.dat
1 72 0 -120 -310 -1 0 0 0 1 0 0 0 -1 3023.dat
1 1 10 -112.00000000000001 -300 0 0 -1 0 1 0 1 0 0 32028.dat
1 1 -10 -112.00000000000001 -300 0 0 1 0 1 0 -1 0 0 32028.dat
1 72 0 -96.00000000000001 -370 1 0 0 0 1 0 0 0 1 3700.dat
1 15 -25 -86 -394.00000000000006 1 0 0 0 1 0 0 0 1 10265 - 85543-f4.dat
1 15 0 -86 -390 1 0 0 0 1 0 0 0 1 10265 - 85543-f5.dat
1 72 50 -112.00000000000001 -370 1 0 0 0 1 0 0 0 1 3700.dat
1 71 50 -102.00000000000001 -380 0 0 -1 0 1 0 1 0 0 3673.dat
1 0 0 -104 -370 1 0 0 0 1 0 0 0 1 15573.dat
1 0 50 -120 -370 1 0 0 0 1 0 0 0 1 15573.dat
1 0 -40 -80 -370 -1 0 0 0 1 0 0 0 -1 11458.dat
1 0 50 -80 -370 -1 0 0 0 1 0 0 0 -1 34103.dat
1 72 50 -88 -370 -1 0 0 0 1 0 0 0 -1 3023.dat
1 71 50 -102.00000000000001 -390 1 0 0 0 1 0 0 0 1 42610.dat
1 14 0 -86 -380 0 0 1 0 1 0 -1 0 0 3749.dat
1 14 -50 -86 -380 0 0 1 0 1 0 -1 0 0 3749.dat
1 71 0 -86 -390 1 0 0 0 1 0 0 0 1 3713.dat
1 71 -50 -86 -390 1 0 0 0 1 0 0 0 1 3713.dat
1 71 0 -112.00000000000001 -370 -0.707107 0 0.707107 0 1 0 -0.707107 0 -0.707107 32828.dat
1 0 0 -120 -370 0 0 1 0 1 0 -1 0 0 18674.dat
1 0 0 -128 -370 0 0 1 0 1 0 -1 0 0 4740.dat
1 71 -134.93402 -72 -447.60686 0.970296 0 0.241922 0 1 0 -0.241922 0 0.970296 51739.dat
1 71 -154.33994 -80 -442.76842 0.970296 0 0.241922 0 1 0 -0.241922 0 0.970296 24307.dat
1 71 -96.12218 -72 -457.28374 -0.970296 0 -0.241922 0 1 0 0.241922 0 -0.970296 24299.dat
1 71 -105.82514000000002 -80 -454.8645200000001 -0.970296 0 -0.241922 0 1 0 0.241922 0 -0.970296 26603.dat
1 71 134.93402 -72 -447.60686 0.970296 0 -0.241922 0 1 0 0.241922 0 0.970296 51739.dat
1 71 96.12218 -72 -457.28374 -0.970296 0 0.241922 0 1 0 -0.241922 0 -0.970296 24307.dat
1 71 154.33994 -80 -442.76842 0.970296 0 -0.241922 0 1 0 0.241922 0 0.970296 24299.dat
1 71 105.82514000000002 -80 -454.8645200000001 0.970296 0 -0.241922 0 1 0 0.241922 0 0.970296 26603.dat
1 272 140 -64 -410 -1 0 0 0 1 0 0 0 -1 99207.dat
1 272 -120 -72 -420 0 0 1 0 1 0 -1 0 0 41770.dat
1 272 -120 -80 -420 0 0 1 0 1 0 -1 0 0 41770.dat
1 272 120 -72 -420 0 0 -1 0 1 0 1 0 0 41769.dat
1 272 120 -80 -420 0 0 -1 0 1 0 1 0 0 41769.dat
1 272 -140 -64 -410 -1 0 0 0 1 0 0 0 -1 99207.dat
1 71 130 -96.00000000000001 320 0 0 -1 0 1 0 1 0 0 99207.dat
1 71 -130 -96.00000000000001 320 0 0 1 0 1 0 -1 0 0 99207.dat
1 19 120 -104 330 -1 0 0 0 1 0 0 0 -1 3023.dat
1 19 -120 -122.00000000000001 316 1 0 0 0 0 1 0 -1 0 3023.dat
1 19 -120 -122.00000000000001 332 1 0 0 0 0 1 0 -1 0 3023.dat
1 71 120 -112.00000000000001 320 -1 0 0 0 1 0 0 0 -1 41682.dat
1 272 120 -132 308 1 0 0 0 0 1 0 -1 0 3022.dat
1 19 120 -122.00000000000001 316 1 0 0 0 0 1 0 -1 0 3023.dat
1 19 120 -122.00000000000001 332 1 0 0 0 0 1 0 -1 0 3023.dat
1 19 -120 -104 330 -1 0 0 0 1 0 0 0 -1 3023.dat
1 15 10 -104 -200 0 0 1 0 1 0 -1 0 0 32000.dat
1 15 -10 -104 -200 0 0 1 0 1 0 -1 0 0 32000.dat
1 19 0 -96.00000000000001 -130 -1 0 0 0 1 0 0 0 -1 3023.dat
1 2 70 -54 -220 0 1 0 -1 0 0 0 0 1 3326b.dat
1 71 70 -54 -250 0 -1 0 -1 0 0 0 0 -1 3712.dat
1 14 0 -94 -210 1 0 0 0 1 0 0 0 1 4519.dat
1 19 0 -106.00000000000001 -112.00000000000001 -1 0 0 0 0 -1 0 -1 0 3069bd05.dat
1 19 0 -106.00000000000001 -144 -1 0 0 0 0 -1 0 -1 0 3023.dat
1 19 0 -106.00000000000001 -152 -1 0 0 0 0 -1 0 -1 0 3023.dat
1 72 0 -106.00000000000001 -160 1 0 0 0 0 1 0 -1 0 48336.dat
1 71 0 -106.00000000000001 -168 -1 0 0 0 0 -1 0 -1 0 60471.dat
1 71 -10 -106.00000000000001 -120 1 0 0 0 0 1 0 -1 0 4070.dat
1 71 10 -106.00000000000001 -120 1 0 0 0 0 1 0 -1 0 4070.dat
1 71 0 -112.00000000000001 -130 1 0 0 0 1 0 0 0 1 85984.dat
1 19 -96.00000000000001 -88 290 0 1 0 -1 0 0 0 0 1 3710.dat
1 19 -112.00000000000001 -88 290 0 1 0 -1 0 0 0 0 1 3710.dat
1 71 -120 -108 290 0 1 0 -1 0 0 0 0 1 2412b.dat
1 71 120 -108 290 0 -1 0 1 0 0 0 0 1 2412b.dat
1 19 96.00000000000001 -88 290 0 -1 0 -1 0 0 0 0 -1 3710.dat
1 19 112.00000000000001 -88 290 0 -1 0 -1 0 0 0 0 -1 3710.dat
1 4 104 -118 290 0 -1 0 1 0 0 0 0 1 61252.dat
1 4 -104 -118 290 0 1 0 -1 0 0 0 0 1 61252.dat
1 0 -104 -88 290 0 1 0 -1 0 0 0 0 1 60470b.dat
1 0 104 -88 290 0 -1 0 1 0 0 0 0 1 60470b.dat
1 0 104 -48.00000000000001 290 0 -1 0 1 0 0 0 0 1 18677.dat
1 0 -104 -48.00000000000001 290 0 1 0 1 0 0 0 0 -1 18677.dat
1 0 -84 -38 310 0 0 1 1 0 0 0 1 0 43857.dat
1 1 94 -38 310 0 0 1 0 -1 0 1 0 0 6558.dat
1 1 -94 -38 310 0 0 1 0 -1 0 1 0 0 6558.dat
1 0 74 -38 320 0 0 1 0 -1 0 1 0 0 3673.dat
1 80 74 -38 340 0 0 -1 0 1 0 1 0 0 29219.dat
1 80 94 -38 340 0 0 -1 0 1 0 1 0 0 29219.dat
1 80 -94 -38 340 0 0 -1 0 1 0 1 0 0 29219.dat
1 80 -74 -38 340 0 0 -1 0 1 0 1 0 0 29219.dat
1 0 -74 -38 320 0 0 1 0 -1 0 1 0 0 3673.dat
1 0 84 -38 310 0 0 1 1 0 0 0 1 0 43857.dat
1 0 50 -81.23940000000002 -176.53958 0 1 0 0.8910070000000001 0 0.45399 0.45399 0 -0.8910070000000001 32524.dat
1 0 -50 -81.23940000000002 -176.53958 0 1 0 0.8910070000000001 0 0.45399 0.45399 0 -0.8910070000000001 32524.dat
1 0 30 -72.49906 -149.63963999999999 0 1 0 0.45399 0 -0.8910070000000001 -0.8910070000000001 0 -0.45399 32523.dat
1 19 30 -90.14947000000001 -181.07948 0 0 1 0.45399 0.8910070000000001 0 -0.8910070000000001 0.45399 0 6541.dat
1 71 40 -110.897226 -157.98119 0 0 1 0.45399 0.8910070000000001 0 -0.8910070000000001 0.45399 0 3020.dat
1 71 -40 -110.897226 -157.98119 0 0 1 0.45399 0.8910070000000001 0 -0.8910070000000001 0.45399 0 3020.dat
1 0 30 -112.84897000000001 -136.52913 0 0 1 0.45399 0.8910070000000001 0 -0.8910070000000001 0.45399 0 18677.dat
1 0 -30 -72.49906 -149.63963999999999 0 1 0 0.45399 0 -0.8910070000000001 -0.8910070000000001 0 -0.45399 32523.dat
1 19 -30 -90.14947000000001 -181.07948 0 0 1 0.45399 0.8910070000000001 0 -0.8910070000000001 0.45399 0 6541.dat
1 0 -30 -112.84897000000001 -136.52913 0 0 1 0.45399 0.8910070000000001 0 -0.8910070000000001 0.45399 0 18677.dat
1 0 70 -108.47880000000002 -123.07916 -1 0 0 0 -0.4895340124734 0.871983999571 0 0.871983999571 0.4895340124734 15100.dat
1 0 40 -99.39900000000002 -140.89929999999998 -1 0 0 0 -0.8910070000000001 -0.45399 0 -0.45399 0.8910070000000001 3673.dat
1 0 40 -90.3192 -158.71944000000002 -1 0 0 0 -0.8910070000000001 -0.45399 0 -0.45399 0.8910070000000001 3673.dat
1 0 20 -54.678920000000005 -140.55984 -1 0 0 0 -0.8910070000000001 -0.45399 0 -0.45399 0.8910070000000001 3673.dat
1 0 -20 -54.678920000000005 -140.55984 -1 0 0 0 -0.8910070000000001 -0.45399 0 -0.45399 0.8910070000000001 3673.dat
1 0 40 -81.23940000000002 -176.53958 -1 0 0 0 -0.8910070000000001 -0.45399 0 -0.45399 0.8910070000000001 3673.dat
1 0 40 -54 -230 -1 0 0 0 -0.8910070000000001 -0.45399 0 -0.45399 0.8910070000000001 3673.dat
1 0 -40 -99.39900000000002 -140.89929999999998 -1 0 0 0 -0.8910070000000001 -0.45399 0 -0.45399 0.8910070000000001 3673.dat
1 0 -40 -90.3192 -158.71944000000002 -1 0 0 0 -0.8910070000000001 -0.45399 0 -0.45399 0.8910070000000001 3673.dat
1 0 -40 -81.23940000000002 -176.53958 -1 0 0 0 -0.8910070000000001 -0.45399 0 -0.45399 0.8910070000000001 3673.dat
1 0 -40 -54 -230 -1 0 0 0 -0.8910070000000001 -0.45399 0 -0.45399 0.8910070000000001 3673.dat
1 71 70 -107.988278713 -123.95155341 0 0 1 -0.4895340124734 -0.871983999571 0 0.871983999571 -0.4895340124734 0 60485.dat
1 71 70 -163.79643980499998 -24.545266094000002 0 0 1 -0.871983999571 0.4895340124734 0 -0.4895340124734 -0.871983999571 0 2819.dat
1 71 70 -68.825090488 -193.710080205 1 0 0 0 0.871983999571 -0.4895340124734 0 0.4895340124734 0.871983999571 3712.dat
1 19 0 -131.644982 -134.8829 1 0 0 0 0.8910070000000001 -0.45399 0 0.45399 0.8910070000000001 60479.dat
1 71 -90 -124.51692600000001 -131.25098000000003 1 0 0 0 0.8910070000000001 -0.45399 0 0.45399 0.8910070000000001 3623.dat
1 0 -90 -117.38887 -127.61906000000002 1 0 0 0 0.8910070000000001 -0.45399 0 0.45399 0.8910070000000001 3623.dat
1 484 90 -138.77303799999999 -138.51482 -1 0 0 0 0.8910070000000001 0.45399 0 0.45399 -0.8910070000000001 36841.dat
1 19 70 -138.77303799999999 -138.51482 -1 0 0 0 0.8910070000000001 0.45399 0 0.45399 -0.8910070000000001 3024.dat
1 19 30 -138.77303799999999 -138.51482 -1 0 0 0 0.8910070000000001 0.45399 0 0.45399 -0.8910070000000001 3024.dat
1 19 0 -138.77303799999999 -138.51482 -1 0 0 0 0.8910070000000001 0.45399 0 0.45399 -0.8910070000000001 3069b.dat
1 0 90 -154.980894 -124.32660000000001 0 0 1 0.45399 0.8910070000000001 0 -0.8910070000000001 0.45399 0 14719.dat
1 0 -90 -154.980894 -124.32660000000001 -1 0 0 0 0.8910070000000001 0.45399 0 0.45399 -0.8910070000000001 14719.dat
1 0 -50 -150.440994 -133.23667 -1 0 0 0 0.8910070000000001 0.45399 0 0.45399 -0.8910070000000001 26603.dat
1 0 50 -150.440994 -133.23667 -1 0 0 0 0.8910070000000001 0.45399 0 0.45399 -0.8910070000000001 26603.dat
1 19 -110 -131.644982 -134.8829 1 0 0 0 0.8910070000000001 -0.45399 0 0.45399 0.8910070000000001 54200.dat
1 19 110 -131.644982 -134.8829 1 0 0 0 0.8910070000000001 -0.45399 0 0.45399 0.8910070000000001 54200.dat
1 19 -60 -138.77303799999999 -138.51482 -1 0 0 0 0.8910070000000001 0.45399 0 0.45399 -0.8910070000000001 3710.dat
1 484 50 -138.77303799999999 -138.51482 -1 0 0 0 0.8910070000000001 0.45399 0 0.45399 -0.8910070000000001 36841.dat
1 71 90 -124.51692600000001 -131.25098000000003 1 0 0 0 0.8910070000000001 -0.45399 0 0.45399 0.8910070000000001 3623.dat
1 0 100 -117.38887 -127.61906000000002 1 0 0 0 0.8910070000000001 -0.45399 0 0.45399 0.8910070000000001 32028.dat
1 80 50 -139.850748 -114.37276600000001 -1 0 0 0 0.45399 -0.8910070000000001 0 -0.8910070000000001 -0.45399 98138pc1.dat
1 80 90 -139.850748 -114.37276600000001 -1 0 0 0 0.45399 -0.8910070000000001 0 -0.8910070000000001 -0.45399 98138pc1.dat
1 272 -152 -70 100 0 1 0 0 0 -1 -1 0 0 3023.dat
1 272 152 -70 100 0 -1 0 0 0 -1 1 0 0 3023.dat
1 28 70 -156.53052000000002 71.42724 0 -1 0 0.981627 0 0.190809 -0.190809 0 0.981627 3024.dat
1 28 70 -73.63254 -26.183820000000004 0 -1 0 0.981627 0 0.190809 -0.190809 0 0.981627 3024.dat
1 19 38 -73.63254 -26.183820000000004 0 -1 0 0.190809 0 -0.981627 0.981627 0 0.190809 60897.dat
1 19 30 -87.81663 58.07060999999999 0 -1 0 0.981627 0 0.190809 -0.190809 0 0.981627 3710.dat
1 19 38 -107.44917000000001 61.88679 0 -1 0 0.981627 0 0.190809 -0.190809 0 0.981627 3710.dat
1 19 30 -67.90827 3.264990000000005 0 -1 0 -0.190809 0 0.981627 -0.981627 0 -0.190809 3710.dat
1 19 38 -64.09209000000001 22.897530000000007 0 -1 0 -0.190809 0 0.981627 -0.981627 0 -0.190809 3710.dat
1 19 102.00000000000001 -73.63254 -26.183820000000004 0 -1 0 0.190809 0 -0.981627 0.981627 0 0.190809 60897.dat
1 19 102.00000000000001 -107.44917000000001 61.88679 0 -1 0 0.981627 0 0.190809 -0.190809 0 0.981627 3710.dat
1 19 102.00000000000001 -64.09209000000001 22.897530000000007 0 -1 0 -0.190809 0 0.981627 -0.981627 0 -0.190809 3710.dat
1 28 70 -107.44917000000001 61.88679 0 -1 0 0.981627 0 0.190809 -0.190809 0 0.981627 3710.dat
1 28 70 -64.09209000000001 22.897530000000007 0 -1 0 -0.190809 0 0.981627 -0.981627 0 -0.190809 3710.dat
1 19 110 -87.81663 58.07060999999999 0 -1 0 0.981627 0 0.190809 -0.190809 0 0.981627 2431.dat
1 19 110 -67.90827 3.264990000000005 0 -1 0 -0.190809 0 0.981627 -0.981627 0 -0.190809 2431.dat
1 19 94 -146.71425 69.51915 0 -1 0 -0.190809 0 0.981627 -0.981627 0 -0.190809 11477.dat
1 19 38 -156.53052000000002 71.42724 0 -1 0 -0.190809 0 0.981627 -0.981627 0 -0.190809 24201.dat
1 28 62 -71.72444999999999 -16.36755 0 -1 0 0.190809 0 -0.981627 0.981627 0 0.190809 30136.dat
1 28 62 -64.09209000000001 22.897530000000007 0 -1 0 0.190809 0 -0.981627 0.981627 0 0.190809 30136.dat
1 28 62 -68.18409 54.254430000000006 0 -1 0 -0.981627 0 -0.190809 0.190809 0 -0.981627 30136.dat
1 28 62 -107.44917000000001 61.88679 0 -1 0 -0.981627 0 -0.190809 0.190809 0 -0.981627 30136.dat
1 28 62 -146.71425 69.51915 0 -1 0 -0.981627 0 -0.190809 0.190809 0 -0.981627 30136.dat
1 28 94 -71.72444999999999 -16.36755 0 -1 0 0.190809 0 -0.981627 0.981627 0 0.190809 30136.dat
1 28 94 -64.09209000000001 22.897530000000007 0 -1 0 0.190809 0 -0.981627 0.981627 0 0.190809 30136.dat
1 28 -70 -73.63254 -26.183820000000004 0 1 0 -0.981627 0 0.190809 0.190809 0 0.981627 3024.dat
1 19 -38 -73.63254 -26.183820000000004 0 1 0 -0.190809 0 -0.981627 -0.981627 0 0.190809 60897.dat
1 19 -30 -67.90827 3.264990000000005 0 1 0 -0.190809 0 -0.981627 -0.981627 0 0.190809 3710.dat
1 19 -38 -64.09209000000001 22.897530000000007 0 1 0 -0.190809 0 -0.981627 -0.981627 0 0.190809 3710.dat
1 19 -102.00000000000001 -73.63254 -26.183820000000004 0 1 0 -0.190809 0 -0.981627 -0.981627 0 0.190809 60897.dat
1 19 -102.00000000000001 -64.09209000000001 22.897530000000007 0 1 0 -0.190809 0 -0.981627 -0.981627 0 0.190809 3710.dat
1 28 -70 -64.09209000000001 22.897530000000007 0 1 0 -0.190809 0 -0.981627 -0.981627 0 0.190809 3710.dat
1 19 -110 -67.90827 3.264990000000005 0 1 0 -0.190809 0 -0.981627 -0.981627 0 0.190809 2431.dat
1 28 -62 -71.72444999999999 -16.36755 0 1 0 0.190809 0 0.981627 0.981627 0 -0.190809 30136.dat
1 28 -62 -64.09209000000001 22.897530000000007 0 1 0 0.190809 0 0.981627 0.981627 0 -0.190809 30136.dat
1 28 -94 -71.72444999999999 -16.36755 0 1 0 0.190809 0 0.981627 0.981627 0 -0.190809 30136.dat
1 28 -94 -64.09209000000001 22.897530000000007 0 1 0 0.190809 0 0.981627 0.981627 0 -0.190809 30136.dat
1 28 94 -68.18409 54.254430000000006 0 -1 0 -0.981627 0 -0.190809 0.190809 0 -0.981627 30136.dat
1 28 94 -107.44917000000001 61.88679 0 -1 0 -0.981627 0 -0.190809 0.190809 0 -0.981627 30136.dat
1 28 94 -146.71425 69.51915 0 -1 0 -0.981627 0 -0.190809 0.190809 0 -0.981627 30136.dat
1 28 -70 -156.53052000000002 71.42724 0 1 0 0.981627 0 -0.190809 -0.190809 0 -0.981627 3024.dat
1 19 -30 -87.81663 58.07060999999999 0 1 0 0.981627 0 -0.190809 -0.190809 0 -0.981627 3710.dat
1 19 -38 -107.44917000000001 61.88679 0 1 0 0.981627 0 -0.190809 -0.190809 0 -0.981627 3710.dat
1 19 -102.00000000000001 -107.44917000000001 61.88679 0 1 0 0.981627 0 -0.190809 -0.190809 0 -0.981627 3710.dat
1 28 -70 -107.44917000000001 61.88679 0 1 0 0.981627 0 -0.190809 -0.190809 0 -0.981627 3710.dat
1 19 -110 -87.81663 58.07060999999999 0 1 0 0.981627 0 -0.190809 -0.190809 0 -0.981627 2431.dat
1 19 -94 -146.71425 69.51915 0 1 0 0.190809 0 0.981627 0.981627 0 -0.190809 11477.dat
1 19 -38 -156.53052000000002 71.42724 0 1 0 0.190809 0 0.981627 0.981627 0 -0.190809 24201.dat
1 28 -62 -68.18409 54.254430000000006 0 1 0 -0.981627 0 0.190809 0.190809 0 0.981627 30136.dat
1 28 -62 -107.44917000000001 61.88679 0 1 0 -0.981627 0 0.190809 0.190809 0 0.981627 30136.dat
1 28 -62 -146.71425 69.51915 0 1 0 -0.981627 0 0.190809 0.190809 0 0.981627 30136.dat
1 28 -94 -68.18409 54.254430000000006 0 1 0 -0.981627 0 0.190809 0.190809 0 0.981627 30136.dat
1 28 -94 -107.44917000000001 61.88679 0 1 0 -0.981627 0 0.190809 0.190809 0 0.981627 30136.dat
1 28 -94 -146.71425 69.51915 0 1 0 -0.981627 0 0.190809 0.190809 0 0.981627 30136.dat
1 19 -28.000000000000004 -97.81636 192.92546000000002 0 1 0 -0.139173 0 -0.9902680000000001 -0.9902680000000001 0 0.139173 60897.dat
1 19 -92.00000000000001 -97.81636 192.92546000000002 0 1 0 -0.139173 0 -0.9902680000000001 -0.9902680000000001 0 0.139173 60897.dat
1 19 -28.000000000000004 -137.42708 198.49238 0 1 0 0.9902680000000001 0 -0.139173 -0.139173 0 -0.9902680000000001 3623.dat
1 19 -92.00000000000001 -137.42708 198.49238 0 1 0 0.9902680000000001 0 -0.139173 -0.139173 0 -0.9902680000000001 3623.dat
1 28 -60 -127.5244 197.10065 0 1 0 0.9902680000000001 0 -0.139173 -0.139173 0 -0.9902680000000001 3710.dat
1 19 -100 -127.5244 197.10065 0 1 0 0.9902680000000001 0 -0.139173 -0.139173 0 -0.9902680000000001 2431.dat
1 28 -52 -107.71903999999999 194.31719 0 1 0 -0.9902680000000001 0 0.139173 0.139173 0 0.9902680000000001 30136.dat
1 28 -52 -147.32976000000002 199.88411 0 1 0 -0.9902680000000001 0 0.139173 0.139173 0 0.9902680000000001 30136.dat
1 28 -84 -107.71903999999999 194.31719 0 1 0 -0.9902680000000001 0 0.139173 0.139173 0 0.9902680000000001 30136.dat
1 28 -84 -147.32976000000002 199.88411 0 1 0 -0.9902680000000001 0 0.139173 0.139173 0 0.9902680000000001 30136.dat
1 71 -100 -78.011 190.142 0 1 0 -0.9902680000000001 0 0.139173 0.139173 0 0.9902680000000001 30374.dat
1 19 28.000000000000004 -97.81636 192.92546000000002 0 -1 0 0.139173 0 -0.9902680000000001 0.9902680000000001 0 0.139173 60897.dat
1 19 92.00000000000001 -97.81636 192.92546000000002 0 -1 0 0.139173 0 -0.9902680000000001 0.9902680000000001 0 0.139173 60897.dat
1 19 28.000000000000004 -137.42708 198.49238 0 -1 0 0.9902680000000001 0 0.139173 -0.139173 0 0.9902680000000001 3623.dat
1 19 92.00000000000001 -137.42708 198.49238 0 -1 0 0.9902680000000001 0 0.139173 -0.139173 0 0.9902680000000001 3623.dat
1 28 60 -127.5244 197.10065 0 -1 0 0.9902680000000001 0 0.139173 -0.139173 0 0.9902680000000001 3710.dat
1 19 100 -127.5244 197.10065 0 -1 0 0.9902680000000001 0 0.139173 -0.139173 0 0.9902680000000001 2431.dat
1 28 52 -107.71903999999999 194.31719 0 -1 0 -0.9902680000000001 0 -0.139173 0.139173 0 -0.9902680000000001 30136.dat
1 28 52 -147.32976000000002 199.88411 0 -1 0 -0.9902680000000001 0 -0.139173 0.139173 0 -0.9902680000000001 30136.dat
1 28 84 -107.71903999999999 194.31719 0 -1 0 -0.9902680000000001 0 -0.139173 0.139173 0 -0.9902680000000001 30136.dat
1 28 84 -147.32976000000002 199.88411 0 -1 0 -0.9902680000000001 0 -0.139173 0.139173 0 -0.9902680000000001 30136.dat
1 71 100 -78.011 190.142 0 -1 0 -0.9902680000000001 0 -0.139173 0.139173 0 -0.9902680000000001 30374.dat
1 272 144 -60 100 0 -1 0 0 0 -1 1 0 0 15068p07.dat
1 272 -144 -60 100 0 1 0 0 0 -1 -1 0 0 15068p07.dat
1 0 102.00000000000001 -98 270 1 0 0 0 -1 0 0 0 -1 30292a.dat
1 0 -102.00000000000001 -98 270 1 0 0 0 -1 0 0 0 -1 30292a.dat
1 71 104 -54 -30 0 -1 0 -0.999391 0 0.0348995 -0.0348995 0 -0.999391 30374.dat
1 71 -24.000000000000004 -54 -30 0 -1 0 -1 0 0 0 0 -1 30374.dat
1 72 110 -136 200 0 0 1 0 1 0 -1 0 0 4477.dat
1 0 110 -136 90 0 0 1 0 1 0 -1 0 0 6141.dat
1 0 -110 -136 90 0 0 1 0 1 0 -1 0 0 6141.dat
1 0 -130 -136 90 0 0 1 0 1 0 -1 0 0 36840.dat
1 0 130 -136 90 0 0 -1 0 1 0 1 0 0 36840.dat
1 71 130 -136 120 0 0 -1 0 1 0 1 0 0 99780.dat
1 71 130 -136 160 0 0 -1 0 1 0 1 0 0 99780.dat
1 71 130 -136 200 0 0 -1 0 1 0 1 0 0 99780.dat
1 71 130 -136 240 0 0 -1 0 1 0 1 0 0 99780.dat
1 71 0 -160 190 -1 0 0 0 1 0 0 0 -1 99780.dat
1 71 130 -136 280 0 0 -1 0 1 0 1 0 0 99780.dat
1 71 -130 -136 280 0 0 1 0 1 0 -1 0 0 99780.dat
1 71 -130 -136 240 0 0 1 0 1 0 -1 0 0 99780.dat
1 71 -130 -136 200 0 0 1 0 1 0 -1 0 0 99780.dat
1 71 -130 -136 160 0 0 1 0 1 0 -1 0 0 99780.dat
1 71 -130 -136 120 0 0 1 0 1 0 -1 0 0 99780.dat
1 72 -110 -136 200 0 0 1 0 1 0 -1 0 0 4477.dat
1 71 120 -144 210 1 0 0 0 1 0 0 0 1 2412b.dat
1 71 0 -162 252.00000000000003 1 0 0 0 0 1 0 -1 0 2412b.dat
1 272 120 -144 260 0 0 1 0 1 0 -1 0 0 87079.dat
1 71 -120 -144 210 1 0 0 0 1 0 0 0 1 2412b.dat
1 272 -120 -144 260 0 0 1 0 1 0 -1 0 0 87079.dat
1 19 -120 -144 180 0 0 1 0 1 0 -1 0 0 33909.dat
1 19 -120 -144 140 0 0 1 0 1 0 -1 0 0 33909.dat
1 19 -120 -144 100 0 0 1 0 1 0 -1 0 0 33909.dat
1 19 120 -144 100 0 0 -1 0 1 0 1 0 0 33909.dat
1 19 120 -144 140 0 0 -1 0 1 0 1 0 0 33909.dat
1 0 20 -172 244.00000000000003 1 0 0 0 0 1 0 -1 0 33909.dat
1 0 60 -172 244.00000000000003 1 0 0 0 0 1 0 -1 0 33909.dat
1 0 -60 -172 244.00000000000003 1 0 0 0 0 1 0 -1 0 33909.dat
1 0 -20 -172 244.00000000000003 1 0 0 0 0 1 0 -1 0 33909.dat
1 0 90 -172 244.00000000000003 0 0 1 -1 0 0 0 -1 0 92280.dat
1 0 -90 -172 244.00000000000003 0 0 1 -1 0 0 0 -1 0 92280.dat
1 15 0 -157.499 346.94168 0 0 -1 0.358368 0.93358 0 0.93358 -0.358368 0 26603p02.dat
1 15 40 -157.499 346.94168 0 0 -1 0.358368 0.93358 0 0.93358 -0.358368 0 26603.dat
1 15 -40 -157.499 346.94168 0 0 -1 0.358368 0.93358 0 0.93358 -0.358368 0 26603.dat
1 15 0 -179.00108 290.92688 0 0 -1 0.358368 0.93358 0 0.93358 -0.358368 0 26603p02.dat
1 15 40 -179.00108 290.92688 0 0 -1 0.358368 0.93358 0 0.93358 -0.358368 0 26603.dat
1 15 -40 -179.00108 290.92688 0 0 -1 0.358368 0.93358 0 0.93358 -0.358368 0 26603.dat
1 272 80 -153.91532 356.27747999999997 0 0 -1 0.358368 0.93358 0 0.93358 -0.358368 0 3068b.dat
1 71 0 -153.61404 334.73893599999997 1 0 0 0 0.93358 0.358368 0 -0.358368 0.93358 3030.dat
1 71 -70 -164.06380000000001 285.192992 0 0 -1 0.358368 0.93358 0 0.93358 -0.358368 0 2450.dat
1 71 70 -164.06380000000001 285.192992 -1 0 0 0 0.93358 -0.358368 0 -0.358368 -0.93358 2450.dat
1 71 0 -171.53244 288.059936 1 0 0 0 0.93358 0.358368 0 -0.358368 0.93358 3460.dat
1 272 80 -175.41740000000001 300.26268000000005 0 0 -1 0.358368 0.93358 0 0.93358 -0.358368 0 87079.dat
1 272 -80 -153.91532 356.27747999999997 0 0 -1 0.358368 0.93358 0 0.93358 -0.358368 0 3068b.dat
1 272 -80 -175.41740000000001 300.26268000000005 0 0 -1 0.358368 0.93358 0 0.93358 -0.358368 0 87079.dat
1 0 0 -178.6998 269.388336 1 0 0 0 0.93358 0.358368 0 -0.358368 0.93358 4510.dat
1 0 90 -175.11612 278.72413600000004 0 0 1 -0.358368 0.93358 0 -0.93358 -0.358368 0 60478.dat
1 0 -90 -175.11612 278.72413600000004 0 0 1 -0.358368 0.93358 0 -0.93358 -0.358368 0 60478.dat
1 19 120 -144 180 0 0 -1 0 1 0 1 0 0 33909.dat
1 71 60 -162 252.00000000000003 1 0 0 0 0 1 0 -1 0 2431.dat
1 71 -60 -162 252.00000000000003 1 0 0 0 0 1 0 -1 0 2431.dat
1 272 110 -162 308 1 0 0 0 0 1 0 -1 0 4460b.dat
1 272 110 -142 356 1 0 0 0 0 1 0 -1 0 60481.dat
1 272 -110 -142 356 1 0 0 0 0 1 0 -1 0 60481.dat
1 272 130 -142 332 1 0 0 0 0 1 0 -1 0 3005.dat
1 272 -130 -142 332 1 0 0 0 0 1 0 -1 0 3005.dat
1 272 -130 -122.00000000000001 340 0 0 1 -1 0 0 0 -1 0 2420.dat
1 272 130 -122.00000000000001 340 -1 0 0 0 0 -1 0 -1 0 2420.dat
1 272 130 -142 348.00000000000006 -1 0 0 0 0 -1 0 -1 0 3024.dat
1 272 130 -142 356 -1 0 0 0 0 -1 0 -1 0 3024.dat
1 272 -130 -142 348.00000000000006 -1 0 0 0 0 -1 0 -1 0 3024.dat
1 272 -130 -142 356 -1 0 0 0 0 -1 0 -1 0 3024.dat
1 272 -120 -142 356 -1 0 0 0 0 -1 0 -1 0 85984.dat
1 272 120 -142 356 -1 0 0 0 0 -1 0 -1 0 85984.dat
1 71 -80 -78 368.00000000000006 -1 0 0 0 0 -1 0 -1 0 3710.dat
1 71 80 -78 368.00000000000006 -1 0 0 0 0 -1 0 -1 0 3710.dat
1 0 20 -58.00000000000001 368.00000000000006 -1 0 0 0 0 -1 0 -1 0 3794b.dat
1 0 -20 -58.00000000000001 368.00000000000006 -1 0 0 0 0 -1 0 -1 0 3794b.dat
1 71 0 -78 384.00000000000006 -1 0 0 0 0 -1 0 -1 0 30413.dat
1 71 150 -78 368.00000000000006 -1 0 0 0 0 -1 0 -1 0 2420.dat
1 71 -150 -78 368.00000000000006 0 0 1 -1 0 0 0 -1 0 2420.dat
1 272 110 -78 360 1 0 0 0 0 1 0 -1 0 2420.dat
1 272 -110 -78 360 0 0 -1 1 0 0 0 -1 0 2420.dat
1 0 0 -68 360 -1 0 0 0 0 -1 0 -1 0 3832.dat
1 0 90 -58.00000000000001 368.00000000000006 -1 0 0 0 0 -1 0 -1 0 6141.dat
1 0 -90 -58.00000000000001 368.00000000000006 -1 0 0 0 0 -1 0 -1 0 6141.dat
1 272 120 -58.00000000000001 360 -1 0 0 0 0 -1 0 -1 0 85984.dat
1 272 -120 -58.00000000000001 360 -1 0 0 0 0 -1 0 -1 0 85984.dat
1 47 90 -58.00000000000001 376 -1 0 0 0 0 -1 0 -1 0 98138.dat
1 47 -90 -58.00000000000001 376 -1 0 0 0 0 -1 0 -1 0 98138.dat
1 272 70 -58.00000000000001 360 -1 0 0 0 0 -1 0 -1 0 54200.dat
1 272 -70 -58.00000000000001 360 -1 0 0 0 0 -1 0 -1 0 54200.dat
1 15 50 -58.00000000000001 360 -1 0 0 0 0 -1 0 -1 0 54200.dat
1 15 -50 -58.00000000000001 360 -1 0 0 0 0 -1 0 -1 0 54200.dat
1 71 120 -78 368.00000000000006 -1 0 0 0 0 -1 0 -1 0 85984.dat
1 71 -120 -78 368.00000000000006 -1 0 0 0 0 -1 0 -1 0 85984.dat
1 71 -80 -78 368.00000000000006 -1 0 0 0 0 -1 0 -1 0 85984.dat
1 71 80 -78 368.00000000000006 -1 0 0 0 0 -1 0 -1 0 85984.dat
1 71 50 -78 368.00000000000006 -1 0 0 0 0 -1 0 -1 0 54200.dat
1 71 -50 -78 368.00000000000006 -1 0 0 0 0 -1 0 -1 0 54200.dat
1 71 150 -88 368.00000000000006 -1 0 0 0 0 -1 0 -1 0 11477.dat
1 71 -150 -88 368.00000000000006 -1 0 0 0 0 -1 0 -1 0 11477.dat
1 71 150 -98 376 -1 0 0 0 0 -1 0 -1 0 3024.dat
1 71 -150 -98 376 -1 0 0 0 0 -1 0 -1 0 3024.dat
1 14 0 -58.00000000000001 376 -1 0 0 0 0 -1 0 -1 0 87079dt0.dat
1 272 0 -98 348.00000000000006 1 0 0 0 0 1 0 -1 0 3460.dat
1 272 -70 -108 356 0 0 1 -1 0 0 0 -1 0 3069b.dat
1 272 70 -108 356 0 0 1 -1 0 0 0 -1 0 3069b.dat
1 272 90 -108 348.00000000000006 0 0 1 -1 0 0 0 -1 0 3069b.dat
1 272 -90 -108 348.00000000000006 0 0 1 -1 0 0 0 -1 0 3069b.dat
1 71 0 -108 364 1 0 0 0 0 1 0 -1 0 14769d01.dat
1 71 0 -140 350 -1 0 0 0 1 0 0 0 -1 3069b.dat
1 15 0 -108 356 1 0 0 0 0 1 0 -1 0 3022.dat
1 71 -60 -140 350 -1 0 0 0 1 0 0 0 -1 2431.dat
1 71 60 -140 350 -1 0 0 0 1 0 0 0 -1 2431.dat
1 15 -40 -108 356 -1 0 0 0 0 -1 0 -1 0 3068b.dat
1 15 40 -108 356 -1 0 0 0 0 -1 0 -1 0 3068b.dat
1 71 -60 -118 348.00000000000006 1 0 0 0 0 1 0 -1 0 99780.dat
1 71 -20 -118 348.00000000000006 1 0 0 0 0 1 0 -1 0 99780.dat
1 71 20 -118 348.00000000000006 1 0 0 0 0 1 0 -1 0 99780.dat
1 71 60 -118 348.00000000000006 1 0 0 0 0 1 0 -1 0 99780.dat
1 71 140 -112.00000000000001 358.00000000000006 0 -1 0 -1 0 0 0 0 -1 3069b.dat
1 71 104 -112.00000000000001 348.00000000000006 0 0 -1 1 0 0 0 -1 0 41682.dat
1 71 92.00000000000001 -112.00000000000001 358.00000000000006 0 -1 0 -1 0 0 0 0 -1 3023.dat
1 36 100 -112.00000000000001 358.00000000000006 0 -1 0 -1 0 0 0 0 -1 3023.dat
1 36 116.00000000000001 -112.00000000000001 358.00000000000006 0 -1 0 -1 0 0 0 0 -1 3023.dat
1 36 132 -112.00000000000001 358.00000000000006 0 -1 0 -1 0 0 0 0 -1 3023.dat
1 71 124 -112.00000000000001 358.00000000000006 0 -1 0 -1 0 0 0 0 -1 3023.dat
1 71 -140 -112.00000000000001 358.00000000000006 0 1 0 1 0 0 0 0 -1 3069b.dat
1 71 -104 -112.00000000000001 348.00000000000006 0 0 1 -1 0 0 0 -1 0 41682.dat
1 71 -92.00000000000001 -112.00000000000001 358.00000000000006 0 1 0 1 0 0 0 0 -1 3023.dat
1 36 -100 -112.00000000000001 358.00000000000006 0 1 0 1 0 0 0 0 -1 3023.dat
1 36 -116.00000000000001 -112.00000000000001 358.00000000000006 0 1 0 1 0 0 0 0 -1 3023.dat
1 36 -132 -112.00000000000001 358.00000000000006 0 1 0 1 0 0 0 0 -1 3023.dat
1 71 -124 -112.00000000000001 358.00000000000006 0 1 0 1 0 0 0 0 -1 3023.dat
1 272 152 -128 340 0 -1 0 0 0 1 -1 0 0 3020.dat
1 272 159 -118 350 0 -1 0 1 0 0 0 0 1 14719.dat
1 272 159 -108 320 0 -1 0 1 0 0 0 0 1 3068b.dat
1 272 -160 -118 350 0 1 0 0 0 1 1 0 0 14719.dat
1 272 -160 -108 320 0 1 0 -1 0 0 0 0 1 3068b.dat
1 272 -152 -128 340 0 1 0 0 0 1 1 0 0 3020.dat
1 272 -144 -158 90 0 1 0 0 0 1 1 0 0 4286.dat
1 272 144 -158 90 0 -1 0 0 0 1 -1 0 0 4286.dat
1 272 -144 -158 110 0 1 0 1 0 0 0 0 -1 50956p02.dat
1 272 -144 -148 370 0 1 0 0 0 1 1 0 0 29120.dat
1 272 -144 -148 340 0 1 0 0 0 1 1 0 0 15068.dat
1 272 -144 -148 300 0 1 0 0 0 1 1 0 0 15068.dat
1 272 -144 -148 110 0 1 0 0 0 1 1 0 0 11477.dat
1 272 -144 -148 160 0 1 0 0 0 1 1 0 0 88930.dat
1 272 -144 -148 240 0 1 0 0 0 1 1 0 0 88930.dat
1 272 -144 -148 90 0 1 0 0 0 1 1 0 0 29119.dat
1 272 144 -148 90 0 -1 0 0 0 1 -1 0 0 29120.dat
1 272 144 -148 160 0 -1 0 0 0 1 -1 0 0 88930.dat
1 272 144 -148 110 0 -1 0 0 0 1 -1 0 0 11477.dat
1 272 144 -148 240 0 -1 0 0 0 1 -1 0 0 88930.dat
1 272 144 -148 300 0 -1 0 0 0 1 -1 0 0 15068.dat
1 272 144 -148 340 0 -1 0 0 0 1 -1 0 0 15068.dat
1 272 144 -148 370 0 -1 0 0 0 1 -1 0 0 29119.dat
1 272 144 -158 110 0 -1 0 -1 0 0 0 0 -1 50955p02.dat
1 71 -152 -138 290 0 1 0 0 0 1 1 0 0 3024.dat
1 71 152 -138 290 0 -1 0 0 0 1 -1 0 0 3024.dat
1 272 152 -138 100 0 -1 0 0 0 1 -1 0 0 3023.dat
1 272 -152 -138 100 0 1 0 0 0 1 1 0 0 3023.dat
1 272 -110 -162 308 1 0 0 0 0 1 0 -1 0 4460b.dat
1 1 100 -101.98636 -179.98185000000004 -1 0 0 0 0.7986360000000001 -0.601815 0 -0.601815 -0.7986360000000001 6134.dat
1 1 -100 -101.98636 -179.98185000000004 -1 0 0 0 0.7986360000000001 -0.601815 0 -0.601815 -0.7986360000000001 6134.dat
1 0 0 -133.18992400000002 -181.51101 -1 0 0 0 0.7986360000000001 -0.601815 0 -0.601815 -0.7986360000000001 6112.dat
1 19 -110 -133.9318 -155.90925 0 0 1 -0.601815 0.7986360000000001 0 -0.7986360000000001 -0.601815 0 32952.dat
1 19 110 -133.9318 -155.90925 0 0 -1 0.601815 0.7986360000000001 0 0.7986360000000001 -0.601815 0 32952.dat
1 272 -128 -149.90452 -143.87295 0 1 0 0.7986360000000001 0 -0.601815 -0.601815 0 -0.7986360000000001 3666.dat
1 272 -136 -117.95908 -167.94555 0 1 0 0.7986360000000001 0 -0.601815 -0.601815 0 -0.7986360000000001 3069b.dat
1 272 -136 -157.89088 -137.8548 0 1 0 0.7986360000000001 0 -0.601815 -0.601815 0 -0.7986360000000001 63864.dat
1 272 136 -117.95908 -167.94555 0 -1 0 0.7986360000000001 0 0.601815 -0.601815 0 0.7986360000000001 3069b.dat
1 272 136 -157.89088 -137.8548 0 -1 0 0.7986360000000001 0 0.601815 -0.601815 0 0.7986360000000001 63864.dat
1 272 128 -149.90452 -143.87295 0 -1 0 0.7986360000000001 0 0.601815 -0.601815 0 0.7986360000000001 3666.dat
1 272 120 -197.82268000000002 -107.76405 0 -1 0 -0.601815 0 0.7986360000000001 -0.7986360000000001 0 -0.601815 11477.dat
1 272 -120 -197.82268000000002 -107.76405 0 1 0 0.601815 0 0.7986360000000001 0.7986360000000001 0 -0.601815 11477.dat
1 0 60 -139.57901200000003 -176.69649000000004 1 0 0 0 0.7986360000000001 0.601815 0 -0.601815 0.7986360000000001 60470b.dat
1 0 0 -139.57901200000003 -176.69649000000004 -1 0 0 0 0.7986360000000001 -0.601815 0 -0.601815 -0.7986360000000001 60470b.dat
1 0 -60 -139.57901200000003 -176.69649000000004 1 0 0 0 0.7986360000000001 0.601815 0 -0.601815 0.7986360000000001 60470b.dat
1 0 30 -139.57901200000003 -176.69649000000004 1 0 0 0 0.7986360000000001 0.601815 0 -0.601815 0.7986360000000001 6141.dat
1 0 -30 -139.57901200000003 -176.69649000000004 1 0 0 0 0.7986360000000001 0.601815 0 -0.601815 0.7986360000000001 6141.dat
1 0 0 -145.9681 -171.88197 1 0 0 0 0.7986360000000001 0.601815 0 -0.601815 0.7986360000000001 60479.dat
1 272 90 -139.57901200000003 -176.69649000000004 1 0 0 0 0.7986360000000001 0.601815 0 -0.601815 0.7986360000000001 2420.dat
1 272 -90 -139.57901200000003 -176.69649000000004 0 0 -1 0.601815 0.7986360000000001 0 0.7986360000000001 -0.601815 0 2420.dat
1 40 0 -216.619006 -106.12137000000003 1 0 0 0 0.7986360000000001 0.601815 0 -0.601815 0.7986360000000001 6267.dat
1 71 0 -216.98994400000004 -93.32049 -1 0 0 0 0.7986360000000001 -0.601815 0 -0.601815 -0.7986360000000001 3069b.dat
1 71 -60 -216.98994400000004 -93.32049 -1 0 0 0 0.7986360000000001 -0.601815 0 -0.601815 -0.7986360000000001 2431.dat
1 71 60 -216.98994400000004 -93.32049 -1 0 0 0 0.7986360000000001 -0.601815 0 -0.601815 -0.7986360000000001 2431.dat
1 71 110 -216.98994400000004 -93.32049 0 0 -1 0.601815 0.7986360000000001 0 0.7986360000000001 -0.601815 0 15712.dat
1 71 -110 -216.98994400000004 -93.32049 0 0 -1 0.601815 0.7986360000000001 0 0.7986360000000001 -0.601815 0 15712.dat
1 71 40 -72 -460 -1 0 0 0 1 0 0 0 -1 51739.dat
1 71 -40 -72 -460 -1 0 0 0 1 0 0 0 -1 51739.dat
1 71 0 -80 -450 -1 0 0 0 1 0 0 0 -1 88646.dat
1 71 0 -88 -450 -1 0 0 0 1 0 0 0 -1 4162.dat
1 4 60.610749999999996 -126.00000000000001 -259.54915 0.587785 0 0.8090170000000001 0 1 0 -0.8090170000000001 0 0.587785 32062.dat
1 71 31.2215 -126.00000000000001 -219.0983 0.587785 0 0.8090170000000001 0 1 0 -0.8090170000000001 0 0.587785 22961.dat
1 71 90 -126.00000000000001 -300 -0.587785 0 -0.8090170000000001 0 1 0 0.8090170000000001 0 -0.587785 22961.dat
1 71 90 -116.00000000000001 -300 0 0.587785 -0.8090170000000001 1 0 0 0 -0.8090170000000001 -0.587785 4274.dat
1 71 31.2215 -116.00000000000001 -219.0983 0 0.587785 -0.8090170000000001 1 0 0 0 -0.8090170000000001 -0.587785 4274.dat
1 71 48.855050000000006 -126.00000000000001 -243.36881000000002 0 -0.8090170000000001 -0.587785 1 0 0 0 -0.587785 0.8090170000000001 59443.dat
1 71 72.36645 -126.00000000000001 -275.72949 0 -0.8090170000000001 -0.587785 1 0 0 0 -0.587785 0.8090170000000001 59443.dat
1 4 -60.610749999999996 -126.00000000000001 -259.54915 -0.587785 0 0.8090170000000001 0 1 0 -0.8090170000000001 0 -0.587785 32062.dat
1 71 -31.2215 -126.00000000000001 -219.0983 -0.587785 0 0.8090170000000001 0 1 0 -0.8090170000000001 0 -0.587785 22961.dat
1 71 -90 -126.00000000000001 -300 0.587785 0 -0.8090170000000001 0 1 0 0.8090170000000001 0 0.587785 22961.dat
1 71 -90 -116.00000000000001 -300 0 -0.587785 -0.8090170000000001 1 0 0 0 -0.8090170000000001 0.587785 4274.dat
1 71 -31.2215 -116.00000000000001 -219.0983 0 -0.587785 -0.8090170000000001 1 0 0 0 -0.8090170000000001 0.587785 4274.dat
1 71 -48.855050000000006 -126.00000000000001 -243.36881000000002 0 -0.8090170000000001 0.587785 1 0 0 0 0.587785 0.8090170000000001 59443.dat
1 71 -72.36645 -126.00000000000001 -275.72949 0 -0.8090170000000001 0.587785 1 0 0 0 0.587785 0.8090170000000001 59443.dat
1 72 0 -108 -456 1 0 0 0 0 -1 0 1 0 3795.dat
1 72 0 -98 -448.00000000000006 1 0 0 0 0 -1 0 1 0 3023.dat
1 71 70 -108 -456 0 0 -1 -1 0 0 0 1 0 99206.dat
1 71 -70 -108 -456 0 0 1 1 0 0 0 1 0 99206.dat
1 0 -60 -108 -464.00000000000006 0 0 1 1 0 0 0 1 0 87580.dat
1 0 -20 -108 -464.00000000000006 0 0 1 1 0 0 0 1 0 87580.dat
1 0 20 -108 -464.00000000000006 0 0 1 1 0 0 0 1 0 87580.dat
1 0 60 -108 -464.00000000000006 0 0 1 1 0 0 0 1 0 87580.dat
1 71 -60 -108 -472 1 0 0 0 0 -1 0 1 0 32828.dat
1 71 60 -108 -472 -1 0 0 0 0 1 0 1 0 32828.dat
1 71 0 -108 -472 1 0 0 0 0 -1 0 1 0 63864p02.dat
1 47 60 -108 -480 0 0 1 1 0 0 0 1 0 98138.dat
1 47 -60 -108 -480 0 0 1 1 0 0 0 1 0 98138.dat
1 71 88 -108 -460 0 -1 0 0 0 -1 1 0 0 24307.dat
1 272 96.00000000000001 -108 -460 0 -1 0 0 0 -1 1 0 0 24307.dat
1 71 -88 -108 -460 0 1 0 0 0 -1 -1 0 0 24299.dat
1 272 -96.00000000000001 -108 -460 0 1 0 0 0 -1 -1 0 0 24299.dat
1 272 -96.00000000000001 -108 -440 0 1 0 -1 0 0 0 0 1 15068.dat
1 272 96.00000000000001 -108 -440 0 -1 0 1 0 0 0 0 1 15068.dat
1 272 160 -108 -420 0 -1 0 0 0 -1 1 0 0 24307.dat
1 272 -160 -108 -420 0 1 0 0 0 -1 -1 0 0 24299.dat
1 71 -80 -96.00000000000001 -430 -1 0 0 0 1 0 0 0 -1 99207.dat
1 71 -90 -128 -430 0 0 1 0 1 0 -1 0 0 36841.dat
1 0 -90 -120 -430 0 0 -1 0 1 0 1 0 0 3040b.dat
1 0 -80 -108 -360 0 0 1 -1 0 0 0 -1 0 3068b.dat
1 0 -70 -108 -392 0 0 1 -1 0 0 0 -1 0 32064a.dat
1 0 -90 -108 -392 0 0 1 -1 0 0 0 -1 0 32064a.dat
1 0 -70 -108 -368.00000000000006 0 0 1 -1 0 0 0 -1 0 32064a.dat
1 0 -90 -108 -368.00000000000006 0 0 1 -1 0 0 0 -1 0 32064a.dat
1 4 -80 -108 -378.00000000000006 -1 0 0 0 1 0 0 0 -1 32062.dat
1 0 -80 -108 -402 -1 0 0 0 1 0 0 0 -1 32062.dat
1 272 -80 -88 -420 -1 0 0 0 1 0 0 0 -1 33909.dat
1 72 0 -88 -420 1 0 0 0 1 0 0 0 1 3795.dat
1 72 0 -112.00000000000001 -430 1 0 0 0 1 0 0 0 1 3023.dat
1 72 -40 -104 -410 1 0 0 0 1 0 0 0 1 3023.dat
1 72 -40 -96.00000000000001 -410 1 0 0 0 1 0 0 0 1 3023.dat
1 72 -40 -96.00000000000001 -430 1 0 0 0 1 0 0 0 1 3023.dat
1 72 40 -96.00000000000001 -430 1 0 0 0 1 0 0 0 1 3023.dat
1 0 0 -120 -430 1 0 0 0 1 0 0 0 1 15573.dat
1 0 -40 -112.00000000000001 -410 -1 0 0 0 1 0 0 0 -1 11458.dat
1 71 0 -104 -430 1 0 0 0 1 0 0 0 1 99206.dat
1 0 0 -120 -410 -1 0 0 0 1 0 0 0 -1 2877.dat
1 0 -40 -120 -430 -1 0 0 0 1 0 0 0 -1 2877.dat
1 0 40 -120 -430 -1 0 0 0 1 0 0 0 -1 2877.dat
1 0 40 -128 -430 -1 0 0 0 1 0 0 0 -1 96910.dat
1 0 -40 -128 -430 -1 0 0 0 1 0 0 0 -1 96910.dat
1 0 30 -112.00000000000001 -410 0 0 -1 0 1 0 1 0 0 3040b.dat
1 0 0 -112.00000000000001 -410 0 0 -1 0 1 0 1 0 0 93273d02.dat
1 1 -50 -118 -400 0 0 -1 0 1 0 1 0 0 3749.dat
1 71 0 -128 -430 1 0 0 0 1 0 0 0 1 98138.dat
1 0 -50 -118 -370 0 0.707107 0.707107 0 -0.707107 0.707107 1 0 0 25214.dat
1 71 90 -136 -400 0 0 1 0 1 0 -1 0 0 98138.dat
1 71 90 -128 -430 0 0 -1 0 1 0 1 0 0 36841.dat
1 0 90 -120 -430 0 0 1 0 1 0 -1 0 0 3040b.dat
1 272 80 -88 -420 -1 0 0 0 1 0 0 0 -1 33909.dat
1 15 90 -128 -400 0 0 1 0 1 0 -1 0 0 15573.dat
1 118 90 -120 -400 0 0 1 0 1 0 -1 0 0 3004.dat
1 272 80 -96.00000000000001 -410 -1 0 0 0 1 0 0 0 -1 43723.dat
1 272 -150 -88 -410 -1 0 0 0 1 0 0 0 -1 3070a.dat
1 272 150 -88 -410 -1 0 0 0 1 0 0 0 -1 3070a.dat
1 0 -120 -88 -410 1 0 0 0 1 0 0 0 1 32028.dat
1 0 120 -88 -410 1 0 0 0 1 0 0 0 1 32028.dat
1 19 120 -120 -410 1 0 0 0 1 0 0 0 1 3004.dat
1 4 110 -96.00000000000001 -410 1 0 0 0 1 0 0 0 1 6141.dat
1 4 110 -128 -410 1 0 0 0 1 0 0 0 1 6141.dat
1 71 130 -128 -410 0 0 -1 0 1 0 1 0 0 36841.dat
1 272 152 -108 -410 0 -1 0 1 0 0 0 0 1 44728.dat
1 272 -152 -108 -410 0 1 0 -1 0 0 0 0 1 44728.dat
1 0 130 -96.00000000000001 -410 0 0 -1 0 1 0 1 0 0 36840.dat
1 19 -120 -120 -410 -1 0 0 0 1 0 0 0 -1 3004.dat
1 4 -110 -96.00000000000001 -410 -1 0 0 0 1 0 0 0 -1 6141.dat
1 4 -110 -128 -410 -1 0 0 0 1 0 0 0 -1 6141.dat
1 71 -130 -128 -410 0 0 1 0 1 0 -1 0 0 36841.dat
1 0 -130 -96.00000000000001 -410 0 0 1 0 1 0 -1 0 0 36840.dat
1 71 0 -136 -230 -1 0 0 0 1 0 0 0 -1 2412a.dat
1 71 -130 -88 0 -1 0 0 0 1 0 0 0 -1 3070a.dat
1 71 60 -80 -440 -1 0 0 0 1 0 0 0 -1 41769.dat
1 71 -60 -80 -440 -1 0 0 0 1 0 0 0 -1 41770.dat
1 72 0 -120 -230 -1 0 0 0 1 0 0 0 -1 3023.dat
1 72 0 -128 -230 -1 0 0 0 1 0 0 0 -1 3023.dat
1 71 132 -108 -432 0 0 1 1 0 0 0 1 0 18674.dat
1 47 132 -108 -440 0 0 1 1 0 0 0 1 0 4740.dat
1 71 -132 -108 -432 0 0 1 1 0 0 0 1 0 18674.dat
1 47 -132 -108 -440 0 0 1 1 0 0 0 1 0 4740.dat
1 80 165 -34 -320 0 0 -1 1 0 0 0 -1 0 32123b.dat
1 80 -165 -34 -320 0 0 1 1 0 0 0 1 0 32123b.dat
1 80 155 -34 200 0 0 -1 1 0 0 0 -1 0 32123b.dat
1 80 -155 -34 200 0 0 1 1 0 0 0 1 0 32123b.dat
1 80 140 -34 -320 0 0 -1 1 0 0 0 -1 0 10265 - 42716c01.dat
1 80 -140 -34 -320 0 0 1 1 0 0 0 1 0 10265 - 42716c01.dat
1 80 130 -34 200 0 0 -1 1 0 0 0 -1 0 10265 - 42716c01.dat
1 80 -130 -34 200 0 0 1 1 0 0 0 1 0 10265 - 42716c01.dat
