1 0 0 0 0 0 -1 0 1 0 0 0 0 1 32525.dat
1 1 20 0 -100 1 0 0 0 1 0 0 0 1 6558.dat
1 1 20 0 -60 1 0 0 0 1 0 0 0 1 6558.dat
1 71 20 0 -20 1 0 0 0 1 0 0 0 1 87082.dat
1 71 20 -20 -80 0 0 1 0 1 0 -1 0 0 99009.dat
1 0 20 -20 -80 0 0 1 0 1 0 -1 0 0 99010.dat
1 71 20 0 0 1 0 0 0 -1 0 0 0 -1 32073.dat
1 71 20 0 40 1 0 0 0 -1 0 0 0 -1 4519.dat
1 71 20 0 100 1 0 0 0 -1 0 0 0 -1 4519.dat
1 71 20 0 60 1 0 0 0 -1 0 0 0 -1 44294.dat
1 0 20 0 20 1 0 0 0 0 1 0 -1 0 32184.dat
1 0 20 0 80 1 0 0 0 0 1 0 -1 0 32184.dat
1 0 40 0 0 0 -1 0 1 0 0 0 0 1 32525.dat
1 1 60 0 20 1 0 0 0 1 0 0 0 1 6558.dat
1 1 -20 0 20 -1 0 0 0 -1 0 0 0 1 6558.dat
1 0 60 0 60 0 -1 0 -1 0 0 0 0 -1 60483.dat
1 0 -20 0 60 0 -1 0 -1 0 0 0 0 -1 60483.dat
1 72 90 0 40 -1 0 0 0 1 0 0 0 -1 87083.dat
1 72 -50 0 40 1 0 0 0 -1 0 0 0 -1 87083.dat
1 72 20 -30 -20 0 1 0 1 0 0 0 0 -1 87083.dat
1 19 20 -20 -20 0 -1 0 0 0 -1 1 0 0 32269.dat
1 72 20 -30 20 0 1 0 1 0 0 0 0 -1 87083.dat
1 0 20 -20 20 -1 0 0 0 0 1 0 1 0 32270.dat
1 14 60 0 0 1 0 0 0 0 1 0 -1 0 6536.dat
1 14 -20 0 0 1 0 0 0 0 1 0 -1 0 6536.dat
1 14 0 -40 -140 0 -1 0 1 0 0 0 0 1 40490.dat
1 1 20 -40 -220 1 0 0 0 1 0 0 0 1 6558.dat
1 1 20 -40 -60 1 0 0 0 1 0 0 0 1 6558.dat
1 1 20 -40 -100 1 0 0 0 1 0 0 0 1 6558.dat
1 71 -10 -40 -200 -1 0 0 0 -1 0 0 0 1 4274.dat
1 0 -10 -40 -140 -1 0 0 0 -1 0 0 0 1 2780.dat
1 0 -10 -40 -80 -1 0 0 0 -1 0 0 0 1 2780.dat
1 0 20 -60 -220 0 1 0 0 0 1 1 0 0 60483.dat
1 71 20 -60 -220 1 0 0 0 1 0 0 0 1 4519.dat
1 0 5 -60 -140 0 -1 0 -1 0 0 0 0 -1 32250.dat
1 14 -5 -60 -140 0 -1 0 -1 0 0 0 0 -1 32250.dat
1 71 20 -100 -140 1 0 0 0 1 0 0 0 1 4519.dat
1 1 20 -60 -160 1 0 0 0 1 0 0 0 1 6558.dat
1 0 20 -40 -160 0 -1 0 0 0 -1 1 0 0 60483.dat
1 71 20 -40 -160 1 0 0 0 1 0 0 0 1 32073.dat
1 72 20 -110 -120 0 -1 0 1 0 0 0 0 1 55013.dat
1 71 20 -40 -120 -1 0 0 0 -1 0 0 0 1 87082.dat
1 71 20 -70 -120 0 1 0 0 0 1 1 0 0 4716.dat
1 0 20 -100 -120 -1 0 0 0 0 1 0 1 0 32184.dat
1 14 20 -115 -120 -1 0 0 0 0 1 0 1 0 32123b.dat
1 14 20 -125 -120 -1 0 0 0 0 1 0 1 0 32123b.dat
1 0 20 -150 -120 0 0 -1 -1 0 0 0 1 0 62462.dat
1 0 20 -190 -120 1 0 0 0 0 -1 0 1 0 59443.dat
1 14 40 -40 -140 0 -1 0 1 0 0 0 0 1 40490.dat
1 71 50 -40 -200 1 0 0 0 1 0 0 0 1 4274.dat
1 71 20 -80 -140 -1 0 0 0 -0.8660000000000001 -0.5 0 -0.5 0.8660000000000001 44294.dat
1 72 20 -80 -140 0 0 1 0 -1 0 1 0 0 10928.dat
1 0 35 -60 -140 0 -1 0 -1 0 0 0 0 -1 32250.dat
1 14 45 -60 -140 0 -1 0 -1 0 0 0 0 -1 32250.dat
1 0 50 -40 -140 -1 0 0 0 -1 0 0 0 1 2780.dat
1 0 50 -40 -80 -1 0 0 0 -1 0 0 0 1 2780.dat
1 14 60 -40 -80 0 1 0 1 0 0 0 0 -1 32526.dat
1 72 90 0 -160 -1 0 0 0 1 0 0 0 -1 87083.dat
1 71 80 0 -160 0 0 -1 0 1 0 1 0 0 3713.dat
1 14 -20 -40 -80 0 1 0 1 0 0 0 0 -1 32526.dat
1 71 -40 0 -160 0 0 1 0 1 0 -1 0 0 3713.dat
1 72 -50 0 -160 1 0 0 0 1 0 0 0 1 87083.dat
1 71 20 -100 -100 1 0 0 0 1 0 0 0 1 4519.dat
1 14 40 -80 -100 1 0 0 0 1 0 0 0 1 42003.dat
1 14 0 -80 -100 1 0 0 0 1 0 0 0 1 42003.dat
1 0 60 -80 -140 0 -1 0 0.8660000000000001 0 -0.5 0.5 0 0.8660000000000001 60483.dat
1 0 -20 -80 -140 0 -1 0 0.8660000000000001 0 -0.5 0.5 0 0.8660000000000001 60483.dat
1 71 -10 -90 -122.679 1 0 0 0 0.8660000000000001 -0.5 0 0.5 0.8660000000000001 4274.dat
1 71 50 -90 -122.679 -1 0 0 0 -0.8660000000000001 -0.5 0 -0.5 0.8660000000000001 4274.dat
1 0 60 0 -20 0 -1 0 1 0 0 0 0 1 32054.dat
1 0 -20 0 -20 0 -1 0 1 0 0 0 0 1 32054.dat
1 4 -20 -30 -20 0 -1 0 1 0 0 0 0 1 32062.dat
1 4 60 -30 -20 0 -1 0 1 0 0 0 0 1 32062.dat
1 14 20 -35 -20 -1 0 0 0 -1 0 0 0 1 99773.dat
1 14 20 -45 -20 -1 0 0 0 -1 0 0 0 1 99773.dat
1 0 20 20 -20 0 0 -1 0 1 0 1 0 0 32316.dat
1 0 20 -70 20 0 -1 0 0 0 -1 1 0 0 59443.dat
1 0 20 -110 20 0 1 0 1 0 0 0 0 -1 3705.dat
1 0 20 -150 20 0 -1 0 0 0 -1 1 0 0 59443.dat
1 0 50 0 -80 -1 0 0 0 -1 0 0 0 1 2780.dat
1 0 50 0 -40 -1 0 0 0 -1 0 0 0 1 2780.dat
1 14 60 -80 -40 0 -1 0 0 0 1 -1 0 0 32526.dat
1 1 60 -80 -40 -1 0 0 0 -0.9860000000000001 0.164 0 0.164 0.9860000000000001 6558.dat
1 0 -10 0 -40 -1 0 0 0 -1 0 0 0 1 2780.dat
1 0 -10 0 -80 -1 0 0 0 -1 0 0 0 1 2780.dat
1 14 -20 -80 -40 0 -1 0 0 0 1 -1 0 0 32526.dat
1 1 -20 -80 -40 1 0 0 0 0.9860000000000001 0.164 0 -0.164 0.9860000000000001 6558.dat
1 14 0 -80 0 0 -1 0 1 0 0 0 0 1 32524.dat
1 1 20 -80 -20 1 0 0 0 1 0 0 0 1 6558.dat
1 1 20 -80 0 1 0 0 0 1 0 0 0 1 6558.dat
1 1 20 -140 0 0 -1 0 0 0 1 -1 0 0 32140.dat
1 4 20 -140 0 -1 0 0 0 -1 0 0 0 1 32062.dat
1 1 5 -140 0 0 -1 0 0 0 1 -1 0 0 6632.dat
1 1 35 -140 0 0 -1 0 0 0 1 -1 0 0 6632.dat
1 1 10 -80 -60 1 0 0 0 0.8660000000000001 -0.5 0 0.5 0.8660000000000001 43093.dat
1 14 20 -80 -60 -1 0 0 0 -0.8660000000000001 -0.5 0 -0.5 0.8660000000000001 6536.dat
1 71 20 -102.32100000000001 -61.34 0 0 -1 -0.5 0.8660000000000001 0 0.8660000000000001 0.5 0 4274.dat
1 0 20 -106.32100000000001 -54.412000000000006 -1 0 0 0 0.5 -0.8660000000000001 0 -0.8660000000000001 -0.5 30663.dat
1 14 40 -80 0 0 -1 0 1 0 0 0 0 1 32524.dat
1 0 -20 -100 20 0 1 0 0 0 -1 -1 0 0 32525.dat
1 0 -20 -80 20 1 0 0 0 0 1 0 -1 0 32054.dat
1 1 -50 -80 20 1 0 0 0 0 1 0 -1 0 43093.dat
1 0 -30 -200 20 -1 0 0 0 -1 0 0 0 1 2780.dat
1 1 -10 -180 20 1 0 0 0 0 1 0 -1 0 43093.dat
1 0 20 -180 20 0 0 -1 1 0 0 0 -1 0 32034.dat
1 1 50 -180 20 -1 0 0 0 0 -1 0 -1 0 43093.dat
1 0 20 -190 20 0 0 1 -1 0 0 0 -1 0 3705.dat
1 71 20 -200 20 1 0 0 0 0 1 0 -1 0 3713.dat
1 0 20 -220 20 1 0 0 0 0 1 0 -1 0 32270.dat
1 0 60 -100 20 0 1 0 0 0 -1 -1 0 0 32525.dat
1 0 70 -200 20 -1 0 0 0 -1 0 0 0 1 2780.dat
1 1 90 -80 20 -1 0 0 0 0 -1 0 -1 0 43093.dat
1 0 60 -80 20 -1 0 0 0 0 -1 0 -1 0 32054.dat
1 71 80 0 40 0 -1 0 -1 0 0 0 0 -1 32523.dat
1 71 -40 0 40 0 -1 0 -1 0 0 0 0 -1 32523.dat
1 14 -45 -200 10 0 -1 0 1 0 0 0 0 1 32449.dat
1 4 -30 -200 40 -1 0 0 0 -1 0 0 0 1 32062.dat
1 14 -35 -200 10 0 -1 0 1 0 0 0 0 1 32449.dat
1 71 20 -200 -20 -1 0 0 0 -1 0 0 0 1 44294.dat
1 0 -30 -200 0 -1 0 0 0 -1 0 0 0 1 2780.dat
1 0 -20 -200 -20 0 1 0 -1 0 0 0 0 1 32523.dat
1 0 -20 -200 40 0 1 0 -1 0 0 0 0 1 60483.dat
1 0 -30 -200 -40 -1 0 0 0 -1 0 0 0 1 2780.dat
1 71 0 -200 -40 -1 0 0 0 1 0 0 0 -1 32039.dat
1 71 20 -200 -20 0 0 -1 -1 0 0 0 1 0 3713.dat
1 71 40 -200 -40 -1 0 0 0 1 0 0 0 -1 32039.dat
1 1 0 -200 -50 0 0 -1 0 1 0 1 0 0 43093.dat
1 1 40 -200 -50 0 0 -1 0 1 0 1 0 0 43093.dat
1 0 -20 -200 60 -1 0 0 0 -1 0 0 0 1 32054.dat
1 71 20 -200 60 -1 0 0 0 -1 0 0 0 1 4519.dat
1 0 60 -200 60 1 0 0 0 1 0 0 0 1 32054.dat
1 14 85 -200 10 0 -1 0 1 0 0 0 0 1 32449.dat
1 14 75 -200 10 0 -1 0 1 0 0 0 0 1 32449.dat
1 4 70 -200 40 -1 0 0 0 -1 0 0 0 1 32062.dat
1 0 60 -200 40 0 1 0 -1 0 0 0 0 1 60483.dat
1 0 60 -200 -20 0 1 0 -1 0 0 0 0 1 32523.dat
1 0 70 -200 0 -1 0 0 0 -1 0 0 0 1 2780.dat
1 0 70 -200 -40 -1 0 0 0 -1 0 0 0 1 2780.dat
1 14 80 -83.288 -59.728 0 0 1 0.9860000000000001 0.164 0 -0.164 0.9860000000000001 0 6536.dat
1 14 -40 -83.288 -59.728 0 0 1 0.9860000000000001 0.164 0 -0.164 0.9860000000000001 0 6536.dat
1 0 -40 -130.983 -51.77900000000001 0 0 1 0.9860000000000001 0.164 0 -0.164 0.9860000000000001 0 3706.dat
1 0 80 -130.975 -51.78000000000001 0 0 1 0.9860000000000001 0.164 0 -0.164 0.9860000000000001 0 3706.dat
1 0 80 -200.02300000000002 -40.272 1 0 0 0 0.164 -0.9860000000000001 0 0.9860000000000001 0.164 32013.dat
1 0 -40 -200.03100000000003 -40.271 1 0 0 0 0.164 -0.9860000000000001 0 0.9860000000000001 0.164 32013.dat
1 0 20 -200 -60 0 0 1 1 0 0 0 1 0 32316.dat
1 47 -20 -200 -70 0 0 -1 1 0 0 0 -1 0 6141.dat
1 47 60 -200 -70 0 0 -1 1 0 0 0 -1 0 6141.dat
1 72 20 -90 100 0 1 0 1 0 0 0 0 -1 55013.dat
1 14 20 -20 100 1 0 0 0 0 1 0 -1 0 42003.dat
1 71 20 -50 100 1 0 0 0 0 1 0 -1 0 4716.dat
1 14 20 -80 100 1 0 0 0 0 1 0 -1 0 42003.dat
1 71 20 -80 120 1 0 0 0 0 1 0 -1 0 4519.dat
1 14 40 -80 120 0 1 0 0 0 1 1 0 0 32140.dat
1 1 20 -20 140 -1 0 0 0 -0.8660000000000001 0.5 0 0.5 0.8660000000000001 6558.dat
1 71 20 -20 120 1 0 0 0 0 1 0 -1 0 4519.dat
1 71 20 -100 100 1 0 0 0 0 1 0 -1 0 3713.dat
1 0 20 -170 100 1 0 0 0 0 1 0 -1 0 59443.dat
1 0 20 -60 120 1 0 0 0 0.8160000000000001 0.579 0 -0.579 0.8160000000000001 3705.dat
1 72 20 -60 120 0 0 -1 -0.8160000000000001 0.579 0 0.579 0.8160000000000001 0 10928.dat
1 14 20 -106.60300000000001 190 0 1 0 -0.5 0 -0.8660000000000001 -0.8660000000000001 0 0.5 32525.dat
1 14 0 -80 120 0 1 0 0 0 1 1 0 0 32140.dat
1 14 55 -84.465 137.363 0 1 0 -0.579 0 -0.8160000000000001 -0.8160000000000001 0 0.579 32449.dat
1 0 20 -108.93 154.725 1 0 0 0 -0.579 0.8160000000000001 0 -0.8160000000000001 -0.579 3705.dat
1 71 40 -90.44600000000001 162.363 0 -1 0 -0.38200000000000006 0 -0.9240000000000002 0.9240000000000002 0 -0.38200000000000006 32523.dat
1 71 20 -108.93 154.725 0 0 -1 -0.8160000000000001 0.579 0 0.579 0.8160000000000001 0 3713.dat
1 19 20 -71.96200000000002 170 -1 0 0 0 0.072 0.9970000000000001 0 0.9970000000000001 -0.072 32556.dat
1 71 0 -90.44600000000001 162.363 0 -1 0 -0.38200000000000006 0 -0.9240000000000002 0.9240000000000002 0 -0.38200000000000006 32523.dat
1 14 -15 -84.465 137.363 0 1 0 -0.579 0 -0.8160000000000001 -0.8160000000000001 0 0.579 32449.dat
1 72 50 -158.56400000000002 220 -1 0 0 0 -0.636 0.771 0 0.771 0.636 87083.dat
1 14 40 -96.85200000000002 270.908 0 1 0 0.636 0 -0.771 -0.771 0 -0.636 40490.dat
1 0 60 -158.56400000000002 220 0 -1 0 0.636 0 0.771 -0.771 0 0.636 33299.dat
1 0 80 -158.56400000000002 220 0 0 1 0.636 0.771 0 -0.771 0.636 0 32270.dat
1 0 20 -193.20499999999998 240 -1 0 0 0 -0.255 -0.9670000000000001 0 -0.9670000000000001 0.255 32054.dat
1 0 30 -35.141 321.817 -1 0 0 0 0.657 0.7540000000000001 0 0.7540000000000001 -0.657 2780.dat
1 71 20 -17.061000000000007 300.06600000000003 0 0 -1 -0.092 -0.9960000000000001 0 -0.9960000000000001 0.092 0 63869.dat
1 0 10 -38.812 281.986 -1 0 0 0 0.9670000000000001 -0.254 0 -0.254 -0.9670000000000001 2780.dat
1 71 20 -17.061000000000007 300.06600000000003 0 -1 0 0.092 0 -0.9960000000000001 0.9960000000000001 0 0.092 4519.dat
1 0 20 -20.732 260.23400000000004 1 0 0 0 0.8460000000000001 0.534 0 -0.534 0.8460000000000001 30394.dat
1 0 20 -19.813999999999993 270.192 1 0 0 0 0.9960000000000001 0.092 0 -0.092 0.9960000000000001 30552.dat
1 14 0 -116.00900000000001 260.993 0 1 0 -0.262 0 0.9650000000000001 0.9650000000000001 0 0.262 40490.dat
1 0 20 -10 80 0 1 0 -1 0 0 0 0 1 2780.dat
1 1 20 -90 80 0 1 0 -1 0 0 0 0 1 43093.dat
1 71 20 -100 80 0 0 1 -1 0 0 0 -1 0 63869.dat
1 71 20 -80 60 -1 0 0 0 1 0 0 0 -1 60485.dat
1 71 60 -80 60 0 0 -1 -1 0 0 0 1 0 3713.dat
1 71 -20 -80 60 0 0 -1 -1 0 0 0 1 0 3713.dat
1 14 80 -83.288 79.728 0 0 1 -0.9860000000000001 0.164 0 -0.164 -0.9860000000000001 0 6536.dat
1 14 -40 -83.288 79.728 0 0 1 -0.9860000000000001 0.164 0 -0.164 -0.9860000000000001 0 6536.dat
1 0 80 -130.975 71.78 0 0 1 0.9860000000000001 -0.164 0 0.164 0.9860000000000001 0 3706.dat
1 0 80 -200.02300000000002 60.272000000000006 1 0 0 0 -0.164 -0.9860000000000001 0 0.9860000000000001 -0.164 32013.dat
1 0 -40 -130.975 71.78 0 0 1 0.9860000000000001 -0.164 0 0.164 0.9860000000000001 0 3706.dat
1 0 -40 -200.02300000000002 60.272000000000006 1 0 0 0 -0.164 -0.9860000000000001 0 0.9860000000000001 -0.164 32013.dat
1 14 100 -80 60 0 1 0 1 0 0 0 0 -1 32348.dat
1 14 -60 -80 60 0 1 0 1 0 0 0 0 -1 32348.dat
1 14 -40 -87.32100000000001 -167.321 0 -1 0 -0.8660000000000001 0 0.5 -0.5 0 -0.8660000000000001 32526.dat
1 0 -30 -87.32100000000001 -167.321 1 0 0 0 -0.8660000000000001 0.5 0 -0.5 -0.8660000000000001 2780.dat
1 0 -30 -47.321 -236.601 1 0 0 0 -0.8660000000000001 0.5 0 -0.5 -0.8660000000000001 2780.dat
1 0 -30 -57.321 -219.281 1 0 0 0 -0.8660000000000001 0.5 0 -0.5 -0.8660000000000001 2780.dat
1 14 -25 -37.321 -253.921 0 1 0 0.8660000000000001 0 0.5 0.5 0 -0.8660000000000001 32017.dat
1 14 -25 -82.32100000000001 -175.981 0 1 0 0.8660000000000001 0 0.5 0.5 0 -0.8660000000000001 32449.dat
1 1 -30 -67.321 -201.961 1 0 0 0 -0.8660000000000001 0.5 0 -0.5 -0.8660000000000001 43093.dat
1 14 -15 -67.321 -201.961 0 1 0 0.8660000000000001 0 0.5 0.5 0 -0.8660000000000001 32065.dat
1 4 -30 -97.32100000000001 -150.001 -1 0 0 0 0.8660000000000001 0.5 0 0.5 -0.8660000000000001 32062.dat
1 71 -35 -80.00100000000002 -140.001 0 -1 0 -0.5 0 -0.8660000000000001 0.8660000000000001 0 -0.5 41677.dat
1 71 -45 -80.00100000000002 -140.001 0 -1 0 -0.5 0 -0.8660000000000001 0.8660000000000001 0 -0.5 41677.dat
1 19 -30 -81.96200000000002 -256.603 1 0 0 0 -0.07688800000000001 0.997132 0 -0.997132 -0.07688800000000001 3749.dat
1 14 -25 -81.96200000000002 -256.603 0 0 1 -0.997132 -0.07688800000000001 0 0.07688800000000001 -0.997132 0 32123b.dat
1 14 -15 -81.96200000000002 -256.603 0 -1 0 0.07688800000000001 0 -0.997132 0.997132 0 0.07688800000000001 6632.dat
1 4 0 -121.84362 -253.54114000000004 1 0 0 0 0.07688800000000001 -0.997132 0 0.997132 0.07688800000000001 32062.dat
1 14 -5 -88.90123600000001 -276.229422 0 1 0 -0.566914 0 -0.8239020000000001 -0.8239020000000001 0 0.566914 32017.dat
1 0 20 -121.84362 -253.54114000000004 0 0 -1 0.997132 -0.07688800000000001 0 -0.07688800000000001 -0.997132 0 59443.dat
1 4 40 -121.84362 -253.54114000000004 1 0 0 0 0.07688800000000001 -0.997132 0 0.997132 0.07688800000000001 32062.dat
1 14 45 -88.90123600000001 -276.229422 0 1 0 -0.566914 0 -0.8239020000000001 -0.8239020000000001 0 0.566914 32017.dat
1 14 55 -81.96200000000002 -256.603 0 -1 0 0.07688800000000001 0 -0.997132 0.997132 0 0.07688800000000001 6632.dat
1 71 80 -81.96200000000002 -256.603 1 0 0 0 0.07688800000000001 -0.997132 0 0.997132 0.07688800000000001 4519.dat
1 14 65 -81.96200000000002 -256.603 0 0 1 -0.997132 -0.07688800000000001 0 0.07688800000000001 -0.997132 0 32123b.dat
1 14 80 -87.32100000000001 -167.321 0 -1 0 -0.8660000000000001 0 0.5 -0.5 0 -0.8660000000000001 32526.dat
1 0 70 -47.321 -236.601 -1 0 0 0 0.8660000000000001 0.5 0 0.5 -0.8660000000000001 2780.dat
1 0 70 -57.321 -219.281 -1 0 0 0 0.8660000000000001 0.5 0 0.5 -0.8660000000000001 2780.dat
1 0 70 -87.32100000000001 -167.321 -1 0 0 0 0.8660000000000001 0.5 0 0.5 -0.8660000000000001 2780.dat
1 14 65 -37.321 -253.921 0 1 0 0.8660000000000001 0 0.5 0.5 0 -0.8660000000000001 32017.dat
1 1 70 -67.321 -201.961 -1 0 0 0 0.8660000000000001 0.5 0 0.5 -0.8660000000000001 43093.dat
1 14 65 -82.32100000000001 -175.981 0 1 0 0.8660000000000001 0 0.5 0.5 0 -0.8660000000000001 32449.dat
1 14 55 -67.321 -201.961 0 1 0 0.8660000000000001 0 0.5 0.5 0 -0.8660000000000001 32065.dat
1 4 70 -97.32100000000001 -150.001 1 0 0 0 -0.8660000000000001 0.5 0 -0.5 -0.8660000000000001 32062.dat
1 71 75 -80.00100000000002 -140.001 0 1 0 0.5 0 -0.8660000000000001 -0.8660000000000001 0 -0.5 41677.dat
1 71 85 -80.00100000000002 -140.001 0 1 0 0.5 0 -0.8660000000000001 -0.8660000000000001 0 -0.5 41677.dat
1 0 100 -81.96200000000002 -256.603 0 0 -1 0.077 0.9970000000000001 0 0.9970000000000001 -0.077 0 32270.dat
1 71 20 -17.321 -288.564 1 0 0 0 -0.259 -0.9660000000000001 0 0.9660000000000001 -0.259 44294.dat
1 0 20 -17.321 -288.564 1 0 0 0 0.9660000000000001 -0.259 0 0.259 0.9660000000000001 2951.dat
1 71 80 -17.321 -288.564 0 0 -1 0.259 -0.9660000000000001 0 -0.9660000000000001 -0.259 0 3713.dat
1 71 -40 -17.321 -288.564 0 0 -1 0.259 -0.9660000000000001 0 -0.9660000000000001 -0.259 0 3713.dat
1 71 60 -55.958000000000006 -298.91700000000003 1 0 0 0 -0.9420000000000001 -0.335 0 0.335 -0.9420000000000001 4274.dat
1 71 -20 -55.958000000000006 -298.91700000000003 -1 0 0 0 0.21500000000000002 -0.9770000000000001 0 -0.9770000000000001 -0.21500000000000002 4274.dat
1 14 110 0 -160 0 0 1 0 -1 0 1 0 0 56145.dat
1 256 110 0 -160 0 0 1 0 -1 0 1 0 0 61481.dat
1 14 110 0 40 0 0 1 0 -1 0 1 0 0 56145.dat
1 256 110 0 40 0 0 1 0 -1 0 1 0 0 61481.dat
1 14 -70 0 40 0 0 -1 0 1 0 1 0 0 56145.dat
1 256 -70 0 40 0 0 -1 0 1 0 1 0 0 61481.dat
1 14 -70 0 -160 0 0 -1 0 1 0 1 0 0 56145.dat
1 256 -70 0 -160 0 0 -1 0 1 0 1 0 0 61481.dat
1 14 115 0 -160 0 0 -1 0 1 0 1 0 0 32123b.dat
1 14 115 0 40 0 0 -1 0 1 0 1 0 0 32123b.dat
1 14 -75 0 40 0 0 -1 0 1 0 1 0 0 32123b.dat
1 14 -75 0 -160 0 0 -1 0 1 0 1 0 0 32123b.dat
