1 29 17 -96.00000000000001 -220 -0.48300000000000004 0.259 -0.8360000000000001 0.129 0.9660000000000001 0.22400000000000003 0.8660000000000001 0 -0.5 3795.dat
1 71 -9.219 -97.25700000000002 -176.699 -0.8360000000000001 0.259 0.48300000000000004 0.22400000000000003 0.9660000000000001 -0.129 -0.5 0 -0.8660000000000001 14704.dat
1 272 0.441 -99.845 -194.019 -0.8360000000000001 0.259 0.48300000000000004 0.22400000000000003 0.9660000000000001 -0.129 -0.5 0 -0.8660000000000001 3023.dat
1 4 -6.46 -106.278 -185.359 -0.8360000000000001 0.259 0.48300000000000004 0.22400000000000003 0.9660000000000001 -0.129 -0.5 0 -0.8660000000000001 3022.dat
1 4 -8.53 -114.006 -185.359 -0.8360000000000001 0.259 0.48300000000000004 0.22400000000000003 0.9660000000000001 -0.129 -0.5 0 -0.8660000000000001 4032a.dat
1 272 -5.771000000000001 -123.02700000000002 -194.019 -0.8360000000000001 0.259 0.48300000000000004 0.22400000000000003 0.9660000000000001 -0.129 -0.5 0 -0.8660000000000001 3023.dat
1 71 -15.430000000000001 -120.43900000000001 -176.699 -0.8360000000000001 0.259 0.48300000000000004 0.22400000000000003 0.9660000000000001 -0.129 -0.5 0 -0.8660000000000001 14704.dat
1 4 -4.306 -131.702 -180.359 -0.48300000000000004 0.259 -0.8360000000000001 0.129 0.9660000000000001 0.22400000000000003 0.8660000000000001 0 -0.5 44728.dat
1 4 -21.036 -127.219 -190.359 0.48300000000000004 0.259 0.8360000000000001 -0.129 0.9660000000000001 -0.22400000000000003 -0.8660000000000001 0 0.5 44728.dat
1 4 -1.718 -132.396 -225 0.48300000000000004 0.259 0.8360000000000001 -0.129 0.9660000000000001 -0.22400000000000003 -0.8660000000000001 0 0.5 22885.dat
1 4 -14.187000000000001 -118.702 -234.00000000000003 0.48300000000000004 0.8360000000000001 -0.259 -0.129 -0.22400000000000003 -0.9660000000000001 -0.8660000000000001 0.5 0 3023.dat
1 272 -19.017 -117.408 -225.34000000000003 -0.259 0.8360000000000001 -0.48300000000000004 -0.9660000000000001 -0.22400000000000003 0.129 0 0.5 0.8660000000000001 54200.dat
1 272 -9.358 -119.99600000000001 -242.66000000000003 -0.259 0.8360000000000001 -0.48300000000000004 -0.9660000000000001 -0.22400000000000003 0.129 0 0.5 0.8660000000000001 54200.dat
1 4 15.012 -136.878 -215 -0.48300000000000004 0.259 -0.8360000000000001 0.129 0.9660000000000001 0.22400000000000003 0.8660000000000001 0 -0.5 22885.dat
1 4 32.658 -131.254 -206 -0.48300000000000004 -0.8360000000000001 -0.259 0.129 0.22400000000000003 -0.9660000000000001 0.8660000000000001 -0.5 0 3023.dat
1 272 27.829 -129.96000000000004 -197.34000000000003 0.259 -0.8360000000000001 -0.48300000000000004 0.9660000000000001 0.22400000000000003 0.129 0 -0.5 0.8660000000000001 54200.dat
1 272 37.488 -132.548 -214.66000000000003 0.259 -0.8360000000000001 -0.48300000000000004 0.9660000000000001 0.22400000000000003 0.129 0 -0.5 0.8660000000000001 54200.dat
1 4 37.007 -117.92500000000001 -263.30100000000004 0.8360000000000001 0.259 -0.48300000000000004 -0.22400000000000003 0.9660000000000001 0.129 0.5 0 0.8660000000000001 99206.dat
1 272 27.348 -115.33700000000002 -245.98100000000002 -0.8360000000000001 0.259 0.48300000000000004 0.22400000000000003 0.9660000000000001 -0.129 -0.5 0 -0.8660000000000001 3023.dat
1 4 29.501000000000005 -140.761 -240.98100000000002 -0.48300000000000004 0.259 -0.8360000000000001 0.129 0.9660000000000001 0.22400000000000003 0.8660000000000001 0 -0.5 6541.dat
1 0 40.455 -133.343 -235.98100000000002 0.8360000000000001 0.259 -0.48300000000000004 -0.22400000000000003 0.9660000000000001 0.129 0.5 0 0.8660000000000001 2780.dat
1 4 12.771 -136.27800000000002 -250.98100000000002 0.48300000000000004 0.259 0.8360000000000001 -0.129 0.9660000000000001 -0.22400000000000003 -0.8660000000000001 0 0.5 6541.dat
1 0 6.994 -124.377 -255.98100000000002 -0.8360000000000001 0.259 0.48300000000000004 0.22400000000000003 0.9660000000000001 -0.129 -0.5 0 -0.8660000000000001 2780.dat
1 19 39.16 -143.349 -258.30100000000004 0.8360000000000001 0.259 -0.48300000000000004 -0.22400000000000003 0.9660000000000001 0.129 0.5 0 0.8660000000000001 26604.dat
1 19 22.43 -138.866 -268.30100000000004 0.48300000000000004 0.259 0.8360000000000001 -0.129 0.9660000000000001 -0.22400000000000003 -0.8660000000000001 0 0.5 26604.dat
1 4 14.236000000000002 -144.953 -237.32100000000003 0.48300000000000004 0.259 0.8360000000000001 -0.129 0.9660000000000001 -0.22400000000000003 -0.8660000000000001 0 0.5 3020.dat
1 42 57.185 -137.826 -225.98100000000002 0.48300000000000004 -0.8360000000000001 0.259 -0.129 0.22400000000000003 0.9660000000000001 -0.8660000000000001 -0.5 0 30374.dat
1 72 48.82000000000001 -135.584 -230.98100000000002 0.259 -0.8360000000000001 -0.48300000000000004 0.9660000000000001 0.22400000000000003 0.129 0 -0.5 0.8660000000000001 18654.dat
1 72 -1.371 -122.136 -260.981 0.259 -0.8360000000000001 -0.48300000000000004 0.9660000000000001 0.22400000000000003 0.129 0 -0.5 0.8660000000000001 18654.dat
1 272 6.819000000000001 -142.96500000000003 -184.019 -0.48300000000000004 0.259 -0.8360000000000001 0.129 0.9660000000000001 0.22400000000000003 0.8660000000000001 0 -0.5 92946.dat
1 272 -2.841 -140.377 -166.699 -0.48300000000000004 0.259 -0.8360000000000001 0.129 0.9660000000000001 0.22400000000000003 0.8660000000000001 0 -0.5 92946.dat
1 272 -26.643000000000004 -133.999 -204.019 0.48300000000000004 0.259 0.8360000000000001 -0.129 0.9660000000000001 -0.22400000000000003 -0.8660000000000001 0 0.5 92946.dat
1 272 -36.30200000000001 -131.411 -186.699 0.48300000000000004 0.259 0.8360000000000001 -0.129 0.9660000000000001 -0.22400000000000003 -0.8660000000000001 0 0.5 92946.dat
1 71 -7.1530000000000005 -147.504 -202.679 0.48300000000000004 0.259 0.8360000000000001 -0.129 0.9660000000000001 -0.22400000000000003 -0.8660000000000001 0 0.5 3020.dat
1 272 -18.883000000000003 -152.643 -185.359 0.48300000000000004 0.259 0.8360000000000001 -0.129 0.9660000000000001 -0.22400000000000003 -0.8660000000000001 0 0.5 3068b.dat
1 4 42.077 -133.77800000000002 -278.89 0.8360000000000001 -0.48300000000000004 -0.259 -0.22400000000000003 0.129 -0.9660000000000001 0.5 0.8660000000000001 0 3023.dat
1 19 47.253 -114.45900000000002 -278.89 0.8360000000000001 -0.48300000000000004 -0.259 -0.22400000000000003 0.129 -0.9660000000000001 0.5 0.8660000000000001 0 15208.dat
1 15 49.804 -135.848 -292.746 0.8360000000000001 -0.48300000000000004 -0.259 -0.22400000000000003 0.129 -0.9660000000000001 0.5 0.8660000000000001 0 47457.dat
1 272 49.804 -135.848 -292.746 0.8360000000000001 -0.48300000000000004 -0.259 -0.22400000000000003 0.129 -0.9660000000000001 0.5 0.8660000000000001 0 85984.dat
1 272 0.436 -157.81900000000002 -220 0.8360000000000001 0.259 -0.48300000000000004 -0.22400000000000003 0.9660000000000001 0.129 0.5 0 0.8660000000000001 43712.dat
1 4 -3.007 -74.075 -176.699 0.8360000000000001 0.259 -0.48300000000000004 -0.22400000000000003 0.9660000000000001 0.129 0.5 0 0.8660000000000001 3023.dat
1 4 -0.24800000000000003 -83.09600000000002 -185.359 0.8360000000000001 0.259 -0.48300000000000004 -0.22400000000000003 0.9660000000000001 0.129 0.5 0 0.8660000000000001 4032a.dat
1 15 3.893 -67.641 -185.359 0.8360000000000001 0.259 -0.48300000000000004 -0.22400000000000003 0.9660000000000001 0.129 0.5 0 0.8660000000000001 3022.dat
1 15 6.652 -76.663 -194.019 0.8360000000000001 0.259 -0.48300000000000004 -0.22400000000000003 0.9660000000000001 0.129 0.5 0 0.8660000000000001 48336.dat
1 15 14.329 -62.155 -180.359 -0.48300000000000004 0.259 -0.8360000000000001 0.129 0.9660000000000001 0.22400000000000003 0.8660000000000001 0 -0.5 99207.dat
1 15 -2.401 -57.673 -190.359 0.48300000000000004 0.259 0.8360000000000001 -0.129 0.9660000000000001 -0.22400000000000003 -0.8660000000000001 0 0.5 99207.dat
1 4 -31.675000000000004 -93.31000000000002 -201.35900000000004 -0.259 0.8360000000000001 -0.48300000000000004 -0.9660000000000001 -0.22400000000000003 0.129 0 0.5 0.8660000000000001 3021.dat
1 19 -9.011 -99.383 -234.00000000000003 0.48300000000000004 0.8360000000000001 -0.259 -0.129 -0.22400000000000003 -0.9660000000000001 -0.8660000000000001 0.5 0 15208.dat
1 272 -39.093 -101.67500000000001 -192.69900000000004 -0.259 0.8360000000000001 -0.48300000000000004 -0.9660000000000001 -0.22400000000000003 0.129 0 0.5 0.8660000000000001 85984.dat
1 272 -29.434000000000005 -104.26400000000001 -210.01900000000003 -0.259 0.8360000000000001 -0.48300000000000004 -0.9660000000000001 -0.22400000000000003 0.129 0 0.5 0.8660000000000001 85984.dat
1 15 -17.219 -66.126 -197.359 0.48300000000000004 0.8360000000000001 -0.259 -0.129 -0.22400000000000003 -0.9660000000000001 -0.8660000000000001 0.5 0 15068.dat
1 272 21.482 -128.259 -281.962 -0.259 0.8360000000000001 -0.48300000000000004 -0.9660000000000001 -0.22400000000000003 0.129 0 0.5 0.8660000000000001 11477.dat
1 272 9.961 -125.17200000000001 -277.301 -0.259 0.8360000000000001 -0.48300000000000004 -0.9660000000000001 -0.22400000000000003 0.129 0 0.5 0.8660000000000001 3024.dat
1 15 -8.285 -89.225 -246.66 -0.259 0.8360000000000001 -0.48300000000000004 -0.9660000000000001 -0.22400000000000003 0.129 0 0.5 0.8660000000000001 43722.dat
1 15 26.659000000000002 -108.94100000000002 -281.962 -0.259 0.8360000000000001 -0.48300000000000004 -0.9660000000000001 -0.22400000000000003 0.129 0 0.5 0.8660000000000001 29119.dat
1 19 10.308 -104.56000000000002 -268.641 0.48300000000000004 0.8360000000000001 -0.259 -0.129 -0.22400000000000003 -0.9660000000000001 -0.8660000000000001 0.5 0 15208.dat
1 4 21.862 -107.656 -169.359 -0.259 -0.8360000000000001 0.48300000000000004 -0.9660000000000001 0.22400000000000003 -0.129 0 -0.5 -0.8660000000000001 3021.dat
1 19 37.835 -111.935 -206 -0.48300000000000004 -0.8360000000000001 -0.259 0.129 0.22400000000000003 -0.9660000000000001 0.8660000000000001 -0.5 0 15208.dat
1 272 14.444 -116.021 -160.699 0.259 -0.8360000000000001 -0.48300000000000004 0.9660000000000001 0.22400000000000003 0.129 0 -0.5 0.8660000000000001 85984.dat
1 272 24.103 -118.60900000000001 -178.019 0.259 -0.8360000000000001 -0.48300000000000004 0.9660000000000001 0.22400000000000003 0.129 0 -0.5 0.8660000000000001 85984.dat
1 15 22.935 -76.88500000000002 -173.35900000000004 -0.48300000000000004 -0.8360000000000001 -0.259 0.129 0.22400000000000003 -0.9660000000000001 0.8660000000000001 -0.5 0 15068.dat
1 272 56.806 -137.724 -249.301 0.259 -0.8360000000000001 -0.48300000000000004 0.9660000000000001 0.22400000000000003 0.129 0 -0.5 0.8660000000000001 3024.dat
1 272 54.944 -137.225 -261.962 0.259 -0.8360000000000001 -0.48300000000000004 0.9660000000000001 0.22400000000000003 0.129 0 -0.5 0.8660000000000001 11477.dat
1 15 51.94400000000001 -105.363 -210.66000000000003 0.259 -0.8360000000000001 -0.48300000000000004 0.9660000000000001 0.22400000000000003 0.129 0 -0.5 0.8660000000000001 43723.dat
1 15 60.120000000000005 -117.90700000000001 -261.962 0.259 -0.8360000000000001 -0.48300000000000004 0.9660000000000001 0.22400000000000003 0.129 0 -0.5 0.8660000000000001 29120.dat
1 19 57.153 -117.112 -240.641 -0.48300000000000004 -0.8360000000000001 -0.259 0.129 0.22400000000000003 -0.9660000000000001 0.8660000000000001 -0.5 0 15208.dat
1 15 35.44 -42.499 -226.86800000000002 0.8360000000000001 0.078 -0.543 -0.22400000000000003 0.9520000000000001 -0.20900000000000002 0.5 0.29600000000000004 0.8140000000000001 2654.dat
1 19 36.498 -69.677 -220.83200000000002 -0.543 0.078 -0.8360000000000001 -0.20900000000000002 0.9520000000000001 0.22400000000000003 0.8140000000000001 0.29600000000000004 -0.5 26604.dat
1 19 19.778 -65.197 -230.83200000000002 -0.8360000000000001 0.078 0.543 0.22400000000000003 0.9520000000000001 0.20900000000000002 -0.5 0.29600000000000004 -0.8140000000000001 26604.dat
1 19 47.358000000000004 -65.497 -237.11200000000002 0.8360000000000001 0.078 -0.543 -0.22400000000000003 0.9520000000000001 -0.20900000000000002 0.5 0.29600000000000004 0.8140000000000001 26604.dat
1 19 30.638 -61.017 -247.11200000000002 0.543 0.078 0.8360000000000001 0.20900000000000002 0.9520000000000001 -0.22400000000000003 -0.8140000000000001 0.29600000000000004 0.5 26604.dat
1 4 27.514 -75.053 -228.2 -0.8360000000000001 0.078 0.543 0.22400000000000003 0.9520000000000001 0.20900000000000002 -0.5 0.29600000000000004 -0.8140000000000001 60470b.dat
1 29 33.568 -65.34700000000001 -233.97199999999998 0.8360000000000001 0.078 -0.543 -0.22400000000000003 0.9520000000000001 -0.20900000000000002 0.5 0.29600000000000004 0.8140000000000001 15068.dat
1 19 49.55200000000001 -49.97500000000001 -253.80400000000003 -0.8360000000000001 -0.543 0.078 0.22400000000000003 -0.20900000000000002 0.9520000000000001 -0.5 0.8140000000000001 0.29600000000000004 15208.dat
1 15 49.55200000000001 -49.97500000000001 -253.80400000000003 0.8360000000000001 -0.543 -0.078 -0.22400000000000003 -0.20900000000000002 -0.9520000000000001 0.5 0.8140000000000001 -0.29600000000000004 85984.dat
1 15 61.928 -56.127 -237.29200000000003 0.078 -0.8360000000000001 -0.543 0.9520000000000001 0.22400000000000003 -0.20900000000000002 0.29600000000000004 -0.5 0.8140000000000001 29120.dat
1 15 40.208000000000006 -64.487 -204.73200000000003 -0.078 -0.8360000000000001 0.543 -0.9520000000000001 0.22400000000000003 0.20900000000000002 -0.29600000000000004 -0.5 -0.8140000000000001 29119.dat
1 19 57.75600000000001 -62.09900000000001 -217.012 0.543 -0.8360000000000001 0.078 0.20900000000000002 0.22400000000000003 0.9520000000000001 -0.8140000000000001 -0.5 0.29600000000000004 15208.dat
1 19 10.940000000000001 -49.55500000000001 -245.012 -0.543 0.8360000000000001 0.078 -0.20900000000000002 -0.22400000000000003 0.9520000000000001 0.8140000000000001 0.5 0.29600000000000004 15208.dat
1 15 28.488000000000003 -47.167 -257.292 -0.078 0.8360000000000001 -0.543 -0.9520000000000001 -0.22400000000000003 -0.20900000000000002 -0.29600000000000004 0.5 0.8140000000000001 29119.dat
1 15 6.768000000000001 -55.52700000000001 -224.73200000000003 0.078 0.8360000000000001 0.543 0.9520000000000001 -0.22400000000000003 0.20900000000000002 0.29600000000000004 0.5 -0.8140000000000001 29120.dat
1 15 -21.74 -52.491 -121.791 0.33 0.259 0.908 -0.089 0.9660000000000001 -0.24300000000000002 -0.94 0 0.342 3020.dat
1 15 -21.355999999999998 -77.455 -140.591 0.33 0.259 0.908 -0.089 0.9660000000000001 -0.24300000000000002 -0.94 0 0.342 4871.dat
1 15 -41.156 -72.115 -84.191 0.33 0.259 0.908 -0.089 0.9660000000000001 -0.24300000000000002 -0.94 0 0.342 72454.dat
1 4 -36.628 -81.623 -102.99100000000001 0.33 0.259 0.908 -0.089 0.9660000000000001 -0.24300000000000002 -0.94 0 0.342 3001.dat
1 15 -9.387999999999998 -88.913 -92.731 0.33 0.259 0.908 -0.089 0.9660000000000001 -0.24300000000000002 -0.94 0 0.342 3666.dat
1 15 -63.86800000000001 -74.333 -113.251 0.33 0.259 0.908 -0.089 0.9660000000000001 -0.24300000000000002 -0.94 0 0.342 3666.dat
1 15 -72.54000000000002 -80.281 -94.45100000000002 0.33 0.259 0.908 -0.089 0.9660000000000001 -0.24300000000000002 -0.94 0 0.342 3710.dat
1 72 -52.74 -85.62100000000001 -150.851 0.33 0.259 0.908 -0.089 0.9660000000000001 -0.24300000000000002 -0.94 0 0.342 14417.dat
1 15 -18.059999999999995 -94.86099999999999 -73.93100000000001 0.33 0.259 0.908 -0.089 0.9660000000000001 -0.24300000000000002 -0.94 0 0.342 3710.dat
1 72 1.7400000000000058 -100.201 -130.331 -0.33 0.259 -0.908 0.089 0.9660000000000001 0.24300000000000002 0.94 0 -0.342 14417.dat
1 71 -32.099999999999994 -91.13100000000001 -121.791 0.908 0.259 -0.33 -0.24300000000000002 0.9660000000000001 0.089 0.342 0 0.94 31088 - 15456.dat
1 71 -45.300000000000004 -87.571 -84.191 -0.908 0.259 0.33 0.24300000000000002 0.9660000000000001 -0.089 -0.342 0 -0.94 31088 - 15456.dat
1 71 -13.531999999999996 -104.36900000000001 -92.731 0.33 0.259 0.908 -0.089 0.9660000000000001 -0.24300000000000002 -0.94 0 0.342 3666.dat
1 4 -34.172 -98.859 -121.791 0.908 0.259 -0.33 -0.24300000000000002 0.9660000000000001 0.089 0.342 0 0.94 4032a.dat
1 71 -68.012 -89.78899999999999 -113.251 0.33 0.259 0.908 -0.089 0.9660000000000001 -0.24300000000000002 -0.94 0 0.342 3666.dat
1 4 -47.37200000000001 -95.29899999999999 -84.191 0.908 0.259 -0.33 -0.24300000000000002 0.9660000000000001 0.089 0.342 0 0.94 4032a.dat
1 4 -42.84400000000001 -104.80699999999999 -102.99100000000001 0.33 0.259 0.908 -0.089 0.9660000000000001 -0.24300000000000002 -0.94 0 0.342 3020.dat
1 71 -38.316 -114.315 -121.791 0.908 0.259 -0.33 -0.24300000000000002 0.9660000000000001 0.089 0.342 0 0.94 31088 - 15456.dat
1 71 -51.51600000000001 -110.755 -84.191 -0.908 0.259 0.33 0.24300000000000002 0.9660000000000001 -0.089 -0.342 0 -0.94 31088 - 15456.dat
1 4 -46.988 -120.26299999999999 -102.99100000000001 0.33 0.259 0.908 -0.089 0.9660000000000001 -0.24300000000000002 -0.94 0 0.342 3020.dat
1 272 -19.747999999999998 -127.553 -92.731 0.33 0.259 0.908 -0.089 0.9660000000000001 -0.24300000000000002 -0.94 0 0.342 3009.dat
1 272 -74.22800000000001 -112.973 -113.251 0.33 0.259 0.908 -0.089 0.9660000000000001 -0.24300000000000002 -0.94 0 0.342 3009.dat
1 272 -57.31999999999999 -125.80100000000002 -138.031 0.33 0.259 0.908 -0.089 0.9660000000000001 -0.24300000000000002 -0.94 0 0.342 92946.dat
1 272 -63.919999999999995 -124.02100000000002 -119.231 0.33 0.259 0.908 -0.089 0.9660000000000001 -0.24300000000000002 -0.94 0 0.342 92946.dat
1 272 -70.52 -122.241 -100.43100000000001 0.33 0.259 0.908 -0.089 0.9660000000000001 -0.24300000000000002 -0.94 0 0.342 92946.dat
1 272 -77.12 -120.46100000000001 -81.631 0.33 0.259 0.908 -0.089 0.9660000000000001 -0.24300000000000002 -0.94 0 0.342 92946.dat
1 272 -40.8 -130.18099999999998 -67.951 -0.33 0.259 -0.908 0.089 0.9660000000000001 0.24300000000000002 0.94 0 -0.342 92946.dat
1 272 -34.2 -131.961 -86.751 -0.33 0.259 -0.908 0.089 0.9660000000000001 0.24300000000000002 0.94 0 -0.342 92946.dat
1 272 -27.599999999999998 -133.74099999999999 -105.55100000000002 -0.33 0.259 -0.908 0.089 0.9660000000000001 0.24300000000000002 0.94 0 -0.342 92946.dat
1 272 -20.999999999999996 -135.52100000000002 -124.351 -0.33 0.259 -0.908 0.089 0.9660000000000001 0.24300000000000002 0.94 0 -0.342 92946.dat
1 272 -50.72 -127.581 -156.831 0.33 0.259 0.908 -0.089 0.9660000000000001 -0.24300000000000002 -0.94 0 0.342 92946.dat
1 272 -83.72 -118.681 -62.83100000000001 0.33 0.259 0.908 -0.089 0.9660000000000001 -0.24300000000000002 -0.94 0 0.342 92946.dat
1 272 -47.400000000000006 -128.401 -49.150999999999996 -0.33 0.259 -0.908 0.089 0.9660000000000001 0.24300000000000002 0.94 0 -0.342 92946.dat
1 272 -14.399999999999997 -137.301 -143.151 -0.33 0.259 -0.908 0.089 0.9660000000000001 0.24300000000000002 0.94 0 -0.342 92946.dat
1 71 -60.212 -133.289 -106.41100000000002 -0.33 0.259 -0.908 0.089 0.9660000000000001 0.24300000000000002 0.94 0 -0.342 3666.dat
1 71 -42.05200000000001 -138.149 -99.571 -0.33 0.259 -0.908 0.089 0.9660000000000001 0.24300000000000002 0.94 0 -0.342 3666.dat
1 272 -66.404 -139.887 -65.39099999999999 -0.33 0.259 -0.908 0.089 0.9660000000000001 0.24300000000000002 0.94 0 -0.342 3068b.dat
1 272 -56.50400000000001 -142.557 -93.591 0.908 0.259 -0.33 -0.24300000000000002 0.9660000000000001 0.089 0.342 0 0.94 15573.dat
1 272 -49.904 -144.337 -112.391 0.908 0.259 -0.33 -0.24300000000000002 0.9660000000000001 0.089 0.342 0 0.94 15573.dat
1 272 -43.304 -146.117 -131.191 0.908 0.259 -0.33 -0.24300000000000002 0.9660000000000001 0.089 0.342 0 0.94 15573.dat
1 272 -36.704 -147.897 -149.99099999999999 0.908 0.259 -0.33 -0.24300000000000002 0.9660000000000001 0.089 0.342 0 0.94 15573.dat
1 71 45.987713 -98.970608 -106.63197400000001 -0.8147019999999999 -0.14942999999999998 0.560391 -0.20455399999999999 0.9779850000000001 -0.03778499999999999 -0.54271 -0.14466600000000002 -0.8276699999999999 14418.dat
1 71 -95.574935 -61.08545 -159.95182599999998 0.774298 0.618738 -0.13363100000000003 -0.629804 0.772407 -0.07642499999999999 0.05579000000000004 0.14466600000000002 0.9884100000000001 14418.dat
1 272 44.13068100000003 -104.003762 -83.49448600000001 -0.560391 -0.14942999999999998 -0.8147019999999999 0.03778499999999999 0.9779850000000001 -0.20455399999999999 0.8276699999999999 -0.14466600000000002 -0.54271 2450.dat
1 272 -110.95027100000001 -62.50082 -141.906034 -0.774298 0.618738 0.13363100000000003 0.629804 0.772407 0.07642499999999999 -0.05579000000000004 0.14466600000000002 -0.9884100000000001 2450.dat
1 272 -45.376000000000005 -153.845 -131.191 0.33 0.259 0.908 -0.089 0.9660000000000001 -0.24300000000000002 -0.94 0 0.342 3623.dat
1 272 -38.775999999999996 -155.625 -149.99099999999999 0.908 0.259 -0.33 -0.24300000000000002 0.9660000000000001 0.089 0.342 0 0.94 54200.dat
1 272 -50.748000000000005 -160.683 -121.791 0.33 0.259 0.908 -0.089 0.9660000000000001 -0.24300000000000002 -0.94 0 0.342 3023.dat
1 272 -66.47999999999999 -206.16100000000003 -112.391 0.908 0.259 -0.33 -0.24300000000000002 0.9660000000000001 0.089 0.342 0 0.94 60481.dat
1 272 -68.93599999999999 -188.925 -93.591 -0.908 0.259 0.33 0.24300000000000002 0.9660000000000001 -0.089 -0.342 0 -0.94 60481.dat
1 272 -75.152 -212.10899999999998 -93.591 0.908 0.259 -0.33 -0.24300000000000002 0.9660000000000001 0.089 0.342 0 0.94 3005.dat
1 272 -69.78 -205.27100000000004 -102.99100000000001 0.908 0.259 -0.33 -0.24300000000000002 0.9660000000000001 0.089 0.342 0 0.94 11477.dat
1 15 -51.951 -77.524 -15.346000000000004 -0.9510000000000001 0.259 0.16800000000000004 0.255 0.9660000000000001 -0.045 -0.174 0 -0.9850000000000001 42023.dat
1 15 -70.971 -72.424 -18.825999999999993 -0.9510000000000001 0.259 0.16800000000000004 0.255 0.9660000000000001 -0.045 -0.174 0 -0.9850000000000001 42023.dat
1 15 -76.973 -79.102 61.714 -0.9510000000000001 0.259 0.16800000000000004 0.255 0.9660000000000001 -0.045 -0.174 0 -0.9850000000000001 3022.dat
1 0 -60.743 -83.452 24.054000000000002 -0.16800000000000004 0.259 -0.9510000000000001 0.045 0.9660000000000001 0.255 0.9850000000000001 0 -0.174 2540.dat
1 0 -79.763 -78.352 20.573999999999998 0.16800000000000004 0.259 0.9510000000000001 -0.045 0.9660000000000001 -0.255 -0.9850000000000001 0 0.174 2540.dat
1 71 -75.685 -87.73000000000002 42.013999999999996 0.16800000000000004 0.259 0.9510000000000001 -0.045 0.9660000000000001 -0.255 -0.9850000000000001 0 0.174 3020.dat
1 272 -94.905 -72.22 -2.6060000000000088 -0.42058900000000005 -0.16800000000000004 -0.891669 -0.9071400000000001 0.045 0.41925899999999994 -0.030276 0.9850000000000001 -0.17139 44676.dat
1 272 -37.845 -87.52000000000001 7.833999999999996 0.08964100000000001 -0.16800000000000004 0.9818009999999999 0.9958800000000001 0.045 -0.083091 -0.030276 0.9850000000000001 0.17139 44676.dat
1 272 -79.437 -95.00800000000001 51.864 0.9510000000000001 0.259 -0.16800000000000004 -0.255 0.9660000000000001 0.045 0.174 0 0.9850000000000001 3023.dat
1 72 -82.797 -94.108 71.564 -0.9510000000000001 0.259 0.16800000000000004 0.255 0.9660000000000001 -0.045 -0.174 0 -0.9850000000000001 14417.dat
1 272 -83.189 -102.286 61.714 -0.9510000000000001 0.259 0.16800000000000004 0.255 0.9660000000000001 -0.045 -0.174 0 -0.9850000000000001 3022.dat
1 272 -69.031 -114.364 24.054000000000002 0.16800000000000004 0.259 0.9510000000000001 -0.045 0.9660000000000001 -0.255 -0.9850000000000001 0 0.174 3004.dat
1 272 -88.05100000000002 -109.26400000000001 20.573999999999998 0.16800000000000004 0.259 0.9510000000000001 -0.045 0.9660000000000001 -0.255 -0.9850000000000001 0 0.174 3004.dat
1 71 -61.852999999999994 -83.15200000000002 -26.936000000000007 0.9510000000000001 0.259 -0.16800000000000004 -0.255 0.9660000000000001 0.045 0.174 0 0.9850000000000001 14704.dat
1 4 -63.99100000000001 -115.714 -5.496000000000009 -0.16800000000000004 0.259 -0.9510000000000001 0.045 0.9660000000000001 0.255 0.9850000000000001 0 -0.174 32952.dat
1 4 -83.011 -110.614 -8.975999999999999 0.16800000000000004 0.259 0.9510000000000001 -0.045 0.9660000000000001 -0.255 -0.9850000000000001 0 0.174 32952.dat
1 4 -65.997 -98.608 -26.936000000000007 0.9510000000000001 0.259 -0.16800000000000004 -0.255 0.9660000000000001 0.045 0.174 0 0.9850000000000001 3023.dat
1 272 -63.925 -90.88 -26.936000000000007 0.9510000000000001 0.259 -0.16800000000000004 -0.255 0.9660000000000001 0.045 0.174 0 0.9850000000000001 3023.dat
1 71 -68.069 -106.33600000000001 -26.936000000000007 0.9510000000000001 0.259 -0.16800000000000004 -0.255 0.9660000000000001 0.045 0.174 0 0.9850000000000001 14704.dat
1 4 -70.14099999999999 -114.064 -26.936000000000007 0.9510000000000001 0.259 -0.16800000000000004 -0.255 0.9660000000000001 0.045 0.174 0 0.9850000000000001 3023.dat
1 15 -42.441 -80.07400000000001 -13.605999999999996 -0.16800000000000004 -0.9510000000000001 -0.259 0.045 0.255 -0.9660000000000001 0.9850000000000001 -0.174 0 15068.dat
1 272 -40.013 -101.434 -12.214 0.259 -0.9510000000000001 -0.16800000000000004 0.9660000000000001 0.255 0.045 0 -0.174 0.9850000000000001 3022.dat
1 272 -53.571 -108.154 6.093999999999995 -0.259 -0.9510000000000001 0.16800000000000004 -0.9660000000000001 0.255 -0.045 0 -0.174 -0.9850000000000001 11477.dat
1 272 -33.315 -113.58400000000002 -20.67200000000001 0.259 -0.9510000000000001 -0.16800000000000004 0.9660000000000001 0.255 0.045 0 -0.174 0.9850000000000001 3024.dat
1 272 -93.269 -87.15400000000001 -21.958 0.259 0.9510000000000001 0.16800000000000004 0.9660000000000001 -0.255 -0.045 0 0.174 -0.9850000000000001 3022.dat
1 272 -101.78699999999999 -95.22400000000002 -33.2 0.259 0.9510000000000001 0.16800000000000004 0.9660000000000001 -0.255 -0.045 0 0.174 -0.9850000000000001 3024.dat
1 272 -91.61100000000002 -97.95400000000001 -0.8659999999999997 0.259 0.9510000000000001 0.16800000000000004 0.9660000000000001 -0.255 -0.045 0 0.174 -0.9850000000000001 11477.dat
1 15 -80.481 -69.87400000000001 -20.566000000000003 0.16800000000000004 0.9510000000000001 -0.259 -0.045 -0.255 -0.9660000000000001 -0.9850000000000001 0.174 0 15068.dat
1 272 -85.083 -118.34200000000003 -8.975999999999999 0.16800000000000004 0.259 0.9510000000000001 -0.045 0.9660000000000001 -0.255 -0.9850000000000001 0 0.174 3623.dat
1 272 -66.06300000000002 -123.44200000000001 -5.496000000000009 0.16800000000000004 0.259 0.9510000000000001 -0.045 0.9660000000000001 -0.255 -0.9850000000000001 0 0.174 3623.dat
1 272 -75.965 -129.07 -17.086 0.16800000000000004 0.259 0.9510000000000001 -0.045 0.9660000000000001 -0.255 -0.9850000000000001 0 0.174 3068b.dat
1 272 -95.555 -123.82 40.274 -0.9510000000000001 0.259 0.16800000000000004 0.255 0.9660000000000001 -0.045 -0.174 0 -0.9850000000000001 61678.dat
1 272 -76.535 -128.92 43.754 -0.9510000000000001 0.259 0.16800000000000004 0.255 0.9660000000000001 -0.045 -0.174 0 -0.9850000000000001 61678.dat
1 0 -94.541 -107.504 116.26400000000001 0.308 -0.016 0.9510000000000001 0.8140000000000001 0.522 -0.255 -0.49300000000000005 0.853 0.174 44302a.dat
1 71 -106.98900000000002 -135.888 142.808 0.308 -0.016 0.9510000000000001 0.8140000000000001 0.522 -0.255 -0.49300000000000005 0.853 0.174 3666.dat
1 272 -109.94100000000002 -148.204 140.914 0.308 -0.016 0.9510000000000001 0.8140000000000001 0.522 -0.255 -0.49300000000000005 0.853 0.174 3623.dat
1 272 -122.38900000000001 -176.588 167.458 -0.9510000000000001 -0.016 0.308 0.255 0.522 0.8140000000000001 -0.174 0.853 -0.49300000000000005 54200.dat
1 272 -97.493 -119.82000000000001 114.36999999999999 0.308 -0.016 0.9510000000000001 0.8140000000000001 0.522 -0.255 -0.49300000000000005 0.853 0.174 3623.dat
1 71 -94.285 -115.85600000000001 102.61600000000001 0.308 -0.016 0.9510000000000001 0.8140000000000001 0.522 -0.255 -0.49300000000000005 0.853 0.174 14418.dat
1 272 -91.077 -111.89200000000001 90.862 0.9510000000000001 -0.016 -0.308 -0.255 0.522 -0.8140000000000001 0.174 0.853 0.49300000000000005 3024.dat
1 272 -106.477 -152.59199999999998 115.51200000000001 -0.9510000000000001 -0.016 0.308 0.255 0.522 0.8140000000000001 -0.174 0.853 -0.49300000000000005 61678.dat
1 15 -85.332 -65.17 127.96 0.021000000000000005 -0.308 -0.9510000000000001 -0.508 -0.823 0.255 -0.8610000000000001 0.47800000000000004 -0.174 44301.dat
1 272 -82.65799999999999 -63.66600000000001 115.526 -0.9510000000000001 -0.308 -0.021000000000000005 0.255 -0.823 0.508 -0.174 0.47800000000000004 0.8610000000000001 3024.dat
1 272 -80.824 -41.842 137.53199999999998 0.9510000000000001 -0.308 0.021000000000000005 -0.255 -0.823 -0.508 0.174 0.47800000000000004 -0.8610000000000001 61678.dat
1 272 -88.42599999999999 -56.51400000000001 157.61399999999998 0.021000000000000005 -0.308 -0.9510000000000001 -0.508 -0.823 0.255 -0.8610000000000001 0.47800000000000004 -0.174 3623.dat
1 19 0 0 0 -0.5 0 -0.8660000000000001 0 1 0 0.8660000000000001 0 -0.5 18646.dat
1 72 28.66 -24.000000000000004 -29.640000000000004 -0.5 0 -0.8660000000000001 0 1 0 0.8660000000000001 0 -0.5 3937.dat
1 72 -6.34 -24.000000000000004 30.980000000000004 -0.8660000000000001 0 0.5 0 1 0 -0.5 0 -0.8660000000000001 3040b.dat
1 72 10.98 -24.000000000000004 40.980000000000004 -0.8660000000000001 0 0.5 0 1 0 -0.5 0 -0.8660000000000001 3040b.dat
1 72 20.980000000000004 -24.000000000000004 23.66 -0.5 0 -0.8660000000000001 0 1 0 0.8660000000000001 0 -0.5 3040b.dat
1 0 32.319716 -23.063 -27.527000000000005 0.5 -0.366318 0.7845960000000002 0 0.9060000000000001 0.42300000000000004 -0.8660000000000001 -0.21150000000000002 0.45300000000000007 6134.dat
1 70 50.944778 -21.861 -16.773500000000002 0.7845960000000002 -0.366318 -0.5 0.42300000000000004 0.9060000000000001 0 0.45300000000000007 -0.21150000000000002 0.8660000000000001 30150.dat
1 19 7.320000000000001 -32 27.32 0.5 0 0.8660000000000001 0 1 0 -0.8660000000000001 0 0.5 4032a.dat
1 10 7.320000000000001 -32 27.32 -0.499956 0 0.8660000000000001 0 1 0 -0.8660000000000001 0 -0.499956 30093.dat
1 42 62.86200000000001 -34 5.117999999999999 -0.44398400000000005 -0.836556 0.321286 -0.837 0.259 -0.48300000000000004 0.32100000000000006 -0.48300000000000004 -0.8144560000000001 4740.dat
1 42 62.872 -44 -24.897999999999996 -0.44398400000000005 -0.836556 0.321286 -0.837 0.259 -0.48300000000000004 0.32100000000000006 -0.48300000000000004 -0.8144560000000001 4740.dat
1 42 60.46 -42 15.278 -0.9470000000000001 -0.32100000000000006 0.011022000000000032 -0.289 0.837 -0.466 0.14027 -0.44398400000000005 -0.8850520000000001 30153.dat
1 297 84.094 -44 -27.656 -0.9742500000000001 0.12497799999999998 0.187078 0.21600000000000003 0.7500000000000001 0.625 -0.06252200000000002 0.6495 -0.758 6141.dat
1 297 71.99600000000001 -38 -12.702 -0.9999560000000001 0 0 0 1 0 0 0 -0.9999560000000001 6141.dat
1 297 78.76400000000001 -29.000000000000004 -28.424 -0.779992 -0.612262 0.126436 -0.6120000000000001 0.707 -0.354 0.127 -0.3535 -0.9269559999999999 6141.dat
1 297 41.006 -66 10.974000000000002 -0.9949200000000001 -0.087 0.049949999999999994 -0.099 0.933 -0.346 -0.016722000000000015 -0.349294 -0.936476 2343.dat
1 19 120 0 190 0.766 0 -0.6430000000000001 0 1 0 0.6430000000000001 0 0.766 4032a.dat
1 4 112.34000000000002 -8 183.57 0.6430000000000001 0 0.766 0 1 0 -0.766 0 0.6430000000000001 2540.dat
1 4 127.66 -8 196.43 -0.6430000000000001 0 -0.766 0 1 0 0.766 0 -0.6430000000000001 2540.dat
1 4 120 -16 190 -0.6430000000000001 0 -0.766 0 1 0 0.766 0 -0.6430000000000001 3022.dat
1 4 120 -24.000000000000004 190 -0.6430000000000001 0 -0.766 0 1 0 0.766 0 -0.6430000000000001 4032a.dat
1 4 74.03999999999999 -6.000000000000001 151.42000000000002 0.6430000000000001 0 -0.766 0 -1 0 -0.766 0 -0.6430000000000001 53451.dat
1 72 97.02 -6.000000000000001 170.71 0 -0.766 -0.6430000000000001 1 0 0 0 -0.6430000000000001 0.766 11090.dat
1 72 86.732 -6.000000000000001 182.966 -0.13328399999999999 -0.75451 -0.6430000000000001 0.9850000000000001 -0.174 0 -0.11188200000000001 -0.633355 0.766 11090.dat
1 4 63.45829600000001 -11.209 164.735208 0.6430000000000001 0.13328399999999999 -0.75451 0 -0.9850000000000001 -0.174 -0.766 0.11188200000000001 -0.633355 53451.dat
1 72 107.308 -6.000000000000001 158.454 0.19839400000000004 -0.739956 -0.6430000000000001 0.9660000000000001 0.259 0 0.16653700000000005 -0.621138 0.766 11090.dat
1 4 85.110852 1.765 139.821146 0.6430000000000001 -0.19839400000000004 -0.739956 0 -0.9660000000000001 0.259 -0.766 -0.16653700000000005 -0.621138 53451.dat
1 72 132.692 -6.000000000000001 221.54600000000002 0.26197200000000004 0.72004 0.6430000000000001 0.94 -0.342 0 0.21990600000000002 0.60442 -0.766 11090.dat
1 4 154.286306 -16.261000000000003 239.67281300000002 -0.6430000000000001 -0.26197200000000004 0.72004 0 -0.94 -0.342 0.766 -0.21990600000000002 0.60442 53451.dat
1 72 142.98 -6.000000000000001 209.29000000000002 0 0.766 0.6430000000000001 1 0 0 0 0.6430000000000001 -0.766 11090.dat
1 4 165.96 -6.000000000000001 228.58 -0.6430000000000001 0 0.766 0 -1 0 0.766 0 0.6430000000000001 53451.dat
1 72 153.268 -6.000000000000001 197.03400000000002 -0.13328399999999999 0.75451 0.6430000000000001 0.9850000000000001 0.174 0 -0.11188200000000001 0.633355 -0.766 11090.dat
1 4 176.54170399999998 -0.791 215.264792 -0.6430000000000001 0.13328399999999999 0.75451 0 -0.9850000000000001 0.174 0.766 0.11188200000000001 0.633355 53451.dat
1 72 112.34000000000002 -32 183.57 0.6430000000000001 0 0.766 0 1 0 -0.766 0 0.6430000000000001 14417.dat
1 72 127.66 -32 196.43 -0.6430000000000001 0 -0.766 0 1 0 0.766 0 -0.6430000000000001 14417.dat
1 4 126.43 -40 182.34000000000003 0.766 0 -0.6430000000000001 0 1 0 0.6430000000000001 0 0.766 44728.dat
1 4 120 -32 190 -0.766 0 0.6430000000000001 0 1 0 -0.6430000000000001 0 -0.766 15068.dat
1 4 140.57600000000002 -10 165.488 0.766 -0.6430000000000001 0 0 0 -1 0.6430000000000001 0.766 0 85984.dat
1 71 140.57600000000002 -10 165.488 0.766 -0.6430000000000001 0 0 0 -1 0.6430000000000001 0.766 0 44567.dat
1 4 140.57600000000002 -30 165.488 0.766 -0.6430000000000001 0 0 0 -1 0.6430000000000001 0.766 0 3023.dat
1 15 153.38 -30 165.79000000000002 0.766 -0.6430000000000001 0 0 0 -1 0.6430000000000001 0.766 0 98138p0k.dat
1 15 138.06 -30 152.93 0.766 -0.6430000000000001 0 0 0 -1 0.6430000000000001 0.766 0 98138p0k.dat
1 4 83.29127100000001 -51.922 116.489013 -0.23899000000000004 0.8494160000000002 0.47080800000000006 -0.8640000000000001 -0.40700000000000003 0.295 0.44181499999999996 -0.33680200000000005 0.8313290000000001 16770.dat
1 4 98.87419100000001 -42.15800000000001 144.02176300000002 -0.06759900000000002 0.968793 -0.23899000000000004 -0.439 -0.24400000000000002 -0.8640000000000001 -0.896342 0.046754000000000025 0.44181499999999996 60478.dat
1 71 91.12449000000001 -40.205 143.64696500000002 0.06759900000000002 0.968793 0.23899000000000004 0.439 -0.24400000000000002 0.8640000000000001 0.896342 0.046754000000000025 -0.44181499999999996 14418.dat
1 4 83.37466599999999 -38.25200000000001 143.270758 -0.06759900000000002 0.968793 -0.23899000000000004 -0.439 -0.24400000000000002 -0.8640000000000001 -0.896342 0.046754000000000025 0.44181499999999996 60478.dat
1 4 98.790796 -55.828 117.24001799999999 0.23899000000000004 -0.9063700000000001 -0.34896099999999997 0.8640000000000001 0.035 0.5010000000000001 -0.44181499999999996 -0.421335 0.792152 16770.dat
1 71 170.835194 -45.34300000000001 203.491447 -0.8630910000000002 0.22769900000000007 0.451172 0.492 0.17600000000000002 0.852 0.11509700000000006 0.957612 -0.26370400000000005 14418.dat
1 4 169.010018 -46.75 195.830154 0.8630910000000002 0.22769900000000007 -0.451172 -0.492 0.17600000000000002 -0.852 -0.11509700000000006 0.957612 0.26370400000000005 60478.dat
1 4 172.65972700000003 -43.936 211.153506 0.8630910000000002 0.22769900000000007 -0.451172 -0.492 0.17600000000000002 -0.852 -0.11509700000000006 0.957612 0.26370400000000005 60478.dat
1 4 195.35045800000003 -61.17100000000001 194.29384900000002 -0.451172 0.571244 -0.685235 -0.852 -0.04900000000000001 0.5210000000000001 0.26370400000000005 0.8190120000000001 0.509875 16770.dat
1 4 199.00016700000003 -58.356 209.61720100000002 0.451172 0.1584840000000001 -0.8781180000000001 0.852 -0.368 0.37200000000000005 -0.26370400000000005 -0.9167880000000002 -0.30099400000000004 16770.dat
